  0
SECTION
  2
HEADER
  9
$ACADVER
  1
AC1009
  9
$EXTMIN
 10
0.0
 20
0.0
 30
0.0
  9
$EXTMAX
 10
1000.0
 20
1000.0
 30
0.0
  9
$FILLMODE
 70
 0
  9
$SPLFRAME
 70
 1
  0
ENDSEC
  0
SECTION
  2
TABLES
  0
TABLE
  2
LAYER
 70
1
  0
LAYER
  2
0
 70
     0
 62
     7
  6
CONTINUOUS
  0
ENDTAB
  0
ENDSEC
  0
SECTION
  2
ENTITIES
  0
LINE
  8
0
 62
     0
 10
0.0937066
 20
64.8751
 30
0.0
 11
99.1538
 21
64.8751
 31
0.0
  0
LINE
  8
0
 62
     0
 10
99.1538
 20
64.8751
 30
0.0
 11
99.1538
 21
0.104731
 31
0.0
  0
LINE
  8
0
 62
     0
 10
99.1538
 20
0.104731
 30
0.0
 11
0.0937066
 21
0.104731
 31
0.0
  0
LINE
  8
0
 62
     0
 10
0.0937066
 20
0.104731
 30
0.0
 11
0.0937066
 21
64.8751
 31
0.0
  0
LINE
  8
0
 62
     0
 10
16.6192
 20
3.62977
 30
0.0
 11
16.6192
 21
2.63067
 31
0.0
  0
LINE
  8
0
 62
     0
 10
16.6192
 20
2.63067
 30
0.0
 11
2.61827
 21
2.63067
 31
0.0
  0
LINE
  8
0
 62
     0
 10
2.61827
 20
2.63067
 30
0.0
 11
2.61827
 21
3.62977
 31
0.0
  0
LINE
  8
0
 62
     0
 10
2.61827
 20
3.62977
 30
0.0
 11
1.81901
 21
3.62977
 31
0.0
  0
LINE
  8
0
 62
     0
 10
1.81901
 20
3.62977
 30
0.0
 11
1.81901
 21
6.73033
 31
0.0
  0
LINE
  8
0
 62
     0
 10
1.81901
 20
6.73033
 30
0.0
 11
2.61827
 21
6.73033
 31
0.0
  0
LINE
  8
0
 62
     0
 10
2.61827
 20
6.73033
 30
0.0
 11
2.61827
 21
12.5305
 31
0.0
  0
LINE
  8
0
 62
     0
 10
2.61827
 20
12.5305
 30
0.0
 11
1.81901
 21
12.5305
 31
0.0
  0
LINE
  8
0
 62
     0
 10
1.81901
 20
12.5305
 30
0.0
 11
1.81901
 21
15.6297
 31
0.0
  0
LINE
  8
0
 62
     0
 10
1.81901
 20
15.6297
 30
0.0
 11
2.61827
 21
15.6297
 31
0.0
  0
LINE
  8
0
 62
     0
 10
2.61827
 20
15.6297
 30
0.0
 11
2.61827
 21
16.6302
 31
0.0
  0
LINE
  8
0
 62
     0
 10
2.61827
 20
16.6302
 30
0.0
 11
16.6192
 21
16.6302
 31
0.0
  0
LINE
  8
0
 62
     0
 10
16.6192
 20
16.6302
 30
0.0
 11
16.6192
 21
15.6297
 31
0.0
  0
LINE
  8
0
 62
     0
 10
16.6192
 20
15.6297
 30
0.0
 11
17.4184
 21
15.6297
 31
0.0
  0
LINE
  8
0
 62
     0
 10
17.4184
 20
15.6297
 30
0.0
 11
17.4184
 21
12.5305
 31
0.0
  0
LINE
  8
0
 62
     0
 10
17.4184
 20
12.5305
 30
0.0
 11
16.6192
 21
12.5305
 31
0.0
  0
LINE
  8
0
 62
     0
 10
16.6192
 20
12.5305
 30
0.0
 11
16.6192
 21
6.73033
 31
0.0
  0
LINE
  8
0
 62
     0
 10
16.6192
 20
6.73033
 30
0.0
 11
17.4184
 21
6.73033
 31
0.0
  0
LINE
  8
0
 62
     0
 10
17.4184
 20
6.73033
 30
0.0
 11
17.4184
 21
3.62977
 31
0.0
  0
LINE
  8
0
 62
     0
 10
17.4184
 20
3.62977
 30
0.0
 11
16.6192
 21
3.62977
 31
0.0
  0
LINE
  8
0
 62
     0
 10
18.5236
 20
22.6798
 30
0.0
 11
18.5236
 21
21.6807
 31
0.0
  0
LINE
  8
0
 62
     0
 10
18.5236
 20
21.6807
 30
0.0
 11
4.52409
 21
21.6807
 31
0.0
  0
LINE
  8
0
 62
     0
 10
4.52409
 20
21.6807
 30
0.0
 11
4.52409
 21
22.6798
 31
0.0
  0
LINE
  8
0
 62
     0
 10
4.52409
 20
22.6798
 30
0.0
 11
3.72346
 21
22.6798
 31
0.0
  0
LINE
  8
0
 62
     0
 10
3.72346
 20
22.6798
 30
0.0
 11
3.72346
 21
25.7803
 31
0.0
  0
LINE
  8
0
 62
     0
 10
3.72346
 20
25.7803
 30
0.0
 11
4.52409
 21
25.7803
 31
0.0
  0
LINE
  8
0
 62
     0
 10
4.52409
 20
25.7803
 30
0.0
 11
4.52409
 21
31.5805
 31
0.0
  0
LINE
  8
0
 62
     0
 10
4.52409
 20
31.5805
 30
0.0
 11
3.72346
 21
31.5805
 31
0.0
  0
LINE
  8
0
 62
     0
 10
3.72346
 20
31.5805
 30
0.0
 11
3.72346
 21
34.6797
 31
0.0
  0
LINE
  8
0
 62
     0
 10
3.72346
 20
34.6797
 30
0.0
 11
4.52409
 21
34.6797
 31
0.0
  0
LINE
  8
0
 62
     0
 10
4.52409
 20
34.6797
 30
0.0
 11
4.52409
 21
35.6803
 31
0.0
  0
LINE
  8
0
 62
     0
 10
4.52409
 20
35.6803
 30
0.0
 11
18.5236
 21
35.6803
 31
0.0
  0
LINE
  8
0
 62
     0
 10
18.5236
 20
35.6803
 30
0.0
 11
18.5236
 21
34.6797
 31
0.0
  0
LINE
  8
0
 62
     0
 10
18.5236
 20
34.6797
 30
0.0
 11
19.3242
 21
34.6797
 31
0.0
  0
LINE
  8
0
 62
     0
 10
19.3242
 20
34.6797
 30
0.0
 11
19.3242
 21
31.5805
 31
0.0
  0
LINE
  8
0
 62
     0
 10
19.3242
 20
31.5805
 30
0.0
 11
18.5236
 21
31.5805
 31
0.0
  0
LINE
  8
0
 62
     0
 10
18.5236
 20
31.5805
 30
0.0
 11
18.5236
 21
25.7803
 31
0.0
  0
LINE
  8
0
 62
     0
 10
18.5236
 20
25.7803
 30
0.0
 11
19.3242
 21
25.7803
 31
0.0
  0
LINE
  8
0
 62
     0
 10
19.3242
 20
25.7803
 30
0.0
 11
19.3242
 21
22.6798
 31
0.0
  0
LINE
  8
0
 62
     0
 10
19.3242
 20
22.6798
 30
0.0
 11
18.5236
 21
22.6798
 31
0.0
  0
LINE
  8
0
 62
     0
 10
20.4294
 20
41.7297
 30
0.0
 11
20.4294
 21
40.7307
 31
0.0
  0
LINE
  8
0
 62
     0
 10
20.4294
 20
40.7307
 30
0.0
 11
6.42856
 21
40.7307
 31
0.0
  0
LINE
  8
0
 62
     0
 10
6.42856
 20
40.7307
 30
0.0
 11
6.42856
 21
41.7297
 31
0.0
  0
LINE
  8
0
 62
     0
 10
6.42856
 20
41.7297
 30
0.0
 11
5.62927
 21
41.7297
 31
0.0
  0
LINE
  8
0
 62
     0
 10
5.62927
 20
41.7297
 30
0.0
 11
5.62927
 21
44.8303
 31
0.0
  0
LINE
  8
0
 62
     0
 10
5.62927
 20
44.8303
 30
0.0
 11
6.42856
 21
44.8303
 31
0.0
  0
LINE
  8
0
 62
     0
 10
6.42856
 20
44.8303
 30
0.0
 11
6.42856
 21
50.6307
 31
0.0
  0
LINE
  8
0
 62
     0
 10
6.42856
 20
50.6307
 30
0.0
 11
5.62927
 21
50.6307
 31
0.0
  0
LINE
  8
0
 62
     0
 10
5.62927
 20
50.6307
 30
0.0
 11
5.62927
 21
53.7298
 31
0.0
  0
LINE
  8
0
 62
     0
 10
5.62927
 20
53.7298
 30
0.0
 11
6.42856
 21
53.7298
 31
0.0
  0
LINE
  8
0
 62
     0
 10
6.42856
 20
53.7298
 30
0.0
 11
6.42856
 21
54.7303
 31
0.0
  0
LINE
  8
0
 62
     0
 10
6.42856
 20
54.7303
 30
0.0
 11
20.4294
 21
54.7303
 31
0.0
  0
LINE
  8
0
 62
     0
 10
20.4294
 20
54.7303
 30
0.0
 11
20.4294
 21
53.7298
 31
0.0
  0
LINE
  8
0
 62
     0
 10
20.4294
 20
53.7298
 30
0.0
 11
21.2287
 21
53.7298
 31
0.0
  0
LINE
  8
0
 62
     0
 10
21.2287
 20
53.7298
 30
0.0
 11
21.2287
 21
50.6307
 31
0.0
  0
LINE
  8
0
 62
     0
 10
21.2287
 20
50.6307
 30
0.0
 11
20.4294
 21
50.6307
 31
0.0
  0
LINE
  8
0
 62
     0
 10
20.4294
 20
50.6307
 30
0.0
 11
20.4294
 21
44.8303
 31
0.0
  0
LINE
  8
0
 62
     0
 10
20.4294
 20
44.8303
 30
0.0
 11
21.2287
 21
44.8303
 31
0.0
  0
LINE
  8
0
 62
     0
 10
21.2287
 20
44.8303
 30
0.0
 11
21.2287
 21
41.7297
 31
0.0
  0
LINE
  8
0
 62
     0
 10
21.2287
 20
41.7297
 30
0.0
 11
20.4294
 21
41.7297
 31
0.0
  0
LINE
  8
0
 62
     0
 10
35.669
 20
7.44001
 30
0.0
 11
35.669
 21
6.43957
 31
0.0
  0
LINE
  8
0
 62
     0
 10
35.669
 20
6.43957
 30
0.0
 11
21.6683
 21
6.43957
 31
0.0
  0
LINE
  8
0
 62
     0
 10
21.6683
 20
6.43957
 30
0.0
 11
21.6683
 21
7.44001
 31
0.0
  0
LINE
  8
0
 62
     0
 10
21.6683
 20
7.44001
 30
0.0
 11
20.869
 21
7.44001
 31
0.0
  0
LINE
  8
0
 62
     0
 10
20.869
 20
7.44001
 30
0.0
 11
20.869
 21
10.5406
 31
0.0
  0
LINE
  8
0
 62
     0
 10
20.869
 20
10.5406
 30
0.0
 11
21.6683
 21
10.5406
 31
0.0
  0
LINE
  8
0
 62
     0
 10
21.6683
 20
10.5406
 30
0.0
 11
21.6683
 21
16.3408
 31
0.0
  0
LINE
  8
0
 62
     0
 10
21.6683
 20
16.3408
 30
0.0
 11
20.869
 21
16.3408
 31
0.0
  0
LINE
  8
0
 62
     0
 10
20.869
 20
16.3408
 30
0.0
 11
20.869
 21
19.44
 31
0.0
  0
LINE
  8
0
 62
     0
 10
20.869
 20
19.44
 30
0.0
 11
21.6683
 21
19.44
 31
0.0
  0
LINE
  8
0
 62
     0
 10
21.6683
 20
19.44
 30
0.0
 11
21.6683
 21
20.4404
 31
0.0
  0
LINE
  8
0
 62
     0
 10
21.6683
 20
20.4404
 30
0.0
 11
35.669
 21
20.4404
 31
0.0
  0
LINE
  8
0
 62
     0
 10
35.669
 20
20.4404
 30
0.0
 11
35.669
 21
19.44
 31
0.0
  0
LINE
  8
0
 62
     0
 10
35.669
 20
19.44
 30
0.0
 11
36.4684
 21
19.44
 31
0.0
  0
LINE
  8
0
 62
     0
 10
36.4684
 20
19.44
 30
0.0
 11
36.4684
 21
16.3408
 31
0.0
  0
LINE
  8
0
 62
     0
 10
36.4684
 20
16.3408
 30
0.0
 11
35.669
 21
16.3408
 31
0.0
  0
LINE
  8
0
 62
     0
 10
35.669
 20
16.3408
 30
0.0
 11
35.669
 21
10.5406
 31
0.0
  0
LINE
  8
0
 62
     0
 10
35.669
 20
10.5406
 30
0.0
 11
36.4684
 21
10.5406
 31
0.0
  0
LINE
  8
0
 62
     0
 10
36.4684
 20
10.5406
 30
0.0
 11
36.4684
 21
7.44001
 31
0.0
  0
LINE
  8
0
 62
     0
 10
36.4684
 20
7.44001
 30
0.0
 11
35.669
 21
7.44001
 31
0.0
  0
LINE
  8
0
 62
     0
 10
37.5737
 20
26.49
 30
0.0
 11
37.5737
 21
25.4896
 31
0.0
  0
LINE
  8
0
 62
     0
 10
37.5737
 20
25.4896
 30
0.0
 11
23.5741
 21
25.4896
 31
0.0
  0
LINE
  8
0
 62
     0
 10
23.5741
 20
25.4896
 30
0.0
 11
23.5741
 21
26.49
 31
0.0
  0
LINE
  8
0
 62
     0
 10
23.5741
 20
26.49
 30
0.0
 11
22.7735
 21
26.49
 31
0.0
  0
LINE
  8
0
 62
     0
 10
22.7735
 20
26.49
 30
0.0
 11
22.7735
 21
29.5906
 31
0.0
  0
LINE
  8
0
 62
     0
 10
22.7735
 20
29.5906
 30
0.0
 11
23.5741
 21
29.5906
 31
0.0
  0
LINE
  8
0
 62
     0
 10
23.5741
 20
29.5906
 30
0.0
 11
23.5741
 21
35.3907
 31
0.0
  0
LINE
  8
0
 62
     0
 10
23.5741
 20
35.3907
 30
0.0
 11
22.7735
 21
35.3907
 31
0.0
  0
LINE
  8
0
 62
     0
 10
22.7735
 20
35.3907
 30
0.0
 11
22.7735
 21
38.4898
 31
0.0
  0
LINE
  8
0
 62
     0
 10
22.7735
 20
38.4898
 30
0.0
 11
23.5741
 21
38.4898
 31
0.0
  0
LINE
  8
0
 62
     0
 10
23.5741
 20
38.4898
 30
0.0
 11
23.5741
 21
39.4903
 31
0.0
  0
LINE
  8
0
 62
     0
 10
23.5741
 20
39.4903
 30
0.0
 11
37.5737
 21
39.4903
 31
0.0
  0
LINE
  8
0
 62
     0
 10
37.5737
 20
39.4903
 30
0.0
 11
37.5737
 21
38.4898
 31
0.0
  0
LINE
  8
0
 62
     0
 10
37.5737
 20
38.4898
 30
0.0
 11
38.3741
 21
38.4898
 31
0.0
  0
LINE
  8
0
 62
     0
 10
38.3741
 20
38.4898
 30
0.0
 11
38.3741
 21
35.3907
 31
0.0
  0
LINE
  8
0
 62
     0
 10
38.3741
 20
35.3907
 30
0.0
 11
37.5737
 21
35.3907
 31
0.0
  0
LINE
  8
0
 62
     0
 10
37.5737
 20
35.3907
 30
0.0
 11
37.5737
 21
29.5906
 31
0.0
  0
LINE
  8
0
 62
     0
 10
37.5737
 20
29.5906
 30
0.0
 11
38.3741
 21
29.5906
 31
0.0
  0
LINE
  8
0
 62
     0
 10
38.3741
 20
29.5906
 30
0.0
 11
38.3741
 21
26.49
 31
0.0
  0
LINE
  8
0
 62
     0
 10
38.3741
 20
26.49
 30
0.0
 11
37.5737
 21
26.49
 31
0.0
  0
LINE
  8
0
 62
     0
 10
39.4794
 20
45.5401
 30
0.0
 11
39.4794
 21
44.5396
 31
0.0
  0
LINE
  8
0
 62
     0
 10
39.4794
 20
44.5396
 30
0.0
 11
25.4786
 21
44.5396
 31
0.0
  0
LINE
  8
0
 62
     0
 10
25.4786
 20
44.5396
 30
0.0
 11
25.4786
 21
45.5401
 31
0.0
  0
LINE
  8
0
 62
     0
 10
25.4786
 20
45.5401
 30
0.0
 11
24.6793
 21
45.5401
 31
0.0
  0
LINE
  8
0
 62
     0
 10
24.6793
 20
45.5401
 30
0.0
 11
24.6793
 21
48.6406
 31
0.0
  0
LINE
  8
0
 62
     0
 10
24.6793
 20
48.6406
 30
0.0
 11
25.4786
 21
48.6406
 31
0.0
  0
LINE
  8
0
 62
     0
 10
25.4786
 20
48.6406
 30
0.0
 11
25.4786
 21
54.4407
 31
0.0
  0
LINE
  8
0
 62
     0
 10
25.4786
 20
54.4407
 30
0.0
 11
24.6793
 21
54.4407
 31
0.0
  0
LINE
  8
0
 62
     0
 10
24.6793
 20
54.4407
 30
0.0
 11
24.6793
 21
57.5398
 31
0.0
  0
LINE
  8
0
 62
     0
 10
24.6793
 20
57.5398
 30
0.0
 11
25.4786
 21
57.5398
 31
0.0
  0
LINE
  8
0
 62
     0
 10
25.4786
 20
57.5398
 30
0.0
 11
25.4786
 21
58.5403
 31
0.0
  0
LINE
  8
0
 62
     0
 10
25.4786
 20
58.5403
 30
0.0
 11
39.4794
 21
58.5403
 31
0.0
  0
LINE
  8
0
 62
     0
 10
39.4794
 20
58.5403
 30
0.0
 11
39.4794
 21
57.5398
 31
0.0
  0
LINE
  8
0
 62
     0
 10
39.4794
 20
57.5398
 30
0.0
 11
40.2788
 21
57.5398
 31
0.0
  0
LINE
  8
0
 62
     0
 10
40.2788
 20
57.5398
 30
0.0
 11
40.2788
 21
54.4407
 31
0.0
  0
LINE
  8
0
 62
     0
 10
40.2788
 20
54.4407
 30
0.0
 11
39.4794
 21
54.4407
 31
0.0
  0
LINE
  8
0
 62
     0
 10
39.4794
 20
54.4407
 30
0.0
 11
39.4794
 21
48.6406
 31
0.0
  0
LINE
  8
0
 62
     0
 10
39.4794
 20
48.6406
 30
0.0
 11
40.2788
 21
48.6406
 31
0.0
  0
LINE
  8
0
 62
     0
 10
40.2788
 20
48.6406
 30
0.0
 11
40.2788
 21
45.5401
 31
0.0
  0
LINE
  8
0
 62
     0
 10
40.2788
 20
45.5401
 30
0.0
 11
39.4794
 21
45.5401
 31
0.0
  0
LINE
  8
0
 62
     0
 10
54.719
 20
11.2503
 30
0.0
 11
54.719
 21
10.2499
 31
0.0
  0
LINE
  8
0
 62
     0
 10
54.719
 20
10.2499
 30
0.0
 11
40.7183
 21
10.2499
 31
0.0
  0
LINE
  8
0
 62
     0
 10
40.7183
 20
10.2499
 30
0.0
 11
40.7183
 21
11.2503
 31
0.0
  0
LINE
  8
0
 62
     0
 10
40.7183
 20
11.2503
 30
0.0
 11
39.9189
 21
11.2503
 31
0.0
  0
LINE
  8
0
 62
     0
 10
39.9189
 20
11.2503
 30
0.0
 11
39.9189
 21
14.3509
 31
0.0
  0
LINE
  8
0
 62
     0
 10
39.9189
 20
14.3509
 30
0.0
 11
40.7183
 21
14.3509
 31
0.0
  0
LINE
  8
0
 62
     0
 10
40.7183
 20
14.3509
 30
0.0
 11
40.7183
 21
20.1497
 31
0.0
  0
LINE
  8
0
 62
     0
 10
40.7183
 20
20.1497
 30
0.0
 11
39.9189
 21
20.1497
 31
0.0
  0
LINE
  8
0
 62
     0
 10
39.9189
 20
20.1497
 30
0.0
 11
39.9189
 21
23.2503
 31
0.0
  0
LINE
  8
0
 62
     0
 10
39.9189
 20
23.2503
 30
0.0
 11
40.7183
 21
23.2503
 31
0.0
  0
LINE
  8
0
 62
     0
 10
40.7183
 20
23.2503
 30
0.0
 11
40.7183
 21
24.2507
 31
0.0
  0
LINE
  8
0
 62
     0
 10
40.7183
 20
24.2507
 30
0.0
 11
54.719
 21
24.2507
 31
0.0
  0
LINE
  8
0
 62
     0
 10
54.719
 20
24.2507
 30
0.0
 11
54.719
 21
23.2503
 31
0.0
  0
LINE
  8
0
 62
     0
 10
54.719
 20
23.2503
 30
0.0
 11
55.5184
 21
23.2503
 31
0.0
  0
LINE
  8
0
 62
     0
 10
55.5184
 20
23.2503
 30
0.0
 11
55.5184
 21
20.1497
 31
0.0
  0
LINE
  8
0
 62
     0
 10
55.5184
 20
20.1497
 30
0.0
 11
54.719
 21
20.1497
 31
0.0
  0
LINE
  8
0
 62
     0
 10
54.719
 20
20.1497
 30
0.0
 11
54.719
 21
14.3509
 31
0.0
  0
LINE
  8
0
 62
     0
 10
54.719
 20
14.3509
 30
0.0
 11
55.5184
 21
14.3509
 31
0.0
  0
LINE
  8
0
 62
     0
 10
55.5184
 20
14.3509
 30
0.0
 11
55.5184
 21
11.2503
 31
0.0
  0
LINE
  8
0
 62
     0
 10
55.5184
 20
11.2503
 30
0.0
 11
54.719
 21
11.2503
 31
0.0
  0
LINE
  8
0
 62
     0
 10
56.6237
 20
30.3003
 30
0.0
 11
56.6237
 21
29.2999
 31
0.0
  0
LINE
  8
0
 62
     0
 10
56.6237
 20
29.2999
 30
0.0
 11
42.624
 21
29.2999
 31
0.0
  0
LINE
  8
0
 62
     0
 10
42.624
 20
29.2999
 30
0.0
 11
42.624
 21
30.3003
 31
0.0
  0
LINE
  8
0
 62
     0
 10
42.624
 20
30.3003
 30
0.0
 11
41.8236
 21
30.3003
 31
0.0
  0
LINE
  8
0
 62
     0
 10
41.8236
 20
30.3003
 30
0.0
 11
41.8236
 21
33.4009
 31
0.0
  0
LINE
  8
0
 62
     0
 10
41.8236
 20
33.4009
 30
0.0
 11
42.624
 21
33.4009
 31
0.0
  0
LINE
  8
0
 62
     0
 10
42.624
 20
33.4009
 30
0.0
 11
42.624
 21
39.1996
 31
0.0
  0
LINE
  8
0
 62
     0
 10
42.624
 20
39.1996
 30
0.0
 11
41.8236
 21
39.1996
 31
0.0
  0
LINE
  8
0
 62
     0
 10
41.8236
 20
39.1996
 30
0.0
 11
41.8236
 21
42.3002
 31
0.0
  0
LINE
  8
0
 62
     0
 10
41.8236
 20
42.3002
 30
0.0
 11
42.624
 21
42.3002
 31
0.0
  0
LINE
  8
0
 62
     0
 10
42.624
 20
42.3002
 30
0.0
 11
42.624
 21
43.3006
 31
0.0
  0
LINE
  8
0
 62
     0
 10
42.624
 20
43.3006
 30
0.0
 11
56.6237
 21
43.3006
 31
0.0
  0
LINE
  8
0
 62
     0
 10
56.6237
 20
43.3006
 30
0.0
 11
56.6237
 21
42.3002
 31
0.0
  0
LINE
  8
0
 62
     0
 10
56.6237
 20
42.3002
 30
0.0
 11
57.4241
 21
42.3002
 31
0.0
  0
LINE
  8
0
 62
     0
 10
57.4241
 20
42.3002
 30
0.0
 11
57.4241
 21
39.1996
 31
0.0
  0
LINE
  8
0
 62
     0
 10
57.4241
 20
39.1996
 30
0.0
 11
56.6237
 21
39.1996
 31
0.0
  0
LINE
  8
0
 62
     0
 10
56.6237
 20
39.1996
 30
0.0
 11
56.6237
 21
33.4009
 31
0.0
  0
LINE
  8
0
 62
     0
 10
56.6237
 20
33.4009
 30
0.0
 11
57.4241
 21
33.4009
 31
0.0
  0
LINE
  8
0
 62
     0
 10
57.4241
 20
33.4009
 30
0.0
 11
57.4241
 21
30.3003
 31
0.0
  0
LINE
  8
0
 62
     0
 10
57.4241
 20
30.3003
 30
0.0
 11
56.6237
 21
30.3003
 31
0.0
  0
LINE
  8
0
 62
     0
 10
58.5294
 20
49.3504
 30
0.0
 11
58.5294
 21
48.35
 31
0.0
  0
LINE
  8
0
 62
     0
 10
58.5294
 20
48.35
 30
0.0
 11
44.5287
 21
48.35
 31
0.0
  0
LINE
  8
0
 62
     0
 10
44.5287
 20
48.35
 30
0.0
 11
44.5287
 21
49.3504
 31
0.0
  0
LINE
  8
0
 62
     0
 10
44.5287
 20
49.3504
 30
0.0
 11
43.7293
 21
49.3504
 31
0.0
  0
LINE
  8
0
 62
     0
 10
43.7293
 20
49.3504
 30
0.0
 11
43.7293
 21
52.451
 31
0.0
  0
LINE
  8
0
 62
     0
 10
43.7293
 20
52.451
 30
0.0
 11
44.5287
 21
52.451
 31
0.0
  0
LINE
  8
0
 62
     0
 10
44.5287
 20
52.451
 30
0.0
 11
44.5287
 21
58.2496
 31
0.0
  0
LINE
  8
0
 62
     0
 10
44.5287
 20
58.2496
 30
0.0
 11
43.7293
 21
58.2496
 31
0.0
  0
LINE
  8
0
 62
     0
 10
43.7293
 20
58.2496
 30
0.0
 11
43.7293
 21
61.3502
 31
0.0
  0
LINE
  8
0
 62
     0
 10
43.7293
 20
61.3502
 30
0.0
 11
44.5287
 21
61.3502
 31
0.0
  0
LINE
  8
0
 62
     0
 10
44.5287
 20
61.3502
 30
0.0
 11
44.5287
 21
62.3507
 31
0.0
  0
LINE
  8
0
 62
     0
 10
44.5287
 20
62.3507
 30
0.0
 11
58.5294
 21
62.3507
 31
0.0
  0
LINE
  8
0
 62
     0
 10
58.5294
 20
62.3507
 30
0.0
 11
58.5294
 21
61.3502
 31
0.0
  0
LINE
  8
0
 62
     0
 10
58.5294
 20
61.3502
 30
0.0
 11
59.3288
 21
61.3502
 31
0.0
  0
LINE
  8
0
 62
     0
 10
59.3288
 20
61.3502
 30
0.0
 11
59.3288
 21
58.2496
 31
0.0
  0
LINE
  8
0
 62
     0
 10
59.3288
 20
58.2496
 30
0.0
 11
58.5294
 21
58.2496
 31
0.0
  0
LINE
  8
0
 62
     0
 10
58.5294
 20
58.2496
 30
0.0
 11
58.5294
 21
52.451
 31
0.0
  0
LINE
  8
0
 62
     0
 10
58.5294
 20
52.451
 30
0.0
 11
59.3288
 21
52.451
 31
0.0
  0
LINE
  8
0
 62
     0
 10
59.3288
 20
52.451
 30
0.0
 11
59.3288
 21
49.3504
 31
0.0
  0
LINE
  8
0
 62
     0
 10
59.3288
 20
49.3504
 30
0.0
 11
58.5294
 21
49.3504
 31
0.0
  0
LINE
  8
0
 62
     0
 10
73.769
 20
7.44001
 30
0.0
 11
73.769
 21
6.43957
 31
0.0
  0
LINE
  8
0
 62
     0
 10
73.769
 20
6.43957
 30
0.0
 11
59.7683
 21
6.43957
 31
0.0
  0
LINE
  8
0
 62
     0
 10
59.7683
 20
6.43957
 30
0.0
 11
59.7683
 21
7.44001
 31
0.0
  0
LINE
  8
0
 62
     0
 10
59.7683
 20
7.44001
 30
0.0
 11
58.9689
 21
7.44001
 31
0.0
  0
LINE
  8
0
 62
     0
 10
58.9689
 20
7.44001
 30
0.0
 11
58.9689
 21
10.5406
 31
0.0
  0
LINE
  8
0
 62
     0
 10
58.9689
 20
10.5406
 30
0.0
 11
59.7683
 21
10.5406
 31
0.0
  0
LINE
  8
0
 62
     0
 10
59.7683
 20
10.5406
 30
0.0
 11
59.7683
 21
16.3408
 31
0.0
  0
LINE
  8
0
 62
     0
 10
59.7683
 20
16.3408
 30
0.0
 11
58.9689
 21
16.3408
 31
0.0
  0
LINE
  8
0
 62
     0
 10
58.9689
 20
16.3408
 30
0.0
 11
58.9689
 21
19.44
 31
0.0
  0
LINE
  8
0
 62
     0
 10
58.9689
 20
19.44
 30
0.0
 11
59.7683
 21
19.44
 31
0.0
  0
LINE
  8
0
 62
     0
 10
59.7683
 20
19.44
 30
0.0
 11
59.7683
 21
20.4404
 31
0.0
  0
LINE
  8
0
 62
     0
 10
59.7683
 20
20.4404
 30
0.0
 11
73.769
 21
20.4404
 31
0.0
  0
LINE
  8
0
 62
     0
 10
73.769
 20
20.4404
 30
0.0
 11
73.769
 21
19.44
 31
0.0
  0
LINE
  8
0
 62
     0
 10
73.769
 20
19.44
 30
0.0
 11
74.5684
 21
19.44
 31
0.0
  0
LINE
  8
0
 62
     0
 10
74.5684
 20
19.44
 30
0.0
 11
74.5684
 21
16.3408
 31
0.0
  0
LINE
  8
0
 62
     0
 10
74.5684
 20
16.3408
 30
0.0
 11
73.769
 21
16.3408
 31
0.0
  0
LINE
  8
0
 62
     0
 10
73.769
 20
16.3408
 30
0.0
 11
73.769
 21
10.5406
 31
0.0
  0
LINE
  8
0
 62
     0
 10
73.769
 20
10.5406
 30
0.0
 11
74.5684
 21
10.5406
 31
0.0
  0
LINE
  8
0
 62
     0
 10
74.5684
 20
10.5406
 30
0.0
 11
74.5684
 21
7.44001
 31
0.0
  0
LINE
  8
0
 62
     0
 10
74.5684
 20
7.44001
 30
0.0
 11
73.769
 21
7.44001
 31
0.0
  0
LINE
  8
0
 62
     0
 10
75.6737
 20
26.49
 30
0.0
 11
75.6737
 21
25.4896
 31
0.0
  0
LINE
  8
0
 62
     0
 10
75.6737
 20
25.4896
 30
0.0
 11
61.674
 21
25.4896
 31
0.0
  0
LINE
  8
0
 62
     0
 10
61.674
 20
25.4896
 30
0.0
 11
61.674
 21
26.49
 31
0.0
  0
LINE
  8
0
 62
     0
 10
61.674
 20
26.49
 30
0.0
 11
60.8736
 21
26.49
 31
0.0
  0
LINE
  8
0
 62
     0
 10
60.8736
 20
26.49
 30
0.0
 11
60.8736
 21
29.5906
 31
0.0
  0
LINE
  8
0
 62
     0
 10
60.8736
 20
29.5906
 30
0.0
 11
61.674
 21
29.5906
 31
0.0
  0
LINE
  8
0
 62
     0
 10
61.674
 20
29.5906
 30
0.0
 11
61.674
 21
35.3907
 31
0.0
  0
LINE
  8
0
 62
     0
 10
61.674
 20
35.3907
 30
0.0
 11
60.8736
 21
35.3907
 31
0.0
  0
LINE
  8
0
 62
     0
 10
60.8736
 20
35.3907
 30
0.0
 11
60.8736
 21
38.4898
 31
0.0
  0
LINE
  8
0
 62
     0
 10
60.8736
 20
38.4898
 30
0.0
 11
61.674
 21
38.4898
 31
0.0
  0
LINE
  8
0
 62
     0
 10
61.674
 20
38.4898
 30
0.0
 11
61.674
 21
39.4903
 31
0.0
  0
LINE
  8
0
 62
     0
 10
61.674
 20
39.4903
 30
0.0
 11
75.6737
 21
39.4903
 31
0.0
  0
LINE
  8
0
 62
     0
 10
75.6737
 20
39.4903
 30
0.0
 11
75.6737
 21
38.4898
 31
0.0
  0
LINE
  8
0
 62
     0
 10
75.6737
 20
38.4898
 30
0.0
 11
76.4741
 21
38.4898
 31
0.0
  0
LINE
  8
0
 62
     0
 10
76.4741
 20
38.4898
 30
0.0
 11
76.4741
 21
35.3907
 31
0.0
  0
LINE
  8
0
 62
     0
 10
76.4741
 20
35.3907
 30
0.0
 11
75.6737
 21
35.3907
 31
0.0
  0
LINE
  8
0
 62
     0
 10
75.6737
 20
35.3907
 30
0.0
 11
75.6737
 21
29.5906
 31
0.0
  0
LINE
  8
0
 62
     0
 10
75.6737
 20
29.5906
 30
0.0
 11
76.4741
 21
29.5906
 31
0.0
  0
LINE
  8
0
 62
     0
 10
76.4741
 20
29.5906
 30
0.0
 11
76.4741
 21
26.49
 31
0.0
  0
LINE
  8
0
 62
     0
 10
76.4741
 20
26.49
 30
0.0
 11
75.6737
 21
26.49
 31
0.0
  0
LINE
  8
0
 62
     0
 10
77.5794
 20
45.5401
 30
0.0
 11
77.5794
 21
44.5396
 31
0.0
  0
LINE
  8
0
 62
     0
 10
77.5794
 20
44.5396
 30
0.0
 11
63.5787
 21
44.5396
 31
0.0
  0
LINE
  8
0
 62
     0
 10
63.5787
 20
44.5396
 30
0.0
 11
63.5787
 21
45.5401
 31
0.0
  0
LINE
  8
0
 62
     0
 10
63.5787
 20
45.5401
 30
0.0
 11
62.7793
 21
45.5401
 31
0.0
  0
LINE
  8
0
 62
     0
 10
62.7793
 20
45.5401
 30
0.0
 11
62.7793
 21
48.6406
 31
0.0
  0
LINE
  8
0
 62
     0
 10
62.7793
 20
48.6406
 30
0.0
 11
63.5787
 21
48.6406
 31
0.0
  0
LINE
  8
0
 62
     0
 10
63.5787
 20
48.6406
 30
0.0
 11
63.5787
 21
54.4407
 31
0.0
  0
LINE
  8
0
 62
     0
 10
63.5787
 20
54.4407
 30
0.0
 11
62.7793
 21
54.4407
 31
0.0
  0
LINE
  8
0
 62
     0
 10
62.7793
 20
54.4407
 30
0.0
 11
62.7793
 21
57.5398
 31
0.0
  0
LINE
  8
0
 62
     0
 10
62.7793
 20
57.5398
 30
0.0
 11
63.5787
 21
57.5398
 31
0.0
  0
LINE
  8
0
 62
     0
 10
63.5787
 20
57.5398
 30
0.0
 11
63.5787
 21
58.5403
 31
0.0
  0
LINE
  8
0
 62
     0
 10
63.5787
 20
58.5403
 30
0.0
 11
77.5794
 21
58.5403
 31
0.0
  0
LINE
  8
0
 62
     0
 10
77.5794
 20
58.5403
 30
0.0
 11
77.5794
 21
57.5398
 31
0.0
  0
LINE
  8
0
 62
     0
 10
77.5794
 20
57.5398
 30
0.0
 11
78.3788
 21
57.5398
 31
0.0
  0
LINE
  8
0
 62
     0
 10
78.3788
 20
57.5398
 30
0.0
 11
78.3788
 21
54.4407
 31
0.0
  0
LINE
  8
0
 62
     0
 10
78.3788
 20
54.4407
 30
0.0
 11
77.5794
 21
54.4407
 31
0.0
  0
LINE
  8
0
 62
     0
 10
77.5794
 20
54.4407
 30
0.0
 11
77.5794
 21
48.6406
 31
0.0
  0
LINE
  8
0
 62
     0
 10
77.5794
 20
48.6406
 30
0.0
 11
78.3788
 21
48.6406
 31
0.0
  0
LINE
  8
0
 62
     0
 10
78.3788
 20
48.6406
 30
0.0
 11
78.3788
 21
45.5401
 31
0.0
  0
LINE
  8
0
 62
     0
 10
78.3788
 20
45.5401
 30
0.0
 11
77.5794
 21
45.5401
 31
0.0
  0
LINE
  8
0
 62
     0
 10
92.819
 20
3.62977
 30
0.0
 11
92.819
 21
2.63067
 31
0.0
  0
LINE
  8
0
 62
     0
 10
92.819
 20
2.63067
 30
0.0
 11
78.8183
 21
2.63067
 31
0.0
  0
LINE
  8
0
 62
     0
 10
78.8183
 20
2.63067
 30
0.0
 11
78.8183
 21
3.62977
 31
0.0
  0
LINE
  8
0
 62
     0
 10
78.8183
 20
3.62977
 30
0.0
 11
78.0189
 21
3.62977
 31
0.0
  0
LINE
  8
0
 62
     0
 10
78.0189
 20
3.62977
 30
0.0
 11
78.0189
 21
6.73033
 31
0.0
  0
LINE
  8
0
 62
     0
 10
78.0189
 20
6.73033
 30
0.0
 11
78.8183
 21
6.73033
 31
0.0
  0
LINE
  8
0
 62
     0
 10
78.8183
 20
6.73033
 30
0.0
 11
78.8183
 21
12.5305
 31
0.0
  0
LINE
  8
0
 62
     0
 10
78.8183
 20
12.5305
 30
0.0
 11
78.0189
 21
12.5305
 31
0.0
  0
LINE
  8
0
 62
     0
 10
78.0189
 20
12.5305
 30
0.0
 11
78.0189
 21
15.6297
 31
0.0
  0
LINE
  8
0
 62
     0
 10
78.0189
 20
15.6297
 30
0.0
 11
78.8183
 21
15.6297
 31
0.0
  0
LINE
  8
0
 62
     0
 10
78.8183
 20
15.6297
 30
0.0
 11
78.8183
 21
16.6302
 31
0.0
  0
LINE
  8
0
 62
     0
 10
78.8183
 20
16.6302
 30
0.0
 11
92.819
 21
16.6302
 31
0.0
  0
LINE
  8
0
 62
     0
 10
92.819
 20
16.6302
 30
0.0
 11
92.819
 21
15.6297
 31
0.0
  0
LINE
  8
0
 62
     0
 10
92.819
 20
15.6297
 30
0.0
 11
93.6184
 21
15.6297
 31
0.0
  0
LINE
  8
0
 62
     0
 10
93.6184
 20
15.6297
 30
0.0
 11
93.6184
 21
12.5305
 31
0.0
  0
LINE
  8
0
 62
     0
 10
93.6184
 20
12.5305
 30
0.0
 11
92.819
 21
12.5305
 31
0.0
  0
LINE
  8
0
 62
     0
 10
92.819
 20
12.5305
 30
0.0
 11
92.819
 21
6.73033
 31
0.0
  0
LINE
  8
0
 62
     0
 10
92.819
 20
6.73033
 30
0.0
 11
93.6184
 21
6.73033
 31
0.0
  0
LINE
  8
0
 62
     0
 10
93.6184
 20
6.73033
 30
0.0
 11
93.6184
 21
3.62977
 31
0.0
  0
LINE
  8
0
 62
     0
 10
93.6184
 20
3.62977
 30
0.0
 11
92.819
 21
3.62977
 31
0.0
  0
LINE
  8
0
 62
     0
 10
94.7237
 20
22.6798
 30
0.0
 11
94.7237
 21
21.6807
 31
0.0
  0
LINE
  8
0
 62
     0
 10
94.7237
 20
21.6807
 30
0.0
 11
80.724
 21
21.6807
 31
0.0
  0
LINE
  8
0
 62
     0
 10
80.724
 20
21.6807
 30
0.0
 11
80.724
 21
22.6798
 31
0.0
  0
LINE
  8
0
 62
     0
 10
80.724
 20
22.6798
 30
0.0
 11
79.9236
 21
22.6798
 31
0.0
  0
LINE
  8
0
 62
     0
 10
79.9236
 20
22.6798
 30
0.0
 11
79.9236
 21
25.7803
 31
0.0
  0
LINE
  8
0
 62
     0
 10
79.9236
 20
25.7803
 30
0.0
 11
80.724
 21
25.7803
 31
0.0
  0
LINE
  8
0
 62
     0
 10
80.724
 20
25.7803
 30
0.0
 11
80.724
 21
31.5805
 31
0.0
  0
LINE
  8
0
 62
     0
 10
80.724
 20
31.5805
 30
0.0
 11
79.9236
 21
31.5805
 31
0.0
  0
LINE
  8
0
 62
     0
 10
79.9236
 20
31.5805
 30
0.0
 11
79.9236
 21
34.6797
 31
0.0
  0
LINE
  8
0
 62
     0
 10
79.9236
 20
34.6797
 30
0.0
 11
80.724
 21
34.6797
 31
0.0
  0
LINE
  8
0
 62
     0
 10
80.724
 20
34.6797
 30
0.0
 11
80.724
 21
35.6803
 31
0.0
  0
LINE
  8
0
 62
     0
 10
80.724
 20
35.6803
 30
0.0
 11
94.7237
 21
35.6803
 31
0.0
  0
LINE
  8
0
 62
     0
 10
94.7237
 20
35.6803
 30
0.0
 11
94.7237
 21
34.6797
 31
0.0
  0
LINE
  8
0
 62
     0
 10
94.7237
 20
34.6797
 30
0.0
 11
95.5241
 21
34.6797
 31
0.0
  0
LINE
  8
0
 62
     0
 10
95.5241
 20
34.6797
 30
0.0
 11
95.5241
 21
31.5805
 31
0.0
  0
LINE
  8
0
 62
     0
 10
95.5241
 20
31.5805
 30
0.0
 11
94.7237
 21
31.5805
 31
0.0
  0
LINE
  8
0
 62
     0
 10
94.7237
 20
31.5805
 30
0.0
 11
94.7237
 21
25.7803
 31
0.0
  0
LINE
  8
0
 62
     0
 10
94.7237
 20
25.7803
 30
0.0
 11
95.5241
 21
25.7803
 31
0.0
  0
LINE
  8
0
 62
     0
 10
95.5241
 20
25.7803
 30
0.0
 11
95.5241
 21
22.6798
 31
0.0
  0
LINE
  8
0
 62
     0
 10
95.5241
 20
22.6798
 30
0.0
 11
94.7237
 21
22.6798
 31
0.0
  0
LINE
  8
0
 62
     0
 10
96.6294
 20
41.7297
 30
0.0
 11
96.6294
 21
40.7307
 31
0.0
  0
LINE
  8
0
 62
     0
 10
96.6294
 20
40.7307
 30
0.0
 11
82.6287
 21
40.7307
 31
0.0
  0
LINE
  8
0
 62
     0
 10
82.6287
 20
40.7307
 30
0.0
 11
82.6287
 21
41.7297
 31
0.0
  0
LINE
  8
0
 62
     0
 10
82.6287
 20
41.7297
 30
0.0
 11
81.8293
 21
41.7297
 31
0.0
  0
LINE
  8
0
 62
     0
 10
81.8293
 20
41.7297
 30
0.0
 11
81.8293
 21
44.8303
 31
0.0
  0
LINE
  8
0
 62
     0
 10
81.8293
 20
44.8303
 30
0.0
 11
82.6287
 21
44.8303
 31
0.0
  0
LINE
  8
0
 62
     0
 10
82.6287
 20
44.8303
 30
0.0
 11
82.6287
 21
50.6307
 31
0.0
  0
LINE
  8
0
 62
     0
 10
82.6287
 20
50.6307
 30
0.0
 11
81.8293
 21
50.6307
 31
0.0
  0
LINE
  8
0
 62
     0
 10
81.8293
 20
50.6307
 30
0.0
 11
81.8293
 21
53.7298
 31
0.0
  0
LINE
  8
0
 62
     0
 10
81.8293
 20
53.7298
 30
0.0
 11
82.6287
 21
53.7298
 31
0.0
  0
LINE
  8
0
 62
     0
 10
82.6287
 20
53.7298
 30
0.0
 11
82.6287
 21
54.7303
 31
0.0
  0
LINE
  8
0
 62
     0
 10
82.6287
 20
54.7303
 30
0.0
 11
96.6294
 21
54.7303
 31
0.0
  0
LINE
  8
0
 62
     0
 10
96.6294
 20
54.7303
 30
0.0
 11
96.6294
 21
53.7298
 31
0.0
  0
LINE
  8
0
 62
     0
 10
96.6294
 20
53.7298
 30
0.0
 11
97.4288
 21
53.7298
 31
0.0
  0
LINE
  8
0
 62
     0
 10
97.4288
 20
53.7298
 30
0.0
 11
97.4288
 21
50.6307
 31
0.0
  0
LINE
  8
0
 62
     0
 10
97.4288
 20
50.6307
 30
0.0
 11
96.6294
 21
50.6307
 31
0.0
  0
LINE
  8
0
 62
     0
 10
96.6294
 20
50.6307
 30
0.0
 11
96.6294
 21
44.8303
 31
0.0
  0
LINE
  8
0
 62
     0
 10
96.6294
 20
44.8303
 30
0.0
 11
97.4288
 21
44.8303
 31
0.0
  0
LINE
  8
0
 62
     0
 10
97.4288
 20
44.8303
 30
0.0
 11
97.4288
 21
41.7297
 31
0.0
  0
LINE
  8
0
 62
     0
 10
97.4288
 20
41.7297
 30
0.0
 11
96.6294
 21
41.7297
 31
0.0
  0
ENDSEC
  0
EOF
