  0
SECTION
  2
HEADER
  9
$ANGBASE
  50
0.0
  9
$ANGDIR
  70
  1
  9
$MEASUREMENT
  70
0
  0
ENDSEC
  0
SECTION
  2
TABLES
  0
TABLE
  2
LTYPE
  70
4
  0
LTYPE
  5
40F
  2
CONTINUOUS
  70
0
  3
Solid line
  72
65
  73
0
  40
0.0
  0
LTYPE
  5
410
  2
DASHDOT
 70
0
  3
Dash Dot ____ _ ____ _
 72
65
 73
4
 40
2.0
 49
1.25
 49
-0.25
 49
0.25
 49
-0.25
  0
LTYPE
  5
411
  2
DASHED
 70
0
  3
Dashed __ __ __ __ __
 72
65
 73
2
 40
0.75
 49
0.5
 49
-0.25
  0
LTYPE
  5
43B
  2
DOTTED
 70
0
  3
Dotted .  .  .  .
 72
65
 73
2
 40
0.2
 49
0.0
 49
-0.2
  0
ENDTAB
  0
TABLE
  2
STYLE
  70
4
  0
STYLE
  2
KICAD
  70
0
  40
0
  41
1
  42
1
  50
0
  71
0
  3
isocp.shx
  0
STYLE
  2
KICADB
  70
0
  40
0
  41
1
  42
1
  50
0
  71
0
  3
isocp.shx
  0
STYLE
  2
KICADI
  70
0
  40
0
  41
1
  42
1
  50
15
  71
0
  3
isocp.shx
  0
STYLE
  2
KICADBI
  70
0
  40
0
  41
1
  42
1
  50
15
  71
0
  3
isocp.shx
  0
ENDTAB
  0
TABLE
  2
LAYER
  70
30
  0
LAYER
  2
BLACK
  70
0
  62
7
  6
CONTINUOUS
  0
LAYER
  2
GRAY1
  70
0
  62
251
  6
CONTINUOUS
  0
LAYER
  2
GRAY2
  70
0
  62
8
  6
CONTINUOUS
  0
LAYER
  2
GRAY3
  70
0
  62
9
  6
CONTINUOUS
  0
LAYER
  2
WHITE
  70
0
  62
7
  6
CONTINUOUS
  0
LAYER
  2
LYELLOW
  70
0
  62
51
  6
CONTINUOUS
  0
LAYER
  2
BLUE1
  70
0
  62
178
  6
CONTINUOUS
  0
LAYER
  2
GREEN1
  70
0
  62
98
  6
CONTINUOUS
  0
LAYER
  2
CYAN1
  70
0
  62
138
  6
CONTINUOUS
  0
LAYER
  2
RED1
  70
0
  62
18
  6
CONTINUOUS
  0
LAYER
  2
MAGENTA1
  70
0
  62
228
  6
CONTINUOUS
  0
LAYER
  2
BROWN1
  70
0
  62
58
  6
CONTINUOUS
  0
LAYER
  2
BLUE2
  70
0
  62
5
  6
CONTINUOUS
  0
LAYER
  2
GREEN2
  70
0
  62
3
  6
CONTINUOUS
  0
LAYER
  2
CYAN2
  70
0
  62
4
  6
CONTINUOUS
  0
LAYER
  2
RED2
  70
0
  62
1
  6
CONTINUOUS
  0
LAYER
  2
MAGENTA2
  70
0
  62
6
  6
CONTINUOUS
  0
LAYER
  2
BROWN2
  70
0
  62
54
  6
CONTINUOUS
  0
LAYER
  2
BLUE3
  70
0
  62
171
  6
CONTINUOUS
  0
LAYER
  2
GREEN3
  70
0
  62
91
  6
CONTINUOUS
  0
LAYER
  2
CYAN3
  70
0
  62
131
  6
CONTINUOUS
  0
LAYER
  2
RED3
  70
0
  62
11
  6
CONTINUOUS
  0
LAYER
  2
MAGENTA3
  70
0
  62
221
  6
CONTINUOUS
  0
LAYER
  2
YELLOW3
  70
0
  62
2
  6
CONTINUOUS
  0
LAYER
  2
BLUE4
  70
0
  62
5
  6
CONTINUOUS
  0
LAYER
  2
GREEN4
  70
0
  62
3
  6
CONTINUOUS
  0
LAYER
  2
CYAN4
  70
0
  62
4
  6
CONTINUOUS
  0
LAYER
  2
RED4
  70
0
  62
1
  6
CONTINUOUS
  0
LAYER
  2
MAGENTA4
  70
0
  62
6
  6
CONTINUOUS
  0
LAYER
  2
YELLOW4
  70
0
  62
2
  6
CONTINUOUS
  0
ENDTAB
  0
ENDSEC
  0
SECTION
  2
ENTITIES
0
LINE
8
BLACK
6
CONTINUOUS
10
172.212
20
-109.22
11
172.212
21
-56.896
0
LINE
8
BLACK
6
CONTINUOUS
10
193.04
20
-109.22
11
172.212
21
-109.22
0
LINE
8
BLACK
6
CONTINUOUS
10
193.04
20
-128.27
11
193.04
21
-109.22
0
LINE
8
BLACK
6
CONTINUOUS
10
220.98
20
-128.27
11
193.04
21
-128.27
0
LINE
8
BLACK
6
CONTINUOUS
10
220.98
20
-131.318
11
220.98
21
-128.27
0
LINE
8
BLACK
6
CONTINUOUS
10
229.362
20
-131.318
11
220.98
21
-131.318
0
LINE
8
BLACK
6
CONTINUOUS
10
229.362
20
-128.016
11
229.362
21
-131.318
0
LINE
8
BLACK
6
CONTINUOUS
10
239.014
20
-128.016
11
229.362
21
-128.016
0
LINE
8
BLACK
6
CONTINUOUS
10
239.014
20
-109.22
11
239.014
21
-128.016
0
LINE
8
BLACK
6
CONTINUOUS
10
262.636
20
-109.22
11
239.014
21
-109.22
0
LINE
8
BLACK
6
CONTINUOUS
10
262.636
20
-56.896
11
262.636
21
-109.22
0
LINE
8
BLACK
6
CONTINUOUS
10
243.586
20
-56.896
11
262.636
21
-56.896
0
LINE
8
BLACK
6
CONTINUOUS
10
243.586
20
-54.356
11
243.586
21
-56.896
0
LINE
8
BLACK
6
CONTINUOUS
10
224.536
20
-54.356
11
243.586
21
-54.356
0
LINE
8
BLACK
6
CONTINUOUS
10
224.536
20
-51.816
11
224.536
21
-54.356
0
LINE
8
BLACK
6
CONTINUOUS
10
210.312
20
-51.816
11
224.536
21
-51.816
0
LINE
8
BLACK
6
CONTINUOUS
10
210.312
20
-54.356
11
210.312
21
-51.816
0
LINE
8
BLACK
6
CONTINUOUS
10
191.262
20
-54.356
11
210.312
21
-54.356
0
LINE
8
BLACK
6
CONTINUOUS
10
191.262
20
-56.896
11
191.262
21
-54.356
0
LINE
8
BLACK
6
CONTINUOUS
10
172.212
20
-56.896
11
191.262
21
-56.896
0
LINE
8
BLACK
6
CONTINUOUS
10
173.394
20
-82.208
11
175.094
21
-83.908
0
LINE
8
BLACK
6
CONTINUOUS
10
175.094
20
-82.208
11
173.394
21
-83.908
0
LINE
8
BLACK
6
CONTINUOUS
10
183.554
20
-82.208
11
185.254
21
-83.908
0
LINE
8
BLACK
6
CONTINUOUS
10
185.254
20
-82.208
11
183.554
21
-83.908
0
LINE
8
BLACK
6
CONTINUOUS
10
230.544
20
-98.718
11
232.244
21
-100.418
0
LINE
8
BLACK
6
CONTINUOUS
10
232.244
20
-98.718
11
230.544
21
-100.418
0
LINE
8
BLACK
6
CONTINUOUS
10
240.704
20
-98.718
11
242.404
21
-100.418
0
LINE
8
BLACK
6
CONTINUOUS
10
242.404
20
-98.718
11
240.704
21
-100.418
0
LINE
8
BLACK
6
CONTINUOUS
10
249.594
20
-101.258
11
251.294
21
-102.958
0
LINE
8
BLACK
6
CONTINUOUS
10
251.294
20
-101.258
11
249.594
21
-102.958
0
LINE
8
BLACK
6
CONTINUOUS
10
259.754
20
-101.258
11
261.454
21
-102.958
0
LINE
8
BLACK
6
CONTINUOUS
10
261.454
20
-101.258
11
259.754
21
-102.958
0
LINE
8
BLACK
6
CONTINUOUS
10
173.394
20
-63.158
11
175.094
21
-64.858
0
LINE
8
BLACK
6
CONTINUOUS
10
175.094
20
-63.158
11
173.394
21
-64.858
0
LINE
8
BLACK
6
CONTINUOUS
10
183.554
20
-63.158
11
185.254
21
-64.858
0
LINE
8
BLACK
6
CONTINUOUS
10
185.254
20
-63.158
11
183.554
21
-64.858
0
LINE
8
BLACK
6
CONTINUOUS
10
249.594
20
-82.208
11
251.294
21
-83.908
0
LINE
8
BLACK
6
CONTINUOUS
10
251.294
20
-82.208
11
249.594
21
-83.908
0
LINE
8
BLACK
6
CONTINUOUS
10
259.754
20
-82.208
11
261.454
21
-83.908
0
LINE
8
BLACK
6
CONTINUOUS
10
261.454
20
-82.208
11
259.754
21
-83.908
0
LINE
8
BLACK
6
CONTINUOUS
10
211.494
20
-96.178
11
213.194
21
-97.878
0
LINE
8
BLACK
6
CONTINUOUS
10
213.194
20
-96.178
11
211.494
21
-97.878
0
LINE
8
BLACK
6
CONTINUOUS
10
221.654
20
-96.178
11
223.354
21
-97.878
0
LINE
8
BLACK
6
CONTINUOUS
10
223.354
20
-96.178
11
221.654
21
-97.878
0
LINE
8
BLACK
6
CONTINUOUS
10
192.444
20
-98.718
11
194.144
21
-100.418
0
LINE
8
BLACK
6
CONTINUOUS
10
194.144
20
-98.718
11
192.444
21
-100.418
0
LINE
8
BLACK
6
CONTINUOUS
10
202.604
20
-98.718
11
204.304
21
-100.418
0
LINE
8
BLACK
6
CONTINUOUS
10
204.304
20
-98.718
11
202.604
21
-100.418
0
LINE
8
BLACK
6
CONTINUOUS
10
192.444
20
-79.668
11
194.144
21
-81.368
0
LINE
8
BLACK
6
CONTINUOUS
10
194.144
20
-79.668
11
192.444
21
-81.368
0
LINE
8
BLACK
6
CONTINUOUS
10
202.604
20
-79.668
11
204.304
21
-81.368
0
LINE
8
BLACK
6
CONTINUOUS
10
204.304
20
-79.668
11
202.604
21
-81.368
0
LINE
8
BLACK
6
CONTINUOUS
10
249.594
20
-63.158
11
251.294
21
-64.858
0
LINE
8
BLACK
6
CONTINUOUS
10
251.294
20
-63.158
11
249.594
21
-64.858
0
LINE
8
BLACK
6
CONTINUOUS
10
259.754
20
-63.158
11
261.454
21
-64.858
0
LINE
8
BLACK
6
CONTINUOUS
10
261.454
20
-63.158
11
259.754
21
-64.858
0
LINE
8
BLACK
6
CONTINUOUS
10
173.394
20
-101.258
11
175.094
21
-102.958
0
LINE
8
BLACK
6
CONTINUOUS
10
175.094
20
-101.258
11
173.394
21
-102.958
0
LINE
8
BLACK
6
CONTINUOUS
10
183.554
20
-101.258
11
185.254
21
-102.958
0
LINE
8
BLACK
6
CONTINUOUS
10
185.254
20
-101.258
11
183.554
21
-102.958
0
LINE
8
BLACK
6
CONTINUOUS
10
230.544
20
-79.668
11
232.244
21
-81.368
0
LINE
8
BLACK
6
CONTINUOUS
10
232.244
20
-79.668
11
230.544
21
-81.368
0
LINE
8
BLACK
6
CONTINUOUS
10
240.704
20
-79.668
11
242.404
21
-81.368
0
LINE
8
BLACK
6
CONTINUOUS
10
242.404
20
-79.668
11
240.704
21
-81.368
0
LINE
8
BLACK
6
CONTINUOUS
10
211.494
20
-77.128
11
213.194
21
-78.828
0
LINE
8
BLACK
6
CONTINUOUS
10
213.194
20
-77.128
11
211.494
21
-78.828
0
LINE
8
BLACK
6
CONTINUOUS
10
221.654
20
-77.128
11
223.354
21
-78.828
0
LINE
8
BLACK
6
CONTINUOUS
10
223.354
20
-77.128
11
221.654
21
-78.828
0
LINE
8
BLACK
6
CONTINUOUS
10
192.444
20
-60.618
11
194.144
21
-62.318
0
LINE
8
BLACK
6
CONTINUOUS
10
194.144
20
-60.618
11
192.444
21
-62.318
0
LINE
8
BLACK
6
CONTINUOUS
10
202.604
20
-60.618
11
204.304
21
-62.318
0
LINE
8
BLACK
6
CONTINUOUS
10
204.304
20
-60.618
11
202.604
21
-62.318
0
LINE
8
BLACK
6
CONTINUOUS
10
230.544
20
-60.618
11
232.244
21
-62.318
0
LINE
8
BLACK
6
CONTINUOUS
10
232.244
20
-60.618
11
230.544
21
-62.318
0
LINE
8
BLACK
6
CONTINUOUS
10
240.704
20
-60.618
11
242.404
21
-62.318
0
LINE
8
BLACK
6
CONTINUOUS
10
242.404
20
-60.618
11
240.704
21
-62.318
0
LINE
8
BLACK
6
CONTINUOUS
10
211.494
20
-58.078
11
213.194
21
-59.778
0
LINE
8
BLACK
6
CONTINUOUS
10
213.194
20
-58.078
11
211.494
21
-59.778
0
LINE
8
BLACK
6
CONTINUOUS
10
221.654
20
-58.078
11
223.354
21
-59.778
0
LINE
8
BLACK
6
CONTINUOUS
10
223.354
20
-58.078
11
221.654
21
-59.778
0
CIRCLE
8
BLACK
10
255.524
20
-64.008
40
2
0
CIRCLE
8
BLACK
10
179.324
20
-102.108
40
2
0
CIRCLE
8
BLACK
10
236.474
20
-80.518
40
2
0
CIRCLE
8
BLACK
10
217.424
20
-77.978
40
2
0
CIRCLE
8
BLACK
10
198.374
20
-61.468
40
2
0
CIRCLE
8
BLACK
10
236.474
20
-61.468
40
2
0
CIRCLE
8
BLACK
10
217.424
20
-58.928
40
2
0
CIRCLE
8
BLACK
10
179.324
20
-83.058
40
2
0
CIRCLE
8
BLACK
10
236.474
20
-99.568
40
2
0
CIRCLE
8
BLACK
10
255.524
20
-102.108
40
2
0
CIRCLE
8
BLACK
10
179.324
20
-64.008
40
2
0
CIRCLE
8
BLACK
10
255.524
20
-83.058
40
2
0
CIRCLE
8
BLACK
10
217.424
20
-97.028
40
2
0
CIRCLE
8
BLACK
10
198.374
20
-99.568
40
2
0
CIRCLE
8
BLACK
10
198.374
20
-80.518
40
2
0
LINE
8
BLACK
6
CONTINUOUS
10
174.976
20
-136.075
11
174.976
21
-133.075
0
LINE
8
BLACK
6
CONTINUOUS
10
174.976
20
-133.075
11
175.691
21
-133.075
0
LINE
8
BLACK
6
CONTINUOUS
10
175.691
20
-133.075
11
176.119
21
-133.218
0
LINE
8
BLACK
6
CONTINUOUS
10
176.119
20
-133.218
11
176.405
21
-133.504
0
LINE
8
BLACK
6
CONTINUOUS
10
176.405
20
-133.504
11
176.548
21
-133.789
0
LINE
8
BLACK
6
CONTINUOUS
10
176.548
20
-133.789
11
176.691
21
-134.361
0
LINE
8
BLACK
6
CONTINUOUS
10
176.691
20
-134.361
11
176.691
21
-134.789
0
LINE
8
BLACK
6
CONTINUOUS
10
176.691
20
-134.789
11
176.548
21
-135.361
0
LINE
8
BLACK
6
CONTINUOUS
10
176.548
20
-135.361
11
176.405
21
-135.647
0
LINE
8
BLACK
6
CONTINUOUS
10
176.405
20
-135.647
11
176.119
21
-135.932
0
LINE
8
BLACK
6
CONTINUOUS
10
176.119
20
-135.932
11
175.691
21
-136.075
0
LINE
8
BLACK
6
CONTINUOUS
10
175.691
20
-136.075
11
174.976
21
-136.075
0
LINE
8
BLACK
6
CONTINUOUS
10
177.976
20
-136.075
11
177.976
21
-134.075
0
LINE
8
BLACK
6
CONTINUOUS
10
177.976
20
-134.647
11
178.119
21
-134.361
0
LINE
8
BLACK
6
CONTINUOUS
10
178.119
20
-134.361
11
178.262
21
-134.218
0
LINE
8
BLACK
6
CONTINUOUS
10
178.262
20
-134.218
11
178.548
21
-134.075
0
LINE
8
BLACK
6
CONTINUOUS
10
178.548
20
-134.075
11
178.833
21
-134.075
0
LINE
8
BLACK
6
CONTINUOUS
10
179.833
20
-136.075
11
179.833
21
-134.075
0
LINE
8
BLACK
6
CONTINUOUS
10
179.833
20
-133.075
11
179.691
21
-133.218
0
LINE
8
BLACK
6
CONTINUOUS
10
179.691
20
-133.218
11
179.833
21
-133.361
0
LINE
8
BLACK
6
CONTINUOUS
10
179.833
20
-133.361
11
179.976
21
-133.218
0
LINE
8
BLACK
6
CONTINUOUS
10
179.976
20
-133.218
11
179.833
21
-133.075
0
LINE
8
BLACK
6
CONTINUOUS
10
179.833
20
-133.075
11
179.833
21
-133.361
0
LINE
8
BLACK
6
CONTINUOUS
10
181.691
20
-136.075
11
181.405
21
-135.932
0
LINE
8
BLACK
6
CONTINUOUS
10
181.405
20
-135.932
11
181.262
21
-135.647
0
LINE
8
BLACK
6
CONTINUOUS
10
181.262
20
-135.647
11
181.262
21
-133.075
0
LINE
8
BLACK
6
CONTINUOUS
10
183.262
20
-136.075
11
182.976
21
-135.932
0
LINE
8
BLACK
6
CONTINUOUS
10
182.976
20
-135.932
11
182.833
21
-135.647
0
LINE
8
BLACK
6
CONTINUOUS
10
182.833
20
-135.647
11
182.833
21
-133.075
0
LINE
8
BLACK
6
CONTINUOUS
10
186.691
20
-136.075
11
186.691
21
-133.075
0
LINE
8
BLACK
6
CONTINUOUS
10
186.691
20
-133.075
11
187.691
21
-135.218
0
LINE
8
BLACK
6
CONTINUOUS
10
187.691
20
-135.218
11
188.691
21
-133.075
0
LINE
8
BLACK
6
CONTINUOUS
10
188.691
20
-133.075
11
188.691
21
-136.075
0
LINE
8
BLACK
6
CONTINUOUS
10
191.405
20
-136.075
11
191.405
21
-134.504
0
LINE
8
BLACK
6
CONTINUOUS
10
191.405
20
-134.504
11
191.262
21
-134.218
0
LINE
8
BLACK
6
CONTINUOUS
10
191.262
20
-134.218
11
190.976
21
-134.075
0
LINE
8
BLACK
6
CONTINUOUS
10
190.976
20
-134.075
11
190.405
21
-134.075
0
LINE
8
BLACK
6
CONTINUOUS
10
190.405
20
-134.075
11
190.119
21
-134.218
0
LINE
8
BLACK
6
CONTINUOUS
10
191.405
20
-135.932
11
191.119
21
-136.075
0
LINE
8
BLACK
6
CONTINUOUS
10
191.119
20
-136.075
11
190.405
21
-136.075
0
LINE
8
BLACK
6
CONTINUOUS
10
190.405
20
-136.075
11
190.119
21
-135.932
0
LINE
8
BLACK
6
CONTINUOUS
10
190.119
20
-135.932
11
189.976
21
-135.647
0
LINE
8
BLACK
6
CONTINUOUS
10
189.976
20
-135.647
11
189.976
21
-135.361
0
LINE
8
BLACK
6
CONTINUOUS
10
189.976
20
-135.361
11
190.119
21
-135.075
0
LINE
8
BLACK
6
CONTINUOUS
10
190.119
20
-135.075
11
190.405
21
-134.932
0
LINE
8
BLACK
6
CONTINUOUS
10
190.405
20
-134.932
11
191.119
21
-134.932
0
LINE
8
BLACK
6
CONTINUOUS
10
191.119
20
-134.932
11
191.405
21
-134.789
0
LINE
8
BLACK
6
CONTINUOUS
10
192.833
20
-134.075
11
192.833
21
-137.075
0
LINE
8
BLACK
6
CONTINUOUS
10
192.833
20
-134.218
11
193.119
21
-134.075
0
LINE
8
BLACK
6
CONTINUOUS
10
193.119
20
-134.075
11
193.691
21
-134.075
0
LINE
8
BLACK
6
CONTINUOUS
10
193.691
20
-134.075
11
193.976
21
-134.218
0
LINE
8
BLACK
6
CONTINUOUS
10
193.976
20
-134.218
11
194.119
21
-134.361
0
LINE
8
BLACK
6
CONTINUOUS
10
194.119
20
-134.361
11
194.262
21
-134.647
0
LINE
8
BLACK
6
CONTINUOUS
10
194.262
20
-134.647
11
194.262
21
-135.504
0
LINE
8
BLACK
6
CONTINUOUS
10
194.262
20
-135.504
11
194.119
21
-135.789
0
LINE
8
BLACK
6
CONTINUOUS
10
194.119
20
-135.789
11
193.976
21
-135.932
0
LINE
8
BLACK
6
CONTINUOUS
10
193.976
20
-135.932
11
193.691
21
-136.075
0
LINE
8
BLACK
6
CONTINUOUS
10
193.691
20
-136.075
11
193.119
21
-136.075
0
LINE
8
BLACK
6
CONTINUOUS
10
193.119
20
-136.075
11
192.833
21
-135.932
0
LINE
8
BLACK
6
CONTINUOUS
10
195.548
20
-135.789
11
195.691
21
-135.932
0
LINE
8
BLACK
6
CONTINUOUS
10
195.691
20
-135.932
11
195.548
21
-136.075
0
LINE
8
BLACK
6
CONTINUOUS
10
195.548
20
-136.075
11
195.405
21
-135.932
0
LINE
8
BLACK
6
CONTINUOUS
10
195.405
20
-135.932
11
195.548
21
-135.789
0
LINE
8
BLACK
6
CONTINUOUS
10
195.548
20
-135.789
11
195.548
21
-136.075
0
LINE
8
BLACK
6
CONTINUOUS
10
195.548
20
-134.218
11
195.691
21
-134.361
0
LINE
8
BLACK
6
CONTINUOUS
10
195.691
20
-134.361
11
195.548
21
-134.504
0
LINE
8
BLACK
6
CONTINUOUS
10
195.548
20
-134.504
11
195.405
21
-134.361
0
LINE
8
BLACK
6
CONTINUOUS
10
195.405
20
-134.361
11
195.548
21
-134.218
0
LINE
8
BLACK
6
CONTINUOUS
10
195.548
20
-134.218
11
195.548
21
-134.504
0
LINE
8
BLACK
6
CONTINUOUS
10
170.412
20
-140.168
11
172.112
21
-141.868
0
LINE
8
BLACK
6
CONTINUOUS
10
172.112
20
-140.168
11
170.412
21
-141.868
0
LINE
8
BLACK
6
CONTINUOUS
10
176.548
20
-142.375
11
174.833
21
-142.375
0
LINE
8
BLACK
6
CONTINUOUS
10
175.691
20
-142.375
11
175.691
21
-139.375
0
LINE
8
BLACK
6
CONTINUOUS
10
175.691
20
-139.375
11
175.405
21
-139.804
0
LINE
8
BLACK
6
CONTINUOUS
10
175.405
20
-139.804
11
175.119
21
-140.089
0
LINE
8
BLACK
6
CONTINUOUS
10
175.119
20
-140.089
11
174.833
21
-140.232
0
LINE
8
BLACK
6
CONTINUOUS
10
177.833
20
-142.089
11
177.976
21
-142.232
0
LINE
8
BLACK
6
CONTINUOUS
10
177.976
20
-142.232
11
177.833
21
-142.375
0
LINE
8
BLACK
6
CONTINUOUS
10
177.833
20
-142.375
11
177.691
21
-142.232
0
LINE
8
BLACK
6
CONTINUOUS
10
177.691
20
-142.232
11
177.833
21
-142.089
0
LINE
8
BLACK
6
CONTINUOUS
10
177.833
20
-142.089
11
177.833
21
-142.375
0
LINE
8
BLACK
6
CONTINUOUS
10
178.976
20
-139.375
11
180.976
21
-139.375
0
LINE
8
BLACK
6
CONTINUOUS
10
180.976
20
-139.375
11
179.691
21
-142.375
0
LINE
8
BLACK
6
CONTINUOUS
10
182.691
20
-139.375
11
182.976
21
-139.375
0
LINE
8
BLACK
6
CONTINUOUS
10
182.976
20
-139.375
11
183.262
21
-139.518
0
LINE
8
BLACK
6
CONTINUOUS
10
183.262
20
-139.518
11
183.405
21
-139.661
0
LINE
8
BLACK
6
CONTINUOUS
10
183.405
20
-139.661
11
183.548
21
-139.947
0
LINE
8
BLACK
6
CONTINUOUS
10
183.548
20
-139.947
11
183.691
21
-140.518
0
LINE
8
BLACK
6
CONTINUOUS
10
183.691
20
-140.518
11
183.691
21
-141.232
0
LINE
8
BLACK
6
CONTINUOUS
10
183.691
20
-141.232
11
183.548
21
-141.804
0
LINE
8
BLACK
6
CONTINUOUS
10
183.548
20
-141.804
11
183.405
21
-142.089
0
LINE
8
BLACK
6
CONTINUOUS
10
183.405
20
-142.089
11
183.262
21
-142.232
0
LINE
8
BLACK
6
CONTINUOUS
10
183.262
20
-142.232
11
182.976
21
-142.375
0
LINE
8
BLACK
6
CONTINUOUS
10
182.976
20
-142.375
11
182.691
21
-142.375
0
LINE
8
BLACK
6
CONTINUOUS
10
182.691
20
-142.375
11
182.405
21
-142.232
0
LINE
8
BLACK
6
CONTINUOUS
10
182.405
20
-142.232
11
182.262
21
-142.089
0
LINE
8
BLACK
6
CONTINUOUS
10
182.262
20
-142.089
11
182.119
21
-141.804
0
LINE
8
BLACK
6
CONTINUOUS
10
182.119
20
-141.804
11
181.976
21
-141.232
0
LINE
8
BLACK
6
CONTINUOUS
10
181.976
20
-141.232
11
181.976
21
-140.518
0
LINE
8
BLACK
6
CONTINUOUS
10
181.976
20
-140.518
11
182.119
21
-139.947
0
LINE
8
BLACK
6
CONTINUOUS
10
182.119
20
-139.947
11
182.262
21
-139.661
0
LINE
8
BLACK
6
CONTINUOUS
10
182.262
20
-139.661
11
182.405
21
-139.518
0
LINE
8
BLACK
6
CONTINUOUS
10
182.405
20
-139.518
11
182.691
21
-139.375
0
LINE
8
BLACK
6
CONTINUOUS
10
184.976
20
-142.375
11
184.976
21
-140.375
0
LINE
8
BLACK
6
CONTINUOUS
10
184.976
20
-140.661
11
185.119
21
-140.518
0
LINE
8
BLACK
6
CONTINUOUS
10
185.119
20
-140.518
11
185.405
21
-140.375
0
LINE
8
BLACK
6
CONTINUOUS
10
185.405
20
-140.375
11
185.833
21
-140.375
0
LINE
8
BLACK
6
CONTINUOUS
10
185.833
20
-140.375
11
186.119
21
-140.518
0
LINE
8
BLACK
6
CONTINUOUS
10
186.119
20
-140.518
11
186.262
21
-140.804
0
LINE
8
BLACK
6
CONTINUOUS
10
186.262
20
-140.804
11
186.262
21
-142.375
0
LINE
8
BLACK
6
CONTINUOUS
10
186.262
20
-140.804
11
186.405
21
-140.518
0
LINE
8
BLACK
6
CONTINUOUS
10
186.405
20
-140.518
11
186.691
21
-140.375
0
LINE
8
BLACK
6
CONTINUOUS
10
186.691
20
-140.375
11
187.119
21
-140.375
0
LINE
8
BLACK
6
CONTINUOUS
10
187.119
20
-140.375
11
187.405
21
-140.518
0
LINE
8
BLACK
6
CONTINUOUS
10
187.405
20
-140.518
11
187.548
21
-140.804
0
LINE
8
BLACK
6
CONTINUOUS
10
187.548
20
-140.804
11
187.548
21
-142.375
0
LINE
8
BLACK
6
CONTINUOUS
10
188.976
20
-142.375
11
188.976
21
-140.375
0
LINE
8
BLACK
6
CONTINUOUS
10
188.976
20
-140.661
11
189.119
21
-140.518
0
LINE
8
BLACK
6
CONTINUOUS
10
189.119
20
-140.518
11
189.405
21
-140.375
0
LINE
8
BLACK
6
CONTINUOUS
10
189.405
20
-140.375
11
189.833
21
-140.375
0
LINE
8
BLACK
6
CONTINUOUS
10
189.833
20
-140.375
11
190.119
21
-140.518
0
LINE
8
BLACK
6
CONTINUOUS
10
190.119
20
-140.518
11
190.262
21
-140.804
0
LINE
8
BLACK
6
CONTINUOUS
10
190.262
20
-140.804
11
190.262
21
-142.375
0
LINE
8
BLACK
6
CONTINUOUS
10
190.262
20
-140.804
11
190.405
21
-140.518
0
LINE
8
BLACK
6
CONTINUOUS
10
190.405
20
-140.518
11
190.691
21
-140.375
0
LINE
8
BLACK
6
CONTINUOUS
10
190.691
20
-140.375
11
191.119
21
-140.375
0
LINE
8
BLACK
6
CONTINUOUS
10
191.119
20
-140.375
11
191.405
21
-140.518
0
LINE
8
BLACK
6
CONTINUOUS
10
191.405
20
-140.518
11
191.548
21
-140.804
0
LINE
8
BLACK
6
CONTINUOUS
10
191.548
20
-140.804
11
191.548
21
-142.375
0
LINE
8
BLACK
6
CONTINUOUS
10
197.405
20
-139.232
11
194.833
21
-143.089
0
LINE
8
BLACK
6
CONTINUOUS
10
201.262
20
-139.375
11
201.548
21
-139.375
0
LINE
8
BLACK
6
CONTINUOUS
10
201.548
20
-139.375
11
201.833
21
-139.518
0
LINE
8
BLACK
6
CONTINUOUS
10
201.833
20
-139.518
11
201.976
21
-139.661
0
LINE
8
BLACK
6
CONTINUOUS
10
201.976
20
-139.661
11
202.119
21
-139.947
0
LINE
8
BLACK
6
CONTINUOUS
10
202.119
20
-139.947
11
202.262
21
-140.518
0
LINE
8
BLACK
6
CONTINUOUS
10
202.262
20
-140.518
11
202.262
21
-141.232
0
LINE
8
BLACK
6
CONTINUOUS
10
202.262
20
-141.232
11
202.119
21
-141.804
0
LINE
8
BLACK
6
CONTINUOUS
10
202.119
20
-141.804
11
201.976
21
-142.089
0
LINE
8
BLACK
6
CONTINUOUS
10
201.976
20
-142.089
11
201.833
21
-142.232
0
LINE
8
BLACK
6
CONTINUOUS
10
201.833
20
-142.232
11
201.548
21
-142.375
0
LINE
8
BLACK
6
CONTINUOUS
10
201.548
20
-142.375
11
201.262
21
-142.375
0
LINE
8
BLACK
6
CONTINUOUS
10
201.262
20
-142.375
11
200.976
21
-142.232
0
LINE
8
BLACK
6
CONTINUOUS
10
200.976
20
-142.232
11
200.833
21
-142.089
0
LINE
8
BLACK
6
CONTINUOUS
10
200.833
20
-142.089
11
200.691
21
-141.804
0
LINE
8
BLACK
6
CONTINUOUS
10
200.691
20
-141.804
11
200.548
21
-141.232
0
LINE
8
BLACK
6
CONTINUOUS
10
200.548
20
-141.232
11
200.548
21
-140.518
0
LINE
8
BLACK
6
CONTINUOUS
10
200.548
20
-140.518
11
200.691
21
-139.947
0
LINE
8
BLACK
6
CONTINUOUS
10
200.691
20
-139.947
11
200.833
21
-139.661
0
LINE
8
BLACK
6
CONTINUOUS
10
200.833
20
-139.661
11
200.976
21
-139.518
0
LINE
8
BLACK
6
CONTINUOUS
10
200.976
20
-139.518
11
201.262
21
-139.375
0
LINE
8
BLACK
6
CONTINUOUS
10
203.548
20
-142.089
11
203.691
21
-142.232
0
LINE
8
BLACK
6
CONTINUOUS
10
203.691
20
-142.232
11
203.548
21
-142.375
0
LINE
8
BLACK
6
CONTINUOUS
10
203.548
20
-142.375
11
203.405
21
-142.232
0
LINE
8
BLACK
6
CONTINUOUS
10
203.405
20
-142.232
11
203.548
21
-142.089
0
LINE
8
BLACK
6
CONTINUOUS
10
203.548
20
-142.089
11
203.548
21
-142.375
0
LINE
8
BLACK
6
CONTINUOUS
10
205.548
20
-139.375
11
205.833
21
-139.375
0
LINE
8
BLACK
6
CONTINUOUS
10
205.833
20
-139.375
11
206.119
21
-139.518
0
LINE
8
BLACK
6
CONTINUOUS
10
206.119
20
-139.518
11
206.262
21
-139.661
0
LINE
8
BLACK
6
CONTINUOUS
10
206.262
20
-139.661
11
206.405
21
-139.947
0
LINE
8
BLACK
6
CONTINUOUS
10
206.405
20
-139.947
11
206.548
21
-140.518
0
LINE
8
BLACK
6
CONTINUOUS
10
206.548
20
-140.518
11
206.548
21
-141.232
0
LINE
8
BLACK
6
CONTINUOUS
10
206.548
20
-141.232
11
206.405
21
-141.804
0
LINE
8
BLACK
6
CONTINUOUS
10
206.405
20
-141.804
11
206.262
21
-142.089
0
LINE
8
BLACK
6
CONTINUOUS
10
206.262
20
-142.089
11
206.119
21
-142.232
0
LINE
8
BLACK
6
CONTINUOUS
10
206.119
20
-142.232
11
205.833
21
-142.375
0
LINE
8
BLACK
6
CONTINUOUS
10
205.833
20
-142.375
11
205.548
21
-142.375
0
LINE
8
BLACK
6
CONTINUOUS
10
205.548
20
-142.375
11
205.262
21
-142.232
0
LINE
8
BLACK
6
CONTINUOUS
10
205.262
20
-142.232
11
205.119
21
-142.089
0
LINE
8
BLACK
6
CONTINUOUS
10
205.119
20
-142.089
11
204.976
21
-141.804
0
LINE
8
BLACK
6
CONTINUOUS
10
204.976
20
-141.804
11
204.833
21
-141.232
0
LINE
8
BLACK
6
CONTINUOUS
10
204.833
20
-141.232
11
204.833
21
-140.518
0
LINE
8
BLACK
6
CONTINUOUS
10
204.833
20
-140.518
11
204.976
21
-139.947
0
LINE
8
BLACK
6
CONTINUOUS
10
204.976
20
-139.947
11
205.119
21
-139.661
0
LINE
8
BLACK
6
CONTINUOUS
10
205.119
20
-139.661
11
205.262
21
-139.518
0
LINE
8
BLACK
6
CONTINUOUS
10
205.262
20
-139.518
11
205.548
21
-139.375
0
LINE
8
BLACK
6
CONTINUOUS
10
209.119
20
-139.375
11
208.548
21
-139.375
0
LINE
8
BLACK
6
CONTINUOUS
10
208.548
20
-139.375
11
208.262
21
-139.518
0
LINE
8
BLACK
6
CONTINUOUS
10
208.262
20
-139.518
11
208.119
21
-139.661
0
LINE
8
BLACK
6
CONTINUOUS
10
208.119
20
-139.661
11
207.833
21
-140.089
0
LINE
8
BLACK
6
CONTINUOUS
10
207.833
20
-140.089
11
207.691
21
-140.661
0
LINE
8
BLACK
6
CONTINUOUS
10
207.691
20
-140.661
11
207.691
21
-141.804
0
LINE
8
BLACK
6
CONTINUOUS
10
207.691
20
-141.804
11
207.833
21
-142.089
0
LINE
8
BLACK
6
CONTINUOUS
10
207.833
20
-142.089
11
207.976
21
-142.232
0
LINE
8
BLACK
6
CONTINUOUS
10
207.976
20
-142.232
11
208.262
21
-142.375
0
LINE
8
BLACK
6
CONTINUOUS
10
208.262
20
-142.375
11
208.833
21
-142.375
0
LINE
8
BLACK
6
CONTINUOUS
10
208.833
20
-142.375
11
209.119
21
-142.232
0
LINE
8
BLACK
6
CONTINUOUS
10
209.119
20
-142.232
11
209.262
21
-142.089
0
LINE
8
BLACK
6
CONTINUOUS
10
209.262
20
-142.089
11
209.405
21
-141.804
0
LINE
8
BLACK
6
CONTINUOUS
10
209.405
20
-141.804
11
209.405
21
-141.089
0
LINE
8
BLACK
6
CONTINUOUS
10
209.405
20
-141.089
11
209.262
21
-140.804
0
LINE
8
BLACK
6
CONTINUOUS
10
209.262
20
-140.804
11
209.119
21
-140.661
0
LINE
8
BLACK
6
CONTINUOUS
10
209.119
20
-140.661
11
208.833
21
-140.518
0
LINE
8
BLACK
6
CONTINUOUS
10
208.833
20
-140.518
11
208.262
21
-140.518
0
LINE
8
BLACK
6
CONTINUOUS
10
208.262
20
-140.518
11
207.976
21
-140.661
0
LINE
8
BLACK
6
CONTINUOUS
10
207.976
20
-140.661
11
207.833
21
-140.804
0
LINE
8
BLACK
6
CONTINUOUS
10
207.833
20
-140.804
11
207.691
21
-141.089
0
LINE
8
BLACK
6
CONTINUOUS
10
210.405
20
-139.375
11
212.405
21
-139.375
0
LINE
8
BLACK
6
CONTINUOUS
10
212.405
20
-139.375
11
211.119
21
-142.375
0
LINE
8
BLACK
6
CONTINUOUS
10
213.405
20
-139.375
11
213.405
21
-139.947
0
LINE
8
BLACK
6
CONTINUOUS
10
214.548
20
-139.375
11
214.548
21
-139.947
0
LINE
8
BLACK
6
CONTINUOUS
10
218.976
20
-143.518
11
218.833
21
-143.375
0
LINE
8
BLACK
6
CONTINUOUS
10
218.833
20
-143.375
11
218.548
21
-142.947
0
LINE
8
BLACK
6
CONTINUOUS
10
218.548
20
-142.947
11
218.405
21
-142.661
0
LINE
8
BLACK
6
CONTINUOUS
10
218.405
20
-142.661
11
218.262
21
-142.232
0
LINE
8
BLACK
6
CONTINUOUS
10
218.262
20
-142.232
11
218.119
21
-141.518
0
LINE
8
BLACK
6
CONTINUOUS
10
218.119
20
-141.518
11
218.119
21
-140.947
0
LINE
8
BLACK
6
CONTINUOUS
10
218.119
20
-140.947
11
218.262
21
-140.232
0
LINE
8
BLACK
6
CONTINUOUS
10
218.262
20
-140.232
11
218.405
21
-139.804
0
LINE
8
BLACK
6
CONTINUOUS
10
218.405
20
-139.804
11
218.548
21
-139.518
0
LINE
8
BLACK
6
CONTINUOUS
10
218.548
20
-139.518
11
218.833
21
-139.089
0
LINE
8
BLACK
6
CONTINUOUS
10
218.833
20
-139.089
11
218.976
21
-138.947
0
LINE
8
BLACK
6
CONTINUOUS
10
219.833
20
-139.375
11
221.691
21
-139.375
0
LINE
8
BLACK
6
CONTINUOUS
10
221.691
20
-139.375
11
220.691
21
-140.518
0
LINE
8
BLACK
6
CONTINUOUS
10
220.691
20
-140.518
11
221.119
21
-140.518
0
LINE
8
BLACK
6
CONTINUOUS
10
221.119
20
-140.518
11
221.405
21
-140.661
0
LINE
8
BLACK
6
CONTINUOUS
10
221.405
20
-140.661
11
221.548
21
-140.804
0
LINE
8
BLACK
6
CONTINUOUS
10
221.548
20
-140.804
11
221.691
21
-141.089
0
LINE
8
BLACK
6
CONTINUOUS
10
221.691
20
-141.089
11
221.691
21
-141.804
0
LINE
8
BLACK
6
CONTINUOUS
10
221.691
20
-141.804
11
221.548
21
-142.089
0
LINE
8
BLACK
6
CONTINUOUS
10
221.548
20
-142.089
11
221.405
21
-142.232
0
LINE
8
BLACK
6
CONTINUOUS
10
221.405
20
-142.232
11
221.119
21
-142.375
0
LINE
8
BLACK
6
CONTINUOUS
10
221.119
20
-142.375
11
220.262
21
-142.375
0
LINE
8
BLACK
6
CONTINUOUS
10
220.262
20
-142.375
11
219.976
21
-142.232
0
LINE
8
BLACK
6
CONTINUOUS
10
219.976
20
-142.232
11
219.833
21
-142.089
0
LINE
8
BLACK
6
CONTINUOUS
10
223.548
20
-139.375
11
223.833
21
-139.375
0
LINE
8
BLACK
6
CONTINUOUS
10
223.833
20
-139.375
11
224.119
21
-139.518
0
LINE
8
BLACK
6
CONTINUOUS
10
224.119
20
-139.518
11
224.262
21
-139.661
0
LINE
8
BLACK
6
CONTINUOUS
10
224.262
20
-139.661
11
224.405
21
-139.947
0
LINE
8
BLACK
6
CONTINUOUS
10
224.405
20
-139.947
11
224.548
21
-140.518
0
LINE
8
BLACK
6
CONTINUOUS
10
224.548
20
-140.518
11
224.548
21
-141.232
0
LINE
8
BLACK
6
CONTINUOUS
10
224.548
20
-141.232
11
224.405
21
-141.804
0
LINE
8
BLACK
6
CONTINUOUS
10
224.405
20
-141.804
11
224.262
21
-142.089
0
LINE
8
BLACK
6
CONTINUOUS
10
224.262
20
-142.089
11
224.119
21
-142.232
0
LINE
8
BLACK
6
CONTINUOUS
10
224.119
20
-142.232
11
223.833
21
-142.375
0
LINE
8
BLACK
6
CONTINUOUS
10
223.833
20
-142.375
11
223.548
21
-142.375
0
LINE
8
BLACK
6
CONTINUOUS
10
223.548
20
-142.375
11
223.262
21
-142.232
0
LINE
8
BLACK
6
CONTINUOUS
10
223.262
20
-142.232
11
223.119
21
-142.089
0
LINE
8
BLACK
6
CONTINUOUS
10
223.119
20
-142.089
11
222.976
21
-141.804
0
LINE
8
BLACK
6
CONTINUOUS
10
222.976
20
-141.804
11
222.833
21
-141.232
0
LINE
8
BLACK
6
CONTINUOUS
10
222.833
20
-141.232
11
222.833
21
-140.518
0
LINE
8
BLACK
6
CONTINUOUS
10
222.833
20
-140.518
11
222.976
21
-139.947
0
LINE
8
BLACK
6
CONTINUOUS
10
222.976
20
-139.947
11
223.119
21
-139.661
0
LINE
8
BLACK
6
CONTINUOUS
10
223.119
20
-139.661
11
223.262
21
-139.518
0
LINE
8
BLACK
6
CONTINUOUS
10
223.262
20
-139.518
11
223.548
21
-139.375
0
LINE
8
BLACK
6
CONTINUOUS
10
228.119
20
-142.375
11
228.119
21
-139.375
0
LINE
8
BLACK
6
CONTINUOUS
10
229.405
20
-142.375
11
229.405
21
-140.804
0
LINE
8
BLACK
6
CONTINUOUS
10
229.405
20
-140.804
11
229.262
21
-140.518
0
LINE
8
BLACK
6
CONTINUOUS
10
229.262
20
-140.518
11
228.976
21
-140.375
0
LINE
8
BLACK
6
CONTINUOUS
10
228.976
20
-140.375
11
228.548
21
-140.375
0
LINE
8
BLACK
6
CONTINUOUS
10
228.548
20
-140.375
11
228.262
21
-140.518
0
LINE
8
BLACK
6
CONTINUOUS
10
228.262
20
-140.518
11
228.119
21
-140.661
0
LINE
8
BLACK
6
CONTINUOUS
10
231.262
20
-142.375
11
230.976
21
-142.232
0
LINE
8
BLACK
6
CONTINUOUS
10
230.976
20
-142.232
11
230.833
21
-142.089
0
LINE
8
BLACK
6
CONTINUOUS
10
230.833
20
-142.089
11
230.691
21
-141.804
0
LINE
8
BLACK
6
CONTINUOUS
10
230.691
20
-141.804
11
230.691
21
-140.947
0
LINE
8
BLACK
6
CONTINUOUS
10
230.691
20
-140.947
11
230.833
21
-140.661
0
LINE
8
BLACK
6
CONTINUOUS
10
230.833
20
-140.661
11
230.976
21
-140.518
0
LINE
8
BLACK
6
CONTINUOUS
10
230.976
20
-140.518
11
231.262
21
-140.375
0
LINE
8
BLACK
6
CONTINUOUS
10
231.262
20
-140.375
11
231.691
21
-140.375
0
LINE
8
BLACK
6
CONTINUOUS
10
231.691
20
-140.375
11
231.976
21
-140.518
0
LINE
8
BLACK
6
CONTINUOUS
10
231.976
20
-140.518
11
232.119
21
-140.661
0
LINE
8
BLACK
6
CONTINUOUS
10
232.119
20
-140.661
11
232.262
21
-140.947
0
LINE
8
BLACK
6
CONTINUOUS
10
232.262
20
-140.947
11
232.262
21
-141.804
0
LINE
8
BLACK
6
CONTINUOUS
10
232.262
20
-141.804
11
232.119
21
-142.089
0
LINE
8
BLACK
6
CONTINUOUS
10
232.119
20
-142.089
11
231.976
21
-142.232
0
LINE
8
BLACK
6
CONTINUOUS
10
231.976
20
-142.232
11
231.691
21
-142.375
0
LINE
8
BLACK
6
CONTINUOUS
10
231.691
20
-142.375
11
231.262
21
-142.375
0
LINE
8
BLACK
6
CONTINUOUS
10
233.976
20
-142.375
11
233.691
21
-142.232
0
LINE
8
BLACK
6
CONTINUOUS
10
233.691
20
-142.232
11
233.548
21
-141.947
0
LINE
8
BLACK
6
CONTINUOUS
10
233.548
20
-141.947
11
233.548
21
-139.375
0
LINE
8
BLACK
6
CONTINUOUS
10
236.262
20
-142.232
11
235.976
21
-142.375
0
LINE
8
BLACK
6
CONTINUOUS
10
235.976
20
-142.375
11
235.405
21
-142.375
0
LINE
8
BLACK
6
CONTINUOUS
10
235.405
20
-142.375
11
235.119
21
-142.232
0
LINE
8
BLACK
6
CONTINUOUS
10
235.119
20
-142.232
11
234.976
21
-141.947
0
LINE
8
BLACK
6
CONTINUOUS
10
234.976
20
-141.947
11
234.976
21
-140.804
0
LINE
8
BLACK
6
CONTINUOUS
10
234.976
20
-140.804
11
235.119
21
-140.518
0
LINE
8
BLACK
6
CONTINUOUS
10
235.119
20
-140.518
11
235.405
21
-140.375
0
LINE
8
BLACK
6
CONTINUOUS
10
235.405
20
-140.375
11
235.976
21
-140.375
0
LINE
8
BLACK
6
CONTINUOUS
10
235.976
20
-140.375
11
236.262
21
-140.518
0
LINE
8
BLACK
6
CONTINUOUS
10
236.262
20
-140.518
11
236.405
21
-140.804
0
LINE
8
BLACK
6
CONTINUOUS
10
236.405
20
-140.804
11
236.405
21
-141.089
0
LINE
8
BLACK
6
CONTINUOUS
10
236.405
20
-141.089
11
234.976
21
-141.375
0
LINE
8
BLACK
6
CONTINUOUS
10
237.548
20
-142.232
11
237.833
21
-142.375
0
LINE
8
BLACK
6
CONTINUOUS
10
237.833
20
-142.375
11
238.405
21
-142.375
0
LINE
8
BLACK
6
CONTINUOUS
10
238.405
20
-142.375
11
238.691
21
-142.232
0
LINE
8
BLACK
6
CONTINUOUS
10
238.691
20
-142.232
11
238.833
21
-141.947
0
LINE
8
BLACK
6
CONTINUOUS
10
238.833
20
-141.947
11
238.833
21
-141.804
0
LINE
8
BLACK
6
CONTINUOUS
10
238.833
20
-141.804
11
238.691
21
-141.518
0
LINE
8
BLACK
6
CONTINUOUS
10
238.691
20
-141.518
11
238.405
21
-141.375
0
LINE
8
BLACK
6
CONTINUOUS
10
238.405
20
-141.375
11
237.976
21
-141.375
0
LINE
8
BLACK
6
CONTINUOUS
10
237.976
20
-141.375
11
237.691
21
-141.232
0
LINE
8
BLACK
6
CONTINUOUS
10
237.691
20
-141.232
11
237.548
21
-140.947
0
LINE
8
BLACK
6
CONTINUOUS
10
237.548
20
-140.947
11
237.548
21
-140.804
0
LINE
8
BLACK
6
CONTINUOUS
10
237.548
20
-140.804
11
237.691
21
-140.518
0
LINE
8
BLACK
6
CONTINUOUS
10
237.691
20
-140.518
11
237.976
21
-140.375
0
LINE
8
BLACK
6
CONTINUOUS
10
237.976
20
-140.375
11
238.405
21
-140.375
0
LINE
8
BLACK
6
CONTINUOUS
10
238.405
20
-140.375
11
238.691
21
-140.518
0
LINE
8
BLACK
6
CONTINUOUS
10
239.833
20
-143.518
11
239.976
21
-143.375
0
LINE
8
BLACK
6
CONTINUOUS
10
239.976
20
-143.375
11
240.262
21
-142.947
0
LINE
8
BLACK
6
CONTINUOUS
10
240.262
20
-142.947
11
240.405
21
-142.661
0
LINE
8
BLACK
6
CONTINUOUS
10
240.405
20
-142.661
11
240.548
21
-142.232
0
LINE
8
BLACK
6
CONTINUOUS
10
240.548
20
-142.232
11
240.691
21
-141.518
0
LINE
8
BLACK
6
CONTINUOUS
10
240.691
20
-141.518
11
240.691
21
-140.947
0
LINE
8
BLACK
6
CONTINUOUS
10
240.691
20
-140.947
11
240.548
21
-140.232
0
LINE
8
BLACK
6
CONTINUOUS
10
240.548
20
-140.232
11
240.405
21
-139.804
0
LINE
8
BLACK
6
CONTINUOUS
10
240.405
20
-139.804
11
240.262
21
-139.518
0
LINE
8
BLACK
6
CONTINUOUS
10
240.262
20
-139.518
11
239.976
21
-139.089
0
LINE
8
BLACK
6
CONTINUOUS
10
239.976
20
-139.089
11
239.833
21
-138.947
0
LINE
8
BLACK
6
CONTINUOUS
10
245.262
20
-143.518
11
245.119
21
-143.375
0
LINE
8
BLACK
6
CONTINUOUS
10
245.119
20
-143.375
11
244.833
21
-142.947
0
LINE
8
BLACK
6
CONTINUOUS
10
244.833
20
-142.947
11
244.691
21
-142.661
0
LINE
8
BLACK
6
CONTINUOUS
10
244.691
20
-142.661
11
244.548
21
-142.232
0
LINE
8
BLACK
6
CONTINUOUS
10
244.548
20
-142.232
11
244.405
21
-141.518
0
LINE
8
BLACK
6
CONTINUOUS
10
244.405
20
-141.518
11
244.405
21
-140.947
0
LINE
8
BLACK
6
CONTINUOUS
10
244.405
20
-140.947
11
244.548
21
-140.232
0
LINE
8
BLACK
6
CONTINUOUS
10
244.548
20
-140.232
11
244.691
21
-139.804
0
LINE
8
BLACK
6
CONTINUOUS
10
244.691
20
-139.804
11
244.833
21
-139.518
0
LINE
8
BLACK
6
CONTINUOUS
10
244.833
20
-139.518
11
245.119
21
-139.089
0
LINE
8
BLACK
6
CONTINUOUS
10
245.119
20
-139.089
11
245.262
21
-138.947
0
LINE
8
BLACK
6
CONTINUOUS
10
246.405
20
-140.375
11
246.405
21
-142.375
0
LINE
8
BLACK
6
CONTINUOUS
10
246.405
20
-140.661
11
246.548
21
-140.518
0
LINE
8
BLACK
6
CONTINUOUS
10
246.548
20
-140.518
11
246.833
21
-140.375
0
LINE
8
BLACK
6
CONTINUOUS
10
246.833
20
-140.375
11
247.262
21
-140.375
0
LINE
8
BLACK
6
CONTINUOUS
10
247.262
20
-140.375
11
247.548
21
-140.518
0
LINE
8
BLACK
6
CONTINUOUS
10
247.548
20
-140.518
11
247.691
21
-140.804
0
LINE
8
BLACK
6
CONTINUOUS
10
247.691
20
-140.804
11
247.691
21
-142.375
0
LINE
8
BLACK
6
CONTINUOUS
10
249.548
20
-142.375
11
249.262
21
-142.232
0
LINE
8
BLACK
6
CONTINUOUS
10
249.262
20
-142.232
11
249.119
21
-142.089
0
LINE
8
BLACK
6
CONTINUOUS
10
249.119
20
-142.089
11
248.976
21
-141.804
0
LINE
8
BLACK
6
CONTINUOUS
10
248.976
20
-141.804
11
248.976
21
-140.947
0
LINE
8
BLACK
6
CONTINUOUS
10
248.976
20
-140.947
11
249.119
21
-140.661
0
LINE
8
BLACK
6
CONTINUOUS
10
249.119
20
-140.661
11
249.262
21
-140.518
0
LINE
8
BLACK
6
CONTINUOUS
10
249.262
20
-140.518
11
249.548
21
-140.375
0
LINE
8
BLACK
6
CONTINUOUS
10
249.548
20
-140.375
11
249.976
21
-140.375
0
LINE
8
BLACK
6
CONTINUOUS
10
249.976
20
-140.375
11
250.262
21
-140.518
0
LINE
8
BLACK
6
CONTINUOUS
10
250.262
20
-140.518
11
250.405
21
-140.661
0
LINE
8
BLACK
6
CONTINUOUS
10
250.405
20
-140.661
11
250.548
21
-140.947
0
LINE
8
BLACK
6
CONTINUOUS
10
250.548
20
-140.947
11
250.548
21
-141.804
0
LINE
8
BLACK
6
CONTINUOUS
10
250.548
20
-141.804
11
250.405
21
-142.089
0
LINE
8
BLACK
6
CONTINUOUS
10
250.405
20
-142.089
11
250.262
21
-142.232
0
LINE
8
BLACK
6
CONTINUOUS
10
250.262
20
-142.232
11
249.976
21
-142.375
0
LINE
8
BLACK
6
CONTINUOUS
10
249.976
20
-142.375
11
249.548
21
-142.375
0
LINE
8
BLACK
6
CONTINUOUS
10
251.405
20
-140.375
11
252.548
21
-140.375
0
LINE
8
BLACK
6
CONTINUOUS
10
251.833
20
-139.375
11
251.833
21
-141.947
0
LINE
8
BLACK
6
CONTINUOUS
10
251.833
20
-141.947
11
251.976
21
-142.232
0
LINE
8
BLACK
6
CONTINUOUS
10
251.976
20
-142.232
11
252.262
21
-142.375
0
LINE
8
BLACK
6
CONTINUOUS
10
252.262
20
-142.375
11
252.548
21
-142.375
0
LINE
8
BLACK
6
CONTINUOUS
10
255.833
20
-140.375
11
255.833
21
-143.375
0
LINE
8
BLACK
6
CONTINUOUS
10
255.833
20
-140.518
11
256.119
21
-140.375
0
LINE
8
BLACK
6
CONTINUOUS
10
256.119
20
-140.375
11
256.691
21
-140.375
0
LINE
8
BLACK
6
CONTINUOUS
10
256.691
20
-140.375
11
256.976
21
-140.518
0
LINE
8
BLACK
6
CONTINUOUS
10
256.976
20
-140.518
11
257.119
21
-140.661
0
LINE
8
BLACK
6
CONTINUOUS
10
257.119
20
-140.661
11
257.262
21
-140.947
0
LINE
8
BLACK
6
CONTINUOUS
10
257.262
20
-140.947
11
257.262
21
-141.804
0
LINE
8
BLACK
6
CONTINUOUS
10
257.262
20
-141.804
11
257.119
21
-142.089
0
LINE
8
BLACK
6
CONTINUOUS
10
257.119
20
-142.089
11
256.976
21
-142.232
0
LINE
8
BLACK
6
CONTINUOUS
10
256.976
20
-142.232
11
256.691
21
-142.375
0
LINE
8
BLACK
6
CONTINUOUS
10
256.691
20
-142.375
11
256.119
21
-142.375
0
LINE
8
BLACK
6
CONTINUOUS
10
256.119
20
-142.375
11
255.833
21
-142.232
0
LINE
8
BLACK
6
CONTINUOUS
10
258.976
20
-142.375
11
258.691
21
-142.232
0
LINE
8
BLACK
6
CONTINUOUS
10
258.691
20
-142.232
11
258.548
21
-141.947
0
LINE
8
BLACK
6
CONTINUOUS
10
258.548
20
-141.947
11
258.548
21
-139.375
0
LINE
8
BLACK
6
CONTINUOUS
10
261.405
20
-142.375
11
261.405
21
-140.804
0
LINE
8
BLACK
6
CONTINUOUS
10
261.405
20
-140.804
11
261.262
21
-140.518
0
LINE
8
BLACK
6
CONTINUOUS
10
261.262
20
-140.518
11
260.976
21
-140.375
0
LINE
8
BLACK
6
CONTINUOUS
10
260.976
20
-140.375
11
260.405
21
-140.375
0
LINE
8
BLACK
6
CONTINUOUS
10
260.405
20
-140.375
11
260.119
21
-140.518
0
LINE
8
BLACK
6
CONTINUOUS
10
261.405
20
-142.232
11
261.119
21
-142.375
0
LINE
8
BLACK
6
CONTINUOUS
10
261.119
20
-142.375
11
260.405
21
-142.375
0
LINE
8
BLACK
6
CONTINUOUS
10
260.405
20
-142.375
11
260.119
21
-142.232
0
LINE
8
BLACK
6
CONTINUOUS
10
260.119
20
-142.232
11
259.976
21
-141.947
0
LINE
8
BLACK
6
CONTINUOUS
10
259.976
20
-141.947
11
259.976
21
-141.661
0
LINE
8
BLACK
6
CONTINUOUS
10
259.976
20
-141.661
11
260.119
21
-141.375
0
LINE
8
BLACK
6
CONTINUOUS
10
260.119
20
-141.375
11
260.405
21
-141.232
0
LINE
8
BLACK
6
CONTINUOUS
10
260.405
20
-141.232
11
261.119
21
-141.232
0
LINE
8
BLACK
6
CONTINUOUS
10
261.119
20
-141.232
11
261.405
21
-141.089
0
LINE
8
BLACK
6
CONTINUOUS
10
262.405
20
-140.375
11
263.548
21
-140.375
0
LINE
8
BLACK
6
CONTINUOUS
10
262.833
20
-139.375
11
262.833
21
-141.947
0
LINE
8
BLACK
6
CONTINUOUS
10
262.833
20
-141.947
11
262.976
21
-142.232
0
LINE
8
BLACK
6
CONTINUOUS
10
262.976
20
-142.232
11
263.262
21
-142.375
0
LINE
8
BLACK
6
CONTINUOUS
10
263.262
20
-142.375
11
263.548
21
-142.375
0
LINE
8
BLACK
6
CONTINUOUS
10
265.691
20
-142.232
11
265.405
21
-142.375
0
LINE
8
BLACK
6
CONTINUOUS
10
265.405
20
-142.375
11
264.833
21
-142.375
0
LINE
8
BLACK
6
CONTINUOUS
10
264.833
20
-142.375
11
264.548
21
-142.232
0
LINE
8
BLACK
6
CONTINUOUS
10
264.548
20
-142.232
11
264.405
21
-141.947
0
LINE
8
BLACK
6
CONTINUOUS
10
264.405
20
-141.947
11
264.405
21
-140.804
0
LINE
8
BLACK
6
CONTINUOUS
10
264.405
20
-140.804
11
264.548
21
-140.518
0
LINE
8
BLACK
6
CONTINUOUS
10
264.548
20
-140.518
11
264.833
21
-140.375
0
LINE
8
BLACK
6
CONTINUOUS
10
264.833
20
-140.375
11
265.405
21
-140.375
0
LINE
8
BLACK
6
CONTINUOUS
10
265.405
20
-140.375
11
265.691
21
-140.518
0
LINE
8
BLACK
6
CONTINUOUS
10
265.691
20
-140.518
11
265.833
21
-140.804
0
LINE
8
BLACK
6
CONTINUOUS
10
265.833
20
-140.804
11
265.833
21
-141.089
0
LINE
8
BLACK
6
CONTINUOUS
10
265.833
20
-141.089
11
264.405
21
-141.375
0
LINE
8
BLACK
6
CONTINUOUS
10
268.405
20
-142.375
11
268.405
21
-139.375
0
LINE
8
BLACK
6
CONTINUOUS
10
268.405
20
-142.232
11
268.119
21
-142.375
0
LINE
8
BLACK
6
CONTINUOUS
10
268.119
20
-142.375
11
267.548
21
-142.375
0
LINE
8
BLACK
6
CONTINUOUS
10
267.548
20
-142.375
11
267.262
21
-142.232
0
LINE
8
BLACK
6
CONTINUOUS
10
267.262
20
-142.232
11
267.119
21
-142.089
0
LINE
8
BLACK
6
CONTINUOUS
10
267.119
20
-142.089
11
266.976
21
-141.804
0
LINE
8
BLACK
6
CONTINUOUS
10
266.976
20
-141.804
11
266.976
21
-140.947
0
LINE
8
BLACK
6
CONTINUOUS
10
266.976
20
-140.947
11
267.119
21
-140.661
0
LINE
8
BLACK
6
CONTINUOUS
10
267.119
20
-140.661
11
267.262
21
-140.518
0
LINE
8
BLACK
6
CONTINUOUS
10
267.262
20
-140.518
11
267.548
21
-140.375
0
LINE
8
BLACK
6
CONTINUOUS
10
267.548
20
-140.375
11
268.119
21
-140.375
0
LINE
8
BLACK
6
CONTINUOUS
10
268.119
20
-140.375
11
268.405
21
-140.518
0
LINE
8
BLACK
6
CONTINUOUS
10
269.548
20
-143.518
11
269.691
21
-143.375
0
LINE
8
BLACK
6
CONTINUOUS
10
269.691
20
-143.375
11
269.976
21
-142.947
0
LINE
8
BLACK
6
CONTINUOUS
10
269.976
20
-142.947
11
270.119
21
-142.661
0
LINE
8
BLACK
6
CONTINUOUS
10
270.119
20
-142.661
11
270.262
21
-142.232
0
LINE
8
BLACK
6
CONTINUOUS
10
270.262
20
-142.232
11
270.405
21
-141.518
0
LINE
8
BLACK
6
CONTINUOUS
10
270.405
20
-141.518
11
270.405
21
-140.947
0
LINE
8
BLACK
6
CONTINUOUS
10
270.405
20
-140.947
11
270.262
21
-140.232
0
LINE
8
BLACK
6
CONTINUOUS
10
270.262
20
-140.232
11
270.119
21
-139.804
0
LINE
8
BLACK
6
CONTINUOUS
10
270.119
20
-139.804
11
269.976
21
-139.518
0
LINE
8
BLACK
6
CONTINUOUS
10
269.976
20
-139.518
11
269.691
21
-139.089
0
LINE
8
BLACK
6
CONTINUOUS
10
269.691
20
-139.089
11
269.548
21
-138.947
0
CIRCLE
8
BLACK
10
170.112
20
-144.978
40
2
0
LINE
8
BLACK
6
CONTINUOUS
10
176.262
20
-144.335
11
176.262
21
-146.335
0
LINE
8
BLACK
6
CONTINUOUS
10
175.548
20
-143.192
11
174.833
21
-145.335
0
LINE
8
BLACK
6
CONTINUOUS
10
174.833
20
-145.335
11
176.691
21
-145.335
0
LINE
8
BLACK
6
CONTINUOUS
10
177.833
20
-146.049
11
177.976
21
-146.192
0
LINE
8
BLACK
6
CONTINUOUS
10
177.976
20
-146.192
11
177.833
21
-146.335
0
LINE
8
BLACK
6
CONTINUOUS
10
177.833
20
-146.335
11
177.691
21
-146.192
0
LINE
8
BLACK
6
CONTINUOUS
10
177.691
20
-146.192
11
177.833
21
-146.049
0
LINE
8
BLACK
6
CONTINUOUS
10
177.833
20
-146.049
11
177.833
21
-146.335
0
LINE
8
BLACK
6
CONTINUOUS
10
179.833
20
-143.335
11
180.119
21
-143.335
0
LINE
8
BLACK
6
CONTINUOUS
10
180.119
20
-143.335
11
180.405
21
-143.478
0
LINE
8
BLACK
6
CONTINUOUS
10
180.405
20
-143.478
11
180.548
21
-143.621
0
LINE
8
BLACK
6
CONTINUOUS
10
180.548
20
-143.621
11
180.691
21
-143.907
0
LINE
8
BLACK
6
CONTINUOUS
10
180.691
20
-143.907
11
180.833
21
-144.478
0
LINE
8
BLACK
6
CONTINUOUS
10
180.833
20
-144.478
11
180.833
21
-145.192
0
LINE
8
BLACK
6
CONTINUOUS
10
180.833
20
-145.192
11
180.691
21
-145.764
0
LINE
8
BLACK
6
CONTINUOUS
10
180.691
20
-145.764
11
180.548
21
-146.049
0
LINE
8
BLACK
6
CONTINUOUS
10
180.548
20
-146.049
11
180.405
21
-146.192
0
LINE
8
BLACK
6
CONTINUOUS
10
180.405
20
-146.192
11
180.119
21
-146.335
0
LINE
8
BLACK
6
CONTINUOUS
10
180.119
20
-146.335
11
179.833
21
-146.335
0
LINE
8
BLACK
6
CONTINUOUS
10
179.833
20
-146.335
11
179.548
21
-146.192
0
LINE
8
BLACK
6
CONTINUOUS
10
179.548
20
-146.192
11
179.405
21
-146.049
0
LINE
8
BLACK
6
CONTINUOUS
10
179.405
20
-146.049
11
179.262
21
-145.764
0
LINE
8
BLACK
6
CONTINUOUS
10
179.262
20
-145.764
11
179.119
21
-145.192
0
LINE
8
BLACK
6
CONTINUOUS
10
179.119
20
-145.192
11
179.119
21
-144.478
0
LINE
8
BLACK
6
CONTINUOUS
10
179.119
20
-144.478
11
179.262
21
-143.907
0
LINE
8
BLACK
6
CONTINUOUS
10
179.262
20
-143.907
11
179.405
21
-143.621
0
LINE
8
BLACK
6
CONTINUOUS
10
179.405
20
-143.621
11
179.548
21
-143.478
0
LINE
8
BLACK
6
CONTINUOUS
10
179.548
20
-143.478
11
179.833
21
-143.335
0
LINE
8
BLACK
6
CONTINUOUS
10
182.691
20
-143.335
11
182.976
21
-143.335
0
LINE
8
BLACK
6
CONTINUOUS
10
182.976
20
-143.335
11
183.262
21
-143.478
0
LINE
8
BLACK
6
CONTINUOUS
10
183.262
20
-143.478
11
183.405
21
-143.621
0
LINE
8
BLACK
6
CONTINUOUS
10
183.405
20
-143.621
11
183.548
21
-143.907
0
LINE
8
BLACK
6
CONTINUOUS
10
183.548
20
-143.907
11
183.691
21
-144.478
0
LINE
8
BLACK
6
CONTINUOUS
10
183.691
20
-144.478
11
183.691
21
-145.192
0
LINE
8
BLACK
6
CONTINUOUS
10
183.691
20
-145.192
11
183.548
21
-145.764
0
LINE
8
BLACK
6
CONTINUOUS
10
183.548
20
-145.764
11
183.405
21
-146.049
0
LINE
8
BLACK
6
CONTINUOUS
10
183.405
20
-146.049
11
183.262
21
-146.192
0
LINE
8
BLACK
6
CONTINUOUS
10
183.262
20
-146.192
11
182.976
21
-146.335
0
LINE
8
BLACK
6
CONTINUOUS
10
182.976
20
-146.335
11
182.691
21
-146.335
0
LINE
8
BLACK
6
CONTINUOUS
10
182.691
20
-146.335
11
182.405
21
-146.192
0
LINE
8
BLACK
6
CONTINUOUS
10
182.405
20
-146.192
11
182.262
21
-146.049
0
LINE
8
BLACK
6
CONTINUOUS
10
182.262
20
-146.049
11
182.119
21
-145.764
0
LINE
8
BLACK
6
CONTINUOUS
10
182.119
20
-145.764
11
181.976
21
-145.192
0
LINE
8
BLACK
6
CONTINUOUS
10
181.976
20
-145.192
11
181.976
21
-144.478
0
LINE
8
BLACK
6
CONTINUOUS
10
181.976
20
-144.478
11
182.119
21
-143.907
0
LINE
8
BLACK
6
CONTINUOUS
10
182.119
20
-143.907
11
182.262
21
-143.621
0
LINE
8
BLACK
6
CONTINUOUS
10
182.262
20
-143.621
11
182.405
21
-143.478
0
LINE
8
BLACK
6
CONTINUOUS
10
182.405
20
-143.478
11
182.691
21
-143.335
0
LINE
8
BLACK
6
CONTINUOUS
10
184.976
20
-146.335
11
184.976
21
-144.335
0
LINE
8
BLACK
6
CONTINUOUS
10
184.976
20
-144.621
11
185.119
21
-144.478
0
LINE
8
BLACK
6
CONTINUOUS
10
185.119
20
-144.478
11
185.405
21
-144.335
0
LINE
8
BLACK
6
CONTINUOUS
10
185.405
20
-144.335
11
185.833
21
-144.335
0
LINE
8
BLACK
6
CONTINUOUS
10
185.833
20
-144.335
11
186.119
21
-144.478
0
LINE
8
BLACK
6
CONTINUOUS
10
186.119
20
-144.478
11
186.262
21
-144.764
0
LINE
8
BLACK
6
CONTINUOUS
10
186.262
20
-144.764
11
186.262
21
-146.335
0
LINE
8
BLACK
6
CONTINUOUS
10
186.262
20
-144.764
11
186.405
21
-144.478
0
LINE
8
BLACK
6
CONTINUOUS
10
186.405
20
-144.478
11
186.691
21
-144.335
0
LINE
8
BLACK
6
CONTINUOUS
10
186.691
20
-144.335
11
187.119
21
-144.335
0
LINE
8
BLACK
6
CONTINUOUS
10
187.119
20
-144.335
11
187.405
21
-144.478
0
LINE
8
BLACK
6
CONTINUOUS
10
187.405
20
-144.478
11
187.548
21
-144.764
0
LINE
8
BLACK
6
CONTINUOUS
10
187.548
20
-144.764
11
187.548
21
-146.335
0
LINE
8
BLACK
6
CONTINUOUS
10
188.976
20
-146.335
11
188.976
21
-144.335
0
LINE
8
BLACK
6
CONTINUOUS
10
188.976
20
-144.621
11
189.119
21
-144.478
0
LINE
8
BLACK
6
CONTINUOUS
10
189.119
20
-144.478
11
189.405
21
-144.335
0
LINE
8
BLACK
6
CONTINUOUS
10
189.405
20
-144.335
11
189.833
21
-144.335
0
LINE
8
BLACK
6
CONTINUOUS
10
189.833
20
-144.335
11
190.119
21
-144.478
0
LINE
8
BLACK
6
CONTINUOUS
10
190.119
20
-144.478
11
190.262
21
-144.764
0
LINE
8
BLACK
6
CONTINUOUS
10
190.262
20
-144.764
11
190.262
21
-146.335
0
LINE
8
BLACK
6
CONTINUOUS
10
190.262
20
-144.764
11
190.405
21
-144.478
0
LINE
8
BLACK
6
CONTINUOUS
10
190.405
20
-144.478
11
190.691
21
-144.335
0
LINE
8
BLACK
6
CONTINUOUS
10
190.691
20
-144.335
11
191.119
21
-144.335
0
LINE
8
BLACK
6
CONTINUOUS
10
191.119
20
-144.335
11
191.405
21
-144.478
0
LINE
8
BLACK
6
CONTINUOUS
10
191.405
20
-144.478
11
191.548
21
-144.764
0
LINE
8
BLACK
6
CONTINUOUS
10
191.548
20
-144.764
11
191.548
21
-146.335
0
LINE
8
BLACK
6
CONTINUOUS
10
197.405
20
-143.192
11
194.833
21
-147.049
0
LINE
8
BLACK
6
CONTINUOUS
10
201.262
20
-143.335
11
201.548
21
-143.335
0
LINE
8
BLACK
6
CONTINUOUS
10
201.548
20
-143.335
11
201.833
21
-143.478
0
LINE
8
BLACK
6
CONTINUOUS
10
201.833
20
-143.478
11
201.976
21
-143.621
0
LINE
8
BLACK
6
CONTINUOUS
10
201.976
20
-143.621
11
202.119
21
-143.907
0
LINE
8
BLACK
6
CONTINUOUS
10
202.119
20
-143.907
11
202.262
21
-144.478
0
LINE
8
BLACK
6
CONTINUOUS
10
202.262
20
-144.478
11
202.262
21
-145.192
0
LINE
8
BLACK
6
CONTINUOUS
10
202.262
20
-145.192
11
202.119
21
-145.764
0
LINE
8
BLACK
6
CONTINUOUS
10
202.119
20
-145.764
11
201.976
21
-146.049
0
LINE
8
BLACK
6
CONTINUOUS
10
201.976
20
-146.049
11
201.833
21
-146.192
0
LINE
8
BLACK
6
CONTINUOUS
10
201.833
20
-146.192
11
201.548
21
-146.335
0
LINE
8
BLACK
6
CONTINUOUS
10
201.548
20
-146.335
11
201.262
21
-146.335
0
LINE
8
BLACK
6
CONTINUOUS
10
201.262
20
-146.335
11
200.976
21
-146.192
0
LINE
8
BLACK
6
CONTINUOUS
10
200.976
20
-146.192
11
200.833
21
-146.049
0
LINE
8
BLACK
6
CONTINUOUS
10
200.833
20
-146.049
11
200.691
21
-145.764
0
LINE
8
BLACK
6
CONTINUOUS
10
200.691
20
-145.764
11
200.548
21
-145.192
0
LINE
8
BLACK
6
CONTINUOUS
10
200.548
20
-145.192
11
200.548
21
-144.478
0
LINE
8
BLACK
6
CONTINUOUS
10
200.548
20
-144.478
11
200.691
21
-143.907
0
LINE
8
BLACK
6
CONTINUOUS
10
200.691
20
-143.907
11
200.833
21
-143.621
0
LINE
8
BLACK
6
CONTINUOUS
10
200.833
20
-143.621
11
200.976
21
-143.478
0
LINE
8
BLACK
6
CONTINUOUS
10
200.976
20
-143.478
11
201.262
21
-143.335
0
LINE
8
BLACK
6
CONTINUOUS
10
203.548
20
-146.049
11
203.691
21
-146.192
0
LINE
8
BLACK
6
CONTINUOUS
10
203.691
20
-146.192
11
203.548
21
-146.335
0
LINE
8
BLACK
6
CONTINUOUS
10
203.548
20
-146.335
11
203.405
21
-146.192
0
LINE
8
BLACK
6
CONTINUOUS
10
203.405
20
-146.192
11
203.548
21
-146.049
0
LINE
8
BLACK
6
CONTINUOUS
10
203.548
20
-146.049
11
203.548
21
-146.335
0
LINE
8
BLACK
6
CONTINUOUS
10
206.548
20
-146.335
11
204.833
21
-146.335
0
LINE
8
BLACK
6
CONTINUOUS
10
205.691
20
-146.335
11
205.691
21
-143.335
0
LINE
8
BLACK
6
CONTINUOUS
10
205.691
20
-143.335
11
205.405
21
-143.764
0
LINE
8
BLACK
6
CONTINUOUS
10
205.405
20
-143.764
11
205.119
21
-144.049
0
LINE
8
BLACK
6
CONTINUOUS
10
205.119
20
-144.049
11
204.833
21
-144.192
0
LINE
8
BLACK
6
CONTINUOUS
10
209.262
20
-143.335
11
207.833
21
-143.335
0
LINE
8
BLACK
6
CONTINUOUS
10
207.833
20
-143.335
11
207.691
21
-144.764
0
LINE
8
BLACK
6
CONTINUOUS
10
207.691
20
-144.764
11
207.833
21
-144.621
0
LINE
8
BLACK
6
CONTINUOUS
10
207.833
20
-144.621
11
208.119
21
-144.478
0
LINE
8
BLACK
6
CONTINUOUS
10
208.119
20
-144.478
11
208.833
21
-144.478
0
LINE
8
BLACK
6
CONTINUOUS
10
208.833
20
-144.478
11
209.119
21
-144.621
0
LINE
8
BLACK
6
CONTINUOUS
10
209.119
20
-144.621
11
209.262
21
-144.764
0
LINE
8
BLACK
6
CONTINUOUS
10
209.262
20
-144.764
11
209.405
21
-145.049
0
LINE
8
BLACK
6
CONTINUOUS
10
209.405
20
-145.049
11
209.405
21
-145.764
0
LINE
8
BLACK
6
CONTINUOUS
10
209.405
20
-145.764
11
209.262
21
-146.049
0
LINE
8
BLACK
6
CONTINUOUS
10
209.262
20
-146.049
11
209.119
21
-146.192
0
LINE
8
BLACK
6
CONTINUOUS
10
209.119
20
-146.192
11
208.833
21
-146.335
0
LINE
8
BLACK
6
CONTINUOUS
10
208.833
20
-146.335
11
208.119
21
-146.335
0
LINE
8
BLACK
6
CONTINUOUS
10
208.119
20
-146.335
11
207.833
21
-146.192
0
LINE
8
BLACK
6
CONTINUOUS
10
207.833
20
-146.192
11
207.691
21
-146.049
0
LINE
8
BLACK
6
CONTINUOUS
10
210.405
20
-143.335
11
212.405
21
-143.335
0
LINE
8
BLACK
6
CONTINUOUS
10
212.405
20
-143.335
11
211.119
21
-146.335
0
LINE
8
BLACK
6
CONTINUOUS
10
213.405
20
-143.335
11
213.405
21
-143.907
0
LINE
8
BLACK
6
CONTINUOUS
10
214.548
20
-143.335
11
214.548
21
-143.907
0
LINE
8
BLACK
6
CONTINUOUS
10
218.976
20
-147.478
11
218.833
21
-147.335
0
LINE
8
BLACK
6
CONTINUOUS
10
218.833
20
-147.335
11
218.548
21
-146.907
0
LINE
8
BLACK
6
CONTINUOUS
10
218.548
20
-146.907
11
218.405
21
-146.621
0
LINE
8
BLACK
6
CONTINUOUS
10
218.405
20
-146.621
11
218.262
21
-146.192
0
LINE
8
BLACK
6
CONTINUOUS
10
218.262
20
-146.192
11
218.119
21
-145.478
0
LINE
8
BLACK
6
CONTINUOUS
10
218.119
20
-145.478
11
218.119
21
-144.907
0
LINE
8
BLACK
6
CONTINUOUS
10
218.119
20
-144.907
11
218.262
21
-144.192
0
LINE
8
BLACK
6
CONTINUOUS
10
218.262
20
-144.192
11
218.405
21
-143.764
0
LINE
8
BLACK
6
CONTINUOUS
10
218.405
20
-143.764
11
218.548
21
-143.478
0
LINE
8
BLACK
6
CONTINUOUS
10
218.548
20
-143.478
11
218.833
21
-143.049
0
LINE
8
BLACK
6
CONTINUOUS
10
218.833
20
-143.049
11
218.976
21
-142.907
0
LINE
8
BLACK
6
CONTINUOUS
10
221.691
20
-146.335
11
219.976
21
-146.335
0
LINE
8
BLACK
6
CONTINUOUS
10
220.833
20
-146.335
11
220.833
21
-143.335
0
LINE
8
BLACK
6
CONTINUOUS
10
220.833
20
-143.335
11
220.548
21
-143.764
0
LINE
8
BLACK
6
CONTINUOUS
10
220.548
20
-143.764
11
220.262
21
-144.049
0
LINE
8
BLACK
6
CONTINUOUS
10
220.262
20
-144.049
11
219.976
21
-144.192
0
LINE
8
BLACK
6
CONTINUOUS
10
224.405
20
-143.335
11
222.976
21
-143.335
0
LINE
8
BLACK
6
CONTINUOUS
10
222.976
20
-143.335
11
222.833
21
-144.764
0
LINE
8
BLACK
6
CONTINUOUS
10
222.833
20
-144.764
11
222.976
21
-144.621
0
LINE
8
BLACK
6
CONTINUOUS
10
222.976
20
-144.621
11
223.262
21
-144.478
0
LINE
8
BLACK
6
CONTINUOUS
10
223.262
20
-144.478
11
223.976
21
-144.478
0
LINE
8
BLACK
6
CONTINUOUS
10
223.976
20
-144.478
11
224.262
21
-144.621
0
LINE
8
BLACK
6
CONTINUOUS
10
224.262
20
-144.621
11
224.405
21
-144.764
0
LINE
8
BLACK
6
CONTINUOUS
10
224.405
20
-144.764
11
224.548
21
-145.049
0
LINE
8
BLACK
6
CONTINUOUS
10
224.548
20
-145.049
11
224.548
21
-145.764
0
LINE
8
BLACK
6
CONTINUOUS
10
224.548
20
-145.764
11
224.405
21
-146.049
0
LINE
8
BLACK
6
CONTINUOUS
10
224.405
20
-146.049
11
224.262
21
-146.192
0
LINE
8
BLACK
6
CONTINUOUS
10
224.262
20
-146.192
11
223.976
21
-146.335
0
LINE
8
BLACK
6
CONTINUOUS
10
223.976
20
-146.335
11
223.262
21
-146.335
0
LINE
8
BLACK
6
CONTINUOUS
10
223.262
20
-146.335
11
222.976
21
-146.192
0
LINE
8
BLACK
6
CONTINUOUS
10
222.976
20
-146.192
11
222.833
21
-146.049
0
LINE
8
BLACK
6
CONTINUOUS
10
228.119
20
-146.335
11
228.119
21
-143.335
0
LINE
8
BLACK
6
CONTINUOUS
10
229.405
20
-146.335
11
229.405
21
-144.764
0
LINE
8
BLACK
6
CONTINUOUS
10
229.405
20
-144.764
11
229.262
21
-144.478
0
LINE
8
BLACK
6
CONTINUOUS
10
229.262
20
-144.478
11
228.976
21
-144.335
0
LINE
8
BLACK
6
CONTINUOUS
10
228.976
20
-144.335
11
228.548
21
-144.335
0
LINE
8
BLACK
6
CONTINUOUS
10
228.548
20
-144.335
11
228.262
21
-144.478
0
LINE
8
BLACK
6
CONTINUOUS
10
228.262
20
-144.478
11
228.119
21
-144.621
0
LINE
8
BLACK
6
CONTINUOUS
10
231.262
20
-146.335
11
230.976
21
-146.192
0
LINE
8
BLACK
6
CONTINUOUS
10
230.976
20
-146.192
11
230.833
21
-146.049
0
LINE
8
BLACK
6
CONTINUOUS
10
230.833
20
-146.049
11
230.691
21
-145.764
0
LINE
8
BLACK
6
CONTINUOUS
10
230.691
20
-145.764
11
230.691
21
-144.907
0
LINE
8
BLACK
6
CONTINUOUS
10
230.691
20
-144.907
11
230.833
21
-144.621
0
LINE
8
BLACK
6
CONTINUOUS
10
230.833
20
-144.621
11
230.976
21
-144.478
0
LINE
8
BLACK
6
CONTINUOUS
10
230.976
20
-144.478
11
231.262
21
-144.335
0
LINE
8
BLACK
6
CONTINUOUS
10
231.262
20
-144.335
11
231.691
21
-144.335
0
LINE
8
BLACK
6
CONTINUOUS
10
231.691
20
-144.335
11
231.976
21
-144.478
0
LINE
8
BLACK
6
CONTINUOUS
10
231.976
20
-144.478
11
232.119
21
-144.621
0
LINE
8
BLACK
6
CONTINUOUS
10
232.119
20
-144.621
11
232.262
21
-144.907
0
LINE
8
BLACK
6
CONTINUOUS
10
232.262
20
-144.907
11
232.262
21
-145.764
0
LINE
8
BLACK
6
CONTINUOUS
10
232.262
20
-145.764
11
232.119
21
-146.049
0
LINE
8
BLACK
6
CONTINUOUS
10
232.119
20
-146.049
11
231.976
21
-146.192
0
LINE
8
BLACK
6
CONTINUOUS
10
231.976
20
-146.192
11
231.691
21
-146.335
0
LINE
8
BLACK
6
CONTINUOUS
10
231.691
20
-146.335
11
231.262
21
-146.335
0
LINE
8
BLACK
6
CONTINUOUS
10
233.976
20
-146.335
11
233.691
21
-146.192
0
LINE
8
BLACK
6
CONTINUOUS
10
233.691
20
-146.192
11
233.548
21
-145.907
0
LINE
8
BLACK
6
CONTINUOUS
10
233.548
20
-145.907
11
233.548
21
-143.335
0
LINE
8
BLACK
6
CONTINUOUS
10
236.262
20
-146.192
11
235.976
21
-146.335
0
LINE
8
BLACK
6
CONTINUOUS
10
235.976
20
-146.335
11
235.405
21
-146.335
0
LINE
8
BLACK
6
CONTINUOUS
10
235.405
20
-146.335
11
235.119
21
-146.192
0
LINE
8
BLACK
6
CONTINUOUS
10
235.119
20
-146.192
11
234.976
21
-145.907
0
LINE
8
BLACK
6
CONTINUOUS
10
234.976
20
-145.907
11
234.976
21
-144.764
0
LINE
8
BLACK
6
CONTINUOUS
10
234.976
20
-144.764
11
235.119
21
-144.478
0
LINE
8
BLACK
6
CONTINUOUS
10
235.119
20
-144.478
11
235.405
21
-144.335
0
LINE
8
BLACK
6
CONTINUOUS
10
235.405
20
-144.335
11
235.976
21
-144.335
0
LINE
8
BLACK
6
CONTINUOUS
10
235.976
20
-144.335
11
236.262
21
-144.478
0
LINE
8
BLACK
6
CONTINUOUS
10
236.262
20
-144.478
11
236.405
21
-144.764
0
LINE
8
BLACK
6
CONTINUOUS
10
236.405
20
-144.764
11
236.405
21
-145.049
0
LINE
8
BLACK
6
CONTINUOUS
10
236.405
20
-145.049
11
234.976
21
-145.335
0
LINE
8
BLACK
6
CONTINUOUS
10
237.548
20
-146.192
11
237.833
21
-146.335
0
LINE
8
BLACK
6
CONTINUOUS
10
237.833
20
-146.335
11
238.405
21
-146.335
0
LINE
8
BLACK
6
CONTINUOUS
10
238.405
20
-146.335
11
238.691
21
-146.192
0
LINE
8
BLACK
6
CONTINUOUS
10
238.691
20
-146.192
11
238.833
21
-145.907
0
LINE
8
BLACK
6
CONTINUOUS
10
238.833
20
-145.907
11
238.833
21
-145.764
0
LINE
8
BLACK
6
CONTINUOUS
10
238.833
20
-145.764
11
238.691
21
-145.478
0
LINE
8
BLACK
6
CONTINUOUS
10
238.691
20
-145.478
11
238.405
21
-145.335
0
LINE
8
BLACK
6
CONTINUOUS
10
238.405
20
-145.335
11
237.976
21
-145.335
0
LINE
8
BLACK
6
CONTINUOUS
10
237.976
20
-145.335
11
237.691
21
-145.192
0
LINE
8
BLACK
6
CONTINUOUS
10
237.691
20
-145.192
11
237.548
21
-144.907
0
LINE
8
BLACK
6
CONTINUOUS
10
237.548
20
-144.907
11
237.548
21
-144.764
0
LINE
8
BLACK
6
CONTINUOUS
10
237.548
20
-144.764
11
237.691
21
-144.478
0
LINE
8
BLACK
6
CONTINUOUS
10
237.691
20
-144.478
11
237.976
21
-144.335
0
LINE
8
BLACK
6
CONTINUOUS
10
237.976
20
-144.335
11
238.405
21
-144.335
0
LINE
8
BLACK
6
CONTINUOUS
10
238.405
20
-144.335
11
238.691
21
-144.478
0
LINE
8
BLACK
6
CONTINUOUS
10
239.833
20
-147.478
11
239.976
21
-147.335
0
LINE
8
BLACK
6
CONTINUOUS
10
239.976
20
-147.335
11
240.262
21
-146.907
0
LINE
8
BLACK
6
CONTINUOUS
10
240.262
20
-146.907
11
240.405
21
-146.621
0
LINE
8
BLACK
6
CONTINUOUS
10
240.405
20
-146.621
11
240.548
21
-146.192
0
LINE
8
BLACK
6
CONTINUOUS
10
240.548
20
-146.192
11
240.691
21
-145.478
0
LINE
8
BLACK
6
CONTINUOUS
10
240.691
20
-145.478
11
240.691
21
-144.907
0
LINE
8
BLACK
6
CONTINUOUS
10
240.691
20
-144.907
11
240.548
21
-144.192
0
LINE
8
BLACK
6
CONTINUOUS
10
240.548
20
-144.192
11
240.405
21
-143.764
0
LINE
8
BLACK
6
CONTINUOUS
10
240.405
20
-143.764
11
240.262
21
-143.478
0
LINE
8
BLACK
6
CONTINUOUS
10
240.262
20
-143.478
11
239.976
21
-143.049
0
LINE
8
BLACK
6
CONTINUOUS
10
239.976
20
-143.049
11
239.833
21
-142.907
0
LINE
8
BLACK
6
CONTINUOUS
10
245.262
20
-147.478
11
245.119
21
-147.335
0
LINE
8
BLACK
6
CONTINUOUS
10
245.119
20
-147.335
11
244.833
21
-146.907
0
LINE
8
BLACK
6
CONTINUOUS
10
244.833
20
-146.907
11
244.691
21
-146.621
0
LINE
8
BLACK
6
CONTINUOUS
10
244.691
20
-146.621
11
244.548
21
-146.192
0
LINE
8
BLACK
6
CONTINUOUS
10
244.548
20
-146.192
11
244.405
21
-145.478
0
LINE
8
BLACK
6
CONTINUOUS
10
244.405
20
-145.478
11
244.405
21
-144.907
0
LINE
8
BLACK
6
CONTINUOUS
10
244.405
20
-144.907
11
244.548
21
-144.192
0
LINE
8
BLACK
6
CONTINUOUS
10
244.548
20
-144.192
11
244.691
21
-143.764
0
LINE
8
BLACK
6
CONTINUOUS
10
244.691
20
-143.764
11
244.833
21
-143.478
0
LINE
8
BLACK
6
CONTINUOUS
10
244.833
20
-143.478
11
245.119
21
-143.049
0
LINE
8
BLACK
6
CONTINUOUS
10
245.119
20
-143.049
11
245.262
21
-142.907
0
LINE
8
BLACK
6
CONTINUOUS
10
246.405
20
-144.335
11
246.405
21
-146.335
0
LINE
8
BLACK
6
CONTINUOUS
10
246.405
20
-144.621
11
246.548
21
-144.478
0
LINE
8
BLACK
6
CONTINUOUS
10
246.548
20
-144.478
11
246.833
21
-144.335
0
LINE
8
BLACK
6
CONTINUOUS
10
246.833
20
-144.335
11
247.262
21
-144.335
0
LINE
8
BLACK
6
CONTINUOUS
10
247.262
20
-144.335
11
247.548
21
-144.478
0
LINE
8
BLACK
6
CONTINUOUS
10
247.548
20
-144.478
11
247.691
21
-144.764
0
LINE
8
BLACK
6
CONTINUOUS
10
247.691
20
-144.764
11
247.691
21
-146.335
0
LINE
8
BLACK
6
CONTINUOUS
10
249.548
20
-146.335
11
249.262
21
-146.192
0
LINE
8
BLACK
6
CONTINUOUS
10
249.262
20
-146.192
11
249.119
21
-146.049
0
LINE
8
BLACK
6
CONTINUOUS
10
249.119
20
-146.049
11
248.976
21
-145.764
0
LINE
8
BLACK
6
CONTINUOUS
10
248.976
20
-145.764
11
248.976
21
-144.907
0
LINE
8
BLACK
6
CONTINUOUS
10
248.976
20
-144.907
11
249.119
21
-144.621
0
LINE
8
BLACK
6
CONTINUOUS
10
249.119
20
-144.621
11
249.262
21
-144.478
0
LINE
8
BLACK
6
CONTINUOUS
10
249.262
20
-144.478
11
249.548
21
-144.335
0
LINE
8
BLACK
6
CONTINUOUS
10
249.548
20
-144.335
11
249.976
21
-144.335
0
LINE
8
BLACK
6
CONTINUOUS
10
249.976
20
-144.335
11
250.262
21
-144.478
0
LINE
8
BLACK
6
CONTINUOUS
10
250.262
20
-144.478
11
250.405
21
-144.621
0
LINE
8
BLACK
6
CONTINUOUS
10
250.405
20
-144.621
11
250.548
21
-144.907
0
LINE
8
BLACK
6
CONTINUOUS
10
250.548
20
-144.907
11
250.548
21
-145.764
0
LINE
8
BLACK
6
CONTINUOUS
10
250.548
20
-145.764
11
250.405
21
-146.049
0
LINE
8
BLACK
6
CONTINUOUS
10
250.405
20
-146.049
11
250.262
21
-146.192
0
LINE
8
BLACK
6
CONTINUOUS
10
250.262
20
-146.192
11
249.976
21
-146.335
0
LINE
8
BLACK
6
CONTINUOUS
10
249.976
20
-146.335
11
249.548
21
-146.335
0
LINE
8
BLACK
6
CONTINUOUS
10
251.405
20
-144.335
11
252.548
21
-144.335
0
LINE
8
BLACK
6
CONTINUOUS
10
251.833
20
-143.335
11
251.833
21
-145.907
0
LINE
8
BLACK
6
CONTINUOUS
10
251.833
20
-145.907
11
251.976
21
-146.192
0
LINE
8
BLACK
6
CONTINUOUS
10
251.976
20
-146.192
11
252.262
21
-146.335
0
LINE
8
BLACK
6
CONTINUOUS
10
252.262
20
-146.335
11
252.548
21
-146.335
0
LINE
8
BLACK
6
CONTINUOUS
10
255.833
20
-144.335
11
255.833
21
-147.335
0
LINE
8
BLACK
6
CONTINUOUS
10
255.833
20
-144.478
11
256.119
21
-144.335
0
LINE
8
BLACK
6
CONTINUOUS
10
256.119
20
-144.335
11
256.691
21
-144.335
0
LINE
8
BLACK
6
CONTINUOUS
10
256.691
20
-144.335
11
256.976
21
-144.478
0
LINE
8
BLACK
6
CONTINUOUS
10
256.976
20
-144.478
11
257.119
21
-144.621
0
LINE
8
BLACK
6
CONTINUOUS
10
257.119
20
-144.621
11
257.262
21
-144.907
0
LINE
8
BLACK
6
CONTINUOUS
10
257.262
20
-144.907
11
257.262
21
-145.764
0
LINE
8
BLACK
6
CONTINUOUS
10
257.262
20
-145.764
11
257.119
21
-146.049
0
LINE
8
BLACK
6
CONTINUOUS
10
257.119
20
-146.049
11
256.976
21
-146.192
0
LINE
8
BLACK
6
CONTINUOUS
10
256.976
20
-146.192
11
256.691
21
-146.335
0
LINE
8
BLACK
6
CONTINUOUS
10
256.691
20
-146.335
11
256.119
21
-146.335
0
LINE
8
BLACK
6
CONTINUOUS
10
256.119
20
-146.335
11
255.833
21
-146.192
0
LINE
8
BLACK
6
CONTINUOUS
10
258.976
20
-146.335
11
258.691
21
-146.192
0
LINE
8
BLACK
6
CONTINUOUS
10
258.691
20
-146.192
11
258.548
21
-145.907
0
LINE
8
BLACK
6
CONTINUOUS
10
258.548
20
-145.907
11
258.548
21
-143.335
0
LINE
8
BLACK
6
CONTINUOUS
10
261.405
20
-146.335
11
261.405
21
-144.764
0
LINE
8
BLACK
6
CONTINUOUS
10
261.405
20
-144.764
11
261.262
21
-144.478
0
LINE
8
BLACK
6
CONTINUOUS
10
261.262
20
-144.478
11
260.976
21
-144.335
0
LINE
8
BLACK
6
CONTINUOUS
10
260.976
20
-144.335
11
260.405
21
-144.335
0
LINE
8
BLACK
6
CONTINUOUS
10
260.405
20
-144.335
11
260.119
21
-144.478
0
LINE
8
BLACK
6
CONTINUOUS
10
261.405
20
-146.192
11
261.119
21
-146.335
0
LINE
8
BLACK
6
CONTINUOUS
10
261.119
20
-146.335
11
260.405
21
-146.335
0
LINE
8
BLACK
6
CONTINUOUS
10
260.405
20
-146.335
11
260.119
21
-146.192
0
LINE
8
BLACK
6
CONTINUOUS
10
260.119
20
-146.192
11
259.976
21
-145.907
0
LINE
8
BLACK
6
CONTINUOUS
10
259.976
20
-145.907
11
259.976
21
-145.621
0
LINE
8
BLACK
6
CONTINUOUS
10
259.976
20
-145.621
11
260.119
21
-145.335
0
LINE
8
BLACK
6
CONTINUOUS
10
260.119
20
-145.335
11
260.405
21
-145.192
0
LINE
8
BLACK
6
CONTINUOUS
10
260.405
20
-145.192
11
261.119
21
-145.192
0
LINE
8
BLACK
6
CONTINUOUS
10
261.119
20
-145.192
11
261.405
21
-145.049
0
LINE
8
BLACK
6
CONTINUOUS
10
262.405
20
-144.335
11
263.548
21
-144.335
0
LINE
8
BLACK
6
CONTINUOUS
10
262.833
20
-143.335
11
262.833
21
-145.907
0
LINE
8
BLACK
6
CONTINUOUS
10
262.833
20
-145.907
11
262.976
21
-146.192
0
LINE
8
BLACK
6
CONTINUOUS
10
262.976
20
-146.192
11
263.262
21
-146.335
0
LINE
8
BLACK
6
CONTINUOUS
10
263.262
20
-146.335
11
263.548
21
-146.335
0
LINE
8
BLACK
6
CONTINUOUS
10
265.691
20
-146.192
11
265.405
21
-146.335
0
LINE
8
BLACK
6
CONTINUOUS
10
265.405
20
-146.335
11
264.833
21
-146.335
0
LINE
8
BLACK
6
CONTINUOUS
10
264.833
20
-146.335
11
264.548
21
-146.192
0
LINE
8
BLACK
6
CONTINUOUS
10
264.548
20
-146.192
11
264.405
21
-145.907
0
LINE
8
BLACK
6
CONTINUOUS
10
264.405
20
-145.907
11
264.405
21
-144.764
0
LINE
8
BLACK
6
CONTINUOUS
10
264.405
20
-144.764
11
264.548
21
-144.478
0
LINE
8
BLACK
6
CONTINUOUS
10
264.548
20
-144.478
11
264.833
21
-144.335
0
LINE
8
BLACK
6
CONTINUOUS
10
264.833
20
-144.335
11
265.405
21
-144.335
0
LINE
8
BLACK
6
CONTINUOUS
10
265.405
20
-144.335
11
265.691
21
-144.478
0
LINE
8
BLACK
6
CONTINUOUS
10
265.691
20
-144.478
11
265.833
21
-144.764
0
LINE
8
BLACK
6
CONTINUOUS
10
265.833
20
-144.764
11
265.833
21
-145.049
0
LINE
8
BLACK
6
CONTINUOUS
10
265.833
20
-145.049
11
264.405
21
-145.335
0
LINE
8
BLACK
6
CONTINUOUS
10
268.405
20
-146.335
11
268.405
21
-143.335
0
LINE
8
BLACK
6
CONTINUOUS
10
268.405
20
-146.192
11
268.119
21
-146.335
0
LINE
8
BLACK
6
CONTINUOUS
10
268.119
20
-146.335
11
267.548
21
-146.335
0
LINE
8
BLACK
6
CONTINUOUS
10
267.548
20
-146.335
11
267.262
21
-146.192
0
LINE
8
BLACK
6
CONTINUOUS
10
267.262
20
-146.192
11
267.119
21
-146.049
0
LINE
8
BLACK
6
CONTINUOUS
10
267.119
20
-146.049
11
266.976
21
-145.764
0
LINE
8
BLACK
6
CONTINUOUS
10
266.976
20
-145.764
11
266.976
21
-144.907
0
LINE
8
BLACK
6
CONTINUOUS
10
266.976
20
-144.907
11
267.119
21
-144.621
0
LINE
8
BLACK
6
CONTINUOUS
10
267.119
20
-144.621
11
267.262
21
-144.478
0
LINE
8
BLACK
6
CONTINUOUS
10
267.262
20
-144.478
11
267.548
21
-144.335
0
LINE
8
BLACK
6
CONTINUOUS
10
267.548
20
-144.335
11
268.119
21
-144.335
0
LINE
8
BLACK
6
CONTINUOUS
10
268.119
20
-144.335
11
268.405
21
-144.478
0
LINE
8
BLACK
6
CONTINUOUS
10
269.548
20
-147.478
11
269.691
21
-147.335
0
LINE
8
BLACK
6
CONTINUOUS
10
269.691
20
-147.335
11
269.976
21
-146.907
0
LINE
8
BLACK
6
CONTINUOUS
10
269.976
20
-146.907
11
270.119
21
-146.621
0
LINE
8
BLACK
6
CONTINUOUS
10
270.119
20
-146.621
11
270.262
21
-146.192
0
LINE
8
BLACK
6
CONTINUOUS
10
270.262
20
-146.192
11
270.405
21
-145.478
0
LINE
8
BLACK
6
CONTINUOUS
10
270.405
20
-145.478
11
270.405
21
-144.907
0
LINE
8
BLACK
6
CONTINUOUS
10
270.405
20
-144.907
11
270.262
21
-144.192
0
LINE
8
BLACK
6
CONTINUOUS
10
270.262
20
-144.192
11
270.119
21
-143.764
0
LINE
8
BLACK
6
CONTINUOUS
10
270.119
20
-143.764
11
269.976
21
-143.478
0
LINE
8
BLACK
6
CONTINUOUS
10
269.976
20
-143.478
11
269.691
21
-143.049
0
LINE
8
BLACK
6
CONTINUOUS
10
269.691
20
-143.049
11
269.548
21
-142.907
  0
ENDSEC
  0
EOF
