M48
;DRILL file {KiCad 5.0.1-33cea8e~68~ubuntu18.04.1} date dim. 20 janv. 2019 22:24:59 CET
;FORMAT={-:-/ absolute / metric / decimal}
FMAT,2
METRIC,TZ
T1C0.500
T2C0.800
T3C1.500
%
G90
G05
M71
T1
X223.028Y-129.032
X224.028Y-129.032
X225.028Y-129.032
X226.028Y-129.032
X227.028Y-129.032
X228.028Y-129.032
T2
X199.39Y-111.252
X199.39Y-126.492
X201.93Y-111.252
X201.93Y-126.492
X204.47Y-111.252
X204.47Y-126.492
X207.01Y-111.252
X207.01Y-126.492
X209.55Y-111.252
X209.55Y-126.492
X212.09Y-111.252
X212.09Y-126.492
X214.63Y-111.252
X214.63Y-126.492
X217.17Y-111.252
X217.17Y-126.492
X219.71Y-111.252
X219.71Y-126.492
X222.25Y-111.252
X222.25Y-126.492
X224.79Y-111.252
X224.79Y-126.492
X227.33Y-111.252
X227.33Y-126.492
X229.87Y-111.252
X229.87Y-126.492
X232.41Y-111.252
X232.41Y-126.492
X234.95Y-111.252
X234.95Y-126.492
T3
X213.614Y-75.438
X219.964Y-72.898
X194.564Y-58.928
X200.914Y-56.388
X232.664Y-58.928
X239.014Y-56.388
X213.614Y-56.388
X219.964Y-53.848
X175.514Y-80.518
X181.864Y-77.978
X232.664Y-97.028
X239.014Y-94.488
X251.714Y-99.568
X258.064Y-97.028
X175.514Y-61.468
X181.864Y-58.928
X251.714Y-80.518
X258.064Y-77.978
X213.614Y-94.488
X219.964Y-91.948
X194.564Y-97.028
X200.914Y-94.488
X194.564Y-77.978
X200.914Y-75.438
X251.714Y-61.468
X258.064Y-58.928
X175.514Y-99.568
X181.864Y-97.028
X232.664Y-77.978
X239.014Y-75.438
T0
M30
