  0
SECTION
  2
HEADER
  9
$ANGBASE
  50
0.0
  9
$ANGDIR
  70
  1
  9
$MEASUREMENT
  70
0
  0
ENDSEC
  0
SECTION
  2
TABLES
  0
TABLE
  2
LTYPE
  70
4
  0
LTYPE
  5
40F
  2
CONTINUOUS
  70
0
  3
Solid line
  72
65
  73
0
  40
0.0
  0
LTYPE
  5
410
  2
DASHDOT
 70
0
  3
Dash Dot ____ _ ____ _
 72
65
 73
4
 40
2.0
 49
1.25
 49
-0.25
 49
0.25
 49
-0.25
  0
LTYPE
  5
411
  2
DASHED
 70
0
  3
Dashed __ __ __ __ __
 72
65
 73
2
 40
0.75
 49
0.5
 49
-0.25
  0
LTYPE
  5
43B
  2
DOTTED
 70
0
  3
Dotted .  .  .  .
 72
65
 73
2
 40
0.2
 49
0.0
 49
-0.2
  0
ENDTAB
  0
TABLE
  2
STYLE
  70
4
  0
STYLE
  2
KICAD
  70
0
  40
0
  41
1
  42
1
  50
0
  71
0
  3
isocp.shx
  0
STYLE
  2
KICADB
  70
0
  40
0
  41
1
  42
1
  50
0
  71
0
  3
isocp.shx
  0
STYLE
  2
KICADI
  70
0
  40
0
  41
1
  42
1
  50
15
  71
0
  3
isocp.shx
  0
STYLE
  2
KICADBI
  70
0
  40
0
  41
1
  42
1
  50
15
  71
0
  3
isocp.shx
  0
ENDTAB
  0
TABLE
  2
LAYER
  70
30
  0
LAYER
  2
BLACK
  70
0
  62
7
  6
CONTINUOUS
  0
LAYER
  2
GRAY1
  70
0
  62
251
  6
CONTINUOUS
  0
LAYER
  2
GRAY2
  70
0
  62
8
  6
CONTINUOUS
  0
LAYER
  2
GRAY3
  70
0
  62
9
  6
CONTINUOUS
  0
LAYER
  2
WHITE
  70
0
  62
7
  6
CONTINUOUS
  0
LAYER
  2
LYELLOW
  70
0
  62
51
  6
CONTINUOUS
  0
LAYER
  2
BLUE1
  70
0
  62
178
  6
CONTINUOUS
  0
LAYER
  2
GREEN1
  70
0
  62
98
  6
CONTINUOUS
  0
LAYER
  2
CYAN1
  70
0
  62
138
  6
CONTINUOUS
  0
LAYER
  2
RED1
  70
0
  62
18
  6
CONTINUOUS
  0
LAYER
  2
MAGENTA1
  70
0
  62
228
  6
CONTINUOUS
  0
LAYER
  2
BROWN1
  70
0
  62
58
  6
CONTINUOUS
  0
LAYER
  2
BLUE2
  70
0
  62
5
  6
CONTINUOUS
  0
LAYER
  2
GREEN2
  70
0
  62
3
  6
CONTINUOUS
  0
LAYER
  2
CYAN2
  70
0
  62
4
  6
CONTINUOUS
  0
LAYER
  2
RED2
  70
0
  62
1
  6
CONTINUOUS
  0
LAYER
  2
MAGENTA2
  70
0
  62
6
  6
CONTINUOUS
  0
LAYER
  2
BROWN2
  70
0
  62
54
  6
CONTINUOUS
  0
LAYER
  2
BLUE3
  70
0
  62
171
  6
CONTINUOUS
  0
LAYER
  2
GREEN3
  70
0
  62
91
  6
CONTINUOUS
  0
LAYER
  2
CYAN3
  70
0
  62
131
  6
CONTINUOUS
  0
LAYER
  2
RED3
  70
0
  62
11
  6
CONTINUOUS
  0
LAYER
  2
MAGENTA3
  70
0
  62
221
  6
CONTINUOUS
  0
LAYER
  2
YELLOW3
  70
0
  62
2
  6
CONTINUOUS
  0
LAYER
  2
BLUE4
  70
0
  62
5
  6
CONTINUOUS
  0
LAYER
  2
GREEN4
  70
0
  62
3
  6
CONTINUOUS
  0
LAYER
  2
CYAN4
  70
0
  62
4
  6
CONTINUOUS
  0
LAYER
  2
RED4
  70
0
  62
1
  6
CONTINUOUS
  0
LAYER
  2
MAGENTA4
  70
0
  62
6
  6
CONTINUOUS
  0
LAYER
  2
YELLOW4
  70
0
  62
2
  6
CONTINUOUS
  0
ENDTAB
  0
ENDSEC
  0
SECTION
  2
ENTITIES
0
LINE
8
BLACK
6
CONTINUOUS
10
172.212
20
-109.22
11
172.212
21
-56.896
0
LINE
8
BLACK
6
CONTINUOUS
10
193.04
20
-109.22
11
172.212
21
-109.22
0
LINE
8
BLACK
6
CONTINUOUS
10
193.04
20
-128.27
11
193.04
21
-109.22
0
LINE
8
BLACK
6
CONTINUOUS
10
220.98
20
-128.27
11
193.04
21
-128.27
0
LINE
8
BLACK
6
CONTINUOUS
10
220.98
20
-131.318
11
220.98
21
-128.27
0
LINE
8
BLACK
6
CONTINUOUS
10
229.362
20
-131.318
11
220.98
21
-131.318
0
LINE
8
BLACK
6
CONTINUOUS
10
229.362
20
-128.016
11
229.362
21
-131.318
0
LINE
8
BLACK
6
CONTINUOUS
10
239.014
20
-128.016
11
229.362
21
-128.016
0
LINE
8
BLACK
6
CONTINUOUS
10
239.014
20
-109.22
11
239.014
21
-128.016
0
LINE
8
BLACK
6
CONTINUOUS
10
262.636
20
-109.22
11
239.014
21
-109.22
0
LINE
8
BLACK
6
CONTINUOUS
10
262.636
20
-56.896
11
262.636
21
-109.22
0
LINE
8
BLACK
6
CONTINUOUS
10
243.586
20
-56.896
11
262.636
21
-56.896
0
LINE
8
BLACK
6
CONTINUOUS
10
243.586
20
-54.356
11
243.586
21
-56.896
0
LINE
8
BLACK
6
CONTINUOUS
10
224.536
20
-54.356
11
243.586
21
-54.356
0
LINE
8
BLACK
6
CONTINUOUS
10
224.536
20
-51.816
11
224.536
21
-54.356
0
LINE
8
BLACK
6
CONTINUOUS
10
210.312
20
-51.816
11
224.536
21
-51.816
0
LINE
8
BLACK
6
CONTINUOUS
10
210.312
20
-54.356
11
210.312
21
-51.816
0
LINE
8
BLACK
6
CONTINUOUS
10
191.262
20
-54.356
11
210.312
21
-54.356
0
LINE
8
BLACK
6
CONTINUOUS
10
191.262
20
-56.896
11
191.262
21
-54.356
0
LINE
8
BLACK
6
CONTINUOUS
10
172.212
20
-56.896
11
191.262
21
-56.896
0
LINE
8
BLACK
6
CONTINUOUS
10
222.778
20
-128.782
11
223.278
21
-129.282
0
LINE
8
BLACK
6
CONTINUOUS
10
223.278
20
-128.782
11
222.778
21
-129.282
0
LINE
8
BLACK
6
CONTINUOUS
10
223.778
20
-128.782
11
224.278
21
-129.282
0
LINE
8
BLACK
6
CONTINUOUS
10
224.278
20
-128.782
11
223.778
21
-129.282
0
LINE
8
BLACK
6
CONTINUOUS
10
224.778
20
-128.782
11
225.278
21
-129.282
0
LINE
8
BLACK
6
CONTINUOUS
10
225.278
20
-128.782
11
224.778
21
-129.282
0
LINE
8
BLACK
6
CONTINUOUS
10
225.778
20
-128.782
11
226.278
21
-129.282
0
LINE
8
BLACK
6
CONTINUOUS
10
226.278
20
-128.782
11
225.778
21
-129.282
0
LINE
8
BLACK
6
CONTINUOUS
10
226.778
20
-128.782
11
227.278
21
-129.282
0
LINE
8
BLACK
6
CONTINUOUS
10
227.278
20
-128.782
11
226.778
21
-129.282
0
LINE
8
BLACK
6
CONTINUOUS
10
227.778
20
-128.782
11
228.278
21
-129.282
0
LINE
8
BLACK
6
CONTINUOUS
10
228.278
20
-128.782
11
227.778
21
-129.282
0
CIRCLE
8
BLACK
10
199.39
20
-111.252
40
0.4
0
CIRCLE
8
BLACK
10
199.39
20
-126.492
40
0.4
0
CIRCLE
8
BLACK
10
201.93
20
-111.252
40
0.4
0
CIRCLE
8
BLACK
10
201.93
20
-126.492
40
0.4
0
CIRCLE
8
BLACK
10
204.47
20
-111.252
40
0.4
0
CIRCLE
8
BLACK
10
204.47
20
-126.492
40
0.4
0
CIRCLE
8
BLACK
10
207.01
20
-111.252
40
0.4
0
CIRCLE
8
BLACK
10
207.01
20
-126.492
40
0.4
0
CIRCLE
8
BLACK
10
209.55
20
-111.252
40
0.4
0
CIRCLE
8
BLACK
10
209.55
20
-126.492
40
0.4
0
CIRCLE
8
BLACK
10
212.09
20
-111.252
40
0.4
0
CIRCLE
8
BLACK
10
212.09
20
-126.492
40
0.4
0
CIRCLE
8
BLACK
10
214.63
20
-111.252
40
0.4
0
CIRCLE
8
BLACK
10
214.63
20
-126.492
40
0.4
0
CIRCLE
8
BLACK
10
217.17
20
-111.252
40
0.4
0
CIRCLE
8
BLACK
10
217.17
20
-126.492
40
0.4
0
CIRCLE
8
BLACK
10
219.71
20
-111.252
40
0.4
0
CIRCLE
8
BLACK
10
219.71
20
-126.492
40
0.4
0
CIRCLE
8
BLACK
10
222.25
20
-111.252
40
0.4
0
CIRCLE
8
BLACK
10
222.25
20
-126.492
40
0.4
0
CIRCLE
8
BLACK
10
224.79
20
-111.252
40
0.4
0
CIRCLE
8
BLACK
10
224.79
20
-126.492
40
0.4
0
CIRCLE
8
BLACK
10
227.33
20
-111.252
40
0.4
0
CIRCLE
8
BLACK
10
227.33
20
-126.492
40
0.4
0
CIRCLE
8
BLACK
10
229.87
20
-111.252
40
0.4
0
CIRCLE
8
BLACK
10
229.87
20
-126.492
40
0.4
0
CIRCLE
8
BLACK
10
232.41
20
-111.252
40
0.4
0
CIRCLE
8
BLACK
10
232.41
20
-126.492
40
0.4
0
CIRCLE
8
BLACK
10
234.95
20
-111.252
40
0.4
0
CIRCLE
8
BLACK
10
234.95
20
-126.492
40
0.4
0
LINE
8
BLACK
6
CONTINUOUS
10
213.614
20
-74.688
11
213.614
21
-76.188
0
LINE
8
BLACK
6
CONTINUOUS
10
212.864
20
-75.438
11
214.364
21
-75.438
0
LINE
8
BLACK
6
CONTINUOUS
10
219.964
20
-72.148
11
219.964
21
-73.648
0
LINE
8
BLACK
6
CONTINUOUS
10
219.214
20
-72.898
11
220.714
21
-72.898
0
LINE
8
BLACK
6
CONTINUOUS
10
194.564
20
-58.178
11
194.564
21
-59.678
0
LINE
8
BLACK
6
CONTINUOUS
10
193.814
20
-58.928
11
195.314
21
-58.928
0
LINE
8
BLACK
6
CONTINUOUS
10
200.914
20
-55.638
11
200.914
21
-57.138
0
LINE
8
BLACK
6
CONTINUOUS
10
200.164
20
-56.388
11
201.664
21
-56.388
0
LINE
8
BLACK
6
CONTINUOUS
10
232.664
20
-58.178
11
232.664
21
-59.678
0
LINE
8
BLACK
6
CONTINUOUS
10
231.914
20
-58.928
11
233.414
21
-58.928
0
LINE
8
BLACK
6
CONTINUOUS
10
239.014
20
-55.638
11
239.014
21
-57.138
0
LINE
8
BLACK
6
CONTINUOUS
10
238.264
20
-56.388
11
239.764
21
-56.388
0
LINE
8
BLACK
6
CONTINUOUS
10
213.614
20
-55.638
11
213.614
21
-57.138
0
LINE
8
BLACK
6
CONTINUOUS
10
212.864
20
-56.388
11
214.364
21
-56.388
0
LINE
8
BLACK
6
CONTINUOUS
10
219.964
20
-53.098
11
219.964
21
-54.598
0
LINE
8
BLACK
6
CONTINUOUS
10
219.214
20
-53.848
11
220.714
21
-53.848
0
LINE
8
BLACK
6
CONTINUOUS
10
175.514
20
-79.768
11
175.514
21
-81.268
0
LINE
8
BLACK
6
CONTINUOUS
10
174.764
20
-80.518
11
176.264
21
-80.518
0
LINE
8
BLACK
6
CONTINUOUS
10
181.864
20
-77.228
11
181.864
21
-78.728
0
LINE
8
BLACK
6
CONTINUOUS
10
181.114
20
-77.978
11
182.614
21
-77.978
0
LINE
8
BLACK
6
CONTINUOUS
10
232.664
20
-96.278
11
232.664
21
-97.778
0
LINE
8
BLACK
6
CONTINUOUS
10
231.914
20
-97.028
11
233.414
21
-97.028
0
LINE
8
BLACK
6
CONTINUOUS
10
239.014
20
-93.738
11
239.014
21
-95.238
0
LINE
8
BLACK
6
CONTINUOUS
10
238.264
20
-94.488
11
239.764
21
-94.488
0
LINE
8
BLACK
6
CONTINUOUS
10
251.714
20
-98.818
11
251.714
21
-100.318
0
LINE
8
BLACK
6
CONTINUOUS
10
250.964
20
-99.568
11
252.464
21
-99.568
0
LINE
8
BLACK
6
CONTINUOUS
10
258.064
20
-96.278
11
258.064
21
-97.778
0
LINE
8
BLACK
6
CONTINUOUS
10
257.314
20
-97.028
11
258.814
21
-97.028
0
LINE
8
BLACK
6
CONTINUOUS
10
175.514
20
-60.718
11
175.514
21
-62.218
0
LINE
8
BLACK
6
CONTINUOUS
10
174.764
20
-61.468
11
176.264
21
-61.468
0
LINE
8
BLACK
6
CONTINUOUS
10
181.864
20
-58.178
11
181.864
21
-59.678
0
LINE
8
BLACK
6
CONTINUOUS
10
181.114
20
-58.928
11
182.614
21
-58.928
0
LINE
8
BLACK
6
CONTINUOUS
10
251.714
20
-79.768
11
251.714
21
-81.268
0
LINE
8
BLACK
6
CONTINUOUS
10
250.964
20
-80.518
11
252.464
21
-80.518
0
LINE
8
BLACK
6
CONTINUOUS
10
258.064
20
-77.228
11
258.064
21
-78.728
0
LINE
8
BLACK
6
CONTINUOUS
10
257.314
20
-77.978
11
258.814
21
-77.978
0
LINE
8
BLACK
6
CONTINUOUS
10
213.614
20
-93.738
11
213.614
21
-95.238
0
LINE
8
BLACK
6
CONTINUOUS
10
212.864
20
-94.488
11
214.364
21
-94.488
0
LINE
8
BLACK
6
CONTINUOUS
10
219.964
20
-91.198
11
219.964
21
-92.698
0
LINE
8
BLACK
6
CONTINUOUS
10
219.214
20
-91.948
11
220.714
21
-91.948
0
LINE
8
BLACK
6
CONTINUOUS
10
194.564
20
-96.278
11
194.564
21
-97.778
0
LINE
8
BLACK
6
CONTINUOUS
10
193.814
20
-97.028
11
195.314
21
-97.028
0
LINE
8
BLACK
6
CONTINUOUS
10
200.914
20
-93.738
11
200.914
21
-95.238
0
LINE
8
BLACK
6
CONTINUOUS
10
200.164
20
-94.488
11
201.664
21
-94.488
0
LINE
8
BLACK
6
CONTINUOUS
10
194.564
20
-77.228
11
194.564
21
-78.728
0
LINE
8
BLACK
6
CONTINUOUS
10
193.814
20
-77.978
11
195.314
21
-77.978
0
LINE
8
BLACK
6
CONTINUOUS
10
200.914
20
-74.688
11
200.914
21
-76.188
0
LINE
8
BLACK
6
CONTINUOUS
10
200.164
20
-75.438
11
201.664
21
-75.438
0
LINE
8
BLACK
6
CONTINUOUS
10
251.714
20
-60.718
11
251.714
21
-62.218
0
LINE
8
BLACK
6
CONTINUOUS
10
250.964
20
-61.468
11
252.464
21
-61.468
0
LINE
8
BLACK
6
CONTINUOUS
10
258.064
20
-58.178
11
258.064
21
-59.678
0
LINE
8
BLACK
6
CONTINUOUS
10
257.314
20
-58.928
11
258.814
21
-58.928
0
LINE
8
BLACK
6
CONTINUOUS
10
175.514
20
-98.818
11
175.514
21
-100.318
0
LINE
8
BLACK
6
CONTINUOUS
10
174.764
20
-99.568
11
176.264
21
-99.568
0
LINE
8
BLACK
6
CONTINUOUS
10
181.864
20
-96.278
11
181.864
21
-97.778
0
LINE
8
BLACK
6
CONTINUOUS
10
181.114
20
-97.028
11
182.614
21
-97.028
0
LINE
8
BLACK
6
CONTINUOUS
10
232.664
20
-77.228
11
232.664
21
-78.728
0
LINE
8
BLACK
6
CONTINUOUS
10
231.914
20
-77.978
11
233.414
21
-77.978
0
LINE
8
BLACK
6
CONTINUOUS
10
239.014
20
-74.688
11
239.014
21
-76.188
0
LINE
8
BLACK
6
CONTINUOUS
10
238.264
20
-75.438
11
239.764
21
-75.438
0
LINE
8
BLACK
6
CONTINUOUS
10
174.976
20
-136.075
11
174.976
21
-133.075
0
LINE
8
BLACK
6
CONTINUOUS
10
174.976
20
-133.075
11
175.691
21
-133.075
0
LINE
8
BLACK
6
CONTINUOUS
10
175.691
20
-133.075
11
176.119
21
-133.218
0
LINE
8
BLACK
6
CONTINUOUS
10
176.119
20
-133.218
11
176.405
21
-133.504
0
LINE
8
BLACK
6
CONTINUOUS
10
176.405
20
-133.504
11
176.548
21
-133.789
0
LINE
8
BLACK
6
CONTINUOUS
10
176.548
20
-133.789
11
176.691
21
-134.361
0
LINE
8
BLACK
6
CONTINUOUS
10
176.691
20
-134.361
11
176.691
21
-134.789
0
LINE
8
BLACK
6
CONTINUOUS
10
176.691
20
-134.789
11
176.548
21
-135.361
0
LINE
8
BLACK
6
CONTINUOUS
10
176.548
20
-135.361
11
176.405
21
-135.647
0
LINE
8
BLACK
6
CONTINUOUS
10
176.405
20
-135.647
11
176.119
21
-135.932
0
LINE
8
BLACK
6
CONTINUOUS
10
176.119
20
-135.932
11
175.691
21
-136.075
0
LINE
8
BLACK
6
CONTINUOUS
10
175.691
20
-136.075
11
174.976
21
-136.075
0
LINE
8
BLACK
6
CONTINUOUS
10
177.976
20
-136.075
11
177.976
21
-134.075
0
LINE
8
BLACK
6
CONTINUOUS
10
177.976
20
-134.647
11
178.119
21
-134.361
0
LINE
8
BLACK
6
CONTINUOUS
10
178.119
20
-134.361
11
178.262
21
-134.218
0
LINE
8
BLACK
6
CONTINUOUS
10
178.262
20
-134.218
11
178.548
21
-134.075
0
LINE
8
BLACK
6
CONTINUOUS
10
178.548
20
-134.075
11
178.833
21
-134.075
0
LINE
8
BLACK
6
CONTINUOUS
10
179.833
20
-136.075
11
179.833
21
-134.075
0
LINE
8
BLACK
6
CONTINUOUS
10
179.833
20
-133.075
11
179.691
21
-133.218
0
LINE
8
BLACK
6
CONTINUOUS
10
179.691
20
-133.218
11
179.833
21
-133.361
0
LINE
8
BLACK
6
CONTINUOUS
10
179.833
20
-133.361
11
179.976
21
-133.218
0
LINE
8
BLACK
6
CONTINUOUS
10
179.976
20
-133.218
11
179.833
21
-133.075
0
LINE
8
BLACK
6
CONTINUOUS
10
179.833
20
-133.075
11
179.833
21
-133.361
0
LINE
8
BLACK
6
CONTINUOUS
10
181.691
20
-136.075
11
181.405
21
-135.932
0
LINE
8
BLACK
6
CONTINUOUS
10
181.405
20
-135.932
11
181.262
21
-135.647
0
LINE
8
BLACK
6
CONTINUOUS
10
181.262
20
-135.647
11
181.262
21
-133.075
0
LINE
8
BLACK
6
CONTINUOUS
10
183.262
20
-136.075
11
182.976
21
-135.932
0
LINE
8
BLACK
6
CONTINUOUS
10
182.976
20
-135.932
11
182.833
21
-135.647
0
LINE
8
BLACK
6
CONTINUOUS
10
182.833
20
-135.647
11
182.833
21
-133.075
0
LINE
8
BLACK
6
CONTINUOUS
10
186.691
20
-136.075
11
186.691
21
-133.075
0
LINE
8
BLACK
6
CONTINUOUS
10
186.691
20
-133.075
11
187.691
21
-135.218
0
LINE
8
BLACK
6
CONTINUOUS
10
187.691
20
-135.218
11
188.691
21
-133.075
0
LINE
8
BLACK
6
CONTINUOUS
10
188.691
20
-133.075
11
188.691
21
-136.075
0
LINE
8
BLACK
6
CONTINUOUS
10
191.405
20
-136.075
11
191.405
21
-134.504
0
LINE
8
BLACK
6
CONTINUOUS
10
191.405
20
-134.504
11
191.262
21
-134.218
0
LINE
8
BLACK
6
CONTINUOUS
10
191.262
20
-134.218
11
190.976
21
-134.075
0
LINE
8
BLACK
6
CONTINUOUS
10
190.976
20
-134.075
11
190.405
21
-134.075
0
LINE
8
BLACK
6
CONTINUOUS
10
190.405
20
-134.075
11
190.119
21
-134.218
0
LINE
8
BLACK
6
CONTINUOUS
10
191.405
20
-135.932
11
191.119
21
-136.075
0
LINE
8
BLACK
6
CONTINUOUS
10
191.119
20
-136.075
11
190.405
21
-136.075
0
LINE
8
BLACK
6
CONTINUOUS
10
190.405
20
-136.075
11
190.119
21
-135.932
0
LINE
8
BLACK
6
CONTINUOUS
10
190.119
20
-135.932
11
189.976
21
-135.647
0
LINE
8
BLACK
6
CONTINUOUS
10
189.976
20
-135.647
11
189.976
21
-135.361
0
LINE
8
BLACK
6
CONTINUOUS
10
189.976
20
-135.361
11
190.119
21
-135.075
0
LINE
8
BLACK
6
CONTINUOUS
10
190.119
20
-135.075
11
190.405
21
-134.932
0
LINE
8
BLACK
6
CONTINUOUS
10
190.405
20
-134.932
11
191.119
21
-134.932
0
LINE
8
BLACK
6
CONTINUOUS
10
191.119
20
-134.932
11
191.405
21
-134.789
0
LINE
8
BLACK
6
CONTINUOUS
10
192.833
20
-134.075
11
192.833
21
-137.075
0
LINE
8
BLACK
6
CONTINUOUS
10
192.833
20
-134.218
11
193.119
21
-134.075
0
LINE
8
BLACK
6
CONTINUOUS
10
193.119
20
-134.075
11
193.691
21
-134.075
0
LINE
8
BLACK
6
CONTINUOUS
10
193.691
20
-134.075
11
193.976
21
-134.218
0
LINE
8
BLACK
6
CONTINUOUS
10
193.976
20
-134.218
11
194.119
21
-134.361
0
LINE
8
BLACK
6
CONTINUOUS
10
194.119
20
-134.361
11
194.262
21
-134.647
0
LINE
8
BLACK
6
CONTINUOUS
10
194.262
20
-134.647
11
194.262
21
-135.504
0
LINE
8
BLACK
6
CONTINUOUS
10
194.262
20
-135.504
11
194.119
21
-135.789
0
LINE
8
BLACK
6
CONTINUOUS
10
194.119
20
-135.789
11
193.976
21
-135.932
0
LINE
8
BLACK
6
CONTINUOUS
10
193.976
20
-135.932
11
193.691
21
-136.075
0
LINE
8
BLACK
6
CONTINUOUS
10
193.691
20
-136.075
11
193.119
21
-136.075
0
LINE
8
BLACK
6
CONTINUOUS
10
193.119
20
-136.075
11
192.833
21
-135.932
0
LINE
8
BLACK
6
CONTINUOUS
10
195.548
20
-135.789
11
195.691
21
-135.932
0
LINE
8
BLACK
6
CONTINUOUS
10
195.691
20
-135.932
11
195.548
21
-136.075
0
LINE
8
BLACK
6
CONTINUOUS
10
195.548
20
-136.075
11
195.405
21
-135.932
0
LINE
8
BLACK
6
CONTINUOUS
10
195.405
20
-135.932
11
195.548
21
-135.789
0
LINE
8
BLACK
6
CONTINUOUS
10
195.548
20
-135.789
11
195.548
21
-136.075
0
LINE
8
BLACK
6
CONTINUOUS
10
195.548
20
-134.218
11
195.691
21
-134.361
0
LINE
8
BLACK
6
CONTINUOUS
10
195.691
20
-134.361
11
195.548
21
-134.504
0
LINE
8
BLACK
6
CONTINUOUS
10
195.548
20
-134.504
11
195.405
21
-134.361
0
LINE
8
BLACK
6
CONTINUOUS
10
195.405
20
-134.361
11
195.548
21
-134.218
0
LINE
8
BLACK
6
CONTINUOUS
10
195.548
20
-134.218
11
195.548
21
-134.504
0
LINE
8
BLACK
6
CONTINUOUS
10
171.612
20
-140.768
11
172.112
21
-141.268
0
LINE
8
BLACK
6
CONTINUOUS
10
172.112
20
-140.768
11
171.612
21
-141.268
0
LINE
8
BLACK
6
CONTINUOUS
10
175.548
20
-139.375
11
175.833
21
-139.375
0
LINE
8
BLACK
6
CONTINUOUS
10
175.833
20
-139.375
11
176.119
21
-139.518
0
LINE
8
BLACK
6
CONTINUOUS
10
176.119
20
-139.518
11
176.262
21
-139.661
0
LINE
8
BLACK
6
CONTINUOUS
10
176.262
20
-139.661
11
176.405
21
-139.947
0
LINE
8
BLACK
6
CONTINUOUS
10
176.405
20
-139.947
11
176.548
21
-140.518
0
LINE
8
BLACK
6
CONTINUOUS
10
176.548
20
-140.518
11
176.548
21
-141.232
0
LINE
8
BLACK
6
CONTINUOUS
10
176.548
20
-141.232
11
176.405
21
-141.804
0
LINE
8
BLACK
6
CONTINUOUS
10
176.405
20
-141.804
11
176.262
21
-142.089
0
LINE
8
BLACK
6
CONTINUOUS
10
176.262
20
-142.089
11
176.119
21
-142.232
0
LINE
8
BLACK
6
CONTINUOUS
10
176.119
20
-142.232
11
175.833
21
-142.375
0
LINE
8
BLACK
6
CONTINUOUS
10
175.833
20
-142.375
11
175.548
21
-142.375
0
LINE
8
BLACK
6
CONTINUOUS
10
175.548
20
-142.375
11
175.262
21
-142.232
0
LINE
8
BLACK
6
CONTINUOUS
10
175.262
20
-142.232
11
175.119
21
-142.089
0
LINE
8
BLACK
6
CONTINUOUS
10
175.119
20
-142.089
11
174.976
21
-141.804
0
LINE
8
BLACK
6
CONTINUOUS
10
174.976
20
-141.804
11
174.833
21
-141.232
0
LINE
8
BLACK
6
CONTINUOUS
10
174.833
20
-141.232
11
174.833
21
-140.518
0
LINE
8
BLACK
6
CONTINUOUS
10
174.833
20
-140.518
11
174.976
21
-139.947
0
LINE
8
BLACK
6
CONTINUOUS
10
174.976
20
-139.947
11
175.119
21
-139.661
0
LINE
8
BLACK
6
CONTINUOUS
10
175.119
20
-139.661
11
175.262
21
-139.518
0
LINE
8
BLACK
6
CONTINUOUS
10
175.262
20
-139.518
11
175.548
21
-139.375
0
LINE
8
BLACK
6
CONTINUOUS
10
177.833
20
-142.089
11
177.976
21
-142.232
0
LINE
8
BLACK
6
CONTINUOUS
10
177.976
20
-142.232
11
177.833
21
-142.375
0
LINE
8
BLACK
6
CONTINUOUS
10
177.833
20
-142.375
11
177.691
21
-142.232
0
LINE
8
BLACK
6
CONTINUOUS
10
177.691
20
-142.232
11
177.833
21
-142.089
0
LINE
8
BLACK
6
CONTINUOUS
10
177.833
20
-142.089
11
177.833
21
-142.375
0
LINE
8
BLACK
6
CONTINUOUS
10
180.691
20
-139.375
11
179.262
21
-139.375
0
LINE
8
BLACK
6
CONTINUOUS
10
179.262
20
-139.375
11
179.119
21
-140.804
0
LINE
8
BLACK
6
CONTINUOUS
10
179.119
20
-140.804
11
179.262
21
-140.661
0
LINE
8
BLACK
6
CONTINUOUS
10
179.262
20
-140.661
11
179.548
21
-140.518
0
LINE
8
BLACK
6
CONTINUOUS
10
179.548
20
-140.518
11
180.262
21
-140.518
0
LINE
8
BLACK
6
CONTINUOUS
10
180.262
20
-140.518
11
180.548
21
-140.661
0
LINE
8
BLACK
6
CONTINUOUS
10
180.548
20
-140.661
11
180.691
21
-140.804
0
LINE
8
BLACK
6
CONTINUOUS
10
180.691
20
-140.804
11
180.833
21
-141.089
0
LINE
8
BLACK
6
CONTINUOUS
10
180.833
20
-141.089
11
180.833
21
-141.804
0
LINE
8
BLACK
6
CONTINUOUS
10
180.833
20
-141.804
11
180.691
21
-142.089
0
LINE
8
BLACK
6
CONTINUOUS
10
180.691
20
-142.089
11
180.548
21
-142.232
0
LINE
8
BLACK
6
CONTINUOUS
10
180.548
20
-142.232
11
180.262
21
-142.375
0
LINE
8
BLACK
6
CONTINUOUS
10
180.262
20
-142.375
11
179.548
21
-142.375
0
LINE
8
BLACK
6
CONTINUOUS
10
179.548
20
-142.375
11
179.262
21
-142.232
0
LINE
8
BLACK
6
CONTINUOUS
10
179.262
20
-142.232
11
179.119
21
-142.089
0
LINE
8
BLACK
6
CONTINUOUS
10
182.691
20
-139.375
11
182.976
21
-139.375
0
LINE
8
BLACK
6
CONTINUOUS
10
182.976
20
-139.375
11
183.262
21
-139.518
0
LINE
8
BLACK
6
CONTINUOUS
10
183.262
20
-139.518
11
183.405
21
-139.661
0
LINE
8
BLACK
6
CONTINUOUS
10
183.405
20
-139.661
11
183.548
21
-139.947
0
LINE
8
BLACK
6
CONTINUOUS
10
183.548
20
-139.947
11
183.691
21
-140.518
0
LINE
8
BLACK
6
CONTINUOUS
10
183.691
20
-140.518
11
183.691
21
-141.232
0
LINE
8
BLACK
6
CONTINUOUS
10
183.691
20
-141.232
11
183.548
21
-141.804
0
LINE
8
BLACK
6
CONTINUOUS
10
183.548
20
-141.804
11
183.405
21
-142.089
0
LINE
8
BLACK
6
CONTINUOUS
10
183.405
20
-142.089
11
183.262
21
-142.232
0
LINE
8
BLACK
6
CONTINUOUS
10
183.262
20
-142.232
11
182.976
21
-142.375
0
LINE
8
BLACK
6
CONTINUOUS
10
182.976
20
-142.375
11
182.691
21
-142.375
0
LINE
8
BLACK
6
CONTINUOUS
10
182.691
20
-142.375
11
182.405
21
-142.232
0
LINE
8
BLACK
6
CONTINUOUS
10
182.405
20
-142.232
11
182.262
21
-142.089
0
LINE
8
BLACK
6
CONTINUOUS
10
182.262
20
-142.089
11
182.119
21
-141.804
0
LINE
8
BLACK
6
CONTINUOUS
10
182.119
20
-141.804
11
181.976
21
-141.232
0
LINE
8
BLACK
6
CONTINUOUS
10
181.976
20
-141.232
11
181.976
21
-140.518
0
LINE
8
BLACK
6
CONTINUOUS
10
181.976
20
-140.518
11
182.119
21
-139.947
0
LINE
8
BLACK
6
CONTINUOUS
10
182.119
20
-139.947
11
182.262
21
-139.661
0
LINE
8
BLACK
6
CONTINUOUS
10
182.262
20
-139.661
11
182.405
21
-139.518
0
LINE
8
BLACK
6
CONTINUOUS
10
182.405
20
-139.518
11
182.691
21
-139.375
0
LINE
8
BLACK
6
CONTINUOUS
10
184.976
20
-142.375
11
184.976
21
-140.375
0
LINE
8
BLACK
6
CONTINUOUS
10
184.976
20
-140.661
11
185.119
21
-140.518
0
LINE
8
BLACK
6
CONTINUOUS
10
185.119
20
-140.518
11
185.405
21
-140.375
0
LINE
8
BLACK
6
CONTINUOUS
10
185.405
20
-140.375
11
185.833
21
-140.375
0
LINE
8
BLACK
6
CONTINUOUS
10
185.833
20
-140.375
11
186.119
21
-140.518
0
LINE
8
BLACK
6
CONTINUOUS
10
186.119
20
-140.518
11
186.262
21
-140.804
0
LINE
8
BLACK
6
CONTINUOUS
10
186.262
20
-140.804
11
186.262
21
-142.375
0
LINE
8
BLACK
6
CONTINUOUS
10
186.262
20
-140.804
11
186.405
21
-140.518
0
LINE
8
BLACK
6
CONTINUOUS
10
186.405
20
-140.518
11
186.691
21
-140.375
0
LINE
8
BLACK
6
CONTINUOUS
10
186.691
20
-140.375
11
187.119
21
-140.375
0
LINE
8
BLACK
6
CONTINUOUS
10
187.119
20
-140.375
11
187.405
21
-140.518
0
LINE
8
BLACK
6
CONTINUOUS
10
187.405
20
-140.518
11
187.548
21
-140.804
0
LINE
8
BLACK
6
CONTINUOUS
10
187.548
20
-140.804
11
187.548
21
-142.375
0
LINE
8
BLACK
6
CONTINUOUS
10
188.976
20
-142.375
11
188.976
21
-140.375
0
LINE
8
BLACK
6
CONTINUOUS
10
188.976
20
-140.661
11
189.119
21
-140.518
0
LINE
8
BLACK
6
CONTINUOUS
10
189.119
20
-140.518
11
189.405
21
-140.375
0
LINE
8
BLACK
6
CONTINUOUS
10
189.405
20
-140.375
11
189.833
21
-140.375
0
LINE
8
BLACK
6
CONTINUOUS
10
189.833
20
-140.375
11
190.119
21
-140.518
0
LINE
8
BLACK
6
CONTINUOUS
10
190.119
20
-140.518
11
190.262
21
-140.804
0
LINE
8
BLACK
6
CONTINUOUS
10
190.262
20
-140.804
11
190.262
21
-142.375
0
LINE
8
BLACK
6
CONTINUOUS
10
190.262
20
-140.804
11
190.405
21
-140.518
0
LINE
8
BLACK
6
CONTINUOUS
10
190.405
20
-140.518
11
190.691
21
-140.375
0
LINE
8
BLACK
6
CONTINUOUS
10
190.691
20
-140.375
11
191.119
21
-140.375
0
LINE
8
BLACK
6
CONTINUOUS
10
191.119
20
-140.375
11
191.405
21
-140.518
0
LINE
8
BLACK
6
CONTINUOUS
10
191.405
20
-140.518
11
191.548
21
-140.804
0
LINE
8
BLACK
6
CONTINUOUS
10
191.548
20
-140.804
11
191.548
21
-142.375
0
LINE
8
BLACK
6
CONTINUOUS
10
197.405
20
-139.232
11
194.833
21
-143.089
0
LINE
8
BLACK
6
CONTINUOUS
10
201.262
20
-139.375
11
201.548
21
-139.375
0
LINE
8
BLACK
6
CONTINUOUS
10
201.548
20
-139.375
11
201.833
21
-139.518
0
LINE
8
BLACK
6
CONTINUOUS
10
201.833
20
-139.518
11
201.976
21
-139.661
0
LINE
8
BLACK
6
CONTINUOUS
10
201.976
20
-139.661
11
202.119
21
-139.947
0
LINE
8
BLACK
6
CONTINUOUS
10
202.119
20
-139.947
11
202.262
21
-140.518
0
LINE
8
BLACK
6
CONTINUOUS
10
202.262
20
-140.518
11
202.262
21
-141.232
0
LINE
8
BLACK
6
CONTINUOUS
10
202.262
20
-141.232
11
202.119
21
-141.804
0
LINE
8
BLACK
6
CONTINUOUS
10
202.119
20
-141.804
11
201.976
21
-142.089
0
LINE
8
BLACK
6
CONTINUOUS
10
201.976
20
-142.089
11
201.833
21
-142.232
0
LINE
8
BLACK
6
CONTINUOUS
10
201.833
20
-142.232
11
201.548
21
-142.375
0
LINE
8
BLACK
6
CONTINUOUS
10
201.548
20
-142.375
11
201.262
21
-142.375
0
LINE
8
BLACK
6
CONTINUOUS
10
201.262
20
-142.375
11
200.976
21
-142.232
0
LINE
8
BLACK
6
CONTINUOUS
10
200.976
20
-142.232
11
200.833
21
-142.089
0
LINE
8
BLACK
6
CONTINUOUS
10
200.833
20
-142.089
11
200.691
21
-141.804
0
LINE
8
BLACK
6
CONTINUOUS
10
200.691
20
-141.804
11
200.548
21
-141.232
0
LINE
8
BLACK
6
CONTINUOUS
10
200.548
20
-141.232
11
200.548
21
-140.518
0
LINE
8
BLACK
6
CONTINUOUS
10
200.548
20
-140.518
11
200.691
21
-139.947
0
LINE
8
BLACK
6
CONTINUOUS
10
200.691
20
-139.947
11
200.833
21
-139.661
0
LINE
8
BLACK
6
CONTINUOUS
10
200.833
20
-139.661
11
200.976
21
-139.518
0
LINE
8
BLACK
6
CONTINUOUS
10
200.976
20
-139.518
11
201.262
21
-139.375
0
LINE
8
BLACK
6
CONTINUOUS
10
203.548
20
-142.089
11
203.691
21
-142.232
0
LINE
8
BLACK
6
CONTINUOUS
10
203.691
20
-142.232
11
203.548
21
-142.375
0
LINE
8
BLACK
6
CONTINUOUS
10
203.548
20
-142.375
11
203.405
21
-142.232
0
LINE
8
BLACK
6
CONTINUOUS
10
203.405
20
-142.232
11
203.548
21
-142.089
0
LINE
8
BLACK
6
CONTINUOUS
10
203.548
20
-142.089
11
203.548
21
-142.375
0
LINE
8
BLACK
6
CONTINUOUS
10
205.548
20
-139.375
11
205.833
21
-139.375
0
LINE
8
BLACK
6
CONTINUOUS
10
205.833
20
-139.375
11
206.119
21
-139.518
0
LINE
8
BLACK
6
CONTINUOUS
10
206.119
20
-139.518
11
206.262
21
-139.661
0
LINE
8
BLACK
6
CONTINUOUS
10
206.262
20
-139.661
11
206.405
21
-139.947
0
LINE
8
BLACK
6
CONTINUOUS
10
206.405
20
-139.947
11
206.548
21
-140.518
0
LINE
8
BLACK
6
CONTINUOUS
10
206.548
20
-140.518
11
206.548
21
-141.232
0
LINE
8
BLACK
6
CONTINUOUS
10
206.548
20
-141.232
11
206.405
21
-141.804
0
LINE
8
BLACK
6
CONTINUOUS
10
206.405
20
-141.804
11
206.262
21
-142.089
0
LINE
8
BLACK
6
CONTINUOUS
10
206.262
20
-142.089
11
206.119
21
-142.232
0
LINE
8
BLACK
6
CONTINUOUS
10
206.119
20
-142.232
11
205.833
21
-142.375
0
LINE
8
BLACK
6
CONTINUOUS
10
205.833
20
-142.375
11
205.548
21
-142.375
0
LINE
8
BLACK
6
CONTINUOUS
10
205.548
20
-142.375
11
205.262
21
-142.232
0
LINE
8
BLACK
6
CONTINUOUS
10
205.262
20
-142.232
11
205.119
21
-142.089
0
LINE
8
BLACK
6
CONTINUOUS
10
205.119
20
-142.089
11
204.976
21
-141.804
0
LINE
8
BLACK
6
CONTINUOUS
10
204.976
20
-141.804
11
204.833
21
-141.232
0
LINE
8
BLACK
6
CONTINUOUS
10
204.833
20
-141.232
11
204.833
21
-140.518
0
LINE
8
BLACK
6
CONTINUOUS
10
204.833
20
-140.518
11
204.976
21
-139.947
0
LINE
8
BLACK
6
CONTINUOUS
10
204.976
20
-139.947
11
205.119
21
-139.661
0
LINE
8
BLACK
6
CONTINUOUS
10
205.119
20
-139.661
11
205.262
21
-139.518
0
LINE
8
BLACK
6
CONTINUOUS
10
205.262
20
-139.518
11
205.548
21
-139.375
0
LINE
8
BLACK
6
CONTINUOUS
10
207.691
20
-139.661
11
207.833
21
-139.518
0
LINE
8
BLACK
6
CONTINUOUS
10
207.833
20
-139.518
11
208.119
21
-139.375
0
LINE
8
BLACK
6
CONTINUOUS
10
208.119
20
-139.375
11
208.833
21
-139.375
0
LINE
8
BLACK
6
CONTINUOUS
10
208.833
20
-139.375
11
209.119
21
-139.518
0
LINE
8
BLACK
6
CONTINUOUS
10
209.119
20
-139.518
11
209.262
21
-139.661
0
LINE
8
BLACK
6
CONTINUOUS
10
209.262
20
-139.661
11
209.405
21
-139.947
0
LINE
8
BLACK
6
CONTINUOUS
10
209.405
20
-139.947
11
209.405
21
-140.232
0
LINE
8
BLACK
6
CONTINUOUS
10
209.405
20
-140.232
11
209.262
21
-140.661
0
LINE
8
BLACK
6
CONTINUOUS
10
209.262
20
-140.661
11
207.548
21
-142.375
0
LINE
8
BLACK
6
CONTINUOUS
10
207.548
20
-142.375
11
209.405
21
-142.375
0
LINE
8
BLACK
6
CONTINUOUS
10
211.262
20
-139.375
11
211.548
21
-139.375
0
LINE
8
BLACK
6
CONTINUOUS
10
211.548
20
-139.375
11
211.833
21
-139.518
0
LINE
8
BLACK
6
CONTINUOUS
10
211.833
20
-139.518
11
211.976
21
-139.661
0
LINE
8
BLACK
6
CONTINUOUS
10
211.976
20
-139.661
11
212.119
21
-139.947
0
LINE
8
BLACK
6
CONTINUOUS
10
212.119
20
-139.947
11
212.262
21
-140.518
0
LINE
8
BLACK
6
CONTINUOUS
10
212.262
20
-140.518
11
212.262
21
-141.232
0
LINE
8
BLACK
6
CONTINUOUS
10
212.262
20
-141.232
11
212.119
21
-141.804
0
LINE
8
BLACK
6
CONTINUOUS
10
212.119
20
-141.804
11
211.976
21
-142.089
0
LINE
8
BLACK
6
CONTINUOUS
10
211.976
20
-142.089
11
211.833
21
-142.232
0
LINE
8
BLACK
6
CONTINUOUS
10
211.833
20
-142.232
11
211.548
21
-142.375
0
LINE
8
BLACK
6
CONTINUOUS
10
211.548
20
-142.375
11
211.262
21
-142.375
0
LINE
8
BLACK
6
CONTINUOUS
10
211.262
20
-142.375
11
210.976
21
-142.232
0
LINE
8
BLACK
6
CONTINUOUS
10
210.976
20
-142.232
11
210.833
21
-142.089
0
LINE
8
BLACK
6
CONTINUOUS
10
210.833
20
-142.089
11
210.691
21
-141.804
0
LINE
8
BLACK
6
CONTINUOUS
10
210.691
20
-141.804
11
210.548
21
-141.232
0
LINE
8
BLACK
6
CONTINUOUS
10
210.548
20
-141.232
11
210.548
21
-140.518
0
LINE
8
BLACK
6
CONTINUOUS
10
210.548
20
-140.518
11
210.691
21
-139.947
0
LINE
8
BLACK
6
CONTINUOUS
10
210.691
20
-139.947
11
210.833
21
-139.661
0
LINE
8
BLACK
6
CONTINUOUS
10
210.833
20
-139.661
11
210.976
21
-139.518
0
LINE
8
BLACK
6
CONTINUOUS
10
210.976
20
-139.518
11
211.262
21
-139.375
0
LINE
8
BLACK
6
CONTINUOUS
10
213.405
20
-139.375
11
213.405
21
-139.947
0
LINE
8
BLACK
6
CONTINUOUS
10
214.548
20
-139.375
11
214.548
21
-139.947
0
LINE
8
BLACK
6
CONTINUOUS
10
218.976
20
-143.518
11
218.833
21
-143.375
0
LINE
8
BLACK
6
CONTINUOUS
10
218.833
20
-143.375
11
218.548
21
-142.947
0
LINE
8
BLACK
6
CONTINUOUS
10
218.548
20
-142.947
11
218.405
21
-142.661
0
LINE
8
BLACK
6
CONTINUOUS
10
218.405
20
-142.661
11
218.262
21
-142.232
0
LINE
8
BLACK
6
CONTINUOUS
10
218.262
20
-142.232
11
218.119
21
-141.518
0
LINE
8
BLACK
6
CONTINUOUS
10
218.119
20
-141.518
11
218.119
21
-140.947
0
LINE
8
BLACK
6
CONTINUOUS
10
218.119
20
-140.947
11
218.262
21
-140.232
0
LINE
8
BLACK
6
CONTINUOUS
10
218.262
20
-140.232
11
218.405
21
-139.804
0
LINE
8
BLACK
6
CONTINUOUS
10
218.405
20
-139.804
11
218.548
21
-139.518
0
LINE
8
BLACK
6
CONTINUOUS
10
218.548
20
-139.518
11
218.833
21
-139.089
0
LINE
8
BLACK
6
CONTINUOUS
10
218.833
20
-139.089
11
218.976
21
-138.947
0
LINE
8
BLACK
6
CONTINUOUS
10
221.405
20
-139.375
11
220.833
21
-139.375
0
LINE
8
BLACK
6
CONTINUOUS
10
220.833
20
-139.375
11
220.548
21
-139.518
0
LINE
8
BLACK
6
CONTINUOUS
10
220.548
20
-139.518
11
220.405
21
-139.661
0
LINE
8
BLACK
6
CONTINUOUS
10
220.405
20
-139.661
11
220.119
21
-140.089
0
LINE
8
BLACK
6
CONTINUOUS
10
220.119
20
-140.089
11
219.976
21
-140.661
0
LINE
8
BLACK
6
CONTINUOUS
10
219.976
20
-140.661
11
219.976
21
-141.804
0
LINE
8
BLACK
6
CONTINUOUS
10
219.976
20
-141.804
11
220.119
21
-142.089
0
LINE
8
BLACK
6
CONTINUOUS
10
220.119
20
-142.089
11
220.262
21
-142.232
0
LINE
8
BLACK
6
CONTINUOUS
10
220.262
20
-142.232
11
220.548
21
-142.375
0
LINE
8
BLACK
6
CONTINUOUS
10
220.548
20
-142.375
11
221.119
21
-142.375
0
LINE
8
BLACK
6
CONTINUOUS
10
221.119
20
-142.375
11
221.405
21
-142.232
0
LINE
8
BLACK
6
CONTINUOUS
10
221.405
20
-142.232
11
221.548
21
-142.089
0
LINE
8
BLACK
6
CONTINUOUS
10
221.548
20
-142.089
11
221.691
21
-141.804
0
LINE
8
BLACK
6
CONTINUOUS
10
221.691
20
-141.804
11
221.691
21
-141.089
0
LINE
8
BLACK
6
CONTINUOUS
10
221.691
20
-141.089
11
221.548
21
-140.804
0
LINE
8
BLACK
6
CONTINUOUS
10
221.548
20
-140.804
11
221.405
21
-140.661
0
LINE
8
BLACK
6
CONTINUOUS
10
221.405
20
-140.661
11
221.119
21
-140.518
0
LINE
8
BLACK
6
CONTINUOUS
10
221.119
20
-140.518
11
220.548
21
-140.518
0
LINE
8
BLACK
6
CONTINUOUS
10
220.548
20
-140.518
11
220.262
21
-140.661
0
LINE
8
BLACK
6
CONTINUOUS
10
220.262
20
-140.661
11
220.119
21
-140.804
0
LINE
8
BLACK
6
CONTINUOUS
10
220.119
20
-140.804
11
219.976
21
-141.089
0
LINE
8
BLACK
6
CONTINUOUS
10
225.262
20
-142.375
11
225.262
21
-139.375
0
LINE
8
BLACK
6
CONTINUOUS
10
226.548
20
-142.375
11
226.548
21
-140.804
0
LINE
8
BLACK
6
CONTINUOUS
10
226.548
20
-140.804
11
226.405
21
-140.518
0
LINE
8
BLACK
6
CONTINUOUS
10
226.405
20
-140.518
11
226.119
21
-140.375
0
LINE
8
BLACK
6
CONTINUOUS
10
226.119
20
-140.375
11
225.691
21
-140.375
0
LINE
8
BLACK
6
CONTINUOUS
10
225.691
20
-140.375
11
225.405
21
-140.518
0
LINE
8
BLACK
6
CONTINUOUS
10
225.405
20
-140.518
11
225.262
21
-140.661
0
LINE
8
BLACK
6
CONTINUOUS
10
228.405
20
-142.375
11
228.119
21
-142.232
0
LINE
8
BLACK
6
CONTINUOUS
10
228.119
20
-142.232
11
227.976
21
-142.089
0
LINE
8
BLACK
6
CONTINUOUS
10
227.976
20
-142.089
11
227.833
21
-141.804
0
LINE
8
BLACK
6
CONTINUOUS
10
227.833
20
-141.804
11
227.833
21
-140.947
0
LINE
8
BLACK
6
CONTINUOUS
10
227.833
20
-140.947
11
227.976
21
-140.661
0
LINE
8
BLACK
6
CONTINUOUS
10
227.976
20
-140.661
11
228.119
21
-140.518
0
LINE
8
BLACK
6
CONTINUOUS
10
228.119
20
-140.518
11
228.405
21
-140.375
0
LINE
8
BLACK
6
CONTINUOUS
10
228.405
20
-140.375
11
228.833
21
-140.375
0
LINE
8
BLACK
6
CONTINUOUS
10
228.833
20
-140.375
11
229.119
21
-140.518
0
LINE
8
BLACK
6
CONTINUOUS
10
229.119
20
-140.518
11
229.262
21
-140.661
0
LINE
8
BLACK
6
CONTINUOUS
10
229.262
20
-140.661
11
229.405
21
-140.947
0
LINE
8
BLACK
6
CONTINUOUS
10
229.405
20
-140.947
11
229.405
21
-141.804
0
LINE
8
BLACK
6
CONTINUOUS
10
229.405
20
-141.804
11
229.262
21
-142.089
0
LINE
8
BLACK
6
CONTINUOUS
10
229.262
20
-142.089
11
229.119
21
-142.232
0
LINE
8
BLACK
6
CONTINUOUS
10
229.119
20
-142.232
11
228.833
21
-142.375
0
LINE
8
BLACK
6
CONTINUOUS
10
228.833
20
-142.375
11
228.405
21
-142.375
0
LINE
8
BLACK
6
CONTINUOUS
10
231.119
20
-142.375
11
230.833
21
-142.232
0
LINE
8
BLACK
6
CONTINUOUS
10
230.833
20
-142.232
11
230.691
21
-141.947
0
LINE
8
BLACK
6
CONTINUOUS
10
230.691
20
-141.947
11
230.691
21
-139.375
0
LINE
8
BLACK
6
CONTINUOUS
10
233.405
20
-142.232
11
233.119
21
-142.375
0
LINE
8
BLACK
6
CONTINUOUS
10
233.119
20
-142.375
11
232.548
21
-142.375
0
LINE
8
BLACK
6
CONTINUOUS
10
232.548
20
-142.375
11
232.262
21
-142.232
0
LINE
8
BLACK
6
CONTINUOUS
10
232.262
20
-142.232
11
232.119
21
-141.947
0
LINE
8
BLACK
6
CONTINUOUS
10
232.119
20
-141.947
11
232.119
21
-140.804
0
LINE
8
BLACK
6
CONTINUOUS
10
232.119
20
-140.804
11
232.262
21
-140.518
0
LINE
8
BLACK
6
CONTINUOUS
10
232.262
20
-140.518
11
232.548
21
-140.375
0
LINE
8
BLACK
6
CONTINUOUS
10
232.548
20
-140.375
11
233.119
21
-140.375
0
LINE
8
BLACK
6
CONTINUOUS
10
233.119
20
-140.375
11
233.405
21
-140.518
0
LINE
8
BLACK
6
CONTINUOUS
10
233.405
20
-140.518
11
233.548
21
-140.804
0
LINE
8
BLACK
6
CONTINUOUS
10
233.548
20
-140.804
11
233.548
21
-141.089
0
LINE
8
BLACK
6
CONTINUOUS
10
233.548
20
-141.089
11
232.119
21
-141.375
0
LINE
8
BLACK
6
CONTINUOUS
10
234.691
20
-142.232
11
234.976
21
-142.375
0
LINE
8
BLACK
6
CONTINUOUS
10
234.976
20
-142.375
11
235.548
21
-142.375
0
LINE
8
BLACK
6
CONTINUOUS
10
235.548
20
-142.375
11
235.833
21
-142.232
0
LINE
8
BLACK
6
CONTINUOUS
10
235.833
20
-142.232
11
235.976
21
-141.947
0
LINE
8
BLACK
6
CONTINUOUS
10
235.976
20
-141.947
11
235.976
21
-141.804
0
LINE
8
BLACK
6
CONTINUOUS
10
235.976
20
-141.804
11
235.833
21
-141.518
0
LINE
8
BLACK
6
CONTINUOUS
10
235.833
20
-141.518
11
235.548
21
-141.375
0
LINE
8
BLACK
6
CONTINUOUS
10
235.548
20
-141.375
11
235.119
21
-141.375
0
LINE
8
BLACK
6
CONTINUOUS
10
235.119
20
-141.375
11
234.833
21
-141.232
0
LINE
8
BLACK
6
CONTINUOUS
10
234.833
20
-141.232
11
234.691
21
-140.947
0
LINE
8
BLACK
6
CONTINUOUS
10
234.691
20
-140.947
11
234.691
21
-140.804
0
LINE
8
BLACK
6
CONTINUOUS
10
234.691
20
-140.804
11
234.833
21
-140.518
0
LINE
8
BLACK
6
CONTINUOUS
10
234.833
20
-140.518
11
235.119
21
-140.375
0
LINE
8
BLACK
6
CONTINUOUS
10
235.119
20
-140.375
11
235.548
21
-140.375
0
LINE
8
BLACK
6
CONTINUOUS
10
235.548
20
-140.375
11
235.833
21
-140.518
0
LINE
8
BLACK
6
CONTINUOUS
10
236.976
20
-143.518
11
237.119
21
-143.375
0
LINE
8
BLACK
6
CONTINUOUS
10
237.119
20
-143.375
11
237.405
21
-142.947
0
LINE
8
BLACK
6
CONTINUOUS
10
237.405
20
-142.947
11
237.548
21
-142.661
0
LINE
8
BLACK
6
CONTINUOUS
10
237.548
20
-142.661
11
237.691
21
-142.232
0
LINE
8
BLACK
6
CONTINUOUS
10
237.691
20
-142.232
11
237.833
21
-141.518
0
LINE
8
BLACK
6
CONTINUOUS
10
237.833
20
-141.518
11
237.833
21
-140.947
0
LINE
8
BLACK
6
CONTINUOUS
10
237.833
20
-140.947
11
237.691
21
-140.232
0
LINE
8
BLACK
6
CONTINUOUS
10
237.691
20
-140.232
11
237.548
21
-139.804
0
LINE
8
BLACK
6
CONTINUOUS
10
237.548
20
-139.804
11
237.405
21
-139.518
0
LINE
8
BLACK
6
CONTINUOUS
10
237.405
20
-139.518
11
237.119
21
-139.089
0
LINE
8
BLACK
6
CONTINUOUS
10
237.119
20
-139.089
11
236.976
21
-138.947
0
CIRCLE
8
BLACK
10
171.712
20
-144.978
40
0.4
0
LINE
8
BLACK
6
CONTINUOUS
10
175.548
20
-143.335
11
175.833
21
-143.335
0
LINE
8
BLACK
6
CONTINUOUS
10
175.833
20
-143.335
11
176.119
21
-143.478
0
LINE
8
BLACK
6
CONTINUOUS
10
176.119
20
-143.478
11
176.262
21
-143.621
0
LINE
8
BLACK
6
CONTINUOUS
10
176.262
20
-143.621
11
176.405
21
-143.907
0
LINE
8
BLACK
6
CONTINUOUS
10
176.405
20
-143.907
11
176.548
21
-144.478
0
LINE
8
BLACK
6
CONTINUOUS
10
176.548
20
-144.478
11
176.548
21
-145.192
0
LINE
8
BLACK
6
CONTINUOUS
10
176.548
20
-145.192
11
176.405
21
-145.764
0
LINE
8
BLACK
6
CONTINUOUS
10
176.405
20
-145.764
11
176.262
21
-146.049
0
LINE
8
BLACK
6
CONTINUOUS
10
176.262
20
-146.049
11
176.119
21
-146.192
0
LINE
8
BLACK
6
CONTINUOUS
10
176.119
20
-146.192
11
175.833
21
-146.335
0
LINE
8
BLACK
6
CONTINUOUS
10
175.833
20
-146.335
11
175.548
21
-146.335
0
LINE
8
BLACK
6
CONTINUOUS
10
175.548
20
-146.335
11
175.262
21
-146.192
0
LINE
8
BLACK
6
CONTINUOUS
10
175.262
20
-146.192
11
175.119
21
-146.049
0
LINE
8
BLACK
6
CONTINUOUS
10
175.119
20
-146.049
11
174.976
21
-145.764
0
LINE
8
BLACK
6
CONTINUOUS
10
174.976
20
-145.764
11
174.833
21
-145.192
0
LINE
8
BLACK
6
CONTINUOUS
10
174.833
20
-145.192
11
174.833
21
-144.478
0
LINE
8
BLACK
6
CONTINUOUS
10
174.833
20
-144.478
11
174.976
21
-143.907
0
LINE
8
BLACK
6
CONTINUOUS
10
174.976
20
-143.907
11
175.119
21
-143.621
0
LINE
8
BLACK
6
CONTINUOUS
10
175.119
20
-143.621
11
175.262
21
-143.478
0
LINE
8
BLACK
6
CONTINUOUS
10
175.262
20
-143.478
11
175.548
21
-143.335
0
LINE
8
BLACK
6
CONTINUOUS
10
177.833
20
-146.049
11
177.976
21
-146.192
0
LINE
8
BLACK
6
CONTINUOUS
10
177.976
20
-146.192
11
177.833
21
-146.335
0
LINE
8
BLACK
6
CONTINUOUS
10
177.833
20
-146.335
11
177.691
21
-146.192
0
LINE
8
BLACK
6
CONTINUOUS
10
177.691
20
-146.192
11
177.833
21
-146.049
0
LINE
8
BLACK
6
CONTINUOUS
10
177.833
20
-146.049
11
177.833
21
-146.335
0
LINE
8
BLACK
6
CONTINUOUS
10
179.691
20
-144.621
11
179.405
21
-144.478
0
LINE
8
BLACK
6
CONTINUOUS
10
179.405
20
-144.478
11
179.262
21
-144.335
0
LINE
8
BLACK
6
CONTINUOUS
10
179.262
20
-144.335
11
179.119
21
-144.049
0
LINE
8
BLACK
6
CONTINUOUS
10
179.119
20
-144.049
11
179.119
21
-143.907
0
LINE
8
BLACK
6
CONTINUOUS
10
179.119
20
-143.907
11
179.262
21
-143.621
0
LINE
8
BLACK
6
CONTINUOUS
10
179.262
20
-143.621
11
179.405
21
-143.478
0
LINE
8
BLACK
6
CONTINUOUS
10
179.405
20
-143.478
11
179.691
21
-143.335
0
LINE
8
BLACK
6
CONTINUOUS
10
179.691
20
-143.335
11
180.262
21
-143.335
0
LINE
8
BLACK
6
CONTINUOUS
10
180.262
20
-143.335
11
180.548
21
-143.478
0
LINE
8
BLACK
6
CONTINUOUS
10
180.548
20
-143.478
11
180.691
21
-143.621
0
LINE
8
BLACK
6
CONTINUOUS
10
180.691
20
-143.621
11
180.833
21
-143.907
0
LINE
8
BLACK
6
CONTINUOUS
10
180.833
20
-143.907
11
180.833
21
-144.049
0
LINE
8
BLACK
6
CONTINUOUS
10
180.833
20
-144.049
11
180.691
21
-144.335
0
LINE
8
BLACK
6
CONTINUOUS
10
180.691
20
-144.335
11
180.548
21
-144.478
0
LINE
8
BLACK
6
CONTINUOUS
10
180.548
20
-144.478
11
180.262
21
-144.621
0
LINE
8
BLACK
6
CONTINUOUS
10
180.262
20
-144.621
11
179.691
21
-144.621
0
LINE
8
BLACK
6
CONTINUOUS
10
179.691
20
-144.621
11
179.405
21
-144.764
0
LINE
8
BLACK
6
CONTINUOUS
10
179.405
20
-144.764
11
179.262
21
-144.907
0
LINE
8
BLACK
6
CONTINUOUS
10
179.262
20
-144.907
11
179.119
21
-145.192
0
LINE
8
BLACK
6
CONTINUOUS
10
179.119
20
-145.192
11
179.119
21
-145.764
0
LINE
8
BLACK
6
CONTINUOUS
10
179.119
20
-145.764
11
179.262
21
-146.049
0
LINE
8
BLACK
6
CONTINUOUS
10
179.262
20
-146.049
11
179.405
21
-146.192
0
LINE
8
BLACK
6
CONTINUOUS
10
179.405
20
-146.192
11
179.691
21
-146.335
0
LINE
8
BLACK
6
CONTINUOUS
10
179.691
20
-146.335
11
180.262
21
-146.335
0
LINE
8
BLACK
6
CONTINUOUS
10
180.262
20
-146.335
11
180.548
21
-146.192
0
LINE
8
BLACK
6
CONTINUOUS
10
180.548
20
-146.192
11
180.691
21
-146.049
0
LINE
8
BLACK
6
CONTINUOUS
10
180.691
20
-146.049
11
180.833
21
-145.764
0
LINE
8
BLACK
6
CONTINUOUS
10
180.833
20
-145.764
11
180.833
21
-145.192
0
LINE
8
BLACK
6
CONTINUOUS
10
180.833
20
-145.192
11
180.691
21
-144.907
0
LINE
8
BLACK
6
CONTINUOUS
10
180.691
20
-144.907
11
180.548
21
-144.764
0
LINE
8
BLACK
6
CONTINUOUS
10
180.548
20
-144.764
11
180.262
21
-144.621
0
LINE
8
BLACK
6
CONTINUOUS
10
182.691
20
-143.335
11
182.976
21
-143.335
0
LINE
8
BLACK
6
CONTINUOUS
10
182.976
20
-143.335
11
183.262
21
-143.478
0
LINE
8
BLACK
6
CONTINUOUS
10
183.262
20
-143.478
11
183.405
21
-143.621
0
LINE
8
BLACK
6
CONTINUOUS
10
183.405
20
-143.621
11
183.548
21
-143.907
0
LINE
8
BLACK
6
CONTINUOUS
10
183.548
20
-143.907
11
183.691
21
-144.478
0
LINE
8
BLACK
6
CONTINUOUS
10
183.691
20
-144.478
11
183.691
21
-145.192
0
LINE
8
BLACK
6
CONTINUOUS
10
183.691
20
-145.192
11
183.548
21
-145.764
0
LINE
8
BLACK
6
CONTINUOUS
10
183.548
20
-145.764
11
183.405
21
-146.049
0
LINE
8
BLACK
6
CONTINUOUS
10
183.405
20
-146.049
11
183.262
21
-146.192
0
LINE
8
BLACK
6
CONTINUOUS
10
183.262
20
-146.192
11
182.976
21
-146.335
0
LINE
8
BLACK
6
CONTINUOUS
10
182.976
20
-146.335
11
182.691
21
-146.335
0
LINE
8
BLACK
6
CONTINUOUS
10
182.691
20
-146.335
11
182.405
21
-146.192
0
LINE
8
BLACK
6
CONTINUOUS
10
182.405
20
-146.192
11
182.262
21
-146.049
0
LINE
8
BLACK
6
CONTINUOUS
10
182.262
20
-146.049
11
182.119
21
-145.764
0
LINE
8
BLACK
6
CONTINUOUS
10
182.119
20
-145.764
11
181.976
21
-145.192
0
LINE
8
BLACK
6
CONTINUOUS
10
181.976
20
-145.192
11
181.976
21
-144.478
0
LINE
8
BLACK
6
CONTINUOUS
10
181.976
20
-144.478
11
182.119
21
-143.907
0
LINE
8
BLACK
6
CONTINUOUS
10
182.119
20
-143.907
11
182.262
21
-143.621
0
LINE
8
BLACK
6
CONTINUOUS
10
182.262
20
-143.621
11
182.405
21
-143.478
0
LINE
8
BLACK
6
CONTINUOUS
10
182.405
20
-143.478
11
182.691
21
-143.335
0
LINE
8
BLACK
6
CONTINUOUS
10
184.976
20
-146.335
11
184.976
21
-144.335
0
LINE
8
BLACK
6
CONTINUOUS
10
184.976
20
-144.621
11
185.119
21
-144.478
0
LINE
8
BLACK
6
CONTINUOUS
10
185.119
20
-144.478
11
185.405
21
-144.335
0
LINE
8
BLACK
6
CONTINUOUS
10
185.405
20
-144.335
11
185.833
21
-144.335
0
LINE
8
BLACK
6
CONTINUOUS
10
185.833
20
-144.335
11
186.119
21
-144.478
0
LINE
8
BLACK
6
CONTINUOUS
10
186.119
20
-144.478
11
186.262
21
-144.764
0
LINE
8
BLACK
6
CONTINUOUS
10
186.262
20
-144.764
11
186.262
21
-146.335
0
LINE
8
BLACK
6
CONTINUOUS
10
186.262
20
-144.764
11
186.405
21
-144.478
0
LINE
8
BLACK
6
CONTINUOUS
10
186.405
20
-144.478
11
186.691
21
-144.335
0
LINE
8
BLACK
6
CONTINUOUS
10
186.691
20
-144.335
11
187.119
21
-144.335
0
LINE
8
BLACK
6
CONTINUOUS
10
187.119
20
-144.335
11
187.405
21
-144.478
0
LINE
8
BLACK
6
CONTINUOUS
10
187.405
20
-144.478
11
187.548
21
-144.764
0
LINE
8
BLACK
6
CONTINUOUS
10
187.548
20
-144.764
11
187.548
21
-146.335
0
LINE
8
BLACK
6
CONTINUOUS
10
188.976
20
-146.335
11
188.976
21
-144.335
0
LINE
8
BLACK
6
CONTINUOUS
10
188.976
20
-144.621
11
189.119
21
-144.478
0
LINE
8
BLACK
6
CONTINUOUS
10
189.119
20
-144.478
11
189.405
21
-144.335
0
LINE
8
BLACK
6
CONTINUOUS
10
189.405
20
-144.335
11
189.833
21
-144.335
0
LINE
8
BLACK
6
CONTINUOUS
10
189.833
20
-144.335
11
190.119
21
-144.478
0
LINE
8
BLACK
6
CONTINUOUS
10
190.119
20
-144.478
11
190.262
21
-144.764
0
LINE
8
BLACK
6
CONTINUOUS
10
190.262
20
-144.764
11
190.262
21
-146.335
0
LINE
8
BLACK
6
CONTINUOUS
10
190.262
20
-144.764
11
190.405
21
-144.478
0
LINE
8
BLACK
6
CONTINUOUS
10
190.405
20
-144.478
11
190.691
21
-144.335
0
LINE
8
BLACK
6
CONTINUOUS
10
190.691
20
-144.335
11
191.119
21
-144.335
0
LINE
8
BLACK
6
CONTINUOUS
10
191.119
20
-144.335
11
191.405
21
-144.478
0
LINE
8
BLACK
6
CONTINUOUS
10
191.405
20
-144.478
11
191.548
21
-144.764
0
LINE
8
BLACK
6
CONTINUOUS
10
191.548
20
-144.764
11
191.548
21
-146.335
0
LINE
8
BLACK
6
CONTINUOUS
10
197.405
20
-143.192
11
194.833
21
-147.049
0
LINE
8
BLACK
6
CONTINUOUS
10
201.262
20
-143.335
11
201.548
21
-143.335
0
LINE
8
BLACK
6
CONTINUOUS
10
201.548
20
-143.335
11
201.833
21
-143.478
0
LINE
8
BLACK
6
CONTINUOUS
10
201.833
20
-143.478
11
201.976
21
-143.621
0
LINE
8
BLACK
6
CONTINUOUS
10
201.976
20
-143.621
11
202.119
21
-143.907
0
LINE
8
BLACK
6
CONTINUOUS
10
202.119
20
-143.907
11
202.262
21
-144.478
0
LINE
8
BLACK
6
CONTINUOUS
10
202.262
20
-144.478
11
202.262
21
-145.192
0
LINE
8
BLACK
6
CONTINUOUS
10
202.262
20
-145.192
11
202.119
21
-145.764
0
LINE
8
BLACK
6
CONTINUOUS
10
202.119
20
-145.764
11
201.976
21
-146.049
0
LINE
8
BLACK
6
CONTINUOUS
10
201.976
20
-146.049
11
201.833
21
-146.192
0
LINE
8
BLACK
6
CONTINUOUS
10
201.833
20
-146.192
11
201.548
21
-146.335
0
LINE
8
BLACK
6
CONTINUOUS
10
201.548
20
-146.335
11
201.262
21
-146.335
0
LINE
8
BLACK
6
CONTINUOUS
10
201.262
20
-146.335
11
200.976
21
-146.192
0
LINE
8
BLACK
6
CONTINUOUS
10
200.976
20
-146.192
11
200.833
21
-146.049
0
LINE
8
BLACK
6
CONTINUOUS
10
200.833
20
-146.049
11
200.691
21
-145.764
0
LINE
8
BLACK
6
CONTINUOUS
10
200.691
20
-145.764
11
200.548
21
-145.192
0
LINE
8
BLACK
6
CONTINUOUS
10
200.548
20
-145.192
11
200.548
21
-144.478
0
LINE
8
BLACK
6
CONTINUOUS
10
200.548
20
-144.478
11
200.691
21
-143.907
0
LINE
8
BLACK
6
CONTINUOUS
10
200.691
20
-143.907
11
200.833
21
-143.621
0
LINE
8
BLACK
6
CONTINUOUS
10
200.833
20
-143.621
11
200.976
21
-143.478
0
LINE
8
BLACK
6
CONTINUOUS
10
200.976
20
-143.478
11
201.262
21
-143.335
0
LINE
8
BLACK
6
CONTINUOUS
10
203.548
20
-146.049
11
203.691
21
-146.192
0
LINE
8
BLACK
6
CONTINUOUS
10
203.691
20
-146.192
11
203.548
21
-146.335
0
LINE
8
BLACK
6
CONTINUOUS
10
203.548
20
-146.335
11
203.405
21
-146.192
0
LINE
8
BLACK
6
CONTINUOUS
10
203.405
20
-146.192
11
203.548
21
-146.049
0
LINE
8
BLACK
6
CONTINUOUS
10
203.548
20
-146.049
11
203.548
21
-146.335
0
LINE
8
BLACK
6
CONTINUOUS
10
205.548
20
-143.335
11
205.833
21
-143.335
0
LINE
8
BLACK
6
CONTINUOUS
10
205.833
20
-143.335
11
206.119
21
-143.478
0
LINE
8
BLACK
6
CONTINUOUS
10
206.119
20
-143.478
11
206.262
21
-143.621
0
LINE
8
BLACK
6
CONTINUOUS
10
206.262
20
-143.621
11
206.405
21
-143.907
0
LINE
8
BLACK
6
CONTINUOUS
10
206.405
20
-143.907
11
206.548
21
-144.478
0
LINE
8
BLACK
6
CONTINUOUS
10
206.548
20
-144.478
11
206.548
21
-145.192
0
LINE
8
BLACK
6
CONTINUOUS
10
206.548
20
-145.192
11
206.405
21
-145.764
0
LINE
8
BLACK
6
CONTINUOUS
10
206.405
20
-145.764
11
206.262
21
-146.049
0
LINE
8
BLACK
6
CONTINUOUS
10
206.262
20
-146.049
11
206.119
21
-146.192
0
LINE
8
BLACK
6
CONTINUOUS
10
206.119
20
-146.192
11
205.833
21
-146.335
0
LINE
8
BLACK
6
CONTINUOUS
10
205.833
20
-146.335
11
205.548
21
-146.335
0
LINE
8
BLACK
6
CONTINUOUS
10
205.548
20
-146.335
11
205.262
21
-146.192
0
LINE
8
BLACK
6
CONTINUOUS
10
205.262
20
-146.192
11
205.119
21
-146.049
0
LINE
8
BLACK
6
CONTINUOUS
10
205.119
20
-146.049
11
204.976
21
-145.764
0
LINE
8
BLACK
6
CONTINUOUS
10
204.976
20
-145.764
11
204.833
21
-145.192
0
LINE
8
BLACK
6
CONTINUOUS
10
204.833
20
-145.192
11
204.833
21
-144.478
0
LINE
8
BLACK
6
CONTINUOUS
10
204.833
20
-144.478
11
204.976
21
-143.907
0
LINE
8
BLACK
6
CONTINUOUS
10
204.976
20
-143.907
11
205.119
21
-143.621
0
LINE
8
BLACK
6
CONTINUOUS
10
205.119
20
-143.621
11
205.262
21
-143.478
0
LINE
8
BLACK
6
CONTINUOUS
10
205.262
20
-143.478
11
205.548
21
-143.335
0
LINE
8
BLACK
6
CONTINUOUS
10
207.548
20
-143.335
11
209.405
21
-143.335
0
LINE
8
BLACK
6
CONTINUOUS
10
209.405
20
-143.335
11
208.405
21
-144.478
0
LINE
8
BLACK
6
CONTINUOUS
10
208.405
20
-144.478
11
208.833
21
-144.478
0
LINE
8
BLACK
6
CONTINUOUS
10
208.833
20
-144.478
11
209.119
21
-144.621
0
LINE
8
BLACK
6
CONTINUOUS
10
209.119
20
-144.621
11
209.262
21
-144.764
0
LINE
8
BLACK
6
CONTINUOUS
10
209.262
20
-144.764
11
209.405
21
-145.049
0
LINE
8
BLACK
6
CONTINUOUS
10
209.405
20
-145.049
11
209.405
21
-145.764
0
LINE
8
BLACK
6
CONTINUOUS
10
209.405
20
-145.764
11
209.262
21
-146.049
0
LINE
8
BLACK
6
CONTINUOUS
10
209.262
20
-146.049
11
209.119
21
-146.192
0
LINE
8
BLACK
6
CONTINUOUS
10
209.119
20
-146.192
11
208.833
21
-146.335
0
LINE
8
BLACK
6
CONTINUOUS
10
208.833
20
-146.335
11
207.976
21
-146.335
0
LINE
8
BLACK
6
CONTINUOUS
10
207.976
20
-146.335
11
207.691
21
-146.192
0
LINE
8
BLACK
6
CONTINUOUS
10
207.691
20
-146.192
11
207.548
21
-146.049
0
LINE
8
BLACK
6
CONTINUOUS
10
212.262
20
-146.335
11
210.548
21
-146.335
0
LINE
8
BLACK
6
CONTINUOUS
10
211.405
20
-146.335
11
211.405
21
-143.335
0
LINE
8
BLACK
6
CONTINUOUS
10
211.405
20
-143.335
11
211.119
21
-143.764
0
LINE
8
BLACK
6
CONTINUOUS
10
211.119
20
-143.764
11
210.833
21
-144.049
0
LINE
8
BLACK
6
CONTINUOUS
10
210.833
20
-144.049
11
210.548
21
-144.192
0
LINE
8
BLACK
6
CONTINUOUS
10
213.405
20
-143.335
11
213.405
21
-143.907
0
LINE
8
BLACK
6
CONTINUOUS
10
214.548
20
-143.335
11
214.548
21
-143.907
0
LINE
8
BLACK
6
CONTINUOUS
10
218.976
20
-147.478
11
218.833
21
-147.335
0
LINE
8
BLACK
6
CONTINUOUS
10
218.833
20
-147.335
11
218.548
21
-146.907
0
LINE
8
BLACK
6
CONTINUOUS
10
218.548
20
-146.907
11
218.405
21
-146.621
0
LINE
8
BLACK
6
CONTINUOUS
10
218.405
20
-146.621
11
218.262
21
-146.192
0
LINE
8
BLACK
6
CONTINUOUS
10
218.262
20
-146.192
11
218.119
21
-145.478
0
LINE
8
BLACK
6
CONTINUOUS
10
218.119
20
-145.478
11
218.119
21
-144.907
0
LINE
8
BLACK
6
CONTINUOUS
10
218.119
20
-144.907
11
218.262
21
-144.192
0
LINE
8
BLACK
6
CONTINUOUS
10
218.262
20
-144.192
11
218.405
21
-143.764
0
LINE
8
BLACK
6
CONTINUOUS
10
218.405
20
-143.764
11
218.548
21
-143.478
0
LINE
8
BLACK
6
CONTINUOUS
10
218.548
20
-143.478
11
218.833
21
-143.049
0
LINE
8
BLACK
6
CONTINUOUS
10
218.833
20
-143.049
11
218.976
21
-142.907
0
LINE
8
BLACK
6
CONTINUOUS
10
219.833
20
-143.335
11
221.691
21
-143.335
0
LINE
8
BLACK
6
CONTINUOUS
10
221.691
20
-143.335
11
220.691
21
-144.478
0
LINE
8
BLACK
6
CONTINUOUS
10
220.691
20
-144.478
11
221.119
21
-144.478
0
LINE
8
BLACK
6
CONTINUOUS
10
221.119
20
-144.478
11
221.405
21
-144.621
0
LINE
8
BLACK
6
CONTINUOUS
10
221.405
20
-144.621
11
221.548
21
-144.764
0
LINE
8
BLACK
6
CONTINUOUS
10
221.548
20
-144.764
11
221.691
21
-145.049
0
LINE
8
BLACK
6
CONTINUOUS
10
221.691
20
-145.049
11
221.691
21
-145.764
0
LINE
8
BLACK
6
CONTINUOUS
10
221.691
20
-145.764
11
221.548
21
-146.049
0
LINE
8
BLACK
6
CONTINUOUS
10
221.548
20
-146.049
11
221.405
21
-146.192
0
LINE
8
BLACK
6
CONTINUOUS
10
221.405
20
-146.192
11
221.119
21
-146.335
0
LINE
8
BLACK
6
CONTINUOUS
10
221.119
20
-146.335
11
220.262
21
-146.335
0
LINE
8
BLACK
6
CONTINUOUS
10
220.262
20
-146.335
11
219.976
21
-146.192
0
LINE
8
BLACK
6
CONTINUOUS
10
219.976
20
-146.192
11
219.833
21
-146.049
0
LINE
8
BLACK
6
CONTINUOUS
10
223.548
20
-143.335
11
223.833
21
-143.335
0
LINE
8
BLACK
6
CONTINUOUS
10
223.833
20
-143.335
11
224.119
21
-143.478
0
LINE
8
BLACK
6
CONTINUOUS
10
224.119
20
-143.478
11
224.262
21
-143.621
0
LINE
8
BLACK
6
CONTINUOUS
10
224.262
20
-143.621
11
224.405
21
-143.907
0
LINE
8
BLACK
6
CONTINUOUS
10
224.405
20
-143.907
11
224.548
21
-144.478
0
LINE
8
BLACK
6
CONTINUOUS
10
224.548
20
-144.478
11
224.548
21
-145.192
0
LINE
8
BLACK
6
CONTINUOUS
10
224.548
20
-145.192
11
224.405
21
-145.764
0
LINE
8
BLACK
6
CONTINUOUS
10
224.405
20
-145.764
11
224.262
21
-146.049
0
LINE
8
BLACK
6
CONTINUOUS
10
224.262
20
-146.049
11
224.119
21
-146.192
0
LINE
8
BLACK
6
CONTINUOUS
10
224.119
20
-146.192
11
223.833
21
-146.335
0
LINE
8
BLACK
6
CONTINUOUS
10
223.833
20
-146.335
11
223.548
21
-146.335
0
LINE
8
BLACK
6
CONTINUOUS
10
223.548
20
-146.335
11
223.262
21
-146.192
0
LINE
8
BLACK
6
CONTINUOUS
10
223.262
20
-146.192
11
223.119
21
-146.049
0
LINE
8
BLACK
6
CONTINUOUS
10
223.119
20
-146.049
11
222.976
21
-145.764
0
LINE
8
BLACK
6
CONTINUOUS
10
222.976
20
-145.764
11
222.833
21
-145.192
0
LINE
8
BLACK
6
CONTINUOUS
10
222.833
20
-145.192
11
222.833
21
-144.478
0
LINE
8
BLACK
6
CONTINUOUS
10
222.833
20
-144.478
11
222.976
21
-143.907
0
LINE
8
BLACK
6
CONTINUOUS
10
222.976
20
-143.907
11
223.119
21
-143.621
0
LINE
8
BLACK
6
CONTINUOUS
10
223.119
20
-143.621
11
223.262
21
-143.478
0
LINE
8
BLACK
6
CONTINUOUS
10
223.262
20
-143.478
11
223.548
21
-143.335
0
LINE
8
BLACK
6
CONTINUOUS
10
228.119
20
-146.335
11
228.119
21
-143.335
0
LINE
8
BLACK
6
CONTINUOUS
10
229.405
20
-146.335
11
229.405
21
-144.764
0
LINE
8
BLACK
6
CONTINUOUS
10
229.405
20
-144.764
11
229.262
21
-144.478
0
LINE
8
BLACK
6
CONTINUOUS
10
229.262
20
-144.478
11
228.976
21
-144.335
0
LINE
8
BLACK
6
CONTINUOUS
10
228.976
20
-144.335
11
228.548
21
-144.335
0
LINE
8
BLACK
6
CONTINUOUS
10
228.548
20
-144.335
11
228.262
21
-144.478
0
LINE
8
BLACK
6
CONTINUOUS
10
228.262
20
-144.478
11
228.119
21
-144.621
0
LINE
8
BLACK
6
CONTINUOUS
10
231.262
20
-146.335
11
230.976
21
-146.192
0
LINE
8
BLACK
6
CONTINUOUS
10
230.976
20
-146.192
11
230.833
21
-146.049
0
LINE
8
BLACK
6
CONTINUOUS
10
230.833
20
-146.049
11
230.691
21
-145.764
0
LINE
8
BLACK
6
CONTINUOUS
10
230.691
20
-145.764
11
230.691
21
-144.907
0
LINE
8
BLACK
6
CONTINUOUS
10
230.691
20
-144.907
11
230.833
21
-144.621
0
LINE
8
BLACK
6
CONTINUOUS
10
230.833
20
-144.621
11
230.976
21
-144.478
0
LINE
8
BLACK
6
CONTINUOUS
10
230.976
20
-144.478
11
231.262
21
-144.335
0
LINE
8
BLACK
6
CONTINUOUS
10
231.262
20
-144.335
11
231.691
21
-144.335
0
LINE
8
BLACK
6
CONTINUOUS
10
231.691
20
-144.335
11
231.976
21
-144.478
0
LINE
8
BLACK
6
CONTINUOUS
10
231.976
20
-144.478
11
232.119
21
-144.621
0
LINE
8
BLACK
6
CONTINUOUS
10
232.119
20
-144.621
11
232.262
21
-144.907
0
LINE
8
BLACK
6
CONTINUOUS
10
232.262
20
-144.907
11
232.262
21
-145.764
0
LINE
8
BLACK
6
CONTINUOUS
10
232.262
20
-145.764
11
232.119
21
-146.049
0
LINE
8
BLACK
6
CONTINUOUS
10
232.119
20
-146.049
11
231.976
21
-146.192
0
LINE
8
BLACK
6
CONTINUOUS
10
231.976
20
-146.192
11
231.691
21
-146.335
0
LINE
8
BLACK
6
CONTINUOUS
10
231.691
20
-146.335
11
231.262
21
-146.335
0
LINE
8
BLACK
6
CONTINUOUS
10
233.976
20
-146.335
11
233.691
21
-146.192
0
LINE
8
BLACK
6
CONTINUOUS
10
233.691
20
-146.192
11
233.548
21
-145.907
0
LINE
8
BLACK
6
CONTINUOUS
10
233.548
20
-145.907
11
233.548
21
-143.335
0
LINE
8
BLACK
6
CONTINUOUS
10
236.262
20
-146.192
11
235.976
21
-146.335
0
LINE
8
BLACK
6
CONTINUOUS
10
235.976
20
-146.335
11
235.405
21
-146.335
0
LINE
8
BLACK
6
CONTINUOUS
10
235.405
20
-146.335
11
235.119
21
-146.192
0
LINE
8
BLACK
6
CONTINUOUS
10
235.119
20
-146.192
11
234.976
21
-145.907
0
LINE
8
BLACK
6
CONTINUOUS
10
234.976
20
-145.907
11
234.976
21
-144.764
0
LINE
8
BLACK
6
CONTINUOUS
10
234.976
20
-144.764
11
235.119
21
-144.478
0
LINE
8
BLACK
6
CONTINUOUS
10
235.119
20
-144.478
11
235.405
21
-144.335
0
LINE
8
BLACK
6
CONTINUOUS
10
235.405
20
-144.335
11
235.976
21
-144.335
0
LINE
8
BLACK
6
CONTINUOUS
10
235.976
20
-144.335
11
236.262
21
-144.478
0
LINE
8
BLACK
6
CONTINUOUS
10
236.262
20
-144.478
11
236.405
21
-144.764
0
LINE
8
BLACK
6
CONTINUOUS
10
236.405
20
-144.764
11
236.405
21
-145.049
0
LINE
8
BLACK
6
CONTINUOUS
10
236.405
20
-145.049
11
234.976
21
-145.335
0
LINE
8
BLACK
6
CONTINUOUS
10
237.548
20
-146.192
11
237.833
21
-146.335
0
LINE
8
BLACK
6
CONTINUOUS
10
237.833
20
-146.335
11
238.405
21
-146.335
0
LINE
8
BLACK
6
CONTINUOUS
10
238.405
20
-146.335
11
238.691
21
-146.192
0
LINE
8
BLACK
6
CONTINUOUS
10
238.691
20
-146.192
11
238.833
21
-145.907
0
LINE
8
BLACK
6
CONTINUOUS
10
238.833
20
-145.907
11
238.833
21
-145.764
0
LINE
8
BLACK
6
CONTINUOUS
10
238.833
20
-145.764
11
238.691
21
-145.478
0
LINE
8
BLACK
6
CONTINUOUS
10
238.691
20
-145.478
11
238.405
21
-145.335
0
LINE
8
BLACK
6
CONTINUOUS
10
238.405
20
-145.335
11
237.976
21
-145.335
0
LINE
8
BLACK
6
CONTINUOUS
10
237.976
20
-145.335
11
237.691
21
-145.192
0
LINE
8
BLACK
6
CONTINUOUS
10
237.691
20
-145.192
11
237.548
21
-144.907
0
LINE
8
BLACK
6
CONTINUOUS
10
237.548
20
-144.907
11
237.548
21
-144.764
0
LINE
8
BLACK
6
CONTINUOUS
10
237.548
20
-144.764
11
237.691
21
-144.478
0
LINE
8
BLACK
6
CONTINUOUS
10
237.691
20
-144.478
11
237.976
21
-144.335
0
LINE
8
BLACK
6
CONTINUOUS
10
237.976
20
-144.335
11
238.405
21
-144.335
0
LINE
8
BLACK
6
CONTINUOUS
10
238.405
20
-144.335
11
238.691
21
-144.478
0
LINE
8
BLACK
6
CONTINUOUS
10
239.833
20
-147.478
11
239.976
21
-147.335
0
LINE
8
BLACK
6
CONTINUOUS
10
239.976
20
-147.335
11
240.262
21
-146.907
0
LINE
8
BLACK
6
CONTINUOUS
10
240.262
20
-146.907
11
240.405
21
-146.621
0
LINE
8
BLACK
6
CONTINUOUS
10
240.405
20
-146.621
11
240.548
21
-146.192
0
LINE
8
BLACK
6
CONTINUOUS
10
240.548
20
-146.192
11
240.691
21
-145.478
0
LINE
8
BLACK
6
CONTINUOUS
10
240.691
20
-145.478
11
240.691
21
-144.907
0
LINE
8
BLACK
6
CONTINUOUS
10
240.691
20
-144.907
11
240.548
21
-144.192
0
LINE
8
BLACK
6
CONTINUOUS
10
240.548
20
-144.192
11
240.405
21
-143.764
0
LINE
8
BLACK
6
CONTINUOUS
10
240.405
20
-143.764
11
240.262
21
-143.478
0
LINE
8
BLACK
6
CONTINUOUS
10
240.262
20
-143.478
11
239.976
21
-143.049
0
LINE
8
BLACK
6
CONTINUOUS
10
239.976
20
-143.049
11
239.833
21
-142.907
0
LINE
8
BLACK
6
CONTINUOUS
10
171.362
20
-148.188
11
171.362
21
-149.688
0
LINE
8
BLACK
6
CONTINUOUS
10
170.612
20
-148.938
11
172.112
21
-148.938
0
LINE
8
BLACK
6
CONTINUOUS
10
176.548
20
-150.295
11
174.833
21
-150.295
0
LINE
8
BLACK
6
CONTINUOUS
10
175.691
20
-150.295
11
175.691
21
-147.295
0
LINE
8
BLACK
6
CONTINUOUS
10
175.691
20
-147.295
11
175.405
21
-147.724
0
LINE
8
BLACK
6
CONTINUOUS
10
175.405
20
-147.724
11
175.119
21
-148.009
0
LINE
8
BLACK
6
CONTINUOUS
10
175.119
20
-148.009
11
174.833
21
-148.152
0
LINE
8
BLACK
6
CONTINUOUS
10
177.833
20
-150.009
11
177.976
21
-150.152
0
LINE
8
BLACK
6
CONTINUOUS
10
177.976
20
-150.152
11
177.833
21
-150.295
0
LINE
8
BLACK
6
CONTINUOUS
10
177.833
20
-150.295
11
177.691
21
-150.152
0
LINE
8
BLACK
6
CONTINUOUS
10
177.691
20
-150.152
11
177.833
21
-150.009
0
LINE
8
BLACK
6
CONTINUOUS
10
177.833
20
-150.009
11
177.833
21
-150.295
0
LINE
8
BLACK
6
CONTINUOUS
10
180.691
20
-147.295
11
179.262
21
-147.295
0
LINE
8
BLACK
6
CONTINUOUS
10
179.262
20
-147.295
11
179.119
21
-148.724
0
LINE
8
BLACK
6
CONTINUOUS
10
179.119
20
-148.724
11
179.262
21
-148.581
0
LINE
8
BLACK
6
CONTINUOUS
10
179.262
20
-148.581
11
179.548
21
-148.438
0
LINE
8
BLACK
6
CONTINUOUS
10
179.548
20
-148.438
11
180.262
21
-148.438
0
LINE
8
BLACK
6
CONTINUOUS
10
180.262
20
-148.438
11
180.548
21
-148.581
0
LINE
8
BLACK
6
CONTINUOUS
10
180.548
20
-148.581
11
180.691
21
-148.724
0
LINE
8
BLACK
6
CONTINUOUS
10
180.691
20
-148.724
11
180.833
21
-149.009
0
LINE
8
BLACK
6
CONTINUOUS
10
180.833
20
-149.009
11
180.833
21
-149.724
0
LINE
8
BLACK
6
CONTINUOUS
10
180.833
20
-149.724
11
180.691
21
-150.009
0
LINE
8
BLACK
6
CONTINUOUS
10
180.691
20
-150.009
11
180.548
21
-150.152
0
LINE
8
BLACK
6
CONTINUOUS
10
180.548
20
-150.152
11
180.262
21
-150.295
0
LINE
8
BLACK
6
CONTINUOUS
10
180.262
20
-150.295
11
179.548
21
-150.295
0
LINE
8
BLACK
6
CONTINUOUS
10
179.548
20
-150.295
11
179.262
21
-150.152
0
LINE
8
BLACK
6
CONTINUOUS
10
179.262
20
-150.152
11
179.119
21
-150.009
0
LINE
8
BLACK
6
CONTINUOUS
10
182.691
20
-147.295
11
182.976
21
-147.295
0
LINE
8
BLACK
6
CONTINUOUS
10
182.976
20
-147.295
11
183.262
21
-147.438
0
LINE
8
BLACK
6
CONTINUOUS
10
183.262
20
-147.438
11
183.405
21
-147.581
0
LINE
8
BLACK
6
CONTINUOUS
10
183.405
20
-147.581
11
183.548
21
-147.867
0
LINE
8
BLACK
6
CONTINUOUS
10
183.548
20
-147.867
11
183.691
21
-148.438
0
LINE
8
BLACK
6
CONTINUOUS
10
183.691
20
-148.438
11
183.691
21
-149.152
0
LINE
8
BLACK
6
CONTINUOUS
10
183.691
20
-149.152
11
183.548
21
-149.724
0
LINE
8
BLACK
6
CONTINUOUS
10
183.548
20
-149.724
11
183.405
21
-150.009
0
LINE
8
BLACK
6
CONTINUOUS
10
183.405
20
-150.009
11
183.262
21
-150.152
0
LINE
8
BLACK
6
CONTINUOUS
10
183.262
20
-150.152
11
182.976
21
-150.295
0
LINE
8
BLACK
6
CONTINUOUS
10
182.976
20
-150.295
11
182.691
21
-150.295
0
LINE
8
BLACK
6
CONTINUOUS
10
182.691
20
-150.295
11
182.405
21
-150.152
0
LINE
8
BLACK
6
CONTINUOUS
10
182.405
20
-150.152
11
182.262
21
-150.009
0
LINE
8
BLACK
6
CONTINUOUS
10
182.262
20
-150.009
11
182.119
21
-149.724
0
LINE
8
BLACK
6
CONTINUOUS
10
182.119
20
-149.724
11
181.976
21
-149.152
0
LINE
8
BLACK
6
CONTINUOUS
10
181.976
20
-149.152
11
181.976
21
-148.438
0
LINE
8
BLACK
6
CONTINUOUS
10
181.976
20
-148.438
11
182.119
21
-147.867
0
LINE
8
BLACK
6
CONTINUOUS
10
182.119
20
-147.867
11
182.262
21
-147.581
0
LINE
8
BLACK
6
CONTINUOUS
10
182.262
20
-147.581
11
182.405
21
-147.438
0
LINE
8
BLACK
6
CONTINUOUS
10
182.405
20
-147.438
11
182.691
21
-147.295
0
LINE
8
BLACK
6
CONTINUOUS
10
184.976
20
-150.295
11
184.976
21
-148.295
0
LINE
8
BLACK
6
CONTINUOUS
10
184.976
20
-148.581
11
185.119
21
-148.438
0
LINE
8
BLACK
6
CONTINUOUS
10
185.119
20
-148.438
11
185.405
21
-148.295
0
LINE
8
BLACK
6
CONTINUOUS
10
185.405
20
-148.295
11
185.833
21
-148.295
0
LINE
8
BLACK
6
CONTINUOUS
10
185.833
20
-148.295
11
186.119
21
-148.438
0
LINE
8
BLACK
6
CONTINUOUS
10
186.119
20
-148.438
11
186.262
21
-148.724
0
LINE
8
BLACK
6
CONTINUOUS
10
186.262
20
-148.724
11
186.262
21
-150.295
0
LINE
8
BLACK
6
CONTINUOUS
10
186.262
20
-148.724
11
186.405
21
-148.438
0
LINE
8
BLACK
6
CONTINUOUS
10
186.405
20
-148.438
11
186.691
21
-148.295
0
LINE
8
BLACK
6
CONTINUOUS
10
186.691
20
-148.295
11
187.119
21
-148.295
0
LINE
8
BLACK
6
CONTINUOUS
10
187.119
20
-148.295
11
187.405
21
-148.438
0
LINE
8
BLACK
6
CONTINUOUS
10
187.405
20
-148.438
11
187.548
21
-148.724
0
LINE
8
BLACK
6
CONTINUOUS
10
187.548
20
-148.724
11
187.548
21
-150.295
0
LINE
8
BLACK
6
CONTINUOUS
10
188.976
20
-150.295
11
188.976
21
-148.295
0
LINE
8
BLACK
6
CONTINUOUS
10
188.976
20
-148.581
11
189.119
21
-148.438
0
LINE
8
BLACK
6
CONTINUOUS
10
189.119
20
-148.438
11
189.405
21
-148.295
0
LINE
8
BLACK
6
CONTINUOUS
10
189.405
20
-148.295
11
189.833
21
-148.295
0
LINE
8
BLACK
6
CONTINUOUS
10
189.833
20
-148.295
11
190.119
21
-148.438
0
LINE
8
BLACK
6
CONTINUOUS
10
190.119
20
-148.438
11
190.262
21
-148.724
0
LINE
8
BLACK
6
CONTINUOUS
10
190.262
20
-148.724
11
190.262
21
-150.295
0
LINE
8
BLACK
6
CONTINUOUS
10
190.262
20
-148.724
11
190.405
21
-148.438
0
LINE
8
BLACK
6
CONTINUOUS
10
190.405
20
-148.438
11
190.691
21
-148.295
0
LINE
8
BLACK
6
CONTINUOUS
10
190.691
20
-148.295
11
191.119
21
-148.295
0
LINE
8
BLACK
6
CONTINUOUS
10
191.119
20
-148.295
11
191.405
21
-148.438
0
LINE
8
BLACK
6
CONTINUOUS
10
191.405
20
-148.438
11
191.548
21
-148.724
0
LINE
8
BLACK
6
CONTINUOUS
10
191.548
20
-148.724
11
191.548
21
-150.295
0
LINE
8
BLACK
6
CONTINUOUS
10
197.405
20
-147.152
11
194.833
21
-151.009
0
LINE
8
BLACK
6
CONTINUOUS
10
201.262
20
-147.295
11
201.548
21
-147.295
0
LINE
8
BLACK
6
CONTINUOUS
10
201.548
20
-147.295
11
201.833
21
-147.438
0
LINE
8
BLACK
6
CONTINUOUS
10
201.833
20
-147.438
11
201.976
21
-147.581
0
LINE
8
BLACK
6
CONTINUOUS
10
201.976
20
-147.581
11
202.119
21
-147.867
0
LINE
8
BLACK
6
CONTINUOUS
10
202.119
20
-147.867
11
202.262
21
-148.438
0
LINE
8
BLACK
6
CONTINUOUS
10
202.262
20
-148.438
11
202.262
21
-149.152
0
LINE
8
BLACK
6
CONTINUOUS
10
202.262
20
-149.152
11
202.119
21
-149.724
0
LINE
8
BLACK
6
CONTINUOUS
10
202.119
20
-149.724
11
201.976
21
-150.009
0
LINE
8
BLACK
6
CONTINUOUS
10
201.976
20
-150.009
11
201.833
21
-150.152
0
LINE
8
BLACK
6
CONTINUOUS
10
201.833
20
-150.152
11
201.548
21
-150.295
0
LINE
8
BLACK
6
CONTINUOUS
10
201.548
20
-150.295
11
201.262
21
-150.295
0
LINE
8
BLACK
6
CONTINUOUS
10
201.262
20
-150.295
11
200.976
21
-150.152
0
LINE
8
BLACK
6
CONTINUOUS
10
200.976
20
-150.152
11
200.833
21
-150.009
0
LINE
8
BLACK
6
CONTINUOUS
10
200.833
20
-150.009
11
200.691
21
-149.724
0
LINE
8
BLACK
6
CONTINUOUS
10
200.691
20
-149.724
11
200.548
21
-149.152
0
LINE
8
BLACK
6
CONTINUOUS
10
200.548
20
-149.152
11
200.548
21
-148.438
0
LINE
8
BLACK
6
CONTINUOUS
10
200.548
20
-148.438
11
200.691
21
-147.867
0
LINE
8
BLACK
6
CONTINUOUS
10
200.691
20
-147.867
11
200.833
21
-147.581
0
LINE
8
BLACK
6
CONTINUOUS
10
200.833
20
-147.581
11
200.976
21
-147.438
0
LINE
8
BLACK
6
CONTINUOUS
10
200.976
20
-147.438
11
201.262
21
-147.295
0
LINE
8
BLACK
6
CONTINUOUS
10
203.548
20
-150.009
11
203.691
21
-150.152
0
LINE
8
BLACK
6
CONTINUOUS
10
203.691
20
-150.152
11
203.548
21
-150.295
0
LINE
8
BLACK
6
CONTINUOUS
10
203.548
20
-150.295
11
203.405
21
-150.152
0
LINE
8
BLACK
6
CONTINUOUS
10
203.405
20
-150.152
11
203.548
21
-150.009
0
LINE
8
BLACK
6
CONTINUOUS
10
203.548
20
-150.009
11
203.548
21
-150.295
0
LINE
8
BLACK
6
CONTINUOUS
10
205.548
20
-147.295
11
205.833
21
-147.295
0
LINE
8
BLACK
6
CONTINUOUS
10
205.833
20
-147.295
11
206.119
21
-147.438
0
LINE
8
BLACK
6
CONTINUOUS
10
206.119
20
-147.438
11
206.262
21
-147.581
0
LINE
8
BLACK
6
CONTINUOUS
10
206.262
20
-147.581
11
206.405
21
-147.867
0
LINE
8
BLACK
6
CONTINUOUS
10
206.405
20
-147.867
11
206.548
21
-148.438
0
LINE
8
BLACK
6
CONTINUOUS
10
206.548
20
-148.438
11
206.548
21
-149.152
0
LINE
8
BLACK
6
CONTINUOUS
10
206.548
20
-149.152
11
206.405
21
-149.724
0
LINE
8
BLACK
6
CONTINUOUS
10
206.405
20
-149.724
11
206.262
21
-150.009
0
LINE
8
BLACK
6
CONTINUOUS
10
206.262
20
-150.009
11
206.119
21
-150.152
0
LINE
8
BLACK
6
CONTINUOUS
10
206.119
20
-150.152
11
205.833
21
-150.295
0
LINE
8
BLACK
6
CONTINUOUS
10
205.833
20
-150.295
11
205.548
21
-150.295
0
LINE
8
BLACK
6
CONTINUOUS
10
205.548
20
-150.295
11
205.262
21
-150.152
0
LINE
8
BLACK
6
CONTINUOUS
10
205.262
20
-150.152
11
205.119
21
-150.009
0
LINE
8
BLACK
6
CONTINUOUS
10
205.119
20
-150.009
11
204.976
21
-149.724
0
LINE
8
BLACK
6
CONTINUOUS
10
204.976
20
-149.724
11
204.833
21
-149.152
0
LINE
8
BLACK
6
CONTINUOUS
10
204.833
20
-149.152
11
204.833
21
-148.438
0
LINE
8
BLACK
6
CONTINUOUS
10
204.833
20
-148.438
11
204.976
21
-147.867
0
LINE
8
BLACK
6
CONTINUOUS
10
204.976
20
-147.867
11
205.119
21
-147.581
0
LINE
8
BLACK
6
CONTINUOUS
10
205.119
20
-147.581
11
205.262
21
-147.438
0
LINE
8
BLACK
6
CONTINUOUS
10
205.262
20
-147.438
11
205.548
21
-147.295
0
LINE
8
BLACK
6
CONTINUOUS
10
209.262
20
-147.295
11
207.833
21
-147.295
0
LINE
8
BLACK
6
CONTINUOUS
10
207.833
20
-147.295
11
207.691
21
-148.724
0
LINE
8
BLACK
6
CONTINUOUS
10
207.691
20
-148.724
11
207.833
21
-148.581
0
LINE
8
BLACK
6
CONTINUOUS
10
207.833
20
-148.581
11
208.119
21
-148.438
0
LINE
8
BLACK
6
CONTINUOUS
10
208.119
20
-148.438
11
208.833
21
-148.438
0
LINE
8
BLACK
6
CONTINUOUS
10
208.833
20
-148.438
11
209.119
21
-148.581
0
LINE
8
BLACK
6
CONTINUOUS
10
209.119
20
-148.581
11
209.262
21
-148.724
0
LINE
8
BLACK
6
CONTINUOUS
10
209.262
20
-148.724
11
209.405
21
-149.009
0
LINE
8
BLACK
6
CONTINUOUS
10
209.405
20
-149.009
11
209.405
21
-149.724
0
LINE
8
BLACK
6
CONTINUOUS
10
209.405
20
-149.724
11
209.262
21
-150.009
0
LINE
8
BLACK
6
CONTINUOUS
10
209.262
20
-150.009
11
209.119
21
-150.152
0
LINE
8
BLACK
6
CONTINUOUS
10
209.119
20
-150.152
11
208.833
21
-150.295
0
LINE
8
BLACK
6
CONTINUOUS
10
208.833
20
-150.295
11
208.119
21
-150.295
0
LINE
8
BLACK
6
CONTINUOUS
10
208.119
20
-150.295
11
207.833
21
-150.152
0
LINE
8
BLACK
6
CONTINUOUS
10
207.833
20
-150.152
11
207.691
21
-150.009
0
LINE
8
BLACK
6
CONTINUOUS
10
210.833
20
-150.295
11
211.405
21
-150.295
0
LINE
8
BLACK
6
CONTINUOUS
10
211.405
20
-150.295
11
211.691
21
-150.152
0
LINE
8
BLACK
6
CONTINUOUS
10
211.691
20
-150.152
11
211.833
21
-150.009
0
LINE
8
BLACK
6
CONTINUOUS
10
211.833
20
-150.009
11
212.119
21
-149.581
0
LINE
8
BLACK
6
CONTINUOUS
10
212.119
20
-149.581
11
212.262
21
-149.009
0
LINE
8
BLACK
6
CONTINUOUS
10
212.262
20
-149.009
11
212.262
21
-147.867
0
LINE
8
BLACK
6
CONTINUOUS
10
212.262
20
-147.867
11
212.119
21
-147.581
0
LINE
8
BLACK
6
CONTINUOUS
10
212.119
20
-147.581
11
211.976
21
-147.438
0
LINE
8
BLACK
6
CONTINUOUS
10
211.976
20
-147.438
11
211.691
21
-147.295
0
LINE
8
BLACK
6
CONTINUOUS
10
211.691
20
-147.295
11
211.119
21
-147.295
0
LINE
8
BLACK
6
CONTINUOUS
10
211.119
20
-147.295
11
210.833
21
-147.438
0
LINE
8
BLACK
6
CONTINUOUS
10
210.833
20
-147.438
11
210.691
21
-147.581
0
LINE
8
BLACK
6
CONTINUOUS
10
210.691
20
-147.581
11
210.548
21
-147.867
0
LINE
8
BLACK
6
CONTINUOUS
10
210.548
20
-147.867
11
210.548
21
-148.581
0
LINE
8
BLACK
6
CONTINUOUS
10
210.548
20
-148.581
11
210.691
21
-148.867
0
LINE
8
BLACK
6
CONTINUOUS
10
210.691
20
-148.867
11
210.833
21
-149.009
0
LINE
8
BLACK
6
CONTINUOUS
10
210.833
20
-149.009
11
211.119
21
-149.152
0
LINE
8
BLACK
6
CONTINUOUS
10
211.119
20
-149.152
11
211.691
21
-149.152
0
LINE
8
BLACK
6
CONTINUOUS
10
211.691
20
-149.152
11
211.976
21
-149.009
0
LINE
8
BLACK
6
CONTINUOUS
10
211.976
20
-149.009
11
212.119
21
-148.867
0
LINE
8
BLACK
6
CONTINUOUS
10
212.119
20
-148.867
11
212.262
21
-148.581
0
LINE
8
BLACK
6
CONTINUOUS
10
213.405
20
-147.295
11
213.405
21
-147.867
0
LINE
8
BLACK
6
CONTINUOUS
10
214.548
20
-147.295
11
214.548
21
-147.867
0
LINE
8
BLACK
6
CONTINUOUS
10
218.976
20
-151.438
11
218.833
21
-151.295
0
LINE
8
BLACK
6
CONTINUOUS
10
218.833
20
-151.295
11
218.548
21
-150.867
0
LINE
8
BLACK
6
CONTINUOUS
10
218.548
20
-150.867
11
218.405
21
-150.581
0
LINE
8
BLACK
6
CONTINUOUS
10
218.405
20
-150.581
11
218.262
21
-150.152
0
LINE
8
BLACK
6
CONTINUOUS
10
218.262
20
-150.152
11
218.119
21
-149.438
0
LINE
8
BLACK
6
CONTINUOUS
10
218.119
20
-149.438
11
218.119
21
-148.867
0
LINE
8
BLACK
6
CONTINUOUS
10
218.119
20
-148.867
11
218.262
21
-148.152
0
LINE
8
BLACK
6
CONTINUOUS
10
218.262
20
-148.152
11
218.405
21
-147.724
0
LINE
8
BLACK
6
CONTINUOUS
10
218.405
20
-147.724
11
218.548
21
-147.438
0
LINE
8
BLACK
6
CONTINUOUS
10
218.548
20
-147.438
11
218.833
21
-147.009
0
LINE
8
BLACK
6
CONTINUOUS
10
218.833
20
-147.009
11
218.976
21
-146.867
0
LINE
8
BLACK
6
CONTINUOUS
10
219.833
20
-147.295
11
221.691
21
-147.295
0
LINE
8
BLACK
6
CONTINUOUS
10
221.691
20
-147.295
11
220.691
21
-148.438
0
LINE
8
BLACK
6
CONTINUOUS
10
220.691
20
-148.438
11
221.119
21
-148.438
0
LINE
8
BLACK
6
CONTINUOUS
10
221.119
20
-148.438
11
221.405
21
-148.581
0
LINE
8
BLACK
6
CONTINUOUS
10
221.405
20
-148.581
11
221.548
21
-148.724
0
LINE
8
BLACK
6
CONTINUOUS
10
221.548
20
-148.724
11
221.691
21
-149.009
0
LINE
8
BLACK
6
CONTINUOUS
10
221.691
20
-149.009
11
221.691
21
-149.724
0
LINE
8
BLACK
6
CONTINUOUS
10
221.691
20
-149.724
11
221.548
21
-150.009
0
LINE
8
BLACK
6
CONTINUOUS
10
221.548
20
-150.009
11
221.405
21
-150.152
0
LINE
8
BLACK
6
CONTINUOUS
10
221.405
20
-150.152
11
221.119
21
-150.295
0
LINE
8
BLACK
6
CONTINUOUS
10
221.119
20
-150.295
11
220.262
21
-150.295
0
LINE
8
BLACK
6
CONTINUOUS
10
220.262
20
-150.295
11
219.976
21
-150.152
0
LINE
8
BLACK
6
CONTINUOUS
10
219.976
20
-150.152
11
219.833
21
-150.009
0
LINE
8
BLACK
6
CONTINUOUS
10
223.548
20
-147.295
11
223.833
21
-147.295
0
LINE
8
BLACK
6
CONTINUOUS
10
223.833
20
-147.295
11
224.119
21
-147.438
0
LINE
8
BLACK
6
CONTINUOUS
10
224.119
20
-147.438
11
224.262
21
-147.581
0
LINE
8
BLACK
6
CONTINUOUS
10
224.262
20
-147.581
11
224.405
21
-147.867
0
LINE
8
BLACK
6
CONTINUOUS
10
224.405
20
-147.867
11
224.548
21
-148.438
0
LINE
8
BLACK
6
CONTINUOUS
10
224.548
20
-148.438
11
224.548
21
-149.152
0
LINE
8
BLACK
6
CONTINUOUS
10
224.548
20
-149.152
11
224.405
21
-149.724
0
LINE
8
BLACK
6
CONTINUOUS
10
224.405
20
-149.724
11
224.262
21
-150.009
0
LINE
8
BLACK
6
CONTINUOUS
10
224.262
20
-150.009
11
224.119
21
-150.152
0
LINE
8
BLACK
6
CONTINUOUS
10
224.119
20
-150.152
11
223.833
21
-150.295
0
LINE
8
BLACK
6
CONTINUOUS
10
223.833
20
-150.295
11
223.548
21
-150.295
0
LINE
8
BLACK
6
CONTINUOUS
10
223.548
20
-150.295
11
223.262
21
-150.152
0
LINE
8
BLACK
6
CONTINUOUS
10
223.262
20
-150.152
11
223.119
21
-150.009
0
LINE
8
BLACK
6
CONTINUOUS
10
223.119
20
-150.009
11
222.976
21
-149.724
0
LINE
8
BLACK
6
CONTINUOUS
10
222.976
20
-149.724
11
222.833
21
-149.152
0
LINE
8
BLACK
6
CONTINUOUS
10
222.833
20
-149.152
11
222.833
21
-148.438
0
LINE
8
BLACK
6
CONTINUOUS
10
222.833
20
-148.438
11
222.976
21
-147.867
0
LINE
8
BLACK
6
CONTINUOUS
10
222.976
20
-147.867
11
223.119
21
-147.581
0
LINE
8
BLACK
6
CONTINUOUS
10
223.119
20
-147.581
11
223.262
21
-147.438
0
LINE
8
BLACK
6
CONTINUOUS
10
223.262
20
-147.438
11
223.548
21
-147.295
0
LINE
8
BLACK
6
CONTINUOUS
10
228.119
20
-150.295
11
228.119
21
-147.295
0
LINE
8
BLACK
6
CONTINUOUS
10
229.405
20
-150.295
11
229.405
21
-148.724
0
LINE
8
BLACK
6
CONTINUOUS
10
229.405
20
-148.724
11
229.262
21
-148.438
0
LINE
8
BLACK
6
CONTINUOUS
10
229.262
20
-148.438
11
228.976
21
-148.295
0
LINE
8
BLACK
6
CONTINUOUS
10
228.976
20
-148.295
11
228.548
21
-148.295
0
LINE
8
BLACK
6
CONTINUOUS
10
228.548
20
-148.295
11
228.262
21
-148.438
0
LINE
8
BLACK
6
CONTINUOUS
10
228.262
20
-148.438
11
228.119
21
-148.581
0
LINE
8
BLACK
6
CONTINUOUS
10
231.262
20
-150.295
11
230.976
21
-150.152
0
LINE
8
BLACK
6
CONTINUOUS
10
230.976
20
-150.152
11
230.833
21
-150.009
0
LINE
8
BLACK
6
CONTINUOUS
10
230.833
20
-150.009
11
230.691
21
-149.724
0
LINE
8
BLACK
6
CONTINUOUS
10
230.691
20
-149.724
11
230.691
21
-148.867
0
LINE
8
BLACK
6
CONTINUOUS
10
230.691
20
-148.867
11
230.833
21
-148.581
0
LINE
8
BLACK
6
CONTINUOUS
10
230.833
20
-148.581
11
230.976
21
-148.438
0
LINE
8
BLACK
6
CONTINUOUS
10
230.976
20
-148.438
11
231.262
21
-148.295
0
LINE
8
BLACK
6
CONTINUOUS
10
231.262
20
-148.295
11
231.691
21
-148.295
0
LINE
8
BLACK
6
CONTINUOUS
10
231.691
20
-148.295
11
231.976
21
-148.438
0
LINE
8
BLACK
6
CONTINUOUS
10
231.976
20
-148.438
11
232.119
21
-148.581
0
LINE
8
BLACK
6
CONTINUOUS
10
232.119
20
-148.581
11
232.262
21
-148.867
0
LINE
8
BLACK
6
CONTINUOUS
10
232.262
20
-148.867
11
232.262
21
-149.724
0
LINE
8
BLACK
6
CONTINUOUS
10
232.262
20
-149.724
11
232.119
21
-150.009
0
LINE
8
BLACK
6
CONTINUOUS
10
232.119
20
-150.009
11
231.976
21
-150.152
0
LINE
8
BLACK
6
CONTINUOUS
10
231.976
20
-150.152
11
231.691
21
-150.295
0
LINE
8
BLACK
6
CONTINUOUS
10
231.691
20
-150.295
11
231.262
21
-150.295
0
LINE
8
BLACK
6
CONTINUOUS
10
233.976
20
-150.295
11
233.691
21
-150.152
0
LINE
8
BLACK
6
CONTINUOUS
10
233.691
20
-150.152
11
233.548
21
-149.867
0
LINE
8
BLACK
6
CONTINUOUS
10
233.548
20
-149.867
11
233.548
21
-147.295
0
LINE
8
BLACK
6
CONTINUOUS
10
236.262
20
-150.152
11
235.976
21
-150.295
0
LINE
8
BLACK
6
CONTINUOUS
10
235.976
20
-150.295
11
235.405
21
-150.295
0
LINE
8
BLACK
6
CONTINUOUS
10
235.405
20
-150.295
11
235.119
21
-150.152
0
LINE
8
BLACK
6
CONTINUOUS
10
235.119
20
-150.152
11
234.976
21
-149.867
0
LINE
8
BLACK
6
CONTINUOUS
10
234.976
20
-149.867
11
234.976
21
-148.724
0
LINE
8
BLACK
6
CONTINUOUS
10
234.976
20
-148.724
11
235.119
21
-148.438
0
LINE
8
BLACK
6
CONTINUOUS
10
235.119
20
-148.438
11
235.405
21
-148.295
0
LINE
8
BLACK
6
CONTINUOUS
10
235.405
20
-148.295
11
235.976
21
-148.295
0
LINE
8
BLACK
6
CONTINUOUS
10
235.976
20
-148.295
11
236.262
21
-148.438
0
LINE
8
BLACK
6
CONTINUOUS
10
236.262
20
-148.438
11
236.405
21
-148.724
0
LINE
8
BLACK
6
CONTINUOUS
10
236.405
20
-148.724
11
236.405
21
-149.009
0
LINE
8
BLACK
6
CONTINUOUS
10
236.405
20
-149.009
11
234.976
21
-149.295
0
LINE
8
BLACK
6
CONTINUOUS
10
237.548
20
-150.152
11
237.833
21
-150.295
0
LINE
8
BLACK
6
CONTINUOUS
10
237.833
20
-150.295
11
238.405
21
-150.295
0
LINE
8
BLACK
6
CONTINUOUS
10
238.405
20
-150.295
11
238.691
21
-150.152
0
LINE
8
BLACK
6
CONTINUOUS
10
238.691
20
-150.152
11
238.833
21
-149.867
0
LINE
8
BLACK
6
CONTINUOUS
10
238.833
20
-149.867
11
238.833
21
-149.724
0
LINE
8
BLACK
6
CONTINUOUS
10
238.833
20
-149.724
11
238.691
21
-149.438
0
LINE
8
BLACK
6
CONTINUOUS
10
238.691
20
-149.438
11
238.405
21
-149.295
0
LINE
8
BLACK
6
CONTINUOUS
10
238.405
20
-149.295
11
237.976
21
-149.295
0
LINE
8
BLACK
6
CONTINUOUS
10
237.976
20
-149.295
11
237.691
21
-149.152
0
LINE
8
BLACK
6
CONTINUOUS
10
237.691
20
-149.152
11
237.548
21
-148.867
0
LINE
8
BLACK
6
CONTINUOUS
10
237.548
20
-148.867
11
237.548
21
-148.724
0
LINE
8
BLACK
6
CONTINUOUS
10
237.548
20
-148.724
11
237.691
21
-148.438
0
LINE
8
BLACK
6
CONTINUOUS
10
237.691
20
-148.438
11
237.976
21
-148.295
0
LINE
8
BLACK
6
CONTINUOUS
10
237.976
20
-148.295
11
238.405
21
-148.295
0
LINE
8
BLACK
6
CONTINUOUS
10
238.405
20
-148.295
11
238.691
21
-148.438
0
LINE
8
BLACK
6
CONTINUOUS
10
239.833
20
-151.438
11
239.976
21
-151.295
0
LINE
8
BLACK
6
CONTINUOUS
10
239.976
20
-151.295
11
240.262
21
-150.867
0
LINE
8
BLACK
6
CONTINUOUS
10
240.262
20
-150.867
11
240.405
21
-150.581
0
LINE
8
BLACK
6
CONTINUOUS
10
240.405
20
-150.581
11
240.548
21
-150.152
0
LINE
8
BLACK
6
CONTINUOUS
10
240.548
20
-150.152
11
240.691
21
-149.438
0
LINE
8
BLACK
6
CONTINUOUS
10
240.691
20
-149.438
11
240.691
21
-148.867
0
LINE
8
BLACK
6
CONTINUOUS
10
240.691
20
-148.867
11
240.548
21
-148.152
0
LINE
8
BLACK
6
CONTINUOUS
10
240.548
20
-148.152
11
240.405
21
-147.724
0
LINE
8
BLACK
6
CONTINUOUS
10
240.405
20
-147.724
11
240.262
21
-147.438
0
LINE
8
BLACK
6
CONTINUOUS
10
240.262
20
-147.438
11
239.976
21
-147.009
0
LINE
8
BLACK
6
CONTINUOUS
10
239.976
20
-147.009
11
239.833
21
-146.867
  0
ENDSEC
  0
EOF
