M48
;DRILL file {KiCad 5.0.1-33cea8e~68~ubuntu18.04.1} date dim. 20 janv. 2019 22:24:59 CET
;FORMAT={-:-/ absolute / metric / decimal}
FMAT,2
METRIC,TZ
T1C1.700
T2C4.000
%
G90
G05
M71
T1
X174.244Y-83.058
X184.404Y-83.058
X231.394Y-99.568
X241.554Y-99.568
X250.444Y-102.108
X260.604Y-102.108
X174.244Y-64.008
X184.404Y-64.008
X250.444Y-83.058
X260.604Y-83.058
X212.344Y-97.028
X222.504Y-97.028
X193.294Y-99.568
X203.454Y-99.568
X193.294Y-80.518
X203.454Y-80.518
X250.444Y-64.008
X260.604Y-64.008
X174.244Y-102.108
X184.404Y-102.108
X231.394Y-80.518
X241.554Y-80.518
X212.344Y-77.978
X222.504Y-77.978
X193.294Y-61.468
X203.454Y-61.468
X231.394Y-61.468
X241.554Y-61.468
X212.344Y-58.928
X222.504Y-58.928
T2
X255.524Y-64.008
X179.324Y-102.108
X236.474Y-80.518
X217.424Y-77.978
X198.374Y-61.468
X236.474Y-61.468
X217.424Y-58.928
X179.324Y-83.058
X236.474Y-99.568
X255.524Y-102.108
X179.324Y-64.008
X255.524Y-83.058
X217.424Y-97.028
X198.374Y-99.568
X198.374Y-80.518
T0
M30
