%TF.GenerationSoftware,KiCad,Pcbnew,5.0.1-33cea8e~68~ubuntu18.04.1*%
%TF.CreationDate,2019-01-20T23:44:27+01:00*%
%TF.ProjectId,concertina-v2.1,636F6E63657274696E612D76322E312E,rev?*%
%TF.SameCoordinates,Original*%
%TF.FileFunction,Legend,Top*%
%TF.FilePolarity,Positive*%
%FSLAX46Y46*%
G04 Gerber Fmt 4.6, Leading zero omitted, Abs format (unit mm)*
G04 Created by KiCad (PCBNEW 5.0.1-33cea8e~68~ubuntu18.04.1) date dim. 20 janv. 2019 23:44:27 CET*
%MOMM*%
%LPD*%
G01*
G04 APERTURE LIST*
%ADD10C,0.200000*%
%ADD11C,0.120000*%
%ADD12C,0.150000*%
G04 APERTURE END LIST*
D10*
X172212000Y-109220000D02*
X172212000Y-56896000D01*
X193040000Y-109220000D02*
X172212000Y-109220000D01*
X193040000Y-128270000D02*
X193040000Y-109220000D01*
X220980000Y-128270000D02*
X193040000Y-128270000D01*
X220980000Y-131318000D02*
X220980000Y-128270000D01*
X229362000Y-131318000D02*
X220980000Y-131318000D01*
X229362000Y-128016000D02*
X229362000Y-131318000D01*
X239014000Y-128016000D02*
X229362000Y-128016000D01*
X239014000Y-109220000D02*
X239014000Y-128016000D01*
X262636000Y-109220000D02*
X239014000Y-109220000D01*
X262636000Y-56896000D02*
X262636000Y-109220000D01*
X243586000Y-56896000D02*
X262636000Y-56896000D01*
X243586000Y-54356000D02*
X243586000Y-56896000D01*
X224536000Y-54356000D02*
X243586000Y-54356000D01*
X224536000Y-51816000D02*
X224536000Y-54356000D01*
X210312000Y-51816000D02*
X224536000Y-51816000D01*
X210312000Y-54356000D02*
X210312000Y-51816000D01*
X191262000Y-54356000D02*
X210312000Y-54356000D01*
X191262000Y-56896000D02*
X191262000Y-54356000D01*
X172212000Y-56896000D02*
X191262000Y-56896000D01*
D11*
X248539000Y-70993000D02*
X248539000Y-57023000D01*
X262509000Y-70993000D02*
X248539000Y-70993000D01*
X262509000Y-57023000D02*
X262509000Y-70993000D01*
X248539000Y-57023000D02*
X262509000Y-57023000D01*
X191389000Y-73533000D02*
X205359000Y-73533000D01*
X205359000Y-73533000D02*
X205359000Y-87503000D01*
X205359000Y-87503000D02*
X191389000Y-87503000D01*
X191389000Y-87503000D02*
X191389000Y-73533000D01*
X191389000Y-68453000D02*
X191389000Y-54483000D01*
X205359000Y-68453000D02*
X191389000Y-68453000D01*
X205359000Y-54483000D02*
X205359000Y-68453000D01*
X191389000Y-54483000D02*
X205359000Y-54483000D01*
X210439000Y-51943000D02*
X224409000Y-51943000D01*
X224409000Y-51943000D02*
X224409000Y-65913000D01*
X224409000Y-65913000D02*
X210439000Y-65913000D01*
X210439000Y-65913000D02*
X210439000Y-51943000D01*
X210439000Y-84963000D02*
X210439000Y-70993000D01*
X224409000Y-84963000D02*
X210439000Y-84963000D01*
X224409000Y-70993000D02*
X224409000Y-84963000D01*
X210439000Y-70993000D02*
X224409000Y-70993000D01*
X210439000Y-90043000D02*
X224409000Y-90043000D01*
X224409000Y-90043000D02*
X224409000Y-104013000D01*
X224409000Y-104013000D02*
X210439000Y-104013000D01*
X210439000Y-104013000D02*
X210439000Y-90043000D01*
X229489000Y-68453000D02*
X229489000Y-54483000D01*
X243459000Y-68453000D02*
X229489000Y-68453000D01*
X243459000Y-54483000D02*
X243459000Y-68453000D01*
X229489000Y-54483000D02*
X243459000Y-54483000D01*
X229489000Y-73533000D02*
X243459000Y-73533000D01*
X243459000Y-73533000D02*
X243459000Y-87503000D01*
X243459000Y-87503000D02*
X229489000Y-87503000D01*
X229489000Y-87503000D02*
X229489000Y-73533000D01*
X229489000Y-92583000D02*
X243459000Y-92583000D01*
X243459000Y-92583000D02*
X243459000Y-106553000D01*
X243459000Y-106553000D02*
X229489000Y-106553000D01*
X229489000Y-106553000D02*
X229489000Y-92583000D01*
X172339000Y-57023000D02*
X186309000Y-57023000D01*
X186309000Y-57023000D02*
X186309000Y-70993000D01*
X186309000Y-70993000D02*
X172339000Y-70993000D01*
X172339000Y-70993000D02*
X172339000Y-57023000D01*
X172339000Y-76073000D02*
X186309000Y-76073000D01*
X186309000Y-76073000D02*
X186309000Y-90043000D01*
X186309000Y-90043000D02*
X172339000Y-90043000D01*
X172339000Y-90043000D02*
X172339000Y-76073000D01*
X172339000Y-109093000D02*
X172339000Y-95123000D01*
X186309000Y-109093000D02*
X172339000Y-109093000D01*
X186309000Y-95123000D02*
X186309000Y-109093000D01*
X172339000Y-95123000D02*
X186309000Y-95123000D01*
X191389000Y-106553000D02*
X191389000Y-92583000D01*
X205359000Y-106553000D02*
X191389000Y-106553000D01*
X205359000Y-92583000D02*
X205359000Y-106553000D01*
X191389000Y-92583000D02*
X205359000Y-92583000D01*
X248539000Y-109093000D02*
X248539000Y-95123000D01*
X262509000Y-109093000D02*
X248539000Y-109093000D01*
X262509000Y-95123000D02*
X262509000Y-109093000D01*
X248539000Y-95123000D02*
X262509000Y-95123000D01*
X248539000Y-76073000D02*
X262509000Y-76073000D01*
X262509000Y-76073000D02*
X262509000Y-90043000D01*
X262509000Y-90043000D02*
X248539000Y-90043000D01*
X248539000Y-90043000D02*
X248539000Y-76073000D01*
D12*
X254785904Y-56586380D02*
X254785904Y-55586380D01*
X255357333Y-56586380D02*
X254928761Y-56014952D01*
X255357333Y-55586380D02*
X254785904Y-56157809D01*
X255833523Y-56586380D02*
X256024000Y-56586380D01*
X256119238Y-56538761D01*
X256166857Y-56491142D01*
X256262095Y-56348285D01*
X256309714Y-56157809D01*
X256309714Y-55776857D01*
X256262095Y-55681619D01*
X256214476Y-55634000D01*
X256119238Y-55586380D01*
X255928761Y-55586380D01*
X255833523Y-55634000D01*
X255785904Y-55681619D01*
X255738285Y-55776857D01*
X255738285Y-56014952D01*
X255785904Y-56110190D01*
X255833523Y-56157809D01*
X255928761Y-56205428D01*
X256119238Y-56205428D01*
X256214476Y-56157809D01*
X256262095Y-56110190D01*
X256309714Y-56014952D01*
X197635904Y-73096380D02*
X197635904Y-72096380D01*
X198207333Y-73096380D02*
X197778761Y-72524952D01*
X198207333Y-72096380D02*
X197635904Y-72667809D01*
X199159714Y-73096380D02*
X198588285Y-73096380D01*
X198874000Y-73096380D02*
X198874000Y-72096380D01*
X198778761Y-72239238D01*
X198683523Y-72334476D01*
X198588285Y-72382095D01*
X197635904Y-54046380D02*
X197635904Y-53046380D01*
X198207333Y-54046380D02*
X197778761Y-53474952D01*
X198207333Y-53046380D02*
X197635904Y-53617809D01*
X198588285Y-53141619D02*
X198635904Y-53094000D01*
X198731142Y-53046380D01*
X198969238Y-53046380D01*
X199064476Y-53094000D01*
X199112095Y-53141619D01*
X199159714Y-53236857D01*
X199159714Y-53332095D01*
X199112095Y-53474952D01*
X198540666Y-54046380D01*
X199159714Y-54046380D01*
X216685904Y-51506380D02*
X216685904Y-50506380D01*
X217257333Y-51506380D02*
X216828761Y-50934952D01*
X217257333Y-50506380D02*
X216685904Y-51077809D01*
X217590666Y-50506380D02*
X218209714Y-50506380D01*
X217876380Y-50887333D01*
X218019238Y-50887333D01*
X218114476Y-50934952D01*
X218162095Y-50982571D01*
X218209714Y-51077809D01*
X218209714Y-51315904D01*
X218162095Y-51411142D01*
X218114476Y-51458761D01*
X218019238Y-51506380D01*
X217733523Y-51506380D01*
X217638285Y-51458761D01*
X217590666Y-51411142D01*
X216685904Y-70556380D02*
X216685904Y-69556380D01*
X217257333Y-70556380D02*
X216828761Y-69984952D01*
X217257333Y-69556380D02*
X216685904Y-70127809D01*
X218114476Y-69889714D02*
X218114476Y-70556380D01*
X217876380Y-69508761D02*
X217638285Y-70223047D01*
X218257333Y-70223047D01*
X216685904Y-89606380D02*
X216685904Y-88606380D01*
X217257333Y-89606380D02*
X216828761Y-89034952D01*
X217257333Y-88606380D02*
X216685904Y-89177809D01*
X218162095Y-88606380D02*
X217685904Y-88606380D01*
X217638285Y-89082571D01*
X217685904Y-89034952D01*
X217781142Y-88987333D01*
X218019238Y-88987333D01*
X218114476Y-89034952D01*
X218162095Y-89082571D01*
X218209714Y-89177809D01*
X218209714Y-89415904D01*
X218162095Y-89511142D01*
X218114476Y-89558761D01*
X218019238Y-89606380D01*
X217781142Y-89606380D01*
X217685904Y-89558761D01*
X217638285Y-89511142D01*
X235735904Y-54046380D02*
X235735904Y-53046380D01*
X236307333Y-54046380D02*
X235878761Y-53474952D01*
X236307333Y-53046380D02*
X235735904Y-53617809D01*
X237164476Y-53046380D02*
X236974000Y-53046380D01*
X236878761Y-53094000D01*
X236831142Y-53141619D01*
X236735904Y-53284476D01*
X236688285Y-53474952D01*
X236688285Y-53855904D01*
X236735904Y-53951142D01*
X236783523Y-53998761D01*
X236878761Y-54046380D01*
X237069238Y-54046380D01*
X237164476Y-53998761D01*
X237212095Y-53951142D01*
X237259714Y-53855904D01*
X237259714Y-53617809D01*
X237212095Y-53522571D01*
X237164476Y-53474952D01*
X237069238Y-53427333D01*
X236878761Y-53427333D01*
X236783523Y-53474952D01*
X236735904Y-53522571D01*
X236688285Y-53617809D01*
X235735904Y-73096380D02*
X235735904Y-72096380D01*
X236307333Y-73096380D02*
X235878761Y-72524952D01*
X236307333Y-72096380D02*
X235735904Y-72667809D01*
X236640666Y-72096380D02*
X237307333Y-72096380D01*
X236878761Y-73096380D01*
X235735904Y-92146380D02*
X235735904Y-91146380D01*
X236307333Y-92146380D02*
X235878761Y-91574952D01*
X236307333Y-91146380D02*
X235735904Y-91717809D01*
X236878761Y-91574952D02*
X236783523Y-91527333D01*
X236735904Y-91479714D01*
X236688285Y-91384476D01*
X236688285Y-91336857D01*
X236735904Y-91241619D01*
X236783523Y-91194000D01*
X236878761Y-91146380D01*
X237069238Y-91146380D01*
X237164476Y-91194000D01*
X237212095Y-91241619D01*
X237259714Y-91336857D01*
X237259714Y-91384476D01*
X237212095Y-91479714D01*
X237164476Y-91527333D01*
X237069238Y-91574952D01*
X236878761Y-91574952D01*
X236783523Y-91622571D01*
X236735904Y-91670190D01*
X236688285Y-91765428D01*
X236688285Y-91955904D01*
X236735904Y-92051142D01*
X236783523Y-92098761D01*
X236878761Y-92146380D01*
X237069238Y-92146380D01*
X237164476Y-92098761D01*
X237212095Y-92051142D01*
X237259714Y-91955904D01*
X237259714Y-91765428D01*
X237212095Y-91670190D01*
X237164476Y-91622571D01*
X237069238Y-91574952D01*
X178109714Y-56586380D02*
X178109714Y-55586380D01*
X178681142Y-56586380D02*
X178252571Y-56014952D01*
X178681142Y-55586380D02*
X178109714Y-56157809D01*
X179633523Y-56586380D02*
X179062095Y-56586380D01*
X179347809Y-56586380D02*
X179347809Y-55586380D01*
X179252571Y-55729238D01*
X179157333Y-55824476D01*
X179062095Y-55872095D01*
X180252571Y-55586380D02*
X180347809Y-55586380D01*
X180443047Y-55634000D01*
X180490666Y-55681619D01*
X180538285Y-55776857D01*
X180585904Y-55967333D01*
X180585904Y-56205428D01*
X180538285Y-56395904D01*
X180490666Y-56491142D01*
X180443047Y-56538761D01*
X180347809Y-56586380D01*
X180252571Y-56586380D01*
X180157333Y-56538761D01*
X180109714Y-56491142D01*
X180062095Y-56395904D01*
X180014476Y-56205428D01*
X180014476Y-55967333D01*
X180062095Y-55776857D01*
X180109714Y-55681619D01*
X180157333Y-55634000D01*
X180252571Y-55586380D01*
X178109714Y-75636380D02*
X178109714Y-74636380D01*
X178681142Y-75636380D02*
X178252571Y-75064952D01*
X178681142Y-74636380D02*
X178109714Y-75207809D01*
X179633523Y-75636380D02*
X179062095Y-75636380D01*
X179347809Y-75636380D02*
X179347809Y-74636380D01*
X179252571Y-74779238D01*
X179157333Y-74874476D01*
X179062095Y-74922095D01*
X180585904Y-75636380D02*
X180014476Y-75636380D01*
X180300190Y-75636380D02*
X180300190Y-74636380D01*
X180204952Y-74779238D01*
X180109714Y-74874476D01*
X180014476Y-74922095D01*
X178109714Y-94686380D02*
X178109714Y-93686380D01*
X178681142Y-94686380D02*
X178252571Y-94114952D01*
X178681142Y-93686380D02*
X178109714Y-94257809D01*
X179633523Y-94686380D02*
X179062095Y-94686380D01*
X179347809Y-94686380D02*
X179347809Y-93686380D01*
X179252571Y-93829238D01*
X179157333Y-93924476D01*
X179062095Y-93972095D01*
X180014476Y-93781619D02*
X180062095Y-93734000D01*
X180157333Y-93686380D01*
X180395428Y-93686380D01*
X180490666Y-93734000D01*
X180538285Y-93781619D01*
X180585904Y-93876857D01*
X180585904Y-93972095D01*
X180538285Y-94114952D01*
X179966857Y-94686380D01*
X180585904Y-94686380D01*
X197159714Y-92146380D02*
X197159714Y-91146380D01*
X197731142Y-92146380D02*
X197302571Y-91574952D01*
X197731142Y-91146380D02*
X197159714Y-91717809D01*
X198683523Y-92146380D02*
X198112095Y-92146380D01*
X198397809Y-92146380D02*
X198397809Y-91146380D01*
X198302571Y-91289238D01*
X198207333Y-91384476D01*
X198112095Y-91432095D01*
X199016857Y-91146380D02*
X199635904Y-91146380D01*
X199302571Y-91527333D01*
X199445428Y-91527333D01*
X199540666Y-91574952D01*
X199588285Y-91622571D01*
X199635904Y-91717809D01*
X199635904Y-91955904D01*
X199588285Y-92051142D01*
X199540666Y-92098761D01*
X199445428Y-92146380D01*
X199159714Y-92146380D01*
X199064476Y-92098761D01*
X199016857Y-92051142D01*
X254309714Y-94686380D02*
X254309714Y-93686380D01*
X254881142Y-94686380D02*
X254452571Y-94114952D01*
X254881142Y-93686380D02*
X254309714Y-94257809D01*
X255833523Y-94686380D02*
X255262095Y-94686380D01*
X255547809Y-94686380D02*
X255547809Y-93686380D01*
X255452571Y-93829238D01*
X255357333Y-93924476D01*
X255262095Y-93972095D01*
X256690666Y-94019714D02*
X256690666Y-94686380D01*
X256452571Y-93638761D02*
X256214476Y-94353047D01*
X256833523Y-94353047D01*
X254309714Y-75636380D02*
X254309714Y-74636380D01*
X254881142Y-75636380D02*
X254452571Y-75064952D01*
X254881142Y-74636380D02*
X254309714Y-75207809D01*
X255833523Y-75636380D02*
X255262095Y-75636380D01*
X255547809Y-75636380D02*
X255547809Y-74636380D01*
X255452571Y-74779238D01*
X255357333Y-74874476D01*
X255262095Y-74922095D01*
X256738285Y-74636380D02*
X256262095Y-74636380D01*
X256214476Y-75112571D01*
X256262095Y-75064952D01*
X256357333Y-75017333D01*
X256595428Y-75017333D01*
X256690666Y-75064952D01*
X256738285Y-75112571D01*
X256785904Y-75207809D01*
X256785904Y-75445904D01*
X256738285Y-75541142D01*
X256690666Y-75588761D01*
X256595428Y-75636380D01*
X256357333Y-75636380D01*
X256262095Y-75588761D01*
X256214476Y-75541142D01*
M02*
