%TF.GenerationSoftware,KiCad,Pcbnew,5.0.1-33cea8e~68~ubuntu18.04.1*%
%TF.CreationDate,2019-01-20T23:44:27+01:00*%
%TF.ProjectId,concertina-v2.1,636F6E63657274696E612D76322E312E,rev?*%
%TF.SameCoordinates,Original*%
%TF.FileFunction,Profile,NP*%
%FSLAX46Y46*%
G04 Gerber Fmt 4.6, Leading zero omitted, Abs format (unit mm)*
G04 Created by KiCad (PCBNEW 5.0.1-33cea8e~68~ubuntu18.04.1) date dim. 20 janv. 2019 23:44:27 CET*
%MOMM*%
%LPD*%
G01*
G04 APERTURE LIST*
%ADD10C,0.200000*%
G04 APERTURE END LIST*
D10*
X172212000Y-109220000D02*
X172212000Y-56896000D01*
X193040000Y-109220000D02*
X172212000Y-109220000D01*
X193040000Y-128270000D02*
X193040000Y-109220000D01*
X220980000Y-128270000D02*
X193040000Y-128270000D01*
X220980000Y-131318000D02*
X220980000Y-128270000D01*
X229362000Y-131318000D02*
X220980000Y-131318000D01*
X229362000Y-128016000D02*
X229362000Y-131318000D01*
X239014000Y-128016000D02*
X229362000Y-128016000D01*
X239014000Y-109220000D02*
X239014000Y-128016000D01*
X262636000Y-109220000D02*
X239014000Y-109220000D01*
X262636000Y-56896000D02*
X262636000Y-109220000D01*
X243586000Y-56896000D02*
X262636000Y-56896000D01*
X243586000Y-54356000D02*
X243586000Y-56896000D01*
X224536000Y-54356000D02*
X243586000Y-54356000D01*
X224536000Y-51816000D02*
X224536000Y-54356000D01*
X210312000Y-51816000D02*
X224536000Y-51816000D01*
X210312000Y-54356000D02*
X210312000Y-51816000D01*
X191262000Y-54356000D02*
X210312000Y-54356000D01*
X191262000Y-56896000D02*
X191262000Y-54356000D01*
X172212000Y-56896000D02*
X191262000Y-56896000D01*
M02*
