%TF.GenerationSoftware,KiCad,Pcbnew,5.0.1-33cea8e~68~ubuntu18.04.1*%
%TF.CreationDate,2019-01-20T23:44:27+01:00*%
%TF.ProjectId,concertina-v2.1,636F6E63657274696E612D76322E312E,rev?*%
%TF.SameCoordinates,Original*%
%TF.FileFunction,Copper,L2,Bot,Signal*%
%TF.FilePolarity,Positive*%
%FSLAX46Y46*%
G04 Gerber Fmt 4.6, Leading zero omitted, Abs format (unit mm)*
G04 Created by KiCad (PCBNEW 5.0.1-33cea8e~68~ubuntu18.04.1) date dim. 20 janv. 2019 23:44:27 CET*
%MOMM*%
%LPD*%
G01*
G04 APERTURE LIST*
%ADD10C,0.200000*%
%ADD11C,2.200000*%
%ADD12R,1.600000X1.600000*%
%ADD13O,1.600000X1.600000*%
%ADD14R,0.850000X0.850000*%
%ADD15O,0.850000X0.850000*%
%ADD16C,0.254000*%
G04 APERTURE END LIST*
D10*
X172212000Y-109220000D02*
X172212000Y-56896000D01*
X193040000Y-109220000D02*
X172212000Y-109220000D01*
X193040000Y-128270000D02*
X193040000Y-109220000D01*
X220980000Y-128270000D02*
X193040000Y-128270000D01*
X220980000Y-131318000D02*
X220980000Y-128270000D01*
X229362000Y-131318000D02*
X220980000Y-131318000D01*
X229362000Y-128016000D02*
X229362000Y-131318000D01*
X239014000Y-128016000D02*
X229362000Y-128016000D01*
X239014000Y-109220000D02*
X239014000Y-128016000D01*
X262636000Y-109220000D02*
X239014000Y-109220000D01*
X262636000Y-56896000D02*
X262636000Y-109220000D01*
X243586000Y-56896000D02*
X262636000Y-56896000D01*
X243586000Y-54356000D02*
X243586000Y-56896000D01*
X224536000Y-54356000D02*
X243586000Y-54356000D01*
X224536000Y-51816000D02*
X224536000Y-54356000D01*
X210312000Y-51816000D02*
X224536000Y-51816000D01*
X210312000Y-54356000D02*
X210312000Y-51816000D01*
X191262000Y-54356000D02*
X210312000Y-54356000D01*
X191262000Y-56896000D02*
X191262000Y-54356000D01*
X172212000Y-56896000D02*
X191262000Y-56896000D01*
D11*
X251714000Y-61468000D03*
X258064000Y-58928000D03*
D12*
X199390000Y-111252000D03*
D13*
X232410000Y-126492000D03*
X201930000Y-111252000D03*
X229870000Y-126492000D03*
X204470000Y-111252000D03*
X227330000Y-126492000D03*
X207010000Y-111252000D03*
X224790000Y-126492000D03*
X209550000Y-111252000D03*
X222250000Y-126492000D03*
X212090000Y-111252000D03*
X219710000Y-126492000D03*
X214630000Y-111252000D03*
X217170000Y-126492000D03*
X217170000Y-111252000D03*
X214630000Y-126492000D03*
X219710000Y-111252000D03*
X212090000Y-126492000D03*
X222250000Y-111252000D03*
X209550000Y-126492000D03*
X224790000Y-111252000D03*
X207010000Y-126492000D03*
X227330000Y-111252000D03*
X204470000Y-126492000D03*
X229870000Y-111252000D03*
X201930000Y-126492000D03*
X232410000Y-111252000D03*
X199390000Y-126492000D03*
X234950000Y-111252000D03*
X234950000Y-126492000D03*
D14*
X228028000Y-129032000D03*
D15*
X227028000Y-129032000D03*
X226028000Y-129032000D03*
X225028000Y-129032000D03*
X224028000Y-129032000D03*
X223028000Y-129032000D03*
D11*
X200914000Y-75438000D03*
X194564000Y-77978000D03*
X194564000Y-58928000D03*
X200914000Y-56388000D03*
X219964000Y-53848000D03*
X213614000Y-56388000D03*
X213614000Y-75438000D03*
X219964000Y-72898000D03*
X219964000Y-91948000D03*
X213614000Y-94488000D03*
X232664000Y-58928000D03*
X239014000Y-56388000D03*
X239014000Y-75438000D03*
X232664000Y-77978000D03*
X239014000Y-94488000D03*
X232664000Y-97028000D03*
X181864000Y-58928000D03*
X175514000Y-61468000D03*
X181864000Y-77978000D03*
X175514000Y-80518000D03*
X175514000Y-99568000D03*
X181864000Y-97028000D03*
X194564000Y-97028000D03*
X200914000Y-94488000D03*
X251714000Y-99568000D03*
X258064000Y-97028000D03*
X258064000Y-77978000D03*
X251714000Y-80518000D03*
D16*
G36*
X228820234Y-127503846D02*
X228669646Y-127729217D01*
X228618153Y-127988089D01*
X228579310Y-127972000D01*
X228313750Y-127972000D01*
X228155000Y-128130750D01*
X228155000Y-128905000D01*
X228175000Y-128905000D01*
X228175000Y-129159000D01*
X228155000Y-129159000D01*
X228155000Y-129933250D01*
X228313750Y-130092000D01*
X228579310Y-130092000D01*
X228627001Y-130072246D01*
X228627001Y-130583000D01*
X221715000Y-130583000D01*
X221715000Y-129032000D01*
X221947234Y-129032000D01*
X222029502Y-129445591D01*
X222263783Y-129796217D01*
X222614409Y-130030498D01*
X222923602Y-130092000D01*
X223132398Y-130092000D01*
X223441591Y-130030498D01*
X223528000Y-129972761D01*
X223614409Y-130030498D01*
X223923602Y-130092000D01*
X224132398Y-130092000D01*
X224441591Y-130030498D01*
X224528000Y-129972761D01*
X224614409Y-130030498D01*
X224923602Y-130092000D01*
X225132398Y-130092000D01*
X225441591Y-130030498D01*
X225528000Y-129972761D01*
X225614409Y-130030498D01*
X225923602Y-130092000D01*
X226132398Y-130092000D01*
X226441591Y-130030498D01*
X226528000Y-129972761D01*
X226614409Y-130030498D01*
X226923602Y-130092000D01*
X227132398Y-130092000D01*
X227364994Y-130045734D01*
X227476690Y-130092000D01*
X227742250Y-130092000D01*
X227901000Y-129933250D01*
X227901000Y-129633412D01*
X228026498Y-129445591D01*
X228108766Y-129032000D01*
X228026498Y-128618409D01*
X227901000Y-128430588D01*
X227901000Y-128130750D01*
X227742250Y-127972000D01*
X227476690Y-127972000D01*
X227364994Y-128018266D01*
X227132398Y-127972000D01*
X226923602Y-127972000D01*
X226614409Y-128033502D01*
X226528000Y-128091239D01*
X226441591Y-128033502D01*
X226132398Y-127972000D01*
X225923602Y-127972000D01*
X225614409Y-128033502D01*
X225528000Y-128091239D01*
X225441591Y-128033502D01*
X225132398Y-127972000D01*
X224923602Y-127972000D01*
X224614409Y-128033502D01*
X224528000Y-128091239D01*
X224441591Y-128033502D01*
X224132398Y-127972000D01*
X223923602Y-127972000D01*
X223614409Y-128033502D01*
X223528000Y-128091239D01*
X223441591Y-128033502D01*
X223132398Y-127972000D01*
X222923602Y-127972000D01*
X222614409Y-128033502D01*
X222263783Y-128267783D01*
X222029502Y-128618409D01*
X221947234Y-129032000D01*
X221715000Y-129032000D01*
X221715000Y-128342387D01*
X221729399Y-128270000D01*
X221672354Y-127983217D01*
X221509905Y-127740095D01*
X221266783Y-127577646D01*
X221052388Y-127535000D01*
X220980000Y-127520601D01*
X220907612Y-127535000D01*
X220731971Y-127535000D01*
X220744577Y-127526577D01*
X220980000Y-127174242D01*
X221215423Y-127526577D01*
X221690091Y-127843740D01*
X222108667Y-127927000D01*
X222391333Y-127927000D01*
X222809909Y-127843740D01*
X223284577Y-127526577D01*
X223520000Y-127174242D01*
X223755423Y-127526577D01*
X224230091Y-127843740D01*
X224648667Y-127927000D01*
X224931333Y-127927000D01*
X225349909Y-127843740D01*
X225824577Y-127526577D01*
X226060000Y-127174242D01*
X226295423Y-127526577D01*
X226770091Y-127843740D01*
X227188667Y-127927000D01*
X227471333Y-127927000D01*
X227889909Y-127843740D01*
X228364577Y-127526577D01*
X228600000Y-127174242D01*
X228820234Y-127503846D01*
X228820234Y-127503846D01*
G37*
X228820234Y-127503846D02*
X228669646Y-127729217D01*
X228618153Y-127988089D01*
X228579310Y-127972000D01*
X228313750Y-127972000D01*
X228155000Y-128130750D01*
X228155000Y-128905000D01*
X228175000Y-128905000D01*
X228175000Y-129159000D01*
X228155000Y-129159000D01*
X228155000Y-129933250D01*
X228313750Y-130092000D01*
X228579310Y-130092000D01*
X228627001Y-130072246D01*
X228627001Y-130583000D01*
X221715000Y-130583000D01*
X221715000Y-129032000D01*
X221947234Y-129032000D01*
X222029502Y-129445591D01*
X222263783Y-129796217D01*
X222614409Y-130030498D01*
X222923602Y-130092000D01*
X223132398Y-130092000D01*
X223441591Y-130030498D01*
X223528000Y-129972761D01*
X223614409Y-130030498D01*
X223923602Y-130092000D01*
X224132398Y-130092000D01*
X224441591Y-130030498D01*
X224528000Y-129972761D01*
X224614409Y-130030498D01*
X224923602Y-130092000D01*
X225132398Y-130092000D01*
X225441591Y-130030498D01*
X225528000Y-129972761D01*
X225614409Y-130030498D01*
X225923602Y-130092000D01*
X226132398Y-130092000D01*
X226441591Y-130030498D01*
X226528000Y-129972761D01*
X226614409Y-130030498D01*
X226923602Y-130092000D01*
X227132398Y-130092000D01*
X227364994Y-130045734D01*
X227476690Y-130092000D01*
X227742250Y-130092000D01*
X227901000Y-129933250D01*
X227901000Y-129633412D01*
X228026498Y-129445591D01*
X228108766Y-129032000D01*
X228026498Y-128618409D01*
X227901000Y-128430588D01*
X227901000Y-128130750D01*
X227742250Y-127972000D01*
X227476690Y-127972000D01*
X227364994Y-128018266D01*
X227132398Y-127972000D01*
X226923602Y-127972000D01*
X226614409Y-128033502D01*
X226528000Y-128091239D01*
X226441591Y-128033502D01*
X226132398Y-127972000D01*
X225923602Y-127972000D01*
X225614409Y-128033502D01*
X225528000Y-128091239D01*
X225441591Y-128033502D01*
X225132398Y-127972000D01*
X224923602Y-127972000D01*
X224614409Y-128033502D01*
X224528000Y-128091239D01*
X224441591Y-128033502D01*
X224132398Y-127972000D01*
X223923602Y-127972000D01*
X223614409Y-128033502D01*
X223528000Y-128091239D01*
X223441591Y-128033502D01*
X223132398Y-127972000D01*
X222923602Y-127972000D01*
X222614409Y-128033502D01*
X222263783Y-128267783D01*
X222029502Y-128618409D01*
X221947234Y-129032000D01*
X221715000Y-129032000D01*
X221715000Y-128342387D01*
X221729399Y-128270000D01*
X221672354Y-127983217D01*
X221509905Y-127740095D01*
X221266783Y-127577646D01*
X221052388Y-127535000D01*
X220980000Y-127520601D01*
X220907612Y-127535000D01*
X220731971Y-127535000D01*
X220744577Y-127526577D01*
X220980000Y-127174242D01*
X221215423Y-127526577D01*
X221690091Y-127843740D01*
X222108667Y-127927000D01*
X222391333Y-127927000D01*
X222809909Y-127843740D01*
X223284577Y-127526577D01*
X223520000Y-127174242D01*
X223755423Y-127526577D01*
X224230091Y-127843740D01*
X224648667Y-127927000D01*
X224931333Y-127927000D01*
X225349909Y-127843740D01*
X225824577Y-127526577D01*
X226060000Y-127174242D01*
X226295423Y-127526577D01*
X226770091Y-127843740D01*
X227188667Y-127927000D01*
X227471333Y-127927000D01*
X227889909Y-127843740D01*
X228364577Y-127526577D01*
X228600000Y-127174242D01*
X228820234Y-127503846D01*
G36*
X218493138Y-52865201D02*
X218229000Y-53502887D01*
X218229000Y-54193113D01*
X218493138Y-54830799D01*
X218981201Y-55318862D01*
X219618887Y-55583000D01*
X220309113Y-55583000D01*
X220946799Y-55318862D01*
X221434862Y-54830799D01*
X221699000Y-54193113D01*
X221699000Y-53502887D01*
X221434862Y-52865201D01*
X221120661Y-52551000D01*
X223801000Y-52551000D01*
X223801001Y-54283607D01*
X223786601Y-54356000D01*
X223843646Y-54642783D01*
X224006095Y-54885905D01*
X224249217Y-55048354D01*
X224463612Y-55091000D01*
X224536000Y-55105399D01*
X224608388Y-55091000D01*
X237857339Y-55091000D01*
X237543138Y-55405201D01*
X237279000Y-56042887D01*
X237279000Y-56733113D01*
X237543138Y-57370799D01*
X238031201Y-57858862D01*
X238668887Y-58123000D01*
X239359113Y-58123000D01*
X239996799Y-57858862D01*
X240484862Y-57370799D01*
X240749000Y-56733113D01*
X240749000Y-56042887D01*
X240484862Y-55405201D01*
X240170661Y-55091000D01*
X242851000Y-55091000D01*
X242851001Y-56823607D01*
X242836601Y-56896000D01*
X242893646Y-57182783D01*
X243056095Y-57425905D01*
X243299217Y-57588354D01*
X243513612Y-57631000D01*
X243586000Y-57645399D01*
X243658388Y-57631000D01*
X256907339Y-57631000D01*
X256593138Y-57945201D01*
X256329000Y-58582887D01*
X256329000Y-59273113D01*
X256593138Y-59910799D01*
X257081201Y-60398862D01*
X257718887Y-60663000D01*
X258409113Y-60663000D01*
X259046799Y-60398862D01*
X259534862Y-59910799D01*
X259799000Y-59273113D01*
X259799000Y-58582887D01*
X259534862Y-57945201D01*
X259220661Y-57631000D01*
X261901000Y-57631000D01*
X261901000Y-63258743D01*
X261862922Y-63166815D01*
X261445185Y-62749078D01*
X260899385Y-62523000D01*
X260308615Y-62523000D01*
X259762815Y-62749078D01*
X259345078Y-63166815D01*
X259119000Y-63712615D01*
X259119000Y-64303385D01*
X259345078Y-64849185D01*
X259762815Y-65266922D01*
X260308615Y-65493000D01*
X260899385Y-65493000D01*
X261445185Y-65266922D01*
X261862922Y-64849185D01*
X261901000Y-64757257D01*
X261901000Y-82308745D01*
X261862922Y-82216815D01*
X261445185Y-81799078D01*
X260899385Y-81573000D01*
X260308615Y-81573000D01*
X259762815Y-81799078D01*
X259345078Y-82216815D01*
X259119000Y-82762615D01*
X259119000Y-83353385D01*
X259345078Y-83899185D01*
X259762815Y-84316922D01*
X260308615Y-84543000D01*
X260899385Y-84543000D01*
X261445185Y-84316922D01*
X261862922Y-83899185D01*
X261901001Y-83807255D01*
X261901001Y-101358745D01*
X261862922Y-101266815D01*
X261445185Y-100849078D01*
X260899385Y-100623000D01*
X260308615Y-100623000D01*
X259762815Y-100849078D01*
X259345078Y-101266815D01*
X259119000Y-101812615D01*
X259119000Y-102403385D01*
X259345078Y-102949185D01*
X259762815Y-103366922D01*
X260308615Y-103593000D01*
X260899385Y-103593000D01*
X261445185Y-103366922D01*
X261862922Y-102949185D01*
X261901001Y-102857255D01*
X261901001Y-108485000D01*
X239086388Y-108485000D01*
X239014000Y-108470601D01*
X238941612Y-108485000D01*
X238727217Y-108527646D01*
X238484095Y-108690095D01*
X238321646Y-108933217D01*
X238264601Y-109220000D01*
X238279000Y-109292387D01*
X238279001Y-127281000D01*
X236148666Y-127281000D01*
X236301740Y-127051909D01*
X236413113Y-126492000D01*
X236301740Y-125932091D01*
X235984577Y-125457423D01*
X235509909Y-125140260D01*
X235091333Y-125057000D01*
X234808667Y-125057000D01*
X234390091Y-125140260D01*
X233915423Y-125457423D01*
X233680000Y-125809758D01*
X233444577Y-125457423D01*
X232969909Y-125140260D01*
X232551333Y-125057000D01*
X232268667Y-125057000D01*
X231850091Y-125140260D01*
X231375423Y-125457423D01*
X231140000Y-125809758D01*
X230904577Y-125457423D01*
X230429909Y-125140260D01*
X230011333Y-125057000D01*
X229728667Y-125057000D01*
X229310091Y-125140260D01*
X228835423Y-125457423D01*
X228600000Y-125809758D01*
X228364577Y-125457423D01*
X227889909Y-125140260D01*
X227471333Y-125057000D01*
X227188667Y-125057000D01*
X226770091Y-125140260D01*
X226295423Y-125457423D01*
X226060000Y-125809758D01*
X225824577Y-125457423D01*
X225349909Y-125140260D01*
X224931333Y-125057000D01*
X224648667Y-125057000D01*
X224230091Y-125140260D01*
X223755423Y-125457423D01*
X223520000Y-125809758D01*
X223284577Y-125457423D01*
X222809909Y-125140260D01*
X222391333Y-125057000D01*
X222108667Y-125057000D01*
X221690091Y-125140260D01*
X221215423Y-125457423D01*
X220980000Y-125809758D01*
X220744577Y-125457423D01*
X220269909Y-125140260D01*
X219851333Y-125057000D01*
X219568667Y-125057000D01*
X219150091Y-125140260D01*
X218675423Y-125457423D01*
X218440000Y-125809758D01*
X218204577Y-125457423D01*
X217729909Y-125140260D01*
X217311333Y-125057000D01*
X217028667Y-125057000D01*
X216610091Y-125140260D01*
X216135423Y-125457423D01*
X215900000Y-125809758D01*
X215664577Y-125457423D01*
X215189909Y-125140260D01*
X214771333Y-125057000D01*
X214488667Y-125057000D01*
X214070091Y-125140260D01*
X213595423Y-125457423D01*
X213360000Y-125809758D01*
X213124577Y-125457423D01*
X212649909Y-125140260D01*
X212231333Y-125057000D01*
X211948667Y-125057000D01*
X211530091Y-125140260D01*
X211055423Y-125457423D01*
X210820000Y-125809758D01*
X210584577Y-125457423D01*
X210109909Y-125140260D01*
X209691333Y-125057000D01*
X209408667Y-125057000D01*
X208990091Y-125140260D01*
X208515423Y-125457423D01*
X208280000Y-125809758D01*
X208044577Y-125457423D01*
X207569909Y-125140260D01*
X207151333Y-125057000D01*
X206868667Y-125057000D01*
X206450091Y-125140260D01*
X205975423Y-125457423D01*
X205740000Y-125809758D01*
X205504577Y-125457423D01*
X205029909Y-125140260D01*
X204611333Y-125057000D01*
X204328667Y-125057000D01*
X203910091Y-125140260D01*
X203435423Y-125457423D01*
X203200000Y-125809758D01*
X202964577Y-125457423D01*
X202489909Y-125140260D01*
X202071333Y-125057000D01*
X201788667Y-125057000D01*
X201370091Y-125140260D01*
X200895423Y-125457423D01*
X200660000Y-125809758D01*
X200424577Y-125457423D01*
X199949909Y-125140260D01*
X199531333Y-125057000D01*
X199248667Y-125057000D01*
X198830091Y-125140260D01*
X198355423Y-125457423D01*
X198038260Y-125932091D01*
X197926887Y-126492000D01*
X198038260Y-127051909D01*
X198355423Y-127526577D01*
X198368029Y-127535000D01*
X193775000Y-127535000D01*
X193775000Y-110452000D01*
X197942560Y-110452000D01*
X197942560Y-112052000D01*
X197991843Y-112299765D01*
X198132191Y-112509809D01*
X198342235Y-112650157D01*
X198590000Y-112699440D01*
X200190000Y-112699440D01*
X200437765Y-112650157D01*
X200647809Y-112509809D01*
X200788157Y-112299765D01*
X200814785Y-112165894D01*
X200895423Y-112286577D01*
X201370091Y-112603740D01*
X201788667Y-112687000D01*
X202071333Y-112687000D01*
X202489909Y-112603740D01*
X202964577Y-112286577D01*
X203200000Y-111934242D01*
X203435423Y-112286577D01*
X203910091Y-112603740D01*
X204328667Y-112687000D01*
X204611333Y-112687000D01*
X205029909Y-112603740D01*
X205504577Y-112286577D01*
X205740000Y-111934242D01*
X205975423Y-112286577D01*
X206450091Y-112603740D01*
X206868667Y-112687000D01*
X207151333Y-112687000D01*
X207569909Y-112603740D01*
X208044577Y-112286577D01*
X208280000Y-111934242D01*
X208515423Y-112286577D01*
X208990091Y-112603740D01*
X209408667Y-112687000D01*
X209691333Y-112687000D01*
X210109909Y-112603740D01*
X210584577Y-112286577D01*
X210820000Y-111934242D01*
X211055423Y-112286577D01*
X211530091Y-112603740D01*
X211948667Y-112687000D01*
X212231333Y-112687000D01*
X212649909Y-112603740D01*
X213124577Y-112286577D01*
X213360000Y-111934242D01*
X213595423Y-112286577D01*
X214070091Y-112603740D01*
X214488667Y-112687000D01*
X214771333Y-112687000D01*
X215189909Y-112603740D01*
X215664577Y-112286577D01*
X215900000Y-111934242D01*
X216135423Y-112286577D01*
X216610091Y-112603740D01*
X217028667Y-112687000D01*
X217311333Y-112687000D01*
X217729909Y-112603740D01*
X218204577Y-112286577D01*
X218440000Y-111934242D01*
X218675423Y-112286577D01*
X219150091Y-112603740D01*
X219568667Y-112687000D01*
X219851333Y-112687000D01*
X220269909Y-112603740D01*
X220744577Y-112286577D01*
X220980000Y-111934242D01*
X221215423Y-112286577D01*
X221690091Y-112603740D01*
X222108667Y-112687000D01*
X222391333Y-112687000D01*
X222809909Y-112603740D01*
X223284577Y-112286577D01*
X223520000Y-111934242D01*
X223755423Y-112286577D01*
X224230091Y-112603740D01*
X224648667Y-112687000D01*
X224931333Y-112687000D01*
X225349909Y-112603740D01*
X225824577Y-112286577D01*
X226060000Y-111934242D01*
X226295423Y-112286577D01*
X226770091Y-112603740D01*
X227188667Y-112687000D01*
X227471333Y-112687000D01*
X227889909Y-112603740D01*
X228364577Y-112286577D01*
X228600000Y-111934242D01*
X228835423Y-112286577D01*
X229310091Y-112603740D01*
X229728667Y-112687000D01*
X230011333Y-112687000D01*
X230429909Y-112603740D01*
X230904577Y-112286577D01*
X231140000Y-111934242D01*
X231375423Y-112286577D01*
X231850091Y-112603740D01*
X232268667Y-112687000D01*
X232551333Y-112687000D01*
X232969909Y-112603740D01*
X233444577Y-112286577D01*
X233680000Y-111934242D01*
X233915423Y-112286577D01*
X234390091Y-112603740D01*
X234808667Y-112687000D01*
X235091333Y-112687000D01*
X235509909Y-112603740D01*
X235984577Y-112286577D01*
X236301740Y-111811909D01*
X236413113Y-111252000D01*
X236301740Y-110692091D01*
X235984577Y-110217423D01*
X235509909Y-109900260D01*
X235091333Y-109817000D01*
X234808667Y-109817000D01*
X234390091Y-109900260D01*
X233915423Y-110217423D01*
X233680000Y-110569758D01*
X233444577Y-110217423D01*
X232969909Y-109900260D01*
X232551333Y-109817000D01*
X232268667Y-109817000D01*
X231850091Y-109900260D01*
X231375423Y-110217423D01*
X231140000Y-110569758D01*
X230904577Y-110217423D01*
X230429909Y-109900260D01*
X230011333Y-109817000D01*
X229728667Y-109817000D01*
X229310091Y-109900260D01*
X228835423Y-110217423D01*
X228600000Y-110569758D01*
X228364577Y-110217423D01*
X227889909Y-109900260D01*
X227471333Y-109817000D01*
X227188667Y-109817000D01*
X226770091Y-109900260D01*
X226295423Y-110217423D01*
X226060000Y-110569758D01*
X225824577Y-110217423D01*
X225349909Y-109900260D01*
X224931333Y-109817000D01*
X224648667Y-109817000D01*
X224230091Y-109900260D01*
X223755423Y-110217423D01*
X223520000Y-110569758D01*
X223284577Y-110217423D01*
X222809909Y-109900260D01*
X222391333Y-109817000D01*
X222108667Y-109817000D01*
X221690091Y-109900260D01*
X221215423Y-110217423D01*
X220980000Y-110569758D01*
X220744577Y-110217423D01*
X220269909Y-109900260D01*
X219851333Y-109817000D01*
X219568667Y-109817000D01*
X219150091Y-109900260D01*
X218675423Y-110217423D01*
X218440000Y-110569758D01*
X218204577Y-110217423D01*
X217729909Y-109900260D01*
X217311333Y-109817000D01*
X217028667Y-109817000D01*
X216610091Y-109900260D01*
X216135423Y-110217423D01*
X215900000Y-110569758D01*
X215664577Y-110217423D01*
X215189909Y-109900260D01*
X214771333Y-109817000D01*
X214488667Y-109817000D01*
X214070091Y-109900260D01*
X213595423Y-110217423D01*
X213360000Y-110569758D01*
X213124577Y-110217423D01*
X212649909Y-109900260D01*
X212231333Y-109817000D01*
X211948667Y-109817000D01*
X211530091Y-109900260D01*
X211055423Y-110217423D01*
X210820000Y-110569758D01*
X210584577Y-110217423D01*
X210109909Y-109900260D01*
X209691333Y-109817000D01*
X209408667Y-109817000D01*
X208990091Y-109900260D01*
X208515423Y-110217423D01*
X208280000Y-110569758D01*
X208044577Y-110217423D01*
X207569909Y-109900260D01*
X207151333Y-109817000D01*
X206868667Y-109817000D01*
X206450091Y-109900260D01*
X205975423Y-110217423D01*
X205740000Y-110569758D01*
X205504577Y-110217423D01*
X205029909Y-109900260D01*
X204611333Y-109817000D01*
X204328667Y-109817000D01*
X203910091Y-109900260D01*
X203435423Y-110217423D01*
X203200000Y-110569758D01*
X202964577Y-110217423D01*
X202489909Y-109900260D01*
X202071333Y-109817000D01*
X201788667Y-109817000D01*
X201370091Y-109900260D01*
X200895423Y-110217423D01*
X200814785Y-110338106D01*
X200788157Y-110204235D01*
X200647809Y-109994191D01*
X200437765Y-109853843D01*
X200190000Y-109804560D01*
X198590000Y-109804560D01*
X198342235Y-109853843D01*
X198132191Y-109994191D01*
X197991843Y-110204235D01*
X197942560Y-110452000D01*
X193775000Y-110452000D01*
X193775000Y-109292387D01*
X193789399Y-109220000D01*
X193732354Y-108933217D01*
X193569905Y-108690095D01*
X193326783Y-108527646D01*
X193112388Y-108485000D01*
X193040000Y-108470601D01*
X192967612Y-108485000D01*
X172947000Y-108485000D01*
X172947000Y-102857257D01*
X172985078Y-102949185D01*
X173402815Y-103366922D01*
X173948615Y-103593000D01*
X174539385Y-103593000D01*
X175085185Y-103366922D01*
X175502922Y-102949185D01*
X175729000Y-102403385D01*
X175729000Y-101812615D01*
X175634249Y-101583866D01*
X176689000Y-101583866D01*
X176689000Y-102632134D01*
X177090155Y-103600608D01*
X177831392Y-104341845D01*
X178799866Y-104743000D01*
X179848134Y-104743000D01*
X180816608Y-104341845D01*
X181557845Y-103600608D01*
X181959000Y-102632134D01*
X181959000Y-101812615D01*
X182919000Y-101812615D01*
X182919000Y-102403385D01*
X183145078Y-102949185D01*
X183562815Y-103366922D01*
X184108615Y-103593000D01*
X184699385Y-103593000D01*
X185245185Y-103366922D01*
X185662922Y-102949185D01*
X185889000Y-102403385D01*
X185889000Y-101812615D01*
X185662922Y-101266815D01*
X185245185Y-100849078D01*
X184699385Y-100623000D01*
X184108615Y-100623000D01*
X183562815Y-100849078D01*
X183145078Y-101266815D01*
X182919000Y-101812615D01*
X181959000Y-101812615D01*
X181959000Y-101583866D01*
X181557845Y-100615392D01*
X180816608Y-99874155D01*
X179848134Y-99473000D01*
X178799866Y-99473000D01*
X177831392Y-99874155D01*
X177090155Y-100615392D01*
X176689000Y-101583866D01*
X175634249Y-101583866D01*
X175518235Y-101303784D01*
X175915453Y-101290836D01*
X176448359Y-101070099D01*
X176559263Y-100792868D01*
X175514000Y-99747605D01*
X175499858Y-99761748D01*
X175320253Y-99582143D01*
X175334395Y-99568000D01*
X175693605Y-99568000D01*
X176738868Y-100613263D01*
X177016099Y-100502359D01*
X177259323Y-99856407D01*
X177240294Y-99272615D01*
X191809000Y-99272615D01*
X191809000Y-99863385D01*
X192035078Y-100409185D01*
X192452815Y-100826922D01*
X192998615Y-101053000D01*
X193589385Y-101053000D01*
X194135185Y-100826922D01*
X194552922Y-100409185D01*
X194779000Y-99863385D01*
X194779000Y-99272615D01*
X194684249Y-99043866D01*
X195739000Y-99043866D01*
X195739000Y-100092134D01*
X196140155Y-101060608D01*
X196881392Y-101801845D01*
X197849866Y-102203000D01*
X198898134Y-102203000D01*
X199866608Y-101801845D01*
X200607845Y-101060608D01*
X201009000Y-100092134D01*
X201009000Y-99272615D01*
X201969000Y-99272615D01*
X201969000Y-99863385D01*
X202195078Y-100409185D01*
X202612815Y-100826922D01*
X203158615Y-101053000D01*
X203749385Y-101053000D01*
X204295185Y-100826922D01*
X204712922Y-100409185D01*
X204939000Y-99863385D01*
X204939000Y-99272615D01*
X204712922Y-98726815D01*
X204295185Y-98309078D01*
X203749385Y-98083000D01*
X203158615Y-98083000D01*
X202612815Y-98309078D01*
X202195078Y-98726815D01*
X201969000Y-99272615D01*
X201009000Y-99272615D01*
X201009000Y-99043866D01*
X200607845Y-98075392D01*
X199866608Y-97334155D01*
X198898134Y-96933000D01*
X197849866Y-96933000D01*
X196881392Y-97334155D01*
X196140155Y-98075392D01*
X195739000Y-99043866D01*
X194684249Y-99043866D01*
X194568235Y-98763784D01*
X194965453Y-98750836D01*
X195498359Y-98530099D01*
X195609263Y-98252868D01*
X194564000Y-97207605D01*
X194549858Y-97221748D01*
X194370253Y-97042143D01*
X194384395Y-97028000D01*
X194743605Y-97028000D01*
X195788868Y-98073263D01*
X196066099Y-97962359D01*
X196309323Y-97316407D01*
X196290294Y-96732615D01*
X210859000Y-96732615D01*
X210859000Y-97323385D01*
X211085078Y-97869185D01*
X211502815Y-98286922D01*
X212048615Y-98513000D01*
X212639385Y-98513000D01*
X213185185Y-98286922D01*
X213602922Y-97869185D01*
X213829000Y-97323385D01*
X213829000Y-96732615D01*
X213734249Y-96503866D01*
X214789000Y-96503866D01*
X214789000Y-97552134D01*
X215190155Y-98520608D01*
X215931392Y-99261845D01*
X216899866Y-99663000D01*
X217948134Y-99663000D01*
X218890606Y-99272615D01*
X229909000Y-99272615D01*
X229909000Y-99863385D01*
X230135078Y-100409185D01*
X230552815Y-100826922D01*
X231098615Y-101053000D01*
X231689385Y-101053000D01*
X232235185Y-100826922D01*
X232652922Y-100409185D01*
X232879000Y-99863385D01*
X232879000Y-99272615D01*
X232784249Y-99043866D01*
X233839000Y-99043866D01*
X233839000Y-100092134D01*
X234240155Y-101060608D01*
X234981392Y-101801845D01*
X235949866Y-102203000D01*
X236998134Y-102203000D01*
X237940606Y-101812615D01*
X248959000Y-101812615D01*
X248959000Y-102403385D01*
X249185078Y-102949185D01*
X249602815Y-103366922D01*
X250148615Y-103593000D01*
X250739385Y-103593000D01*
X251285185Y-103366922D01*
X251702922Y-102949185D01*
X251929000Y-102403385D01*
X251929000Y-101812615D01*
X251834249Y-101583866D01*
X252889000Y-101583866D01*
X252889000Y-102632134D01*
X253290155Y-103600608D01*
X254031392Y-104341845D01*
X254999866Y-104743000D01*
X256048134Y-104743000D01*
X257016608Y-104341845D01*
X257757845Y-103600608D01*
X258159000Y-102632134D01*
X258159000Y-101583866D01*
X257757845Y-100615392D01*
X257016608Y-99874155D01*
X256048134Y-99473000D01*
X254999866Y-99473000D01*
X254031392Y-99874155D01*
X253290155Y-100615392D01*
X252889000Y-101583866D01*
X251834249Y-101583866D01*
X251718235Y-101303784D01*
X252115453Y-101290836D01*
X252648359Y-101070099D01*
X252759263Y-100792868D01*
X251714000Y-99747605D01*
X251699858Y-99761748D01*
X251520253Y-99582143D01*
X251534395Y-99568000D01*
X251893605Y-99568000D01*
X252938868Y-100613263D01*
X253216099Y-100502359D01*
X253459323Y-99856407D01*
X253436836Y-99166547D01*
X253216099Y-98633641D01*
X252938868Y-98522737D01*
X251893605Y-99568000D01*
X251534395Y-99568000D01*
X250489132Y-98522737D01*
X250211901Y-98633641D01*
X249968677Y-99279593D01*
X249991164Y-99969453D01*
X250211901Y-100502359D01*
X250489130Y-100613262D01*
X250479392Y-100623000D01*
X250148615Y-100623000D01*
X249602815Y-100849078D01*
X249185078Y-101266815D01*
X248959000Y-101812615D01*
X237940606Y-101812615D01*
X237966608Y-101801845D01*
X238707845Y-101060608D01*
X239109000Y-100092134D01*
X239109000Y-99272615D01*
X240069000Y-99272615D01*
X240069000Y-99863385D01*
X240295078Y-100409185D01*
X240712815Y-100826922D01*
X241258615Y-101053000D01*
X241849385Y-101053000D01*
X242395185Y-100826922D01*
X242812922Y-100409185D01*
X243039000Y-99863385D01*
X243039000Y-99272615D01*
X242812922Y-98726815D01*
X242429239Y-98343132D01*
X250668737Y-98343132D01*
X251714000Y-99388395D01*
X252759263Y-98343132D01*
X252648359Y-98065901D01*
X252002407Y-97822677D01*
X251312547Y-97845164D01*
X250779641Y-98065901D01*
X250668737Y-98343132D01*
X242429239Y-98343132D01*
X242395185Y-98309078D01*
X241849385Y-98083000D01*
X241258615Y-98083000D01*
X240712815Y-98309078D01*
X240295078Y-98726815D01*
X240069000Y-99272615D01*
X239109000Y-99272615D01*
X239109000Y-99043866D01*
X238707845Y-98075392D01*
X237966608Y-97334155D01*
X236998134Y-96933000D01*
X235949866Y-96933000D01*
X234981392Y-97334155D01*
X234240155Y-98075392D01*
X233839000Y-99043866D01*
X232784249Y-99043866D01*
X232668235Y-98763784D01*
X233065453Y-98750836D01*
X233598359Y-98530099D01*
X233709263Y-98252868D01*
X232664000Y-97207605D01*
X232649858Y-97221748D01*
X232470253Y-97042143D01*
X232484395Y-97028000D01*
X232843605Y-97028000D01*
X233888868Y-98073263D01*
X234166099Y-97962359D01*
X234409323Y-97316407D01*
X234388673Y-96682887D01*
X256329000Y-96682887D01*
X256329000Y-97373113D01*
X256593138Y-98010799D01*
X257081201Y-98498862D01*
X257718887Y-98763000D01*
X258409113Y-98763000D01*
X259046799Y-98498862D01*
X259534862Y-98010799D01*
X259799000Y-97373113D01*
X259799000Y-96682887D01*
X259534862Y-96045201D01*
X259046799Y-95557138D01*
X258409113Y-95293000D01*
X257718887Y-95293000D01*
X257081201Y-95557138D01*
X256593138Y-96045201D01*
X256329000Y-96682887D01*
X234388673Y-96682887D01*
X234386836Y-96626547D01*
X234166099Y-96093641D01*
X233888868Y-95982737D01*
X232843605Y-97028000D01*
X232484395Y-97028000D01*
X231439132Y-95982737D01*
X231161901Y-96093641D01*
X230918677Y-96739593D01*
X230941164Y-97429453D01*
X231161901Y-97962359D01*
X231439130Y-98073262D01*
X231429392Y-98083000D01*
X231098615Y-98083000D01*
X230552815Y-98309078D01*
X230135078Y-98726815D01*
X229909000Y-99272615D01*
X218890606Y-99272615D01*
X218916608Y-99261845D01*
X219657845Y-98520608D01*
X220059000Y-97552134D01*
X220059000Y-96732615D01*
X221019000Y-96732615D01*
X221019000Y-97323385D01*
X221245078Y-97869185D01*
X221662815Y-98286922D01*
X222208615Y-98513000D01*
X222799385Y-98513000D01*
X223345185Y-98286922D01*
X223762922Y-97869185D01*
X223989000Y-97323385D01*
X223989000Y-96732615D01*
X223762922Y-96186815D01*
X223379239Y-95803132D01*
X231618737Y-95803132D01*
X232664000Y-96848395D01*
X233709263Y-95803132D01*
X233598359Y-95525901D01*
X232952407Y-95282677D01*
X232262547Y-95305164D01*
X231729641Y-95525901D01*
X231618737Y-95803132D01*
X223379239Y-95803132D01*
X223345185Y-95769078D01*
X222799385Y-95543000D01*
X222208615Y-95543000D01*
X221662815Y-95769078D01*
X221245078Y-96186815D01*
X221019000Y-96732615D01*
X220059000Y-96732615D01*
X220059000Y-96503866D01*
X219657845Y-95535392D01*
X218916608Y-94794155D01*
X217948134Y-94393000D01*
X216899866Y-94393000D01*
X215931392Y-94794155D01*
X215190155Y-95535392D01*
X214789000Y-96503866D01*
X213734249Y-96503866D01*
X213618235Y-96223784D01*
X214015453Y-96210836D01*
X214548359Y-95990099D01*
X214659263Y-95712868D01*
X213614000Y-94667605D01*
X213599858Y-94681748D01*
X213420253Y-94502143D01*
X213434395Y-94488000D01*
X213793605Y-94488000D01*
X214838868Y-95533263D01*
X215116099Y-95422359D01*
X215359323Y-94776407D01*
X215338673Y-94142887D01*
X237279000Y-94142887D01*
X237279000Y-94833113D01*
X237543138Y-95470799D01*
X238031201Y-95958862D01*
X238668887Y-96223000D01*
X239359113Y-96223000D01*
X239996799Y-95958862D01*
X240484862Y-95470799D01*
X240749000Y-94833113D01*
X240749000Y-94142887D01*
X240484862Y-93505201D01*
X239996799Y-93017138D01*
X239359113Y-92753000D01*
X238668887Y-92753000D01*
X238031201Y-93017138D01*
X237543138Y-93505201D01*
X237279000Y-94142887D01*
X215338673Y-94142887D01*
X215336836Y-94086547D01*
X215116099Y-93553641D01*
X214838868Y-93442737D01*
X213793605Y-94488000D01*
X213434395Y-94488000D01*
X212389132Y-93442737D01*
X212111901Y-93553641D01*
X211868677Y-94199593D01*
X211891164Y-94889453D01*
X212111901Y-95422359D01*
X212389130Y-95533262D01*
X212379392Y-95543000D01*
X212048615Y-95543000D01*
X211502815Y-95769078D01*
X211085078Y-96186815D01*
X210859000Y-96732615D01*
X196290294Y-96732615D01*
X196286836Y-96626547D01*
X196066099Y-96093641D01*
X195788868Y-95982737D01*
X194743605Y-97028000D01*
X194384395Y-97028000D01*
X193339132Y-95982737D01*
X193061901Y-96093641D01*
X192818677Y-96739593D01*
X192841164Y-97429453D01*
X193061901Y-97962359D01*
X193339130Y-98073262D01*
X193329392Y-98083000D01*
X192998615Y-98083000D01*
X192452815Y-98309078D01*
X192035078Y-98726815D01*
X191809000Y-99272615D01*
X177240294Y-99272615D01*
X177236836Y-99166547D01*
X177016099Y-98633641D01*
X176738868Y-98522737D01*
X175693605Y-99568000D01*
X175334395Y-99568000D01*
X174289132Y-98522737D01*
X174011901Y-98633641D01*
X173768677Y-99279593D01*
X173791164Y-99969453D01*
X174011901Y-100502359D01*
X174289130Y-100613262D01*
X174279392Y-100623000D01*
X173948615Y-100623000D01*
X173402815Y-100849078D01*
X172985078Y-101266815D01*
X172947000Y-101358743D01*
X172947000Y-98343132D01*
X174468737Y-98343132D01*
X175514000Y-99388395D01*
X176559263Y-98343132D01*
X176448359Y-98065901D01*
X175802407Y-97822677D01*
X175112547Y-97845164D01*
X174579641Y-98065901D01*
X174468737Y-98343132D01*
X172947000Y-98343132D01*
X172947000Y-96682887D01*
X180129000Y-96682887D01*
X180129000Y-97373113D01*
X180393138Y-98010799D01*
X180881201Y-98498862D01*
X181518887Y-98763000D01*
X182209113Y-98763000D01*
X182846799Y-98498862D01*
X183334862Y-98010799D01*
X183599000Y-97373113D01*
X183599000Y-96682887D01*
X183334862Y-96045201D01*
X183092793Y-95803132D01*
X193518737Y-95803132D01*
X194564000Y-96848395D01*
X195609263Y-95803132D01*
X195498359Y-95525901D01*
X194852407Y-95282677D01*
X194162547Y-95305164D01*
X193629641Y-95525901D01*
X193518737Y-95803132D01*
X183092793Y-95803132D01*
X182846799Y-95557138D01*
X182209113Y-95293000D01*
X181518887Y-95293000D01*
X180881201Y-95557138D01*
X180393138Y-96045201D01*
X180129000Y-96682887D01*
X172947000Y-96682887D01*
X172947000Y-94142887D01*
X199179000Y-94142887D01*
X199179000Y-94833113D01*
X199443138Y-95470799D01*
X199931201Y-95958862D01*
X200568887Y-96223000D01*
X201259113Y-96223000D01*
X201896799Y-95958862D01*
X202384862Y-95470799D01*
X202649000Y-94833113D01*
X202649000Y-94142887D01*
X202384862Y-93505201D01*
X202142793Y-93263132D01*
X212568737Y-93263132D01*
X213614000Y-94308395D01*
X214659263Y-93263132D01*
X214548359Y-92985901D01*
X213902407Y-92742677D01*
X213212547Y-92765164D01*
X212679641Y-92985901D01*
X212568737Y-93263132D01*
X202142793Y-93263132D01*
X201896799Y-93017138D01*
X201259113Y-92753000D01*
X200568887Y-92753000D01*
X199931201Y-93017138D01*
X199443138Y-93505201D01*
X199179000Y-94142887D01*
X172947000Y-94142887D01*
X172947000Y-91602887D01*
X218229000Y-91602887D01*
X218229000Y-92293113D01*
X218493138Y-92930799D01*
X218981201Y-93418862D01*
X219618887Y-93683000D01*
X220309113Y-93683000D01*
X220946799Y-93418862D01*
X221434862Y-92930799D01*
X221699000Y-92293113D01*
X221699000Y-91602887D01*
X221434862Y-90965201D01*
X220946799Y-90477138D01*
X220309113Y-90213000D01*
X219618887Y-90213000D01*
X218981201Y-90477138D01*
X218493138Y-90965201D01*
X218229000Y-91602887D01*
X172947000Y-91602887D01*
X172947000Y-83807257D01*
X172985078Y-83899185D01*
X173402815Y-84316922D01*
X173948615Y-84543000D01*
X174539385Y-84543000D01*
X175085185Y-84316922D01*
X175502922Y-83899185D01*
X175729000Y-83353385D01*
X175729000Y-82762615D01*
X175634249Y-82533866D01*
X176689000Y-82533866D01*
X176689000Y-83582134D01*
X177090155Y-84550608D01*
X177831392Y-85291845D01*
X178799866Y-85693000D01*
X179848134Y-85693000D01*
X180816608Y-85291845D01*
X181557845Y-84550608D01*
X181959000Y-83582134D01*
X181959000Y-82762615D01*
X182919000Y-82762615D01*
X182919000Y-83353385D01*
X183145078Y-83899185D01*
X183562815Y-84316922D01*
X184108615Y-84543000D01*
X184699385Y-84543000D01*
X185245185Y-84316922D01*
X185662922Y-83899185D01*
X185889000Y-83353385D01*
X185889000Y-82762615D01*
X185662922Y-82216815D01*
X185245185Y-81799078D01*
X184699385Y-81573000D01*
X184108615Y-81573000D01*
X183562815Y-81799078D01*
X183145078Y-82216815D01*
X182919000Y-82762615D01*
X181959000Y-82762615D01*
X181959000Y-82533866D01*
X181557845Y-81565392D01*
X180816608Y-80824155D01*
X179848134Y-80423000D01*
X178799866Y-80423000D01*
X177831392Y-80824155D01*
X177090155Y-81565392D01*
X176689000Y-82533866D01*
X175634249Y-82533866D01*
X175518235Y-82253784D01*
X175915453Y-82240836D01*
X176448359Y-82020099D01*
X176559263Y-81742868D01*
X175514000Y-80697605D01*
X175499858Y-80711748D01*
X175320253Y-80532143D01*
X175334395Y-80518000D01*
X175693605Y-80518000D01*
X176738868Y-81563263D01*
X177016099Y-81452359D01*
X177259323Y-80806407D01*
X177240294Y-80222615D01*
X191809000Y-80222615D01*
X191809000Y-80813385D01*
X192035078Y-81359185D01*
X192452815Y-81776922D01*
X192998615Y-82003000D01*
X193589385Y-82003000D01*
X194135185Y-81776922D01*
X194552922Y-81359185D01*
X194779000Y-80813385D01*
X194779000Y-80222615D01*
X194684249Y-79993866D01*
X195739000Y-79993866D01*
X195739000Y-81042134D01*
X196140155Y-82010608D01*
X196881392Y-82751845D01*
X197849866Y-83153000D01*
X198898134Y-83153000D01*
X199866608Y-82751845D01*
X200607845Y-82010608D01*
X201009000Y-81042134D01*
X201009000Y-80222615D01*
X201969000Y-80222615D01*
X201969000Y-80813385D01*
X202195078Y-81359185D01*
X202612815Y-81776922D01*
X203158615Y-82003000D01*
X203749385Y-82003000D01*
X204295185Y-81776922D01*
X204712922Y-81359185D01*
X204939000Y-80813385D01*
X204939000Y-80222615D01*
X204712922Y-79676815D01*
X204295185Y-79259078D01*
X203749385Y-79033000D01*
X203158615Y-79033000D01*
X202612815Y-79259078D01*
X202195078Y-79676815D01*
X201969000Y-80222615D01*
X201009000Y-80222615D01*
X201009000Y-79993866D01*
X200607845Y-79025392D01*
X199866608Y-78284155D01*
X198898134Y-77883000D01*
X197849866Y-77883000D01*
X196881392Y-78284155D01*
X196140155Y-79025392D01*
X195739000Y-79993866D01*
X194684249Y-79993866D01*
X194568235Y-79713784D01*
X194965453Y-79700836D01*
X195498359Y-79480099D01*
X195609263Y-79202868D01*
X194564000Y-78157605D01*
X194549858Y-78171748D01*
X194370253Y-77992143D01*
X194384395Y-77978000D01*
X194743605Y-77978000D01*
X195788868Y-79023263D01*
X196066099Y-78912359D01*
X196309323Y-78266407D01*
X196290294Y-77682615D01*
X210859000Y-77682615D01*
X210859000Y-78273385D01*
X211085078Y-78819185D01*
X211502815Y-79236922D01*
X212048615Y-79463000D01*
X212639385Y-79463000D01*
X213185185Y-79236922D01*
X213602922Y-78819185D01*
X213829000Y-78273385D01*
X213829000Y-77682615D01*
X213734249Y-77453866D01*
X214789000Y-77453866D01*
X214789000Y-78502134D01*
X215190155Y-79470608D01*
X215931392Y-80211845D01*
X216899866Y-80613000D01*
X217948134Y-80613000D01*
X218890606Y-80222615D01*
X229909000Y-80222615D01*
X229909000Y-80813385D01*
X230135078Y-81359185D01*
X230552815Y-81776922D01*
X231098615Y-82003000D01*
X231689385Y-82003000D01*
X232235185Y-81776922D01*
X232652922Y-81359185D01*
X232879000Y-80813385D01*
X232879000Y-80222615D01*
X232784249Y-79993866D01*
X233839000Y-79993866D01*
X233839000Y-81042134D01*
X234240155Y-82010608D01*
X234981392Y-82751845D01*
X235949866Y-83153000D01*
X236998134Y-83153000D01*
X237940606Y-82762615D01*
X248959000Y-82762615D01*
X248959000Y-83353385D01*
X249185078Y-83899185D01*
X249602815Y-84316922D01*
X250148615Y-84543000D01*
X250739385Y-84543000D01*
X251285185Y-84316922D01*
X251702922Y-83899185D01*
X251929000Y-83353385D01*
X251929000Y-82762615D01*
X251834249Y-82533866D01*
X252889000Y-82533866D01*
X252889000Y-83582134D01*
X253290155Y-84550608D01*
X254031392Y-85291845D01*
X254999866Y-85693000D01*
X256048134Y-85693000D01*
X257016608Y-85291845D01*
X257757845Y-84550608D01*
X258159000Y-83582134D01*
X258159000Y-82533866D01*
X257757845Y-81565392D01*
X257016608Y-80824155D01*
X256048134Y-80423000D01*
X254999866Y-80423000D01*
X254031392Y-80824155D01*
X253290155Y-81565392D01*
X252889000Y-82533866D01*
X251834249Y-82533866D01*
X251718235Y-82253784D01*
X252115453Y-82240836D01*
X252648359Y-82020099D01*
X252759263Y-81742868D01*
X251714000Y-80697605D01*
X251699858Y-80711748D01*
X251520253Y-80532143D01*
X251534395Y-80518000D01*
X251893605Y-80518000D01*
X252938868Y-81563263D01*
X253216099Y-81452359D01*
X253459323Y-80806407D01*
X253436836Y-80116547D01*
X253216099Y-79583641D01*
X252938868Y-79472737D01*
X251893605Y-80518000D01*
X251534395Y-80518000D01*
X250489132Y-79472737D01*
X250211901Y-79583641D01*
X249968677Y-80229593D01*
X249991164Y-80919453D01*
X250211901Y-81452359D01*
X250489130Y-81563262D01*
X250479392Y-81573000D01*
X250148615Y-81573000D01*
X249602815Y-81799078D01*
X249185078Y-82216815D01*
X248959000Y-82762615D01*
X237940606Y-82762615D01*
X237966608Y-82751845D01*
X238707845Y-82010608D01*
X239109000Y-81042134D01*
X239109000Y-80222615D01*
X240069000Y-80222615D01*
X240069000Y-80813385D01*
X240295078Y-81359185D01*
X240712815Y-81776922D01*
X241258615Y-82003000D01*
X241849385Y-82003000D01*
X242395185Y-81776922D01*
X242812922Y-81359185D01*
X243039000Y-80813385D01*
X243039000Y-80222615D01*
X242812922Y-79676815D01*
X242429239Y-79293132D01*
X250668737Y-79293132D01*
X251714000Y-80338395D01*
X252759263Y-79293132D01*
X252648359Y-79015901D01*
X252002407Y-78772677D01*
X251312547Y-78795164D01*
X250779641Y-79015901D01*
X250668737Y-79293132D01*
X242429239Y-79293132D01*
X242395185Y-79259078D01*
X241849385Y-79033000D01*
X241258615Y-79033000D01*
X240712815Y-79259078D01*
X240295078Y-79676815D01*
X240069000Y-80222615D01*
X239109000Y-80222615D01*
X239109000Y-79993866D01*
X238707845Y-79025392D01*
X237966608Y-78284155D01*
X236998134Y-77883000D01*
X235949866Y-77883000D01*
X234981392Y-78284155D01*
X234240155Y-79025392D01*
X233839000Y-79993866D01*
X232784249Y-79993866D01*
X232668235Y-79713784D01*
X233065453Y-79700836D01*
X233598359Y-79480099D01*
X233709263Y-79202868D01*
X232664000Y-78157605D01*
X232649858Y-78171748D01*
X232470253Y-77992143D01*
X232484395Y-77978000D01*
X232843605Y-77978000D01*
X233888868Y-79023263D01*
X234166099Y-78912359D01*
X234409323Y-78266407D01*
X234388673Y-77632887D01*
X256329000Y-77632887D01*
X256329000Y-78323113D01*
X256593138Y-78960799D01*
X257081201Y-79448862D01*
X257718887Y-79713000D01*
X258409113Y-79713000D01*
X259046799Y-79448862D01*
X259534862Y-78960799D01*
X259799000Y-78323113D01*
X259799000Y-77632887D01*
X259534862Y-76995201D01*
X259046799Y-76507138D01*
X258409113Y-76243000D01*
X257718887Y-76243000D01*
X257081201Y-76507138D01*
X256593138Y-76995201D01*
X256329000Y-77632887D01*
X234388673Y-77632887D01*
X234386836Y-77576547D01*
X234166099Y-77043641D01*
X233888868Y-76932737D01*
X232843605Y-77978000D01*
X232484395Y-77978000D01*
X231439132Y-76932737D01*
X231161901Y-77043641D01*
X230918677Y-77689593D01*
X230941164Y-78379453D01*
X231161901Y-78912359D01*
X231439130Y-79023262D01*
X231429392Y-79033000D01*
X231098615Y-79033000D01*
X230552815Y-79259078D01*
X230135078Y-79676815D01*
X229909000Y-80222615D01*
X218890606Y-80222615D01*
X218916608Y-80211845D01*
X219657845Y-79470608D01*
X220059000Y-78502134D01*
X220059000Y-77682615D01*
X221019000Y-77682615D01*
X221019000Y-78273385D01*
X221245078Y-78819185D01*
X221662815Y-79236922D01*
X222208615Y-79463000D01*
X222799385Y-79463000D01*
X223345185Y-79236922D01*
X223762922Y-78819185D01*
X223989000Y-78273385D01*
X223989000Y-77682615D01*
X223762922Y-77136815D01*
X223379239Y-76753132D01*
X231618737Y-76753132D01*
X232664000Y-77798395D01*
X233709263Y-76753132D01*
X233598359Y-76475901D01*
X232952407Y-76232677D01*
X232262547Y-76255164D01*
X231729641Y-76475901D01*
X231618737Y-76753132D01*
X223379239Y-76753132D01*
X223345185Y-76719078D01*
X222799385Y-76493000D01*
X222208615Y-76493000D01*
X221662815Y-76719078D01*
X221245078Y-77136815D01*
X221019000Y-77682615D01*
X220059000Y-77682615D01*
X220059000Y-77453866D01*
X219657845Y-76485392D01*
X218916608Y-75744155D01*
X217948134Y-75343000D01*
X216899866Y-75343000D01*
X215931392Y-75744155D01*
X215190155Y-76485392D01*
X214789000Y-77453866D01*
X213734249Y-77453866D01*
X213618235Y-77173784D01*
X214015453Y-77160836D01*
X214548359Y-76940099D01*
X214659263Y-76662868D01*
X213614000Y-75617605D01*
X213599858Y-75631748D01*
X213420253Y-75452143D01*
X213434395Y-75438000D01*
X213793605Y-75438000D01*
X214838868Y-76483263D01*
X215116099Y-76372359D01*
X215359323Y-75726407D01*
X215338673Y-75092887D01*
X237279000Y-75092887D01*
X237279000Y-75783113D01*
X237543138Y-76420799D01*
X238031201Y-76908862D01*
X238668887Y-77173000D01*
X239359113Y-77173000D01*
X239996799Y-76908862D01*
X240484862Y-76420799D01*
X240749000Y-75783113D01*
X240749000Y-75092887D01*
X240484862Y-74455201D01*
X239996799Y-73967138D01*
X239359113Y-73703000D01*
X238668887Y-73703000D01*
X238031201Y-73967138D01*
X237543138Y-74455201D01*
X237279000Y-75092887D01*
X215338673Y-75092887D01*
X215336836Y-75036547D01*
X215116099Y-74503641D01*
X214838868Y-74392737D01*
X213793605Y-75438000D01*
X213434395Y-75438000D01*
X212389132Y-74392737D01*
X212111901Y-74503641D01*
X211868677Y-75149593D01*
X211891164Y-75839453D01*
X212111901Y-76372359D01*
X212389130Y-76483262D01*
X212379392Y-76493000D01*
X212048615Y-76493000D01*
X211502815Y-76719078D01*
X211085078Y-77136815D01*
X210859000Y-77682615D01*
X196290294Y-77682615D01*
X196286836Y-77576547D01*
X196066099Y-77043641D01*
X195788868Y-76932737D01*
X194743605Y-77978000D01*
X194384395Y-77978000D01*
X193339132Y-76932737D01*
X193061901Y-77043641D01*
X192818677Y-77689593D01*
X192841164Y-78379453D01*
X193061901Y-78912359D01*
X193339130Y-79023262D01*
X193329392Y-79033000D01*
X192998615Y-79033000D01*
X192452815Y-79259078D01*
X192035078Y-79676815D01*
X191809000Y-80222615D01*
X177240294Y-80222615D01*
X177236836Y-80116547D01*
X177016099Y-79583641D01*
X176738868Y-79472737D01*
X175693605Y-80518000D01*
X175334395Y-80518000D01*
X174289132Y-79472737D01*
X174011901Y-79583641D01*
X173768677Y-80229593D01*
X173791164Y-80919453D01*
X174011901Y-81452359D01*
X174289130Y-81563262D01*
X174279392Y-81573000D01*
X173948615Y-81573000D01*
X173402815Y-81799078D01*
X172985078Y-82216815D01*
X172947000Y-82308743D01*
X172947000Y-79293132D01*
X174468737Y-79293132D01*
X175514000Y-80338395D01*
X176559263Y-79293132D01*
X176448359Y-79015901D01*
X175802407Y-78772677D01*
X175112547Y-78795164D01*
X174579641Y-79015901D01*
X174468737Y-79293132D01*
X172947000Y-79293132D01*
X172947000Y-77632887D01*
X180129000Y-77632887D01*
X180129000Y-78323113D01*
X180393138Y-78960799D01*
X180881201Y-79448862D01*
X181518887Y-79713000D01*
X182209113Y-79713000D01*
X182846799Y-79448862D01*
X183334862Y-78960799D01*
X183599000Y-78323113D01*
X183599000Y-77632887D01*
X183334862Y-76995201D01*
X183092793Y-76753132D01*
X193518737Y-76753132D01*
X194564000Y-77798395D01*
X195609263Y-76753132D01*
X195498359Y-76475901D01*
X194852407Y-76232677D01*
X194162547Y-76255164D01*
X193629641Y-76475901D01*
X193518737Y-76753132D01*
X183092793Y-76753132D01*
X182846799Y-76507138D01*
X182209113Y-76243000D01*
X181518887Y-76243000D01*
X180881201Y-76507138D01*
X180393138Y-76995201D01*
X180129000Y-77632887D01*
X172947000Y-77632887D01*
X172947000Y-75092887D01*
X199179000Y-75092887D01*
X199179000Y-75783113D01*
X199443138Y-76420799D01*
X199931201Y-76908862D01*
X200568887Y-77173000D01*
X201259113Y-77173000D01*
X201896799Y-76908862D01*
X202384862Y-76420799D01*
X202649000Y-75783113D01*
X202649000Y-75092887D01*
X202384862Y-74455201D01*
X202142793Y-74213132D01*
X212568737Y-74213132D01*
X213614000Y-75258395D01*
X214659263Y-74213132D01*
X214548359Y-73935901D01*
X213902407Y-73692677D01*
X213212547Y-73715164D01*
X212679641Y-73935901D01*
X212568737Y-74213132D01*
X202142793Y-74213132D01*
X201896799Y-73967138D01*
X201259113Y-73703000D01*
X200568887Y-73703000D01*
X199931201Y-73967138D01*
X199443138Y-74455201D01*
X199179000Y-75092887D01*
X172947000Y-75092887D01*
X172947000Y-72552887D01*
X218229000Y-72552887D01*
X218229000Y-73243113D01*
X218493138Y-73880799D01*
X218981201Y-74368862D01*
X219618887Y-74633000D01*
X220309113Y-74633000D01*
X220946799Y-74368862D01*
X221434862Y-73880799D01*
X221699000Y-73243113D01*
X221699000Y-72552887D01*
X221434862Y-71915201D01*
X220946799Y-71427138D01*
X220309113Y-71163000D01*
X219618887Y-71163000D01*
X218981201Y-71427138D01*
X218493138Y-71915201D01*
X218229000Y-72552887D01*
X172947000Y-72552887D01*
X172947000Y-64757257D01*
X172985078Y-64849185D01*
X173402815Y-65266922D01*
X173948615Y-65493000D01*
X174539385Y-65493000D01*
X175085185Y-65266922D01*
X175502922Y-64849185D01*
X175729000Y-64303385D01*
X175729000Y-63712615D01*
X175634249Y-63483866D01*
X176689000Y-63483866D01*
X176689000Y-64532134D01*
X177090155Y-65500608D01*
X177831392Y-66241845D01*
X178799866Y-66643000D01*
X179848134Y-66643000D01*
X180816608Y-66241845D01*
X181557845Y-65500608D01*
X181959000Y-64532134D01*
X181959000Y-63712615D01*
X182919000Y-63712615D01*
X182919000Y-64303385D01*
X183145078Y-64849185D01*
X183562815Y-65266922D01*
X184108615Y-65493000D01*
X184699385Y-65493000D01*
X185245185Y-65266922D01*
X185662922Y-64849185D01*
X185889000Y-64303385D01*
X185889000Y-63712615D01*
X185662922Y-63166815D01*
X185245185Y-62749078D01*
X184699385Y-62523000D01*
X184108615Y-62523000D01*
X183562815Y-62749078D01*
X183145078Y-63166815D01*
X182919000Y-63712615D01*
X181959000Y-63712615D01*
X181959000Y-63483866D01*
X181557845Y-62515392D01*
X180816608Y-61774155D01*
X179848134Y-61373000D01*
X178799866Y-61373000D01*
X177831392Y-61774155D01*
X177090155Y-62515392D01*
X176689000Y-63483866D01*
X175634249Y-63483866D01*
X175518235Y-63203784D01*
X175915453Y-63190836D01*
X176448359Y-62970099D01*
X176559263Y-62692868D01*
X175514000Y-61647605D01*
X175499858Y-61661748D01*
X175320253Y-61482143D01*
X175334395Y-61468000D01*
X175693605Y-61468000D01*
X176738868Y-62513263D01*
X177016099Y-62402359D01*
X177259323Y-61756407D01*
X177240294Y-61172615D01*
X191809000Y-61172615D01*
X191809000Y-61763385D01*
X192035078Y-62309185D01*
X192452815Y-62726922D01*
X192998615Y-62953000D01*
X193589385Y-62953000D01*
X194135185Y-62726922D01*
X194552922Y-62309185D01*
X194779000Y-61763385D01*
X194779000Y-61172615D01*
X194684249Y-60943866D01*
X195739000Y-60943866D01*
X195739000Y-61992134D01*
X196140155Y-62960608D01*
X196881392Y-63701845D01*
X197849866Y-64103000D01*
X198898134Y-64103000D01*
X199866608Y-63701845D01*
X200607845Y-62960608D01*
X201009000Y-61992134D01*
X201009000Y-61172615D01*
X201969000Y-61172615D01*
X201969000Y-61763385D01*
X202195078Y-62309185D01*
X202612815Y-62726922D01*
X203158615Y-62953000D01*
X203749385Y-62953000D01*
X204295185Y-62726922D01*
X204712922Y-62309185D01*
X204939000Y-61763385D01*
X204939000Y-61172615D01*
X204712922Y-60626815D01*
X204295185Y-60209078D01*
X203749385Y-59983000D01*
X203158615Y-59983000D01*
X202612815Y-60209078D01*
X202195078Y-60626815D01*
X201969000Y-61172615D01*
X201009000Y-61172615D01*
X201009000Y-60943866D01*
X200607845Y-59975392D01*
X199866608Y-59234155D01*
X198898134Y-58833000D01*
X197849866Y-58833000D01*
X196881392Y-59234155D01*
X196140155Y-59975392D01*
X195739000Y-60943866D01*
X194684249Y-60943866D01*
X194568235Y-60663784D01*
X194965453Y-60650836D01*
X195498359Y-60430099D01*
X195609263Y-60152868D01*
X194564000Y-59107605D01*
X194549858Y-59121748D01*
X194370253Y-58942143D01*
X194384395Y-58928000D01*
X194743605Y-58928000D01*
X195788868Y-59973263D01*
X196066099Y-59862359D01*
X196309323Y-59216407D01*
X196290294Y-58632615D01*
X210859000Y-58632615D01*
X210859000Y-59223385D01*
X211085078Y-59769185D01*
X211502815Y-60186922D01*
X212048615Y-60413000D01*
X212639385Y-60413000D01*
X213185185Y-60186922D01*
X213602922Y-59769185D01*
X213829000Y-59223385D01*
X213829000Y-58632615D01*
X213734249Y-58403866D01*
X214789000Y-58403866D01*
X214789000Y-59452134D01*
X215190155Y-60420608D01*
X215931392Y-61161845D01*
X216899866Y-61563000D01*
X217948134Y-61563000D01*
X218890606Y-61172615D01*
X229909000Y-61172615D01*
X229909000Y-61763385D01*
X230135078Y-62309185D01*
X230552815Y-62726922D01*
X231098615Y-62953000D01*
X231689385Y-62953000D01*
X232235185Y-62726922D01*
X232652922Y-62309185D01*
X232879000Y-61763385D01*
X232879000Y-61172615D01*
X232784249Y-60943866D01*
X233839000Y-60943866D01*
X233839000Y-61992134D01*
X234240155Y-62960608D01*
X234981392Y-63701845D01*
X235949866Y-64103000D01*
X236998134Y-64103000D01*
X237940606Y-63712615D01*
X248959000Y-63712615D01*
X248959000Y-64303385D01*
X249185078Y-64849185D01*
X249602815Y-65266922D01*
X250148615Y-65493000D01*
X250739385Y-65493000D01*
X251285185Y-65266922D01*
X251702922Y-64849185D01*
X251929000Y-64303385D01*
X251929000Y-63712615D01*
X251834249Y-63483866D01*
X252889000Y-63483866D01*
X252889000Y-64532134D01*
X253290155Y-65500608D01*
X254031392Y-66241845D01*
X254999866Y-66643000D01*
X256048134Y-66643000D01*
X257016608Y-66241845D01*
X257757845Y-65500608D01*
X258159000Y-64532134D01*
X258159000Y-63483866D01*
X257757845Y-62515392D01*
X257016608Y-61774155D01*
X256048134Y-61373000D01*
X254999866Y-61373000D01*
X254031392Y-61774155D01*
X253290155Y-62515392D01*
X252889000Y-63483866D01*
X251834249Y-63483866D01*
X251718235Y-63203784D01*
X252115453Y-63190836D01*
X252648359Y-62970099D01*
X252759263Y-62692868D01*
X251714000Y-61647605D01*
X251699858Y-61661748D01*
X251520253Y-61482143D01*
X251534395Y-61468000D01*
X251893605Y-61468000D01*
X252938868Y-62513263D01*
X253216099Y-62402359D01*
X253459323Y-61756407D01*
X253436836Y-61066547D01*
X253216099Y-60533641D01*
X252938868Y-60422737D01*
X251893605Y-61468000D01*
X251534395Y-61468000D01*
X250489132Y-60422737D01*
X250211901Y-60533641D01*
X249968677Y-61179593D01*
X249991164Y-61869453D01*
X250211901Y-62402359D01*
X250489130Y-62513262D01*
X250479392Y-62523000D01*
X250148615Y-62523000D01*
X249602815Y-62749078D01*
X249185078Y-63166815D01*
X248959000Y-63712615D01*
X237940606Y-63712615D01*
X237966608Y-63701845D01*
X238707845Y-62960608D01*
X239109000Y-61992134D01*
X239109000Y-61172615D01*
X240069000Y-61172615D01*
X240069000Y-61763385D01*
X240295078Y-62309185D01*
X240712815Y-62726922D01*
X241258615Y-62953000D01*
X241849385Y-62953000D01*
X242395185Y-62726922D01*
X242812922Y-62309185D01*
X243039000Y-61763385D01*
X243039000Y-61172615D01*
X242812922Y-60626815D01*
X242429239Y-60243132D01*
X250668737Y-60243132D01*
X251714000Y-61288395D01*
X252759263Y-60243132D01*
X252648359Y-59965901D01*
X252002407Y-59722677D01*
X251312547Y-59745164D01*
X250779641Y-59965901D01*
X250668737Y-60243132D01*
X242429239Y-60243132D01*
X242395185Y-60209078D01*
X241849385Y-59983000D01*
X241258615Y-59983000D01*
X240712815Y-60209078D01*
X240295078Y-60626815D01*
X240069000Y-61172615D01*
X239109000Y-61172615D01*
X239109000Y-60943866D01*
X238707845Y-59975392D01*
X237966608Y-59234155D01*
X236998134Y-58833000D01*
X235949866Y-58833000D01*
X234981392Y-59234155D01*
X234240155Y-59975392D01*
X233839000Y-60943866D01*
X232784249Y-60943866D01*
X232668235Y-60663784D01*
X233065453Y-60650836D01*
X233598359Y-60430099D01*
X233709263Y-60152868D01*
X232664000Y-59107605D01*
X232649858Y-59121748D01*
X232470253Y-58942143D01*
X232484395Y-58928000D01*
X232843605Y-58928000D01*
X233888868Y-59973263D01*
X234166099Y-59862359D01*
X234409323Y-59216407D01*
X234386836Y-58526547D01*
X234166099Y-57993641D01*
X233888868Y-57882737D01*
X232843605Y-58928000D01*
X232484395Y-58928000D01*
X231439132Y-57882737D01*
X231161901Y-57993641D01*
X230918677Y-58639593D01*
X230941164Y-59329453D01*
X231161901Y-59862359D01*
X231439130Y-59973262D01*
X231429392Y-59983000D01*
X231098615Y-59983000D01*
X230552815Y-60209078D01*
X230135078Y-60626815D01*
X229909000Y-61172615D01*
X218890606Y-61172615D01*
X218916608Y-61161845D01*
X219657845Y-60420608D01*
X220059000Y-59452134D01*
X220059000Y-58632615D01*
X221019000Y-58632615D01*
X221019000Y-59223385D01*
X221245078Y-59769185D01*
X221662815Y-60186922D01*
X222208615Y-60413000D01*
X222799385Y-60413000D01*
X223345185Y-60186922D01*
X223762922Y-59769185D01*
X223989000Y-59223385D01*
X223989000Y-58632615D01*
X223762922Y-58086815D01*
X223379239Y-57703132D01*
X231618737Y-57703132D01*
X232664000Y-58748395D01*
X233709263Y-57703132D01*
X233598359Y-57425901D01*
X232952407Y-57182677D01*
X232262547Y-57205164D01*
X231729641Y-57425901D01*
X231618737Y-57703132D01*
X223379239Y-57703132D01*
X223345185Y-57669078D01*
X222799385Y-57443000D01*
X222208615Y-57443000D01*
X221662815Y-57669078D01*
X221245078Y-58086815D01*
X221019000Y-58632615D01*
X220059000Y-58632615D01*
X220059000Y-58403866D01*
X219657845Y-57435392D01*
X218916608Y-56694155D01*
X217948134Y-56293000D01*
X216899866Y-56293000D01*
X215931392Y-56694155D01*
X215190155Y-57435392D01*
X214789000Y-58403866D01*
X213734249Y-58403866D01*
X213618235Y-58123784D01*
X214015453Y-58110836D01*
X214548359Y-57890099D01*
X214659263Y-57612868D01*
X213614000Y-56567605D01*
X213599858Y-56581748D01*
X213420253Y-56402143D01*
X213434395Y-56388000D01*
X213793605Y-56388000D01*
X214838868Y-57433263D01*
X215116099Y-57322359D01*
X215359323Y-56676407D01*
X215336836Y-55986547D01*
X215116099Y-55453641D01*
X214838868Y-55342737D01*
X213793605Y-56388000D01*
X213434395Y-56388000D01*
X212389132Y-55342737D01*
X212111901Y-55453641D01*
X211868677Y-56099593D01*
X211891164Y-56789453D01*
X212111901Y-57322359D01*
X212389130Y-57433262D01*
X212379392Y-57443000D01*
X212048615Y-57443000D01*
X211502815Y-57669078D01*
X211085078Y-58086815D01*
X210859000Y-58632615D01*
X196290294Y-58632615D01*
X196286836Y-58526547D01*
X196066099Y-57993641D01*
X195788868Y-57882737D01*
X194743605Y-58928000D01*
X194384395Y-58928000D01*
X193339132Y-57882737D01*
X193061901Y-57993641D01*
X192818677Y-58639593D01*
X192841164Y-59329453D01*
X193061901Y-59862359D01*
X193339130Y-59973262D01*
X193329392Y-59983000D01*
X192998615Y-59983000D01*
X192452815Y-60209078D01*
X192035078Y-60626815D01*
X191809000Y-61172615D01*
X177240294Y-61172615D01*
X177236836Y-61066547D01*
X177016099Y-60533641D01*
X176738868Y-60422737D01*
X175693605Y-61468000D01*
X175334395Y-61468000D01*
X174289132Y-60422737D01*
X174011901Y-60533641D01*
X173768677Y-61179593D01*
X173791164Y-61869453D01*
X174011901Y-62402359D01*
X174289130Y-62513262D01*
X174279392Y-62523000D01*
X173948615Y-62523000D01*
X173402815Y-62749078D01*
X172985078Y-63166815D01*
X172947000Y-63258743D01*
X172947000Y-60243132D01*
X174468737Y-60243132D01*
X175514000Y-61288395D01*
X176559263Y-60243132D01*
X176448359Y-59965901D01*
X175802407Y-59722677D01*
X175112547Y-59745164D01*
X174579641Y-59965901D01*
X174468737Y-60243132D01*
X172947000Y-60243132D01*
X172947000Y-57631000D01*
X180707339Y-57631000D01*
X180393138Y-57945201D01*
X180129000Y-58582887D01*
X180129000Y-59273113D01*
X180393138Y-59910799D01*
X180881201Y-60398862D01*
X181518887Y-60663000D01*
X182209113Y-60663000D01*
X182846799Y-60398862D01*
X183334862Y-59910799D01*
X183599000Y-59273113D01*
X183599000Y-58582887D01*
X183334862Y-57945201D01*
X183092793Y-57703132D01*
X193518737Y-57703132D01*
X194564000Y-58748395D01*
X195609263Y-57703132D01*
X195498359Y-57425901D01*
X194852407Y-57182677D01*
X194162547Y-57205164D01*
X193629641Y-57425901D01*
X193518737Y-57703132D01*
X183092793Y-57703132D01*
X183020661Y-57631000D01*
X191189612Y-57631000D01*
X191262000Y-57645399D01*
X191334388Y-57631000D01*
X191548783Y-57588354D01*
X191791905Y-57425905D01*
X191954354Y-57182783D01*
X192011399Y-56896000D01*
X191997000Y-56823612D01*
X191997000Y-55091000D01*
X199757339Y-55091000D01*
X199443138Y-55405201D01*
X199179000Y-56042887D01*
X199179000Y-56733113D01*
X199443138Y-57370799D01*
X199931201Y-57858862D01*
X200568887Y-58123000D01*
X201259113Y-58123000D01*
X201896799Y-57858862D01*
X202384862Y-57370799D01*
X202649000Y-56733113D01*
X202649000Y-56042887D01*
X202384862Y-55405201D01*
X202142793Y-55163132D01*
X212568737Y-55163132D01*
X213614000Y-56208395D01*
X214659263Y-55163132D01*
X214548359Y-54885901D01*
X213902407Y-54642677D01*
X213212547Y-54665164D01*
X212679641Y-54885901D01*
X212568737Y-55163132D01*
X202142793Y-55163132D01*
X202070661Y-55091000D01*
X210239612Y-55091000D01*
X210312000Y-55105399D01*
X210384388Y-55091000D01*
X210598783Y-55048354D01*
X210841905Y-54885905D01*
X211004354Y-54642783D01*
X211061399Y-54356000D01*
X211047000Y-54283612D01*
X211047000Y-52551000D01*
X218807339Y-52551000D01*
X218493138Y-52865201D01*
X218493138Y-52865201D01*
G37*
X218493138Y-52865201D02*
X218229000Y-53502887D01*
X218229000Y-54193113D01*
X218493138Y-54830799D01*
X218981201Y-55318862D01*
X219618887Y-55583000D01*
X220309113Y-55583000D01*
X220946799Y-55318862D01*
X221434862Y-54830799D01*
X221699000Y-54193113D01*
X221699000Y-53502887D01*
X221434862Y-52865201D01*
X221120661Y-52551000D01*
X223801000Y-52551000D01*
X223801001Y-54283607D01*
X223786601Y-54356000D01*
X223843646Y-54642783D01*
X224006095Y-54885905D01*
X224249217Y-55048354D01*
X224463612Y-55091000D01*
X224536000Y-55105399D01*
X224608388Y-55091000D01*
X237857339Y-55091000D01*
X237543138Y-55405201D01*
X237279000Y-56042887D01*
X237279000Y-56733113D01*
X237543138Y-57370799D01*
X238031201Y-57858862D01*
X238668887Y-58123000D01*
X239359113Y-58123000D01*
X239996799Y-57858862D01*
X240484862Y-57370799D01*
X240749000Y-56733113D01*
X240749000Y-56042887D01*
X240484862Y-55405201D01*
X240170661Y-55091000D01*
X242851000Y-55091000D01*
X242851001Y-56823607D01*
X242836601Y-56896000D01*
X242893646Y-57182783D01*
X243056095Y-57425905D01*
X243299217Y-57588354D01*
X243513612Y-57631000D01*
X243586000Y-57645399D01*
X243658388Y-57631000D01*
X256907339Y-57631000D01*
X256593138Y-57945201D01*
X256329000Y-58582887D01*
X256329000Y-59273113D01*
X256593138Y-59910799D01*
X257081201Y-60398862D01*
X257718887Y-60663000D01*
X258409113Y-60663000D01*
X259046799Y-60398862D01*
X259534862Y-59910799D01*
X259799000Y-59273113D01*
X259799000Y-58582887D01*
X259534862Y-57945201D01*
X259220661Y-57631000D01*
X261901000Y-57631000D01*
X261901000Y-63258743D01*
X261862922Y-63166815D01*
X261445185Y-62749078D01*
X260899385Y-62523000D01*
X260308615Y-62523000D01*
X259762815Y-62749078D01*
X259345078Y-63166815D01*
X259119000Y-63712615D01*
X259119000Y-64303385D01*
X259345078Y-64849185D01*
X259762815Y-65266922D01*
X260308615Y-65493000D01*
X260899385Y-65493000D01*
X261445185Y-65266922D01*
X261862922Y-64849185D01*
X261901000Y-64757257D01*
X261901000Y-82308745D01*
X261862922Y-82216815D01*
X261445185Y-81799078D01*
X260899385Y-81573000D01*
X260308615Y-81573000D01*
X259762815Y-81799078D01*
X259345078Y-82216815D01*
X259119000Y-82762615D01*
X259119000Y-83353385D01*
X259345078Y-83899185D01*
X259762815Y-84316922D01*
X260308615Y-84543000D01*
X260899385Y-84543000D01*
X261445185Y-84316922D01*
X261862922Y-83899185D01*
X261901001Y-83807255D01*
X261901001Y-101358745D01*
X261862922Y-101266815D01*
X261445185Y-100849078D01*
X260899385Y-100623000D01*
X260308615Y-100623000D01*
X259762815Y-100849078D01*
X259345078Y-101266815D01*
X259119000Y-101812615D01*
X259119000Y-102403385D01*
X259345078Y-102949185D01*
X259762815Y-103366922D01*
X260308615Y-103593000D01*
X260899385Y-103593000D01*
X261445185Y-103366922D01*
X261862922Y-102949185D01*
X261901001Y-102857255D01*
X261901001Y-108485000D01*
X239086388Y-108485000D01*
X239014000Y-108470601D01*
X238941612Y-108485000D01*
X238727217Y-108527646D01*
X238484095Y-108690095D01*
X238321646Y-108933217D01*
X238264601Y-109220000D01*
X238279000Y-109292387D01*
X238279001Y-127281000D01*
X236148666Y-127281000D01*
X236301740Y-127051909D01*
X236413113Y-126492000D01*
X236301740Y-125932091D01*
X235984577Y-125457423D01*
X235509909Y-125140260D01*
X235091333Y-125057000D01*
X234808667Y-125057000D01*
X234390091Y-125140260D01*
X233915423Y-125457423D01*
X233680000Y-125809758D01*
X233444577Y-125457423D01*
X232969909Y-125140260D01*
X232551333Y-125057000D01*
X232268667Y-125057000D01*
X231850091Y-125140260D01*
X231375423Y-125457423D01*
X231140000Y-125809758D01*
X230904577Y-125457423D01*
X230429909Y-125140260D01*
X230011333Y-125057000D01*
X229728667Y-125057000D01*
X229310091Y-125140260D01*
X228835423Y-125457423D01*
X228600000Y-125809758D01*
X228364577Y-125457423D01*
X227889909Y-125140260D01*
X227471333Y-125057000D01*
X227188667Y-125057000D01*
X226770091Y-125140260D01*
X226295423Y-125457423D01*
X226060000Y-125809758D01*
X225824577Y-125457423D01*
X225349909Y-125140260D01*
X224931333Y-125057000D01*
X224648667Y-125057000D01*
X224230091Y-125140260D01*
X223755423Y-125457423D01*
X223520000Y-125809758D01*
X223284577Y-125457423D01*
X222809909Y-125140260D01*
X222391333Y-125057000D01*
X222108667Y-125057000D01*
X221690091Y-125140260D01*
X221215423Y-125457423D01*
X220980000Y-125809758D01*
X220744577Y-125457423D01*
X220269909Y-125140260D01*
X219851333Y-125057000D01*
X219568667Y-125057000D01*
X219150091Y-125140260D01*
X218675423Y-125457423D01*
X218440000Y-125809758D01*
X218204577Y-125457423D01*
X217729909Y-125140260D01*
X217311333Y-125057000D01*
X217028667Y-125057000D01*
X216610091Y-125140260D01*
X216135423Y-125457423D01*
X215900000Y-125809758D01*
X215664577Y-125457423D01*
X215189909Y-125140260D01*
X214771333Y-125057000D01*
X214488667Y-125057000D01*
X214070091Y-125140260D01*
X213595423Y-125457423D01*
X213360000Y-125809758D01*
X213124577Y-125457423D01*
X212649909Y-125140260D01*
X212231333Y-125057000D01*
X211948667Y-125057000D01*
X211530091Y-125140260D01*
X211055423Y-125457423D01*
X210820000Y-125809758D01*
X210584577Y-125457423D01*
X210109909Y-125140260D01*
X209691333Y-125057000D01*
X209408667Y-125057000D01*
X208990091Y-125140260D01*
X208515423Y-125457423D01*
X208280000Y-125809758D01*
X208044577Y-125457423D01*
X207569909Y-125140260D01*
X207151333Y-125057000D01*
X206868667Y-125057000D01*
X206450091Y-125140260D01*
X205975423Y-125457423D01*
X205740000Y-125809758D01*
X205504577Y-125457423D01*
X205029909Y-125140260D01*
X204611333Y-125057000D01*
X204328667Y-125057000D01*
X203910091Y-125140260D01*
X203435423Y-125457423D01*
X203200000Y-125809758D01*
X202964577Y-125457423D01*
X202489909Y-125140260D01*
X202071333Y-125057000D01*
X201788667Y-125057000D01*
X201370091Y-125140260D01*
X200895423Y-125457423D01*
X200660000Y-125809758D01*
X200424577Y-125457423D01*
X199949909Y-125140260D01*
X199531333Y-125057000D01*
X199248667Y-125057000D01*
X198830091Y-125140260D01*
X198355423Y-125457423D01*
X198038260Y-125932091D01*
X197926887Y-126492000D01*
X198038260Y-127051909D01*
X198355423Y-127526577D01*
X198368029Y-127535000D01*
X193775000Y-127535000D01*
X193775000Y-110452000D01*
X197942560Y-110452000D01*
X197942560Y-112052000D01*
X197991843Y-112299765D01*
X198132191Y-112509809D01*
X198342235Y-112650157D01*
X198590000Y-112699440D01*
X200190000Y-112699440D01*
X200437765Y-112650157D01*
X200647809Y-112509809D01*
X200788157Y-112299765D01*
X200814785Y-112165894D01*
X200895423Y-112286577D01*
X201370091Y-112603740D01*
X201788667Y-112687000D01*
X202071333Y-112687000D01*
X202489909Y-112603740D01*
X202964577Y-112286577D01*
X203200000Y-111934242D01*
X203435423Y-112286577D01*
X203910091Y-112603740D01*
X204328667Y-112687000D01*
X204611333Y-112687000D01*
X205029909Y-112603740D01*
X205504577Y-112286577D01*
X205740000Y-111934242D01*
X205975423Y-112286577D01*
X206450091Y-112603740D01*
X206868667Y-112687000D01*
X207151333Y-112687000D01*
X207569909Y-112603740D01*
X208044577Y-112286577D01*
X208280000Y-111934242D01*
X208515423Y-112286577D01*
X208990091Y-112603740D01*
X209408667Y-112687000D01*
X209691333Y-112687000D01*
X210109909Y-112603740D01*
X210584577Y-112286577D01*
X210820000Y-111934242D01*
X211055423Y-112286577D01*
X211530091Y-112603740D01*
X211948667Y-112687000D01*
X212231333Y-112687000D01*
X212649909Y-112603740D01*
X213124577Y-112286577D01*
X213360000Y-111934242D01*
X213595423Y-112286577D01*
X214070091Y-112603740D01*
X214488667Y-112687000D01*
X214771333Y-112687000D01*
X215189909Y-112603740D01*
X215664577Y-112286577D01*
X215900000Y-111934242D01*
X216135423Y-112286577D01*
X216610091Y-112603740D01*
X217028667Y-112687000D01*
X217311333Y-112687000D01*
X217729909Y-112603740D01*
X218204577Y-112286577D01*
X218440000Y-111934242D01*
X218675423Y-112286577D01*
X219150091Y-112603740D01*
X219568667Y-112687000D01*
X219851333Y-112687000D01*
X220269909Y-112603740D01*
X220744577Y-112286577D01*
X220980000Y-111934242D01*
X221215423Y-112286577D01*
X221690091Y-112603740D01*
X222108667Y-112687000D01*
X222391333Y-112687000D01*
X222809909Y-112603740D01*
X223284577Y-112286577D01*
X223520000Y-111934242D01*
X223755423Y-112286577D01*
X224230091Y-112603740D01*
X224648667Y-112687000D01*
X224931333Y-112687000D01*
X225349909Y-112603740D01*
X225824577Y-112286577D01*
X226060000Y-111934242D01*
X226295423Y-112286577D01*
X226770091Y-112603740D01*
X227188667Y-112687000D01*
X227471333Y-112687000D01*
X227889909Y-112603740D01*
X228364577Y-112286577D01*
X228600000Y-111934242D01*
X228835423Y-112286577D01*
X229310091Y-112603740D01*
X229728667Y-112687000D01*
X230011333Y-112687000D01*
X230429909Y-112603740D01*
X230904577Y-112286577D01*
X231140000Y-111934242D01*
X231375423Y-112286577D01*
X231850091Y-112603740D01*
X232268667Y-112687000D01*
X232551333Y-112687000D01*
X232969909Y-112603740D01*
X233444577Y-112286577D01*
X233680000Y-111934242D01*
X233915423Y-112286577D01*
X234390091Y-112603740D01*
X234808667Y-112687000D01*
X235091333Y-112687000D01*
X235509909Y-112603740D01*
X235984577Y-112286577D01*
X236301740Y-111811909D01*
X236413113Y-111252000D01*
X236301740Y-110692091D01*
X235984577Y-110217423D01*
X235509909Y-109900260D01*
X235091333Y-109817000D01*
X234808667Y-109817000D01*
X234390091Y-109900260D01*
X233915423Y-110217423D01*
X233680000Y-110569758D01*
X233444577Y-110217423D01*
X232969909Y-109900260D01*
X232551333Y-109817000D01*
X232268667Y-109817000D01*
X231850091Y-109900260D01*
X231375423Y-110217423D01*
X231140000Y-110569758D01*
X230904577Y-110217423D01*
X230429909Y-109900260D01*
X230011333Y-109817000D01*
X229728667Y-109817000D01*
X229310091Y-109900260D01*
X228835423Y-110217423D01*
X228600000Y-110569758D01*
X228364577Y-110217423D01*
X227889909Y-109900260D01*
X227471333Y-109817000D01*
X227188667Y-109817000D01*
X226770091Y-109900260D01*
X226295423Y-110217423D01*
X226060000Y-110569758D01*
X225824577Y-110217423D01*
X225349909Y-109900260D01*
X224931333Y-109817000D01*
X224648667Y-109817000D01*
X224230091Y-109900260D01*
X223755423Y-110217423D01*
X223520000Y-110569758D01*
X223284577Y-110217423D01*
X222809909Y-109900260D01*
X222391333Y-109817000D01*
X222108667Y-109817000D01*
X221690091Y-109900260D01*
X221215423Y-110217423D01*
X220980000Y-110569758D01*
X220744577Y-110217423D01*
X220269909Y-109900260D01*
X219851333Y-109817000D01*
X219568667Y-109817000D01*
X219150091Y-109900260D01*
X218675423Y-110217423D01*
X218440000Y-110569758D01*
X218204577Y-110217423D01*
X217729909Y-109900260D01*
X217311333Y-109817000D01*
X217028667Y-109817000D01*
X216610091Y-109900260D01*
X216135423Y-110217423D01*
X215900000Y-110569758D01*
X215664577Y-110217423D01*
X215189909Y-109900260D01*
X214771333Y-109817000D01*
X214488667Y-109817000D01*
X214070091Y-109900260D01*
X213595423Y-110217423D01*
X213360000Y-110569758D01*
X213124577Y-110217423D01*
X212649909Y-109900260D01*
X212231333Y-109817000D01*
X211948667Y-109817000D01*
X211530091Y-109900260D01*
X211055423Y-110217423D01*
X210820000Y-110569758D01*
X210584577Y-110217423D01*
X210109909Y-109900260D01*
X209691333Y-109817000D01*
X209408667Y-109817000D01*
X208990091Y-109900260D01*
X208515423Y-110217423D01*
X208280000Y-110569758D01*
X208044577Y-110217423D01*
X207569909Y-109900260D01*
X207151333Y-109817000D01*
X206868667Y-109817000D01*
X206450091Y-109900260D01*
X205975423Y-110217423D01*
X205740000Y-110569758D01*
X205504577Y-110217423D01*
X205029909Y-109900260D01*
X204611333Y-109817000D01*
X204328667Y-109817000D01*
X203910091Y-109900260D01*
X203435423Y-110217423D01*
X203200000Y-110569758D01*
X202964577Y-110217423D01*
X202489909Y-109900260D01*
X202071333Y-109817000D01*
X201788667Y-109817000D01*
X201370091Y-109900260D01*
X200895423Y-110217423D01*
X200814785Y-110338106D01*
X200788157Y-110204235D01*
X200647809Y-109994191D01*
X200437765Y-109853843D01*
X200190000Y-109804560D01*
X198590000Y-109804560D01*
X198342235Y-109853843D01*
X198132191Y-109994191D01*
X197991843Y-110204235D01*
X197942560Y-110452000D01*
X193775000Y-110452000D01*
X193775000Y-109292387D01*
X193789399Y-109220000D01*
X193732354Y-108933217D01*
X193569905Y-108690095D01*
X193326783Y-108527646D01*
X193112388Y-108485000D01*
X193040000Y-108470601D01*
X192967612Y-108485000D01*
X172947000Y-108485000D01*
X172947000Y-102857257D01*
X172985078Y-102949185D01*
X173402815Y-103366922D01*
X173948615Y-103593000D01*
X174539385Y-103593000D01*
X175085185Y-103366922D01*
X175502922Y-102949185D01*
X175729000Y-102403385D01*
X175729000Y-101812615D01*
X175634249Y-101583866D01*
X176689000Y-101583866D01*
X176689000Y-102632134D01*
X177090155Y-103600608D01*
X177831392Y-104341845D01*
X178799866Y-104743000D01*
X179848134Y-104743000D01*
X180816608Y-104341845D01*
X181557845Y-103600608D01*
X181959000Y-102632134D01*
X181959000Y-101812615D01*
X182919000Y-101812615D01*
X182919000Y-102403385D01*
X183145078Y-102949185D01*
X183562815Y-103366922D01*
X184108615Y-103593000D01*
X184699385Y-103593000D01*
X185245185Y-103366922D01*
X185662922Y-102949185D01*
X185889000Y-102403385D01*
X185889000Y-101812615D01*
X185662922Y-101266815D01*
X185245185Y-100849078D01*
X184699385Y-100623000D01*
X184108615Y-100623000D01*
X183562815Y-100849078D01*
X183145078Y-101266815D01*
X182919000Y-101812615D01*
X181959000Y-101812615D01*
X181959000Y-101583866D01*
X181557845Y-100615392D01*
X180816608Y-99874155D01*
X179848134Y-99473000D01*
X178799866Y-99473000D01*
X177831392Y-99874155D01*
X177090155Y-100615392D01*
X176689000Y-101583866D01*
X175634249Y-101583866D01*
X175518235Y-101303784D01*
X175915453Y-101290836D01*
X176448359Y-101070099D01*
X176559263Y-100792868D01*
X175514000Y-99747605D01*
X175499858Y-99761748D01*
X175320253Y-99582143D01*
X175334395Y-99568000D01*
X175693605Y-99568000D01*
X176738868Y-100613263D01*
X177016099Y-100502359D01*
X177259323Y-99856407D01*
X177240294Y-99272615D01*
X191809000Y-99272615D01*
X191809000Y-99863385D01*
X192035078Y-100409185D01*
X192452815Y-100826922D01*
X192998615Y-101053000D01*
X193589385Y-101053000D01*
X194135185Y-100826922D01*
X194552922Y-100409185D01*
X194779000Y-99863385D01*
X194779000Y-99272615D01*
X194684249Y-99043866D01*
X195739000Y-99043866D01*
X195739000Y-100092134D01*
X196140155Y-101060608D01*
X196881392Y-101801845D01*
X197849866Y-102203000D01*
X198898134Y-102203000D01*
X199866608Y-101801845D01*
X200607845Y-101060608D01*
X201009000Y-100092134D01*
X201009000Y-99272615D01*
X201969000Y-99272615D01*
X201969000Y-99863385D01*
X202195078Y-100409185D01*
X202612815Y-100826922D01*
X203158615Y-101053000D01*
X203749385Y-101053000D01*
X204295185Y-100826922D01*
X204712922Y-100409185D01*
X204939000Y-99863385D01*
X204939000Y-99272615D01*
X204712922Y-98726815D01*
X204295185Y-98309078D01*
X203749385Y-98083000D01*
X203158615Y-98083000D01*
X202612815Y-98309078D01*
X202195078Y-98726815D01*
X201969000Y-99272615D01*
X201009000Y-99272615D01*
X201009000Y-99043866D01*
X200607845Y-98075392D01*
X199866608Y-97334155D01*
X198898134Y-96933000D01*
X197849866Y-96933000D01*
X196881392Y-97334155D01*
X196140155Y-98075392D01*
X195739000Y-99043866D01*
X194684249Y-99043866D01*
X194568235Y-98763784D01*
X194965453Y-98750836D01*
X195498359Y-98530099D01*
X195609263Y-98252868D01*
X194564000Y-97207605D01*
X194549858Y-97221748D01*
X194370253Y-97042143D01*
X194384395Y-97028000D01*
X194743605Y-97028000D01*
X195788868Y-98073263D01*
X196066099Y-97962359D01*
X196309323Y-97316407D01*
X196290294Y-96732615D01*
X210859000Y-96732615D01*
X210859000Y-97323385D01*
X211085078Y-97869185D01*
X211502815Y-98286922D01*
X212048615Y-98513000D01*
X212639385Y-98513000D01*
X213185185Y-98286922D01*
X213602922Y-97869185D01*
X213829000Y-97323385D01*
X213829000Y-96732615D01*
X213734249Y-96503866D01*
X214789000Y-96503866D01*
X214789000Y-97552134D01*
X215190155Y-98520608D01*
X215931392Y-99261845D01*
X216899866Y-99663000D01*
X217948134Y-99663000D01*
X218890606Y-99272615D01*
X229909000Y-99272615D01*
X229909000Y-99863385D01*
X230135078Y-100409185D01*
X230552815Y-100826922D01*
X231098615Y-101053000D01*
X231689385Y-101053000D01*
X232235185Y-100826922D01*
X232652922Y-100409185D01*
X232879000Y-99863385D01*
X232879000Y-99272615D01*
X232784249Y-99043866D01*
X233839000Y-99043866D01*
X233839000Y-100092134D01*
X234240155Y-101060608D01*
X234981392Y-101801845D01*
X235949866Y-102203000D01*
X236998134Y-102203000D01*
X237940606Y-101812615D01*
X248959000Y-101812615D01*
X248959000Y-102403385D01*
X249185078Y-102949185D01*
X249602815Y-103366922D01*
X250148615Y-103593000D01*
X250739385Y-103593000D01*
X251285185Y-103366922D01*
X251702922Y-102949185D01*
X251929000Y-102403385D01*
X251929000Y-101812615D01*
X251834249Y-101583866D01*
X252889000Y-101583866D01*
X252889000Y-102632134D01*
X253290155Y-103600608D01*
X254031392Y-104341845D01*
X254999866Y-104743000D01*
X256048134Y-104743000D01*
X257016608Y-104341845D01*
X257757845Y-103600608D01*
X258159000Y-102632134D01*
X258159000Y-101583866D01*
X257757845Y-100615392D01*
X257016608Y-99874155D01*
X256048134Y-99473000D01*
X254999866Y-99473000D01*
X254031392Y-99874155D01*
X253290155Y-100615392D01*
X252889000Y-101583866D01*
X251834249Y-101583866D01*
X251718235Y-101303784D01*
X252115453Y-101290836D01*
X252648359Y-101070099D01*
X252759263Y-100792868D01*
X251714000Y-99747605D01*
X251699858Y-99761748D01*
X251520253Y-99582143D01*
X251534395Y-99568000D01*
X251893605Y-99568000D01*
X252938868Y-100613263D01*
X253216099Y-100502359D01*
X253459323Y-99856407D01*
X253436836Y-99166547D01*
X253216099Y-98633641D01*
X252938868Y-98522737D01*
X251893605Y-99568000D01*
X251534395Y-99568000D01*
X250489132Y-98522737D01*
X250211901Y-98633641D01*
X249968677Y-99279593D01*
X249991164Y-99969453D01*
X250211901Y-100502359D01*
X250489130Y-100613262D01*
X250479392Y-100623000D01*
X250148615Y-100623000D01*
X249602815Y-100849078D01*
X249185078Y-101266815D01*
X248959000Y-101812615D01*
X237940606Y-101812615D01*
X237966608Y-101801845D01*
X238707845Y-101060608D01*
X239109000Y-100092134D01*
X239109000Y-99272615D01*
X240069000Y-99272615D01*
X240069000Y-99863385D01*
X240295078Y-100409185D01*
X240712815Y-100826922D01*
X241258615Y-101053000D01*
X241849385Y-101053000D01*
X242395185Y-100826922D01*
X242812922Y-100409185D01*
X243039000Y-99863385D01*
X243039000Y-99272615D01*
X242812922Y-98726815D01*
X242429239Y-98343132D01*
X250668737Y-98343132D01*
X251714000Y-99388395D01*
X252759263Y-98343132D01*
X252648359Y-98065901D01*
X252002407Y-97822677D01*
X251312547Y-97845164D01*
X250779641Y-98065901D01*
X250668737Y-98343132D01*
X242429239Y-98343132D01*
X242395185Y-98309078D01*
X241849385Y-98083000D01*
X241258615Y-98083000D01*
X240712815Y-98309078D01*
X240295078Y-98726815D01*
X240069000Y-99272615D01*
X239109000Y-99272615D01*
X239109000Y-99043866D01*
X238707845Y-98075392D01*
X237966608Y-97334155D01*
X236998134Y-96933000D01*
X235949866Y-96933000D01*
X234981392Y-97334155D01*
X234240155Y-98075392D01*
X233839000Y-99043866D01*
X232784249Y-99043866D01*
X232668235Y-98763784D01*
X233065453Y-98750836D01*
X233598359Y-98530099D01*
X233709263Y-98252868D01*
X232664000Y-97207605D01*
X232649858Y-97221748D01*
X232470253Y-97042143D01*
X232484395Y-97028000D01*
X232843605Y-97028000D01*
X233888868Y-98073263D01*
X234166099Y-97962359D01*
X234409323Y-97316407D01*
X234388673Y-96682887D01*
X256329000Y-96682887D01*
X256329000Y-97373113D01*
X256593138Y-98010799D01*
X257081201Y-98498862D01*
X257718887Y-98763000D01*
X258409113Y-98763000D01*
X259046799Y-98498862D01*
X259534862Y-98010799D01*
X259799000Y-97373113D01*
X259799000Y-96682887D01*
X259534862Y-96045201D01*
X259046799Y-95557138D01*
X258409113Y-95293000D01*
X257718887Y-95293000D01*
X257081201Y-95557138D01*
X256593138Y-96045201D01*
X256329000Y-96682887D01*
X234388673Y-96682887D01*
X234386836Y-96626547D01*
X234166099Y-96093641D01*
X233888868Y-95982737D01*
X232843605Y-97028000D01*
X232484395Y-97028000D01*
X231439132Y-95982737D01*
X231161901Y-96093641D01*
X230918677Y-96739593D01*
X230941164Y-97429453D01*
X231161901Y-97962359D01*
X231439130Y-98073262D01*
X231429392Y-98083000D01*
X231098615Y-98083000D01*
X230552815Y-98309078D01*
X230135078Y-98726815D01*
X229909000Y-99272615D01*
X218890606Y-99272615D01*
X218916608Y-99261845D01*
X219657845Y-98520608D01*
X220059000Y-97552134D01*
X220059000Y-96732615D01*
X221019000Y-96732615D01*
X221019000Y-97323385D01*
X221245078Y-97869185D01*
X221662815Y-98286922D01*
X222208615Y-98513000D01*
X222799385Y-98513000D01*
X223345185Y-98286922D01*
X223762922Y-97869185D01*
X223989000Y-97323385D01*
X223989000Y-96732615D01*
X223762922Y-96186815D01*
X223379239Y-95803132D01*
X231618737Y-95803132D01*
X232664000Y-96848395D01*
X233709263Y-95803132D01*
X233598359Y-95525901D01*
X232952407Y-95282677D01*
X232262547Y-95305164D01*
X231729641Y-95525901D01*
X231618737Y-95803132D01*
X223379239Y-95803132D01*
X223345185Y-95769078D01*
X222799385Y-95543000D01*
X222208615Y-95543000D01*
X221662815Y-95769078D01*
X221245078Y-96186815D01*
X221019000Y-96732615D01*
X220059000Y-96732615D01*
X220059000Y-96503866D01*
X219657845Y-95535392D01*
X218916608Y-94794155D01*
X217948134Y-94393000D01*
X216899866Y-94393000D01*
X215931392Y-94794155D01*
X215190155Y-95535392D01*
X214789000Y-96503866D01*
X213734249Y-96503866D01*
X213618235Y-96223784D01*
X214015453Y-96210836D01*
X214548359Y-95990099D01*
X214659263Y-95712868D01*
X213614000Y-94667605D01*
X213599858Y-94681748D01*
X213420253Y-94502143D01*
X213434395Y-94488000D01*
X213793605Y-94488000D01*
X214838868Y-95533263D01*
X215116099Y-95422359D01*
X215359323Y-94776407D01*
X215338673Y-94142887D01*
X237279000Y-94142887D01*
X237279000Y-94833113D01*
X237543138Y-95470799D01*
X238031201Y-95958862D01*
X238668887Y-96223000D01*
X239359113Y-96223000D01*
X239996799Y-95958862D01*
X240484862Y-95470799D01*
X240749000Y-94833113D01*
X240749000Y-94142887D01*
X240484862Y-93505201D01*
X239996799Y-93017138D01*
X239359113Y-92753000D01*
X238668887Y-92753000D01*
X238031201Y-93017138D01*
X237543138Y-93505201D01*
X237279000Y-94142887D01*
X215338673Y-94142887D01*
X215336836Y-94086547D01*
X215116099Y-93553641D01*
X214838868Y-93442737D01*
X213793605Y-94488000D01*
X213434395Y-94488000D01*
X212389132Y-93442737D01*
X212111901Y-93553641D01*
X211868677Y-94199593D01*
X211891164Y-94889453D01*
X212111901Y-95422359D01*
X212389130Y-95533262D01*
X212379392Y-95543000D01*
X212048615Y-95543000D01*
X211502815Y-95769078D01*
X211085078Y-96186815D01*
X210859000Y-96732615D01*
X196290294Y-96732615D01*
X196286836Y-96626547D01*
X196066099Y-96093641D01*
X195788868Y-95982737D01*
X194743605Y-97028000D01*
X194384395Y-97028000D01*
X193339132Y-95982737D01*
X193061901Y-96093641D01*
X192818677Y-96739593D01*
X192841164Y-97429453D01*
X193061901Y-97962359D01*
X193339130Y-98073262D01*
X193329392Y-98083000D01*
X192998615Y-98083000D01*
X192452815Y-98309078D01*
X192035078Y-98726815D01*
X191809000Y-99272615D01*
X177240294Y-99272615D01*
X177236836Y-99166547D01*
X177016099Y-98633641D01*
X176738868Y-98522737D01*
X175693605Y-99568000D01*
X175334395Y-99568000D01*
X174289132Y-98522737D01*
X174011901Y-98633641D01*
X173768677Y-99279593D01*
X173791164Y-99969453D01*
X174011901Y-100502359D01*
X174289130Y-100613262D01*
X174279392Y-100623000D01*
X173948615Y-100623000D01*
X173402815Y-100849078D01*
X172985078Y-101266815D01*
X172947000Y-101358743D01*
X172947000Y-98343132D01*
X174468737Y-98343132D01*
X175514000Y-99388395D01*
X176559263Y-98343132D01*
X176448359Y-98065901D01*
X175802407Y-97822677D01*
X175112547Y-97845164D01*
X174579641Y-98065901D01*
X174468737Y-98343132D01*
X172947000Y-98343132D01*
X172947000Y-96682887D01*
X180129000Y-96682887D01*
X180129000Y-97373113D01*
X180393138Y-98010799D01*
X180881201Y-98498862D01*
X181518887Y-98763000D01*
X182209113Y-98763000D01*
X182846799Y-98498862D01*
X183334862Y-98010799D01*
X183599000Y-97373113D01*
X183599000Y-96682887D01*
X183334862Y-96045201D01*
X183092793Y-95803132D01*
X193518737Y-95803132D01*
X194564000Y-96848395D01*
X195609263Y-95803132D01*
X195498359Y-95525901D01*
X194852407Y-95282677D01*
X194162547Y-95305164D01*
X193629641Y-95525901D01*
X193518737Y-95803132D01*
X183092793Y-95803132D01*
X182846799Y-95557138D01*
X182209113Y-95293000D01*
X181518887Y-95293000D01*
X180881201Y-95557138D01*
X180393138Y-96045201D01*
X180129000Y-96682887D01*
X172947000Y-96682887D01*
X172947000Y-94142887D01*
X199179000Y-94142887D01*
X199179000Y-94833113D01*
X199443138Y-95470799D01*
X199931201Y-95958862D01*
X200568887Y-96223000D01*
X201259113Y-96223000D01*
X201896799Y-95958862D01*
X202384862Y-95470799D01*
X202649000Y-94833113D01*
X202649000Y-94142887D01*
X202384862Y-93505201D01*
X202142793Y-93263132D01*
X212568737Y-93263132D01*
X213614000Y-94308395D01*
X214659263Y-93263132D01*
X214548359Y-92985901D01*
X213902407Y-92742677D01*
X213212547Y-92765164D01*
X212679641Y-92985901D01*
X212568737Y-93263132D01*
X202142793Y-93263132D01*
X201896799Y-93017138D01*
X201259113Y-92753000D01*
X200568887Y-92753000D01*
X199931201Y-93017138D01*
X199443138Y-93505201D01*
X199179000Y-94142887D01*
X172947000Y-94142887D01*
X172947000Y-91602887D01*
X218229000Y-91602887D01*
X218229000Y-92293113D01*
X218493138Y-92930799D01*
X218981201Y-93418862D01*
X219618887Y-93683000D01*
X220309113Y-93683000D01*
X220946799Y-93418862D01*
X221434862Y-92930799D01*
X221699000Y-92293113D01*
X221699000Y-91602887D01*
X221434862Y-90965201D01*
X220946799Y-90477138D01*
X220309113Y-90213000D01*
X219618887Y-90213000D01*
X218981201Y-90477138D01*
X218493138Y-90965201D01*
X218229000Y-91602887D01*
X172947000Y-91602887D01*
X172947000Y-83807257D01*
X172985078Y-83899185D01*
X173402815Y-84316922D01*
X173948615Y-84543000D01*
X174539385Y-84543000D01*
X175085185Y-84316922D01*
X175502922Y-83899185D01*
X175729000Y-83353385D01*
X175729000Y-82762615D01*
X175634249Y-82533866D01*
X176689000Y-82533866D01*
X176689000Y-83582134D01*
X177090155Y-84550608D01*
X177831392Y-85291845D01*
X178799866Y-85693000D01*
X179848134Y-85693000D01*
X180816608Y-85291845D01*
X181557845Y-84550608D01*
X181959000Y-83582134D01*
X181959000Y-82762615D01*
X182919000Y-82762615D01*
X182919000Y-83353385D01*
X183145078Y-83899185D01*
X183562815Y-84316922D01*
X184108615Y-84543000D01*
X184699385Y-84543000D01*
X185245185Y-84316922D01*
X185662922Y-83899185D01*
X185889000Y-83353385D01*
X185889000Y-82762615D01*
X185662922Y-82216815D01*
X185245185Y-81799078D01*
X184699385Y-81573000D01*
X184108615Y-81573000D01*
X183562815Y-81799078D01*
X183145078Y-82216815D01*
X182919000Y-82762615D01*
X181959000Y-82762615D01*
X181959000Y-82533866D01*
X181557845Y-81565392D01*
X180816608Y-80824155D01*
X179848134Y-80423000D01*
X178799866Y-80423000D01*
X177831392Y-80824155D01*
X177090155Y-81565392D01*
X176689000Y-82533866D01*
X175634249Y-82533866D01*
X175518235Y-82253784D01*
X175915453Y-82240836D01*
X176448359Y-82020099D01*
X176559263Y-81742868D01*
X175514000Y-80697605D01*
X175499858Y-80711748D01*
X175320253Y-80532143D01*
X175334395Y-80518000D01*
X175693605Y-80518000D01*
X176738868Y-81563263D01*
X177016099Y-81452359D01*
X177259323Y-80806407D01*
X177240294Y-80222615D01*
X191809000Y-80222615D01*
X191809000Y-80813385D01*
X192035078Y-81359185D01*
X192452815Y-81776922D01*
X192998615Y-82003000D01*
X193589385Y-82003000D01*
X194135185Y-81776922D01*
X194552922Y-81359185D01*
X194779000Y-80813385D01*
X194779000Y-80222615D01*
X194684249Y-79993866D01*
X195739000Y-79993866D01*
X195739000Y-81042134D01*
X196140155Y-82010608D01*
X196881392Y-82751845D01*
X197849866Y-83153000D01*
X198898134Y-83153000D01*
X199866608Y-82751845D01*
X200607845Y-82010608D01*
X201009000Y-81042134D01*
X201009000Y-80222615D01*
X201969000Y-80222615D01*
X201969000Y-80813385D01*
X202195078Y-81359185D01*
X202612815Y-81776922D01*
X203158615Y-82003000D01*
X203749385Y-82003000D01*
X204295185Y-81776922D01*
X204712922Y-81359185D01*
X204939000Y-80813385D01*
X204939000Y-80222615D01*
X204712922Y-79676815D01*
X204295185Y-79259078D01*
X203749385Y-79033000D01*
X203158615Y-79033000D01*
X202612815Y-79259078D01*
X202195078Y-79676815D01*
X201969000Y-80222615D01*
X201009000Y-80222615D01*
X201009000Y-79993866D01*
X200607845Y-79025392D01*
X199866608Y-78284155D01*
X198898134Y-77883000D01*
X197849866Y-77883000D01*
X196881392Y-78284155D01*
X196140155Y-79025392D01*
X195739000Y-79993866D01*
X194684249Y-79993866D01*
X194568235Y-79713784D01*
X194965453Y-79700836D01*
X195498359Y-79480099D01*
X195609263Y-79202868D01*
X194564000Y-78157605D01*
X194549858Y-78171748D01*
X194370253Y-77992143D01*
X194384395Y-77978000D01*
X194743605Y-77978000D01*
X195788868Y-79023263D01*
X196066099Y-78912359D01*
X196309323Y-78266407D01*
X196290294Y-77682615D01*
X210859000Y-77682615D01*
X210859000Y-78273385D01*
X211085078Y-78819185D01*
X211502815Y-79236922D01*
X212048615Y-79463000D01*
X212639385Y-79463000D01*
X213185185Y-79236922D01*
X213602922Y-78819185D01*
X213829000Y-78273385D01*
X213829000Y-77682615D01*
X213734249Y-77453866D01*
X214789000Y-77453866D01*
X214789000Y-78502134D01*
X215190155Y-79470608D01*
X215931392Y-80211845D01*
X216899866Y-80613000D01*
X217948134Y-80613000D01*
X218890606Y-80222615D01*
X229909000Y-80222615D01*
X229909000Y-80813385D01*
X230135078Y-81359185D01*
X230552815Y-81776922D01*
X231098615Y-82003000D01*
X231689385Y-82003000D01*
X232235185Y-81776922D01*
X232652922Y-81359185D01*
X232879000Y-80813385D01*
X232879000Y-80222615D01*
X232784249Y-79993866D01*
X233839000Y-79993866D01*
X233839000Y-81042134D01*
X234240155Y-82010608D01*
X234981392Y-82751845D01*
X235949866Y-83153000D01*
X236998134Y-83153000D01*
X237940606Y-82762615D01*
X248959000Y-82762615D01*
X248959000Y-83353385D01*
X249185078Y-83899185D01*
X249602815Y-84316922D01*
X250148615Y-84543000D01*
X250739385Y-84543000D01*
X251285185Y-84316922D01*
X251702922Y-83899185D01*
X251929000Y-83353385D01*
X251929000Y-82762615D01*
X251834249Y-82533866D01*
X252889000Y-82533866D01*
X252889000Y-83582134D01*
X253290155Y-84550608D01*
X254031392Y-85291845D01*
X254999866Y-85693000D01*
X256048134Y-85693000D01*
X257016608Y-85291845D01*
X257757845Y-84550608D01*
X258159000Y-83582134D01*
X258159000Y-82533866D01*
X257757845Y-81565392D01*
X257016608Y-80824155D01*
X256048134Y-80423000D01*
X254999866Y-80423000D01*
X254031392Y-80824155D01*
X253290155Y-81565392D01*
X252889000Y-82533866D01*
X251834249Y-82533866D01*
X251718235Y-82253784D01*
X252115453Y-82240836D01*
X252648359Y-82020099D01*
X252759263Y-81742868D01*
X251714000Y-80697605D01*
X251699858Y-80711748D01*
X251520253Y-80532143D01*
X251534395Y-80518000D01*
X251893605Y-80518000D01*
X252938868Y-81563263D01*
X253216099Y-81452359D01*
X253459323Y-80806407D01*
X253436836Y-80116547D01*
X253216099Y-79583641D01*
X252938868Y-79472737D01*
X251893605Y-80518000D01*
X251534395Y-80518000D01*
X250489132Y-79472737D01*
X250211901Y-79583641D01*
X249968677Y-80229593D01*
X249991164Y-80919453D01*
X250211901Y-81452359D01*
X250489130Y-81563262D01*
X250479392Y-81573000D01*
X250148615Y-81573000D01*
X249602815Y-81799078D01*
X249185078Y-82216815D01*
X248959000Y-82762615D01*
X237940606Y-82762615D01*
X237966608Y-82751845D01*
X238707845Y-82010608D01*
X239109000Y-81042134D01*
X239109000Y-80222615D01*
X240069000Y-80222615D01*
X240069000Y-80813385D01*
X240295078Y-81359185D01*
X240712815Y-81776922D01*
X241258615Y-82003000D01*
X241849385Y-82003000D01*
X242395185Y-81776922D01*
X242812922Y-81359185D01*
X243039000Y-80813385D01*
X243039000Y-80222615D01*
X242812922Y-79676815D01*
X242429239Y-79293132D01*
X250668737Y-79293132D01*
X251714000Y-80338395D01*
X252759263Y-79293132D01*
X252648359Y-79015901D01*
X252002407Y-78772677D01*
X251312547Y-78795164D01*
X250779641Y-79015901D01*
X250668737Y-79293132D01*
X242429239Y-79293132D01*
X242395185Y-79259078D01*
X241849385Y-79033000D01*
X241258615Y-79033000D01*
X240712815Y-79259078D01*
X240295078Y-79676815D01*
X240069000Y-80222615D01*
X239109000Y-80222615D01*
X239109000Y-79993866D01*
X238707845Y-79025392D01*
X237966608Y-78284155D01*
X236998134Y-77883000D01*
X235949866Y-77883000D01*
X234981392Y-78284155D01*
X234240155Y-79025392D01*
X233839000Y-79993866D01*
X232784249Y-79993866D01*
X232668235Y-79713784D01*
X233065453Y-79700836D01*
X233598359Y-79480099D01*
X233709263Y-79202868D01*
X232664000Y-78157605D01*
X232649858Y-78171748D01*
X232470253Y-77992143D01*
X232484395Y-77978000D01*
X232843605Y-77978000D01*
X233888868Y-79023263D01*
X234166099Y-78912359D01*
X234409323Y-78266407D01*
X234388673Y-77632887D01*
X256329000Y-77632887D01*
X256329000Y-78323113D01*
X256593138Y-78960799D01*
X257081201Y-79448862D01*
X257718887Y-79713000D01*
X258409113Y-79713000D01*
X259046799Y-79448862D01*
X259534862Y-78960799D01*
X259799000Y-78323113D01*
X259799000Y-77632887D01*
X259534862Y-76995201D01*
X259046799Y-76507138D01*
X258409113Y-76243000D01*
X257718887Y-76243000D01*
X257081201Y-76507138D01*
X256593138Y-76995201D01*
X256329000Y-77632887D01*
X234388673Y-77632887D01*
X234386836Y-77576547D01*
X234166099Y-77043641D01*
X233888868Y-76932737D01*
X232843605Y-77978000D01*
X232484395Y-77978000D01*
X231439132Y-76932737D01*
X231161901Y-77043641D01*
X230918677Y-77689593D01*
X230941164Y-78379453D01*
X231161901Y-78912359D01*
X231439130Y-79023262D01*
X231429392Y-79033000D01*
X231098615Y-79033000D01*
X230552815Y-79259078D01*
X230135078Y-79676815D01*
X229909000Y-80222615D01*
X218890606Y-80222615D01*
X218916608Y-80211845D01*
X219657845Y-79470608D01*
X220059000Y-78502134D01*
X220059000Y-77682615D01*
X221019000Y-77682615D01*
X221019000Y-78273385D01*
X221245078Y-78819185D01*
X221662815Y-79236922D01*
X222208615Y-79463000D01*
X222799385Y-79463000D01*
X223345185Y-79236922D01*
X223762922Y-78819185D01*
X223989000Y-78273385D01*
X223989000Y-77682615D01*
X223762922Y-77136815D01*
X223379239Y-76753132D01*
X231618737Y-76753132D01*
X232664000Y-77798395D01*
X233709263Y-76753132D01*
X233598359Y-76475901D01*
X232952407Y-76232677D01*
X232262547Y-76255164D01*
X231729641Y-76475901D01*
X231618737Y-76753132D01*
X223379239Y-76753132D01*
X223345185Y-76719078D01*
X222799385Y-76493000D01*
X222208615Y-76493000D01*
X221662815Y-76719078D01*
X221245078Y-77136815D01*
X221019000Y-77682615D01*
X220059000Y-77682615D01*
X220059000Y-77453866D01*
X219657845Y-76485392D01*
X218916608Y-75744155D01*
X217948134Y-75343000D01*
X216899866Y-75343000D01*
X215931392Y-75744155D01*
X215190155Y-76485392D01*
X214789000Y-77453866D01*
X213734249Y-77453866D01*
X213618235Y-77173784D01*
X214015453Y-77160836D01*
X214548359Y-76940099D01*
X214659263Y-76662868D01*
X213614000Y-75617605D01*
X213599858Y-75631748D01*
X213420253Y-75452143D01*
X213434395Y-75438000D01*
X213793605Y-75438000D01*
X214838868Y-76483263D01*
X215116099Y-76372359D01*
X215359323Y-75726407D01*
X215338673Y-75092887D01*
X237279000Y-75092887D01*
X237279000Y-75783113D01*
X237543138Y-76420799D01*
X238031201Y-76908862D01*
X238668887Y-77173000D01*
X239359113Y-77173000D01*
X239996799Y-76908862D01*
X240484862Y-76420799D01*
X240749000Y-75783113D01*
X240749000Y-75092887D01*
X240484862Y-74455201D01*
X239996799Y-73967138D01*
X239359113Y-73703000D01*
X238668887Y-73703000D01*
X238031201Y-73967138D01*
X237543138Y-74455201D01*
X237279000Y-75092887D01*
X215338673Y-75092887D01*
X215336836Y-75036547D01*
X215116099Y-74503641D01*
X214838868Y-74392737D01*
X213793605Y-75438000D01*
X213434395Y-75438000D01*
X212389132Y-74392737D01*
X212111901Y-74503641D01*
X211868677Y-75149593D01*
X211891164Y-75839453D01*
X212111901Y-76372359D01*
X212389130Y-76483262D01*
X212379392Y-76493000D01*
X212048615Y-76493000D01*
X211502815Y-76719078D01*
X211085078Y-77136815D01*
X210859000Y-77682615D01*
X196290294Y-77682615D01*
X196286836Y-77576547D01*
X196066099Y-77043641D01*
X195788868Y-76932737D01*
X194743605Y-77978000D01*
X194384395Y-77978000D01*
X193339132Y-76932737D01*
X193061901Y-77043641D01*
X192818677Y-77689593D01*
X192841164Y-78379453D01*
X193061901Y-78912359D01*
X193339130Y-79023262D01*
X193329392Y-79033000D01*
X192998615Y-79033000D01*
X192452815Y-79259078D01*
X192035078Y-79676815D01*
X191809000Y-80222615D01*
X177240294Y-80222615D01*
X177236836Y-80116547D01*
X177016099Y-79583641D01*
X176738868Y-79472737D01*
X175693605Y-80518000D01*
X175334395Y-80518000D01*
X174289132Y-79472737D01*
X174011901Y-79583641D01*
X173768677Y-80229593D01*
X173791164Y-80919453D01*
X174011901Y-81452359D01*
X174289130Y-81563262D01*
X174279392Y-81573000D01*
X173948615Y-81573000D01*
X173402815Y-81799078D01*
X172985078Y-82216815D01*
X172947000Y-82308743D01*
X172947000Y-79293132D01*
X174468737Y-79293132D01*
X175514000Y-80338395D01*
X176559263Y-79293132D01*
X176448359Y-79015901D01*
X175802407Y-78772677D01*
X175112547Y-78795164D01*
X174579641Y-79015901D01*
X174468737Y-79293132D01*
X172947000Y-79293132D01*
X172947000Y-77632887D01*
X180129000Y-77632887D01*
X180129000Y-78323113D01*
X180393138Y-78960799D01*
X180881201Y-79448862D01*
X181518887Y-79713000D01*
X182209113Y-79713000D01*
X182846799Y-79448862D01*
X183334862Y-78960799D01*
X183599000Y-78323113D01*
X183599000Y-77632887D01*
X183334862Y-76995201D01*
X183092793Y-76753132D01*
X193518737Y-76753132D01*
X194564000Y-77798395D01*
X195609263Y-76753132D01*
X195498359Y-76475901D01*
X194852407Y-76232677D01*
X194162547Y-76255164D01*
X193629641Y-76475901D01*
X193518737Y-76753132D01*
X183092793Y-76753132D01*
X182846799Y-76507138D01*
X182209113Y-76243000D01*
X181518887Y-76243000D01*
X180881201Y-76507138D01*
X180393138Y-76995201D01*
X180129000Y-77632887D01*
X172947000Y-77632887D01*
X172947000Y-75092887D01*
X199179000Y-75092887D01*
X199179000Y-75783113D01*
X199443138Y-76420799D01*
X199931201Y-76908862D01*
X200568887Y-77173000D01*
X201259113Y-77173000D01*
X201896799Y-76908862D01*
X202384862Y-76420799D01*
X202649000Y-75783113D01*
X202649000Y-75092887D01*
X202384862Y-74455201D01*
X202142793Y-74213132D01*
X212568737Y-74213132D01*
X213614000Y-75258395D01*
X214659263Y-74213132D01*
X214548359Y-73935901D01*
X213902407Y-73692677D01*
X213212547Y-73715164D01*
X212679641Y-73935901D01*
X212568737Y-74213132D01*
X202142793Y-74213132D01*
X201896799Y-73967138D01*
X201259113Y-73703000D01*
X200568887Y-73703000D01*
X199931201Y-73967138D01*
X199443138Y-74455201D01*
X199179000Y-75092887D01*
X172947000Y-75092887D01*
X172947000Y-72552887D01*
X218229000Y-72552887D01*
X218229000Y-73243113D01*
X218493138Y-73880799D01*
X218981201Y-74368862D01*
X219618887Y-74633000D01*
X220309113Y-74633000D01*
X220946799Y-74368862D01*
X221434862Y-73880799D01*
X221699000Y-73243113D01*
X221699000Y-72552887D01*
X221434862Y-71915201D01*
X220946799Y-71427138D01*
X220309113Y-71163000D01*
X219618887Y-71163000D01*
X218981201Y-71427138D01*
X218493138Y-71915201D01*
X218229000Y-72552887D01*
X172947000Y-72552887D01*
X172947000Y-64757257D01*
X172985078Y-64849185D01*
X173402815Y-65266922D01*
X173948615Y-65493000D01*
X174539385Y-65493000D01*
X175085185Y-65266922D01*
X175502922Y-64849185D01*
X175729000Y-64303385D01*
X175729000Y-63712615D01*
X175634249Y-63483866D01*
X176689000Y-63483866D01*
X176689000Y-64532134D01*
X177090155Y-65500608D01*
X177831392Y-66241845D01*
X178799866Y-66643000D01*
X179848134Y-66643000D01*
X180816608Y-66241845D01*
X181557845Y-65500608D01*
X181959000Y-64532134D01*
X181959000Y-63712615D01*
X182919000Y-63712615D01*
X182919000Y-64303385D01*
X183145078Y-64849185D01*
X183562815Y-65266922D01*
X184108615Y-65493000D01*
X184699385Y-65493000D01*
X185245185Y-65266922D01*
X185662922Y-64849185D01*
X185889000Y-64303385D01*
X185889000Y-63712615D01*
X185662922Y-63166815D01*
X185245185Y-62749078D01*
X184699385Y-62523000D01*
X184108615Y-62523000D01*
X183562815Y-62749078D01*
X183145078Y-63166815D01*
X182919000Y-63712615D01*
X181959000Y-63712615D01*
X181959000Y-63483866D01*
X181557845Y-62515392D01*
X180816608Y-61774155D01*
X179848134Y-61373000D01*
X178799866Y-61373000D01*
X177831392Y-61774155D01*
X177090155Y-62515392D01*
X176689000Y-63483866D01*
X175634249Y-63483866D01*
X175518235Y-63203784D01*
X175915453Y-63190836D01*
X176448359Y-62970099D01*
X176559263Y-62692868D01*
X175514000Y-61647605D01*
X175499858Y-61661748D01*
X175320253Y-61482143D01*
X175334395Y-61468000D01*
X175693605Y-61468000D01*
X176738868Y-62513263D01*
X177016099Y-62402359D01*
X177259323Y-61756407D01*
X177240294Y-61172615D01*
X191809000Y-61172615D01*
X191809000Y-61763385D01*
X192035078Y-62309185D01*
X192452815Y-62726922D01*
X192998615Y-62953000D01*
X193589385Y-62953000D01*
X194135185Y-62726922D01*
X194552922Y-62309185D01*
X194779000Y-61763385D01*
X194779000Y-61172615D01*
X194684249Y-60943866D01*
X195739000Y-60943866D01*
X195739000Y-61992134D01*
X196140155Y-62960608D01*
X196881392Y-63701845D01*
X197849866Y-64103000D01*
X198898134Y-64103000D01*
X199866608Y-63701845D01*
X200607845Y-62960608D01*
X201009000Y-61992134D01*
X201009000Y-61172615D01*
X201969000Y-61172615D01*
X201969000Y-61763385D01*
X202195078Y-62309185D01*
X202612815Y-62726922D01*
X203158615Y-62953000D01*
X203749385Y-62953000D01*
X204295185Y-62726922D01*
X204712922Y-62309185D01*
X204939000Y-61763385D01*
X204939000Y-61172615D01*
X204712922Y-60626815D01*
X204295185Y-60209078D01*
X203749385Y-59983000D01*
X203158615Y-59983000D01*
X202612815Y-60209078D01*
X202195078Y-60626815D01*
X201969000Y-61172615D01*
X201009000Y-61172615D01*
X201009000Y-60943866D01*
X200607845Y-59975392D01*
X199866608Y-59234155D01*
X198898134Y-58833000D01*
X197849866Y-58833000D01*
X196881392Y-59234155D01*
X196140155Y-59975392D01*
X195739000Y-60943866D01*
X194684249Y-60943866D01*
X194568235Y-60663784D01*
X194965453Y-60650836D01*
X195498359Y-60430099D01*
X195609263Y-60152868D01*
X194564000Y-59107605D01*
X194549858Y-59121748D01*
X194370253Y-58942143D01*
X194384395Y-58928000D01*
X194743605Y-58928000D01*
X195788868Y-59973263D01*
X196066099Y-59862359D01*
X196309323Y-59216407D01*
X196290294Y-58632615D01*
X210859000Y-58632615D01*
X210859000Y-59223385D01*
X211085078Y-59769185D01*
X211502815Y-60186922D01*
X212048615Y-60413000D01*
X212639385Y-60413000D01*
X213185185Y-60186922D01*
X213602922Y-59769185D01*
X213829000Y-59223385D01*
X213829000Y-58632615D01*
X213734249Y-58403866D01*
X214789000Y-58403866D01*
X214789000Y-59452134D01*
X215190155Y-60420608D01*
X215931392Y-61161845D01*
X216899866Y-61563000D01*
X217948134Y-61563000D01*
X218890606Y-61172615D01*
X229909000Y-61172615D01*
X229909000Y-61763385D01*
X230135078Y-62309185D01*
X230552815Y-62726922D01*
X231098615Y-62953000D01*
X231689385Y-62953000D01*
X232235185Y-62726922D01*
X232652922Y-62309185D01*
X232879000Y-61763385D01*
X232879000Y-61172615D01*
X232784249Y-60943866D01*
X233839000Y-60943866D01*
X233839000Y-61992134D01*
X234240155Y-62960608D01*
X234981392Y-63701845D01*
X235949866Y-64103000D01*
X236998134Y-64103000D01*
X237940606Y-63712615D01*
X248959000Y-63712615D01*
X248959000Y-64303385D01*
X249185078Y-64849185D01*
X249602815Y-65266922D01*
X250148615Y-65493000D01*
X250739385Y-65493000D01*
X251285185Y-65266922D01*
X251702922Y-64849185D01*
X251929000Y-64303385D01*
X251929000Y-63712615D01*
X251834249Y-63483866D01*
X252889000Y-63483866D01*
X252889000Y-64532134D01*
X253290155Y-65500608D01*
X254031392Y-66241845D01*
X254999866Y-66643000D01*
X256048134Y-66643000D01*
X257016608Y-66241845D01*
X257757845Y-65500608D01*
X258159000Y-64532134D01*
X258159000Y-63483866D01*
X257757845Y-62515392D01*
X257016608Y-61774155D01*
X256048134Y-61373000D01*
X254999866Y-61373000D01*
X254031392Y-61774155D01*
X253290155Y-62515392D01*
X252889000Y-63483866D01*
X251834249Y-63483866D01*
X251718235Y-63203784D01*
X252115453Y-63190836D01*
X252648359Y-62970099D01*
X252759263Y-62692868D01*
X251714000Y-61647605D01*
X251699858Y-61661748D01*
X251520253Y-61482143D01*
X251534395Y-61468000D01*
X251893605Y-61468000D01*
X252938868Y-62513263D01*
X253216099Y-62402359D01*
X253459323Y-61756407D01*
X253436836Y-61066547D01*
X253216099Y-60533641D01*
X252938868Y-60422737D01*
X251893605Y-61468000D01*
X251534395Y-61468000D01*
X250489132Y-60422737D01*
X250211901Y-60533641D01*
X249968677Y-61179593D01*
X249991164Y-61869453D01*
X250211901Y-62402359D01*
X250489130Y-62513262D01*
X250479392Y-62523000D01*
X250148615Y-62523000D01*
X249602815Y-62749078D01*
X249185078Y-63166815D01*
X248959000Y-63712615D01*
X237940606Y-63712615D01*
X237966608Y-63701845D01*
X238707845Y-62960608D01*
X239109000Y-61992134D01*
X239109000Y-61172615D01*
X240069000Y-61172615D01*
X240069000Y-61763385D01*
X240295078Y-62309185D01*
X240712815Y-62726922D01*
X241258615Y-62953000D01*
X241849385Y-62953000D01*
X242395185Y-62726922D01*
X242812922Y-62309185D01*
X243039000Y-61763385D01*
X243039000Y-61172615D01*
X242812922Y-60626815D01*
X242429239Y-60243132D01*
X250668737Y-60243132D01*
X251714000Y-61288395D01*
X252759263Y-60243132D01*
X252648359Y-59965901D01*
X252002407Y-59722677D01*
X251312547Y-59745164D01*
X250779641Y-59965901D01*
X250668737Y-60243132D01*
X242429239Y-60243132D01*
X242395185Y-60209078D01*
X241849385Y-59983000D01*
X241258615Y-59983000D01*
X240712815Y-60209078D01*
X240295078Y-60626815D01*
X240069000Y-61172615D01*
X239109000Y-61172615D01*
X239109000Y-60943866D01*
X238707845Y-59975392D01*
X237966608Y-59234155D01*
X236998134Y-58833000D01*
X235949866Y-58833000D01*
X234981392Y-59234155D01*
X234240155Y-59975392D01*
X233839000Y-60943866D01*
X232784249Y-60943866D01*
X232668235Y-60663784D01*
X233065453Y-60650836D01*
X233598359Y-60430099D01*
X233709263Y-60152868D01*
X232664000Y-59107605D01*
X232649858Y-59121748D01*
X232470253Y-58942143D01*
X232484395Y-58928000D01*
X232843605Y-58928000D01*
X233888868Y-59973263D01*
X234166099Y-59862359D01*
X234409323Y-59216407D01*
X234386836Y-58526547D01*
X234166099Y-57993641D01*
X233888868Y-57882737D01*
X232843605Y-58928000D01*
X232484395Y-58928000D01*
X231439132Y-57882737D01*
X231161901Y-57993641D01*
X230918677Y-58639593D01*
X230941164Y-59329453D01*
X231161901Y-59862359D01*
X231439130Y-59973262D01*
X231429392Y-59983000D01*
X231098615Y-59983000D01*
X230552815Y-60209078D01*
X230135078Y-60626815D01*
X229909000Y-61172615D01*
X218890606Y-61172615D01*
X218916608Y-61161845D01*
X219657845Y-60420608D01*
X220059000Y-59452134D01*
X220059000Y-58632615D01*
X221019000Y-58632615D01*
X221019000Y-59223385D01*
X221245078Y-59769185D01*
X221662815Y-60186922D01*
X222208615Y-60413000D01*
X222799385Y-60413000D01*
X223345185Y-60186922D01*
X223762922Y-59769185D01*
X223989000Y-59223385D01*
X223989000Y-58632615D01*
X223762922Y-58086815D01*
X223379239Y-57703132D01*
X231618737Y-57703132D01*
X232664000Y-58748395D01*
X233709263Y-57703132D01*
X233598359Y-57425901D01*
X232952407Y-57182677D01*
X232262547Y-57205164D01*
X231729641Y-57425901D01*
X231618737Y-57703132D01*
X223379239Y-57703132D01*
X223345185Y-57669078D01*
X222799385Y-57443000D01*
X222208615Y-57443000D01*
X221662815Y-57669078D01*
X221245078Y-58086815D01*
X221019000Y-58632615D01*
X220059000Y-58632615D01*
X220059000Y-58403866D01*
X219657845Y-57435392D01*
X218916608Y-56694155D01*
X217948134Y-56293000D01*
X216899866Y-56293000D01*
X215931392Y-56694155D01*
X215190155Y-57435392D01*
X214789000Y-58403866D01*
X213734249Y-58403866D01*
X213618235Y-58123784D01*
X214015453Y-58110836D01*
X214548359Y-57890099D01*
X214659263Y-57612868D01*
X213614000Y-56567605D01*
X213599858Y-56581748D01*
X213420253Y-56402143D01*
X213434395Y-56388000D01*
X213793605Y-56388000D01*
X214838868Y-57433263D01*
X215116099Y-57322359D01*
X215359323Y-56676407D01*
X215336836Y-55986547D01*
X215116099Y-55453641D01*
X214838868Y-55342737D01*
X213793605Y-56388000D01*
X213434395Y-56388000D01*
X212389132Y-55342737D01*
X212111901Y-55453641D01*
X211868677Y-56099593D01*
X211891164Y-56789453D01*
X212111901Y-57322359D01*
X212389130Y-57433262D01*
X212379392Y-57443000D01*
X212048615Y-57443000D01*
X211502815Y-57669078D01*
X211085078Y-58086815D01*
X210859000Y-58632615D01*
X196290294Y-58632615D01*
X196286836Y-58526547D01*
X196066099Y-57993641D01*
X195788868Y-57882737D01*
X194743605Y-58928000D01*
X194384395Y-58928000D01*
X193339132Y-57882737D01*
X193061901Y-57993641D01*
X192818677Y-58639593D01*
X192841164Y-59329453D01*
X193061901Y-59862359D01*
X193339130Y-59973262D01*
X193329392Y-59983000D01*
X192998615Y-59983000D01*
X192452815Y-60209078D01*
X192035078Y-60626815D01*
X191809000Y-61172615D01*
X177240294Y-61172615D01*
X177236836Y-61066547D01*
X177016099Y-60533641D01*
X176738868Y-60422737D01*
X175693605Y-61468000D01*
X175334395Y-61468000D01*
X174289132Y-60422737D01*
X174011901Y-60533641D01*
X173768677Y-61179593D01*
X173791164Y-61869453D01*
X174011901Y-62402359D01*
X174289130Y-62513262D01*
X174279392Y-62523000D01*
X173948615Y-62523000D01*
X173402815Y-62749078D01*
X172985078Y-63166815D01*
X172947000Y-63258743D01*
X172947000Y-60243132D01*
X174468737Y-60243132D01*
X175514000Y-61288395D01*
X176559263Y-60243132D01*
X176448359Y-59965901D01*
X175802407Y-59722677D01*
X175112547Y-59745164D01*
X174579641Y-59965901D01*
X174468737Y-60243132D01*
X172947000Y-60243132D01*
X172947000Y-57631000D01*
X180707339Y-57631000D01*
X180393138Y-57945201D01*
X180129000Y-58582887D01*
X180129000Y-59273113D01*
X180393138Y-59910799D01*
X180881201Y-60398862D01*
X181518887Y-60663000D01*
X182209113Y-60663000D01*
X182846799Y-60398862D01*
X183334862Y-59910799D01*
X183599000Y-59273113D01*
X183599000Y-58582887D01*
X183334862Y-57945201D01*
X183092793Y-57703132D01*
X193518737Y-57703132D01*
X194564000Y-58748395D01*
X195609263Y-57703132D01*
X195498359Y-57425901D01*
X194852407Y-57182677D01*
X194162547Y-57205164D01*
X193629641Y-57425901D01*
X193518737Y-57703132D01*
X183092793Y-57703132D01*
X183020661Y-57631000D01*
X191189612Y-57631000D01*
X191262000Y-57645399D01*
X191334388Y-57631000D01*
X191548783Y-57588354D01*
X191791905Y-57425905D01*
X191954354Y-57182783D01*
X192011399Y-56896000D01*
X191997000Y-56823612D01*
X191997000Y-55091000D01*
X199757339Y-55091000D01*
X199443138Y-55405201D01*
X199179000Y-56042887D01*
X199179000Y-56733113D01*
X199443138Y-57370799D01*
X199931201Y-57858862D01*
X200568887Y-58123000D01*
X201259113Y-58123000D01*
X201896799Y-57858862D01*
X202384862Y-57370799D01*
X202649000Y-56733113D01*
X202649000Y-56042887D01*
X202384862Y-55405201D01*
X202142793Y-55163132D01*
X212568737Y-55163132D01*
X213614000Y-56208395D01*
X214659263Y-55163132D01*
X214548359Y-54885901D01*
X213902407Y-54642677D01*
X213212547Y-54665164D01*
X212679641Y-54885901D01*
X212568737Y-55163132D01*
X202142793Y-55163132D01*
X202070661Y-55091000D01*
X210239612Y-55091000D01*
X210312000Y-55105399D01*
X210384388Y-55091000D01*
X210598783Y-55048354D01*
X210841905Y-54885905D01*
X211004354Y-54642783D01*
X211061399Y-54356000D01*
X211047000Y-54283612D01*
X211047000Y-52551000D01*
X218807339Y-52551000D01*
X218493138Y-52865201D01*
M02*
