M48
;DRILL file {KiCad 5.0.1-33cea8e~68~ubuntu18.04.1} date dim. 20 janv. 2019 23:42:31 CET
;FORMAT={-:-/ absolute / inch / decimal}
FMAT,2
INCH,TZ
T1C0.0197
T2C0.0315
T3C0.0591
T4C0.0669
T5C0.1575
%
G90
G05
M72
T1
X8.7806Y-5.08
X8.82Y-5.08
X8.8594Y-5.08
X8.8987Y-5.08
X8.9381Y-5.08
X8.9775Y-5.08
T2
X7.85Y-4.38
X7.85Y-4.98
X7.95Y-4.38
X7.95Y-4.98
X8.05Y-4.38
X8.05Y-4.98
X8.15Y-4.38
X8.15Y-4.98
X8.25Y-4.38
X8.25Y-4.98
X8.35Y-4.38
X8.35Y-4.98
X8.45Y-4.38
X8.45Y-4.98
X8.55Y-4.38
X8.55Y-4.98
X8.65Y-4.38
X8.65Y-4.98
X8.75Y-4.38
X8.75Y-4.98
X8.85Y-4.38
X8.85Y-4.98
X8.95Y-4.38
X8.95Y-4.98
X9.05Y-4.38
X9.05Y-4.98
X9.15Y-4.38
X9.15Y-4.98
X9.25Y-4.38
X9.25Y-4.98
T3
X8.41Y-2.97
X8.66Y-2.87
X7.66Y-2.32
X7.91Y-2.22
X9.16Y-2.32
X9.41Y-2.22
X8.41Y-2.22
X8.66Y-2.12
X6.91Y-3.17
X7.16Y-3.07
X9.16Y-3.82
X9.41Y-3.72
X9.91Y-3.92
X10.16Y-3.82
X6.91Y-2.42
X7.16Y-2.32
X9.91Y-3.17
X10.16Y-3.07
X8.41Y-3.72
X8.66Y-3.62
X7.66Y-3.82
X7.91Y-3.72
X7.66Y-3.07
X7.91Y-2.97
X9.91Y-2.42
X10.16Y-2.32
X6.91Y-3.92
X7.16Y-3.82
X9.16Y-3.07
X9.41Y-2.97
T4
X9.86Y-2.52
X10.26Y-2.52
X6.86Y-4.02
X7.26Y-4.02
X9.11Y-3.17
X9.51Y-3.17
X8.36Y-3.07
X8.76Y-3.07
X7.61Y-2.42
X8.01Y-2.42
X9.11Y-2.42
X9.51Y-2.42
X8.36Y-2.32
X8.76Y-2.32
X6.86Y-3.27
X7.26Y-3.27
X9.11Y-3.92
X9.51Y-3.92
X9.86Y-4.02
X10.26Y-4.02
X6.86Y-2.52
X7.26Y-2.52
X9.86Y-3.27
X10.26Y-3.27
X8.36Y-3.82
X8.76Y-3.82
X7.61Y-3.92
X8.01Y-3.92
X7.61Y-3.17
X8.01Y-3.17
T5
X10.06Y-2.52
X7.06Y-4.02
X9.31Y-3.17
X8.56Y-3.07
X7.81Y-2.42
X9.31Y-2.42
X8.56Y-2.32
X7.06Y-3.27
X9.31Y-3.92
X10.06Y-4.02
X7.06Y-2.52
X10.06Y-3.27
X8.56Y-3.82
X7.81Y-3.92
X7.81Y-3.17
T0
M30
