%TF.GenerationSoftware,KiCad,Pcbnew,5.0.1-33cea8e~68~ubuntu18.04.1*%
%TF.CreationDate,2019-01-20T23:44:27+01:00*%
%TF.ProjectId,concertina-v2.1,636F6E63657274696E612D76322E312E,rev?*%
%TF.SameCoordinates,Original*%
%TF.FileFunction,Soldermask,Top*%
%TF.FilePolarity,Negative*%
%FSLAX46Y46*%
G04 Gerber Fmt 4.6, Leading zero omitted, Abs format (unit mm)*
G04 Created by KiCad (PCBNEW 5.0.1-33cea8e~68~ubuntu18.04.1) date dim. 20 janv. 2019 23:44:27 CET*
%MOMM*%
%LPD*%
G01*
G04 APERTURE LIST*
%ADD10C,0.200000*%
%ADD11C,0.100000*%
G04 APERTURE END LIST*
D10*
X172212000Y-109220000D02*
X172212000Y-56896000D01*
X193040000Y-109220000D02*
X172212000Y-109220000D01*
X193040000Y-128270000D02*
X193040000Y-109220000D01*
X220980000Y-128270000D02*
X193040000Y-128270000D01*
X220980000Y-131318000D02*
X220980000Y-128270000D01*
X229362000Y-131318000D02*
X220980000Y-131318000D01*
X229362000Y-128016000D02*
X229362000Y-131318000D01*
X239014000Y-128016000D02*
X229362000Y-128016000D01*
X239014000Y-109220000D02*
X239014000Y-128016000D01*
X262636000Y-109220000D02*
X239014000Y-109220000D01*
X262636000Y-56896000D02*
X262636000Y-109220000D01*
X243586000Y-56896000D02*
X262636000Y-56896000D01*
X243586000Y-54356000D02*
X243586000Y-56896000D01*
X224536000Y-54356000D02*
X243586000Y-54356000D01*
X224536000Y-51816000D02*
X224536000Y-54356000D01*
X210312000Y-51816000D02*
X224536000Y-51816000D01*
X210312000Y-54356000D02*
X210312000Y-51816000D01*
X191262000Y-54356000D02*
X210312000Y-54356000D01*
X191262000Y-56896000D02*
X191262000Y-54356000D01*
X172212000Y-56896000D02*
X191262000Y-56896000D01*
D11*
G36*
X223150521Y-128416043D02*
X223268334Y-128451781D01*
X223376911Y-128509817D01*
X223448716Y-128568746D01*
X223469075Y-128582349D01*
X223491713Y-128591726D01*
X223515747Y-128596507D01*
X223540251Y-128596507D01*
X223564285Y-128591727D01*
X223586924Y-128582350D01*
X223607284Y-128568746D01*
X223679089Y-128509817D01*
X223787666Y-128451781D01*
X223905479Y-128416043D01*
X223997296Y-128407000D01*
X224058704Y-128407000D01*
X224150521Y-128416043D01*
X224268334Y-128451781D01*
X224376911Y-128509817D01*
X224448716Y-128568746D01*
X224469075Y-128582349D01*
X224491713Y-128591726D01*
X224515747Y-128596507D01*
X224540251Y-128596507D01*
X224564285Y-128591727D01*
X224586924Y-128582350D01*
X224607284Y-128568746D01*
X224679089Y-128509817D01*
X224787666Y-128451781D01*
X224905479Y-128416043D01*
X224997296Y-128407000D01*
X225058704Y-128407000D01*
X225150521Y-128416043D01*
X225268334Y-128451781D01*
X225376911Y-128509817D01*
X225448716Y-128568746D01*
X225469075Y-128582349D01*
X225491713Y-128591726D01*
X225515747Y-128596507D01*
X225540251Y-128596507D01*
X225564285Y-128591727D01*
X225586924Y-128582350D01*
X225607284Y-128568746D01*
X225679089Y-128509817D01*
X225787666Y-128451781D01*
X225905479Y-128416043D01*
X225997296Y-128407000D01*
X226058704Y-128407000D01*
X226150521Y-128416043D01*
X226268334Y-128451781D01*
X226376911Y-128509817D01*
X226448716Y-128568746D01*
X226469075Y-128582349D01*
X226491713Y-128591726D01*
X226515747Y-128596507D01*
X226540251Y-128596507D01*
X226564285Y-128591727D01*
X226586924Y-128582350D01*
X226607284Y-128568746D01*
X226679089Y-128509817D01*
X226787666Y-128451781D01*
X226905479Y-128416043D01*
X226997296Y-128407000D01*
X227058704Y-128407000D01*
X227150521Y-128416043D01*
X227241724Y-128443709D01*
X227265748Y-128448488D01*
X227290252Y-128448488D01*
X227314285Y-128443708D01*
X227336924Y-128434330D01*
X227357299Y-128420716D01*
X227371015Y-128407000D01*
X228653000Y-128407000D01*
X228653000Y-129657000D01*
X227370884Y-129657000D01*
X227366388Y-129651522D01*
X227347446Y-129635976D01*
X227325835Y-129624425D01*
X227302386Y-129617312D01*
X227278000Y-129614910D01*
X227253614Y-129617312D01*
X227241734Y-129620288D01*
X227150521Y-129647957D01*
X227058704Y-129657000D01*
X226997296Y-129657000D01*
X226905479Y-129647957D01*
X226787666Y-129612219D01*
X226679089Y-129554183D01*
X226607284Y-129495254D01*
X226586925Y-129481651D01*
X226564287Y-129472274D01*
X226540253Y-129467493D01*
X226515749Y-129467493D01*
X226491715Y-129472273D01*
X226469076Y-129481650D01*
X226448716Y-129495254D01*
X226376911Y-129554183D01*
X226268334Y-129612219D01*
X226150521Y-129647957D01*
X226058704Y-129657000D01*
X225997296Y-129657000D01*
X225905479Y-129647957D01*
X225787666Y-129612219D01*
X225679089Y-129554183D01*
X225607284Y-129495254D01*
X225586925Y-129481651D01*
X225564287Y-129472274D01*
X225540253Y-129467493D01*
X225515749Y-129467493D01*
X225491715Y-129472273D01*
X225469076Y-129481650D01*
X225448716Y-129495254D01*
X225376911Y-129554183D01*
X225268334Y-129612219D01*
X225150521Y-129647957D01*
X225058704Y-129657000D01*
X224997296Y-129657000D01*
X224905479Y-129647957D01*
X224787666Y-129612219D01*
X224679089Y-129554183D01*
X224607284Y-129495254D01*
X224586925Y-129481651D01*
X224564287Y-129472274D01*
X224540253Y-129467493D01*
X224515749Y-129467493D01*
X224491715Y-129472273D01*
X224469076Y-129481650D01*
X224448716Y-129495254D01*
X224376911Y-129554183D01*
X224268334Y-129612219D01*
X224150521Y-129647957D01*
X224058704Y-129657000D01*
X223997296Y-129657000D01*
X223905479Y-129647957D01*
X223787666Y-129612219D01*
X223679089Y-129554183D01*
X223607284Y-129495254D01*
X223586925Y-129481651D01*
X223564287Y-129472274D01*
X223540253Y-129467493D01*
X223515749Y-129467493D01*
X223491715Y-129472273D01*
X223469076Y-129481650D01*
X223448716Y-129495254D01*
X223376911Y-129554183D01*
X223268334Y-129612219D01*
X223150521Y-129647957D01*
X223058704Y-129657000D01*
X222997296Y-129657000D01*
X222905479Y-129647957D01*
X222787666Y-129612219D01*
X222679089Y-129554183D01*
X222583920Y-129476080D01*
X222505817Y-129380911D01*
X222447781Y-129272334D01*
X222412043Y-129154521D01*
X222399976Y-129032000D01*
X222412043Y-128909479D01*
X222447781Y-128791666D01*
X222505817Y-128683089D01*
X222583920Y-128587920D01*
X222679089Y-128509817D01*
X222787666Y-128451781D01*
X222905479Y-128416043D01*
X222997296Y-128407000D01*
X223058704Y-128407000D01*
X223150521Y-128416043D01*
X223150521Y-128416043D01*
G37*
G36*
X214826030Y-125506469D02*
X214826033Y-125506470D01*
X214826034Y-125506470D01*
X215014535Y-125563651D01*
X215014537Y-125563652D01*
X215188260Y-125656509D01*
X215340528Y-125781472D01*
X215465491Y-125933740D01*
X215558348Y-126107463D01*
X215615531Y-126295970D01*
X215634838Y-126492000D01*
X215615531Y-126688030D01*
X215558348Y-126876537D01*
X215465491Y-127050260D01*
X215340528Y-127202528D01*
X215188260Y-127327491D01*
X215188258Y-127327492D01*
X215014535Y-127420349D01*
X214826034Y-127477530D01*
X214826033Y-127477530D01*
X214826030Y-127477531D01*
X214679124Y-127492000D01*
X214580876Y-127492000D01*
X214433970Y-127477531D01*
X214433967Y-127477530D01*
X214433966Y-127477530D01*
X214245465Y-127420349D01*
X214071742Y-127327492D01*
X214071740Y-127327491D01*
X213919472Y-127202528D01*
X213794509Y-127050260D01*
X213701652Y-126876537D01*
X213644469Y-126688030D01*
X213625162Y-126492000D01*
X213644469Y-126295970D01*
X213701652Y-126107463D01*
X213794509Y-125933740D01*
X213919472Y-125781472D01*
X214071740Y-125656509D01*
X214245463Y-125563652D01*
X214245465Y-125563651D01*
X214433966Y-125506470D01*
X214433967Y-125506470D01*
X214433970Y-125506469D01*
X214580876Y-125492000D01*
X214679124Y-125492000D01*
X214826030Y-125506469D01*
X214826030Y-125506469D01*
G37*
G36*
X219906030Y-125506469D02*
X219906033Y-125506470D01*
X219906034Y-125506470D01*
X220094535Y-125563651D01*
X220094537Y-125563652D01*
X220268260Y-125656509D01*
X220420528Y-125781472D01*
X220545491Y-125933740D01*
X220638348Y-126107463D01*
X220695531Y-126295970D01*
X220714838Y-126492000D01*
X220695531Y-126688030D01*
X220638348Y-126876537D01*
X220545491Y-127050260D01*
X220420528Y-127202528D01*
X220268260Y-127327491D01*
X220268258Y-127327492D01*
X220094535Y-127420349D01*
X219906034Y-127477530D01*
X219906033Y-127477530D01*
X219906030Y-127477531D01*
X219759124Y-127492000D01*
X219660876Y-127492000D01*
X219513970Y-127477531D01*
X219513967Y-127477530D01*
X219513966Y-127477530D01*
X219325465Y-127420349D01*
X219151742Y-127327492D01*
X219151740Y-127327491D01*
X218999472Y-127202528D01*
X218874509Y-127050260D01*
X218781652Y-126876537D01*
X218724469Y-126688030D01*
X218705162Y-126492000D01*
X218724469Y-126295970D01*
X218781652Y-126107463D01*
X218874509Y-125933740D01*
X218999472Y-125781472D01*
X219151740Y-125656509D01*
X219325463Y-125563652D01*
X219325465Y-125563651D01*
X219513966Y-125506470D01*
X219513967Y-125506470D01*
X219513970Y-125506469D01*
X219660876Y-125492000D01*
X219759124Y-125492000D01*
X219906030Y-125506469D01*
X219906030Y-125506469D01*
G37*
G36*
X222446030Y-125506469D02*
X222446033Y-125506470D01*
X222446034Y-125506470D01*
X222634535Y-125563651D01*
X222634537Y-125563652D01*
X222808260Y-125656509D01*
X222960528Y-125781472D01*
X223085491Y-125933740D01*
X223178348Y-126107463D01*
X223235531Y-126295970D01*
X223254838Y-126492000D01*
X223235531Y-126688030D01*
X223178348Y-126876537D01*
X223085491Y-127050260D01*
X222960528Y-127202528D01*
X222808260Y-127327491D01*
X222808258Y-127327492D01*
X222634535Y-127420349D01*
X222446034Y-127477530D01*
X222446033Y-127477530D01*
X222446030Y-127477531D01*
X222299124Y-127492000D01*
X222200876Y-127492000D01*
X222053970Y-127477531D01*
X222053967Y-127477530D01*
X222053966Y-127477530D01*
X221865465Y-127420349D01*
X221691742Y-127327492D01*
X221691740Y-127327491D01*
X221539472Y-127202528D01*
X221414509Y-127050260D01*
X221321652Y-126876537D01*
X221264469Y-126688030D01*
X221245162Y-126492000D01*
X221264469Y-126295970D01*
X221321652Y-126107463D01*
X221414509Y-125933740D01*
X221539472Y-125781472D01*
X221691740Y-125656509D01*
X221865463Y-125563652D01*
X221865465Y-125563651D01*
X222053966Y-125506470D01*
X222053967Y-125506470D01*
X222053970Y-125506469D01*
X222200876Y-125492000D01*
X222299124Y-125492000D01*
X222446030Y-125506469D01*
X222446030Y-125506469D01*
G37*
G36*
X224986030Y-125506469D02*
X224986033Y-125506470D01*
X224986034Y-125506470D01*
X225174535Y-125563651D01*
X225174537Y-125563652D01*
X225348260Y-125656509D01*
X225500528Y-125781472D01*
X225625491Y-125933740D01*
X225718348Y-126107463D01*
X225775531Y-126295970D01*
X225794838Y-126492000D01*
X225775531Y-126688030D01*
X225718348Y-126876537D01*
X225625491Y-127050260D01*
X225500528Y-127202528D01*
X225348260Y-127327491D01*
X225348258Y-127327492D01*
X225174535Y-127420349D01*
X224986034Y-127477530D01*
X224986033Y-127477530D01*
X224986030Y-127477531D01*
X224839124Y-127492000D01*
X224740876Y-127492000D01*
X224593970Y-127477531D01*
X224593967Y-127477530D01*
X224593966Y-127477530D01*
X224405465Y-127420349D01*
X224231742Y-127327492D01*
X224231740Y-127327491D01*
X224079472Y-127202528D01*
X223954509Y-127050260D01*
X223861652Y-126876537D01*
X223804469Y-126688030D01*
X223785162Y-126492000D01*
X223804469Y-126295970D01*
X223861652Y-126107463D01*
X223954509Y-125933740D01*
X224079472Y-125781472D01*
X224231740Y-125656509D01*
X224405463Y-125563652D01*
X224405465Y-125563651D01*
X224593966Y-125506470D01*
X224593967Y-125506470D01*
X224593970Y-125506469D01*
X224740876Y-125492000D01*
X224839124Y-125492000D01*
X224986030Y-125506469D01*
X224986030Y-125506469D01*
G37*
G36*
X227526030Y-125506469D02*
X227526033Y-125506470D01*
X227526034Y-125506470D01*
X227714535Y-125563651D01*
X227714537Y-125563652D01*
X227888260Y-125656509D01*
X228040528Y-125781472D01*
X228165491Y-125933740D01*
X228258348Y-126107463D01*
X228315531Y-126295970D01*
X228334838Y-126492000D01*
X228315531Y-126688030D01*
X228258348Y-126876537D01*
X228165491Y-127050260D01*
X228040528Y-127202528D01*
X227888260Y-127327491D01*
X227888258Y-127327492D01*
X227714535Y-127420349D01*
X227526034Y-127477530D01*
X227526033Y-127477530D01*
X227526030Y-127477531D01*
X227379124Y-127492000D01*
X227280876Y-127492000D01*
X227133970Y-127477531D01*
X227133967Y-127477530D01*
X227133966Y-127477530D01*
X226945465Y-127420349D01*
X226771742Y-127327492D01*
X226771740Y-127327491D01*
X226619472Y-127202528D01*
X226494509Y-127050260D01*
X226401652Y-126876537D01*
X226344469Y-126688030D01*
X226325162Y-126492000D01*
X226344469Y-126295970D01*
X226401652Y-126107463D01*
X226494509Y-125933740D01*
X226619472Y-125781472D01*
X226771740Y-125656509D01*
X226945463Y-125563652D01*
X226945465Y-125563651D01*
X227133966Y-125506470D01*
X227133967Y-125506470D01*
X227133970Y-125506469D01*
X227280876Y-125492000D01*
X227379124Y-125492000D01*
X227526030Y-125506469D01*
X227526030Y-125506469D01*
G37*
G36*
X230066030Y-125506469D02*
X230066033Y-125506470D01*
X230066034Y-125506470D01*
X230254535Y-125563651D01*
X230254537Y-125563652D01*
X230428260Y-125656509D01*
X230580528Y-125781472D01*
X230705491Y-125933740D01*
X230798348Y-126107463D01*
X230855531Y-126295970D01*
X230874838Y-126492000D01*
X230855531Y-126688030D01*
X230798348Y-126876537D01*
X230705491Y-127050260D01*
X230580528Y-127202528D01*
X230428260Y-127327491D01*
X230428258Y-127327492D01*
X230254535Y-127420349D01*
X230066034Y-127477530D01*
X230066033Y-127477530D01*
X230066030Y-127477531D01*
X229919124Y-127492000D01*
X229820876Y-127492000D01*
X229673970Y-127477531D01*
X229673967Y-127477530D01*
X229673966Y-127477530D01*
X229485465Y-127420349D01*
X229311742Y-127327492D01*
X229311740Y-127327491D01*
X229159472Y-127202528D01*
X229034509Y-127050260D01*
X228941652Y-126876537D01*
X228884469Y-126688030D01*
X228865162Y-126492000D01*
X228884469Y-126295970D01*
X228941652Y-126107463D01*
X229034509Y-125933740D01*
X229159472Y-125781472D01*
X229311740Y-125656509D01*
X229485463Y-125563652D01*
X229485465Y-125563651D01*
X229673966Y-125506470D01*
X229673967Y-125506470D01*
X229673970Y-125506469D01*
X229820876Y-125492000D01*
X229919124Y-125492000D01*
X230066030Y-125506469D01*
X230066030Y-125506469D01*
G37*
G36*
X232606030Y-125506469D02*
X232606033Y-125506470D01*
X232606034Y-125506470D01*
X232794535Y-125563651D01*
X232794537Y-125563652D01*
X232968260Y-125656509D01*
X233120528Y-125781472D01*
X233245491Y-125933740D01*
X233338348Y-126107463D01*
X233395531Y-126295970D01*
X233414838Y-126492000D01*
X233395531Y-126688030D01*
X233338348Y-126876537D01*
X233245491Y-127050260D01*
X233120528Y-127202528D01*
X232968260Y-127327491D01*
X232968258Y-127327492D01*
X232794535Y-127420349D01*
X232606034Y-127477530D01*
X232606033Y-127477530D01*
X232606030Y-127477531D01*
X232459124Y-127492000D01*
X232360876Y-127492000D01*
X232213970Y-127477531D01*
X232213967Y-127477530D01*
X232213966Y-127477530D01*
X232025465Y-127420349D01*
X231851742Y-127327492D01*
X231851740Y-127327491D01*
X231699472Y-127202528D01*
X231574509Y-127050260D01*
X231481652Y-126876537D01*
X231424469Y-126688030D01*
X231405162Y-126492000D01*
X231424469Y-126295970D01*
X231481652Y-126107463D01*
X231574509Y-125933740D01*
X231699472Y-125781472D01*
X231851740Y-125656509D01*
X232025463Y-125563652D01*
X232025465Y-125563651D01*
X232213966Y-125506470D01*
X232213967Y-125506470D01*
X232213970Y-125506469D01*
X232360876Y-125492000D01*
X232459124Y-125492000D01*
X232606030Y-125506469D01*
X232606030Y-125506469D01*
G37*
G36*
X212286030Y-125506469D02*
X212286033Y-125506470D01*
X212286034Y-125506470D01*
X212474535Y-125563651D01*
X212474537Y-125563652D01*
X212648260Y-125656509D01*
X212800528Y-125781472D01*
X212925491Y-125933740D01*
X213018348Y-126107463D01*
X213075531Y-126295970D01*
X213094838Y-126492000D01*
X213075531Y-126688030D01*
X213018348Y-126876537D01*
X212925491Y-127050260D01*
X212800528Y-127202528D01*
X212648260Y-127327491D01*
X212648258Y-127327492D01*
X212474535Y-127420349D01*
X212286034Y-127477530D01*
X212286033Y-127477530D01*
X212286030Y-127477531D01*
X212139124Y-127492000D01*
X212040876Y-127492000D01*
X211893970Y-127477531D01*
X211893967Y-127477530D01*
X211893966Y-127477530D01*
X211705465Y-127420349D01*
X211531742Y-127327492D01*
X211531740Y-127327491D01*
X211379472Y-127202528D01*
X211254509Y-127050260D01*
X211161652Y-126876537D01*
X211104469Y-126688030D01*
X211085162Y-126492000D01*
X211104469Y-126295970D01*
X211161652Y-126107463D01*
X211254509Y-125933740D01*
X211379472Y-125781472D01*
X211531740Y-125656509D01*
X211705463Y-125563652D01*
X211705465Y-125563651D01*
X211893966Y-125506470D01*
X211893967Y-125506470D01*
X211893970Y-125506469D01*
X212040876Y-125492000D01*
X212139124Y-125492000D01*
X212286030Y-125506469D01*
X212286030Y-125506469D01*
G37*
G36*
X209746030Y-125506469D02*
X209746033Y-125506470D01*
X209746034Y-125506470D01*
X209934535Y-125563651D01*
X209934537Y-125563652D01*
X210108260Y-125656509D01*
X210260528Y-125781472D01*
X210385491Y-125933740D01*
X210478348Y-126107463D01*
X210535531Y-126295970D01*
X210554838Y-126492000D01*
X210535531Y-126688030D01*
X210478348Y-126876537D01*
X210385491Y-127050260D01*
X210260528Y-127202528D01*
X210108260Y-127327491D01*
X210108258Y-127327492D01*
X209934535Y-127420349D01*
X209746034Y-127477530D01*
X209746033Y-127477530D01*
X209746030Y-127477531D01*
X209599124Y-127492000D01*
X209500876Y-127492000D01*
X209353970Y-127477531D01*
X209353967Y-127477530D01*
X209353966Y-127477530D01*
X209165465Y-127420349D01*
X208991742Y-127327492D01*
X208991740Y-127327491D01*
X208839472Y-127202528D01*
X208714509Y-127050260D01*
X208621652Y-126876537D01*
X208564469Y-126688030D01*
X208545162Y-126492000D01*
X208564469Y-126295970D01*
X208621652Y-126107463D01*
X208714509Y-125933740D01*
X208839472Y-125781472D01*
X208991740Y-125656509D01*
X209165463Y-125563652D01*
X209165465Y-125563651D01*
X209353966Y-125506470D01*
X209353967Y-125506470D01*
X209353970Y-125506469D01*
X209500876Y-125492000D01*
X209599124Y-125492000D01*
X209746030Y-125506469D01*
X209746030Y-125506469D01*
G37*
G36*
X207206030Y-125506469D02*
X207206033Y-125506470D01*
X207206034Y-125506470D01*
X207394535Y-125563651D01*
X207394537Y-125563652D01*
X207568260Y-125656509D01*
X207720528Y-125781472D01*
X207845491Y-125933740D01*
X207938348Y-126107463D01*
X207995531Y-126295970D01*
X208014838Y-126492000D01*
X207995531Y-126688030D01*
X207938348Y-126876537D01*
X207845491Y-127050260D01*
X207720528Y-127202528D01*
X207568260Y-127327491D01*
X207568258Y-127327492D01*
X207394535Y-127420349D01*
X207206034Y-127477530D01*
X207206033Y-127477530D01*
X207206030Y-127477531D01*
X207059124Y-127492000D01*
X206960876Y-127492000D01*
X206813970Y-127477531D01*
X206813967Y-127477530D01*
X206813966Y-127477530D01*
X206625465Y-127420349D01*
X206451742Y-127327492D01*
X206451740Y-127327491D01*
X206299472Y-127202528D01*
X206174509Y-127050260D01*
X206081652Y-126876537D01*
X206024469Y-126688030D01*
X206005162Y-126492000D01*
X206024469Y-126295970D01*
X206081652Y-126107463D01*
X206174509Y-125933740D01*
X206299472Y-125781472D01*
X206451740Y-125656509D01*
X206625463Y-125563652D01*
X206625465Y-125563651D01*
X206813966Y-125506470D01*
X206813967Y-125506470D01*
X206813970Y-125506469D01*
X206960876Y-125492000D01*
X207059124Y-125492000D01*
X207206030Y-125506469D01*
X207206030Y-125506469D01*
G37*
G36*
X204666030Y-125506469D02*
X204666033Y-125506470D01*
X204666034Y-125506470D01*
X204854535Y-125563651D01*
X204854537Y-125563652D01*
X205028260Y-125656509D01*
X205180528Y-125781472D01*
X205305491Y-125933740D01*
X205398348Y-126107463D01*
X205455531Y-126295970D01*
X205474838Y-126492000D01*
X205455531Y-126688030D01*
X205398348Y-126876537D01*
X205305491Y-127050260D01*
X205180528Y-127202528D01*
X205028260Y-127327491D01*
X205028258Y-127327492D01*
X204854535Y-127420349D01*
X204666034Y-127477530D01*
X204666033Y-127477530D01*
X204666030Y-127477531D01*
X204519124Y-127492000D01*
X204420876Y-127492000D01*
X204273970Y-127477531D01*
X204273967Y-127477530D01*
X204273966Y-127477530D01*
X204085465Y-127420349D01*
X203911742Y-127327492D01*
X203911740Y-127327491D01*
X203759472Y-127202528D01*
X203634509Y-127050260D01*
X203541652Y-126876537D01*
X203484469Y-126688030D01*
X203465162Y-126492000D01*
X203484469Y-126295970D01*
X203541652Y-126107463D01*
X203634509Y-125933740D01*
X203759472Y-125781472D01*
X203911740Y-125656509D01*
X204085463Y-125563652D01*
X204085465Y-125563651D01*
X204273966Y-125506470D01*
X204273967Y-125506470D01*
X204273970Y-125506469D01*
X204420876Y-125492000D01*
X204519124Y-125492000D01*
X204666030Y-125506469D01*
X204666030Y-125506469D01*
G37*
G36*
X202126030Y-125506469D02*
X202126033Y-125506470D01*
X202126034Y-125506470D01*
X202314535Y-125563651D01*
X202314537Y-125563652D01*
X202488260Y-125656509D01*
X202640528Y-125781472D01*
X202765491Y-125933740D01*
X202858348Y-126107463D01*
X202915531Y-126295970D01*
X202934838Y-126492000D01*
X202915531Y-126688030D01*
X202858348Y-126876537D01*
X202765491Y-127050260D01*
X202640528Y-127202528D01*
X202488260Y-127327491D01*
X202488258Y-127327492D01*
X202314535Y-127420349D01*
X202126034Y-127477530D01*
X202126033Y-127477530D01*
X202126030Y-127477531D01*
X201979124Y-127492000D01*
X201880876Y-127492000D01*
X201733970Y-127477531D01*
X201733967Y-127477530D01*
X201733966Y-127477530D01*
X201545465Y-127420349D01*
X201371742Y-127327492D01*
X201371740Y-127327491D01*
X201219472Y-127202528D01*
X201094509Y-127050260D01*
X201001652Y-126876537D01*
X200944469Y-126688030D01*
X200925162Y-126492000D01*
X200944469Y-126295970D01*
X201001652Y-126107463D01*
X201094509Y-125933740D01*
X201219472Y-125781472D01*
X201371740Y-125656509D01*
X201545463Y-125563652D01*
X201545465Y-125563651D01*
X201733966Y-125506470D01*
X201733967Y-125506470D01*
X201733970Y-125506469D01*
X201880876Y-125492000D01*
X201979124Y-125492000D01*
X202126030Y-125506469D01*
X202126030Y-125506469D01*
G37*
G36*
X199586030Y-125506469D02*
X199586033Y-125506470D01*
X199586034Y-125506470D01*
X199774535Y-125563651D01*
X199774537Y-125563652D01*
X199948260Y-125656509D01*
X200100528Y-125781472D01*
X200225491Y-125933740D01*
X200318348Y-126107463D01*
X200375531Y-126295970D01*
X200394838Y-126492000D01*
X200375531Y-126688030D01*
X200318348Y-126876537D01*
X200225491Y-127050260D01*
X200100528Y-127202528D01*
X199948260Y-127327491D01*
X199948258Y-127327492D01*
X199774535Y-127420349D01*
X199586034Y-127477530D01*
X199586033Y-127477530D01*
X199586030Y-127477531D01*
X199439124Y-127492000D01*
X199340876Y-127492000D01*
X199193970Y-127477531D01*
X199193967Y-127477530D01*
X199193966Y-127477530D01*
X199005465Y-127420349D01*
X198831742Y-127327492D01*
X198831740Y-127327491D01*
X198679472Y-127202528D01*
X198554509Y-127050260D01*
X198461652Y-126876537D01*
X198404469Y-126688030D01*
X198385162Y-126492000D01*
X198404469Y-126295970D01*
X198461652Y-126107463D01*
X198554509Y-125933740D01*
X198679472Y-125781472D01*
X198831740Y-125656509D01*
X199005463Y-125563652D01*
X199005465Y-125563651D01*
X199193966Y-125506470D01*
X199193967Y-125506470D01*
X199193970Y-125506469D01*
X199340876Y-125492000D01*
X199439124Y-125492000D01*
X199586030Y-125506469D01*
X199586030Y-125506469D01*
G37*
G36*
X235146030Y-125506469D02*
X235146033Y-125506470D01*
X235146034Y-125506470D01*
X235334535Y-125563651D01*
X235334537Y-125563652D01*
X235508260Y-125656509D01*
X235660528Y-125781472D01*
X235785491Y-125933740D01*
X235878348Y-126107463D01*
X235935531Y-126295970D01*
X235954838Y-126492000D01*
X235935531Y-126688030D01*
X235878348Y-126876537D01*
X235785491Y-127050260D01*
X235660528Y-127202528D01*
X235508260Y-127327491D01*
X235508258Y-127327492D01*
X235334535Y-127420349D01*
X235146034Y-127477530D01*
X235146033Y-127477530D01*
X235146030Y-127477531D01*
X234999124Y-127492000D01*
X234900876Y-127492000D01*
X234753970Y-127477531D01*
X234753967Y-127477530D01*
X234753966Y-127477530D01*
X234565465Y-127420349D01*
X234391742Y-127327492D01*
X234391740Y-127327491D01*
X234239472Y-127202528D01*
X234114509Y-127050260D01*
X234021652Y-126876537D01*
X233964469Y-126688030D01*
X233945162Y-126492000D01*
X233964469Y-126295970D01*
X234021652Y-126107463D01*
X234114509Y-125933740D01*
X234239472Y-125781472D01*
X234391740Y-125656509D01*
X234565463Y-125563652D01*
X234565465Y-125563651D01*
X234753966Y-125506470D01*
X234753967Y-125506470D01*
X234753970Y-125506469D01*
X234900876Y-125492000D01*
X234999124Y-125492000D01*
X235146030Y-125506469D01*
X235146030Y-125506469D01*
G37*
G36*
X217366030Y-125506469D02*
X217366033Y-125506470D01*
X217366034Y-125506470D01*
X217554535Y-125563651D01*
X217554537Y-125563652D01*
X217728260Y-125656509D01*
X217880528Y-125781472D01*
X218005491Y-125933740D01*
X218098348Y-126107463D01*
X218155531Y-126295970D01*
X218174838Y-126492000D01*
X218155531Y-126688030D01*
X218098348Y-126876537D01*
X218005491Y-127050260D01*
X217880528Y-127202528D01*
X217728260Y-127327491D01*
X217728258Y-127327492D01*
X217554535Y-127420349D01*
X217366034Y-127477530D01*
X217366033Y-127477530D01*
X217366030Y-127477531D01*
X217219124Y-127492000D01*
X217120876Y-127492000D01*
X216973970Y-127477531D01*
X216973967Y-127477530D01*
X216973966Y-127477530D01*
X216785465Y-127420349D01*
X216611742Y-127327492D01*
X216611740Y-127327491D01*
X216459472Y-127202528D01*
X216334509Y-127050260D01*
X216241652Y-126876537D01*
X216184469Y-126688030D01*
X216165162Y-126492000D01*
X216184469Y-126295970D01*
X216241652Y-126107463D01*
X216334509Y-125933740D01*
X216459472Y-125781472D01*
X216611740Y-125656509D01*
X216785463Y-125563652D01*
X216785465Y-125563651D01*
X216973966Y-125506470D01*
X216973967Y-125506470D01*
X216973970Y-125506469D01*
X217120876Y-125492000D01*
X217219124Y-125492000D01*
X217366030Y-125506469D01*
X217366030Y-125506469D01*
G37*
G36*
X222446030Y-110266469D02*
X222446033Y-110266470D01*
X222446034Y-110266470D01*
X222634535Y-110323651D01*
X222634537Y-110323652D01*
X222808260Y-110416509D01*
X222960528Y-110541472D01*
X223085491Y-110693740D01*
X223178348Y-110867463D01*
X223235531Y-111055970D01*
X223254838Y-111252000D01*
X223235531Y-111448030D01*
X223178348Y-111636537D01*
X223085491Y-111810260D01*
X222960528Y-111962528D01*
X222808260Y-112087491D01*
X222808258Y-112087492D01*
X222634535Y-112180349D01*
X222446034Y-112237530D01*
X222446033Y-112237530D01*
X222446030Y-112237531D01*
X222299124Y-112252000D01*
X222200876Y-112252000D01*
X222053970Y-112237531D01*
X222053967Y-112237530D01*
X222053966Y-112237530D01*
X221865465Y-112180349D01*
X221691742Y-112087492D01*
X221691740Y-112087491D01*
X221539472Y-111962528D01*
X221414509Y-111810260D01*
X221321652Y-111636537D01*
X221264469Y-111448030D01*
X221245162Y-111252000D01*
X221264469Y-111055970D01*
X221321652Y-110867463D01*
X221414509Y-110693740D01*
X221539472Y-110541472D01*
X221691740Y-110416509D01*
X221865463Y-110323652D01*
X221865465Y-110323651D01*
X222053966Y-110266470D01*
X222053967Y-110266470D01*
X222053970Y-110266469D01*
X222200876Y-110252000D01*
X222299124Y-110252000D01*
X222446030Y-110266469D01*
X222446030Y-110266469D01*
G37*
G36*
X200390000Y-112252000D02*
X198390000Y-112252000D01*
X198390000Y-110252000D01*
X200390000Y-110252000D01*
X200390000Y-112252000D01*
X200390000Y-112252000D01*
G37*
G36*
X202126030Y-110266469D02*
X202126033Y-110266470D01*
X202126034Y-110266470D01*
X202314535Y-110323651D01*
X202314537Y-110323652D01*
X202488260Y-110416509D01*
X202640528Y-110541472D01*
X202765491Y-110693740D01*
X202858348Y-110867463D01*
X202915531Y-111055970D01*
X202934838Y-111252000D01*
X202915531Y-111448030D01*
X202858348Y-111636537D01*
X202765491Y-111810260D01*
X202640528Y-111962528D01*
X202488260Y-112087491D01*
X202488258Y-112087492D01*
X202314535Y-112180349D01*
X202126034Y-112237530D01*
X202126033Y-112237530D01*
X202126030Y-112237531D01*
X201979124Y-112252000D01*
X201880876Y-112252000D01*
X201733970Y-112237531D01*
X201733967Y-112237530D01*
X201733966Y-112237530D01*
X201545465Y-112180349D01*
X201371742Y-112087492D01*
X201371740Y-112087491D01*
X201219472Y-111962528D01*
X201094509Y-111810260D01*
X201001652Y-111636537D01*
X200944469Y-111448030D01*
X200925162Y-111252000D01*
X200944469Y-111055970D01*
X201001652Y-110867463D01*
X201094509Y-110693740D01*
X201219472Y-110541472D01*
X201371740Y-110416509D01*
X201545463Y-110323652D01*
X201545465Y-110323651D01*
X201733966Y-110266470D01*
X201733967Y-110266470D01*
X201733970Y-110266469D01*
X201880876Y-110252000D01*
X201979124Y-110252000D01*
X202126030Y-110266469D01*
X202126030Y-110266469D01*
G37*
G36*
X204666030Y-110266469D02*
X204666033Y-110266470D01*
X204666034Y-110266470D01*
X204854535Y-110323651D01*
X204854537Y-110323652D01*
X205028260Y-110416509D01*
X205180528Y-110541472D01*
X205305491Y-110693740D01*
X205398348Y-110867463D01*
X205455531Y-111055970D01*
X205474838Y-111252000D01*
X205455531Y-111448030D01*
X205398348Y-111636537D01*
X205305491Y-111810260D01*
X205180528Y-111962528D01*
X205028260Y-112087491D01*
X205028258Y-112087492D01*
X204854535Y-112180349D01*
X204666034Y-112237530D01*
X204666033Y-112237530D01*
X204666030Y-112237531D01*
X204519124Y-112252000D01*
X204420876Y-112252000D01*
X204273970Y-112237531D01*
X204273967Y-112237530D01*
X204273966Y-112237530D01*
X204085465Y-112180349D01*
X203911742Y-112087492D01*
X203911740Y-112087491D01*
X203759472Y-111962528D01*
X203634509Y-111810260D01*
X203541652Y-111636537D01*
X203484469Y-111448030D01*
X203465162Y-111252000D01*
X203484469Y-111055970D01*
X203541652Y-110867463D01*
X203634509Y-110693740D01*
X203759472Y-110541472D01*
X203911740Y-110416509D01*
X204085463Y-110323652D01*
X204085465Y-110323651D01*
X204273966Y-110266470D01*
X204273967Y-110266470D01*
X204273970Y-110266469D01*
X204420876Y-110252000D01*
X204519124Y-110252000D01*
X204666030Y-110266469D01*
X204666030Y-110266469D01*
G37*
G36*
X207206030Y-110266469D02*
X207206033Y-110266470D01*
X207206034Y-110266470D01*
X207394535Y-110323651D01*
X207394537Y-110323652D01*
X207568260Y-110416509D01*
X207720528Y-110541472D01*
X207845491Y-110693740D01*
X207938348Y-110867463D01*
X207995531Y-111055970D01*
X208014838Y-111252000D01*
X207995531Y-111448030D01*
X207938348Y-111636537D01*
X207845491Y-111810260D01*
X207720528Y-111962528D01*
X207568260Y-112087491D01*
X207568258Y-112087492D01*
X207394535Y-112180349D01*
X207206034Y-112237530D01*
X207206033Y-112237530D01*
X207206030Y-112237531D01*
X207059124Y-112252000D01*
X206960876Y-112252000D01*
X206813970Y-112237531D01*
X206813967Y-112237530D01*
X206813966Y-112237530D01*
X206625465Y-112180349D01*
X206451742Y-112087492D01*
X206451740Y-112087491D01*
X206299472Y-111962528D01*
X206174509Y-111810260D01*
X206081652Y-111636537D01*
X206024469Y-111448030D01*
X206005162Y-111252000D01*
X206024469Y-111055970D01*
X206081652Y-110867463D01*
X206174509Y-110693740D01*
X206299472Y-110541472D01*
X206451740Y-110416509D01*
X206625463Y-110323652D01*
X206625465Y-110323651D01*
X206813966Y-110266470D01*
X206813967Y-110266470D01*
X206813970Y-110266469D01*
X206960876Y-110252000D01*
X207059124Y-110252000D01*
X207206030Y-110266469D01*
X207206030Y-110266469D01*
G37*
G36*
X209746030Y-110266469D02*
X209746033Y-110266470D01*
X209746034Y-110266470D01*
X209934535Y-110323651D01*
X209934537Y-110323652D01*
X210108260Y-110416509D01*
X210260528Y-110541472D01*
X210385491Y-110693740D01*
X210478348Y-110867463D01*
X210535531Y-111055970D01*
X210554838Y-111252000D01*
X210535531Y-111448030D01*
X210478348Y-111636537D01*
X210385491Y-111810260D01*
X210260528Y-111962528D01*
X210108260Y-112087491D01*
X210108258Y-112087492D01*
X209934535Y-112180349D01*
X209746034Y-112237530D01*
X209746033Y-112237530D01*
X209746030Y-112237531D01*
X209599124Y-112252000D01*
X209500876Y-112252000D01*
X209353970Y-112237531D01*
X209353967Y-112237530D01*
X209353966Y-112237530D01*
X209165465Y-112180349D01*
X208991742Y-112087492D01*
X208991740Y-112087491D01*
X208839472Y-111962528D01*
X208714509Y-111810260D01*
X208621652Y-111636537D01*
X208564469Y-111448030D01*
X208545162Y-111252000D01*
X208564469Y-111055970D01*
X208621652Y-110867463D01*
X208714509Y-110693740D01*
X208839472Y-110541472D01*
X208991740Y-110416509D01*
X209165463Y-110323652D01*
X209165465Y-110323651D01*
X209353966Y-110266470D01*
X209353967Y-110266470D01*
X209353970Y-110266469D01*
X209500876Y-110252000D01*
X209599124Y-110252000D01*
X209746030Y-110266469D01*
X209746030Y-110266469D01*
G37*
G36*
X212286030Y-110266469D02*
X212286033Y-110266470D01*
X212286034Y-110266470D01*
X212474535Y-110323651D01*
X212474537Y-110323652D01*
X212648260Y-110416509D01*
X212800528Y-110541472D01*
X212925491Y-110693740D01*
X213018348Y-110867463D01*
X213075531Y-111055970D01*
X213094838Y-111252000D01*
X213075531Y-111448030D01*
X213018348Y-111636537D01*
X212925491Y-111810260D01*
X212800528Y-111962528D01*
X212648260Y-112087491D01*
X212648258Y-112087492D01*
X212474535Y-112180349D01*
X212286034Y-112237530D01*
X212286033Y-112237530D01*
X212286030Y-112237531D01*
X212139124Y-112252000D01*
X212040876Y-112252000D01*
X211893970Y-112237531D01*
X211893967Y-112237530D01*
X211893966Y-112237530D01*
X211705465Y-112180349D01*
X211531742Y-112087492D01*
X211531740Y-112087491D01*
X211379472Y-111962528D01*
X211254509Y-111810260D01*
X211161652Y-111636537D01*
X211104469Y-111448030D01*
X211085162Y-111252000D01*
X211104469Y-111055970D01*
X211161652Y-110867463D01*
X211254509Y-110693740D01*
X211379472Y-110541472D01*
X211531740Y-110416509D01*
X211705463Y-110323652D01*
X211705465Y-110323651D01*
X211893966Y-110266470D01*
X211893967Y-110266470D01*
X211893970Y-110266469D01*
X212040876Y-110252000D01*
X212139124Y-110252000D01*
X212286030Y-110266469D01*
X212286030Y-110266469D01*
G37*
G36*
X214826030Y-110266469D02*
X214826033Y-110266470D01*
X214826034Y-110266470D01*
X215014535Y-110323651D01*
X215014537Y-110323652D01*
X215188260Y-110416509D01*
X215340528Y-110541472D01*
X215465491Y-110693740D01*
X215558348Y-110867463D01*
X215615531Y-111055970D01*
X215634838Y-111252000D01*
X215615531Y-111448030D01*
X215558348Y-111636537D01*
X215465491Y-111810260D01*
X215340528Y-111962528D01*
X215188260Y-112087491D01*
X215188258Y-112087492D01*
X215014535Y-112180349D01*
X214826034Y-112237530D01*
X214826033Y-112237530D01*
X214826030Y-112237531D01*
X214679124Y-112252000D01*
X214580876Y-112252000D01*
X214433970Y-112237531D01*
X214433967Y-112237530D01*
X214433966Y-112237530D01*
X214245465Y-112180349D01*
X214071742Y-112087492D01*
X214071740Y-112087491D01*
X213919472Y-111962528D01*
X213794509Y-111810260D01*
X213701652Y-111636537D01*
X213644469Y-111448030D01*
X213625162Y-111252000D01*
X213644469Y-111055970D01*
X213701652Y-110867463D01*
X213794509Y-110693740D01*
X213919472Y-110541472D01*
X214071740Y-110416509D01*
X214245463Y-110323652D01*
X214245465Y-110323651D01*
X214433966Y-110266470D01*
X214433967Y-110266470D01*
X214433970Y-110266469D01*
X214580876Y-110252000D01*
X214679124Y-110252000D01*
X214826030Y-110266469D01*
X214826030Y-110266469D01*
G37*
G36*
X235146030Y-110266469D02*
X235146033Y-110266470D01*
X235146034Y-110266470D01*
X235334535Y-110323651D01*
X235334537Y-110323652D01*
X235508260Y-110416509D01*
X235660528Y-110541472D01*
X235785491Y-110693740D01*
X235878348Y-110867463D01*
X235935531Y-111055970D01*
X235954838Y-111252000D01*
X235935531Y-111448030D01*
X235878348Y-111636537D01*
X235785491Y-111810260D01*
X235660528Y-111962528D01*
X235508260Y-112087491D01*
X235508258Y-112087492D01*
X235334535Y-112180349D01*
X235146034Y-112237530D01*
X235146033Y-112237530D01*
X235146030Y-112237531D01*
X234999124Y-112252000D01*
X234900876Y-112252000D01*
X234753970Y-112237531D01*
X234753967Y-112237530D01*
X234753966Y-112237530D01*
X234565465Y-112180349D01*
X234391742Y-112087492D01*
X234391740Y-112087491D01*
X234239472Y-111962528D01*
X234114509Y-111810260D01*
X234021652Y-111636537D01*
X233964469Y-111448030D01*
X233945162Y-111252000D01*
X233964469Y-111055970D01*
X234021652Y-110867463D01*
X234114509Y-110693740D01*
X234239472Y-110541472D01*
X234391740Y-110416509D01*
X234565463Y-110323652D01*
X234565465Y-110323651D01*
X234753966Y-110266470D01*
X234753967Y-110266470D01*
X234753970Y-110266469D01*
X234900876Y-110252000D01*
X234999124Y-110252000D01*
X235146030Y-110266469D01*
X235146030Y-110266469D01*
G37*
G36*
X219906030Y-110266469D02*
X219906033Y-110266470D01*
X219906034Y-110266470D01*
X220094535Y-110323651D01*
X220094537Y-110323652D01*
X220268260Y-110416509D01*
X220420528Y-110541472D01*
X220545491Y-110693740D01*
X220638348Y-110867463D01*
X220695531Y-111055970D01*
X220714838Y-111252000D01*
X220695531Y-111448030D01*
X220638348Y-111636537D01*
X220545491Y-111810260D01*
X220420528Y-111962528D01*
X220268260Y-112087491D01*
X220268258Y-112087492D01*
X220094535Y-112180349D01*
X219906034Y-112237530D01*
X219906033Y-112237530D01*
X219906030Y-112237531D01*
X219759124Y-112252000D01*
X219660876Y-112252000D01*
X219513970Y-112237531D01*
X219513967Y-112237530D01*
X219513966Y-112237530D01*
X219325465Y-112180349D01*
X219151742Y-112087492D01*
X219151740Y-112087491D01*
X218999472Y-111962528D01*
X218874509Y-111810260D01*
X218781652Y-111636537D01*
X218724469Y-111448030D01*
X218705162Y-111252000D01*
X218724469Y-111055970D01*
X218781652Y-110867463D01*
X218874509Y-110693740D01*
X218999472Y-110541472D01*
X219151740Y-110416509D01*
X219325463Y-110323652D01*
X219325465Y-110323651D01*
X219513966Y-110266470D01*
X219513967Y-110266470D01*
X219513970Y-110266469D01*
X219660876Y-110252000D01*
X219759124Y-110252000D01*
X219906030Y-110266469D01*
X219906030Y-110266469D01*
G37*
G36*
X230066030Y-110266469D02*
X230066033Y-110266470D01*
X230066034Y-110266470D01*
X230254535Y-110323651D01*
X230254537Y-110323652D01*
X230428260Y-110416509D01*
X230580528Y-110541472D01*
X230705491Y-110693740D01*
X230798348Y-110867463D01*
X230855531Y-111055970D01*
X230874838Y-111252000D01*
X230855531Y-111448030D01*
X230798348Y-111636537D01*
X230705491Y-111810260D01*
X230580528Y-111962528D01*
X230428260Y-112087491D01*
X230428258Y-112087492D01*
X230254535Y-112180349D01*
X230066034Y-112237530D01*
X230066033Y-112237530D01*
X230066030Y-112237531D01*
X229919124Y-112252000D01*
X229820876Y-112252000D01*
X229673970Y-112237531D01*
X229673967Y-112237530D01*
X229673966Y-112237530D01*
X229485465Y-112180349D01*
X229311742Y-112087492D01*
X229311740Y-112087491D01*
X229159472Y-111962528D01*
X229034509Y-111810260D01*
X228941652Y-111636537D01*
X228884469Y-111448030D01*
X228865162Y-111252000D01*
X228884469Y-111055970D01*
X228941652Y-110867463D01*
X229034509Y-110693740D01*
X229159472Y-110541472D01*
X229311740Y-110416509D01*
X229485463Y-110323652D01*
X229485465Y-110323651D01*
X229673966Y-110266470D01*
X229673967Y-110266470D01*
X229673970Y-110266469D01*
X229820876Y-110252000D01*
X229919124Y-110252000D01*
X230066030Y-110266469D01*
X230066030Y-110266469D01*
G37*
G36*
X224986030Y-110266469D02*
X224986033Y-110266470D01*
X224986034Y-110266470D01*
X225174535Y-110323651D01*
X225174537Y-110323652D01*
X225348260Y-110416509D01*
X225500528Y-110541472D01*
X225625491Y-110693740D01*
X225718348Y-110867463D01*
X225775531Y-111055970D01*
X225794838Y-111252000D01*
X225775531Y-111448030D01*
X225718348Y-111636537D01*
X225625491Y-111810260D01*
X225500528Y-111962528D01*
X225348260Y-112087491D01*
X225348258Y-112087492D01*
X225174535Y-112180349D01*
X224986034Y-112237530D01*
X224986033Y-112237530D01*
X224986030Y-112237531D01*
X224839124Y-112252000D01*
X224740876Y-112252000D01*
X224593970Y-112237531D01*
X224593967Y-112237530D01*
X224593966Y-112237530D01*
X224405465Y-112180349D01*
X224231742Y-112087492D01*
X224231740Y-112087491D01*
X224079472Y-111962528D01*
X223954509Y-111810260D01*
X223861652Y-111636537D01*
X223804469Y-111448030D01*
X223785162Y-111252000D01*
X223804469Y-111055970D01*
X223861652Y-110867463D01*
X223954509Y-110693740D01*
X224079472Y-110541472D01*
X224231740Y-110416509D01*
X224405463Y-110323652D01*
X224405465Y-110323651D01*
X224593966Y-110266470D01*
X224593967Y-110266470D01*
X224593970Y-110266469D01*
X224740876Y-110252000D01*
X224839124Y-110252000D01*
X224986030Y-110266469D01*
X224986030Y-110266469D01*
G37*
G36*
X227526030Y-110266469D02*
X227526033Y-110266470D01*
X227526034Y-110266470D01*
X227714535Y-110323651D01*
X227714537Y-110323652D01*
X227888260Y-110416509D01*
X228040528Y-110541472D01*
X228165491Y-110693740D01*
X228258348Y-110867463D01*
X228315531Y-111055970D01*
X228334838Y-111252000D01*
X228315531Y-111448030D01*
X228258348Y-111636537D01*
X228165491Y-111810260D01*
X228040528Y-111962528D01*
X227888260Y-112087491D01*
X227888258Y-112087492D01*
X227714535Y-112180349D01*
X227526034Y-112237530D01*
X227526033Y-112237530D01*
X227526030Y-112237531D01*
X227379124Y-112252000D01*
X227280876Y-112252000D01*
X227133970Y-112237531D01*
X227133967Y-112237530D01*
X227133966Y-112237530D01*
X226945465Y-112180349D01*
X226771742Y-112087492D01*
X226771740Y-112087491D01*
X226619472Y-111962528D01*
X226494509Y-111810260D01*
X226401652Y-111636537D01*
X226344469Y-111448030D01*
X226325162Y-111252000D01*
X226344469Y-111055970D01*
X226401652Y-110867463D01*
X226494509Y-110693740D01*
X226619472Y-110541472D01*
X226771740Y-110416509D01*
X226945463Y-110323652D01*
X226945465Y-110323651D01*
X227133966Y-110266470D01*
X227133967Y-110266470D01*
X227133970Y-110266469D01*
X227280876Y-110252000D01*
X227379124Y-110252000D01*
X227526030Y-110266469D01*
X227526030Y-110266469D01*
G37*
G36*
X232606030Y-110266469D02*
X232606033Y-110266470D01*
X232606034Y-110266470D01*
X232794535Y-110323651D01*
X232794537Y-110323652D01*
X232968260Y-110416509D01*
X233120528Y-110541472D01*
X233245491Y-110693740D01*
X233338348Y-110867463D01*
X233395531Y-111055970D01*
X233414838Y-111252000D01*
X233395531Y-111448030D01*
X233338348Y-111636537D01*
X233245491Y-111810260D01*
X233120528Y-111962528D01*
X232968260Y-112087491D01*
X232968258Y-112087492D01*
X232794535Y-112180349D01*
X232606034Y-112237530D01*
X232606033Y-112237530D01*
X232606030Y-112237531D01*
X232459124Y-112252000D01*
X232360876Y-112252000D01*
X232213970Y-112237531D01*
X232213967Y-112237530D01*
X232213966Y-112237530D01*
X232025465Y-112180349D01*
X231851742Y-112087492D01*
X231851740Y-112087491D01*
X231699472Y-111962528D01*
X231574509Y-111810260D01*
X231481652Y-111636537D01*
X231424469Y-111448030D01*
X231405162Y-111252000D01*
X231424469Y-111055970D01*
X231481652Y-110867463D01*
X231574509Y-110693740D01*
X231699472Y-110541472D01*
X231851740Y-110416509D01*
X232025463Y-110323652D01*
X232025465Y-110323651D01*
X232213966Y-110266470D01*
X232213967Y-110266470D01*
X232213970Y-110266469D01*
X232360876Y-110252000D01*
X232459124Y-110252000D01*
X232606030Y-110266469D01*
X232606030Y-110266469D01*
G37*
G36*
X217366030Y-110266469D02*
X217366033Y-110266470D01*
X217366034Y-110266470D01*
X217554535Y-110323651D01*
X217554537Y-110323652D01*
X217728260Y-110416509D01*
X217880528Y-110541472D01*
X218005491Y-110693740D01*
X218098348Y-110867463D01*
X218155531Y-111055970D01*
X218174838Y-111252000D01*
X218155531Y-111448030D01*
X218098348Y-111636537D01*
X218005491Y-111810260D01*
X217880528Y-111962528D01*
X217728260Y-112087491D01*
X217728258Y-112087492D01*
X217554535Y-112180349D01*
X217366034Y-112237530D01*
X217366033Y-112237530D01*
X217366030Y-112237531D01*
X217219124Y-112252000D01*
X217120876Y-112252000D01*
X216973970Y-112237531D01*
X216973967Y-112237530D01*
X216973966Y-112237530D01*
X216785465Y-112180349D01*
X216611742Y-112087492D01*
X216611740Y-112087491D01*
X216459472Y-111962528D01*
X216334509Y-111810260D01*
X216241652Y-111636537D01*
X216184469Y-111448030D01*
X216165162Y-111252000D01*
X216184469Y-111055970D01*
X216241652Y-110867463D01*
X216334509Y-110693740D01*
X216459472Y-110541472D01*
X216611740Y-110416509D01*
X216785463Y-110323652D01*
X216785465Y-110323651D01*
X216973966Y-110266470D01*
X216973967Y-110266470D01*
X216973970Y-110266469D01*
X217120876Y-110252000D01*
X217219124Y-110252000D01*
X217366030Y-110266469D01*
X217366030Y-110266469D01*
G37*
G36*
X179965716Y-99992544D02*
X180366090Y-100158384D01*
X180726421Y-100399150D01*
X181032850Y-100705579D01*
X181273616Y-101065910D01*
X181439456Y-101466284D01*
X181524000Y-101891317D01*
X181524000Y-102324683D01*
X181439456Y-102749716D01*
X181273616Y-103150090D01*
X181032850Y-103510421D01*
X180726421Y-103816850D01*
X180366090Y-104057616D01*
X179965716Y-104223456D01*
X179540683Y-104308000D01*
X179107317Y-104308000D01*
X178682284Y-104223456D01*
X178281910Y-104057616D01*
X177921579Y-103816850D01*
X177615150Y-103510421D01*
X177374384Y-103150090D01*
X177208544Y-102749716D01*
X177124000Y-102324683D01*
X177124000Y-101891317D01*
X177208544Y-101466284D01*
X177374384Y-101065910D01*
X177615150Y-100705579D01*
X177921579Y-100399150D01*
X178281910Y-100158384D01*
X178682284Y-99992544D01*
X179107317Y-99908000D01*
X179540683Y-99908000D01*
X179965716Y-99992544D01*
X179965716Y-99992544D01*
G37*
G36*
X256165716Y-99992544D02*
X256566090Y-100158384D01*
X256926421Y-100399150D01*
X257232850Y-100705579D01*
X257473616Y-101065910D01*
X257639456Y-101466284D01*
X257724000Y-101891317D01*
X257724000Y-102324683D01*
X257639456Y-102749716D01*
X257473616Y-103150090D01*
X257232850Y-103510421D01*
X256926421Y-103816850D01*
X256566090Y-104057616D01*
X256165716Y-104223456D01*
X255740683Y-104308000D01*
X255307317Y-104308000D01*
X254882284Y-104223456D01*
X254481910Y-104057616D01*
X254121579Y-103816850D01*
X253815150Y-103510421D01*
X253574384Y-103150090D01*
X253408544Y-102749716D01*
X253324000Y-102324683D01*
X253324000Y-101891317D01*
X253408544Y-101466284D01*
X253574384Y-101065910D01*
X253815150Y-100705579D01*
X254121579Y-100399150D01*
X254481910Y-100158384D01*
X254882284Y-99992544D01*
X255307317Y-99908000D01*
X255740683Y-99908000D01*
X256165716Y-99992544D01*
X256165716Y-99992544D01*
G37*
G36*
X174369888Y-101062470D02*
X174550274Y-101098350D01*
X174741362Y-101177502D01*
X174913336Y-101292411D01*
X175059589Y-101438664D01*
X175174498Y-101610638D01*
X175253650Y-101801726D01*
X175294000Y-102004584D01*
X175294000Y-102211416D01*
X175253650Y-102414274D01*
X175174498Y-102605362D01*
X175059589Y-102777336D01*
X174913336Y-102923589D01*
X174741362Y-103038498D01*
X174550274Y-103117650D01*
X174369888Y-103153530D01*
X174347417Y-103158000D01*
X174140583Y-103158000D01*
X174118112Y-103153530D01*
X173937726Y-103117650D01*
X173746638Y-103038498D01*
X173574664Y-102923589D01*
X173428411Y-102777336D01*
X173313502Y-102605362D01*
X173234350Y-102414274D01*
X173194000Y-102211416D01*
X173194000Y-102004584D01*
X173234350Y-101801726D01*
X173313502Y-101610638D01*
X173428411Y-101438664D01*
X173574664Y-101292411D01*
X173746638Y-101177502D01*
X173937726Y-101098350D01*
X174118112Y-101062470D01*
X174140583Y-101058000D01*
X174347417Y-101058000D01*
X174369888Y-101062470D01*
X174369888Y-101062470D01*
G37*
G36*
X184529888Y-101062470D02*
X184710274Y-101098350D01*
X184901362Y-101177502D01*
X185073336Y-101292411D01*
X185219589Y-101438664D01*
X185334498Y-101610638D01*
X185413650Y-101801726D01*
X185454000Y-102004584D01*
X185454000Y-102211416D01*
X185413650Y-102414274D01*
X185334498Y-102605362D01*
X185219589Y-102777336D01*
X185073336Y-102923589D01*
X184901362Y-103038498D01*
X184710274Y-103117650D01*
X184529888Y-103153530D01*
X184507417Y-103158000D01*
X184300583Y-103158000D01*
X184278112Y-103153530D01*
X184097726Y-103117650D01*
X183906638Y-103038498D01*
X183734664Y-102923589D01*
X183588411Y-102777336D01*
X183473502Y-102605362D01*
X183394350Y-102414274D01*
X183354000Y-102211416D01*
X183354000Y-102004584D01*
X183394350Y-101801726D01*
X183473502Y-101610638D01*
X183588411Y-101438664D01*
X183734664Y-101292411D01*
X183906638Y-101177502D01*
X184097726Y-101098350D01*
X184278112Y-101062470D01*
X184300583Y-101058000D01*
X184507417Y-101058000D01*
X184529888Y-101062470D01*
X184529888Y-101062470D01*
G37*
G36*
X250569888Y-101062470D02*
X250750274Y-101098350D01*
X250941362Y-101177502D01*
X251113336Y-101292411D01*
X251259589Y-101438664D01*
X251374498Y-101610638D01*
X251453650Y-101801726D01*
X251494000Y-102004584D01*
X251494000Y-102211416D01*
X251453650Y-102414274D01*
X251374498Y-102605362D01*
X251259589Y-102777336D01*
X251113336Y-102923589D01*
X250941362Y-103038498D01*
X250750274Y-103117650D01*
X250569888Y-103153530D01*
X250547417Y-103158000D01*
X250340583Y-103158000D01*
X250318112Y-103153530D01*
X250137726Y-103117650D01*
X249946638Y-103038498D01*
X249774664Y-102923589D01*
X249628411Y-102777336D01*
X249513502Y-102605362D01*
X249434350Y-102414274D01*
X249394000Y-102211416D01*
X249394000Y-102004584D01*
X249434350Y-101801726D01*
X249513502Y-101610638D01*
X249628411Y-101438664D01*
X249774664Y-101292411D01*
X249946638Y-101177502D01*
X250137726Y-101098350D01*
X250318112Y-101062470D01*
X250340583Y-101058000D01*
X250547417Y-101058000D01*
X250569888Y-101062470D01*
X250569888Y-101062470D01*
G37*
G36*
X260729888Y-101062470D02*
X260910274Y-101098350D01*
X261101362Y-101177502D01*
X261273336Y-101292411D01*
X261419589Y-101438664D01*
X261534498Y-101610638D01*
X261613650Y-101801726D01*
X261654000Y-102004584D01*
X261654000Y-102211416D01*
X261613650Y-102414274D01*
X261534498Y-102605362D01*
X261419589Y-102777336D01*
X261273336Y-102923589D01*
X261101362Y-103038498D01*
X260910274Y-103117650D01*
X260729888Y-103153530D01*
X260707417Y-103158000D01*
X260500583Y-103158000D01*
X260478112Y-103153530D01*
X260297726Y-103117650D01*
X260106638Y-103038498D01*
X259934664Y-102923589D01*
X259788411Y-102777336D01*
X259673502Y-102605362D01*
X259594350Y-102414274D01*
X259554000Y-102211416D01*
X259554000Y-102004584D01*
X259594350Y-101801726D01*
X259673502Y-101610638D01*
X259788411Y-101438664D01*
X259934664Y-101292411D01*
X260106638Y-101177502D01*
X260297726Y-101098350D01*
X260478112Y-101062470D01*
X260500583Y-101058000D01*
X260707417Y-101058000D01*
X260729888Y-101062470D01*
X260729888Y-101062470D01*
G37*
G36*
X199015716Y-97452544D02*
X199416090Y-97618384D01*
X199776421Y-97859150D01*
X200082850Y-98165579D01*
X200323616Y-98525910D01*
X200489456Y-98926284D01*
X200574000Y-99351317D01*
X200574000Y-99784683D01*
X200489456Y-100209716D01*
X200323616Y-100610090D01*
X200082850Y-100970421D01*
X199776421Y-101276850D01*
X199416090Y-101517616D01*
X199015716Y-101683456D01*
X198590683Y-101768000D01*
X198157317Y-101768000D01*
X197732284Y-101683456D01*
X197331910Y-101517616D01*
X196971579Y-101276850D01*
X196665150Y-100970421D01*
X196424384Y-100610090D01*
X196258544Y-100209716D01*
X196174000Y-99784683D01*
X196174000Y-99351317D01*
X196258544Y-98926284D01*
X196424384Y-98525910D01*
X196665150Y-98165579D01*
X196971579Y-97859150D01*
X197331910Y-97618384D01*
X197732284Y-97452544D01*
X198157317Y-97368000D01*
X198590683Y-97368000D01*
X199015716Y-97452544D01*
X199015716Y-97452544D01*
G37*
G36*
X237115716Y-97452544D02*
X237516090Y-97618384D01*
X237876421Y-97859150D01*
X238182850Y-98165579D01*
X238423616Y-98525910D01*
X238589456Y-98926284D01*
X238674000Y-99351317D01*
X238674000Y-99784683D01*
X238589456Y-100209716D01*
X238423616Y-100610090D01*
X238182850Y-100970421D01*
X237876421Y-101276850D01*
X237516090Y-101517616D01*
X237115716Y-101683456D01*
X236690683Y-101768000D01*
X236257317Y-101768000D01*
X235832284Y-101683456D01*
X235431910Y-101517616D01*
X235071579Y-101276850D01*
X234765150Y-100970421D01*
X234524384Y-100610090D01*
X234358544Y-100209716D01*
X234274000Y-99784683D01*
X234274000Y-99351317D01*
X234358544Y-98926284D01*
X234524384Y-98525910D01*
X234765150Y-98165579D01*
X235071579Y-97859150D01*
X235431910Y-97618384D01*
X235832284Y-97452544D01*
X236257317Y-97368000D01*
X236690683Y-97368000D01*
X237115716Y-97452544D01*
X237115716Y-97452544D01*
G37*
G36*
X252093196Y-98317958D02*
X252329780Y-98415954D01*
X252542705Y-98558226D01*
X252723774Y-98739295D01*
X252866046Y-98952220D01*
X252964042Y-99188804D01*
X253014000Y-99439960D01*
X253014000Y-99696040D01*
X252964042Y-99947196D01*
X252866046Y-100183780D01*
X252723774Y-100396705D01*
X252542705Y-100577774D01*
X252329780Y-100720046D01*
X252093196Y-100818042D01*
X251842040Y-100868000D01*
X251585960Y-100868000D01*
X251334804Y-100818042D01*
X251098220Y-100720046D01*
X250885295Y-100577774D01*
X250704226Y-100396705D01*
X250561954Y-100183780D01*
X250463958Y-99947196D01*
X250414000Y-99696040D01*
X250414000Y-99439960D01*
X250463958Y-99188804D01*
X250561954Y-98952220D01*
X250704226Y-98739295D01*
X250885295Y-98558226D01*
X251098220Y-98415954D01*
X251334804Y-98317958D01*
X251585960Y-98268000D01*
X251842040Y-98268000D01*
X252093196Y-98317958D01*
X252093196Y-98317958D01*
G37*
G36*
X175893196Y-98317958D02*
X176129780Y-98415954D01*
X176342705Y-98558226D01*
X176523774Y-98739295D01*
X176666046Y-98952220D01*
X176764042Y-99188804D01*
X176814000Y-99439960D01*
X176814000Y-99696040D01*
X176764042Y-99947196D01*
X176666046Y-100183780D01*
X176523774Y-100396705D01*
X176342705Y-100577774D01*
X176129780Y-100720046D01*
X175893196Y-100818042D01*
X175642040Y-100868000D01*
X175385960Y-100868000D01*
X175134804Y-100818042D01*
X174898220Y-100720046D01*
X174685295Y-100577774D01*
X174504226Y-100396705D01*
X174361954Y-100183780D01*
X174263958Y-99947196D01*
X174214000Y-99696040D01*
X174214000Y-99439960D01*
X174263958Y-99188804D01*
X174361954Y-98952220D01*
X174504226Y-98739295D01*
X174685295Y-98558226D01*
X174898220Y-98415954D01*
X175134804Y-98317958D01*
X175385960Y-98268000D01*
X175642040Y-98268000D01*
X175893196Y-98317958D01*
X175893196Y-98317958D01*
G37*
G36*
X193419888Y-98522470D02*
X193600274Y-98558350D01*
X193791362Y-98637502D01*
X193963336Y-98752411D01*
X194109589Y-98898664D01*
X194224498Y-99070638D01*
X194303650Y-99261726D01*
X194344000Y-99464584D01*
X194344000Y-99671416D01*
X194303650Y-99874274D01*
X194224498Y-100065362D01*
X194109589Y-100237336D01*
X193963336Y-100383589D01*
X193791362Y-100498498D01*
X193600274Y-100577650D01*
X193419888Y-100613530D01*
X193397417Y-100618000D01*
X193190583Y-100618000D01*
X193168112Y-100613530D01*
X192987726Y-100577650D01*
X192796638Y-100498498D01*
X192624664Y-100383589D01*
X192478411Y-100237336D01*
X192363502Y-100065362D01*
X192284350Y-99874274D01*
X192244000Y-99671416D01*
X192244000Y-99464584D01*
X192284350Y-99261726D01*
X192363502Y-99070638D01*
X192478411Y-98898664D01*
X192624664Y-98752411D01*
X192796638Y-98637502D01*
X192987726Y-98558350D01*
X193168112Y-98522470D01*
X193190583Y-98518000D01*
X193397417Y-98518000D01*
X193419888Y-98522470D01*
X193419888Y-98522470D01*
G37*
G36*
X203579888Y-98522470D02*
X203760274Y-98558350D01*
X203951362Y-98637502D01*
X204123336Y-98752411D01*
X204269589Y-98898664D01*
X204384498Y-99070638D01*
X204463650Y-99261726D01*
X204504000Y-99464584D01*
X204504000Y-99671416D01*
X204463650Y-99874274D01*
X204384498Y-100065362D01*
X204269589Y-100237336D01*
X204123336Y-100383589D01*
X203951362Y-100498498D01*
X203760274Y-100577650D01*
X203579888Y-100613530D01*
X203557417Y-100618000D01*
X203350583Y-100618000D01*
X203328112Y-100613530D01*
X203147726Y-100577650D01*
X202956638Y-100498498D01*
X202784664Y-100383589D01*
X202638411Y-100237336D01*
X202523502Y-100065362D01*
X202444350Y-99874274D01*
X202404000Y-99671416D01*
X202404000Y-99464584D01*
X202444350Y-99261726D01*
X202523502Y-99070638D01*
X202638411Y-98898664D01*
X202784664Y-98752411D01*
X202956638Y-98637502D01*
X203147726Y-98558350D01*
X203328112Y-98522470D01*
X203350583Y-98518000D01*
X203557417Y-98518000D01*
X203579888Y-98522470D01*
X203579888Y-98522470D01*
G37*
G36*
X231519888Y-98522470D02*
X231700274Y-98558350D01*
X231891362Y-98637502D01*
X232063336Y-98752411D01*
X232209589Y-98898664D01*
X232324498Y-99070638D01*
X232403650Y-99261726D01*
X232444000Y-99464584D01*
X232444000Y-99671416D01*
X232403650Y-99874274D01*
X232324498Y-100065362D01*
X232209589Y-100237336D01*
X232063336Y-100383589D01*
X231891362Y-100498498D01*
X231700274Y-100577650D01*
X231519888Y-100613530D01*
X231497417Y-100618000D01*
X231290583Y-100618000D01*
X231268112Y-100613530D01*
X231087726Y-100577650D01*
X230896638Y-100498498D01*
X230724664Y-100383589D01*
X230578411Y-100237336D01*
X230463502Y-100065362D01*
X230384350Y-99874274D01*
X230344000Y-99671416D01*
X230344000Y-99464584D01*
X230384350Y-99261726D01*
X230463502Y-99070638D01*
X230578411Y-98898664D01*
X230724664Y-98752411D01*
X230896638Y-98637502D01*
X231087726Y-98558350D01*
X231268112Y-98522470D01*
X231290583Y-98518000D01*
X231497417Y-98518000D01*
X231519888Y-98522470D01*
X231519888Y-98522470D01*
G37*
G36*
X241679888Y-98522470D02*
X241860274Y-98558350D01*
X242051362Y-98637502D01*
X242223336Y-98752411D01*
X242369589Y-98898664D01*
X242484498Y-99070638D01*
X242563650Y-99261726D01*
X242604000Y-99464584D01*
X242604000Y-99671416D01*
X242563650Y-99874274D01*
X242484498Y-100065362D01*
X242369589Y-100237336D01*
X242223336Y-100383589D01*
X242051362Y-100498498D01*
X241860274Y-100577650D01*
X241679888Y-100613530D01*
X241657417Y-100618000D01*
X241450583Y-100618000D01*
X241428112Y-100613530D01*
X241247726Y-100577650D01*
X241056638Y-100498498D01*
X240884664Y-100383589D01*
X240738411Y-100237336D01*
X240623502Y-100065362D01*
X240544350Y-99874274D01*
X240504000Y-99671416D01*
X240504000Y-99464584D01*
X240544350Y-99261726D01*
X240623502Y-99070638D01*
X240738411Y-98898664D01*
X240884664Y-98752411D01*
X241056638Y-98637502D01*
X241247726Y-98558350D01*
X241428112Y-98522470D01*
X241450583Y-98518000D01*
X241657417Y-98518000D01*
X241679888Y-98522470D01*
X241679888Y-98522470D01*
G37*
G36*
X218065716Y-94912544D02*
X218466090Y-95078384D01*
X218826421Y-95319150D01*
X219132850Y-95625579D01*
X219373616Y-95985910D01*
X219539456Y-96386284D01*
X219624000Y-96811317D01*
X219624000Y-97244683D01*
X219539456Y-97669716D01*
X219373616Y-98070090D01*
X219132850Y-98430421D01*
X218826421Y-98736850D01*
X218466090Y-98977616D01*
X218065716Y-99143456D01*
X217640683Y-99228000D01*
X217207317Y-99228000D01*
X216782284Y-99143456D01*
X216381910Y-98977616D01*
X216021579Y-98736850D01*
X215715150Y-98430421D01*
X215474384Y-98070090D01*
X215308544Y-97669716D01*
X215224000Y-97244683D01*
X215224000Y-96811317D01*
X215308544Y-96386284D01*
X215474384Y-95985910D01*
X215715150Y-95625579D01*
X216021579Y-95319150D01*
X216381910Y-95078384D01*
X216782284Y-94912544D01*
X217207317Y-94828000D01*
X217640683Y-94828000D01*
X218065716Y-94912544D01*
X218065716Y-94912544D01*
G37*
G36*
X194943196Y-95777958D02*
X195179780Y-95875954D01*
X195392705Y-96018226D01*
X195573774Y-96199295D01*
X195716046Y-96412220D01*
X195814042Y-96648804D01*
X195864000Y-96899960D01*
X195864000Y-97156040D01*
X195814042Y-97407196D01*
X195716046Y-97643780D01*
X195573774Y-97856705D01*
X195392705Y-98037774D01*
X195179780Y-98180046D01*
X194943196Y-98278042D01*
X194692040Y-98328000D01*
X194435960Y-98328000D01*
X194184804Y-98278042D01*
X193948220Y-98180046D01*
X193735295Y-98037774D01*
X193554226Y-97856705D01*
X193411954Y-97643780D01*
X193313958Y-97407196D01*
X193264000Y-97156040D01*
X193264000Y-96899960D01*
X193313958Y-96648804D01*
X193411954Y-96412220D01*
X193554226Y-96199295D01*
X193735295Y-96018226D01*
X193948220Y-95875954D01*
X194184804Y-95777958D01*
X194435960Y-95728000D01*
X194692040Y-95728000D01*
X194943196Y-95777958D01*
X194943196Y-95777958D01*
G37*
G36*
X182243196Y-95777958D02*
X182479780Y-95875954D01*
X182692705Y-96018226D01*
X182873774Y-96199295D01*
X183016046Y-96412220D01*
X183114042Y-96648804D01*
X183164000Y-96899960D01*
X183164000Y-97156040D01*
X183114042Y-97407196D01*
X183016046Y-97643780D01*
X182873774Y-97856705D01*
X182692705Y-98037774D01*
X182479780Y-98180046D01*
X182243196Y-98278042D01*
X181992040Y-98328000D01*
X181735960Y-98328000D01*
X181484804Y-98278042D01*
X181248220Y-98180046D01*
X181035295Y-98037774D01*
X180854226Y-97856705D01*
X180711954Y-97643780D01*
X180613958Y-97407196D01*
X180564000Y-97156040D01*
X180564000Y-96899960D01*
X180613958Y-96648804D01*
X180711954Y-96412220D01*
X180854226Y-96199295D01*
X181035295Y-96018226D01*
X181248220Y-95875954D01*
X181484804Y-95777958D01*
X181735960Y-95728000D01*
X181992040Y-95728000D01*
X182243196Y-95777958D01*
X182243196Y-95777958D01*
G37*
G36*
X258443196Y-95777958D02*
X258679780Y-95875954D01*
X258892705Y-96018226D01*
X259073774Y-96199295D01*
X259216046Y-96412220D01*
X259314042Y-96648804D01*
X259364000Y-96899960D01*
X259364000Y-97156040D01*
X259314042Y-97407196D01*
X259216046Y-97643780D01*
X259073774Y-97856705D01*
X258892705Y-98037774D01*
X258679780Y-98180046D01*
X258443196Y-98278042D01*
X258192040Y-98328000D01*
X257935960Y-98328000D01*
X257684804Y-98278042D01*
X257448220Y-98180046D01*
X257235295Y-98037774D01*
X257054226Y-97856705D01*
X256911954Y-97643780D01*
X256813958Y-97407196D01*
X256764000Y-97156040D01*
X256764000Y-96899960D01*
X256813958Y-96648804D01*
X256911954Y-96412220D01*
X257054226Y-96199295D01*
X257235295Y-96018226D01*
X257448220Y-95875954D01*
X257684804Y-95777958D01*
X257935960Y-95728000D01*
X258192040Y-95728000D01*
X258443196Y-95777958D01*
X258443196Y-95777958D01*
G37*
G36*
X233043196Y-95777958D02*
X233279780Y-95875954D01*
X233492705Y-96018226D01*
X233673774Y-96199295D01*
X233816046Y-96412220D01*
X233914042Y-96648804D01*
X233964000Y-96899960D01*
X233964000Y-97156040D01*
X233914042Y-97407196D01*
X233816046Y-97643780D01*
X233673774Y-97856705D01*
X233492705Y-98037774D01*
X233279780Y-98180046D01*
X233043196Y-98278042D01*
X232792040Y-98328000D01*
X232535960Y-98328000D01*
X232284804Y-98278042D01*
X232048220Y-98180046D01*
X231835295Y-98037774D01*
X231654226Y-97856705D01*
X231511954Y-97643780D01*
X231413958Y-97407196D01*
X231364000Y-97156040D01*
X231364000Y-96899960D01*
X231413958Y-96648804D01*
X231511954Y-96412220D01*
X231654226Y-96199295D01*
X231835295Y-96018226D01*
X232048220Y-95875954D01*
X232284804Y-95777958D01*
X232535960Y-95728000D01*
X232792040Y-95728000D01*
X233043196Y-95777958D01*
X233043196Y-95777958D01*
G37*
G36*
X222629888Y-95982470D02*
X222810274Y-96018350D01*
X223001362Y-96097502D01*
X223173336Y-96212411D01*
X223319589Y-96358664D01*
X223434498Y-96530638D01*
X223513650Y-96721726D01*
X223554000Y-96924584D01*
X223554000Y-97131416D01*
X223513650Y-97334274D01*
X223434498Y-97525362D01*
X223319589Y-97697336D01*
X223173336Y-97843589D01*
X223001362Y-97958498D01*
X222810274Y-98037650D01*
X222629888Y-98073530D01*
X222607417Y-98078000D01*
X222400583Y-98078000D01*
X222378112Y-98073530D01*
X222197726Y-98037650D01*
X222006638Y-97958498D01*
X221834664Y-97843589D01*
X221688411Y-97697336D01*
X221573502Y-97525362D01*
X221494350Y-97334274D01*
X221454000Y-97131416D01*
X221454000Y-96924584D01*
X221494350Y-96721726D01*
X221573502Y-96530638D01*
X221688411Y-96358664D01*
X221834664Y-96212411D01*
X222006638Y-96097502D01*
X222197726Y-96018350D01*
X222378112Y-95982470D01*
X222400583Y-95978000D01*
X222607417Y-95978000D01*
X222629888Y-95982470D01*
X222629888Y-95982470D01*
G37*
G36*
X212469888Y-95982470D02*
X212650274Y-96018350D01*
X212841362Y-96097502D01*
X213013336Y-96212411D01*
X213159589Y-96358664D01*
X213274498Y-96530638D01*
X213353650Y-96721726D01*
X213394000Y-96924584D01*
X213394000Y-97131416D01*
X213353650Y-97334274D01*
X213274498Y-97525362D01*
X213159589Y-97697336D01*
X213013336Y-97843589D01*
X212841362Y-97958498D01*
X212650274Y-98037650D01*
X212469888Y-98073530D01*
X212447417Y-98078000D01*
X212240583Y-98078000D01*
X212218112Y-98073530D01*
X212037726Y-98037650D01*
X211846638Y-97958498D01*
X211674664Y-97843589D01*
X211528411Y-97697336D01*
X211413502Y-97525362D01*
X211334350Y-97334274D01*
X211294000Y-97131416D01*
X211294000Y-96924584D01*
X211334350Y-96721726D01*
X211413502Y-96530638D01*
X211528411Y-96358664D01*
X211674664Y-96212411D01*
X211846638Y-96097502D01*
X212037726Y-96018350D01*
X212218112Y-95982470D01*
X212240583Y-95978000D01*
X212447417Y-95978000D01*
X212469888Y-95982470D01*
X212469888Y-95982470D01*
G37*
G36*
X239393196Y-93237958D02*
X239629780Y-93335954D01*
X239842705Y-93478226D01*
X240023774Y-93659295D01*
X240166046Y-93872220D01*
X240264042Y-94108804D01*
X240314000Y-94359960D01*
X240314000Y-94616040D01*
X240264042Y-94867196D01*
X240166046Y-95103780D01*
X240023774Y-95316705D01*
X239842705Y-95497774D01*
X239629780Y-95640046D01*
X239393196Y-95738042D01*
X239142040Y-95788000D01*
X238885960Y-95788000D01*
X238634804Y-95738042D01*
X238398220Y-95640046D01*
X238185295Y-95497774D01*
X238004226Y-95316705D01*
X237861954Y-95103780D01*
X237763958Y-94867196D01*
X237714000Y-94616040D01*
X237714000Y-94359960D01*
X237763958Y-94108804D01*
X237861954Y-93872220D01*
X238004226Y-93659295D01*
X238185295Y-93478226D01*
X238398220Y-93335954D01*
X238634804Y-93237958D01*
X238885960Y-93188000D01*
X239142040Y-93188000D01*
X239393196Y-93237958D01*
X239393196Y-93237958D01*
G37*
G36*
X213993196Y-93237958D02*
X214229780Y-93335954D01*
X214442705Y-93478226D01*
X214623774Y-93659295D01*
X214766046Y-93872220D01*
X214864042Y-94108804D01*
X214914000Y-94359960D01*
X214914000Y-94616040D01*
X214864042Y-94867196D01*
X214766046Y-95103780D01*
X214623774Y-95316705D01*
X214442705Y-95497774D01*
X214229780Y-95640046D01*
X213993196Y-95738042D01*
X213742040Y-95788000D01*
X213485960Y-95788000D01*
X213234804Y-95738042D01*
X212998220Y-95640046D01*
X212785295Y-95497774D01*
X212604226Y-95316705D01*
X212461954Y-95103780D01*
X212363958Y-94867196D01*
X212314000Y-94616040D01*
X212314000Y-94359960D01*
X212363958Y-94108804D01*
X212461954Y-93872220D01*
X212604226Y-93659295D01*
X212785295Y-93478226D01*
X212998220Y-93335954D01*
X213234804Y-93237958D01*
X213485960Y-93188000D01*
X213742040Y-93188000D01*
X213993196Y-93237958D01*
X213993196Y-93237958D01*
G37*
G36*
X201293196Y-93237958D02*
X201529780Y-93335954D01*
X201742705Y-93478226D01*
X201923774Y-93659295D01*
X202066046Y-93872220D01*
X202164042Y-94108804D01*
X202214000Y-94359960D01*
X202214000Y-94616040D01*
X202164042Y-94867196D01*
X202066046Y-95103780D01*
X201923774Y-95316705D01*
X201742705Y-95497774D01*
X201529780Y-95640046D01*
X201293196Y-95738042D01*
X201042040Y-95788000D01*
X200785960Y-95788000D01*
X200534804Y-95738042D01*
X200298220Y-95640046D01*
X200085295Y-95497774D01*
X199904226Y-95316705D01*
X199761954Y-95103780D01*
X199663958Y-94867196D01*
X199614000Y-94616040D01*
X199614000Y-94359960D01*
X199663958Y-94108804D01*
X199761954Y-93872220D01*
X199904226Y-93659295D01*
X200085295Y-93478226D01*
X200298220Y-93335954D01*
X200534804Y-93237958D01*
X200785960Y-93188000D01*
X201042040Y-93188000D01*
X201293196Y-93237958D01*
X201293196Y-93237958D01*
G37*
G36*
X220343196Y-90697958D02*
X220579780Y-90795954D01*
X220792705Y-90938226D01*
X220973774Y-91119295D01*
X221116046Y-91332220D01*
X221214042Y-91568804D01*
X221264000Y-91819960D01*
X221264000Y-92076040D01*
X221214042Y-92327196D01*
X221116046Y-92563780D01*
X220973774Y-92776705D01*
X220792705Y-92957774D01*
X220579780Y-93100046D01*
X220343196Y-93198042D01*
X220092040Y-93248000D01*
X219835960Y-93248000D01*
X219584804Y-93198042D01*
X219348220Y-93100046D01*
X219135295Y-92957774D01*
X218954226Y-92776705D01*
X218811954Y-92563780D01*
X218713958Y-92327196D01*
X218664000Y-92076040D01*
X218664000Y-91819960D01*
X218713958Y-91568804D01*
X218811954Y-91332220D01*
X218954226Y-91119295D01*
X219135295Y-90938226D01*
X219348220Y-90795954D01*
X219584804Y-90697958D01*
X219835960Y-90648000D01*
X220092040Y-90648000D01*
X220343196Y-90697958D01*
X220343196Y-90697958D01*
G37*
G36*
X179965716Y-80942544D02*
X180366090Y-81108384D01*
X180726421Y-81349150D01*
X181032850Y-81655579D01*
X181273616Y-82015910D01*
X181439456Y-82416284D01*
X181524000Y-82841317D01*
X181524000Y-83274683D01*
X181439456Y-83699716D01*
X181273616Y-84100090D01*
X181032850Y-84460421D01*
X180726421Y-84766850D01*
X180366090Y-85007616D01*
X179965716Y-85173456D01*
X179540683Y-85258000D01*
X179107317Y-85258000D01*
X178682284Y-85173456D01*
X178281910Y-85007616D01*
X177921579Y-84766850D01*
X177615150Y-84460421D01*
X177374384Y-84100090D01*
X177208544Y-83699716D01*
X177124000Y-83274683D01*
X177124000Y-82841317D01*
X177208544Y-82416284D01*
X177374384Y-82015910D01*
X177615150Y-81655579D01*
X177921579Y-81349150D01*
X178281910Y-81108384D01*
X178682284Y-80942544D01*
X179107317Y-80858000D01*
X179540683Y-80858000D01*
X179965716Y-80942544D01*
X179965716Y-80942544D01*
G37*
G36*
X256165716Y-80942544D02*
X256566090Y-81108384D01*
X256926421Y-81349150D01*
X257232850Y-81655579D01*
X257473616Y-82015910D01*
X257639456Y-82416284D01*
X257724000Y-82841317D01*
X257724000Y-83274683D01*
X257639456Y-83699716D01*
X257473616Y-84100090D01*
X257232850Y-84460421D01*
X256926421Y-84766850D01*
X256566090Y-85007616D01*
X256165716Y-85173456D01*
X255740683Y-85258000D01*
X255307317Y-85258000D01*
X254882284Y-85173456D01*
X254481910Y-85007616D01*
X254121579Y-84766850D01*
X253815150Y-84460421D01*
X253574384Y-84100090D01*
X253408544Y-83699716D01*
X253324000Y-83274683D01*
X253324000Y-82841317D01*
X253408544Y-82416284D01*
X253574384Y-82015910D01*
X253815150Y-81655579D01*
X254121579Y-81349150D01*
X254481910Y-81108384D01*
X254882284Y-80942544D01*
X255307317Y-80858000D01*
X255740683Y-80858000D01*
X256165716Y-80942544D01*
X256165716Y-80942544D01*
G37*
G36*
X260729888Y-82012470D02*
X260910274Y-82048350D01*
X261101362Y-82127502D01*
X261273336Y-82242411D01*
X261419589Y-82388664D01*
X261534498Y-82560638D01*
X261613650Y-82751726D01*
X261654000Y-82954584D01*
X261654000Y-83161416D01*
X261613650Y-83364274D01*
X261534498Y-83555362D01*
X261419589Y-83727336D01*
X261273336Y-83873589D01*
X261101362Y-83988498D01*
X260910274Y-84067650D01*
X260729888Y-84103530D01*
X260707417Y-84108000D01*
X260500583Y-84108000D01*
X260478112Y-84103530D01*
X260297726Y-84067650D01*
X260106638Y-83988498D01*
X259934664Y-83873589D01*
X259788411Y-83727336D01*
X259673502Y-83555362D01*
X259594350Y-83364274D01*
X259554000Y-83161416D01*
X259554000Y-82954584D01*
X259594350Y-82751726D01*
X259673502Y-82560638D01*
X259788411Y-82388664D01*
X259934664Y-82242411D01*
X260106638Y-82127502D01*
X260297726Y-82048350D01*
X260478112Y-82012470D01*
X260500583Y-82008000D01*
X260707417Y-82008000D01*
X260729888Y-82012470D01*
X260729888Y-82012470D01*
G37*
G36*
X250569888Y-82012470D02*
X250750274Y-82048350D01*
X250941362Y-82127502D01*
X251113336Y-82242411D01*
X251259589Y-82388664D01*
X251374498Y-82560638D01*
X251453650Y-82751726D01*
X251494000Y-82954584D01*
X251494000Y-83161416D01*
X251453650Y-83364274D01*
X251374498Y-83555362D01*
X251259589Y-83727336D01*
X251113336Y-83873589D01*
X250941362Y-83988498D01*
X250750274Y-84067650D01*
X250569888Y-84103530D01*
X250547417Y-84108000D01*
X250340583Y-84108000D01*
X250318112Y-84103530D01*
X250137726Y-84067650D01*
X249946638Y-83988498D01*
X249774664Y-83873589D01*
X249628411Y-83727336D01*
X249513502Y-83555362D01*
X249434350Y-83364274D01*
X249394000Y-83161416D01*
X249394000Y-82954584D01*
X249434350Y-82751726D01*
X249513502Y-82560638D01*
X249628411Y-82388664D01*
X249774664Y-82242411D01*
X249946638Y-82127502D01*
X250137726Y-82048350D01*
X250318112Y-82012470D01*
X250340583Y-82008000D01*
X250547417Y-82008000D01*
X250569888Y-82012470D01*
X250569888Y-82012470D01*
G37*
G36*
X174369888Y-82012470D02*
X174550274Y-82048350D01*
X174741362Y-82127502D01*
X174913336Y-82242411D01*
X175059589Y-82388664D01*
X175174498Y-82560638D01*
X175253650Y-82751726D01*
X175294000Y-82954584D01*
X175294000Y-83161416D01*
X175253650Y-83364274D01*
X175174498Y-83555362D01*
X175059589Y-83727336D01*
X174913336Y-83873589D01*
X174741362Y-83988498D01*
X174550274Y-84067650D01*
X174369888Y-84103530D01*
X174347417Y-84108000D01*
X174140583Y-84108000D01*
X174118112Y-84103530D01*
X173937726Y-84067650D01*
X173746638Y-83988498D01*
X173574664Y-83873589D01*
X173428411Y-83727336D01*
X173313502Y-83555362D01*
X173234350Y-83364274D01*
X173194000Y-83161416D01*
X173194000Y-82954584D01*
X173234350Y-82751726D01*
X173313502Y-82560638D01*
X173428411Y-82388664D01*
X173574664Y-82242411D01*
X173746638Y-82127502D01*
X173937726Y-82048350D01*
X174118112Y-82012470D01*
X174140583Y-82008000D01*
X174347417Y-82008000D01*
X174369888Y-82012470D01*
X174369888Y-82012470D01*
G37*
G36*
X184529888Y-82012470D02*
X184710274Y-82048350D01*
X184901362Y-82127502D01*
X185073336Y-82242411D01*
X185219589Y-82388664D01*
X185334498Y-82560638D01*
X185413650Y-82751726D01*
X185454000Y-82954584D01*
X185454000Y-83161416D01*
X185413650Y-83364274D01*
X185334498Y-83555362D01*
X185219589Y-83727336D01*
X185073336Y-83873589D01*
X184901362Y-83988498D01*
X184710274Y-84067650D01*
X184529888Y-84103530D01*
X184507417Y-84108000D01*
X184300583Y-84108000D01*
X184278112Y-84103530D01*
X184097726Y-84067650D01*
X183906638Y-83988498D01*
X183734664Y-83873589D01*
X183588411Y-83727336D01*
X183473502Y-83555362D01*
X183394350Y-83364274D01*
X183354000Y-83161416D01*
X183354000Y-82954584D01*
X183394350Y-82751726D01*
X183473502Y-82560638D01*
X183588411Y-82388664D01*
X183734664Y-82242411D01*
X183906638Y-82127502D01*
X184097726Y-82048350D01*
X184278112Y-82012470D01*
X184300583Y-82008000D01*
X184507417Y-82008000D01*
X184529888Y-82012470D01*
X184529888Y-82012470D01*
G37*
G36*
X199015716Y-78402544D02*
X199416090Y-78568384D01*
X199776421Y-78809150D01*
X200082850Y-79115579D01*
X200323616Y-79475910D01*
X200489456Y-79876284D01*
X200574000Y-80301317D01*
X200574000Y-80734683D01*
X200489456Y-81159716D01*
X200323616Y-81560090D01*
X200082850Y-81920421D01*
X199776421Y-82226850D01*
X199416090Y-82467616D01*
X199015716Y-82633456D01*
X198590683Y-82718000D01*
X198157317Y-82718000D01*
X197732284Y-82633456D01*
X197331910Y-82467616D01*
X196971579Y-82226850D01*
X196665150Y-81920421D01*
X196424384Y-81560090D01*
X196258544Y-81159716D01*
X196174000Y-80734683D01*
X196174000Y-80301317D01*
X196258544Y-79876284D01*
X196424384Y-79475910D01*
X196665150Y-79115579D01*
X196971579Y-78809150D01*
X197331910Y-78568384D01*
X197732284Y-78402544D01*
X198157317Y-78318000D01*
X198590683Y-78318000D01*
X199015716Y-78402544D01*
X199015716Y-78402544D01*
G37*
G36*
X237115716Y-78402544D02*
X237516090Y-78568384D01*
X237876421Y-78809150D01*
X238182850Y-79115579D01*
X238423616Y-79475910D01*
X238589456Y-79876284D01*
X238674000Y-80301317D01*
X238674000Y-80734683D01*
X238589456Y-81159716D01*
X238423616Y-81560090D01*
X238182850Y-81920421D01*
X237876421Y-82226850D01*
X237516090Y-82467616D01*
X237115716Y-82633456D01*
X236690683Y-82718000D01*
X236257317Y-82718000D01*
X235832284Y-82633456D01*
X235431910Y-82467616D01*
X235071579Y-82226850D01*
X234765150Y-81920421D01*
X234524384Y-81560090D01*
X234358544Y-81159716D01*
X234274000Y-80734683D01*
X234274000Y-80301317D01*
X234358544Y-79876284D01*
X234524384Y-79475910D01*
X234765150Y-79115579D01*
X235071579Y-78809150D01*
X235431910Y-78568384D01*
X235832284Y-78402544D01*
X236257317Y-78318000D01*
X236690683Y-78318000D01*
X237115716Y-78402544D01*
X237115716Y-78402544D01*
G37*
G36*
X252093196Y-79267958D02*
X252329780Y-79365954D01*
X252542705Y-79508226D01*
X252723774Y-79689295D01*
X252866046Y-79902220D01*
X252964042Y-80138804D01*
X253014000Y-80389960D01*
X253014000Y-80646040D01*
X252964042Y-80897196D01*
X252866046Y-81133780D01*
X252723774Y-81346705D01*
X252542705Y-81527774D01*
X252329780Y-81670046D01*
X252093196Y-81768042D01*
X251842040Y-81818000D01*
X251585960Y-81818000D01*
X251334804Y-81768042D01*
X251098220Y-81670046D01*
X250885295Y-81527774D01*
X250704226Y-81346705D01*
X250561954Y-81133780D01*
X250463958Y-80897196D01*
X250414000Y-80646040D01*
X250414000Y-80389960D01*
X250463958Y-80138804D01*
X250561954Y-79902220D01*
X250704226Y-79689295D01*
X250885295Y-79508226D01*
X251098220Y-79365954D01*
X251334804Y-79267958D01*
X251585960Y-79218000D01*
X251842040Y-79218000D01*
X252093196Y-79267958D01*
X252093196Y-79267958D01*
G37*
G36*
X175893196Y-79267958D02*
X176129780Y-79365954D01*
X176342705Y-79508226D01*
X176523774Y-79689295D01*
X176666046Y-79902220D01*
X176764042Y-80138804D01*
X176814000Y-80389960D01*
X176814000Y-80646040D01*
X176764042Y-80897196D01*
X176666046Y-81133780D01*
X176523774Y-81346705D01*
X176342705Y-81527774D01*
X176129780Y-81670046D01*
X175893196Y-81768042D01*
X175642040Y-81818000D01*
X175385960Y-81818000D01*
X175134804Y-81768042D01*
X174898220Y-81670046D01*
X174685295Y-81527774D01*
X174504226Y-81346705D01*
X174361954Y-81133780D01*
X174263958Y-80897196D01*
X174214000Y-80646040D01*
X174214000Y-80389960D01*
X174263958Y-80138804D01*
X174361954Y-79902220D01*
X174504226Y-79689295D01*
X174685295Y-79508226D01*
X174898220Y-79365954D01*
X175134804Y-79267958D01*
X175385960Y-79218000D01*
X175642040Y-79218000D01*
X175893196Y-79267958D01*
X175893196Y-79267958D01*
G37*
G36*
X193419888Y-79472470D02*
X193600274Y-79508350D01*
X193791362Y-79587502D01*
X193963336Y-79702411D01*
X194109589Y-79848664D01*
X194224498Y-80020638D01*
X194303650Y-80211726D01*
X194344000Y-80414584D01*
X194344000Y-80621416D01*
X194303650Y-80824274D01*
X194224498Y-81015362D01*
X194109589Y-81187336D01*
X193963336Y-81333589D01*
X193791362Y-81448498D01*
X193600274Y-81527650D01*
X193419888Y-81563530D01*
X193397417Y-81568000D01*
X193190583Y-81568000D01*
X193168112Y-81563530D01*
X192987726Y-81527650D01*
X192796638Y-81448498D01*
X192624664Y-81333589D01*
X192478411Y-81187336D01*
X192363502Y-81015362D01*
X192284350Y-80824274D01*
X192244000Y-80621416D01*
X192244000Y-80414584D01*
X192284350Y-80211726D01*
X192363502Y-80020638D01*
X192478411Y-79848664D01*
X192624664Y-79702411D01*
X192796638Y-79587502D01*
X192987726Y-79508350D01*
X193168112Y-79472470D01*
X193190583Y-79468000D01*
X193397417Y-79468000D01*
X193419888Y-79472470D01*
X193419888Y-79472470D01*
G37*
G36*
X231519888Y-79472470D02*
X231700274Y-79508350D01*
X231891362Y-79587502D01*
X232063336Y-79702411D01*
X232209589Y-79848664D01*
X232324498Y-80020638D01*
X232403650Y-80211726D01*
X232444000Y-80414584D01*
X232444000Y-80621416D01*
X232403650Y-80824274D01*
X232324498Y-81015362D01*
X232209589Y-81187336D01*
X232063336Y-81333589D01*
X231891362Y-81448498D01*
X231700274Y-81527650D01*
X231519888Y-81563530D01*
X231497417Y-81568000D01*
X231290583Y-81568000D01*
X231268112Y-81563530D01*
X231087726Y-81527650D01*
X230896638Y-81448498D01*
X230724664Y-81333589D01*
X230578411Y-81187336D01*
X230463502Y-81015362D01*
X230384350Y-80824274D01*
X230344000Y-80621416D01*
X230344000Y-80414584D01*
X230384350Y-80211726D01*
X230463502Y-80020638D01*
X230578411Y-79848664D01*
X230724664Y-79702411D01*
X230896638Y-79587502D01*
X231087726Y-79508350D01*
X231268112Y-79472470D01*
X231290583Y-79468000D01*
X231497417Y-79468000D01*
X231519888Y-79472470D01*
X231519888Y-79472470D01*
G37*
G36*
X241679888Y-79472470D02*
X241860274Y-79508350D01*
X242051362Y-79587502D01*
X242223336Y-79702411D01*
X242369589Y-79848664D01*
X242484498Y-80020638D01*
X242563650Y-80211726D01*
X242604000Y-80414584D01*
X242604000Y-80621416D01*
X242563650Y-80824274D01*
X242484498Y-81015362D01*
X242369589Y-81187336D01*
X242223336Y-81333589D01*
X242051362Y-81448498D01*
X241860274Y-81527650D01*
X241679888Y-81563530D01*
X241657417Y-81568000D01*
X241450583Y-81568000D01*
X241428112Y-81563530D01*
X241247726Y-81527650D01*
X241056638Y-81448498D01*
X240884664Y-81333589D01*
X240738411Y-81187336D01*
X240623502Y-81015362D01*
X240544350Y-80824274D01*
X240504000Y-80621416D01*
X240504000Y-80414584D01*
X240544350Y-80211726D01*
X240623502Y-80020638D01*
X240738411Y-79848664D01*
X240884664Y-79702411D01*
X241056638Y-79587502D01*
X241247726Y-79508350D01*
X241428112Y-79472470D01*
X241450583Y-79468000D01*
X241657417Y-79468000D01*
X241679888Y-79472470D01*
X241679888Y-79472470D01*
G37*
G36*
X203579888Y-79472470D02*
X203760274Y-79508350D01*
X203951362Y-79587502D01*
X204123336Y-79702411D01*
X204269589Y-79848664D01*
X204384498Y-80020638D01*
X204463650Y-80211726D01*
X204504000Y-80414584D01*
X204504000Y-80621416D01*
X204463650Y-80824274D01*
X204384498Y-81015362D01*
X204269589Y-81187336D01*
X204123336Y-81333589D01*
X203951362Y-81448498D01*
X203760274Y-81527650D01*
X203579888Y-81563530D01*
X203557417Y-81568000D01*
X203350583Y-81568000D01*
X203328112Y-81563530D01*
X203147726Y-81527650D01*
X202956638Y-81448498D01*
X202784664Y-81333589D01*
X202638411Y-81187336D01*
X202523502Y-81015362D01*
X202444350Y-80824274D01*
X202404000Y-80621416D01*
X202404000Y-80414584D01*
X202444350Y-80211726D01*
X202523502Y-80020638D01*
X202638411Y-79848664D01*
X202784664Y-79702411D01*
X202956638Y-79587502D01*
X203147726Y-79508350D01*
X203328112Y-79472470D01*
X203350583Y-79468000D01*
X203557417Y-79468000D01*
X203579888Y-79472470D01*
X203579888Y-79472470D01*
G37*
G36*
X218065716Y-75862544D02*
X218466090Y-76028384D01*
X218826421Y-76269150D01*
X219132850Y-76575579D01*
X219373616Y-76935910D01*
X219539456Y-77336284D01*
X219624000Y-77761317D01*
X219624000Y-78194683D01*
X219539456Y-78619716D01*
X219373616Y-79020090D01*
X219132850Y-79380421D01*
X218826421Y-79686850D01*
X218466090Y-79927616D01*
X218065716Y-80093456D01*
X217640683Y-80178000D01*
X217207317Y-80178000D01*
X216782284Y-80093456D01*
X216381910Y-79927616D01*
X216021579Y-79686850D01*
X215715150Y-79380421D01*
X215474384Y-79020090D01*
X215308544Y-78619716D01*
X215224000Y-78194683D01*
X215224000Y-77761317D01*
X215308544Y-77336284D01*
X215474384Y-76935910D01*
X215715150Y-76575579D01*
X216021579Y-76269150D01*
X216381910Y-76028384D01*
X216782284Y-75862544D01*
X217207317Y-75778000D01*
X217640683Y-75778000D01*
X218065716Y-75862544D01*
X218065716Y-75862544D01*
G37*
G36*
X258443196Y-76727958D02*
X258679780Y-76825954D01*
X258892705Y-76968226D01*
X259073774Y-77149295D01*
X259216046Y-77362220D01*
X259314042Y-77598804D01*
X259364000Y-77849960D01*
X259364000Y-78106040D01*
X259314042Y-78357196D01*
X259216046Y-78593780D01*
X259073774Y-78806705D01*
X258892705Y-78987774D01*
X258679780Y-79130046D01*
X258443196Y-79228042D01*
X258192040Y-79278000D01*
X257935960Y-79278000D01*
X257684804Y-79228042D01*
X257448220Y-79130046D01*
X257235295Y-78987774D01*
X257054226Y-78806705D01*
X256911954Y-78593780D01*
X256813958Y-78357196D01*
X256764000Y-78106040D01*
X256764000Y-77849960D01*
X256813958Y-77598804D01*
X256911954Y-77362220D01*
X257054226Y-77149295D01*
X257235295Y-76968226D01*
X257448220Y-76825954D01*
X257684804Y-76727958D01*
X257935960Y-76678000D01*
X258192040Y-76678000D01*
X258443196Y-76727958D01*
X258443196Y-76727958D01*
G37*
G36*
X182243196Y-76727958D02*
X182479780Y-76825954D01*
X182692705Y-76968226D01*
X182873774Y-77149295D01*
X183016046Y-77362220D01*
X183114042Y-77598804D01*
X183164000Y-77849960D01*
X183164000Y-78106040D01*
X183114042Y-78357196D01*
X183016046Y-78593780D01*
X182873774Y-78806705D01*
X182692705Y-78987774D01*
X182479780Y-79130046D01*
X182243196Y-79228042D01*
X181992040Y-79278000D01*
X181735960Y-79278000D01*
X181484804Y-79228042D01*
X181248220Y-79130046D01*
X181035295Y-78987774D01*
X180854226Y-78806705D01*
X180711954Y-78593780D01*
X180613958Y-78357196D01*
X180564000Y-78106040D01*
X180564000Y-77849960D01*
X180613958Y-77598804D01*
X180711954Y-77362220D01*
X180854226Y-77149295D01*
X181035295Y-76968226D01*
X181248220Y-76825954D01*
X181484804Y-76727958D01*
X181735960Y-76678000D01*
X181992040Y-76678000D01*
X182243196Y-76727958D01*
X182243196Y-76727958D01*
G37*
G36*
X233043196Y-76727958D02*
X233279780Y-76825954D01*
X233492705Y-76968226D01*
X233673774Y-77149295D01*
X233816046Y-77362220D01*
X233914042Y-77598804D01*
X233964000Y-77849960D01*
X233964000Y-78106040D01*
X233914042Y-78357196D01*
X233816046Y-78593780D01*
X233673774Y-78806705D01*
X233492705Y-78987774D01*
X233279780Y-79130046D01*
X233043196Y-79228042D01*
X232792040Y-79278000D01*
X232535960Y-79278000D01*
X232284804Y-79228042D01*
X232048220Y-79130046D01*
X231835295Y-78987774D01*
X231654226Y-78806705D01*
X231511954Y-78593780D01*
X231413958Y-78357196D01*
X231364000Y-78106040D01*
X231364000Y-77849960D01*
X231413958Y-77598804D01*
X231511954Y-77362220D01*
X231654226Y-77149295D01*
X231835295Y-76968226D01*
X232048220Y-76825954D01*
X232284804Y-76727958D01*
X232535960Y-76678000D01*
X232792040Y-76678000D01*
X233043196Y-76727958D01*
X233043196Y-76727958D01*
G37*
G36*
X194943196Y-76727958D02*
X195179780Y-76825954D01*
X195392705Y-76968226D01*
X195573774Y-77149295D01*
X195716046Y-77362220D01*
X195814042Y-77598804D01*
X195864000Y-77849960D01*
X195864000Y-78106040D01*
X195814042Y-78357196D01*
X195716046Y-78593780D01*
X195573774Y-78806705D01*
X195392705Y-78987774D01*
X195179780Y-79130046D01*
X194943196Y-79228042D01*
X194692040Y-79278000D01*
X194435960Y-79278000D01*
X194184804Y-79228042D01*
X193948220Y-79130046D01*
X193735295Y-78987774D01*
X193554226Y-78806705D01*
X193411954Y-78593780D01*
X193313958Y-78357196D01*
X193264000Y-78106040D01*
X193264000Y-77849960D01*
X193313958Y-77598804D01*
X193411954Y-77362220D01*
X193554226Y-77149295D01*
X193735295Y-76968226D01*
X193948220Y-76825954D01*
X194184804Y-76727958D01*
X194435960Y-76678000D01*
X194692040Y-76678000D01*
X194943196Y-76727958D01*
X194943196Y-76727958D01*
G37*
G36*
X212469888Y-76932470D02*
X212650274Y-76968350D01*
X212841362Y-77047502D01*
X213013336Y-77162411D01*
X213159589Y-77308664D01*
X213274498Y-77480638D01*
X213353650Y-77671726D01*
X213394000Y-77874584D01*
X213394000Y-78081416D01*
X213353650Y-78284274D01*
X213274498Y-78475362D01*
X213159589Y-78647336D01*
X213013336Y-78793589D01*
X212841362Y-78908498D01*
X212650274Y-78987650D01*
X212469888Y-79023530D01*
X212447417Y-79028000D01*
X212240583Y-79028000D01*
X212218112Y-79023530D01*
X212037726Y-78987650D01*
X211846638Y-78908498D01*
X211674664Y-78793589D01*
X211528411Y-78647336D01*
X211413502Y-78475362D01*
X211334350Y-78284274D01*
X211294000Y-78081416D01*
X211294000Y-77874584D01*
X211334350Y-77671726D01*
X211413502Y-77480638D01*
X211528411Y-77308664D01*
X211674664Y-77162411D01*
X211846638Y-77047502D01*
X212037726Y-76968350D01*
X212218112Y-76932470D01*
X212240583Y-76928000D01*
X212447417Y-76928000D01*
X212469888Y-76932470D01*
X212469888Y-76932470D01*
G37*
G36*
X222629888Y-76932470D02*
X222810274Y-76968350D01*
X223001362Y-77047502D01*
X223173336Y-77162411D01*
X223319589Y-77308664D01*
X223434498Y-77480638D01*
X223513650Y-77671726D01*
X223554000Y-77874584D01*
X223554000Y-78081416D01*
X223513650Y-78284274D01*
X223434498Y-78475362D01*
X223319589Y-78647336D01*
X223173336Y-78793589D01*
X223001362Y-78908498D01*
X222810274Y-78987650D01*
X222629888Y-79023530D01*
X222607417Y-79028000D01*
X222400583Y-79028000D01*
X222378112Y-79023530D01*
X222197726Y-78987650D01*
X222006638Y-78908498D01*
X221834664Y-78793589D01*
X221688411Y-78647336D01*
X221573502Y-78475362D01*
X221494350Y-78284274D01*
X221454000Y-78081416D01*
X221454000Y-77874584D01*
X221494350Y-77671726D01*
X221573502Y-77480638D01*
X221688411Y-77308664D01*
X221834664Y-77162411D01*
X222006638Y-77047502D01*
X222197726Y-76968350D01*
X222378112Y-76932470D01*
X222400583Y-76928000D01*
X222607417Y-76928000D01*
X222629888Y-76932470D01*
X222629888Y-76932470D01*
G37*
G36*
X213993196Y-74187958D02*
X214229780Y-74285954D01*
X214442705Y-74428226D01*
X214623774Y-74609295D01*
X214766046Y-74822220D01*
X214864042Y-75058804D01*
X214914000Y-75309960D01*
X214914000Y-75566040D01*
X214864042Y-75817196D01*
X214766046Y-76053780D01*
X214623774Y-76266705D01*
X214442705Y-76447774D01*
X214229780Y-76590046D01*
X213993196Y-76688042D01*
X213742040Y-76738000D01*
X213485960Y-76738000D01*
X213234804Y-76688042D01*
X212998220Y-76590046D01*
X212785295Y-76447774D01*
X212604226Y-76266705D01*
X212461954Y-76053780D01*
X212363958Y-75817196D01*
X212314000Y-75566040D01*
X212314000Y-75309960D01*
X212363958Y-75058804D01*
X212461954Y-74822220D01*
X212604226Y-74609295D01*
X212785295Y-74428226D01*
X212998220Y-74285954D01*
X213234804Y-74187958D01*
X213485960Y-74138000D01*
X213742040Y-74138000D01*
X213993196Y-74187958D01*
X213993196Y-74187958D01*
G37*
G36*
X201293196Y-74187958D02*
X201529780Y-74285954D01*
X201742705Y-74428226D01*
X201923774Y-74609295D01*
X202066046Y-74822220D01*
X202164042Y-75058804D01*
X202214000Y-75309960D01*
X202214000Y-75566040D01*
X202164042Y-75817196D01*
X202066046Y-76053780D01*
X201923774Y-76266705D01*
X201742705Y-76447774D01*
X201529780Y-76590046D01*
X201293196Y-76688042D01*
X201042040Y-76738000D01*
X200785960Y-76738000D01*
X200534804Y-76688042D01*
X200298220Y-76590046D01*
X200085295Y-76447774D01*
X199904226Y-76266705D01*
X199761954Y-76053780D01*
X199663958Y-75817196D01*
X199614000Y-75566040D01*
X199614000Y-75309960D01*
X199663958Y-75058804D01*
X199761954Y-74822220D01*
X199904226Y-74609295D01*
X200085295Y-74428226D01*
X200298220Y-74285954D01*
X200534804Y-74187958D01*
X200785960Y-74138000D01*
X201042040Y-74138000D01*
X201293196Y-74187958D01*
X201293196Y-74187958D01*
G37*
G36*
X239393196Y-74187958D02*
X239629780Y-74285954D01*
X239842705Y-74428226D01*
X240023774Y-74609295D01*
X240166046Y-74822220D01*
X240264042Y-75058804D01*
X240314000Y-75309960D01*
X240314000Y-75566040D01*
X240264042Y-75817196D01*
X240166046Y-76053780D01*
X240023774Y-76266705D01*
X239842705Y-76447774D01*
X239629780Y-76590046D01*
X239393196Y-76688042D01*
X239142040Y-76738000D01*
X238885960Y-76738000D01*
X238634804Y-76688042D01*
X238398220Y-76590046D01*
X238185295Y-76447774D01*
X238004226Y-76266705D01*
X237861954Y-76053780D01*
X237763958Y-75817196D01*
X237714000Y-75566040D01*
X237714000Y-75309960D01*
X237763958Y-75058804D01*
X237861954Y-74822220D01*
X238004226Y-74609295D01*
X238185295Y-74428226D01*
X238398220Y-74285954D01*
X238634804Y-74187958D01*
X238885960Y-74138000D01*
X239142040Y-74138000D01*
X239393196Y-74187958D01*
X239393196Y-74187958D01*
G37*
G36*
X220343196Y-71647958D02*
X220579780Y-71745954D01*
X220792705Y-71888226D01*
X220973774Y-72069295D01*
X221116046Y-72282220D01*
X221214042Y-72518804D01*
X221264000Y-72769960D01*
X221264000Y-73026040D01*
X221214042Y-73277196D01*
X221116046Y-73513780D01*
X220973774Y-73726705D01*
X220792705Y-73907774D01*
X220579780Y-74050046D01*
X220343196Y-74148042D01*
X220092040Y-74198000D01*
X219835960Y-74198000D01*
X219584804Y-74148042D01*
X219348220Y-74050046D01*
X219135295Y-73907774D01*
X218954226Y-73726705D01*
X218811954Y-73513780D01*
X218713958Y-73277196D01*
X218664000Y-73026040D01*
X218664000Y-72769960D01*
X218713958Y-72518804D01*
X218811954Y-72282220D01*
X218954226Y-72069295D01*
X219135295Y-71888226D01*
X219348220Y-71745954D01*
X219584804Y-71647958D01*
X219835960Y-71598000D01*
X220092040Y-71598000D01*
X220343196Y-71647958D01*
X220343196Y-71647958D01*
G37*
G36*
X179965716Y-61892544D02*
X180366090Y-62058384D01*
X180726421Y-62299150D01*
X181032850Y-62605579D01*
X181273616Y-62965910D01*
X181439456Y-63366284D01*
X181524000Y-63791317D01*
X181524000Y-64224683D01*
X181439456Y-64649716D01*
X181273616Y-65050090D01*
X181032850Y-65410421D01*
X180726421Y-65716850D01*
X180366090Y-65957616D01*
X179965716Y-66123456D01*
X179540683Y-66208000D01*
X179107317Y-66208000D01*
X178682284Y-66123456D01*
X178281910Y-65957616D01*
X177921579Y-65716850D01*
X177615150Y-65410421D01*
X177374384Y-65050090D01*
X177208544Y-64649716D01*
X177124000Y-64224683D01*
X177124000Y-63791317D01*
X177208544Y-63366284D01*
X177374384Y-62965910D01*
X177615150Y-62605579D01*
X177921579Y-62299150D01*
X178281910Y-62058384D01*
X178682284Y-61892544D01*
X179107317Y-61808000D01*
X179540683Y-61808000D01*
X179965716Y-61892544D01*
X179965716Y-61892544D01*
G37*
G36*
X256165716Y-61892544D02*
X256566090Y-62058384D01*
X256926421Y-62299150D01*
X257232850Y-62605579D01*
X257473616Y-62965910D01*
X257639456Y-63366284D01*
X257724000Y-63791317D01*
X257724000Y-64224683D01*
X257639456Y-64649716D01*
X257473616Y-65050090D01*
X257232850Y-65410421D01*
X256926421Y-65716850D01*
X256566090Y-65957616D01*
X256165716Y-66123456D01*
X255740683Y-66208000D01*
X255307317Y-66208000D01*
X254882284Y-66123456D01*
X254481910Y-65957616D01*
X254121579Y-65716850D01*
X253815150Y-65410421D01*
X253574384Y-65050090D01*
X253408544Y-64649716D01*
X253324000Y-64224683D01*
X253324000Y-63791317D01*
X253408544Y-63366284D01*
X253574384Y-62965910D01*
X253815150Y-62605579D01*
X254121579Y-62299150D01*
X254481910Y-62058384D01*
X254882284Y-61892544D01*
X255307317Y-61808000D01*
X255740683Y-61808000D01*
X256165716Y-61892544D01*
X256165716Y-61892544D01*
G37*
G36*
X174369888Y-62962470D02*
X174550274Y-62998350D01*
X174741362Y-63077502D01*
X174913336Y-63192411D01*
X175059589Y-63338664D01*
X175174498Y-63510638D01*
X175253650Y-63701726D01*
X175294000Y-63904584D01*
X175294000Y-64111416D01*
X175253650Y-64314274D01*
X175174498Y-64505362D01*
X175059589Y-64677336D01*
X174913336Y-64823589D01*
X174741362Y-64938498D01*
X174550274Y-65017650D01*
X174369888Y-65053530D01*
X174347417Y-65058000D01*
X174140583Y-65058000D01*
X174118112Y-65053530D01*
X173937726Y-65017650D01*
X173746638Y-64938498D01*
X173574664Y-64823589D01*
X173428411Y-64677336D01*
X173313502Y-64505362D01*
X173234350Y-64314274D01*
X173194000Y-64111416D01*
X173194000Y-63904584D01*
X173234350Y-63701726D01*
X173313502Y-63510638D01*
X173428411Y-63338664D01*
X173574664Y-63192411D01*
X173746638Y-63077502D01*
X173937726Y-62998350D01*
X174118112Y-62962470D01*
X174140583Y-62958000D01*
X174347417Y-62958000D01*
X174369888Y-62962470D01*
X174369888Y-62962470D01*
G37*
G36*
X184529888Y-62962470D02*
X184710274Y-62998350D01*
X184901362Y-63077502D01*
X185073336Y-63192411D01*
X185219589Y-63338664D01*
X185334498Y-63510638D01*
X185413650Y-63701726D01*
X185454000Y-63904584D01*
X185454000Y-64111416D01*
X185413650Y-64314274D01*
X185334498Y-64505362D01*
X185219589Y-64677336D01*
X185073336Y-64823589D01*
X184901362Y-64938498D01*
X184710274Y-65017650D01*
X184529888Y-65053530D01*
X184507417Y-65058000D01*
X184300583Y-65058000D01*
X184278112Y-65053530D01*
X184097726Y-65017650D01*
X183906638Y-64938498D01*
X183734664Y-64823589D01*
X183588411Y-64677336D01*
X183473502Y-64505362D01*
X183394350Y-64314274D01*
X183354000Y-64111416D01*
X183354000Y-63904584D01*
X183394350Y-63701726D01*
X183473502Y-63510638D01*
X183588411Y-63338664D01*
X183734664Y-63192411D01*
X183906638Y-63077502D01*
X184097726Y-62998350D01*
X184278112Y-62962470D01*
X184300583Y-62958000D01*
X184507417Y-62958000D01*
X184529888Y-62962470D01*
X184529888Y-62962470D01*
G37*
G36*
X260729888Y-62962470D02*
X260910274Y-62998350D01*
X261101362Y-63077502D01*
X261273336Y-63192411D01*
X261419589Y-63338664D01*
X261534498Y-63510638D01*
X261613650Y-63701726D01*
X261654000Y-63904584D01*
X261654000Y-64111416D01*
X261613650Y-64314274D01*
X261534498Y-64505362D01*
X261419589Y-64677336D01*
X261273336Y-64823589D01*
X261101362Y-64938498D01*
X260910274Y-65017650D01*
X260729888Y-65053530D01*
X260707417Y-65058000D01*
X260500583Y-65058000D01*
X260478112Y-65053530D01*
X260297726Y-65017650D01*
X260106638Y-64938498D01*
X259934664Y-64823589D01*
X259788411Y-64677336D01*
X259673502Y-64505362D01*
X259594350Y-64314274D01*
X259554000Y-64111416D01*
X259554000Y-63904584D01*
X259594350Y-63701726D01*
X259673502Y-63510638D01*
X259788411Y-63338664D01*
X259934664Y-63192411D01*
X260106638Y-63077502D01*
X260297726Y-62998350D01*
X260478112Y-62962470D01*
X260500583Y-62958000D01*
X260707417Y-62958000D01*
X260729888Y-62962470D01*
X260729888Y-62962470D01*
G37*
G36*
X250569888Y-62962470D02*
X250750274Y-62998350D01*
X250941362Y-63077502D01*
X251113336Y-63192411D01*
X251259589Y-63338664D01*
X251374498Y-63510638D01*
X251453650Y-63701726D01*
X251494000Y-63904584D01*
X251494000Y-64111416D01*
X251453650Y-64314274D01*
X251374498Y-64505362D01*
X251259589Y-64677336D01*
X251113336Y-64823589D01*
X250941362Y-64938498D01*
X250750274Y-65017650D01*
X250569888Y-65053530D01*
X250547417Y-65058000D01*
X250340583Y-65058000D01*
X250318112Y-65053530D01*
X250137726Y-65017650D01*
X249946638Y-64938498D01*
X249774664Y-64823589D01*
X249628411Y-64677336D01*
X249513502Y-64505362D01*
X249434350Y-64314274D01*
X249394000Y-64111416D01*
X249394000Y-63904584D01*
X249434350Y-63701726D01*
X249513502Y-63510638D01*
X249628411Y-63338664D01*
X249774664Y-63192411D01*
X249946638Y-63077502D01*
X250137726Y-62998350D01*
X250318112Y-62962470D01*
X250340583Y-62958000D01*
X250547417Y-62958000D01*
X250569888Y-62962470D01*
X250569888Y-62962470D01*
G37*
G36*
X199015716Y-59352544D02*
X199416090Y-59518384D01*
X199776421Y-59759150D01*
X200082850Y-60065579D01*
X200323616Y-60425910D01*
X200489456Y-60826284D01*
X200574000Y-61251317D01*
X200574000Y-61684683D01*
X200489456Y-62109716D01*
X200323616Y-62510090D01*
X200082850Y-62870421D01*
X199776421Y-63176850D01*
X199416090Y-63417616D01*
X199015716Y-63583456D01*
X198590683Y-63668000D01*
X198157317Y-63668000D01*
X197732284Y-63583456D01*
X197331910Y-63417616D01*
X196971579Y-63176850D01*
X196665150Y-62870421D01*
X196424384Y-62510090D01*
X196258544Y-62109716D01*
X196174000Y-61684683D01*
X196174000Y-61251317D01*
X196258544Y-60826284D01*
X196424384Y-60425910D01*
X196665150Y-60065579D01*
X196971579Y-59759150D01*
X197331910Y-59518384D01*
X197732284Y-59352544D01*
X198157317Y-59268000D01*
X198590683Y-59268000D01*
X199015716Y-59352544D01*
X199015716Y-59352544D01*
G37*
G36*
X237115716Y-59352544D02*
X237516090Y-59518384D01*
X237876421Y-59759150D01*
X238182850Y-60065579D01*
X238423616Y-60425910D01*
X238589456Y-60826284D01*
X238674000Y-61251317D01*
X238674000Y-61684683D01*
X238589456Y-62109716D01*
X238423616Y-62510090D01*
X238182850Y-62870421D01*
X237876421Y-63176850D01*
X237516090Y-63417616D01*
X237115716Y-63583456D01*
X236690683Y-63668000D01*
X236257317Y-63668000D01*
X235832284Y-63583456D01*
X235431910Y-63417616D01*
X235071579Y-63176850D01*
X234765150Y-62870421D01*
X234524384Y-62510090D01*
X234358544Y-62109716D01*
X234274000Y-61684683D01*
X234274000Y-61251317D01*
X234358544Y-60826284D01*
X234524384Y-60425910D01*
X234765150Y-60065579D01*
X235071579Y-59759150D01*
X235431910Y-59518384D01*
X235832284Y-59352544D01*
X236257317Y-59268000D01*
X236690683Y-59268000D01*
X237115716Y-59352544D01*
X237115716Y-59352544D01*
G37*
G36*
X175893196Y-60217958D02*
X176129780Y-60315954D01*
X176342705Y-60458226D01*
X176523774Y-60639295D01*
X176666046Y-60852220D01*
X176764042Y-61088804D01*
X176814000Y-61339960D01*
X176814000Y-61596040D01*
X176764042Y-61847196D01*
X176666046Y-62083780D01*
X176523774Y-62296705D01*
X176342705Y-62477774D01*
X176129780Y-62620046D01*
X175893196Y-62718042D01*
X175642040Y-62768000D01*
X175385960Y-62768000D01*
X175134804Y-62718042D01*
X174898220Y-62620046D01*
X174685295Y-62477774D01*
X174504226Y-62296705D01*
X174361954Y-62083780D01*
X174263958Y-61847196D01*
X174214000Y-61596040D01*
X174214000Y-61339960D01*
X174263958Y-61088804D01*
X174361954Y-60852220D01*
X174504226Y-60639295D01*
X174685295Y-60458226D01*
X174898220Y-60315954D01*
X175134804Y-60217958D01*
X175385960Y-60168000D01*
X175642040Y-60168000D01*
X175893196Y-60217958D01*
X175893196Y-60217958D01*
G37*
G36*
X252093196Y-60217958D02*
X252329780Y-60315954D01*
X252542705Y-60458226D01*
X252723774Y-60639295D01*
X252866046Y-60852220D01*
X252964042Y-61088804D01*
X253014000Y-61339960D01*
X253014000Y-61596040D01*
X252964042Y-61847196D01*
X252866046Y-62083780D01*
X252723774Y-62296705D01*
X252542705Y-62477774D01*
X252329780Y-62620046D01*
X252093196Y-62718042D01*
X251842040Y-62768000D01*
X251585960Y-62768000D01*
X251334804Y-62718042D01*
X251098220Y-62620046D01*
X250885295Y-62477774D01*
X250704226Y-62296705D01*
X250561954Y-62083780D01*
X250463958Y-61847196D01*
X250414000Y-61596040D01*
X250414000Y-61339960D01*
X250463958Y-61088804D01*
X250561954Y-60852220D01*
X250704226Y-60639295D01*
X250885295Y-60458226D01*
X251098220Y-60315954D01*
X251334804Y-60217958D01*
X251585960Y-60168000D01*
X251842040Y-60168000D01*
X252093196Y-60217958D01*
X252093196Y-60217958D01*
G37*
G36*
X203579888Y-60422470D02*
X203760274Y-60458350D01*
X203951362Y-60537502D01*
X204123336Y-60652411D01*
X204269589Y-60798664D01*
X204384498Y-60970638D01*
X204463650Y-61161726D01*
X204504000Y-61364584D01*
X204504000Y-61571416D01*
X204463650Y-61774274D01*
X204384498Y-61965362D01*
X204269589Y-62137336D01*
X204123336Y-62283589D01*
X203951362Y-62398498D01*
X203760274Y-62477650D01*
X203579888Y-62513530D01*
X203557417Y-62518000D01*
X203350583Y-62518000D01*
X203328112Y-62513530D01*
X203147726Y-62477650D01*
X202956638Y-62398498D01*
X202784664Y-62283589D01*
X202638411Y-62137336D01*
X202523502Y-61965362D01*
X202444350Y-61774274D01*
X202404000Y-61571416D01*
X202404000Y-61364584D01*
X202444350Y-61161726D01*
X202523502Y-60970638D01*
X202638411Y-60798664D01*
X202784664Y-60652411D01*
X202956638Y-60537502D01*
X203147726Y-60458350D01*
X203328112Y-60422470D01*
X203350583Y-60418000D01*
X203557417Y-60418000D01*
X203579888Y-60422470D01*
X203579888Y-60422470D01*
G37*
G36*
X241679888Y-60422470D02*
X241860274Y-60458350D01*
X242051362Y-60537502D01*
X242223336Y-60652411D01*
X242369589Y-60798664D01*
X242484498Y-60970638D01*
X242563650Y-61161726D01*
X242604000Y-61364584D01*
X242604000Y-61571416D01*
X242563650Y-61774274D01*
X242484498Y-61965362D01*
X242369589Y-62137336D01*
X242223336Y-62283589D01*
X242051362Y-62398498D01*
X241860274Y-62477650D01*
X241679888Y-62513530D01*
X241657417Y-62518000D01*
X241450583Y-62518000D01*
X241428112Y-62513530D01*
X241247726Y-62477650D01*
X241056638Y-62398498D01*
X240884664Y-62283589D01*
X240738411Y-62137336D01*
X240623502Y-61965362D01*
X240544350Y-61774274D01*
X240504000Y-61571416D01*
X240504000Y-61364584D01*
X240544350Y-61161726D01*
X240623502Y-60970638D01*
X240738411Y-60798664D01*
X240884664Y-60652411D01*
X241056638Y-60537502D01*
X241247726Y-60458350D01*
X241428112Y-60422470D01*
X241450583Y-60418000D01*
X241657417Y-60418000D01*
X241679888Y-60422470D01*
X241679888Y-60422470D01*
G37*
G36*
X231519888Y-60422470D02*
X231700274Y-60458350D01*
X231891362Y-60537502D01*
X232063336Y-60652411D01*
X232209589Y-60798664D01*
X232324498Y-60970638D01*
X232403650Y-61161726D01*
X232444000Y-61364584D01*
X232444000Y-61571416D01*
X232403650Y-61774274D01*
X232324498Y-61965362D01*
X232209589Y-62137336D01*
X232063336Y-62283589D01*
X231891362Y-62398498D01*
X231700274Y-62477650D01*
X231519888Y-62513530D01*
X231497417Y-62518000D01*
X231290583Y-62518000D01*
X231268112Y-62513530D01*
X231087726Y-62477650D01*
X230896638Y-62398498D01*
X230724664Y-62283589D01*
X230578411Y-62137336D01*
X230463502Y-61965362D01*
X230384350Y-61774274D01*
X230344000Y-61571416D01*
X230344000Y-61364584D01*
X230384350Y-61161726D01*
X230463502Y-60970638D01*
X230578411Y-60798664D01*
X230724664Y-60652411D01*
X230896638Y-60537502D01*
X231087726Y-60458350D01*
X231268112Y-60422470D01*
X231290583Y-60418000D01*
X231497417Y-60418000D01*
X231519888Y-60422470D01*
X231519888Y-60422470D01*
G37*
G36*
X193419888Y-60422470D02*
X193600274Y-60458350D01*
X193791362Y-60537502D01*
X193963336Y-60652411D01*
X194109589Y-60798664D01*
X194224498Y-60970638D01*
X194303650Y-61161726D01*
X194344000Y-61364584D01*
X194344000Y-61571416D01*
X194303650Y-61774274D01*
X194224498Y-61965362D01*
X194109589Y-62137336D01*
X193963336Y-62283589D01*
X193791362Y-62398498D01*
X193600274Y-62477650D01*
X193419888Y-62513530D01*
X193397417Y-62518000D01*
X193190583Y-62518000D01*
X193168112Y-62513530D01*
X192987726Y-62477650D01*
X192796638Y-62398498D01*
X192624664Y-62283589D01*
X192478411Y-62137336D01*
X192363502Y-61965362D01*
X192284350Y-61774274D01*
X192244000Y-61571416D01*
X192244000Y-61364584D01*
X192284350Y-61161726D01*
X192363502Y-60970638D01*
X192478411Y-60798664D01*
X192624664Y-60652411D01*
X192796638Y-60537502D01*
X192987726Y-60458350D01*
X193168112Y-60422470D01*
X193190583Y-60418000D01*
X193397417Y-60418000D01*
X193419888Y-60422470D01*
X193419888Y-60422470D01*
G37*
G36*
X218065716Y-56812544D02*
X218466090Y-56978384D01*
X218826421Y-57219150D01*
X219132850Y-57525579D01*
X219373616Y-57885910D01*
X219539456Y-58286284D01*
X219624000Y-58711317D01*
X219624000Y-59144683D01*
X219539456Y-59569716D01*
X219373616Y-59970090D01*
X219132850Y-60330421D01*
X218826421Y-60636850D01*
X218466090Y-60877616D01*
X218065716Y-61043456D01*
X217640683Y-61128000D01*
X217207317Y-61128000D01*
X216782284Y-61043456D01*
X216381910Y-60877616D01*
X216021579Y-60636850D01*
X215715150Y-60330421D01*
X215474384Y-59970090D01*
X215308544Y-59569716D01*
X215224000Y-59144683D01*
X215224000Y-58711317D01*
X215308544Y-58286284D01*
X215474384Y-57885910D01*
X215715150Y-57525579D01*
X216021579Y-57219150D01*
X216381910Y-56978384D01*
X216782284Y-56812544D01*
X217207317Y-56728000D01*
X217640683Y-56728000D01*
X218065716Y-56812544D01*
X218065716Y-56812544D01*
G37*
G36*
X194943196Y-57677958D02*
X195179780Y-57775954D01*
X195392705Y-57918226D01*
X195573774Y-58099295D01*
X195716046Y-58312220D01*
X195814042Y-58548804D01*
X195864000Y-58799960D01*
X195864000Y-59056040D01*
X195814042Y-59307196D01*
X195716046Y-59543780D01*
X195573774Y-59756705D01*
X195392705Y-59937774D01*
X195179780Y-60080046D01*
X194943196Y-60178042D01*
X194692040Y-60228000D01*
X194435960Y-60228000D01*
X194184804Y-60178042D01*
X193948220Y-60080046D01*
X193735295Y-59937774D01*
X193554226Y-59756705D01*
X193411954Y-59543780D01*
X193313958Y-59307196D01*
X193264000Y-59056040D01*
X193264000Y-58799960D01*
X193313958Y-58548804D01*
X193411954Y-58312220D01*
X193554226Y-58099295D01*
X193735295Y-57918226D01*
X193948220Y-57775954D01*
X194184804Y-57677958D01*
X194435960Y-57628000D01*
X194692040Y-57628000D01*
X194943196Y-57677958D01*
X194943196Y-57677958D01*
G37*
G36*
X182243196Y-57677958D02*
X182479780Y-57775954D01*
X182692705Y-57918226D01*
X182873774Y-58099295D01*
X183016046Y-58312220D01*
X183114042Y-58548804D01*
X183164000Y-58799960D01*
X183164000Y-59056040D01*
X183114042Y-59307196D01*
X183016046Y-59543780D01*
X182873774Y-59756705D01*
X182692705Y-59937774D01*
X182479780Y-60080046D01*
X182243196Y-60178042D01*
X181992040Y-60228000D01*
X181735960Y-60228000D01*
X181484804Y-60178042D01*
X181248220Y-60080046D01*
X181035295Y-59937774D01*
X180854226Y-59756705D01*
X180711954Y-59543780D01*
X180613958Y-59307196D01*
X180564000Y-59056040D01*
X180564000Y-58799960D01*
X180613958Y-58548804D01*
X180711954Y-58312220D01*
X180854226Y-58099295D01*
X181035295Y-57918226D01*
X181248220Y-57775954D01*
X181484804Y-57677958D01*
X181735960Y-57628000D01*
X181992040Y-57628000D01*
X182243196Y-57677958D01*
X182243196Y-57677958D01*
G37*
G36*
X233043196Y-57677958D02*
X233279780Y-57775954D01*
X233492705Y-57918226D01*
X233673774Y-58099295D01*
X233816046Y-58312220D01*
X233914042Y-58548804D01*
X233964000Y-58799960D01*
X233964000Y-59056040D01*
X233914042Y-59307196D01*
X233816046Y-59543780D01*
X233673774Y-59756705D01*
X233492705Y-59937774D01*
X233279780Y-60080046D01*
X233043196Y-60178042D01*
X232792040Y-60228000D01*
X232535960Y-60228000D01*
X232284804Y-60178042D01*
X232048220Y-60080046D01*
X231835295Y-59937774D01*
X231654226Y-59756705D01*
X231511954Y-59543780D01*
X231413958Y-59307196D01*
X231364000Y-59056040D01*
X231364000Y-58799960D01*
X231413958Y-58548804D01*
X231511954Y-58312220D01*
X231654226Y-58099295D01*
X231835295Y-57918226D01*
X232048220Y-57775954D01*
X232284804Y-57677958D01*
X232535960Y-57628000D01*
X232792040Y-57628000D01*
X233043196Y-57677958D01*
X233043196Y-57677958D01*
G37*
G36*
X258443196Y-57677958D02*
X258679780Y-57775954D01*
X258892705Y-57918226D01*
X259073774Y-58099295D01*
X259216046Y-58312220D01*
X259314042Y-58548804D01*
X259364000Y-58799960D01*
X259364000Y-59056040D01*
X259314042Y-59307196D01*
X259216046Y-59543780D01*
X259073774Y-59756705D01*
X258892705Y-59937774D01*
X258679780Y-60080046D01*
X258443196Y-60178042D01*
X258192040Y-60228000D01*
X257935960Y-60228000D01*
X257684804Y-60178042D01*
X257448220Y-60080046D01*
X257235295Y-59937774D01*
X257054226Y-59756705D01*
X256911954Y-59543780D01*
X256813958Y-59307196D01*
X256764000Y-59056040D01*
X256764000Y-58799960D01*
X256813958Y-58548804D01*
X256911954Y-58312220D01*
X257054226Y-58099295D01*
X257235295Y-57918226D01*
X257448220Y-57775954D01*
X257684804Y-57677958D01*
X257935960Y-57628000D01*
X258192040Y-57628000D01*
X258443196Y-57677958D01*
X258443196Y-57677958D01*
G37*
G36*
X222629888Y-57882470D02*
X222810274Y-57918350D01*
X223001362Y-57997502D01*
X223173336Y-58112411D01*
X223319589Y-58258664D01*
X223434498Y-58430638D01*
X223513650Y-58621726D01*
X223554000Y-58824584D01*
X223554000Y-59031416D01*
X223513650Y-59234274D01*
X223434498Y-59425362D01*
X223319589Y-59597336D01*
X223173336Y-59743589D01*
X223001362Y-59858498D01*
X222810274Y-59937650D01*
X222629888Y-59973530D01*
X222607417Y-59978000D01*
X222400583Y-59978000D01*
X222378112Y-59973530D01*
X222197726Y-59937650D01*
X222006638Y-59858498D01*
X221834664Y-59743589D01*
X221688411Y-59597336D01*
X221573502Y-59425362D01*
X221494350Y-59234274D01*
X221454000Y-59031416D01*
X221454000Y-58824584D01*
X221494350Y-58621726D01*
X221573502Y-58430638D01*
X221688411Y-58258664D01*
X221834664Y-58112411D01*
X222006638Y-57997502D01*
X222197726Y-57918350D01*
X222378112Y-57882470D01*
X222400583Y-57878000D01*
X222607417Y-57878000D01*
X222629888Y-57882470D01*
X222629888Y-57882470D01*
G37*
G36*
X212469888Y-57882470D02*
X212650274Y-57918350D01*
X212841362Y-57997502D01*
X213013336Y-58112411D01*
X213159589Y-58258664D01*
X213274498Y-58430638D01*
X213353650Y-58621726D01*
X213394000Y-58824584D01*
X213394000Y-59031416D01*
X213353650Y-59234274D01*
X213274498Y-59425362D01*
X213159589Y-59597336D01*
X213013336Y-59743589D01*
X212841362Y-59858498D01*
X212650274Y-59937650D01*
X212469888Y-59973530D01*
X212447417Y-59978000D01*
X212240583Y-59978000D01*
X212218112Y-59973530D01*
X212037726Y-59937650D01*
X211846638Y-59858498D01*
X211674664Y-59743589D01*
X211528411Y-59597336D01*
X211413502Y-59425362D01*
X211334350Y-59234274D01*
X211294000Y-59031416D01*
X211294000Y-58824584D01*
X211334350Y-58621726D01*
X211413502Y-58430638D01*
X211528411Y-58258664D01*
X211674664Y-58112411D01*
X211846638Y-57997502D01*
X212037726Y-57918350D01*
X212218112Y-57882470D01*
X212240583Y-57878000D01*
X212447417Y-57878000D01*
X212469888Y-57882470D01*
X212469888Y-57882470D01*
G37*
G36*
X239393196Y-55137958D02*
X239629780Y-55235954D01*
X239842705Y-55378226D01*
X240023774Y-55559295D01*
X240166046Y-55772220D01*
X240264042Y-56008804D01*
X240314000Y-56259960D01*
X240314000Y-56516040D01*
X240264042Y-56767196D01*
X240166046Y-57003780D01*
X240023774Y-57216705D01*
X239842705Y-57397774D01*
X239629780Y-57540046D01*
X239393196Y-57638042D01*
X239142040Y-57688000D01*
X238885960Y-57688000D01*
X238634804Y-57638042D01*
X238398220Y-57540046D01*
X238185295Y-57397774D01*
X238004226Y-57216705D01*
X237861954Y-57003780D01*
X237763958Y-56767196D01*
X237714000Y-56516040D01*
X237714000Y-56259960D01*
X237763958Y-56008804D01*
X237861954Y-55772220D01*
X238004226Y-55559295D01*
X238185295Y-55378226D01*
X238398220Y-55235954D01*
X238634804Y-55137958D01*
X238885960Y-55088000D01*
X239142040Y-55088000D01*
X239393196Y-55137958D01*
X239393196Y-55137958D01*
G37*
G36*
X201293196Y-55137958D02*
X201529780Y-55235954D01*
X201742705Y-55378226D01*
X201923774Y-55559295D01*
X202066046Y-55772220D01*
X202164042Y-56008804D01*
X202214000Y-56259960D01*
X202214000Y-56516040D01*
X202164042Y-56767196D01*
X202066046Y-57003780D01*
X201923774Y-57216705D01*
X201742705Y-57397774D01*
X201529780Y-57540046D01*
X201293196Y-57638042D01*
X201042040Y-57688000D01*
X200785960Y-57688000D01*
X200534804Y-57638042D01*
X200298220Y-57540046D01*
X200085295Y-57397774D01*
X199904226Y-57216705D01*
X199761954Y-57003780D01*
X199663958Y-56767196D01*
X199614000Y-56516040D01*
X199614000Y-56259960D01*
X199663958Y-56008804D01*
X199761954Y-55772220D01*
X199904226Y-55559295D01*
X200085295Y-55378226D01*
X200298220Y-55235954D01*
X200534804Y-55137958D01*
X200785960Y-55088000D01*
X201042040Y-55088000D01*
X201293196Y-55137958D01*
X201293196Y-55137958D01*
G37*
G36*
X213993196Y-55137958D02*
X214229780Y-55235954D01*
X214442705Y-55378226D01*
X214623774Y-55559295D01*
X214766046Y-55772220D01*
X214864042Y-56008804D01*
X214914000Y-56259960D01*
X214914000Y-56516040D01*
X214864042Y-56767196D01*
X214766046Y-57003780D01*
X214623774Y-57216705D01*
X214442705Y-57397774D01*
X214229780Y-57540046D01*
X213993196Y-57638042D01*
X213742040Y-57688000D01*
X213485960Y-57688000D01*
X213234804Y-57638042D01*
X212998220Y-57540046D01*
X212785295Y-57397774D01*
X212604226Y-57216705D01*
X212461954Y-57003780D01*
X212363958Y-56767196D01*
X212314000Y-56516040D01*
X212314000Y-56259960D01*
X212363958Y-56008804D01*
X212461954Y-55772220D01*
X212604226Y-55559295D01*
X212785295Y-55378226D01*
X212998220Y-55235954D01*
X213234804Y-55137958D01*
X213485960Y-55088000D01*
X213742040Y-55088000D01*
X213993196Y-55137958D01*
X213993196Y-55137958D01*
G37*
G36*
X220343196Y-52597958D02*
X220579780Y-52695954D01*
X220792705Y-52838226D01*
X220973774Y-53019295D01*
X221116046Y-53232220D01*
X221214042Y-53468804D01*
X221264000Y-53719960D01*
X221264000Y-53976040D01*
X221214042Y-54227196D01*
X221116046Y-54463780D01*
X220973774Y-54676705D01*
X220792705Y-54857774D01*
X220579780Y-55000046D01*
X220343196Y-55098042D01*
X220092040Y-55148000D01*
X219835960Y-55148000D01*
X219584804Y-55098042D01*
X219348220Y-55000046D01*
X219135295Y-54857774D01*
X218954226Y-54676705D01*
X218811954Y-54463780D01*
X218713958Y-54227196D01*
X218664000Y-53976040D01*
X218664000Y-53719960D01*
X218713958Y-53468804D01*
X218811954Y-53232220D01*
X218954226Y-53019295D01*
X219135295Y-52838226D01*
X219348220Y-52695954D01*
X219584804Y-52597958D01*
X219835960Y-52548000D01*
X220092040Y-52548000D01*
X220343196Y-52597958D01*
X220343196Y-52597958D01*
G37*
M02*
