<?xml version="1.0"?>
<!-- Generated by SVGo -->
<svg width="109.060mm" height="74.770mm"
     viewBox="0.000 0.000 109.060 74.770"
     xmlns="http://www.w3.org/2000/svg" 
     xmlns:xlink="http://www.w3.org/1999/xlink">
<polygon points="104.060,5.000 104.060,69.770 5.000,69.770 5.000,5.000" style="fill:none;stroke-width:0.2;stroke:black"/>
<polygon points="21.525,66.245 21.525,67.245 7.525,67.245 7.525,66.245 6.725,66.245 6.725,63.145 7.525,63.145 7.525,57.345 6.725,57.345 6.725,54.245 7.525,54.245 7.525,53.245 21.525,53.245 21.525,54.245 22.325,54.245 22.325,57.345 21.525,57.345 21.525,63.145 22.325,63.145 22.325,66.245" style="fill:none;stroke-width:0.2;stroke:black"/>
<polygon points="23.430,47.195 23.430,48.195 9.430,48.195 9.430,47.195 8.630,47.195 8.630,44.095 9.430,44.095 9.430,38.295 8.630,38.295 8.630,35.195 9.430,35.195 9.430,34.195 23.430,34.195 23.430,35.195 24.230,35.195 24.230,38.295 23.430,38.295 23.430,44.095 24.230,44.095 24.230,47.195" style="fill:none;stroke-width:0.2;stroke:black"/>
<polygon points="25.335,28.145 25.335,29.145 11.335,29.145 11.335,28.145 10.535,28.145 10.535,25.045 11.335,25.045 11.335,19.245 10.535,19.245 10.535,16.145 11.335,16.145 11.335,15.145 25.335,15.145 25.335,16.145 26.135,16.145 26.135,19.245 25.335,19.245 25.335,25.045 26.135,25.045 26.135,28.145" style="fill:none;stroke-width:0.2;stroke:black"/>
<polygon points="40.575,62.435 40.575,63.435 26.575,63.435 26.575,62.435 25.775,62.435 25.775,59.335 26.575,59.335 26.575,53.535 25.775,53.535 25.775,50.435 26.575,50.435 26.575,49.435 40.575,49.435 40.575,50.435 41.375,50.435 41.375,53.535 40.575,53.535 40.575,59.335 41.375,59.335 41.375,62.435" style="fill:none;stroke-width:0.2;stroke:black"/>
<polygon points="42.480,43.385 42.480,44.385 28.480,44.385 28.480,43.385 27.680,43.385 27.680,40.285 28.480,40.285 28.480,34.485 27.680,34.485 27.680,31.385 28.480,31.385 28.480,30.385 42.480,30.385 42.480,31.385 43.280,31.385 43.280,34.485 42.480,34.485 42.480,40.285 43.280,40.285 43.280,43.385" style="fill:none;stroke-width:0.2;stroke:black"/>
<polygon points="44.385,24.335 44.385,25.335 30.385,25.335 30.385,24.335 29.585,24.335 29.585,21.235 30.385,21.235 30.385,15.435 29.585,15.435 29.585,12.335 30.385,12.335 30.385,11.335 44.385,11.335 44.385,12.335 45.185,12.335 45.185,15.435 44.385,15.435 44.385,21.235 45.185,21.235 45.185,24.335" style="fill:none;stroke-width:0.2;stroke:black"/>
<polygon points="59.625,58.625 59.625,59.625 45.625,59.625 45.625,58.625 44.825,58.625 44.825,55.525 45.625,55.525 45.625,49.725 44.825,49.725 44.825,46.625 45.625,46.625 45.625,45.625 59.625,45.625 59.625,46.625 60.425,46.625 60.425,49.725 59.625,49.725 59.625,55.525 60.425,55.525 60.425,58.625" style="fill:none;stroke-width:0.2;stroke:black"/>
<polygon points="61.530,39.575 61.530,40.575 47.530,40.575 47.530,39.575 46.730,39.575 46.730,36.475 47.530,36.475 47.530,30.675 46.730,30.675 46.730,27.575 47.530,27.575 47.530,26.575 61.530,26.575 61.530,27.575 62.330,27.575 62.330,30.675 61.530,30.675 61.530,36.475 62.330,36.475 62.330,39.575" style="fill:none;stroke-width:0.2;stroke:black"/>
<polygon points="63.435,20.525 63.435,21.525 49.435,21.525 49.435,20.525 48.635,20.525 48.635,17.425 49.435,17.425 49.435,11.625 48.635,11.625 48.635,8.525 49.435,8.525 49.435,7.525 63.435,7.525 63.435,8.525 64.235,8.525 64.235,11.625 63.435,11.625 63.435,17.425 64.235,17.425 64.235,20.525" style="fill:none;stroke-width:0.2;stroke:black"/>
<polygon points="78.675,62.435 78.675,63.435 64.675,63.435 64.675,62.435 63.875,62.435 63.875,59.335 64.675,59.335 64.675,53.535 63.875,53.535 63.875,50.435 64.675,50.435 64.675,49.435 78.675,49.435 78.675,50.435 79.475,50.435 79.475,53.535 78.675,53.535 78.675,59.335 79.475,59.335 79.475,62.435" style="fill:none;stroke-width:0.2;stroke:black"/>
<polygon points="80.580,43.385 80.580,44.385 66.580,44.385 66.580,43.385 65.780,43.385 65.780,40.285 66.580,40.285 66.580,34.485 65.780,34.485 65.780,31.385 66.580,31.385 66.580,30.385 80.580,30.385 80.580,31.385 81.380,31.385 81.380,34.485 80.580,34.485 80.580,40.285 81.380,40.285 81.380,43.385" style="fill:none;stroke-width:0.2;stroke:black"/>
<polygon points="82.485,24.335 82.485,25.335 68.485,25.335 68.485,24.335 67.685,24.335 67.685,21.235 68.485,21.235 68.485,15.435 67.685,15.435 67.685,12.335 68.485,12.335 68.485,11.335 82.485,11.335 82.485,12.335 83.285,12.335 83.285,15.435 82.485,15.435 82.485,21.235 83.285,21.235 83.285,24.335" style="fill:none;stroke-width:0.2;stroke:black"/>
<polygon points="97.725,66.245 97.725,67.245 83.725,67.245 83.725,66.245 82.925,66.245 82.925,63.145 83.725,63.145 83.725,57.345 82.925,57.345 82.925,54.245 83.725,54.245 83.725,53.245 97.725,53.245 97.725,54.245 98.525,54.245 98.525,57.345 97.725,57.345 97.725,63.145 98.525,63.145 98.525,66.245" style="fill:none;stroke-width:0.2;stroke:black"/>
<polygon points="99.630,47.195 99.630,48.195 85.630,48.195 85.630,47.195 84.830,47.195 84.830,44.095 85.630,44.095 85.630,38.295 84.830,38.295 84.830,35.195 85.630,35.195 85.630,34.195 99.630,34.195 99.630,35.195 100.430,35.195 100.430,38.295 99.630,38.295 99.630,44.095 100.430,44.095 100.430,47.195" style="fill:none;stroke-width:0.2;stroke:black"/>
<polygon points="101.535,28.145 101.535,29.145 87.535,29.145 87.535,28.145 86.735,28.145 86.735,25.045 87.535,25.045 87.535,19.245 86.735,19.245 86.735,16.145 87.535,16.145 87.535,15.145 101.535,15.145 101.535,16.145 102.335,16.145 102.335,19.245 101.535,19.245 101.535,25.045 102.335,25.045 102.335,28.145" style="fill:none;stroke-width:0.2;stroke:black"/>
</svg>
