  0
SECTION
  2
HEADER
  9
$ACADVER
  1
AC1015
  9
$HANDSEED
  5
FFFF
  9
$INSUNITS
 70
1
  9
$DIMEXE
 40
0.18
  9
$TEXTSTYLE
  7
Standard
  9
$TEXTSTYLE
  7
Roman
  9
$LIMMIN
 10
0.0
 20
0.0
  0
ENDSEC
  0
SECTION
  2
TABLES
  0
TABLE
  2
VPORT
  5
8
100
AcDbSymbolTable
 70
1
  0
VPORT
  5
30
100
AcDbSymbolTableRecord
100
AcDbViewportTableRecord
  2
*Active
 70
0
 10
0.0
 20
0.0
 11
1.0
 21
1.0
 12
286.30555555555549
 22
148.5
 13
0.0
 23
0.0
 14
0.0
 24
0.0
 15
10.0
 25
10.0
 16
0.0
 26
0.0
 36
1.0
 17
0.0
 27
0.0
 37
0.0
 40
297.0
 41
1.92798353909465
 42
50.0
 43
0.0
 44
0.0
 50
0.0
 51
0.0
 71
0
 72
100
 73
1
 74
3
 75
1
 76
1
 77
0
 78
0
281
0
 65
1
110
0.0
120
0.0
130
0.0
111
1.0
121
0.0
131
0.0
112
0.0
122
1.0
132
0.0
 79
0
146
0.0
  0
ENDTAB
  0
TABLE
  2
LTYPE
  5
5
100
AcDbSymbolTable
 70
25
  0
LTYPE
  5
14
100
AcDbSymbolTableRecord
100
AcDbLinetypeTableRecord
  2
BYBLOCK
 70
0
  3

 72
65
 73
0
 40
0.0
  0
LTYPE
  5
15
100
AcDbSymbolTableRecord
100
AcDbLinetypeTableRecord
  2
BYLAYER
 70
0
  3

 72
65
 73
0
 40
0.0
  0
LTYPE
  5
16
100
AcDbSymbolTableRecord
100
AcDbLinetypeTableRecord
  2
CONTINUOUS
 70
0
  3
Solid line
 72
65
 73
0
 40
0.0
  0
LTYPE
  5
31
100
AcDbSymbolTableRecord
100
AcDbLinetypeTableRecord
  2
ACAD_ISO02W100
 70
0
  3
ISO Dashed __ __ __ __ __ __ __ __ __ __ _
 72
65
 73
2
 40
15.0
 49
12.0
 74
0
 49
-3.0
 74
0
  0
LTYPE
  5
32
100
AcDbSymbolTableRecord
100
AcDbLinetypeTableRecord
  2
ACAD_ISO03W100
 70
0
  3
ISO Dashed with Distance __    __    __    _
 72
65
 73
2
 40
30.0
 49
12.0
 74
0
 49
-18.0
 74
0
  0
LTYPE
  5
33
100
AcDbSymbolTableRecord
100
AcDbLinetypeTableRecord
  2
ACAD_ISO04W100
 70
0
  3
ISO Long Dashed Dotted ____ . ____ . __
 72
65
 73
4
 40
30.0
 49
24.0
 74
0
 49
-3.0
 74
0
 49
0.0
 74
0
 49
-3.0
 74
0
  0
LTYPE
  5
34
100
AcDbSymbolTableRecord
100
AcDbLinetypeTableRecord
  2
ACAD_ISO05W100
 70
0
  3
ISO Long Dashed Double Dotted ____ .. __
 72
65
 73
6
 40
33.0
 49
24.0
 74
0
 49
-3.0
 74
0
 49
0.0
 74
0
 49
-3.0
 74
0
 49
0.0
 74
0
 49
-3.0
 74
0
  0
LTYPE
  5
35
100
AcDbSymbolTableRecord
100
AcDbLinetypeTableRecord
  2
BORDER
 70
0
  3
Border __ __ . __ __ . __ __ . __ __ . __ __ .
 72
65
 73
6
 40
44.450000000000003
 49
12.699999999999999
 74
0
 49
-6.3499999999999996
 74
0
 49
12.699999999999999
 74
0
 49
-6.3499999999999996
 74
0
 49
0.0
 74
0
 49
-6.3499999999999996
 74
0
  0
LTYPE
  5
36
100
AcDbSymbolTableRecord
100
AcDbLinetypeTableRecord
  2
BORDER2
 70
0
  3
Border (.5x) __.__.__.__.__.__.__.__.__.__.__.
 72
65
 73
6
 40
22.225000000000001
 49
6.3499999999999996
 74
0
 49
-3.1749999999999998
 74
0
 49
6.3499999999999996
 74
0
 49
-3.1749999999999998
 74
0
 49
0.0
 74
0
 49
-3.1749999999999998
 74
0
  0
LTYPE
  5
37
100
AcDbSymbolTableRecord
100
AcDbLinetypeTableRecord
  2
BORDERX2
 70
0
  3
Border (2x) ____  ____  .  ____  ____  .  ___
 72
65
 73
6
 40
88.900000000000006
 49
25.399999999999999
 74
0
 49
-12.699999999999999
 74
0
 49
25.399999999999999
 74
0
 49
-12.699999999999999
 74
0
 49
0.0
 74
0
 49
-12.699999999999999
 74
0
  0
LTYPE
  5
38
100
AcDbSymbolTableRecord
100
AcDbLinetypeTableRecord
  2
CENTER
 70
0
  3
Center ____ _ ____ _ ____ _ ____ _ ____ _ ____
 72
65
 73
4
 40
50.799999999999997
 49
31.75
 74
0
 49
-6.3499999999999996
 74
0
 49
6.3499999999999996
 74
0
 49
-6.3499999999999996
 74
0
  0
LTYPE
  5
39
100
AcDbSymbolTableRecord
100
AcDbLinetypeTableRecord
  2
CENTER2
 70
0
  3
Center (.5x) ___ _ ___ _ ___ _ ___ _ ___ _ ___
 72
65
 73
4
 40
28.574999999999999
 49
19.050000000000001
 74
0
 49
-3.1749999999999998
 74
0
 49
3.1749999999999998
 74
0
 49
-3.1749999999999998
 74
0
  0
LTYPE
  5
3A
100
AcDbSymbolTableRecord
100
AcDbLinetypeTableRecord
  2
CENTERX2
 70
0
  3
Center (2x) ________  __  ________  __  _____
 72
65
 73
4
 40
101.59999999999999
 49
63.5
 74
0
 49
-12.699999999999999
 74
0
 49
12.699999999999999
 74
0
 49
-12.699999999999999
 74
0
  0
LTYPE
  5
3B
100
AcDbSymbolTableRecord
100
AcDbLinetypeTableRecord
  2
DASHDOT
 70
0
  3
Dash dot __ . __ . __ . __ . __ . __ . __ . __
 72
65
 73
4
 40
25.399999999999999
 49
12.699999999999999
 74
0
 49
-6.3499999999999996
 74
0
 49
0.0
 74
0
 49
-6.3499999999999996
 74
0
  0
LTYPE
  5
3C
100
AcDbSymbolTableRecord
100
AcDbLinetypeTableRecord
  2
DASHDOT2
 70
0
  3
Dash dot (.5x) _._._._._._._._._._._._._._._.
 72
65
 73
4
 40
12.699999999999999
 49
6.3499999999999996
 74
0
 49
-3.1749999999999998
 74
0
 49
0.0
 74
0
 49
-3.1749999999999998
 74
0
  0
LTYPE
  5
3D
100
AcDbSymbolTableRecord
100
AcDbLinetypeTableRecord
  2
DASHDOTX2
 70
0
  3
Dash dot (2x) ____  .  ____  .  ____  .  ___
 72
65
 73
4
 40
50.799999999999997
 49
25.399999999999999
 74
0
 49
-12.699999999999999
 74
0
 49
0.0
 74
0
 49
-12.699999999999999
 74
0
  0
LTYPE
  5
3E
100
AcDbSymbolTableRecord
100
AcDbLinetypeTableRecord
  2
DASHED
 70
0
  3
Dashed __ __ __ __ __ __ __ __ __ __ __ __ __ _
 72
65
 73
2
 40
19.050000000000001
 49
12.699999999999999
 74
0
 49
-6.3499999999999996
 74
0
  0
LTYPE
  5
3F
100
AcDbSymbolTableRecord
100
AcDbLinetypeTableRecord
  2
DASHED2
 70
0
  3
Dashed (.5x) _ _ _ _ _ _ _ _ _ _ _ _ _ _ _ _ _
 72
65
 73
2
 40
9.5250000000000004
 49
6.3499999999999996
 74
0
 49
-3.1749999999999998
 74
0
  0
LTYPE
  5
40
100
AcDbSymbolTableRecord
100
AcDbLinetypeTableRecord
  2
DASHEDX2
 70
0
  3
Dashed (2x) ____  ____  ____  ____  ____  ___
 72
65
 73
2
 40
38.100000000000001
 49
25.399999999999999
 74
0
 49
-12.699999999999999
 74
0
  0
LTYPE
  5
41
100
AcDbSymbolTableRecord
100
AcDbLinetypeTableRecord
  2
DIVIDE
 70
0
  3
Divide ____ . . ____ . . ____ . . ____ . . ____
 72
65
 73
6
 40
31.75
 49
12.699999999999999
 74
0
 49
-6.3499999999999996
 74
0
 49
0.0
 74
0
 49
-6.3499999999999996
 74
0
 49
0.0
 74
0
 49
-6.3499999999999996
 74
0
  0
LTYPE
  5
42
100
AcDbSymbolTableRecord
100
AcDbLinetypeTableRecord
  2
DIVIDE2
 70
0
  3
Divide (.5x) __..__..__..__..__..__..__..__.._
 72
65
 73
6
 40
15.875
 49
6.3499999999999996
 74
0
 49
-3.1749999999999998
 74
0
 49
0.0
 74
0
 49
-3.1749999999999998
 74
0
 49
0.0
 74
0
 49
-3.1749999999999998
 74
0
  0
LTYPE
  5
43
100
AcDbSymbolTableRecord
100
AcDbLinetypeTableRecord
  2
DIVIDEX2
 70
0
  3
Divide (2x) ________  .  .  ________  .  .  _
 72
65
 73
6
 40
63.5
 49
25.399999999999999
 74
0
 49
-12.699999999999999
 74
0
 49
0.0
 74
0
 49
-12.699999999999999
 74
0
 49
0.0
 74
0
 49
-12.699999999999999
 74
0
  0
LTYPE
  5
44
100
AcDbSymbolTableRecord
100
AcDbLinetypeTableRecord
  2
DOT
 70
0
  3
Dot . . . . . . . . . . . . . . . . . . . . . .
 72
65
 73
2
 40
6.3499999999999996
 49
0.0
 74
0
 49
-6.3499999999999996
 74
0
  0
LTYPE
  5
45
100
AcDbSymbolTableRecord
100
AcDbLinetypeTableRecord
  2
DOT2
 70
0
  3
Dot (.5x) .....................................
 72
65
 73
2
 40
3.1749999999999998
 49
0.0
 74
0
 49
-3.1749999999999998
 74
0
  0
LTYPE
  5
46
100
AcDbSymbolTableRecord
100
AcDbLinetypeTableRecord
  2
DOTX2
 70
0
  3
Dot (2x) .  .  .  .  .  .  .  .  .  .  .  .  .
 72
65
 73
2
 40
12.699999999999999
 49
0.0
 74
0
 49
-12.699999999999999
 74
0
  0
ENDTAB
  0
TABLE
  2
LAYER
  5
2
100
AcDbSymbolTable
 70
5
  0
LAYER
  5
10
100
AcDbSymbolTableRecord
100
AcDbLayerTableRecord
  2
0
 70
0
 62
250
  6
CONTINUOUS
370
100
390
F
  0
LAYER
  5
47
100
AcDbSymbolTableRecord
100
AcDbLayerTableRecord
  2
H
 70
0
 62
7
  6
CONTINUOUS
370
100
390
F
  0
LAYER
  5
48
100
AcDbSymbolTableRecord
100
AcDbLayerTableRecord
  2
P
 70
0
 62
250
  6
CONTINUOUS
370
100
390
F
  0
LAYER
  5
49
100
AcDbSymbolTableRecord
100
AcDbLayerTableRecord
  2
Text
 70
0
 62
250
  6
CONTINUOUS
370
100
390
F
  0
LAYER
  5
4A
100
AcDbSymbolTableRecord
100
AcDbLayerTableRecord
  2
Images
 70
0
 62
250
  6
CONTINUOUS
370
100
390
F
  0
ENDTAB
  0
TABLE
  2
STYLE
  5
3
100
AcDbSymbolTable
 70
1
  0
STYLE
  5
11
100
AcDbSymbolTableRecord
100
AcDbTextStyleTableRecord
  2
Standard
 70
0
 40
0.0
 41
0.75
 50
0.0
 71
0
 42
2.5
  3
txt
  4

  0
ENDTAB
  0
TABLE
  2
VIEW
  5
6
100
AcDbSymbolTable
 70
0
  0
ENDTAB
  0
TABLE
  2
UCS
  5
7
100
AcDbSymbolTable
 70
0
  0
ENDTAB
  0
TABLE
  2
APPID
  5
9
100
AcDbSymbolTable
 70
1
  0
APPID
  5
12
100
AcDbSymbolTableRecord
100
AcDbRegAppTableRecord
  2
ACAD
 70
0
  0
ENDTAB
  0
TABLE
  2
DIMSTYLE
  5
A
100
AcDbSymbolTable
 70
1
100
AcDbDimStyleTable
 71
0
  0
DIMSTYLE
105
27
100
AcDbSymbolTableRecord
100
AcDbDimStyleTableRecord
  2
Standard
 41
1.0
 42
1.0
 43
3.75
 44
1.0
 70
0
 73
0
 74
0
 77
1
 78
8
140
1.0
141
2.5
143
0.03937007874016
147
1.0
171
3
172
1
271
2
272
2
274
3
278
44
283
0
284
8
340
11
  0
ENDTAB
  0
TABLE
  2
BLOCK_RECORD
  5
1
100
AcDbSymbolTable
 70
1
  0
BLOCK_RECORD
  5
1F
100
AcDbSymbolTableRecord
100
AcDbBlockTableRecord
  2
*Model_Space
340
22
  0
BLOCK_RECORD
  5
1B
100
AcDbSymbolTableRecord
100
AcDbBlockTableRecord
  2
*Paper_Space
340
1E
  0
BLOCK_RECORD
  5
23
100
AcDbSymbolTableRecord
100
AcDbBlockTableRecord
  2
*Paper_Space0
340
26
  0
ENDTAB
  0
ENDSEC
  0
SECTION
  2
BLOCKS
  0
BLOCK
  5
20
100
AcDbEntity
  8
0
100
AcDbBlockBegin
  2
*Model_Space
 70
0
 10
0.0
 20
0.0
 30
0.0
  3
*Model_Space
  1

  0
ENDBLK
  5
21
100
AcDbEntity
  8
0
100
AcDbBlockEnd
  0
BLOCK
  5
1C
100
AcDbEntity
 67
1
  8
0
100
AcDbBlockBegin
  2
*Paper_Space
 70
0
 10
0.0
 20
0.0
 30
0.0
  3
*Paper_Space
  1

  0
ENDBLK
  5
1D
100
AcDbEntity
 67
1
  8
0
100
AcDbBlockEnd
  0
BLOCK
  5
24
100
AcDbEntity
  8
0
100
AcDbBlockBegin
  2
*Paper_Space0
 70
0
 10
0.0
 20
0.0
 30
0.0
  3
*Paper_Space0
  1

  0
ENDBLK
  5
25
100
AcDbEntity
  8
0
100
AcDbBlockEnd
  0
ENDSEC
  0
SECTION
  2
ENTITIES
  0
MTEXT
  5
4B
100
AcDbEntity
100
AcDbMText
  8
Text
 62
240
370
-1
  6
BYLAYER
 10
238.0
 20
0.0
 30
0.0
 40
2.0
 41
119.0
 71
4
 72
5
  1
Unregistered Version - http://www.anydwg.com
  7
Standard
 50
0.0
 73
2
 44
1.0
  0
LWPOLYLINE
  5
4C
  8
P
 62
0
370
-1
  6
CONTINUOUS
100
AcDbEntity
100
AcDbPolyline
 90
5
 70
0
 10
201.66666666666666
 20
144.86666666666667
 10
200.0
 20
147.80000000000001
 10
229.46666666666667
 20
164.80000000000001
 10
231.13333333333333
 20
161.86666666666667
 10
201.66666666666666
 20
144.86666666666667
  0
LWPOLYLINE
  5
4D
  8
P
 62
0
370
-1
  6
CONTINUOUS
100
AcDbEntity
100
AcDbPolyline
 90
2
 70
0
 10
165.40000000000001
 20
223.46666666666667
 10
165.40000000000001
 20
206.13333333333333
  0
LWPOLYLINE
  5
4E
  8
P
 62
0
370
-1
  6
CONTINUOUS
100
AcDbEntity
100
AcDbPolyline
 90
33
 70
0
 10
155.59999999999999
 20
212.53333333333333
 10
155.59999999999999
 20
212.86666666666667
 10
155.46666666666667
 20
213.19999999999999
 10
155.33333333333334
 20
213.46666666666667
 10
155.13333333333333
 20
213.73333333333335
 10
154.86666666666667
 20
213.93333333333334
 10
154.59999999999999
 20
214.06666666666666
 10
154.26666666666668
 20
214.19999999999999
 10
153.93333333333334
 20
214.19999999999999
 10
153.59999999999999
 20
214.19999999999999
 10
153.26666666666668
 20
214.06666666666666
 10
152.93333333333334
 20
213.93333333333334
 10
152.73333333333332
 20
213.73333333333335
 10
152.53333333333333
 20
213.46666666666667
 10
152.33333333333334
 20
213.19999999999999
 10
152.26666666666668
 20
212.86666666666667
 10
152.19999999999999
 20
212.53333333333333
 10
152.26666666666668
 20
212.13333333333333
 10
152.33333333333334
 20
211.86666666666667
 10
152.53333333333333
 20
211.53333333333333
 10
152.73333333333332
 20
211.33333333333331
 10
152.93333333333334
 20
211.06666666666666
 10
153.26666666666668
 20
210.93333333333334
 10
153.59999999999999
 20
210.86666666666667
 10
153.93333333333334
 20
210.80000000000001
 10
154.26666666666668
 20
210.86666666666667
 10
154.59999999999999
 20
210.93333333333334
 10
154.86666666666667
 20
211.06666666666666
 10
155.13333333333333
 20
211.33333333333331
 10
155.33333333333334
 20
211.53333333333333
 10
155.46666666666667
 20
211.86666666666667
 10
155.59999999999999
 20
212.13333333333333
 10
155.59999999999999
 20
212.53333333333333
  0
LWPOLYLINE
  5
4F
  8
P
 62
0
370
-1
  6
CONTINUOUS
100
AcDbEntity
100
AcDbPolyline
 90
33
 70
0
 10
144.26666666666668
 20
212.53333333333333
 10
144.26666666666668
 20
212.86666666666667
 10
144.13333333333333
 20
213.19999999999999
 10
144.0
 20
213.46666666666667
 10
143.80000000000001
 20
213.73333333333335
 10
143.53333333333333
 20
213.93333333333334
 10
143.26666666666668
 20
214.06666666666666
 10
142.93333333333334
 20
214.19999999999999
 10
142.59999999999999
 20
214.19999999999999
 10
142.26666666666668
 20
214.19999999999999
 10
141.93333333333334
 20
214.06666666666666
 10
141.59999999999999
 20
213.93333333333334
 10
141.40000000000001
 20
213.73333333333335
 10
141.19999999999999
 20
213.46666666666667
 10
141.0
 20
213.19999999999999
 10
140.93333333333334
 20
212.86666666666667
 10
140.86666666666667
 20
212.53333333333333
 10
140.93333333333334
 20
212.13333333333333
 10
141.0
 20
211.86666666666667
 10
141.19999999999999
 20
211.53333333333333
 10
141.40000000000001
 20
211.33333333333331
 10
141.59999999999999
 20
211.06666666666666
 10
141.93333333333334
 20
210.93333333333334
 10
142.26666666666668
 20
210.86666666666667
 10
142.59999999999999
 20
210.80000000000001
 10
142.93333333333334
 20
210.86666666666667
 10
143.26666666666668
 20
210.93333333333334
 10
143.53333333333333
 20
211.06666666666666
 10
143.80000000000001
 20
211.33333333333331
 10
144.0
 20
211.53333333333333
 10
144.13333333333333
 20
211.86666666666667
 10
144.26666666666668
 20
212.13333333333333
 10
144.26666666666668
 20
212.53333333333333
  0
LWPOLYLINE
  5
50
  8
P
 62
0
370
-1
  6
CONTINUOUS
100
AcDbEntity
100
AcDbPolyline
 90
41
 70
0
 10
64.599999999999994
 20
214.80000000000001
 10
64.599999999999994
 20
215.0
 10
64.533333333333331
 20
215.13333333333333
 10
64.466666666666669
 20
215.53333333333333
 10
64.266666666666666
 20
215.86666666666667
 10
64.066666666666663
 20
216.13333333333333
 10
63.733333333333334
 20
216.40000000000001
 10
63.399999999999999
 20
216.53333333333333
 10
63.06666666666667
 20
216.66666666666669
 10
62.866666666666667
 20
216.66666666666669
 10
62.666666666666664
 20
216.73333333333335
 10
62.466666666666669
 20
216.66666666666669
 10
62.266666666666666
 20
216.66666666666669
 10
61.93333333333333
 20
216.53333333333333
 10
61.600000000000001
 20
216.40000000000001
 10
61.333333333333336
 20
216.13333333333333
 10
61.06666666666667
 20
215.86666666666667
 10
60.866666666666667
 20
215.53333333333333
 10
60.799999999999997
 20
215.13333333333333
 10
60.733333333333334
 20
215.0
 10
60.733333333333334
 20
214.80000000000001
 10
60.733333333333334
 20
214.59999999999999
 10
60.799999999999997
 20
214.40000000000001
 10
60.866666666666667
 20
214.0
 10
61.06666666666667
 20
213.66666666666669
 10
61.333333333333336
 20
213.40000000000001
 10
61.600000000000001
 20
213.19999999999999
 10
61.93333333333333
 20
213.0
 10
62.266666666666666
 20
212.86666666666667
 10
62.466666666666669
 20
212.86666666666667
 10
62.666666666666664
 20
212.86666666666667
 10
62.866666666666667
 20
212.86666666666667
 10
63.06666666666667
 20
212.86666666666667
 10
63.399999999999999
 20
213.0
 10
63.733333333333334
 20
213.19999999999999
 10
64.066666666666663
 20
213.40000000000001
 10
64.266666666666666
 20
213.66666666666669
 10
64.466666666666669
 20
214.0
 10
64.533333333333331
 20
214.40000000000001
 10
64.599999999999994
 20
214.59999999999999
 10
64.599999999999994
 20
214.80000000000001
  0
LWPOLYLINE
  5
51
  8
P
 62
0
370
-1
  6
CONTINUOUS
100
AcDbEntity
100
AcDbPolyline
 90
41
 70
0
 10
107.40000000000001
 20
140.66666666666666
 10
107.40000000000001
 20
140.86666666666667
 10
107.33333333333333
 20
141.06666666666666
 10
107.26666666666667
 20
141.40000000000001
 10
107.06666666666666
 20
141.73333333333332
 10
106.8
 20
142.0
 10
106.53333333333333
 20
142.26666666666668
 10
106.2
 20
142.46666666666667
 10
105.86666666666666
 20
142.53333333333333
 10
105.66666666666667
 20
142.59999999999999
 10
105.46666666666667
 20
142.59999999999999
 10
105.26666666666667
 20
142.59999999999999
 10
105.06666666666666
 20
142.53333333333333
 10
104.73333333333333
 20
142.46666666666667
 10
104.40000000000001
 20
142.26666666666668
 10
104.06666666666666
 20
142.0
 10
103.86666666666666
 20
141.73333333333332
 10
103.66666666666667
 20
141.40000000000001
 10
103.59999999999999
 20
141.06666666666666
 10
103.53333333333333
 20
140.86666666666667
 10
103.53333333333333
 20
140.66666666666666
 10
103.53333333333333
 20
140.46666666666667
 10
103.59999999999999
 20
140.26666666666668
 10
103.66666666666667
 20
139.93333333333334
 10
103.86666666666666
 20
139.59999999999999
 10
104.06666666666666
 20
139.33333333333334
 10
104.40000000000001
 20
139.06666666666666
 10
104.73333333333333
 20
138.86666666666667
 10
105.06666666666666
 20
138.80000000000001
 10
105.26666666666667
 20
138.73333333333332
 10
105.46666666666667
 20
138.73333333333332
 10
105.66666666666667
 20
138.73333333333332
 10
105.86666666666666
 20
138.80000000000001
 10
106.2
 20
138.86666666666667
 10
106.53333333333333
 20
139.06666666666666
 10
106.8
 20
139.33333333333334
 10
107.06666666666666
 20
139.59999999999999
 10
107.26666666666667
 20
139.93333333333334
 10
107.33333333333333
 20
140.26666666666668
 10
107.40000000000001
 20
140.46666666666667
 10
107.40000000000001
 20
140.66666666666666
  0
LWPOLYLINE
  5
52
  8
P
 62
0
370
-1
  6
CONTINUOUS
100
AcDbEntity
100
AcDbPolyline
 90
41
 70
0
 10
192.93333333333334
 20
140.66666666666666
 10
192.93333333333334
 20
140.86666666666667
 10
192.93333333333334
 20
141.06666666666666
 10
192.80000000000001
 20
141.40000000000001
 10
192.59999999999999
 20
141.73333333333332
 10
192.40000000000001
 20
142.0
 10
192.13333333333333
 20
142.26666666666668
 10
191.80000000000001
 20
142.46666666666667
 10
191.40000000000001
 20
142.53333333333333
 10
191.19999999999999
 20
142.59999999999999
 10
191.0
 20
142.59999999999999
 10
190.80000000000001
 20
142.59999999999999
 10
190.66666666666666
 20
142.53333333333333
 10
190.26666666666668
 20
142.46666666666667
 10
189.93333333333334
 20
142.26666666666668
 10
189.66666666666666
 20
142.0
 10
189.40000000000001
 20
141.73333333333332
 10
189.26666666666668
 20
141.40000000000001
 10
189.13333333333333
 20
141.06666666666666
 10
189.13333333333333
 20
140.86666666666667
 10
189.13333333333333
 20
140.66666666666666
 10
189.13333333333333
 20
140.46666666666667
 10
189.13333333333333
 20
140.26666666666668
 10
189.26666666666668
 20
139.93333333333334
 10
189.40000000000001
 20
139.59999999999999
 10
189.66666666666666
 20
139.33333333333334
 10
189.93333333333334
 20
139.06666666666666
 10
190.26666666666668
 20
138.86666666666667
 10
190.66666666666666
 20
138.80000000000001
 10
190.80000000000001
 20
138.73333333333332
 10
191.0
 20
138.73333333333332
 10
191.19999999999999
 20
138.73333333333332
 10
191.40000000000001
 20
138.80000000000001
 10
191.80000000000001
 20
138.86666666666667
 10
192.13333333333333
 20
139.06666666666666
 10
192.40000000000001
 20
139.33333333333334
 10
192.59999999999999
 20
139.59999999999999
 10
192.80000000000001
 20
139.93333333333334
 10
192.93333333333334
 20
140.26666666666668
 10
192.93333333333334
 20
140.46666666666667
 10
192.93333333333334
 20
140.66666666666666
  0
LWPOLYLINE
  5
53
  8
P
 62
0
370
-1
  6
CONTINUOUS
100
AcDbEntity
100
AcDbPolyline
 90
41
 70
0
 10
235.73333333333332
 20
214.80000000000001
 10
235.73333333333332
 20
215.0
 10
235.73333333333332
 20
215.13333333333333
 10
235.59999999999999
 20
215.53333333333333
 10
235.40000000000001
 20
215.86666666666667
 10
235.19999999999999
 20
216.13333333333333
 10
234.86666666666667
 20
216.40000000000001
 10
234.53333333333333
 20
216.53333333333333
 10
234.19999999999999
 20
216.66666666666669
 10
234.0
 20
216.66666666666669
 10
233.80000000000001
 20
216.73333333333335
 10
233.59999999999999
 20
216.66666666666669
 10
233.40000000000001
 20
216.66666666666669
 10
233.06666666666666
 20
216.53333333333333
 10
232.73333333333332
 20
216.40000000000001
 10
232.46666666666667
 20
216.13333333333333
 10
232.19999999999999
 20
215.86666666666667
 10
232.06666666666666
 20
215.53333333333333
 10
231.93333333333334
 20
215.13333333333333
 10
231.86666666666667
 20
215.0
 10
231.86666666666667
 20
214.80000000000001
 10
231.86666666666667
 20
214.59999999999999
 10
231.93333333333334
 20
214.40000000000001
 10
232.06666666666666
 20
214.0
 10
232.19999999999999
 20
213.66666666666669
 10
232.46666666666667
 20
213.40000000000001
 10
232.73333333333332
 20
213.19999999999999
 10
233.06666666666666
 20
213.0
 10
233.40000000000001
 20
212.86666666666667
 10
233.59999999999999
 20
212.86666666666667
 10
233.80000000000001
 20
212.86666666666667
 10
234.0
 20
212.86666666666667
 10
234.19999999999999
 20
212.86666666666667
 10
234.53333333333333
 20
213.0
 10
234.86666666666667
 20
213.19999999999999
 10
235.19999999999999
 20
213.40000000000001
 10
235.40000000000001
 20
213.66666666666669
 10
235.59999999999999
 20
214.0
 10
235.73333333333332
 20
214.40000000000001
 10
235.73333333333332
 20
214.59999999999999
 10
235.73333333333332
 20
214.80000000000001
  0
LWPOLYLINE
  5
54
  8
P
 62
0
370
-1
  6
CONTINUOUS
100
AcDbEntity
100
AcDbPolyline
 90
41
 70
0
 10
192.93333333333334
 20
288.86666666666667
 10
192.93333333333334
 20
289.06666666666666
 10
192.93333333333334
 20
289.26666666666665
 10
192.80000000000001
 20
289.60000000000002
 10
192.59999999999999
 20
289.93333333333334
 10
192.40000000000001
 20
290.26666666666665
 10
192.13333333333333
 20
290.4666666666667
 10
191.80000000000001
 20
290.66666666666669
 10
191.40000000000001
 20
290.80000000000001
 10
191.19999999999999
 20
290.80000000000001
 10
191.0
 20
290.80000000000001
 10
190.80000000000001
 20
290.80000000000001
 10
190.66666666666666
 20
290.80000000000001
 10
190.26666666666668
 20
290.66666666666669
 10
189.93333333333334
 20
290.4666666666667
 10
189.66666666666666
 20
290.26666666666665
 10
189.40000000000001
 20
289.93333333333334
 10
189.26666666666668
 20
289.60000000000002
 10
189.13333333333333
 20
289.26666666666665
 10
189.13333333333333
 20
289.06666666666666
 10
189.13333333333333
 20
288.86666666666667
 10
189.13333333333333
 20
288.66666666666669
 10
189.13333333333333
 20
288.4666666666667
 10
189.26666666666668
 20
288.13333333333333
 10
189.40000000000001
 20
287.80000000000001
 10
189.66666666666666
 20
287.5333333333333
 10
189.93333333333334
 20
287.26666666666665
 10
190.26666666666668
 20
287.13333333333333
 10
190.66666666666666
 20
287.0
 10
190.80000000000001
 20
286.93333333333334
 10
191.0
 20
286.93333333333334
 10
191.19999999999999
 20
286.93333333333334
 10
191.40000000000001
 20
287.0
 10
191.80000000000001
 20
287.13333333333333
 10
192.13333333333333
 20
287.26666666666665
 10
192.40000000000001
 20
287.5333333333333
 10
192.59999999999999
 20
287.80000000000001
 10
192.80000000000001
 20
288.13333333333333
 10
192.93333333333334
 20
288.4666666666667
 10
192.93333333333334
 20
288.66666666666669
 10
192.93333333333334
 20
288.86666666666667
  0
LWPOLYLINE
  5
55
  8
P
 62
0
370
-1
  6
CONTINUOUS
100
AcDbEntity
100
AcDbPolyline
 90
41
 70
0
 10
107.40000000000001
 20
288.86666666666667
 10
107.40000000000001
 20
289.06666666666666
 10
107.33333333333333
 20
289.26666666666665
 10
107.26666666666667
 20
289.60000000000002
 10
107.06666666666666
 20
289.93333333333334
 10
106.8
 20
290.26666666666665
 10
106.53333333333333
 20
290.4666666666667
 10
106.2
 20
290.66666666666669
 10
105.86666666666666
 20
290.80000000000001
 10
105.66666666666667
 20
290.80000000000001
 10
105.46666666666667
 20
290.80000000000001
 10
105.26666666666667
 20
290.80000000000001
 10
105.06666666666666
 20
290.80000000000001
 10
104.73333333333333
 20
290.66666666666669
 10
104.40000000000001
 20
290.4666666666667
 10
104.06666666666666
 20
290.26666666666665
 10
103.86666666666666
 20
289.93333333333334
 10
103.66666666666667
 20
289.60000000000002
 10
103.59999999999999
 20
289.26666666666665
 10
103.53333333333333
 20
289.06666666666666
 10
103.53333333333333
 20
288.86666666666667
 10
103.53333333333333
 20
288.66666666666669
 10
103.59999999999999
 20
288.4666666666667
 10
103.66666666666667
 20
288.13333333333333
 10
103.86666666666666
 20
287.80000000000001
 10
104.06666666666666
 20
287.5333333333333
 10
104.40000000000001
 20
287.26666666666665
 10
104.73333333333333
 20
287.13333333333333
 10
105.06666666666666
 20
287.0
 10
105.26666666666667
 20
286.93333333333334
 10
105.46666666666667
 20
286.93333333333334
 10
105.66666666666667
 20
286.93333333333334
 10
105.86666666666666
 20
287.0
 10
106.2
 20
287.13333333333333
 10
106.53333333333333
 20
287.26666666666665
 10
106.8
 20
287.5333333333333
 10
107.06666666666666
 20
287.80000000000001
 10
107.26666666666667
 20
288.13333333333333
 10
107.33333333333333
 20
288.4666666666667
 10
107.40000000000001
 20
288.66666666666669
 10
107.40000000000001
 20
288.86666666666667
  0
LWPOLYLINE
  5
56
  8
P
 62
0
370
-1
  6
CONTINUOUS
100
AcDbEntity
100
AcDbPolyline
 90
129
 70
0
 10
225.0
 20
237.46666666666667
 10
225.0
 20
237.80000000000001
 10
225.0
 20
238.13333333333333
 10
224.93333333333334
 20
238.46666666666667
 10
224.86666666666667
 20
238.80000000000001
 10
224.80000000000001
 20
239.13333333333333
 10
224.73333333333332
 20
239.46666666666667
 10
224.59999999999999
 20
239.80000000000001
 10
224.46666666666667
 20
240.06666666666666
 10
224.33333333333334
 20
240.40000000000001
 10
224.19999999999999
 20
240.66666666666669
 10
224.06666666666666
 20
240.93333333333334
 10
223.86666666666667
 20
241.26666666666665
 10
223.66666666666666
 20
241.53333333333333
 10
223.46666666666667
 20
241.73333333333335
 10
223.26666666666668
 20
242.0
 10
223.06666666666666
 20
242.26666666666665
 10
222.80000000000001
 20
242.46666666666667
 10
222.53333333333333
 20
242.66666666666669
 10
222.33333333333334
 20
242.86666666666667
 10
222.06666666666666
 20
243.06666666666666
 10
221.73333333333332
 20
243.26666666666665
 10
221.46666666666667
 20
243.40000000000001
 10
221.19999999999999
 20
243.59999999999999
 10
220.86666666666667
 20
243.73333333333335
 10
220.59999999999999
 20
243.80000000000001
 10
220.26666666666668
 20
243.93333333333334
 10
219.93333333333334
 20
244.0
 10
219.59999999999999
 20
244.13333333333333
 10
219.26666666666668
 20
244.13333333333333
 10
218.93333333333334
 20
244.19999999999999
 10
218.59999999999999
 20
244.19999999999999
 10
218.19999999999999
 20
244.26666666666665
 10
217.86666666666667
 20
244.19999999999999
 10
217.53333333333333
 20
244.19999999999999
 10
217.19999999999999
 20
244.13333333333333
 10
216.86666666666667
 20
244.13333333333333
 10
216.53333333333333
 20
244.0
 10
216.19999999999999
 20
243.93333333333334
 10
215.86666666666667
 20
243.80000000000001
 10
215.59999999999999
 20
243.73333333333335
 10
215.26666666666668
 20
243.59999999999999
 10
215.0
 20
243.40000000000001
 10
214.73333333333332
 20
243.26666666666665
 10
214.40000000000001
 20
243.06666666666666
 10
214.13333333333333
 20
242.86666666666667
 10
213.93333333333334
 20
242.66666666666669
 10
213.66666666666666
 20
242.46666666666667
 10
213.40000000000001
 20
242.26666666666665
 10
213.19999999999999
 20
242.0
 10
213.0
 20
241.73333333333335
 10
212.80000000000001
 20
241.53333333333333
 10
212.59999999999999
 20
241.26666666666665
 10
212.40000000000001
 20
240.93333333333334
 10
212.26666666666668
 20
240.66666666666669
 10
212.13333333333333
 20
240.40000000000001
 10
211.93333333333334
 20
240.06666666666666
 10
211.86666666666667
 20
239.80000000000001
 10
211.73333333333332
 20
239.46666666666667
 10
211.66666666666666
 20
239.13333333333333
 10
211.59999999999999
 20
238.80000000000001
 10
211.53333333333333
 20
238.46666666666667
 10
211.46666666666667
 20
238.13333333333333
 10
211.46666666666667
 20
237.80000000000001
 10
211.40000000000001
 20
237.46666666666667
 10
211.46666666666667
 20
237.06666666666666
 10
211.46666666666667
 20
236.73333333333335
 10
211.53333333333333
 20
236.40000000000001
 10
211.59999999999999
 20
236.06666666666666
 10
211.66666666666666
 20
235.73333333333335
 10
211.73333333333332
 20
235.40000000000001
 10
211.86666666666667
 20
235.13333333333333
 10
211.93333333333334
 20
234.80000000000001
 10
212.13333333333333
 20
234.46666666666667
 10
212.26666666666668
 20
234.19999999999999
 10
212.40000000000001
 20
233.93333333333334
 10
212.59999999999999
 20
233.66666666666669
 10
212.80000000000001
 20
233.40000000000001
 10
213.0
 20
233.13333333333333
 10
213.19999999999999
 20
232.86666666666667
 10
213.40000000000001
 20
232.59999999999999
 10
213.66666666666666
 20
232.40000000000001
 10
213.93333333333334
 20
232.19999999999999
 10
214.13333333333333
 20
232.0
 10
214.40000000000001
 20
231.80000000000001
 10
214.73333333333332
 20
231.59999999999999
 10
215.0
 20
231.46666666666667
 10
215.26666666666668
 20
231.33333333333331
 10
215.59999999999999
 20
231.19999999999999
 10
215.86666666666667
 20
231.06666666666666
 10
216.19999999999999
 20
230.93333333333334
 10
216.53333333333333
 20
230.86666666666667
 10
216.86666666666667
 20
230.80000000000001
 10
217.19999999999999
 20
230.73333333333335
 10
217.53333333333333
 20
230.66666666666669
 10
217.86666666666667
 20
230.66666666666669
 10
218.19999999999999
 20
230.66666666666669
 10
218.59999999999999
 20
230.66666666666669
 10
218.93333333333334
 20
230.66666666666669
 10
219.26666666666668
 20
230.73333333333335
 10
219.59999999999999
 20
230.80000000000001
 10
219.93333333333334
 20
230.86666666666667
 10
220.26666666666668
 20
230.93333333333334
 10
220.59999999999999
 20
231.06666666666666
 10
220.86666666666667
 20
231.19999999999999
 10
221.19999999999999
 20
231.33333333333331
 10
221.46666666666667
 20
231.46666666666667
 10
221.73333333333332
 20
231.59999999999999
 10
222.06666666666666
 20
231.80000000000001
 10
222.33333333333334
 20
232.0
 10
222.53333333333333
 20
232.19999999999999
 10
222.80000000000001
 20
232.40000000000001
 10
223.06666666666666
 20
232.59999999999999
 10
223.26666666666668
 20
232.86666666666667
 10
223.46666666666667
 20
233.13333333333333
 10
223.66666666666666
 20
233.40000000000001
 10
223.86666666666667
 20
233.66666666666669
 10
224.06666666666666
 20
233.93333333333334
 10
224.19999999999999
 20
234.19999999999999
 10
224.33333333333334
 20
234.46666666666667
 10
224.46666666666667
 20
234.80000000000001
 10
224.59999999999999
 20
235.13333333333333
 10
224.73333333333332
 20
235.40000000000001
 10
224.80000000000001
 20
235.73333333333335
 10
224.86666666666667
 20
236.06666666666666
 10
224.93333333333334
 20
236.40000000000001
 10
225.0
 20
236.73333333333335
 10
225.0
 20
237.06666666666666
 10
225.0
 20
237.46666666666667
  0
LWPOLYLINE
  5
57
  8
P
 62
0
370
-1
  6
CONTINUOUS
100
AcDbEntity
100
AcDbPolyline
 90
2
 70
0
 10
137.06666666666666
 20
206.26666666666668
 10
137.06666666666666
 20
206.13333333333333
  0
LWPOLYLINE
  5
58
  8
P
 62
0
370
-1
  6
CONTINUOUS
100
AcDbEntity
100
AcDbPolyline
 90
3
 70
0
 10
131.06666666666666
 20
223.46666666666667
 10
137.06666666666666
 20
223.46666666666667
 10
137.06666666666666
 20
223.26666666666665
  0
LWPOLYLINE
  5
59
  8
P
 62
0
370
-1
  6
CONTINUOUS
100
AcDbEntity
100
AcDbPolyline
 90
3
 70
0
 10
159.40000000000001
 20
223.26666666666665
 10
159.40000000000001
 20
223.46666666666667
 10
165.40000000000001
 20
223.46666666666667
  0
LWPOLYLINE
  5
5A
  8
P
 62
0
370
-1
  6
CONTINUOUS
100
AcDbEntity
100
AcDbPolyline
 90
2
 70
0
 10
159.40000000000001
 20
206.13333333333333
 10
159.40000000000001
 20
206.26666666666668
  0
LWPOLYLINE
  5
5B
  8
P
 62
0
370
-1
  6
CONTINUOUS
100
AcDbEntity
100
AcDbPolyline
 90
2
 70
0
 10
137.06666666666666
 20
206.13333333333333
 10
131.06666666666666
 20
206.13333333333333
  0
LWPOLYLINE
  5
5C
  8
P
 62
0
370
-1
  6
CONTINUOUS
100
AcDbEntity
100
AcDbPolyline
 90
2
 70
0
 10
165.40000000000001
 20
206.13333333333333
 10
159.40000000000001
 20
206.13333333333333
  0
LWPOLYLINE
  5
5D
  8
P
 62
0
370
-1
  6
CONTINUOUS
100
AcDbEntity
100
AcDbPolyline
 90
2
 70
0
 10
131.06666666666666
 20
206.13333333333333
 10
131.06666666666666
 20
223.46666666666667
  0
LWPOLYLINE
  5
5E
  8
P
 62
0
370
-1
  6
CONTINUOUS
100
AcDbEntity
100
AcDbPolyline
 90
17
 70
0
 10
58.399999999999999
 20
166.19999999999999
 10
58.466666666666669
 20
165.80000000000001
 10
58.466666666666669
 20
165.46666666666667
 10
58.533333333333331
 20
165.06666666666666
 10
58.600000000000001
 20
164.73333333333332
 10
58.733333333333334
 20
164.33333333333334
 10
58.866666666666667
 20
164.0
 10
59.0
 20
163.66666666666666
 10
59.200000000000003
 20
163.33333333333334
 10
59.399999999999999
 20
163.06666666666666
 10
59.600000000000001
 20
162.73333333333332
 10
59.799999999999997
 20
162.46666666666667
 10
60.06666666666667
 20
162.19999999999999
 10
60.333333333333336
 20
161.93333333333334
 10
60.600000000000001
 20
161.66666666666666
 10
60.93333333333333
 20
161.46666666666667
 10
61.266666666666666
 20
161.26666666666668
  0
LWPOLYLINE
  5
5F
  8
P
 62
0
370
-1
  6
CONTINUOUS
100
AcDbEntity
100
AcDbPolyline
 90
17
 70
0
 10
145.40000000000001
 20
112.66666666666666
 10
145.73333333333332
 20
112.53333333333333
 10
146.06666666666666
 20
112.33333333333334
 10
146.46666666666667
 20
112.19999999999999
 10
146.80000000000001
 20
112.13333333333333
 10
147.13333333333333
 20
112.06666666666666
 10
147.53333333333333
 20
112.0
 10
147.86666666666667
 20
111.93333333333334
 10
148.26666666666668
 20
111.93333333333334
 10
148.59999999999999
 20
111.93333333333334
 10
149.0
 20
112.0
 10
149.33333333333334
 20
112.06666666666666
 10
149.66666666666666
 20
112.13333333333333
 10
150.06666666666666
 20
112.19999999999999
 10
150.40000000000001
 20
112.33333333333334
 10
150.73333333333332
 20
112.53333333333333
 10
151.06666666666666
 20
112.66666666666666
  0
LWPOLYLINE
  5
60
  8
P
 62
0
370
-1
  6
CONTINUOUS
100
AcDbEntity
100
AcDbPolyline
 90
17
 70
0
 10
235.19999999999999
 20
161.26666666666668
 10
235.53333333333333
 20
161.46666666666667
 10
235.86666666666667
 20
161.66666666666666
 10
236.13333333333333
 20
161.93333333333334
 10
236.40000000000001
 20
162.19999999999999
 10
236.66666666666666
 20
162.46666666666667
 10
236.86666666666667
 20
162.73333333333332
 10
237.13333333333333
 20
163.06666666666666
 10
237.33333333333334
 20
163.33333333333334
 10
237.46666666666667
 20
163.66666666666666
 10
237.59999999999999
 20
164.0
 10
237.73333333333332
 20
164.33333333333334
 10
237.86666666666667
 20
164.73333333333332
 10
237.93333333333334
 20
165.06666666666666
 10
238.0
 20
165.46666666666667
 10
238.06666666666666
 20
165.80000000000001
 10
238.06666666666666
 20
166.19999999999999
  0
LWPOLYLINE
  5
61
  8
P
 62
0
370
-1
  6
CONTINUOUS
100
AcDbEntity
100
AcDbPolyline
 90
17
 70
0
 10
61.266666666666666
 20
268.26666666666665
 10
60.93333333333333
 20
268.06666666666666
 10
60.600000000000001
 20
267.86666666666667
 10
60.333333333333336
 20
267.60000000000002
 10
60.06666666666667
 20
267.33333333333331
 10
59.799999999999997
 20
267.06666666666666
 10
59.600000000000001
 20
266.80000000000001
 10
59.399999999999999
 20
266.5333333333333
 10
59.200000000000003
 20
266.19999999999999
 10
59.0
 20
265.86666666666667
 10
58.866666666666667
 20
265.5333333333333
 10
58.733333333333334
 20
265.19999999999999
 10
58.600000000000001
 20
264.86666666666667
 10
58.533333333333331
 20
264.4666666666667
 10
58.466666666666669
 20
264.13333333333333
 10
58.466666666666669
 20
263.73333333333335
 10
58.399999999999999
 20
263.33333333333331
  0
LWPOLYLINE
  5
62
  8
P
 62
0
370
-1
  6
CONTINUOUS
100
AcDbEntity
100
AcDbPolyline
 90
17
 70
0
 10
151.06666666666666
 20
316.86666666666667
 10
150.73333333333332
 20
317.0
 10
150.40000000000001
 20
317.19999999999999
 10
150.06666666666666
 20
317.33333333333331
 10
149.66666666666666
 20
317.39999999999998
 10
149.33333333333334
 20
317.53333333333336
 10
149.0
 20
317.53333333333336
 10
148.59999999999999
 20
317.60000000000002
 10
148.26666666666668
 20
317.60000000000002
 10
147.86666666666667
 20
317.60000000000002
 10
147.53333333333333
 20
317.53333333333336
 10
147.13333333333333
 20
317.53333333333336
 10
146.80000000000001
 20
317.39999999999998
 10
146.46666666666667
 20
317.33333333333331
 10
146.06666666666666
 20
317.19999999999999
 10
145.73333333333332
 20
317.0
 10
145.40000000000001
 20
316.86666666666667
  0
LWPOLYLINE
  5
63
  8
P
 62
0
370
-1
  6
CONTINUOUS
100
AcDbEntity
100
AcDbPolyline
 90
17
 70
0
 10
238.06666666666666
 20
263.33333333333331
 10
238.06666666666666
 20
263.73333333333335
 10
238.0
 20
264.13333333333333
 10
237.93333333333334
 20
264.4666666666667
 10
237.86666666666667
 20
264.86666666666667
 10
237.73333333333332
 20
265.19999999999999
 10
237.59999999999999
 20
265.5333333333333
 10
237.46666666666667
 20
265.86666666666667
 10
237.33333333333334
 20
266.19999999999999
 10
237.13333333333333
 20
266.5333333333333
 10
236.86666666666667
 20
266.80000000000001
 10
236.66666666666666
 20
267.06666666666666
 10
236.40000000000001
 20
267.33333333333331
 10
236.13333333333333
 20
267.60000000000002
 10
235.86666666666667
 20
267.86666666666667
 10
235.53333333333333
 20
268.06666666666666
 10
235.19999999999999
 20
268.26666666666665
  0
LWPOLYLINE
  5
64
  8
P
 62
0
370
-1
  6
CONTINUOUS
100
AcDbEntity
100
AcDbPolyline
 90
2
 70
0
 10
229.53333333333333
 20
167.80000000000001
 10
229.53333333333333
 20
261.73333333333335
  0
LWPOLYLINE
  5
65
  8
P
 62
0
370
-1
  6
CONTINUOUS
100
AcDbEntity
100
AcDbPolyline
 90
5
 70
0
 10
212.53333333333333
 20
203.46666666666667
 10
223.86666666666667
 20
203.46666666666667
 10
223.86666666666667
 20
183.06666666666666
 10
212.53333333333333
 20
183.06666666666666
 10
212.53333333333333
 20
203.46666666666667
  0
LWPOLYLINE
  5
66
  8
P
 62
0
370
-1
  6
CONTINUOUS
100
AcDbEntity
100
AcDbPolyline
 90
2
 70
0
 10
235.19999999999999
 20
268.26666666666665
 10
151.06666666666666
 20
316.86666666666667
  0
LWPOLYLINE
  5
67
  8
P
 62
0
370
-1
  6
CONTINUOUS
100
AcDbEntity
100
AcDbPolyline
 90
2
 70
0
 10
145.40000000000001
 20
316.86666666666667
 10
61.266666666666666
 20
268.26666666666665
  0
LWPOLYLINE
  5
68
  8
P
 62
0
370
-1
  6
CONTINUOUS
100
AcDbEntity
100
AcDbPolyline
 90
2
 70
0
 10
58.399999999999999
 20
263.33333333333331
 10
58.399999999999999
 20
166.19999999999999
  0
LWPOLYLINE
  5
69
  8
P
 62
0
370
-1
  6
CONTINUOUS
100
AcDbEntity
100
AcDbPolyline
 90
2
 70
0
 10
151.06666666666666
 20
112.66666666666666
 10
235.19999999999999
 20
161.26666666666668
  0
LWPOLYLINE
  5
6A
  8
P
 62
0
370
-1
  6
CONTINUOUS
100
AcDbEntity
100
AcDbPolyline
 90
3
 70
0
 10
229.53333333333333
 20
261.73333333333335
 10
148.26666666666668
 20
308.66666666666669
 10
66.933333333333337
 20
261.73333333333335
  0
LWPOLYLINE
  5
6B
  8
P
 62
0
370
-1
  6
CONTINUOUS
100
AcDbEntity
100
AcDbPolyline
 90
4
 70
0
 10
66.933333333333337
 20
261.73333333333335
 10
66.933333333333337
 20
167.80000000000001
 10
148.26666666666668
 20
120.86666666666667
 10
229.53333333333333
 20
167.80000000000001
  0
LWPOLYLINE
  5
6C
  8
P
 62
0
370
-1
  6
CONTINUOUS
100
AcDbEntity
100
AcDbPolyline
 90
2
 70
0
 10
238.06666666666666
 20
166.19999999999999
 10
238.06666666666666
 20
263.33333333333331
  0
LWPOLYLINE
  5
6D
  8
P
 62
0
370
-1
  6
CONTINUOUS
100
AcDbEntity
100
AcDbPolyline
 90
2
 70
0
 10
61.266666666666666
 20
161.26666666666668
 10
145.40000000000001
 20
112.66666666666666
  0
LWPOLYLINE
  5
6E
  8
P
 62
0
370
-1
  6
CONTINUOUS
100
AcDbEntity
100
AcDbPolyline
 90
5
 70
0
 10
215.93333333333334
 20
188.73333333333332
 10
215.93333333333334
 20
185.33333333333334
 10
214.80000000000001
 20
185.33333333333334
 10
214.80000000000001
 20
188.73333333333332
 10
215.93333333333334
 20
188.73333333333332
  0
LWPOLYLINE
  5
6F
  8
P
 62
0
370
-1
  6
CONTINUOUS
100
AcDbEntity
100
AcDbPolyline
 90
5
 70
0
 10
215.93333333333334
 20
201.19999999999999
 10
215.93333333333334
 20
197.80000000000001
 10
214.80000000000001
 20
197.80000000000001
 10
214.80000000000001
 20
201.19999999999999
 10
215.93333333333334
 20
201.19999999999999
  0
LWPOLYLINE
  5
70
  8
P
 62
0
370
-1
  6
CONTINUOUS
100
AcDbEntity
100
AcDbPolyline
 90
2
 70
0
 10
212.53333333333333
 20
196.06666666666666
 10
218.33333333333334
 20
196.06666666666666
  0
LWPOLYLINE
  5
71
  8
P
 62
0
370
-1
  6
CONTINUOUS
100
AcDbEntity
100
AcDbPolyline
 90
2
 70
0
 10
218.33333333333334
 20
190.40000000000001
 10
212.53333333333333
 20
190.40000000000001
  0
LWPOLYLINE
  5
72
  8
P
 62
0
370
-1
  6
CONTINUOUS
100
AcDbEntity
100
AcDbPolyline
 90
33
 70
0
 10
218.33333333333334
 20
190.40000000000001
 10
218.66666666666666
 20
190.40000000000001
 10
218.93333333333334
 20
190.46666666666667
 10
219.19999999999999
 20
190.53333333333333
 10
219.46666666666667
 20
190.59999999999999
 10
219.66666666666666
 20
190.73333333333332
 10
219.93333333333334
 20
190.86666666666667
 10
220.13333333333333
 20
191.06666666666666
 10
220.33333333333334
 20
191.26666666666668
 10
220.53333333333333
 20
191.46666666666667
 10
220.66666666666666
 20
191.66666666666666
 10
220.86666666666667
 20
191.86666666666667
 10
220.93333333333334
 20
192.13333333333333
 10
221.06666666666666
 20
192.40000000000001
 10
221.13333333333333
 20
192.66666666666666
 10
221.13333333333333
 20
192.93333333333334
 10
221.19999999999999
 20
193.26666666666668
 10
221.13333333333333
 20
193.53333333333333
 10
221.13333333333333
 20
193.80000000000001
 10
221.06666666666666
 20
194.06666666666666
 10
220.93333333333334
 20
194.33333333333334
 10
220.86666666666667
 20
194.59999999999999
 10
220.66666666666666
 20
194.80000000000001
 10
220.53333333333333
 20
195.06666666666666
 10
220.33333333333334
 20
195.26666666666668
 10
220.13333333333333
 20
195.40000000000001
 10
219.93333333333334
 20
195.59999999999999
 10
219.66666666666666
 20
195.73333333333332
 10
219.46666666666667
 20
195.86666666666667
 10
219.19999999999999
 20
195.93333333333334
 10
218.93333333333334
 20
196.0
 10
218.66666666666666
 20
196.06666666666666
 10
218.33333333333334
 20
196.06666666666666
  0
LWPOLYLINE
  5
73
  8
P
 62
0
370
-1
  6
CONTINUOUS
100
AcDbEntity
100
AcDbPolyline
 90
2
 70
0
 10
200.19999999999999
 20
147.93333333333334
 10
229.26666666666668
 20
164.66666666666666
  0
LWPOLYLINE
  5
74
  8
P
 62
0
370
-1
  6
CONTINUOUS
100
AcDbEntity
100
AcDbPolyline
 90
4
 70
0
 10
229.26666666666668
 20
164.66666666666666
 10
230.80000000000001
 20
162.06666666666666
 10
201.73333333333332
 20
145.26666666666668
 10
200.19999999999999
 20
147.93333333333334
  0
LWPOLYLINE
  5
75
  8
P
 62
0
370
-1
  6
CONTINUOUS
100
AcDbEntity
100
AcDbPolyline
 90
2
 70
0
 10
215.93333333333334
 20
233.0
 10
215.93333333333334
 20
231.0
  0
LWPOLYLINE
  5
76
  8
P
 62
0
370
-1
  6
CONTINUOUS
100
AcDbEntity
100
AcDbPolyline
 90
3
 70
0
 10
214.80000000000001
 20
231.53333333333333
 10
214.80000000000001
 20
233.0
 10
215.93333333333334
 20
233.0
  0
LWPOLYLINE
  5
77
  8
P
 62
0
370
-1
  6
CONTINUOUS
100
AcDbEntity
100
AcDbPolyline
 90
4
 70
0
 10
215.93333333333334
 20
243.86666666666667
 10
215.93333333333334
 20
242.06666666666666
 10
214.80000000000001
 20
242.06666666666666
 10
214.80000000000001
 20
243.33333333333331
  0
LWPOLYLINE
  5
78
  8
P
 62
0
370
-1
  6
CONTINUOUS
100
AcDbEntity
100
AcDbPolyline
 90
2
 70
0
 10
212.06666666666666
 20
240.33333333333331
 10
218.33333333333334
 20
240.33333333333331
  0
LWPOLYLINE
  5
79
  8
P
 62
0
370
-1
  6
CONTINUOUS
100
AcDbEntity
100
AcDbPolyline
 90
2
 70
0
 10
218.33333333333334
 20
234.66666666666669
 10
212.0
 20
234.66666666666669
  0
LWPOLYLINE
  5
7A
  8
P
 62
0
370
-1
  6
CONTINUOUS
100
AcDbEntity
100
AcDbPolyline
 90
33
 70
0
 10
218.33333333333334
 20
234.66666666666669
 10
218.66666666666666
 20
234.66666666666669
 10
218.93333333333334
 20
234.73333333333335
 10
219.19999999999999
 20
234.80000000000001
 10
219.46666666666667
 20
234.86666666666667
 10
219.66666666666666
 20
235.0
 10
219.93333333333334
 20
235.13333333333333
 10
220.13333333333333
 20
235.33333333333331
 10
220.33333333333334
 20
235.46666666666667
 10
220.53333333333333
 20
235.73333333333335
 10
220.66666666666666
 20
235.93333333333334
 10
220.86666666666667
 20
236.13333333333333
 10
220.93333333333334
 20
236.40000000000001
 10
221.06666666666666
 20
236.66666666666669
 10
221.13333333333333
 20
236.93333333333334
 10
221.13333333333333
 20
237.19999999999999
 10
221.19999999999999
 20
237.53333333333333
 10
221.13333333333333
 20
237.80000000000001
 10
221.13333333333333
 20
238.06666666666666
 10
221.06666666666666
 20
238.33333333333331
 10
220.93333333333334
 20
238.59999999999999
 10
220.86666666666667
 20
238.86666666666667
 10
220.66666666666666
 20
239.06666666666666
 10
220.53333333333333
 20
239.33333333333331
 10
220.33333333333334
 20
239.53333333333333
 10
220.13333333333333
 20
239.66666666666669
 10
219.93333333333334
 20
239.86666666666667
 10
219.66666666666666
 20
240.0
 10
219.46666666666667
 20
240.13333333333333
 10
219.19999999999999
 20
240.19999999999999
 10
218.93333333333334
 20
240.26666666666665
 10
218.66666666666666
 20
240.33333333333331
 10
218.33333333333334
 20
240.33333333333331
  0
LWPOLYLINE
  5
7B
  8
P
 62
0
370
-1
  6
CONTINUOUS
100
AcDbEntity
100
AcDbPolyline
 90
5
 70
0
 10
165.26666666666668
 20
206.26666666666668
 10
131.26666666666668
 20
206.26666666666668
 10
131.26666666666668
 20
223.26666666666665
 10
165.26666666666668
 20
223.26666666666665
 10
165.26666666666668
 20
206.26666666666668
  0
LWPOLYLINE
  5
7C
  8
P
 62
0
370
-1
  6
CONTINUOUS
100
AcDbEntity
100
AcDbPolyline
 90
2
 70
0
 10
0.0
 20
-0.8000000000000114
 10
17.0
 20
-0.8000000000000114
  0
LWPOLYLINE
  5
7D
  8
P
 62
0
370
-1
  6
CONTINUOUS
100
AcDbEntity
100
AcDbPolyline
 90
2
 70
0
 10
459.0
 20
-0.8000000000000114
 10
476.0
 20
-0.8000000000000114
  0
LWPOLYLINE
  5
7E
  8
P
 62
0
370
-1
  6
CONTINUOUS
100
AcDbEntity
100
AcDbPolyline
 90
2
 70
0
 10
22.666666666666668
 20
10.53333333333336
 10
464.66666666666669
 20
10.53333333333336
  0
LWPOLYLINE
  5
7F
  8
P
 62
0
370
-1
  6
CONTINUOUS
100
AcDbEntity
100
AcDbPolyline
 90
2
 70
0
 10
476.0
 20
-0.8000000000000114
 10
476.0
 20
16.199999999999989
  0
LWPOLYLINE
  5
80
  8
P
 62
0
370
-1
  6
CONTINUOUS
100
AcDbEntity
100
AcDbPolyline
 90
3
 70
0
 10
476.0
 20
318.80000000000001
 10
476.0
 20
335.80000000000001
 10
459.0
 20
335.80000000000001
  0
LWPOLYLINE
  5
81
  8
P
 62
0
370
-1
  6
CONTINUOUS
100
AcDbEntity
100
AcDbPolyline
 90
2
 70
0
 10
17.0
 20
335.80000000000001
 10
0.0
 20
335.80000000000001
  0
LWPOLYLINE
  5
82
  8
P
 62
0
370
-1
  6
CONTINUOUS
100
AcDbEntity
100
AcDbPolyline
 90
2
 70
0
 10
464.66666666666669
 20
324.46666666666664
 10
22.666666666666668
 20
324.46666666666664
  0
LWPOLYLINE
  5
83
  8
P
 62
0
370
-1
  6
CONTINUOUS
100
AcDbEntity
100
AcDbPolyline
 90
2
 70
0
 10
0.0
 20
335.80000000000001
 10
0.0
 20
318.80000000000001
  0
LWPOLYLINE
  5
84
  8
P
 62
0
370
-1
  6
CONTINUOUS
100
AcDbEntity
100
AcDbPolyline
 90
2
 70
0
 10
0.0
 20
16.199999999999989
 10
0.0
 20
-0.8000000000000114
  0
LWPOLYLINE
  5
85
  8
P
 62
0
370
-1
  6
CONTINUOUS
100
AcDbEntity
100
AcDbPolyline
 90
2
 70
0
 10
22.666666666666668
 20
324.46666666666664
 10
22.666666666666668
 20
10.53333333333336
  0
LWPOLYLINE
  5
86
  8
P
 62
0
370
-1
  6
CONTINUOUS
100
AcDbEntity
100
AcDbPolyline
 90
2
 70
0
 10
464.66666666666669
 20
324.46666666666664
 10
464.66666666666669
 20
10.53333333333336
  0
LWPOLYLINE
  5
87
  8
P
 62
0
370
-1
  6
CONTINUOUS
100
AcDbEntity
100
AcDbPolyline
 90
2
 70
0
 10
243.66666666666666
 20
4.8666666666666742
 10
243.66666666666666
 20
16.199999999999989
  0
LWPOLYLINE
  5
88
  8
P
 62
0
370
-1
  6
CONTINUOUS
100
AcDbEntity
100
AcDbPolyline
 90
2
 70
0
 10
243.66666666666666
 20
330.13333333333333
 10
243.66666666666666
 20
318.80000000000001
  0
LWPOLYLINE
  5
89
  8
P
 62
0
370
-1
  6
CONTINUOUS
100
AcDbEntity
100
AcDbPolyline
 90
2
 70
0
 10
300.33333333333331
 20
330.13333333333333
 10
300.33333333333331
 20
324.46666666666664
  0
LWPOLYLINE
  5
8A
  8
P
 62
0
370
-1
  6
CONTINUOUS
100
AcDbEntity
100
AcDbPolyline
 90
2
 70
0
 10
357.0
 20
330.13333333333333
 10
357.0
 20
324.46666666666664
  0
LWPOLYLINE
  5
8B
  8
P
 62
0
370
-1
  6
CONTINUOUS
100
AcDbEntity
100
AcDbPolyline
 90
2
 70
0
 10
413.66666666666669
 20
330.13333333333333
 10
413.66666666666669
 20
324.46666666666664
  0
LWPOLYLINE
  5
8C
  8
P
 62
0
370
-1
  6
CONTINUOUS
100
AcDbEntity
100
AcDbPolyline
 90
2
 70
0
 10
187.0
 20
330.13333333333333
 10
187.0
 20
324.46666666666664
  0
LWPOLYLINE
  5
8D
  8
P
 62
0
370
-1
  6
CONTINUOUS
100
AcDbEntity
100
AcDbPolyline
 90
2
 70
0
 10
130.33333333333334
 20
330.13333333333333
 10
130.33333333333334
 20
324.46666666666664
  0
LWPOLYLINE
  5
8E
  8
P
 62
0
370
-1
  6
CONTINUOUS
100
AcDbEntity
100
AcDbPolyline
 90
2
 70
0
 10
73.666666666666671
 20
330.13333333333333
 10
73.666666666666671
 20
324.46666666666664
  0
LWPOLYLINE
  5
8F
  8
P
 62
0
370
-1
  6
CONTINUOUS
100
AcDbEntity
100
AcDbPolyline
 90
2
 70
0
 10
17.0
 20
167.53333333333333
 10
28.333333333333332
 20
167.53333333333333
  0
LWPOLYLINE
  5
90
  8
P
 62
0
370
-1
  6
CONTINUOUS
100
AcDbEntity
100
AcDbPolyline
 90
2
 70
0
 10
17.0
 20
113.26666666666668
 10
22.666666666666668
 20
113.26666666666668
  0
LWPOLYLINE
  5
91
  8
P
 62
0
370
-1
  6
CONTINUOUS
100
AcDbEntity
100
AcDbPolyline
 90
2
 70
0
 10
17.0
 20
59.066666666666663
 10
22.666666666666668
 20
59.066666666666663
  0
LWPOLYLINE
  5
92
  8
P
 62
0
370
-1
  6
CONTINUOUS
100
AcDbEntity
100
AcDbPolyline
 90
2
 70
0
 10
17.0
 20
221.73333333333335
 10
22.666666666666668
 20
221.73333333333335
  0
LWPOLYLINE
  5
93
  8
P
 62
0
370
-1
  6
CONTINUOUS
100
AcDbEntity
100
AcDbPolyline
 90
2
 70
0
 10
17.0
 20
275.93333333333334
 10
22.666666666666668
 20
275.93333333333334
  0
LWPOLYLINE
  5
94
  8
P
 62
0
370
-1
  6
CONTINUOUS
100
AcDbEntity
100
AcDbPolyline
 90
2
 70
0
 10
470.33333333333331
 20
167.53333333333333
 10
459.0
 20
167.53333333333333
  0
LWPOLYLINE
  5
95
  8
P
 62
0
370
-1
  6
CONTINUOUS
100
AcDbEntity
100
AcDbPolyline
 90
2
 70
0
 10
300.33333333333331
 20
4.8666666666666742
 10
300.33333333333331
 20
10.53333333333336
  0
LWPOLYLINE
  5
96
  8
P
 62
0
370
-1
  6
CONTINUOUS
100
AcDbEntity
100
AcDbPolyline
 90
2
 70
0
 10
357.0
 20
4.8666666666666742
 10
357.0
 20
10.53333333333336
  0
LWPOLYLINE
  5
97
  8
P
 62
0
370
-1
  6
CONTINUOUS
100
AcDbEntity
100
AcDbPolyline
 90
2
 70
0
 10
413.66666666666669
 20
4.8666666666666742
 10
413.66666666666669
 20
10.53333333333336
  0
LWPOLYLINE
  5
98
  8
P
 62
0
370
-1
  6
CONTINUOUS
100
AcDbEntity
100
AcDbPolyline
 90
2
 70
0
 10
187.0
 20
4.8666666666666742
 10
187.0
 20
10.53333333333336
  0
LWPOLYLINE
  5
99
  8
P
 62
0
370
-1
  6
CONTINUOUS
100
AcDbEntity
100
AcDbPolyline
 90
2
 70
0
 10
130.33333333333334
 20
4.8666666666666742
 10
130.33333333333334
 20
10.53333333333336
  0
LWPOLYLINE
  5
9A
  8
P
 62
0
370
-1
  6
CONTINUOUS
100
AcDbEntity
100
AcDbPolyline
 90
2
 70
0
 10
73.666666666666671
 20
4.8666666666666742
 10
73.666666666666671
 20
10.53333333333336
  0
LWPOLYLINE
  5
9B
  8
P
 62
0
370
-1
  6
CONTINUOUS
100
AcDbEntity
100
AcDbPolyline
 90
2
 70
0
 10
470.33333333333331
 20
113.26666666666668
 10
464.66666666666669
 20
113.26666666666668
  0
LWPOLYLINE
  5
9C
  8
P
 62
0
370
-1
  6
CONTINUOUS
100
AcDbEntity
100
AcDbPolyline
 90
2
 70
0
 10
470.33333333333331
 20
59.066666666666663
 10
464.66666666666669
 20
59.066666666666663
  0
LWPOLYLINE
  5
9D
  8
P
 62
0
370
-1
  6
CONTINUOUS
100
AcDbEntity
100
AcDbPolyline
 90
2
 70
0
 10
470.33333333333331
 20
221.73333333333335
 10
464.66666666666669
 20
221.73333333333335
  0
LWPOLYLINE
  5
9E
  8
P
 62
0
370
-1
  6
CONTINUOUS
100
AcDbEntity
100
AcDbPolyline
 90
2
 70
0
 10
470.33333333333331
 20
275.93333333333334
 10
464.66666666666669
 20
275.93333333333334
  0
MTEXT
  5
9F
100
AcDbEntity
100
AcDbMText
  8
Text
 62
0
370
-1
  6
CONTINUOUS
 10
44.133333333333333
 20
329.53333333333336
 30
0.0
 40
3.7333333333333334
 41
0.0
 71
4
 72
5
  1
{\fArial MT|b0|i0|c1|p15;}
  7
Standard
 50
0.0
 73
2
 44
1.0
  0
MTEXT
  5
A0
100
AcDbEntity
100
AcDbMText
  8
Text
 62
0
370
-1
  6
CONTINUOUS
 10
18.600000000000001
 20
305.26666666666665
 30
0.0
 40
3.7333333333333334
 41
0.0
 71
4
 72
5
  1
{\fArial MT|b0|i0|c1|p15;}
  7
Standard
 50
0.0
 73
2
 44
1.0
  0
MTEXT
  5
A1
100
AcDbEntity
100
AcDbMText
  8
Text
 62
0
370
-1
  6
CONTINUOUS
 10
100.59999999999999
 20
329.53333333333336
 30
0.0
 40
3.7333333333333334
 41
0.0
 71
4
 72
5
  1
{\fArial MT|b0|i0|c1|p15;}
  7
Standard
 50
0.0
 73
2
 44
1.0
  0
MTEXT
  5
A2
100
AcDbEntity
100
AcDbMText
  8
Text
 62
0
370
-1
  6
CONTINUOUS
 10
157.26666666666668
 20
329.53333333333336
 30
0.0
 40
3.7333333333333334
 41
0.0
 71
4
 72
5
  1
{\fArial MT|b0|i0|c1|p15;}
  7
Standard
 50
0.0
 73
2
 44
1.0
  0
MTEXT
  5
A3
100
AcDbEntity
100
AcDbMText
  8
Text
 62
0
370
-1
  6
CONTINUOUS
 10
213.86666666666667
 20
329.53333333333336
 30
0.0
 40
3.7333333333333334
 41
0.0
 71
4
 72
5
  1
{\fArial MT|b0|i0|c1|p15;}
  7
Standard
 50
0.0
 73
2
 44
1.0
  0
MTEXT
  5
A4
100
AcDbEntity
100
AcDbMText
  8
Text
 62
0
370
-1
  6
CONTINUOUS
 10
270.60000000000002
 20
329.53333333333336
 30
0.0
 40
3.7333333333333334
 41
0.0
 71
4
 72
5
  1
{\fArial MT|b0|i0|c1|p15;}
  7
Standard
 50
0.0
 73
2
 44
1.0
  0
MTEXT
  5
A5
100
AcDbEntity
100
AcDbMText
  8
Text
 62
0
370
-1
  6
CONTINUOUS
 10
327.19999999999999
 20
329.53333333333336
 30
0.0
 40
3.7333333333333334
 41
0.0
 71
4
 72
5
  1
{\fArial MT|b0|i0|c1|p15;}
  7
Standard
 50
0.0
 73
2
 44
1.0
  0
MTEXT
  5
A6
100
AcDbEntity
100
AcDbMText
  8
Text
 62
0
370
-1
  6
CONTINUOUS
 10
384.0
 20
329.53333333333336
 30
0.0
 40
3.7333333333333334
 41
0.0
 71
4
 72
5
  1
{\fArial MT|b0|i0|c1|p15;}
  7
Standard
 50
0.0
 73
2
 44
1.0
  0
MTEXT
  5
A7
100
AcDbEntity
100
AcDbMText
  8
Text
 62
0
370
-1
  6
CONTINUOUS
 10
440.66666666666669
 20
329.53333333333336
 30
0.0
 40
3.7333333333333334
 41
0.0
 71
4
 72
5
  1
{\fArial MT|b0|i0|c1|p15;}
  7
Standard
 50
0.0
 73
2
 44
1.0
  0
MTEXT
  5
A8
100
AcDbEntity
100
AcDbMText
  8
Text
 62
0
370
-1
  6
CONTINUOUS
 10
44.133333333333333
 20
9.9333333333333371
 30
0.0
 40
3.7333333333333334
 41
0.0
 71
4
 72
5
  1
{\fArial MT|b0|i0|c1|p15;}
  7
Standard
 50
0.0
 73
2
 44
1.0
  0
MTEXT
  5
A9
100
AcDbEntity
100
AcDbMText
  8
Text
 62
0
370
-1
  6
CONTINUOUS
 10
100.59999999999999
 20
9.9333333333333371
 30
0.0
 40
3.7333333333333334
 41
0.0
 71
4
 72
5
  1
{\fArial MT|b0|i0|c1|p15;}
  7
Standard
 50
0.0
 73
2
 44
1.0
  0
MTEXT
  5
AA
100
AcDbEntity
100
AcDbMText
  8
Text
 62
0
370
-1
  6
CONTINUOUS
 10
157.26666666666668
 20
9.9333333333333371
 30
0.0
 40
3.7333333333333334
 41
0.0
 71
4
 72
5
  1
{\fArial MT|b0|i0|c1|p15;}
  7
Standard
 50
0.0
 73
2
 44
1.0
  0
MTEXT
  5
AB
100
AcDbEntity
100
AcDbMText
  8
Text
 62
0
370
-1
  6
CONTINUOUS
 10
213.86666666666667
 20
9.9333333333333371
 30
0.0
 40
3.7333333333333334
 41
0.0
 71
4
 72
5
  1
{\fArial MT|b0|i0|c1|p15;}
  7
Standard
 50
0.0
 73
2
 44
1.0
  0
MTEXT
  5
AC
100
AcDbEntity
100
AcDbMText
  8
Text
 62
0
370
-1
  6
CONTINUOUS
 10
270.60000000000002
 20
9.9333333333333371
 30
0.0
 40
3.7333333333333334
 41
0.0
 71
4
 72
5
  1
{\fArial MT|b0|i0|c1|p15;}
  7
Standard
 50
0.0
 73
2
 44
1.0
  0
MTEXT
  5
AD
100
AcDbEntity
100
AcDbMText
  8
Text
 62
0
370
-1
  6
CONTINUOUS
 10
327.19999999999999
 20
9.9333333333333371
 30
0.0
 40
3.7333333333333334
 41
0.0
 71
4
 72
5
  1
{\fArial MT|b0|i0|c1|p15;}
  7
Standard
 50
0.0
 73
2
 44
1.0
  0
MTEXT
  5
AE
100
AcDbEntity
100
AcDbMText
  8
Text
 62
0
370
-1
  6
CONTINUOUS
 10
384.0
 20
9.9333333333333371
 30
0.0
 40
3.7333333333333334
 41
0.0
 71
4
 72
5
  1
{\fArial MT|b0|i0|c1|p15;}
  7
Standard
 50
0.0
 73
2
 44
1.0
  0
MTEXT
  5
AF
100
AcDbEntity
100
AcDbMText
  8
Text
 62
0
370
-1
  6
CONTINUOUS
 10
440.66666666666669
 20
9.9333333333333371
 30
0.0
 40
3.7333333333333334
 41
0.0
 71
4
 72
5
  1
{\fArial MT|b0|i0|c1|p15;}
  7
Standard
 50
0.0
 73
2
 44
1.0
  0
MTEXT
  5
B0
100
AcDbEntity
100
AcDbMText
  8
Text
 62
0
370
-1
  6
CONTINUOUS
 10
18.333333333333332
 20
251.06666666666666
 30
0.0
 40
3.7333333333333334
 41
0.0
 71
4
 72
5
  1
{\fArial MT|b0|i0|c1|p15;}
  7
Standard
 50
0.0
 73
2
 44
1.0
  0
MTEXT
  5
B1
100
AcDbEntity
100
AcDbMText
  8
Text
 62
0
370
-1
  6
CONTINUOUS
 10
18.399999999999999
 20
196.86666666666667
 30
0.0
 40
3.7999999999999998
 41
0.0
 71
4
 72
5
  1
{\fArial MT|b0|i0|c1|p15;}
  7
Standard
 50
0.0
 73
2
 44
1.0
  0
MTEXT
  5
B2
100
AcDbEntity
100
AcDbMText
  8
Text
 62
0
370
-1
  6
CONTINUOUS
 10
18.333333333333332
 20
142.66666666666666
 30
0.0
 40
3.7999999999999998
 41
0.0
 71
4
 72
5
  1
{\fArial MT|b0|i0|c1|p15;}
  7
Standard
 50
0.0
 73
2
 44
1.0
  0
MTEXT
  5
B3
100
AcDbEntity
100
AcDbMText
  8
Text
 62
0
370
-1
  6
CONTINUOUS
 10
18.399999999999999
 20
88.400000000000006
 30
0.0
 40
3.7333333333333334
 41
0.0
 71
4
 72
5
  1
{\fArial MT|b0|i0|c1|p15;}
  7
Standard
 50
0.0
 73
2
 44
1.0
  0
MTEXT
  5
B4
100
AcDbEntity
100
AcDbMText
  8
Text
 62
0
370
-1
  6
CONTINUOUS
 10
18.399999999999999
 20
34.199999999999989
 30
0.0
 40
3.7333333333333334
 41
0.0
 71
4
 72
5
  1
{\fArial MT|b0|i0|c1|p15;}
  7
Standard
 50
0.0
 73
2
 44
1.0
  0
MTEXT
  5
B5
100
AcDbEntity
100
AcDbMText
  8
Text
 62
0
370
-1
  6
CONTINUOUS
 10
466.26666666666665
 20
305.26666666666665
 30
0.0
 40
3.7333333333333334
 41
0.0
 71
4
 72
5
  1
{\fArial MT|b0|i0|c1|p15;}
  7
Standard
 50
0.0
 73
2
 44
1.0
  0
MTEXT
  5
B6
100
AcDbEntity
100
AcDbMText
  8
Text
 62
0
370
-1
  6
CONTINUOUS
 10
466.0
 20
251.06666666666666
 30
0.0
 40
3.7333333333333334
 41
0.0
 71
4
 72
5
  1
{\fArial MT|b0|i0|c1|p15;}
  7
Standard
 50
0.0
 73
2
 44
1.0
  0
MTEXT
  5
B7
100
AcDbEntity
100
AcDbMText
  8
Text
 62
0
370
-1
  6
CONTINUOUS
 10
466.06666666666666
 20
196.86666666666667
 30
0.0
 40
3.7999999999999998
 41
0.0
 71
4
 72
5
  1
{\fArial MT|b0|i0|c1|p15;}
  7
Standard
 50
0.0
 73
2
 44
1.0
  0
MTEXT
  5
B8
100
AcDbEntity
100
AcDbMText
  8
Text
 62
0
370
-1
  6
CONTINUOUS
 10
466.0
 20
142.66666666666666
 30
0.0
 40
3.7999999999999998
 41
0.0
 71
4
 72
5
  1
{\fArial MT|b0|i0|c1|p15;}
  7
Standard
 50
0.0
 73
2
 44
1.0
  0
MTEXT
  5
B9
100
AcDbEntity
100
AcDbMText
  8
Text
 62
0
370
-1
  6
CONTINUOUS
 10
466.06666666666666
 20
88.400000000000006
 30
0.0
 40
3.7333333333333334
 41
0.0
 71
4
 72
5
  1
{\fArial MT|b0|i0|c1|p15;}
  7
Standard
 50
0.0
 73
2
 44
1.0
  0
MTEXT
  5
BA
100
AcDbEntity
100
AcDbMText
  8
Text
 62
0
370
-1
  6
CONTINUOUS
 10
466.06666666666666
 20
34.199999999999989
 30
0.0
 40
3.7333333333333334
 41
0.0
 71
4
 72
5
  1
{\fArial MT|b0|i0|c1|p15;}
  7
Standard
 50
0.0
 73
2
 44
1.0
  0
LWPOLYLINE
  5
BB
  8
P
 62
0
370
-1
  6
CONTINUOUS
100
AcDbEntity
100
AcDbPolyline
 90
2
 70
0
 10
260.66666666666669
 20
10.53333333333336
 10
464.66666666666669
 20
10.53333333333336
  0
LWPOLYLINE
  5
BC
  8
P
 62
0
370
-1
  6
CONTINUOUS
100
AcDbEntity
100
AcDbPolyline
 90
2
 70
0
 10
395.53333333333336
 20
21.866666666666674
 10
464.66666666666669
 20
21.866666666666674
  0
LWPOLYLINE
  5
BD
  8
P
 62
0
370
-1
  6
CONTINUOUS
100
AcDbEntity
100
AcDbPolyline
 90
2
 70
0
 10
326.39999999999998
 20
41.133333333333326
 10
464.66666666666669
 20
41.133333333333326
  0
LWPOLYLINE
  5
BE
  8
P
 62
0
370
-1
  6
CONTINUOUS
100
AcDbEntity
100
AcDbPolyline
 90
2
 70
0
 10
260.66666666666669
 20
52.46666666666664
 10
464.66666666666669
 20
52.46666666666664
  0
LWPOLYLINE
  5
BF
  8
P
 62
0
370
-1
  6
CONTINUOUS
100
AcDbEntity
100
AcDbPolyline
 90
2
 70
0
 10
464.66666666666669
 20
10.53333333333336
 10
464.66666666666669
 20
63.800000000000011
  0
LWPOLYLINE
  5
C0
  8
P
 62
0
370
-1
  6
CONTINUOUS
100
AcDbEntity
100
AcDbPolyline
 90
2
 70
0
 10
447.66666666666669
 20
10.53333333333336
 10
447.66666666666669
 20
21.866666666666674
  0
LWPOLYLINE
  5
C1
  8
P
 62
0
370
-1
  6
CONTINUOUS
100
AcDbEntity
100
AcDbPolyline
 90
2
 70
0
 10
406.86666666666667
 20
10.53333333333336
 10
406.86666666666667
 20
21.866666666666674
  0
LWPOLYLINE
  5
C2
  8
P
 62
0
370
-1
  6
CONTINUOUS
100
AcDbEntity
100
AcDbPolyline
 90
2
 70
0
 10
395.53333333333336
 20
10.53333333333336
 10
395.53333333333336
 20
63.800000000000011
  0
LWPOLYLINE
  5
C3
  8
P
 62
0
370
-1
  6
CONTINUOUS
100
AcDbEntity
100
AcDbPolyline
 90
2
 70
0
 10
326.39999999999998
 20
10.53333333333336
 10
326.39999999999998
 20
63.800000000000011
  0
LWPOLYLINE
  5
C4
  8
P
 62
0
370
-1
  6
CONTINUOUS
100
AcDbEntity
100
AcDbPolyline
 90
2
 70
0
 10
287.86666666666667
 20
52.46666666666664
 10
287.86666666666667
 20
63.800000000000011
  0
LWPOLYLINE
  5
C5
  8
P
 62
0
370
-1
  6
CONTINUOUS
100
AcDbEntity
100
AcDbPolyline
 90
3
 70
0
 10
464.66666666666669
 20
63.800000000000011
 10
260.66666666666669
 20
63.800000000000011
 10
260.66666666666669
 20
10.53333333333336
  0
MTEXT
  5
C6
100
AcDbEntity
100
AcDbMText
  8
Text
 62
0
370
-1
  6
CONTINUOUS
 10
261.80000000000001
 20
63.199999999999989
 30
0.0
 40
2.6666666666666665
 41
0.0
 71
4
 72
5
  1
{\fArial MT|b0|i0|c1|p15;}
  7
Standard
 50
0.0
 73
2
 44
1.0
  0
MTEXT
  5
C7
100
AcDbEntity
100
AcDbMText
  8
Text
 62
0
370
-1
  6
CONTINUOUS
 10
289.0
 20
63.199999999999989
 30
0.0
 40
2.6666666666666665
 41
0.0
 71
4
 72
5
  1
{\fArial MT|b0|i0|c1|p15;}
  7
Standard
 50
0.0
 73
2
 44
1.0
  0
MTEXT
  5
C8
100
AcDbEntity
100
AcDbMText
  8
Text
 62
0
370
-1
  6
CONTINUOUS
 10
327.53333333333336
 20
63.199999999999989
 30
0.0
 40
2.6666666666666665
 41
0.0
 71
4
 72
5
  1
{\fArial MT|b0|i0|c1|p15;}
  7
Standard
 50
0.0
 73
2
 44
1.0
  0
MTEXT
  5
C9
100
AcDbEntity
100
AcDbMText
  8
Text
 62
0
370
-1
  6
CONTINUOUS
 10
396.66666666666669
 20
63.199999999999989
 30
0.0
 40
2.6666666666666665
 41
0.0
 71
4
 72
5
  1
{\fArial MT|b0|i0|c1|p15;}
  7
Standard
 50
0.0
 73
2
 44
1.0
  0
MTEXT
  5
CA
100
AcDbEntity
100
AcDbMText
  8
Text
 62
0
370
-1
  6
CONTINUOUS
 10
327.53333333333336
 20
51.866666666666674
 30
0.0
 40
2.6666666666666665
 41
0.0
 71
4
 72
5
  1
{\fArial MT|b0|i0|c1|p15;}
  7
Standard
 50
0.0
 73
2
 44
1.0
  0
MTEXT
  5
CB
100
AcDbEntity
100
AcDbMText
  8
Text
 62
0
370
-1
  6
CONTINUOUS
 10
396.66666666666669
 20
51.866666666666674
 30
0.0
 40
2.6666666666666665
 41
0.0
 71
4
 72
5
  1
{\fArial MT|b0|i0|c1|p15;}
  7
Standard
 50
0.0
 73
2
 44
1.0
  0
MTEXT
  5
CC
100
AcDbEntity
100
AcDbMText
  8
Text
 62
0
370
-1
  6
CONTINUOUS
 10
327.53333333333336
 20
40.53333333333336
 30
0.0
 40
2.6666666666666665
 41
0.0
 71
4
 72
5
  1
{\fArial MT|b0|i0|c1|p15;}
  7
Standard
 50
0.0
 73
2
 44
1.0
  0
MTEXT
  5
CD
100
AcDbEntity
100
AcDbMText
  8
Text
 62
0
370
-1
  6
CONTINUOUS
 10
396.66666666666669
 20
40.53333333333336
 30
0.0
 40
2.6666666666666665
 41
0.0
 71
4
 72
5
  1
{\fArial MT|b0|i0|c1|p15;}
  7
Standard
 50
0.0
 73
2
 44
1.0
  0
MTEXT
  5
CE
100
AcDbEntity
100
AcDbMText
  8
Text
 62
0
370
-1
  6
CONTINUOUS
 10
396.66666666666669
 20
21.266666666666652
 30
0.0
 40
2.6666666666666665
 41
0.0
 71
4
 72
5
  1
{\fArial MT|b0|i0|c1|p15;}
  7
Standard
 50
0.0
 73
2
 44
1.0
  0
MTEXT
  5
CF
100
AcDbEntity
100
AcDbMText
  8
Text
 62
0
370
-1
  6
CONTINUOUS
 10
408.0
 20
21.266666666666652
 30
0.0
 40
2.6666666666666665
 41
0.0
 71
4
 72
5
  1
{\fArial MT|b0|i0|c1|p15;}
  7
Standard
 50
0.0
 73
2
 44
1.0
  0
MTEXT
  5
D0
100
AcDbEntity
100
AcDbMText
  8
Text
 62
0
370
-1
  6
CONTINUOUS
 10
448.80000000000001
 20
21.266666666666652
 30
0.0
 40
2.6666666666666665
 41
0.0
 71
4
 72
5
  1
{\fArial MT|b0|i0|c1|p15;}
  7
Standard
 50
0.0
 73
2
 44
1.0
  0
MTEXT
  5
D1
100
AcDbEntity
100
AcDbMText
  8
Text
 62
0
370
-1
  6
CONTINUOUS
 10
366.66666666666669
 20
59.399999999999977
 30
0.0
 40
5.333333333333333
 41
0.0
 71
4
 72
5
  1
{\fArial MT|b0|i0|c1|p15;}
  7
Standard
 50
0.0
 73
2
 44
1.0
  0
MTEXT
  5
D2
100
AcDbEntity
100
AcDbMText
  8
Text
 62
0
370
-1
  6
CONTINUOUS
 10
452.33333333333331
 20
17.333333333333314
 30
0.0
 40
5.4000000000000004
 41
0.0
 71
4
 72
5
  1
{\fArial MT|b0|i0|c1|p15;}
  7
Standard
 50
0.0
 73
2
 44
1.0
  0
MTEXT
  5
D3
100
AcDbEntity
100
AcDbMText
  8
Text
 62
0
370
-1
  6
CONTINUOUS
 10
327.53333333333336
 20
36.866666666666674
 30
0.0
 40
7.7333333333333334
 41
0.0
 71
4
 72
5
  1
{\fArial MT|b0|i0|c1|p15;}
  7
Standard
 50
0.0
 73
2
 44
1.0
  0
MTEXT
  5
D4
100
AcDbEntity
100
AcDbMText
  8
Text
 62
0
370
-1
  6
CONTINUOUS
 10
327.53333333333336
 20
59.399999999999977
 30
0.0
 40
5.333333333333333
 41
0.0
 71
4
 72
5
  1
{\fArial MT|b0|i0|c1|p15;}
  7
Standard
 50
0.0
 73
2
 44
1.0
  0
LWPOLYLINE
  5
D5
  8
P
 62
0
370
-1
  6
CONTINUOUS
100
AcDbEntity
100
AcDbPolyline
 90
2
 70
0
 10
238.06666666666666
 20
163.93333333333334
 10
238.06666666666666
 20
91.866666666666674
  0
LWPOLYLINE
  5
D6
  8
P
 62
0
370
-1
  6
CONTINUOUS
100
AcDbEntity
100
AcDbPolyline
 90
2
 70
0
 10
58.399999999999999
 20
163.93333333333334
 10
58.399999999999999
 20
91.866666666666674
  0
LWPOLYLINE
  5
D7
  8
P
 62
0
370
-1
  6
CONTINUOUS
100
AcDbEntity
100
AcDbPolyline
 90
2
 70
0
 10
234.06666666666666
 20
94.133333333333326
 10
62.399999999999999
 20
94.133333333333326
  0
HATCH
  5
D8
  8
H
 62
0
370
-1
  6
CONTINUOUS
100
AcDbEntity
100
AcDbHatch
 10
0.0
 20
0.0
 30
0.0
210
0.0
220
0.0
230
1.0
  2
SOLID
 70
1
 71
0
 91
1
 92
1
 93
3
 72
1
 10
234.06666666666666
 20
94.800000000000011
 11
234.06666666666666
 21
93.466666666666669
 72
1
 10
234.06666666666666
 20
93.466666666666669
 11
238.06666666666666
 21
94.133333333333326
 72
1
 10
238.06666666666666
 20
94.133333333333326
 11
234.06666666666666
 21
94.800000000000011
 97
0
 75
0
 76
1
 98
0
  0
LWPOLYLINE
  5
D9
  8
P
 62
0
370
-1
  6
CONTINUOUS
100
AcDbEntity
100
AcDbPolyline
 90
4
 70
0
 10
234.06666666666666
 20
94.800000000000011
 10
234.06666666666666
 20
93.466666666666669
 10
238.06666666666666
 20
94.133333333333326
 10
234.06666666666666
 20
94.800000000000011
  0
HATCH
  5
DA
  8
H
 62
0
370
-1
  6
CONTINUOUS
100
AcDbEntity
100
AcDbHatch
 10
0.0
 20
0.0
 30
0.0
210
0.0
220
0.0
230
1.0
  2
SOLID
 70
1
 71
0
 91
1
 92
1
 93
3
 72
1
 10
62.399999999999999
 20
94.800000000000011
 11
62.399999999999999
 21
93.466666666666669
 72
1
 10
62.399999999999999
 20
93.466666666666669
 11
58.399999999999999
 21
94.133333333333326
 72
1
 10
58.399999999999999
 20
94.133333333333326
 11
62.399999999999999
 21
94.800000000000011
 97
0
 75
0
 76
1
 98
0
  0
LWPOLYLINE
  5
DB
  8
P
 62
0
370
-1
  6
CONTINUOUS
100
AcDbEntity
100
AcDbPolyline
 90
4
 70
0
 10
62.399999999999999
 20
94.800000000000011
 10
62.399999999999999
 20
93.466666666666669
 10
58.399999999999999
 20
94.133333333333326
 10
62.399999999999999
 20
94.800000000000011
  0
MTEXT
  5
DC
100
AcDbEntity
100
AcDbMText
  8
Text
 62
0
370
-1
  6
CONTINUOUS
 10
141.06666666666666
 20
101.13333333333333
 30
0.0
 40
5.333333333333333
 41
0.0
 71
4
 72
5
  1
{\fArial MT|b0|i0|c1|p15;}
  7
Standard
 50
0.0
 73
2
 44
1.0
  0
ENDSEC
  0
SECTION
  2
OBJECTS
  0
DICTIONARY
  5
C
100
AcDbDictionary
280
0
281
1
  3
ACAD_GROUP
350
D
  3
ACAD_LAYOUT
350
1A
  3
ACAD_MLINESTYLE
350
17
  3
ACAD_PLOTSETTINGS
350
19
  3
ACAD_PLOTSTYLENAME
350
E
  3
AcDbVariableDictionary
350
DD
  0
DICTIONARY
  5
D
100
AcDbDictionary
280
0
281
1
  0
ACDBDICTIONARYWDFLT
  5
E
100
AcDbDictionary
281
1
  3
Normal
350
F
100
AcDbDictionaryWithDefault
340
F
  0
ACDBPLACEHOLDER
  5
F
  0
DICTIONARY
  5
17
100
AcDbDictionary
280
0
281
1
  3
Standard
350
18
  0
MLINESTYLE
  5
18
100
AcDbMlineStyle
  2
STANDARD
 70
0
  3

 62
256
 51
90.0
 52
90.0
 71
2
 49
0.5
 62
256
  6
BYLAYER
 49
-0.5
 62
256
  6
BYLAYER
  0
DICTIONARY
  5
19
100
AcDbDictionary
280
0
281
1
  0
DICTIONARY
  5
1A
100
AcDbDictionary
281
1
  3
Layout1
350
1E
  3
Layout2
350
26
  3
Model
350
22
  0
LAYOUT
  5
1E
100
AcDbPlotSettings
  1

  2
C:\Program Files\AutoCAD 2002\plotters\DWF ePlot (optimized for plotting).pc3
  4

  6

 40
0.0
 41
0.0
 42
0.0
 43
0.0
 44
0.0
 45
0.0
 46
0.0
 47
0.0
 48
0.0
 49
0.0
140
0.0
141
0.0
142
1.0
143
1.0
 70
688
 72
0
 73
0
 74
5
  7

 75
16
147
1.0
148
0.0
149
0.0
100
AcDbLayout
  1
Layout1
 70
1
 71
1
 10
0.0
 20
0.0
 11
420.0
 21
297.0
 12
0.0
 22
0.0
 32
0.0
 14
100000000000000000000.0
 24
100000000000000000000.0
 34
100000000000000000000.0
 15
-100000000000000000000.0
 25
-100000000000000000000.0
 35
-100000000000000000000.0
146
0.0
 13
0.0
 23
0.0
 33
0.0
 16
1.0
 26
0.0
 36
0.0
 17
0.0
 27
1.0
 37
0.0
 76
0
330
1B
  0
LAYOUT
  5
22
100
AcDbPlotSettings
  1

  2
C:\Program Files\AutoCAD 2002\plotters\DWF ePlot (optimized for plotting).pc3
  4

  6

 40
0.0
 41
0.0
 42
0.0
 43
0.0
 44
0.0
 45
0.0
 46
0.0
 47
0.0
 48
0.0
 49
0.0
140
0.0
141
0.0
142
1.0
143
1.0
 70
1712
 72
0
 73
0
 74
0
  7

 75
0
147
1.0
148
0.0
149
0.0
100
AcDbLayout
  1
Model
 70
1
 71
0
 10
0.0
 20
0.0
 11
12.0
 21
9.0
 12
0.0
 22
0.0
 32
0.0
 14
0.0
 24
0.0
 34
0.0
 15
0.0
 25
0.0
 35
0.0
146
0.0
 13
0.0
 23
0.0
 33
0.0
 16
1.0
 26
0.0
 36
0.0
 17
0.0
 27
1.0
 37
0.0
 76
0
330
1F
  0
LAYOUT
  5
26
100
AcDbPlotSettings
  1

  2
C:\Program Files\AutoCAD 2002\plotters\DWF ePlot (optimized for plotting).pc3
  4

  6

 40
0.0
 41
0.0
 42
0.0
 43
0.0
 44
0.0
 45
0.0
 46
0.0
 47
0.0
 48
0.0
 49
0.0
140
0.0
141
0.0
142
1.0
143
1.0
 70
688
 72
0
 73
0
 74
5
  7

 75
16
147
1.0
148
0.0
149
0.0
100
AcDbLayout
  1
Layout2
 70
1
 71
2
 10
0.0
 20
0.0
 11
12.0
 21
9.0
 12
0.0
 22
0.0
 32
0.0
 14
0.0
 24
0.0
 34
0.0
 15
0.0
 25
0.0
 35
0.0
146
0.0
 13
0.0
 23
0.0
 33
0.0
 16
1.0
 26
0.0
 36
0.0
 17
0.0
 27
1.0
 37
0.0
 76
0
330
23
  0
DICTIONARY
  5
DD
100
AcDbDictionary
281
1
  3
DIMASSOC
350
DF
  3
HIDETEXT
350
DE
  0
DICTIONARYVAR
  5
DE
100
DictionaryVariables
280
0
  1
2
  0
DICTIONARYVAR
  5
DF
100
DictionaryVariables
280
0
  1
1
  0
ENDSEC
  0
EOF
