<?xml version="1.0" standalone="no"?>
 <!DOCTYPE svg PUBLIC "-//W3C//DTD SVG 1.1//EN" 
 "http://www.w3.org/Graphics/SVG/1.1/DTD/svg11.dtd"> 
<svg xmlns="http://www.w3.org/2000/svg" version="1.1" 
    width="29.7002cm" height="21.0007cm" viewBox="0 0 116930 82680 ">
<title>SVG Picture created as concertina-v2.1-brd.svg date 2018/12/26 10:57:18 </title>
  <desc>Picture generated by PCBNEW </desc>
<g style="fill:#000000; fill-opacity:1;stroke:#000000; stroke-opacity:1;
stroke-linecap:round; stroke-linejoin:round; "
 transform="translate(0 0) scale(1 1)">
</g>
<g style="fill:#000000; fill-opacity:0.0; 
stroke:#000000; stroke-width:-0.000393701; stroke-opacity:1; 
stroke-linecap:round; stroke-linejoin:round;">
</g>
<g style="fill:#000000; fill-opacity:0.0; 
stroke:#000000; stroke-width:19.685; stroke-opacity:1; 
stroke-linecap:round; stroke-linejoin:round;">
<circle cx="62000" cy="37500" r="1279.53" /> 
<circle cx="45000" cy="37500" r="1279.53" /> 
<circle cx="61500" cy="28500" r="1279.53" /> 
<circle cx="45000" cy="28500" r="1279.53" /> 
<path d="M46401 35598
L46401 30401
" />
<path d="M51598 35598
L46401 35598
" />
<path d="M51598 30401
L51598 35598
" />
<path d="M46401 30401
L51598 30401
" />
<path d="M46401 39401
L51598 39401
" />
<path d="M51598 39401
L51598 44598
" />
<path d="M51598 44598
L46401 44598
" />
<path d="M46401 44598
L46401 39401
" />
<path d="M54901 26598
L54901 21401
" />
<path d="M60098 26598
L54901 26598
" />
<path d="M60098 21401
L60098 26598
" />
<path d="M54901 21401
L60098 21401
" />
<path d="M54901 30401
L60098 30401
" />
<path d="M60098 30401
L60098 35598
" />
<path d="M60098 35598
L54901 35598
" />
<path d="M54901 35598
L54901 30401
" />
<path d="M54901 44598
L54901 39401
" />
<path d="M60098 44598
L54901 44598
" />
<path d="M60098 39401
L60098 44598
" />
<path d="M54901 39401
L60098 39401
" />
<path d="M63401 21401
L68598 21401
" />
<path d="M68598 21401
L68598 26598
" />
<path d="M68598 26598
L63401 26598
" />
<path d="M63401 26598
L63401 21401
" />
<path d="M63401 35598
L63401 30401
" />
<path d="M68598 35598
L63401 35598
" />
<path d="M68598 30401
L68598 35598
" />
<path d="M63401 30401
L68598 30401
" />
<path d="M63401 44598
L63401 39401
" />
<path d="M68598 44598
L63401 44598
" />
<path d="M68598 39401
L68598 44598
" />
<path d="M63401 39401
L68598 39401
" />
<path d="M71901 21401
L77098 21401
" />
<path d="M77098 21401
L77098 26598
" />
<path d="M77098 26598
L71901 26598
" />
<path d="M71901 26598
L71901 21401
" />
<path d="M37901 44598
L37901 39401
" />
<path d="M43098 44598
L37901 44598
" />
<path d="M43098 39401
L43098 44598
" />
<path d="M37901 39401
L43098 39401
" />
<path d="M37901 26598
L37901 21401
" />
<path d="M43098 26598
L37901 26598
" />
<path d="M43098 21401
L43098 26598
" />
<path d="M37901 21401
L43098 21401
" />
<path d="M29901 34901
L35098 34901
" />
<path d="M35098 34901
L35098 40098
" />
<path d="M35098 40098
L29901 40098
" />
<path d="M29901 40098
L29901 34901
" />
<path d="M37901 30401
L43098 30401
" />
<path d="M43098 30401
L43098 35598
" />
<path d="M43098 35598
L37901 35598
" />
<path d="M37901 35598
L37901 30401
" />
<path d="M71901 30401
L77098 30401
" />
<path d="M77098 30401
L77098 35598
" />
<path d="M77098 35598
L71901 35598
" />
<path d="M71901 35598
L71901 30401
" />
<path d="M71901 44598
L71901 39401
" />
<path d="M77098 44598
L71901 44598
" />
<path d="M77098 39401
L77098 44598
" />
<path d="M71901 39401
L77098 39401
" />
<path d="M46401 21401
L51598 21401
" />
<path d="M51598 21401
L51598 26598
" />
<path d="M51598 26598
L46401 26598
" />
<path d="M46401 26598
L46401 21401
" />
<circle cx="36000" cy="22000" r="1279.53" /> 
<circle cx="28500" cy="41000" r="1279.53" /> 
<circle cx="32500" cy="30500" r="1279.53" /> 
<circle cx="78000" cy="28000" r="1279.53" /> 
<circle cx="78000" cy="37500" r="1279.53" /> 
<circle cx="40500" cy="52500" r="1279.53" /> 
<circle cx="66500" cy="51000" r="1279.53" /> 
</g>
<g style="fill:#000000; fill-opacity:0.0; 
stroke:#000000; stroke-width:59.0551; stroke-opacity:1; 
stroke-linecap:round; stroke-linejoin:round;">
<path d="M42000 56500
L35000 49500
" />
<path d="M60000 56500
L42000 56500
" />
<path d="M80000 45000
L60000 56500
" />
</g>
<g style="fill:#000000; fill-opacity:0.0; 
stroke:#000000; stroke-width:78.7402; stroke-opacity:1; 
stroke-linecap:round; stroke-linejoin:round;">
<path d="M35000 43500
L35000 49500
" />
<path d="M27000 43500
L35000 43500
" />
<path d="M27000 34000
L27000 43500
" />
<path d="M30000 30000
L27000 34000
" />
<path d="M35000 20000
L30000 30000
" />
<path d="M80000 20000
L35000 20000
" />
<path d="M80000 45000
L80000 20000
" />
</g> 
</svg>
