<?xml version="1.0" standalone="no"?>
 <!DOCTYPE svg PUBLIC "-//W3C//DTD SVG 1.1//EN" 
 "http://www.w3.org/Graphics/SVG/1.1/DTD/svg11.dtd"> 
<svg xmlns="http://www.w3.org/2000/svg" version="1.1" 
    width="29.7002cm" height="21.0007cm" viewBox="0 0 116930 82680 ">
<title>SVG Picture created as concertina-Dwgs.User.svg date 2018/10/30 20:36:44 </title>
  <desc>Picture generated by PCBNEW </desc>
<g style="fill:#000000; fill-opacity:1;stroke:#000000; stroke-opacity:1;
stroke-linecap:round; stroke-linejoin:round; "
 transform="translate(0 0) scale(1 1)">
</g>
<g style="fill:#000000; fill-opacity:0.0; 
stroke:#000000; stroke-width:-0.000393701; stroke-opacity:1; 
stroke-linecap:round; stroke-linejoin:round;">
</g>
<g style="fill:#000000; fill-opacity:0.0; 
stroke:#000000; stroke-width:39.3701; stroke-opacity:1; 
stroke-linecap:round; stroke-linejoin:round;">
</g>
<g style="fill:#000000; fill-opacity:0.0; 
stroke:#000000; stroke-width:59.0551; stroke-opacity:1; 
stroke-linecap:round; stroke-linejoin:round;">
<rect x="69685.9" y="65357.2" width="42519.7" height="12598.4" rx="0" />
</g>
<g style="fill:#000000; fill-opacity:0.0; 
stroke:#000000; stroke-width:39.3701; stroke-opacity:1; 
stroke-linecap:round; stroke-linejoin:round;">
</g>
<g style="fill:#000000; fill-opacity:0.0; 
stroke:#000000; stroke-width:59.0551; stroke-opacity:1; 
stroke-linecap:round; stroke-linejoin:round;">
<rect x="3937.01" y="3937.01" width="109056" height="74806" rx="0" />
</g>
<g style="fill:#000000; fill-opacity:0.0; 
stroke:#000000; stroke-width:39.3701; stroke-opacity:1; 
stroke-linecap:round; stroke-linejoin:round;">
</g>
<g style="fill:#000000; fill-opacity:0.0; 
stroke:#000000; stroke-width:59.0551; stroke-opacity:1; 
stroke-linecap:round; stroke-linejoin:round;">
<rect x="4724.41" y="4724.41" width="107481" height="73231.2" rx="0" />
</g>
<g style="fill:#000000; fill-opacity:0.0; 
stroke:#000000; stroke-width:39.3701; stroke-opacity:1; 
stroke-linecap:round; stroke-linejoin:round;">
</g>
<g style="fill:#000000; fill-opacity:0.0; 
stroke:#000000; stroke-width:59.0551; stroke-opacity:1; 
stroke-linecap:round; stroke-linejoin:round;">
<path d="M23622 4724
L23622 3937
" />
</g>
<g style="fill:#000000; fill-opacity:0.0; 
stroke:#000000; stroke-width:39.3701; stroke-opacity:1; 
stroke-linecap:round; stroke-linejoin:round;">
</g>
<g style="fill:#000000; fill-opacity:0.0; 
stroke:#000000; stroke-width:59.0551; stroke-opacity:1; 
stroke-linecap:round; stroke-linejoin:round;">
<path d="M43307 4724
L43307 3937
" />
</g>
<g style="fill:#000000; fill-opacity:0.0; 
stroke:#000000; stroke-width:39.3701; stroke-opacity:1; 
stroke-linecap:round; stroke-linejoin:round;">
</g>
<g style="fill:#000000; fill-opacity:0.0; 
stroke:#000000; stroke-width:59.0551; stroke-opacity:1; 
stroke-linecap:round; stroke-linejoin:round;">
<path d="M62992 4724
L62992 3937
" />
</g>
<g style="fill:#000000; fill-opacity:0.0; 
stroke:#000000; stroke-width:39.3701; stroke-opacity:1; 
stroke-linecap:round; stroke-linejoin:round;">
</g>
<g style="fill:#000000; fill-opacity:0.0; 
stroke:#000000; stroke-width:59.0551; stroke-opacity:1; 
stroke-linecap:round; stroke-linejoin:round;">
<path d="M82677 4724
L82677 3937
" />
</g>
<g style="fill:#000000; fill-opacity:0.0; 
stroke:#000000; stroke-width:39.3701; stroke-opacity:1; 
stroke-linecap:round; stroke-linejoin:round;">
</g>
<g style="fill:#000000; fill-opacity:0.0; 
stroke:#000000; stroke-width:59.0551; stroke-opacity:1; 
stroke-linecap:round; stroke-linejoin:round;">
<path d="M102362 4724
L102362 3937
" />
</g>
<g style="fill:#000000; fill-opacity:0.0; 
stroke:#000000; stroke-width:39.3701; stroke-opacity:1; 
stroke-linecap:round; stroke-linejoin:round;">
</g>
<g style="fill:#000000; fill-opacity:0.0; 
stroke:#000000; stroke-width:59.0551; stroke-opacity:1; 
stroke-linecap:round; stroke-linejoin:round;">
<path d="M14199 4562
L13906 4562
" />
<path d="M14052 4562
L14052 4050
L14004 4123
L13955 4172
L13906 4196
" />
</g>
<g style="fill:#000000; fill-opacity:0.0; 
stroke:#000000; stroke-width:39.3701; stroke-opacity:1; 
stroke-linecap:round; stroke-linejoin:round;">
</g>
<g style="fill:#000000; fill-opacity:0.0; 
stroke:#000000; stroke-width:59.0551; stroke-opacity:1; 
stroke-linecap:round; stroke-linejoin:round;">
<path d="M33591 4099
L33615 4074
L33664 4050
L33786 4050
L33835 4074
L33859 4099
L33884 4147
L33884 4196
L33859 4269
L33567 4562
L33884 4562
" />
</g>
<g style="fill:#000000; fill-opacity:0.0; 
stroke:#000000; stroke-width:39.3701; stroke-opacity:1; 
stroke-linecap:round; stroke-linejoin:round;">
</g>
<g style="fill:#000000; fill-opacity:0.0; 
stroke:#000000; stroke-width:59.0551; stroke-opacity:1; 
stroke-linecap:round; stroke-linejoin:round;">
<path d="M53252 4050
L53569 4050
L53398 4245
L53471 4245
L53520 4269
L53544 4294
L53569 4342
L53569 4464
L53544 4513
L53520 4537
L53471 4562
L53325 4562
L53276 4537
L53252 4513
" />
</g>
<g style="fill:#000000; fill-opacity:0.0; 
stroke:#000000; stroke-width:39.3701; stroke-opacity:1; 
stroke-linecap:round; stroke-linejoin:round;">
</g>
<g style="fill:#000000; fill-opacity:0.0; 
stroke:#000000; stroke-width:59.0551; stroke-opacity:1; 
stroke-linecap:round; stroke-linejoin:round;">
<path d="M73205 4221
L73205 4562
" />
<path d="M73083 4026
L72961 4391
L73278 4391
" />
</g>
<g style="fill:#000000; fill-opacity:0.0; 
stroke:#000000; stroke-width:39.3701; stroke-opacity:1; 
stroke-linecap:round; stroke-linejoin:round;">
</g>
<g style="fill:#000000; fill-opacity:0.0; 
stroke:#000000; stroke-width:59.0551; stroke-opacity:1; 
stroke-linecap:round; stroke-linejoin:round;">
<path d="M92914 4050
L92671 4050
L92646 4294
L92671 4269
L92719 4245
L92841 4245
L92890 4269
L92914 4294
L92939 4342
L92939 4464
L92914 4513
L92890 4537
L92841 4562
L92719 4562
L92671 4537
L92646 4513
" />
</g>
<g style="fill:#000000; fill-opacity:0.0; 
stroke:#000000; stroke-width:39.3701; stroke-opacity:1; 
stroke-linecap:round; stroke-linejoin:round;">
</g>
<g style="fill:#000000; fill-opacity:0.0; 
stroke:#000000; stroke-width:59.0551; stroke-opacity:1; 
stroke-linecap:round; stroke-linejoin:round;">
<path d="M112575 4050
L112477 4050
L112429 4074
L112404 4099
L112356 4172
L112331 4269
L112331 4464
L112356 4513
L112380 4537
L112429 4562
L112526 4562
L112575 4537
L112599 4513
L112624 4464
L112624 4342
L112599 4294
L112575 4269
L112526 4245
L112429 4245
L112380 4269
L112356 4294
L112331 4342
" />
</g>
<g style="fill:#000000; fill-opacity:0.0; 
stroke:#000000; stroke-width:39.3701; stroke-opacity:1; 
stroke-linecap:round; stroke-linejoin:round;">
</g>
<g style="fill:#000000; fill-opacity:0.0; 
stroke:#000000; stroke-width:59.0551; stroke-opacity:1; 
stroke-linecap:round; stroke-linejoin:round;">
<path d="M23622 77955
L23622 78742
" />
</g>
<g style="fill:#000000; fill-opacity:0.0; 
stroke:#000000; stroke-width:39.3701; stroke-opacity:1; 
stroke-linecap:round; stroke-linejoin:round;">
</g>
<g style="fill:#000000; fill-opacity:0.0; 
stroke:#000000; stroke-width:59.0551; stroke-opacity:1; 
stroke-linecap:round; stroke-linejoin:round;">
<path d="M43307 77955
L43307 78742
" />
</g>
<g style="fill:#000000; fill-opacity:0.0; 
stroke:#000000; stroke-width:39.3701; stroke-opacity:1; 
stroke-linecap:round; stroke-linejoin:round;">
</g>
<g style="fill:#000000; fill-opacity:0.0; 
stroke:#000000; stroke-width:59.0551; stroke-opacity:1; 
stroke-linecap:round; stroke-linejoin:round;">
<path d="M62992 77955
L62992 78742
" />
</g>
<g style="fill:#000000; fill-opacity:0.0; 
stroke:#000000; stroke-width:39.3701; stroke-opacity:1; 
stroke-linecap:round; stroke-linejoin:round;">
</g>
<g style="fill:#000000; fill-opacity:0.0; 
stroke:#000000; stroke-width:59.0551; stroke-opacity:1; 
stroke-linecap:round; stroke-linejoin:round;">
<path d="M82677 77955
L82677 78742
" />
</g>
<g style="fill:#000000; fill-opacity:0.0; 
stroke:#000000; stroke-width:39.3701; stroke-opacity:1; 
stroke-linecap:round; stroke-linejoin:round;">
</g>
<g style="fill:#000000; fill-opacity:0.0; 
stroke:#000000; stroke-width:59.0551; stroke-opacity:1; 
stroke-linecap:round; stroke-linejoin:round;">
<path d="M102362 77955
L102362 78742
" />
</g>
<g style="fill:#000000; fill-opacity:0.0; 
stroke:#000000; stroke-width:39.3701; stroke-opacity:1; 
stroke-linecap:round; stroke-linejoin:round;">
</g>
<g style="fill:#000000; fill-opacity:0.0; 
stroke:#000000; stroke-width:59.0551; stroke-opacity:1; 
stroke-linecap:round; stroke-linejoin:round;">
<path d="M14199 78580
L13906 78580
" />
<path d="M14052 78580
L14052 78069
L14004 78142
L13955 78190
L13906 78215
" />
</g>
<g style="fill:#000000; fill-opacity:0.0; 
stroke:#000000; stroke-width:39.3701; stroke-opacity:1; 
stroke-linecap:round; stroke-linejoin:round;">
</g>
<g style="fill:#000000; fill-opacity:0.0; 
stroke:#000000; stroke-width:59.0551; stroke-opacity:1; 
stroke-linecap:round; stroke-linejoin:round;">
<path d="M33591 78117
L33615 78093
L33664 78069
L33786 78069
L33835 78093
L33859 78117
L33884 78166
L33884 78215
L33859 78288
L33567 78580
L33884 78580
" />
</g>
<g style="fill:#000000; fill-opacity:0.0; 
stroke:#000000; stroke-width:39.3701; stroke-opacity:1; 
stroke-linecap:round; stroke-linejoin:round;">
</g>
<g style="fill:#000000; fill-opacity:0.0; 
stroke:#000000; stroke-width:59.0551; stroke-opacity:1; 
stroke-linecap:round; stroke-linejoin:round;">
<path d="M53252 78069
L53569 78069
L53398 78263
L53471 78263
L53520 78288
L53544 78312
L53569 78361
L53569 78483
L53544 78532
L53520 78556
L53471 78580
L53325 78580
L53276 78556
L53252 78532
" />
</g>
<g style="fill:#000000; fill-opacity:0.0; 
stroke:#000000; stroke-width:39.3701; stroke-opacity:1; 
stroke-linecap:round; stroke-linejoin:round;">
</g>
<g style="fill:#000000; fill-opacity:0.0; 
stroke:#000000; stroke-width:59.0551; stroke-opacity:1; 
stroke-linecap:round; stroke-linejoin:round;">
<path d="M73205 78239
L73205 78580
" />
<path d="M73083 78044
L72961 78410
L73278 78410
" />
</g>
<g style="fill:#000000; fill-opacity:0.0; 
stroke:#000000; stroke-width:39.3701; stroke-opacity:1; 
stroke-linecap:round; stroke-linejoin:round;">
</g>
<g style="fill:#000000; fill-opacity:0.0; 
stroke:#000000; stroke-width:59.0551; stroke-opacity:1; 
stroke-linecap:round; stroke-linejoin:round;">
<path d="M92914 78069
L92671 78069
L92646 78312
L92671 78288
L92719 78263
L92841 78263
L92890 78288
L92914 78312
L92939 78361
L92939 78483
L92914 78532
L92890 78556
L92841 78580
L92719 78580
L92671 78556
L92646 78532
" />
</g>
<g style="fill:#000000; fill-opacity:0.0; 
stroke:#000000; stroke-width:39.3701; stroke-opacity:1; 
stroke-linecap:round; stroke-linejoin:round;">
</g>
<g style="fill:#000000; fill-opacity:0.0; 
stroke:#000000; stroke-width:59.0551; stroke-opacity:1; 
stroke-linecap:round; stroke-linejoin:round;">
<path d="M112575 78069
L112477 78069
L112429 78093
L112404 78117
L112356 78190
L112331 78288
L112331 78483
L112356 78532
L112380 78556
L112429 78580
L112526 78580
L112575 78556
L112599 78532
L112624 78483
L112624 78361
L112599 78312
L112575 78288
L112526 78263
L112429 78263
L112380 78288
L112356 78312
L112331 78361
" />
</g>
<g style="fill:#000000; fill-opacity:0.0; 
stroke:#000000; stroke-width:39.3701; stroke-opacity:1; 
stroke-linecap:round; stroke-linejoin:round;">
</g>
<g style="fill:#000000; fill-opacity:0.0; 
stroke:#000000; stroke-width:59.0551; stroke-opacity:1; 
stroke-linecap:round; stroke-linejoin:round;">
<path d="M3937 23622
L4724 23622
" />
</g>
<g style="fill:#000000; fill-opacity:0.0; 
stroke:#000000; stroke-width:39.3701; stroke-opacity:1; 
stroke-linecap:round; stroke-linejoin:round;">
</g>
<g style="fill:#000000; fill-opacity:0.0; 
stroke:#000000; stroke-width:59.0551; stroke-opacity:1; 
stroke-linecap:round; stroke-linejoin:round;">
<path d="M3937 43307
L4724 43307
" />
</g>
<g style="fill:#000000; fill-opacity:0.0; 
stroke:#000000; stroke-width:39.3701; stroke-opacity:1; 
stroke-linecap:round; stroke-linejoin:round;">
</g>
<g style="fill:#000000; fill-opacity:0.0; 
stroke:#000000; stroke-width:59.0551; stroke-opacity:1; 
stroke-linecap:round; stroke-linejoin:round;">
<path d="M3937 62992
L4724 62992
" />
</g>
<g style="fill:#000000; fill-opacity:0.0; 
stroke:#000000; stroke-width:39.3701; stroke-opacity:1; 
stroke-linecap:round; stroke-linejoin:round;">
</g>
<g style="fill:#000000; fill-opacity:0.0; 
stroke:#000000; stroke-width:59.0551; stroke-opacity:1; 
stroke-linecap:round; stroke-linejoin:round;">
<path d="M4208 13864
L4452 13864
" />
<path d="M4160 14011
L4330 13499
L4501 14011
" />
</g>
<g style="fill:#000000; fill-opacity:0.0; 
stroke:#000000; stroke-width:39.3701; stroke-opacity:1; 
stroke-linecap:round; stroke-linejoin:round;">
</g>
<g style="fill:#000000; fill-opacity:0.0; 
stroke:#000000; stroke-width:59.0551; stroke-opacity:1; 
stroke-linecap:round; stroke-linejoin:round;">
<path d="M4367 33428
L4440 33452
L4464 33476
L4489 33525
L4489 33598
L4464 33647
L4440 33671
L4391 33696
L4196 33696
L4196 33184
L4367 33184
L4416 33208
L4440 33233
L4464 33281
L4464 33330
L4440 33379
L4416 33403
L4367 33428
L4196 33428
" />
</g>
<g style="fill:#000000; fill-opacity:0.0; 
stroke:#000000; stroke-width:39.3701; stroke-opacity:1; 
stroke-linecap:round; stroke-linejoin:round;">
</g>
<g style="fill:#000000; fill-opacity:0.0; 
stroke:#000000; stroke-width:59.0551; stroke-opacity:1; 
stroke-linecap:round; stroke-linejoin:round;">
<path d="M4489 53332
L4464 53356
L4391 53381
L4342 53381
L4269 53356
L4221 53308
L4196 53259
L4172 53161
L4172 53088
L4196 52991
L4221 52942
L4269 52893
L4342 52869
L4391 52869
L4464 52893
L4489 52918
" />
</g>
<g style="fill:#000000; fill-opacity:0.0; 
stroke:#000000; stroke-width:39.3701; stroke-opacity:1; 
stroke-linecap:round; stroke-linejoin:round;">
</g>
<g style="fill:#000000; fill-opacity:0.0; 
stroke:#000000; stroke-width:59.0551; stroke-opacity:1; 
stroke-linecap:round; stroke-linejoin:round;">
<path d="M4196 73066
L4196 72554
L4318 72554
L4391 72578
L4440 72627
L4464 72676
L4489 72773
L4489 72846
L4464 72944
L4440 72993
L4391 73041
L4318 73066
L4196 73066
" />
</g>
<g style="fill:#000000; fill-opacity:0.0; 
stroke:#000000; stroke-width:39.3701; stroke-opacity:1; 
stroke-linecap:round; stroke-linejoin:round;">
</g>
<g style="fill:#000000; fill-opacity:0.0; 
stroke:#000000; stroke-width:59.0551; stroke-opacity:1; 
stroke-linecap:round; stroke-linejoin:round;">
<path d="M112992 23622
L112205 23622
" />
</g>
<g style="fill:#000000; fill-opacity:0.0; 
stroke:#000000; stroke-width:39.3701; stroke-opacity:1; 
stroke-linecap:round; stroke-linejoin:round;">
</g>
<g style="fill:#000000; fill-opacity:0.0; 
stroke:#000000; stroke-width:59.0551; stroke-opacity:1; 
stroke-linecap:round; stroke-linejoin:round;">
<path d="M112992 43307
L112205 43307
" />
</g>
<g style="fill:#000000; fill-opacity:0.0; 
stroke:#000000; stroke-width:39.3701; stroke-opacity:1; 
stroke-linecap:round; stroke-linejoin:round;">
</g>
<g style="fill:#000000; fill-opacity:0.0; 
stroke:#000000; stroke-width:59.0551; stroke-opacity:1; 
stroke-linecap:round; stroke-linejoin:round;">
<path d="M112992 62992
L112205 62992
" />
</g>
<g style="fill:#000000; fill-opacity:0.0; 
stroke:#000000; stroke-width:39.3701; stroke-opacity:1; 
stroke-linecap:round; stroke-linejoin:round;">
</g>
<g style="fill:#000000; fill-opacity:0.0; 
stroke:#000000; stroke-width:59.0551; stroke-opacity:1; 
stroke-linecap:round; stroke-linejoin:round;">
<path d="M112477 13864
L112721 13864
" />
<path d="M112428 14011
L112599 13499
L112769 14011
" />
</g>
<g style="fill:#000000; fill-opacity:0.0; 
stroke:#000000; stroke-width:39.3701; stroke-opacity:1; 
stroke-linecap:round; stroke-linejoin:round;">
</g>
<g style="fill:#000000; fill-opacity:0.0; 
stroke:#000000; stroke-width:59.0551; stroke-opacity:1; 
stroke-linecap:round; stroke-linejoin:round;">
<path d="M112635 33428
L112708 33452
L112733 33476
L112757 33525
L112757 33598
L112733 33647
L112708 33671
L112660 33696
L112465 33696
L112465 33184
L112635 33184
L112684 33208
L112708 33233
L112733 33281
L112733 33330
L112708 33379
L112684 33403
L112635 33428
L112465 33428
" />
</g>
<g style="fill:#000000; fill-opacity:0.0; 
stroke:#000000; stroke-width:39.3701; stroke-opacity:1; 
stroke-linecap:round; stroke-linejoin:round;">
</g>
<g style="fill:#000000; fill-opacity:0.0; 
stroke:#000000; stroke-width:59.0551; stroke-opacity:1; 
stroke-linecap:round; stroke-linejoin:round;">
<path d="M112757 53332
L112733 53356
L112660 53381
L112611 53381
L112538 53356
L112489 53308
L112465 53259
L112440 53161
L112440 53088
L112465 52991
L112489 52942
L112538 52893
L112611 52869
L112660 52869
L112733 52893
L112757 52918
" />
</g>
<g style="fill:#000000; fill-opacity:0.0; 
stroke:#000000; stroke-width:39.3701; stroke-opacity:1; 
stroke-linecap:round; stroke-linejoin:round;">
</g>
<g style="fill:#000000; fill-opacity:0.0; 
stroke:#000000; stroke-width:59.0551; stroke-opacity:1; 
stroke-linecap:round; stroke-linejoin:round;">
<path d="M112465 73066
L112465 72554
L112587 72554
L112660 72578
L112708 72627
L112733 72676
L112757 72773
L112757 72846
L112733 72944
L112708 72993
L112660 73041
L112587 73066
L112465 73066
" />
</g>
<g style="fill:#000000; fill-opacity:0.0; 
stroke:#000000; stroke-width:39.3701; stroke-opacity:1; 
stroke-linecap:round; stroke-linejoin:round;">
</g>
<g style="fill:#000000; fill-opacity:0.0; 
stroke:#000000; stroke-width:59.0551; stroke-opacity:1; 
stroke-linecap:round; stroke-linejoin:round;">
<path d="M78911 76293
L78911 75703
L79051 75703
L79136 75731
L79192 75787
L79220 75843
L79248 75956
L79248 76040
L79220 76153
L79192 76209
L79136 76265
L79051 76293
L78911 76293
" />
<path d="M79754 76293
L79754 75984
L79726 75928
L79670 75899
L79557 75899
L79501 75928
" />
<path d="M79754 76265
L79698 76293
L79557 76293
L79501 76265
L79473 76209
L79473 76153
L79501 76096
L79557 76068
L79698 76068
L79754 76040
" />
<path d="M79951 75899
L80176 75899
" />
<path d="M80036 75703
L80036 76209
L80064 76265
L80120 76293
L80176 76293
" />
<path d="M80598 76265
L80542 76293
L80429 76293
L80373 76265
L80345 76209
L80345 75984
L80373 75928
L80429 75899
L80542 75899
L80598 75928
L80626 75984
L80626 76040
L80345 76096
" />
<path d="M80879 76237
L80907 76265
L80879 76293
L80851 76265
L80879 76237
L80879 76293
" />
<path d="M80879 75928
L80907 75956
L80879 75984
L80851 75956
L80879 75928
L80879 75984
" />
</g>
<g style="fill:#000000; fill-opacity:0.0; 
stroke:#000000; stroke-width:39.3701; stroke-opacity:1; 
stroke-linecap:round; stroke-linejoin:round;">
</g>
<g style="fill:#000000; fill-opacity:0.0; 
stroke:#000000; stroke-width:59.0551; stroke-opacity:1; 
stroke-linecap:round; stroke-linejoin:round;">
<path d="M69685 76577
L112205 76577
" />
</g>
<g style="fill:#000000; fill-opacity:0.0; 
stroke:#000000; stroke-width:39.3701; stroke-opacity:1; 
stroke-linecap:round; stroke-linejoin:round;">
</g>
<g style="fill:#000000; fill-opacity:0.0; 
stroke:#000000; stroke-width:59.0551; stroke-opacity:1; 
stroke-linecap:round; stroke-linejoin:round;">
<path d="M70249 77395
L70249 76805
" />
<path d="M70587 77395
L70334 77058
" />
<path d="M70587 76805
L70249 77142
" />
<path d="M70840 77395
L70840 77002
" />
<path d="M70840 76805
L70812 76833
L70840 76861
L70868 76833
L70840 76805
L70840 76861
" />
<path d="M71458 77339
L71430 77367
L71346 77395
L71290 77395
L71205 77367
L71149 77311
L71121 77255
L71093 77142
L71093 77058
L71121 76946
L71149 76889
L71205 76833
L71290 76805
L71346 76805
L71430 76833
L71458 76861
" />
<path d="M71965 77395
L71965 77086
L71937 77030
L71880 77002
L71768 77002
L71712 77030
" />
<path d="M71965 77367
L71908 77395
L71768 77395
L71712 77367
L71683 77311
L71683 77255
L71712 77199
L71768 77171
L71908 77171
L71965 77142
" />
<path d="M72499 77395
L72499 76805
" />
<path d="M72499 77367
L72443 77395
L72330 77395
L72274 77367
L72246 77339
L72218 77283
L72218 77114
L72246 77058
L72274 77030
L72330 77002
L72443 77002
L72499 77030
" />
<path d="M73230 77086
L73427 77086
" />
<path d="M73511 77395
L73230 77395
L73230 76805
L73511 76805
" />
<path d="M73764 77339
L73793 77367
L73764 77395
L73736 77367
L73764 77339
L73764 77395
" />
<path d="M74046 77395
L74046 76805
L74186 76805
L74271 76833
L74327 76889
L74355 76946
L74383 77058
L74383 77142
L74355 77255
L74327 77311
L74271 77367
L74186 77395
L74046 77395
" />
<path d="M74636 77339
L74664 77367
L74636 77395
L74608 77367
L74636 77339
L74636 77395
" />
<path d="M74889 77227
L75171 77227
" />
<path d="M74833 77395
L75030 76805
L75227 77395
" />
<path d="M75424 77339
L75452 77367
L75424 77395
L75395 77367
L75424 77339
L75424 77395
" />
<path d="M76605 77002
L76605 77592
" />
<path d="M76605 77030
L76661 77002
L76773 77002
L76830 77030
L76858 77058
L76886 77114
L76886 77283
L76858 77339
L76830 77367
L76773 77395
L76661 77395
L76605 77367
" />
<path d="M77392 77367
L77336 77395
L77223 77395
L77167 77367
L77139 77339
L77111 77283
L77111 77114
L77139 77058
L77167 77030
L77223 77002
L77336 77002
L77392 77030
" />
<path d="M77645 77395
L77645 76805
" />
<path d="M77645 77030
L77701 77002
L77814 77002
L77870 77030
L77898 77058
L77926 77114
L77926 77283
L77898 77339
L77870 77367
L77814 77395
L77701 77395
L77645 77367
" />
<path d="M78180 77002
L78180 77395
" />
<path d="M78180 77058
L78208 77030
L78264 77002
L78348 77002
L78404 77030
L78433 77086
L78433 77395
" />
<path d="M78939 77367
L78883 77395
L78770 77395
L78714 77367
L78686 77311
L78686 77086
L78714 77030
L78770 77002
L78883 77002
L78939 77030
L78967 77086
L78967 77142
L78686 77199
" />
<path d="M79164 77002
L79276 77395
L79389 77114
L79501 77395
L79614 77002
" />
<path d="M80570 76805
L80289 76805
L80260 77086
L80289 77058
L80345 77030
L80485 77030
L80542 77058
L80570 77086
L80598 77142
L80598 77283
L80570 77339
L80542 77367
L80485 77395
L80345 77395
L80289 77367
L80260 77339
" />
<path d="M80851 77339
L80879 77367
L80851 77395
L80823 77367
L80851 77339
L80851 77395
" />
<path d="M81245 76805
L81301 76805
L81357 76833
L81385 76861
L81413 76917
L81442 77030
L81442 77171
L81413 77283
L81385 77339
L81357 77367
L81301 77395
L81245 77395
L81188 77367
L81160 77339
L81132 77283
L81104 77171
L81104 77030
L81132 76917
L81160 76861
L81188 76833
L81245 76805
" />
<path d="M81695 77339
L81723 77367
L81695 77395
L81667 77367
L81695 77339
L81695 77395
" />
<path d="M82088 76805
L82145 76805
L82201 76833
L82229 76861
L82257 76917
L82285 77030
L82285 77171
L82257 77283
L82229 77339
L82201 77367
L82145 77395
L82088 77395
L82032 77367
L82004 77339
L81976 77283
L81948 77171
L81948 77030
L81976 76917
L82004 76861
L82032 76833
L82088 76805
" />
<path d="M82538 77171
L82988 77171
" />
<path d="M83185 77002
L83410 77002
" />
<path d="M83269 77395
L83269 76889
L83298 76833
L83354 76805
L83410 76805
" />
<path d="M83832 77367
L83776 77395
L83663 77395
L83607 77367
L83579 77311
L83579 77086
L83607 77030
L83663 77002
L83776 77002
L83832 77030
L83860 77086
L83860 77142
L83579 77199
" />
<path d="M84338 77367
L84282 77395
L84169 77395
L84113 77367
L84085 77311
L84085 77086
L84113 77030
L84169 77002
L84282 77002
L84338 77030
L84366 77086
L84366 77142
L84085 77199
" />
<path d="M84872 77002
L84872 77395
" />
<path d="M84732 76777
L84591 77199
L84957 77199
" />
<path d="M85097 77002
L85322 77002
" />
<path d="M85182 77395
L85182 76889
L85210 76833
L85266 76805
L85322 76805
" />
<path d="M85772 77395
L85772 76805
" />
<path d="M85772 77367
L85716 77395
L85604 77395
L85547 77367
L85519 77339
L85491 77283
L85491 77114
L85519 77058
L85547 77030
L85604 77002
L85716 77002
L85772 77030
" />
<path d="M86363 77395
L86025 77395
" />
<path d="M86194 77395
L86194 76805
L86138 76889
L86082 76946
L86025 76974
" />
<path d="M86475 76644
L87038 76644
" />
<path d="M86869 76805
L86757 76805
L86700 76833
L86672 76861
L86616 76946
L86588 77058
L86588 77283
L86616 77339
L86644 77367
L86700 77395
L86813 77395
L86869 77367
L86897 77339
L86925 77283
L86925 77142
L86897 77086
L86869 77058
L86813 77030
L86700 77030
L86644 77058
L86616 77086
L86588 77142
" />
<path d="M87038 76644
L87600 76644
" />
<path d="M87431 76805
L87319 76805
L87263 76833
L87235 76861
L87178 76946
L87150 77058
L87150 77283
L87178 77339
L87206 77367
L87263 77395
L87375 77395
L87431 77367
L87460 77339
L87488 77283
L87488 77142
L87460 77086
L87431 77058
L87375 77030
L87263 77030
L87206 77058
L87178 77086
L87150 77142
" />
<path d="M87994 77002
L87994 77395
" />
<path d="M87741 77002
L87741 77311
L87769 77367
L87825 77395
L87910 77395
L87966 77367
L87994 77339
" />
<path d="M88275 77395
L88275 76805
" />
<path d="M88275 77030
L88331 77002
L88444 77002
L88500 77030
L88528 77058
L88556 77114
L88556 77283
L88528 77339
L88500 77367
L88444 77395
L88331 77395
L88275 77367
" />
<path d="M89063 77002
L89063 77395
" />
<path d="M88809 77002
L88809 77311
L88838 77367
L88894 77395
L88978 77395
L89034 77367
L89063 77339
" />
<path d="M89344 77002
L89344 77395
" />
<path d="M89344 77058
L89372 77030
L89428 77002
L89512 77002
L89569 77030
L89597 77086
L89597 77395
" />
<path d="M89794 77002
L90019 77002
" />
<path d="M89878 76805
L89878 77311
L89906 77367
L89962 77395
L90019 77395
" />
<path d="M90469 77002
L90469 77395
" />
<path d="M90215 77002
L90215 77311
L90244 77367
L90300 77395
L90384 77395
L90440 77367
L90469 77339
" />
<path d="M91059 77395
L90722 77395
" />
<path d="M90890 77395
L90890 76805
L90834 76889
L90778 76946
L90722 76974
" />
<path d="M91397 77058
L91340 77030
L91312 77002
L91284 76946
L91284 76917
L91312 76861
L91340 76833
L91397 76805
L91509 76805
L91565 76833
L91593 76861
L91622 76917
L91622 76946
L91593 77002
L91565 77030
L91509 77058
L91397 77058
L91340 77086
L91312 77114
L91284 77171
L91284 77283
L91312 77339
L91340 77367
L91397 77395
L91509 77395
L91565 77367
L91593 77339
L91622 77283
L91622 77171
L91593 77114
L91565 77086
L91509 77058
" />
<path d="M91875 77339
L91903 77367
L91875 77395
L91847 77367
L91875 77339
L91875 77395
" />
<path d="M92268 76805
L92325 76805
L92381 76833
L92409 76861
L92437 76917
L92465 77030
L92465 77171
L92437 77283
L92409 77339
L92381 77367
L92325 77395
L92268 77395
L92212 77367
L92184 77339
L92156 77283
L92128 77171
L92128 77030
L92156 76917
L92184 76861
L92212 76833
L92268 76805
" />
<path d="M92971 77002
L92971 77395
" />
<path d="M92831 76777
L92690 77199
L93056 77199
" />
<path d="M93281 77339
L93309 77367
L93281 77395
L93253 77367
L93281 77339
L93281 77395
" />
<path d="M93871 77395
L93534 77395
" />
<path d="M93703 77395
L93703 76805
L93646 76889
L93590 76946
L93534 76974
" />
</g>
<g style="fill:#000000; fill-opacity:0.0; 
stroke:#000000; stroke-width:39.3701; stroke-opacity:1; 
stroke-linecap:round; stroke-linejoin:round;">
</g>
<g style="fill:#000000; fill-opacity:0.0; 
stroke:#000000; stroke-width:59.0551; stroke-opacity:1; 
stroke-linecap:round; stroke-linejoin:round;">
<path d="M69685 75396
L112205 75396
" />
</g>
<g style="fill:#000000; fill-opacity:0.0; 
stroke:#000000; stroke-width:39.3701; stroke-opacity:1; 
stroke-linecap:round; stroke-linejoin:round;">
</g>
<g style="fill:#000000; fill-opacity:0.0; 
stroke:#000000; stroke-width:118.11; stroke-opacity:1; 
stroke-linecap:round; stroke-linejoin:round;">
<path d="M104099 76293
L103902 76012
" />
<path d="M103761 76293
L103761 75703
L103986 75703
L104042 75731
L104070 75759
L104099 75815
L104099 75899
L104070 75956
L104042 75984
L103986 76012
L103761 76012
" />
<path d="M104577 76265
L104520 76293
L104408 76293
L104352 76265
L104323 76209
L104323 75984
L104352 75928
L104408 75899
L104520 75899
L104577 75928
L104605 75984
L104605 76040
L104323 76096
" />
<path d="M104802 75899
L104942 76293
L105083 75899
" />
<path d="M105308 76237
L105336 76265
L105308 76293
L105280 76265
L105308 76237
L105308 76293
" />
<path d="M105308 75928
L105336 75956
L105308 75984
L105280 75956
L105308 75928
L105308 75984
" />
</g>
<g style="fill:#000000; fill-opacity:0.0; 
stroke:#000000; stroke-width:39.3701; stroke-opacity:1; 
stroke-linecap:round; stroke-linejoin:round;">
</g>
<g style="fill:#000000; fill-opacity:0.0; 
stroke:#000000; stroke-width:59.0551; stroke-opacity:1; 
stroke-linecap:round; stroke-linejoin:round;">
<path d="M70221 76265
L70305 76293
L70446 76293
L70502 76265
L70530 76237
L70559 76181
L70559 76124
L70530 76068
L70502 76040
L70446 76012
L70334 75984
L70277 75956
L70249 75928
L70221 75871
L70221 75815
L70249 75759
L70277 75731
L70334 75703
L70474 75703
L70559 75731
" />
<path d="M70812 76293
L70812 75899
" />
<path d="M70812 75703
L70784 75731
L70812 75759
L70840 75731
L70812 75703
L70812 75759
" />
<path d="M71037 75899
L71346 75899
L71037 76293
L71346 76293
" />
<path d="M71796 76265
L71740 76293
L71627 76293
L71571 76265
L71543 76209
L71543 75984
L71571 75928
L71627 75899
L71740 75899
L71796 75928
L71824 75984
L71824 76040
L71543 76096
" />
<path d="M72077 76237
L72105 76265
L72077 76293
L72049 76265
L72077 76237
L72077 76293
" />
<path d="M72077 75928
L72105 75956
L72077 75984
L72049 75956
L72077 75928
L72077 75984
" />
<path d="M72780 76124
L73061 76124
" />
<path d="M72724 76293
L72921 75703
L73118 76293
" />
<path d="M73568 75899
L73568 76293
" />
<path d="M73427 75674
L73286 76096
L73652 76096
" />
</g>
<g style="fill:#000000; fill-opacity:0.0; 
stroke:#000000; stroke-width:39.3701; stroke-opacity:1; 
stroke-linecap:round; stroke-linejoin:round;">
</g>
<g style="fill:#000000; fill-opacity:0.0; 
stroke:#000000; stroke-width:59.0551; stroke-opacity:1; 
stroke-linecap:round; stroke-linejoin:round;">
<path d="M103714 77395
L103714 76805
" />
<path d="M104248 77395
L104248 76805
" />
<path d="M104248 77367
L104192 77395
L104079 77395
L104023 77367
L103995 77339
L103967 77283
L103967 77114
L103995 77058
L104023 77030
L104079 77002
L104192 77002
L104248 77030
" />
<path d="M104529 77339
L104557 77367
L104529 77395
L104501 77367
L104529 77339
L104529 77395
" />
<path d="M104529 77030
L104557 77058
L104529 77086
L104501 77058
L104529 77030
L104529 77086
" />
<path d="M105570 77395
L105232 77395
" />
<path d="M105401 77395
L105401 76805
L105345 76889
L105289 76946
L105232 76974
" />
<path d="M106245 76777
L105739 77536
" />
<path d="M106751 77395
L106413 77395
" />
<path d="M106582 77395
L106582 76805
L106526 76889
L106470 76946
L106413 76974
" />
</g>
<g style="fill:#000000; fill-opacity:0.0; 
stroke:#000000; stroke-width:39.3701; stroke-opacity:1; 
stroke-linecap:round; stroke-linejoin:round;">
</g>
<g style="fill:#000000; fill-opacity:0.0; 
stroke:#000000; stroke-width:59.0551; stroke-opacity:1; 
stroke-linecap:round; stroke-linejoin:round;">
<path d="M69685 73821
L112205 73821
" />
</g>
<g style="fill:#000000; fill-opacity:0.0; 
stroke:#000000; stroke-width:39.3701; stroke-opacity:1; 
stroke-linecap:round; stroke-linejoin:round;">
</g>
<g style="fill:#000000; fill-opacity:0.0; 
stroke:#000000; stroke-width:157.48; stroke-opacity:1; 
stroke-linecap:round; stroke-linejoin:round;">
<path d="M70360 74099
L70810 74099
" />
<path d="M70486 74886
L70585 74099
" />
<path d="M70974 74886
L71039 74361
" />
<path d="M71072 74099
L71030 74136
L71063 74174
L71105 74136
L71072 74099
L71063 74174
" />
<path d="M71302 74361
L71602 74361
" />
<path d="M71447 74099
L71363 74774
L71391 74849
L71461 74886
L71536 74886
" />
<path d="M71911 74886
L71841 74849
L71813 74774
L71897 74099
" />
<path d="M72516 74849
L72436 74886
L72286 74886
L72216 74849
L72187 74774
L72225 74474
L72272 74399
L72352 74361
L72501 74361
L72572 74399
L72600 74474
L72591 74549
L72206 74624
" />
<path d="M72895 74811
L72928 74849
L72886 74886
L72853 74849
L72895 74811
L72886 74886
" />
<path d="M72947 74399
L72980 74436
L72937 74474
L72905 74436
L72947 74399
L72937 74474
" />
</g>
<g style="fill:#000000; fill-opacity:0.0; 
stroke:#000000; stroke-width:39.3701; stroke-opacity:1; 
stroke-linecap:round; stroke-linejoin:round;">
</g>
<g style="fill:#000000; fill-opacity:0.0; 
stroke:#000000; stroke-width:59.0551; stroke-opacity:1; 
stroke-linecap:round; stroke-linejoin:round;">
<path d="M70446 73070
L70249 73070
" />
<path d="M70249 73380
L70249 72789
L70530 72789
" />
<path d="M70755 73380
L70755 72986
" />
<path d="M70755 72789
L70727 72817
L70755 72845
L70784 72817
L70755 72789
L70755 72845
" />
<path d="M71121 73380
L71065 73352
L71037 73295
L71037 72789
" />
<path d="M71571 73352
L71515 73380
L71402 73380
L71346 73352
L71318 73295
L71318 73070
L71346 73014
L71402 72986
L71515 72986
L71571 73014
L71599 73070
L71599 73127
L71318 73183
" />
<path d="M71852 73323
L71880 73352
L71852 73380
L71824 73352
L71852 73323
L71852 73380
" />
<path d="M71852 73014
L71880 73042
L71852 73070
L71824 73042
L71852 73014
L71852 73070
" />
<path d="M72836 73352
L72780 73380
L72668 73380
L72611 73352
L72583 73323
L72555 73267
L72555 73099
L72583 73042
L72611 73014
L72668 72986
L72780 72986
L72836 73014
" />
<path d="M73174 73380
L73118 73352
L73090 73323
L73061 73267
L73061 73099
L73090 73042
L73118 73014
L73174 72986
L73258 72986
L73314 73014
L73343 73042
L73371 73099
L73371 73267
L73343 73323
L73314 73352
L73258 73380
L73174 73380
" />
<path d="M73624 72986
L73624 73380
" />
<path d="M73624 73042
L73652 73014
L73708 72986
L73793 72986
L73849 73014
L73877 73070
L73877 73380
" />
<path d="M74411 73352
L74355 73380
L74242 73380
L74186 73352
L74158 73323
L74130 73267
L74130 73099
L74158 73042
L74186 73014
L74242 72986
L74355 72986
L74411 73014
" />
<path d="M74889 73352
L74833 73380
L74721 73380
L74664 73352
L74636 73295
L74636 73070
L74664 73014
L74721 72986
L74833 72986
L74889 73014
L74917 73070
L74917 73127
L74636 73183
" />
<path d="M75171 73380
L75171 72986
" />
<path d="M75171 73099
L75199 73042
L75227 73014
L75283 72986
L75339 72986
" />
<path d="M75452 72986
L75677 72986
" />
<path d="M75536 72789
L75536 73295
L75564 73352
L75620 73380
L75677 73380
" />
<path d="M75874 73380
L75874 72986
" />
<path d="M75874 72789
L75845 72817
L75874 72845
L75902 72817
L75874 72789
L75874 72845
" />
<path d="M76155 72986
L76155 73380
" />
<path d="M76155 73042
L76183 73014
L76239 72986
L76323 72986
L76380 73014
L76408 73070
L76408 73380
" />
<path d="M76942 73380
L76942 73070
L76914 73014
L76858 72986
L76745 72986
L76689 73014
" />
<path d="M76942 73352
L76886 73380
L76745 73380
L76689 73352
L76661 73295
L76661 73239
L76689 73183
L76745 73155
L76886 73155
L76942 73127
" />
<path d="M77223 73323
L77251 73352
L77223 73380
L77195 73352
L77223 73323
L77223 73380
" />
<path d="M77505 73380
L77505 72789
" />
<path d="M77561 73155
L77730 73380
" />
<path d="M77730 72986
L77505 73211
" />
<path d="M77983 73380
L77983 72986
" />
<path d="M77983 72789
L77955 72817
L77983 72845
L78011 72817
L77983 72789
L77983 72845
" />
<path d="M78517 73352
L78461 73380
L78348 73380
L78292 73352
L78264 73323
L78236 73267
L78236 73099
L78264 73042
L78292 73014
L78348 72986
L78461 72986
L78517 73014
" />
<path d="M79023 73380
L79023 73070
L78995 73014
L78939 72986
L78826 72986
L78770 73014
" />
<path d="M79023 73352
L78967 73380
L78826 73380
L78770 73352
L78742 73295
L78742 73239
L78770 73183
L78826 73155
L78967 73155
L79023 73127
" />
<path d="M79557 73380
L79557 72789
" />
<path d="M79557 73352
L79501 73380
L79389 73380
L79332 73352
L79304 73323
L79276 73267
L79276 73099
L79304 73042
L79332 73014
L79389 72986
L79501 72986
L79557 73014
" />
<path d="M79698 73436
L80148 73436
" />
<path d="M80289 72986
L80289 73577
" />
<path d="M80289 73014
L80345 72986
L80457 72986
L80514 73014
L80542 73042
L80570 73099
L80570 73267
L80542 73323
L80514 73352
L80457 73380
L80345 73380
L80289 73352
" />
<path d="M81076 73352
L81020 73380
L80907 73380
L80851 73352
L80823 73323
L80795 73267
L80795 73099
L80823 73042
L80851 73014
L80907 72986
L81020 72986
L81076 73014
" />
<path d="M81329 73380
L81329 72789
" />
<path d="M81329 73014
L81385 72986
L81498 72986
L81554 73014
L81582 73042
L81610 73099
L81610 73267
L81582 73323
L81554 73352
L81498 73380
L81385 73380
L81329 73352
" />
</g>
<g style="fill:#000000; fill-opacity:0.0; 
stroke:#000000; stroke-width:39.3701; stroke-opacity:1; 
stroke-linecap:round; stroke-linejoin:round;">
</g>
<g style="fill:#000000; fill-opacity:0.0; 
stroke:#000000; stroke-width:59.0551; stroke-opacity:1; 
stroke-linecap:round; stroke-linejoin:round;">
<path d="M69685 71459
L112205 71459
" />
</g>
<g style="fill:#000000; fill-opacity:0.0; 
stroke:#000000; stroke-width:39.3701; stroke-opacity:1; 
stroke-linecap:round; stroke-linejoin:round;">
</g>
<g style="fill:#000000; fill-opacity:0.0; 
stroke:#000000; stroke-width:59.0551; stroke-opacity:1; 
stroke-linecap:round; stroke-linejoin:round;">
<path d="M70221 72289
L70305 72317
L70446 72317
L70502 72289
L70530 72260
L70559 72204
L70559 72148
L70530 72092
L70502 72064
L70446 72036
L70334 72007
L70277 71979
L70249 71951
L70221 71895
L70221 71839
L70249 71782
L70277 71754
L70334 71726
L70474 71726
L70559 71754
" />
<path d="M70812 72317
L70812 71726
" />
<path d="M71065 72317
L71065 72007
L71037 71951
L70980 71923
L70896 71923
L70840 71951
L70812 71979
" />
<path d="M71571 72289
L71515 72317
L71402 72317
L71346 72289
L71318 72232
L71318 72007
L71346 71951
L71402 71923
L71515 71923
L71571 71951
L71599 72007
L71599 72064
L71318 72120
" />
<path d="M72077 72289
L72021 72317
L71908 72317
L71852 72289
L71824 72232
L71824 72007
L71852 71951
L71908 71923
L72021 71923
L72077 71951
L72105 72007
L72105 72064
L71824 72120
" />
<path d="M72274 71923
L72499 71923
" />
<path d="M72358 71726
L72358 72232
L72386 72289
L72443 72317
L72499 72317
" />
<path d="M72696 72260
L72724 72289
L72696 72317
L72668 72289
L72696 72260
L72696 72317
" />
<path d="M72696 71951
L72724 71979
L72696 72007
L72668 71979
L72696 71951
L72696 72007
" />
</g>
<g style="fill:#000000; fill-opacity:0.0; 
stroke:#000000; stroke-width:39.3701; stroke-opacity:1; 
stroke-linecap:round; stroke-linejoin:round;">
</g>
<g style="fill:#000000; fill-opacity:0.0; 
stroke:#000000; stroke-width:59.0551; stroke-opacity:1; 
stroke-linecap:round; stroke-linejoin:round;">
<path d="M77559 75396
L77559 76577
" />
</g>
<g style="fill:#000000; fill-opacity:0.0; 
stroke:#000000; stroke-width:39.3701; stroke-opacity:1; 
stroke-linecap:round; stroke-linejoin:round;">
</g>
<g style="fill:#000000; fill-opacity:0.0; 
stroke:#000000; stroke-width:59.0551; stroke-opacity:1; 
stroke-linecap:round; stroke-linejoin:round;">
<path d="M102756 75396
L102756 77955
" />
</g>
<g style="fill:#C2C2C2; fill-opacity:0.0; 
stroke:#C2C2C2; stroke-width:59.0551; stroke-opacity:1; 
stroke-linecap:round; stroke-linejoin:round;">
</g>
<g style="fill:#C2C2C2; fill-opacity:0.0; 
stroke:#C2C2C2; stroke-width:118.11; stroke-opacity:1; 
stroke-linecap:round; stroke-linejoin:round;">
<path d="M36859 45593
L36522 45593
" />
<path d="M36690 45593
L36690 45003
L36634 45087
L36578 45143
L36522 45172
" />
<path d="M37365 45200
L37365 45593
" />
<path d="M37225 44975
L37084 45397
L37450 45397
" />
<path d="M37787 45003
L37843 45003
L37900 45031
L37928 45059
L37956 45115
L37984 45228
L37984 45368
L37956 45481
L37928 45537
L37900 45565
L37843 45593
L37787 45593
L37731 45565
L37703 45537
L37675 45481
L37647 45368
L37647 45228
L37675 45115
L37703 45059
L37731 45031
L37787 45003
" />
<path d="M38265 45565
L38265 45593
L38237 45650
L38209 45678
" />
<path d="M38546 45593
L38659 45593
L38715 45565
L38743 45537
L38800 45453
L38828 45340
L38828 45115
L38800 45059
L38771 45031
L38715 45003
L38603 45003
L38546 45031
L38518 45059
L38490 45115
L38490 45256
L38518 45312
L38546 45340
L38603 45368
L38715 45368
L38771 45340
L38800 45312
L38828 45256
" />
<path d="M39025 45003
L39418 45003
L39165 45593
" />
<path d="M39756 45003
L39812 45003
L39868 45031
L39896 45059
L39924 45115
L39953 45228
L39953 45368
L39924 45481
L39896 45537
L39868 45565
L39812 45593
L39756 45593
L39699 45565
L39671 45537
L39643 45481
L39615 45368
L39615 45228
L39643 45115
L39671 45059
L39699 45031
L39756 45003
" />
<path d="M40656 45593
L40656 45200
" />
<path d="M40656 45256
L40684 45228
L40740 45200
L40824 45200
L40881 45228
L40909 45284
L40909 45593
" />
<path d="M40909 45284
L40937 45228
L40993 45200
L41077 45200
L41134 45228
L41162 45284
L41162 45593
" />
<path d="M41443 45593
L41443 45200
" />
<path d="M41443 45256
L41471 45228
L41527 45200
L41612 45200
L41668 45228
L41696 45284
L41696 45593
" />
<path d="M41696 45284
L41724 45228
L41780 45200
L41865 45200
L41921 45228
L41949 45284
L41949 45593
" />
<path d="M11500 44500
L67000 44500
" />
<path d="M11500 44500
L11500 44730
" />
<path d="M67000 44500
L67000 44730
" />
<path d="M67000 44500
L66556 44730
" />
<path d="M67000 44500
L66556 44269
" />
<path d="M11500 44500
L11943 44730
" />
<path d="M11500 44500
L11943 44269
" />
<path d="M10406 24109
L10406 24222
L10434 24278
L10462 24306
L10546 24362
L10659 24390
L10884 24390
L10940 24362
L10968 24334
L10996 24278
L10996 24165
L10968 24109
L10940 24081
L10884 24053
L10743 24053
L10687 24081
L10659 24109
L10631 24165
L10631 24278
L10659 24334
L10687 24362
L10743 24390
" />
<path d="M10406 24953
L10406 24615
" />
<path d="M10406 24784
L10996 24784
L10912 24728
L10856 24672
L10827 24615
" />
<path d="M10434 25234
L10406 25234
L10349 25206
L10321 25178
" />
<path d="M10799 25740
L10406 25740
" />
<path d="M11024 25600
L10602 25459
L10602 25825
" />
<path d="M10799 26303
L10406 26303
" />
<path d="M11024 26162
L10602 26021
L10602 26387
" />
<path d="M10996 26724
L10996 26781
L10968 26837
L10940 26865
L10884 26893
L10771 26921
L10631 26921
L10518 26893
L10462 26865
L10434 26837
L10406 26781
L10406 26724
L10434 26668
L10462 26640
L10518 26612
L10631 26584
L10771 26584
L10884 26612
L10940 26640
L10968 26668
L10996 26724
" />
<path d="M10406 27624
L10799 27624
" />
<path d="M10743 27624
L10771 27652
L10799 27709
L10799 27793
L10771 27849
L10715 27877
L10406 27877
" />
<path d="M10715 27877
L10771 27906
L10799 27962
L10799 28046
L10771 28102
L10715 28131
L10406 28131
" />
<path d="M10406 28412
L10799 28412
" />
<path d="M10743 28412
L10771 28440
L10799 28496
L10799 28580
L10771 28637
L10715 28665
L10406 28665
" />
<path d="M10715 28665
L10771 28693
L10799 28749
L10799 28834
L10771 28890
L10715 28918
L10406 28918
" />
<path d="M11500 8500
L11500 44500
" />
<path d="M67000 8500
L11269 8500
" />
<path d="M67000 44500
L11269 44500
" />
<path d="M11500 44500
L11269 44056
" />
<path d="M11500 44500
L11730 44056
" />
<path d="M11500 8500
L11269 8943
" />
<path d="M11500 8500
L11730 8943
" />
</g>
<g style="fill:#C2C2C2; fill-opacity:0.0; 
stroke:#C2C2C2; stroke-width:59.0551; stroke-opacity:1; 
stroke-linecap:round; stroke-linejoin:round;">
<path d="M26250 26250
L26250 18750
" />
<path d="M33750 26250
L26250 26250
" />
<path d="M33750 18750
L33750 26250
" />
<path d="M26250 18750
L33750 18750
" />
<path d="M27250 27750
L34750 27750
" />
<path d="M34750 27750
L34750 35250
" />
<path d="M34750 35250
L27250 35250
" />
<path d="M27250 35250
L27250 27750
" />
<path d="M34250 17250
L34250 9750
" />
<path d="M41750 17250
L34250 17250
" />
<path d="M41750 9750
L41750 17250
" />
<path d="M34250 9750
L41750 9750
" />
<path d="M35250 26250
L35250 18750
" />
<path d="M42750 26250
L35250 26250
" />
<path d="M42750 18750
L42750 26250
" />
<path d="M35250 18750
L42750 18750
" />
<path d="M36250 27750
L43750 27750
" />
<path d="M43750 27750
L43750 35250
" />
<path d="M43750 35250
L36250 35250
" />
<path d="M36250 35250
L36250 27750
" />
<path d="M43250 9750
L50750 9750
" />
<path d="M50750 9750
L50750 17250
" />
<path d="M50750 17250
L43250 17250
" />
<path d="M43250 17250
L43250 9750
" />
<path d="M44250 26250
L44250 18750
" />
<path d="M51750 26250
L44250 26250
" />
<path d="M51750 18750
L51750 26250
" />
<path d="M44250 18750
L51750 18750
" />
<path d="M45250 35250
L45250 27750
" />
<path d="M52750 35250
L45250 35250
" />
<path d="M52750 27750
L52750 35250
" />
<path d="M45250 27750
L52750 27750
" />
<path d="M52250 17250
L52250 9750
" />
<path d="M59750 17250
L52250 17250
" />
<path d="M59750 9750
L59750 17250
" />
<path d="M52250 9750
L59750 9750
" />
<path d="M53250 18750
L60750 18750
" />
<path d="M60750 18750
L60750 26250
" />
<path d="M60750 26250
L53250 26250
" />
<path d="M53250 26250
L53250 18750
" />
<path d="M16250 17250
L16250 9750
" />
<path d="M23750 17250
L16250 17250
" />
<path d="M23750 9750
L23750 17250
" />
<path d="M16250 9750
L23750 9750
" />
<path d="M17250 18750
L24750 18750
" />
<path d="M24750 18750
L24750 26250
" />
<path d="M24750 26250
L17250 26250
" />
<path d="M17250 26250
L17250 18750
" />
<path d="M25250 17250
L25250 9750
" />
<path d="M32750 17250
L25250 17250
" />
<path d="M32750 9750
L32750 17250
" />
<path d="M25250 9750
L32750 9750
" />
<path d="M54250 35250
L54250 27750
" />
<path d="M61750 35250
L54250 35250
" />
<path d="M61750 27750
L61750 35250
" />
<path d="M54250 27750
L61750 27750
" />
<path d="M18250 35250
L18250 27750
" />
<path d="M25750 35250
L18250 35250
" />
<path d="M25750 27750
L25750 35250
" />
<path d="M18250 27750
L25750 27750
" />
</g>
<g style="fill:#000000; fill-opacity:0.0; 
stroke:#000000; stroke-width:59.0551; stroke-opacity:1; 
stroke-linecap:round; stroke-linejoin:round;">
</g>
<g style="fill:#C2C200; fill-opacity:0.0; 
stroke:#C2C200; stroke-width:59.0551; stroke-opacity:1; 
stroke-linecap:round; stroke-linejoin:round;">
<path d="M11500 8500
L11500 44500
" />
<path d="M67000 8500
L11500 8500
" />
<path d="M67000 44500
L67000 8500
" />
<path d="M11500 44500
L67000 44500
" />
<path d="M11500 8500
L11500 44500
" />
<path d="M11500 44500
L11500 8500
" />
<path d="M11500 8500
L11500 44500
" />
</g>
<g style="fill:#C2C200; fill-opacity:0.0; 
stroke:#C2C200; stroke-width:78.7402; stroke-opacity:1; 
stroke-linecap:round; stroke-linejoin:round;">
<path d="M67000 44500
L11500 44500
" />
</g>
<g style="fill:#C2C200; fill-opacity:0.0; 
stroke:#C2C200; stroke-width:59.0551; stroke-opacity:1; 
stroke-linecap:round; stroke-linejoin:round;">
<path d="M67000 8500
L67000 44500
" />
<path d="M11500 8500
L67000 8500
" />
</g> 
</svg>
