  0
SECTION
  2
HEADER
  9
$ANGBASE
  50
0.0
  9
$ANGDIR
  70
  1
  9
$MEASUREMENT
  70
0
  0
ENDSEC
  0
SECTION
  2
TABLES
  0
TABLE
  2
LTYPE
  70
4
  0
LTYPE
  5
40F
  2
CONTINUOUS
  70
0
  3
Solid line
  72
65
  73
0
  40
0.0
  0
LTYPE
  5
410
  2
DASHDOT
 70
0
  3
Dash Dot ____ _ ____ _
 72
65
 73
4
 40
2.0
 49
1.25
 49
-0.25
 49
0.25
 49
-0.25
  0
LTYPE
  5
411
  2
DASHED
 70
0
  3
Dashed __ __ __ __ __
 72
65
 73
2
 40
0.75
 49
0.5
 49
-0.25
  0
LTYPE
  5
43B
  2
DOTTED
 70
0
  3
Dotted .  .  .  .
 72
65
 73
2
 40
0.2
 49
0.0
 49
-0.2
  0
ENDTAB
  0
TABLE
  2
STYLE
  70
4
  0
STYLE
  2
KICAD
  70
0
  40
0
  41
1
  42
1
  50
0
  71
0
  3
isocp.shx
  0
STYLE
  2
KICADB
  70
0
  40
0
  41
1
  42
1
  50
0
  71
0
  3
isocp.shx
  0
STYLE
  2
KICADI
  70
0
  40
0
  41
1
  42
1
  50
15
  71
0
  3
isocp.shx
  0
STYLE
  2
KICADBI
  70
0
  40
0
  41
1
  42
1
  50
15
  71
0
  3
isocp.shx
  0
ENDTAB
  0
TABLE
  2
LAYER
  70
30
  0
LAYER
  2
BLACK
  70
0
  62
7
  6
CONTINUOUS
  0
LAYER
  2
GRAY1
  70
0
  62
251
  6
CONTINUOUS
  0
LAYER
  2
GRAY2
  70
0
  62
8
  6
CONTINUOUS
  0
LAYER
  2
GRAY3
  70
0
  62
9
  6
CONTINUOUS
  0
LAYER
  2
WHITE
  70
0
  62
7
  6
CONTINUOUS
  0
LAYER
  2
LYELLOW
  70
0
  62
51
  6
CONTINUOUS
  0
LAYER
  2
BLUE1
  70
0
  62
178
  6
CONTINUOUS
  0
LAYER
  2
GREEN1
  70
0
  62
98
  6
CONTINUOUS
  0
LAYER
  2
CYAN1
  70
0
  62
138
  6
CONTINUOUS
  0
LAYER
  2
RED1
  70
0
  62
18
  6
CONTINUOUS
  0
LAYER
  2
MAGENTA1
  70
0
  62
228
  6
CONTINUOUS
  0
LAYER
  2
BROWN1
  70
0
  62
58
  6
CONTINUOUS
  0
LAYER
  2
BLUE2
  70
0
  62
5
  6
CONTINUOUS
  0
LAYER
  2
GREEN2
  70
0
  62
3
  6
CONTINUOUS
  0
LAYER
  2
CYAN2
  70
0
  62
4
  6
CONTINUOUS
  0
LAYER
  2
RED2
  70
0
  62
1
  6
CONTINUOUS
  0
LAYER
  2
MAGENTA2
  70
0
  62
6
  6
CONTINUOUS
  0
LAYER
  2
BROWN2
  70
0
  62
54
  6
CONTINUOUS
  0
LAYER
  2
BLUE3
  70
0
  62
171
  6
CONTINUOUS
  0
LAYER
  2
GREEN3
  70
0
  62
91
  6
CONTINUOUS
  0
LAYER
  2
CYAN3
  70
0
  62
131
  6
CONTINUOUS
  0
LAYER
  2
RED3
  70
0
  62
11
  6
CONTINUOUS
  0
LAYER
  2
MAGENTA3
  70
0
  62
221
  6
CONTINUOUS
  0
LAYER
  2
YELLOW3
  70
0
  62
2
  6
CONTINUOUS
  0
LAYER
  2
BLUE4
  70
0
  62
5
  6
CONTINUOUS
  0
LAYER
  2
GREEN4
  70
0
  62
3
  6
CONTINUOUS
  0
LAYER
  2
CYAN4
  70
0
  62
4
  6
CONTINUOUS
  0
LAYER
  2
RED4
  70
0
  62
1
  6
CONTINUOUS
  0
LAYER
  2
MAGENTA4
  70
0
  62
6
  6
CONTINUOUS
  0
LAYER
  2
YELLOW4
  70
0
  62
2
  6
CONTINUOUS
  0
ENDTAB
  0
ENDSEC
  0
SECTION
  2
ENTITIES
0
LINE
8
BLACK
6
CONTINUOUS
10
105.842
20
-134.774
11
105.452
21
-135.397
0
LINE
8
BLACK
6
CONTINUOUS
10
105.452
20
-135.397
11
104.935
21
-135.918
0
LINE
8
BLACK
6
CONTINUOUS
10
104.935
20
-135.918
11
104.314
21
-136.312
0
LINE
8
BLACK
6
CONTINUOUS
10
104.314
20
-136.312
11
103.622
21
-136.558
0
LINE
8
BLACK
6
CONTINUOUS
10
103.622
20
-136.558
11
102.893
21
-136.645
0
LINE
8
BLACK
6
CONTINUOUS
10
102.893
20
-136.645
11
102.162
21
-136.568
0
LINE
8
BLACK
6
CONTINUOUS
10
102.162
20
-136.568
11
101.467
21
-136.331
0
LINE
8
BLACK
6
CONTINUOUS
10
101.467
20
-136.331
11
100.841
21
-135.946
0
LINE
8
BLACK
6
CONTINUOUS
10
100.841
20
-135.946
11
100.317
21
-135.433
0
LINE
8
BLACK
6
CONTINUOUS
10
100.317
20
-135.433
11
99.9186
21
-134.815
0
LINE
8
BLACK
6
CONTINUOUS
10
99.9186
20
-134.815
11
99.6674
21
-134.125
0
LINE
8
BLACK
6
CONTINUOUS
10
99.6674
20
-134.125
11
99.5753
21
-133.396
0
LINE
8
BLACK
6
CONTINUOUS
10
99.5753
20
-133.396
11
99.647
21
-132.665
0
LINE
8
BLACK
6
CONTINUOUS
10
99.647
20
-132.665
11
99.8789
21
-131.968
0
LINE
8
BLACK
6
CONTINUOUS
10
99.8789
20
-131.968
11
100.259
21
-131.34
0
LINE
8
BLACK
6
CONTINUOUS
10
100.259
20
-131.34
11
100.77
21
-130.811
0
LINE
8
BLACK
6
CONTINUOUS
10
100.77
20
-130.811
11
101.384
21
-130.409
0
LINE
8
BLACK
6
CONTINUOUS
10
101.384
20
-130.409
11
102.073
21
-130.153
0
LINE
8
BLACK
6
CONTINUOUS
10
102.073
20
-130.153
11
102.801
21
-130.056
0
LINE
8
BLACK
6
CONTINUOUS
10
102.801
20
-130.056
11
103.533
21
-130.122
0
LINE
8
BLACK
6
CONTINUOUS
10
103.533
20
-130.122
11
104.231
21
-130.349
0
LINE
8
BLACK
6
CONTINUOUS
10
104.231
20
-130.349
11
104.862
21
-130.725
0
LINE
8
BLACK
6
CONTINUOUS
10
104.862
20
-130.725
11
105.394
21
-131.232
0
LINE
8
BLACK
6
CONTINUOUS
10
105.394
20
-131.232
11
105.801
21
-131.844
0
LINE
8
BLACK
6
CONTINUOUS
10
105.801
20
-131.844
11
106.061
21
-132.531
0
LINE
8
BLACK
6
CONTINUOUS
10
106.061
20
-132.531
11
106.164
21
-133.258
0
LINE
8
BLACK
6
CONTINUOUS
10
106.164
20
-133.258
11
106.165
21
-133.35
0
LINE
8
BLACK
6
CONTINUOUS
10
106.165
20
-133.35
11
106.083
21
-134.08
0
LINE
8
BLACK
6
CONTINUOUS
10
106.083
20
-134.08
11
105.842
21
-134.774
0
LINE
8
BLACK
6
CONTINUOUS
10
105.778
20
-131.957
11
105.397
21
-131.347
0
LINE
8
BLACK
6
CONTINUOUS
10
105.397
20
-131.347
11
104.891
21
-130.837
0
LINE
8
BLACK
6
CONTINUOUS
10
104.891
20
-130.837
11
104.284
21
-130.451
0
LINE
8
BLACK
6
CONTINUOUS
10
104.284
20
-130.451
11
103.606
21
-130.21
0
LINE
8
BLACK
6
CONTINUOUS
10
103.606
20
-130.21
11
102.893
21
-130.125
0
LINE
8
BLACK
6
CONTINUOUS
10
102.893
20
-130.125
11
102.177
21
-130.2
0
LINE
8
BLACK
6
CONTINUOUS
10
102.177
20
-130.2
11
101.497
21
-130.432
0
LINE
8
BLACK
6
CONTINUOUS
10
101.497
20
-130.432
11
100.884
21
-130.809
0
LINE
8
BLACK
6
CONTINUOUS
10
100.884
20
-130.809
11
100.371
21
-131.312
0
LINE
8
BLACK
6
CONTINUOUS
10
100.371
20
-131.312
11
99.9813
21
-131.916
0
LINE
8
BLACK
6
CONTINUOUS
10
99.9813
20
-131.916
11
99.7354
21
-132.592
0
LINE
8
BLACK
6
CONTINUOUS
10
99.7354
20
-132.592
11
99.6453
21
-133.305
0
LINE
8
BLACK
6
CONTINUOUS
10
99.6453
20
-133.305
11
99.7155
21
-134.021
0
LINE
8
BLACK
6
CONTINUOUS
10
99.7155
20
-134.021
11
99.9424
21
-134.703
0
LINE
8
BLACK
6
CONTINUOUS
10
99.9424
20
-134.703
11
100.315
21
-135.318
0
LINE
8
BLACK
6
CONTINUOUS
10
100.315
20
-135.318
11
100.814
21
-135.835
0
LINE
8
BLACK
6
CONTINUOUS
10
100.814
20
-135.835
11
101.416
21
-136.229
0
LINE
8
BLACK
6
CONTINUOUS
10
101.416
20
-136.229
11
102.09
21
-136.479
0
LINE
8
BLACK
6
CONTINUOUS
10
102.09
20
-136.479
11
102.802
21
-136.574
0
LINE
8
BLACK
6
CONTINUOUS
10
102.802
20
-136.574
11
103.518
21
-136.509
0
LINE
8
BLACK
6
CONTINUOUS
10
103.518
20
-136.509
11
104.202
21
-136.287
0
LINE
8
BLACK
6
CONTINUOUS
10
104.202
20
-136.287
11
104.82
21
-135.919
0
LINE
8
BLACK
6
CONTINUOUS
10
104.82
20
-135.919
11
105.34
21
-135.423
0
LINE
8
BLACK
6
CONTINUOUS
10
105.34
20
-135.423
11
105.738
21
-134.824
0
LINE
8
BLACK
6
CONTINUOUS
10
105.738
20
-134.824
11
105.994
21
-134.152
0
LINE
8
BLACK
6
CONTINUOUS
10
105.994
20
-134.152
11
106.094
21
-133.44
0
LINE
8
BLACK
6
CONTINUOUS
10
106.094
20
-133.44
11
106.095
21
-133.35
0
LINE
8
BLACK
6
CONTINUOUS
10
106.095
20
-133.35
11
106.015
21
-132.636
0
LINE
8
BLACK
6
CONTINUOUS
10
106.015
20
-132.636
11
105.778
21
-131.957
0
LINE
8
BLACK
6
CONTINUOUS
10
171.882
20
-130.964
11
171.492
21
-131.587
0
LINE
8
BLACK
6
CONTINUOUS
10
171.492
20
-131.587
11
170.975
21
-132.108
0
LINE
8
BLACK
6
CONTINUOUS
10
170.975
20
-132.108
11
170.354
21
-132.502
0
LINE
8
BLACK
6
CONTINUOUS
10
170.354
20
-132.502
11
169.662
21
-132.748
0
LINE
8
BLACK
6
CONTINUOUS
10
169.662
20
-132.748
11
168.933
21
-132.835
0
LINE
8
BLACK
6
CONTINUOUS
10
168.933
20
-132.835
11
168.202
21
-132.758
0
LINE
8
BLACK
6
CONTINUOUS
10
168.202
20
-132.758
11
167.507
21
-132.521
0
LINE
8
BLACK
6
CONTINUOUS
10
167.507
20
-132.521
11
166.881
21
-132.136
0
LINE
8
BLACK
6
CONTINUOUS
10
166.881
20
-132.136
11
166.357
21
-131.623
0
LINE
8
BLACK
6
CONTINUOUS
10
166.357
20
-131.623
11
165.959
21
-131.005
0
LINE
8
BLACK
6
CONTINUOUS
10
165.959
20
-131.005
11
165.707
21
-130.315
0
LINE
8
BLACK
6
CONTINUOUS
10
165.707
20
-130.315
11
165.615
21
-129.586
0
LINE
8
BLACK
6
CONTINUOUS
10
165.615
20
-129.586
11
165.687
21
-128.855
0
LINE
8
BLACK
6
CONTINUOUS
10
165.687
20
-128.855
11
165.919
21
-128.158
0
LINE
8
BLACK
6
CONTINUOUS
10
165.919
20
-128.158
11
166.299
21
-127.53
0
LINE
8
BLACK
6
CONTINUOUS
10
166.299
20
-127.53
11
166.81
21
-127.001
0
LINE
8
BLACK
6
CONTINUOUS
10
166.81
20
-127.001
11
167.424
21
-126.599
0
LINE
8
BLACK
6
CONTINUOUS
10
167.424
20
-126.599
11
168.113
21
-126.343
0
LINE
8
BLACK
6
CONTINUOUS
10
168.113
20
-126.343
11
168.841
21
-126.246
0
LINE
8
BLACK
6
CONTINUOUS
10
168.841
20
-126.246
11
169.573
21
-126.312
0
LINE
8
BLACK
6
CONTINUOUS
10
169.573
20
-126.312
11
170.271
21
-126.539
0
LINE
8
BLACK
6
CONTINUOUS
10
170.271
20
-126.539
11
170.902
21
-126.915
0
LINE
8
BLACK
6
CONTINUOUS
10
170.902
20
-126.915
11
171.434
21
-127.422
0
LINE
8
BLACK
6
CONTINUOUS
10
171.434
20
-127.422
11
171.841
21
-128.034
0
LINE
8
BLACK
6
CONTINUOUS
10
171.841
20
-128.034
11
172.101
21
-128.721
0
LINE
8
BLACK
6
CONTINUOUS
10
172.101
20
-128.721
11
172.204
21
-129.448
0
LINE
8
BLACK
6
CONTINUOUS
10
172.204
20
-129.448
11
172.205
21
-129.54
0
LINE
8
BLACK
6
CONTINUOUS
10
172.205
20
-129.54
11
172.123
21
-130.27
0
LINE
8
BLACK
6
CONTINUOUS
10
172.123
20
-130.27
11
171.882
21
-130.964
0
LINE
8
BLACK
6
CONTINUOUS
10
171.818
20
-128.147
11
171.437
21
-127.537
0
LINE
8
BLACK
6
CONTINUOUS
10
171.437
20
-127.537
11
170.931
21
-127.027
0
LINE
8
BLACK
6
CONTINUOUS
10
170.931
20
-127.027
11
170.324
21
-126.641
0
LINE
8
BLACK
6
CONTINUOUS
10
170.324
20
-126.641
11
169.646
21
-126.4
0
LINE
8
BLACK
6
CONTINUOUS
10
169.646
20
-126.4
11
168.933
21
-126.315
0
LINE
8
BLACK
6
CONTINUOUS
10
168.933
20
-126.315
11
168.217
21
-126.39
0
LINE
8
BLACK
6
CONTINUOUS
10
168.217
20
-126.39
11
167.537
21
-126.622
0
LINE
8
BLACK
6
CONTINUOUS
10
167.537
20
-126.622
11
166.924
21
-126.999
0
LINE
8
BLACK
6
CONTINUOUS
10
166.924
20
-126.999
11
166.411
21
-127.502
0
LINE
8
BLACK
6
CONTINUOUS
10
166.411
20
-127.502
11
166.021
21
-128.106
0
LINE
8
BLACK
6
CONTINUOUS
10
166.021
20
-128.106
11
165.775
21
-128.782
0
LINE
8
BLACK
6
CONTINUOUS
10
165.775
20
-128.782
11
165.685
21
-129.495
0
LINE
8
BLACK
6
CONTINUOUS
10
165.685
20
-129.495
11
165.755
21
-130.211
0
LINE
8
BLACK
6
CONTINUOUS
10
165.755
20
-130.211
11
165.982
21
-130.893
0
LINE
8
BLACK
6
CONTINUOUS
10
165.982
20
-130.893
11
166.355
21
-131.508
0
LINE
8
BLACK
6
CONTINUOUS
10
166.355
20
-131.508
11
166.854
21
-132.025
0
LINE
8
BLACK
6
CONTINUOUS
10
166.854
20
-132.025
11
167.456
21
-132.419
0
LINE
8
BLACK
6
CONTINUOUS
10
167.456
20
-132.419
11
168.13
21
-132.669
0
LINE
8
BLACK
6
CONTINUOUS
10
168.13
20
-132.669
11
168.842
21
-132.764
0
LINE
8
BLACK
6
CONTINUOUS
10
168.842
20
-132.764
11
169.558
21
-132.699
0
LINE
8
BLACK
6
CONTINUOUS
10
169.558
20
-132.699
11
170.242
21
-132.477
0
LINE
8
BLACK
6
CONTINUOUS
10
170.242
20
-132.477
11
170.86
21
-132.109
0
LINE
8
BLACK
6
CONTINUOUS
10
170.86
20
-132.109
11
171.38
21
-131.613
0
LINE
8
BLACK
6
CONTINUOUS
10
171.38
20
-131.613
11
171.778
21
-131.014
0
LINE
8
BLACK
6
CONTINUOUS
10
171.778
20
-131.014
11
172.034
21
-130.342
0
LINE
8
BLACK
6
CONTINUOUS
10
172.034
20
-130.342
11
172.134
21
-129.63
0
LINE
8
BLACK
6
CONTINUOUS
10
172.134
20
-129.63
11
172.135
21
-129.54
0
LINE
8
BLACK
6
CONTINUOUS
10
172.135
20
-129.54
11
172.055
21
-128.826
0
LINE
8
BLACK
6
CONTINUOUS
10
172.055
20
-128.826
11
171.818
21
-128.147
0
LINE
8
BLACK
6
CONTINUOUS
10
131.062
20
-100.055
11
131.064
21
-100.055
0
LINE
8
BLACK
6
CONTINUOUS
10
131.064
20
-100.055
11
131.066
21
-100.056
0
LINE
8
BLACK
6
CONTINUOUS
10
131.066
20
-100.056
11
131.069
21
-100.056
0
LINE
8
BLACK
6
CONTINUOUS
10
131.069
20
-100.056
11
131.071
21
-100.057
0
LINE
8
BLACK
6
CONTINUOUS
10
131.071
20
-100.057
11
131.073
21
-100.058
0
LINE
8
BLACK
6
CONTINUOUS
10
131.073
20
-100.058
11
131.074
21
-100.059
0
LINE
8
BLACK
6
CONTINUOUS
10
131.074
20
-100.059
11
131.076
21
-100.061
0
LINE
8
BLACK
6
CONTINUOUS
10
131.076
20
-100.061
11
131.078
21
-100.062
0
LINE
8
BLACK
6
CONTINUOUS
10
131.078
20
-100.062
11
131.079
21
-100.064
0
LINE
8
BLACK
6
CONTINUOUS
10
131.079
20
-100.064
11
131.081
21
-100.066
0
LINE
8
BLACK
6
CONTINUOUS
10
131.081
20
-100.066
11
131.082
21
-100.067
0
LINE
8
BLACK
6
CONTINUOUS
10
131.082
20
-100.067
11
131.083
21
-100.069
0
LINE
8
BLACK
6
CONTINUOUS
10
131.083
20
-100.069
11
131.084
21
-100.071
0
LINE
8
BLACK
6
CONTINUOUS
10
131.084
20
-100.071
11
131.084
21
-100.074
0
LINE
8
BLACK
6
CONTINUOUS
10
131.084
20
-100.074
11
131.085
21
-100.076
0
LINE
8
BLACK
6
CONTINUOUS
10
131.085
20
-100.076
11
131.085
21
-100.078
0
LINE
8
BLACK
6
CONTINUOUS
10
131.085
20
-100.078
11
131.085
21
-100.078
0
LINE
8
BLACK
6
CONTINUOUS
10
131.085
20
-100.078
11
131.085
21
-113.282
0
LINE
8
BLACK
6
CONTINUOUS
10
131.085
20
-113.282
11
131.085
21
-113.282
0
LINE
8
BLACK
6
CONTINUOUS
10
131.085
20
-113.282
11
131.085
21
-113.284
0
LINE
8
BLACK
6
CONTINUOUS
10
131.085
20
-113.284
11
131.084
21
-113.286
0
LINE
8
BLACK
6
CONTINUOUS
10
131.084
20
-113.286
11
131.084
21
-113.289
0
LINE
8
BLACK
6
CONTINUOUS
10
131.084
20
-113.289
11
131.083
21
-113.291
0
LINE
8
BLACK
6
CONTINUOUS
10
131.083
20
-113.291
11
131.082
21
-113.293
0
LINE
8
BLACK
6
CONTINUOUS
10
131.082
20
-113.293
11
131.081
21
-113.294
0
LINE
8
BLACK
6
CONTINUOUS
10
131.081
20
-113.294
11
131.079
21
-113.296
0
LINE
8
BLACK
6
CONTINUOUS
10
131.079
20
-113.296
11
131.078
21
-113.298
0
LINE
8
BLACK
6
CONTINUOUS
10
131.078
20
-113.298
11
131.076
21
-113.299
0
LINE
8
BLACK
6
CONTINUOUS
10
131.076
20
-113.299
11
131.074
21
-113.301
0
LINE
8
BLACK
6
CONTINUOUS
10
131.074
20
-113.301
11
131.073
21
-113.302
0
LINE
8
BLACK
6
CONTINUOUS
10
131.073
20
-113.302
11
131.071
21
-113.303
0
LINE
8
BLACK
6
CONTINUOUS
10
131.071
20
-113.303
11
131.069
21
-113.304
0
LINE
8
BLACK
6
CONTINUOUS
10
131.069
20
-113.304
11
131.066
21
-113.304
0
LINE
8
BLACK
6
CONTINUOUS
10
131.066
20
-113.304
11
131.064
21
-113.305
0
LINE
8
BLACK
6
CONTINUOUS
10
131.064
20
-113.305
11
131.062
21
-113.305
0
LINE
8
BLACK
6
CONTINUOUS
10
131.062
20
-113.305
11
131.062
21
-113.305
0
LINE
8
BLACK
6
CONTINUOUS
10
131.062
20
-113.305
11
117.858
21
-113.305
0
LINE
8
BLACK
6
CONTINUOUS
10
117.858
20
-113.305
11
117.858
21
-113.305
0
LINE
8
BLACK
6
CONTINUOUS
10
117.858
20
-113.305
11
117.856
21
-113.305
0
LINE
8
BLACK
6
CONTINUOUS
10
117.856
20
-113.305
11
117.854
21
-113.304
0
LINE
8
BLACK
6
CONTINUOUS
10
117.854
20
-113.304
11
117.851
21
-113.304
0
LINE
8
BLACK
6
CONTINUOUS
10
117.851
20
-113.304
11
117.849
21
-113.303
0
LINE
8
BLACK
6
CONTINUOUS
10
117.849
20
-113.303
11
117.847
21
-113.302
0
LINE
8
BLACK
6
CONTINUOUS
10
117.847
20
-113.302
11
117.846
21
-113.301
0
LINE
8
BLACK
6
CONTINUOUS
10
117.846
20
-113.301
11
117.844
21
-113.299
0
LINE
8
BLACK
6
CONTINUOUS
10
117.844
20
-113.299
11
117.842
21
-113.298
0
LINE
8
BLACK
6
CONTINUOUS
10
117.842
20
-113.298
11
117.841
21
-113.296
0
LINE
8
BLACK
6
CONTINUOUS
10
117.841
20
-113.296
11
117.839
21
-113.294
0
LINE
8
BLACK
6
CONTINUOUS
10
117.839
20
-113.294
11
117.838
21
-113.293
0
LINE
8
BLACK
6
CONTINUOUS
10
117.838
20
-113.293
11
117.837
21
-113.291
0
LINE
8
BLACK
6
CONTINUOUS
10
117.837
20
-113.291
11
117.836
21
-113.289
0
LINE
8
BLACK
6
CONTINUOUS
10
117.836
20
-113.289
11
117.836
21
-113.286
0
LINE
8
BLACK
6
CONTINUOUS
10
117.836
20
-113.286
11
117.835
21
-113.284
0
LINE
8
BLACK
6
CONTINUOUS
10
117.835
20
-113.284
11
117.835
21
-113.282
0
LINE
8
BLACK
6
CONTINUOUS
10
117.835
20
-113.282
11
117.835
21
-113.282
0
LINE
8
BLACK
6
CONTINUOUS
10
117.835
20
-113.282
11
117.835
21
-100.078
0
LINE
8
BLACK
6
CONTINUOUS
10
117.835
20
-100.078
11
117.835
21
-100.076
0
LINE
8
BLACK
6
CONTINUOUS
10
117.835
20
-100.076
11
117.836
21
-100.073
0
LINE
8
BLACK
6
CONTINUOUS
10
117.836
20
-100.073
11
117.836
21
-100.071
0
LINE
8
BLACK
6
CONTINUOUS
10
117.836
20
-100.071
11
117.837
21
-100.069
0
LINE
8
BLACK
6
CONTINUOUS
10
117.837
20
-100.069
11
117.838
21
-100.067
0
LINE
8
BLACK
6
CONTINUOUS
10
117.838
20
-100.067
11
117.839
21
-100.066
0
LINE
8
BLACK
6
CONTINUOUS
10
117.839
20
-100.066
11
117.841
21
-100.064
0
LINE
8
BLACK
6
CONTINUOUS
10
117.841
20
-100.064
11
117.842
21
-100.062
0
LINE
8
BLACK
6
CONTINUOUS
10
117.842
20
-100.062
11
117.844
21
-100.061
0
LINE
8
BLACK
6
CONTINUOUS
10
117.844
20
-100.061
11
117.846
21
-100.059
0
LINE
8
BLACK
6
CONTINUOUS
10
117.846
20
-100.059
11
117.847
21
-100.058
0
LINE
8
BLACK
6
CONTINUOUS
10
117.847
20
-100.058
11
117.849
21
-100.057
0
LINE
8
BLACK
6
CONTINUOUS
10
117.849
20
-100.057
11
117.851
21
-100.056
0
LINE
8
BLACK
6
CONTINUOUS
10
117.851
20
-100.056
11
117.854
21
-100.056
0
LINE
8
BLACK
6
CONTINUOUS
10
117.854
20
-100.056
11
117.856
21
-100.055
0
LINE
8
BLACK
6
CONTINUOUS
10
117.856
20
-100.055
11
117.858
21
-100.055
0
LINE
8
BLACK
6
CONTINUOUS
10
117.858
20
-100.055
11
117.858
21
-100.055
0
LINE
8
BLACK
6
CONTINUOUS
10
117.858
20
-100.055
11
131.062
21
-100.055
0
LINE
8
BLACK
6
CONTINUOUS
10
131.062
20
-100.055
11
131.062
21
-100.055
0
LINE
8
BLACK
6
CONTINUOUS
10
117.885
20
-100.105
11
117.885
21
-113.255
0
LINE
8
BLACK
6
CONTINUOUS
10
117.885
20
-113.255
11
131.035
21
-113.255
0
LINE
8
BLACK
6
CONTINUOUS
10
131.035
20
-113.255
11
131.035
21
-100.105
0
LINE
8
BLACK
6
CONTINUOUS
10
131.035
20
-100.105
11
117.885
21
-100.105
0
LINE
8
BLACK
6
CONTINUOUS
10
152.652
20
-100.055
11
152.654
21
-100.055
0
LINE
8
BLACK
6
CONTINUOUS
10
152.654
20
-100.055
11
152.656
21
-100.056
0
LINE
8
BLACK
6
CONTINUOUS
10
152.656
20
-100.056
11
152.659
21
-100.056
0
LINE
8
BLACK
6
CONTINUOUS
10
152.659
20
-100.056
11
152.661
21
-100.057
0
LINE
8
BLACK
6
CONTINUOUS
10
152.661
20
-100.057
11
152.663
21
-100.058
0
LINE
8
BLACK
6
CONTINUOUS
10
152.663
20
-100.058
11
152.664
21
-100.059
0
LINE
8
BLACK
6
CONTINUOUS
10
152.664
20
-100.059
11
152.666
21
-100.061
0
LINE
8
BLACK
6
CONTINUOUS
10
152.666
20
-100.061
11
152.668
21
-100.062
0
LINE
8
BLACK
6
CONTINUOUS
10
152.668
20
-100.062
11
152.669
21
-100.064
0
LINE
8
BLACK
6
CONTINUOUS
10
152.669
20
-100.064
11
152.671
21
-100.066
0
LINE
8
BLACK
6
CONTINUOUS
10
152.671
20
-100.066
11
152.672
21
-100.067
0
LINE
8
BLACK
6
CONTINUOUS
10
152.672
20
-100.067
11
152.673
21
-100.069
0
LINE
8
BLACK
6
CONTINUOUS
10
152.673
20
-100.069
11
152.674
21
-100.071
0
LINE
8
BLACK
6
CONTINUOUS
10
152.674
20
-100.071
11
152.674
21
-100.074
0
LINE
8
BLACK
6
CONTINUOUS
10
152.674
20
-100.074
11
152.675
21
-100.076
0
LINE
8
BLACK
6
CONTINUOUS
10
152.675
20
-100.076
11
152.675
21
-100.078
0
LINE
8
BLACK
6
CONTINUOUS
10
152.675
20
-100.078
11
152.675
21
-100.078
0
LINE
8
BLACK
6
CONTINUOUS
10
152.675
20
-100.078
11
152.675
21
-113.282
0
LINE
8
BLACK
6
CONTINUOUS
10
152.675
20
-113.282
11
152.675
21
-113.282
0
LINE
8
BLACK
6
CONTINUOUS
10
152.675
20
-113.282
11
152.675
21
-113.284
0
LINE
8
BLACK
6
CONTINUOUS
10
152.675
20
-113.284
11
152.674
21
-113.286
0
LINE
8
BLACK
6
CONTINUOUS
10
152.674
20
-113.286
11
152.674
21
-113.289
0
LINE
8
BLACK
6
CONTINUOUS
10
152.674
20
-113.289
11
152.673
21
-113.291
0
LINE
8
BLACK
6
CONTINUOUS
10
152.673
20
-113.291
11
152.672
21
-113.293
0
LINE
8
BLACK
6
CONTINUOUS
10
152.672
20
-113.293
11
152.671
21
-113.294
0
LINE
8
BLACK
6
CONTINUOUS
10
152.671
20
-113.294
11
152.669
21
-113.296
0
LINE
8
BLACK
6
CONTINUOUS
10
152.669
20
-113.296
11
152.668
21
-113.298
0
LINE
8
BLACK
6
CONTINUOUS
10
152.668
20
-113.298
11
152.666
21
-113.299
0
LINE
8
BLACK
6
CONTINUOUS
10
152.666
20
-113.299
11
152.664
21
-113.301
0
LINE
8
BLACK
6
CONTINUOUS
10
152.664
20
-113.301
11
152.663
21
-113.302
0
LINE
8
BLACK
6
CONTINUOUS
10
152.663
20
-113.302
11
152.661
21
-113.303
0
LINE
8
BLACK
6
CONTINUOUS
10
152.661
20
-113.303
11
152.659
21
-113.304
0
LINE
8
BLACK
6
CONTINUOUS
10
152.659
20
-113.304
11
152.656
21
-113.304
0
LINE
8
BLACK
6
CONTINUOUS
10
152.656
20
-113.304
11
152.654
21
-113.305
0
LINE
8
BLACK
6
CONTINUOUS
10
152.654
20
-113.305
11
152.652
21
-113.305
0
LINE
8
BLACK
6
CONTINUOUS
10
152.652
20
-113.305
11
152.652
21
-113.305
0
LINE
8
BLACK
6
CONTINUOUS
10
152.652
20
-113.305
11
139.448
21
-113.305
0
LINE
8
BLACK
6
CONTINUOUS
10
139.448
20
-113.305
11
139.448
21
-113.305
0
LINE
8
BLACK
6
CONTINUOUS
10
139.448
20
-113.305
11
139.446
21
-113.305
0
LINE
8
BLACK
6
CONTINUOUS
10
139.446
20
-113.305
11
139.444
21
-113.304
0
LINE
8
BLACK
6
CONTINUOUS
10
139.444
20
-113.304
11
139.441
21
-113.304
0
LINE
8
BLACK
6
CONTINUOUS
10
139.441
20
-113.304
11
139.439
21
-113.303
0
LINE
8
BLACK
6
CONTINUOUS
10
139.439
20
-113.303
11
139.437
21
-113.302
0
LINE
8
BLACK
6
CONTINUOUS
10
139.437
20
-113.302
11
139.436
21
-113.301
0
LINE
8
BLACK
6
CONTINUOUS
10
139.436
20
-113.301
11
139.434
21
-113.299
0
LINE
8
BLACK
6
CONTINUOUS
10
139.434
20
-113.299
11
139.432
21
-113.298
0
LINE
8
BLACK
6
CONTINUOUS
10
139.432
20
-113.298
11
139.431
21
-113.296
0
LINE
8
BLACK
6
CONTINUOUS
10
139.431
20
-113.296
11
139.429
21
-113.294
0
LINE
8
BLACK
6
CONTINUOUS
10
139.429
20
-113.294
11
139.428
21
-113.293
0
LINE
8
BLACK
6
CONTINUOUS
10
139.428
20
-113.293
11
139.427
21
-113.291
0
LINE
8
BLACK
6
CONTINUOUS
10
139.427
20
-113.291
11
139.426
21
-113.289
0
LINE
8
BLACK
6
CONTINUOUS
10
139.426
20
-113.289
11
139.426
21
-113.286
0
LINE
8
BLACK
6
CONTINUOUS
10
139.426
20
-113.286
11
139.425
21
-113.284
0
LINE
8
BLACK
6
CONTINUOUS
10
139.425
20
-113.284
11
139.425
21
-113.282
0
LINE
8
BLACK
6
CONTINUOUS
10
139.425
20
-113.282
11
139.425
21
-113.282
0
LINE
8
BLACK
6
CONTINUOUS
10
139.425
20
-113.282
11
139.425
21
-100.078
0
LINE
8
BLACK
6
CONTINUOUS
10
139.425
20
-100.078
11
139.425
21
-100.076
0
LINE
8
BLACK
6
CONTINUOUS
10
139.425
20
-100.076
11
139.426
21
-100.073
0
LINE
8
BLACK
6
CONTINUOUS
10
139.426
20
-100.073
11
139.426
21
-100.071
0
LINE
8
BLACK
6
CONTINUOUS
10
139.426
20
-100.071
11
139.427
21
-100.069
0
LINE
8
BLACK
6
CONTINUOUS
10
139.427
20
-100.069
11
139.428
21
-100.067
0
LINE
8
BLACK
6
CONTINUOUS
10
139.428
20
-100.067
11
139.429
21
-100.066
0
LINE
8
BLACK
6
CONTINUOUS
10
139.429
20
-100.066
11
139.431
21
-100.064
0
LINE
8
BLACK
6
CONTINUOUS
10
139.431
20
-100.064
11
139.432
21
-100.062
0
LINE
8
BLACK
6
CONTINUOUS
10
139.432
20
-100.062
11
139.434
21
-100.061
0
LINE
8
BLACK
6
CONTINUOUS
10
139.434
20
-100.061
11
139.436
21
-100.059
0
LINE
8
BLACK
6
CONTINUOUS
10
139.436
20
-100.059
11
139.437
21
-100.058
0
LINE
8
BLACK
6
CONTINUOUS
10
139.437
20
-100.058
11
139.439
21
-100.057
0
LINE
8
BLACK
6
CONTINUOUS
10
139.439
20
-100.057
11
139.441
21
-100.056
0
LINE
8
BLACK
6
CONTINUOUS
10
139.441
20
-100.056
11
139.444
21
-100.056
0
LINE
8
BLACK
6
CONTINUOUS
10
139.444
20
-100.056
11
139.446
21
-100.055
0
LINE
8
BLACK
6
CONTINUOUS
10
139.446
20
-100.055
11
139.448
21
-100.055
0
LINE
8
BLACK
6
CONTINUOUS
10
139.448
20
-100.055
11
139.448
21
-100.055
0
LINE
8
BLACK
6
CONTINUOUS
10
139.448
20
-100.055
11
152.652
21
-100.055
0
LINE
8
BLACK
6
CONTINUOUS
10
152.652
20
-100.055
11
152.652
21
-100.055
0
LINE
8
BLACK
6
CONTINUOUS
10
139.475
20
-100.105
11
139.475
21
-113.255
0
LINE
8
BLACK
6
CONTINUOUS
10
139.475
20
-113.255
11
152.625
21
-113.255
0
LINE
8
BLACK
6
CONTINUOUS
10
152.625
20
-113.255
11
152.625
21
-100.105
0
LINE
8
BLACK
6
CONTINUOUS
10
152.625
20
-100.105
11
139.475
21
-100.105
0
LINE
8
BLACK
6
CONTINUOUS
10
174.242
20
-100.055
11
174.244
21
-100.055
0
LINE
8
BLACK
6
CONTINUOUS
10
174.244
20
-100.055
11
174.246
21
-100.056
0
LINE
8
BLACK
6
CONTINUOUS
10
174.246
20
-100.056
11
174.249
21
-100.056
0
LINE
8
BLACK
6
CONTINUOUS
10
174.249
20
-100.056
11
174.251
21
-100.057
0
LINE
8
BLACK
6
CONTINUOUS
10
174.251
20
-100.057
11
174.253
21
-100.058
0
LINE
8
BLACK
6
CONTINUOUS
10
174.253
20
-100.058
11
174.254
21
-100.059
0
LINE
8
BLACK
6
CONTINUOUS
10
174.254
20
-100.059
11
174.256
21
-100.061
0
LINE
8
BLACK
6
CONTINUOUS
10
174.256
20
-100.061
11
174.258
21
-100.062
0
LINE
8
BLACK
6
CONTINUOUS
10
174.258
20
-100.062
11
174.259
21
-100.064
0
LINE
8
BLACK
6
CONTINUOUS
10
174.259
20
-100.064
11
174.261
21
-100.066
0
LINE
8
BLACK
6
CONTINUOUS
10
174.261
20
-100.066
11
174.262
21
-100.067
0
LINE
8
BLACK
6
CONTINUOUS
10
174.262
20
-100.067
11
174.263
21
-100.069
0
LINE
8
BLACK
6
CONTINUOUS
10
174.263
20
-100.069
11
174.264
21
-100.071
0
LINE
8
BLACK
6
CONTINUOUS
10
174.264
20
-100.071
11
174.264
21
-100.074
0
LINE
8
BLACK
6
CONTINUOUS
10
174.264
20
-100.074
11
174.265
21
-100.076
0
LINE
8
BLACK
6
CONTINUOUS
10
174.265
20
-100.076
11
174.265
21
-100.078
0
LINE
8
BLACK
6
CONTINUOUS
10
174.265
20
-100.078
11
174.265
21
-100.078
0
LINE
8
BLACK
6
CONTINUOUS
10
174.265
20
-100.078
11
174.265
21
-113.282
0
LINE
8
BLACK
6
CONTINUOUS
10
174.265
20
-113.282
11
174.265
21
-113.282
0
LINE
8
BLACK
6
CONTINUOUS
10
174.265
20
-113.282
11
174.265
21
-113.284
0
LINE
8
BLACK
6
CONTINUOUS
10
174.265
20
-113.284
11
174.264
21
-113.286
0
LINE
8
BLACK
6
CONTINUOUS
10
174.264
20
-113.286
11
174.264
21
-113.289
0
LINE
8
BLACK
6
CONTINUOUS
10
174.264
20
-113.289
11
174.263
21
-113.291
0
LINE
8
BLACK
6
CONTINUOUS
10
174.263
20
-113.291
11
174.262
21
-113.293
0
LINE
8
BLACK
6
CONTINUOUS
10
174.262
20
-113.293
11
174.261
21
-113.294
0
LINE
8
BLACK
6
CONTINUOUS
10
174.261
20
-113.294
11
174.259
21
-113.296
0
LINE
8
BLACK
6
CONTINUOUS
10
174.259
20
-113.296
11
174.258
21
-113.298
0
LINE
8
BLACK
6
CONTINUOUS
10
174.258
20
-113.298
11
174.256
21
-113.299
0
LINE
8
BLACK
6
CONTINUOUS
10
174.256
20
-113.299
11
174.254
21
-113.301
0
LINE
8
BLACK
6
CONTINUOUS
10
174.254
20
-113.301
11
174.253
21
-113.302
0
LINE
8
BLACK
6
CONTINUOUS
10
174.253
20
-113.302
11
174.251
21
-113.303
0
LINE
8
BLACK
6
CONTINUOUS
10
174.251
20
-113.303
11
174.249
21
-113.304
0
LINE
8
BLACK
6
CONTINUOUS
10
174.249
20
-113.304
11
174.246
21
-113.304
0
LINE
8
BLACK
6
CONTINUOUS
10
174.246
20
-113.304
11
174.244
21
-113.305
0
LINE
8
BLACK
6
CONTINUOUS
10
174.244
20
-113.305
11
174.242
21
-113.305
0
LINE
8
BLACK
6
CONTINUOUS
10
174.242
20
-113.305
11
174.242
21
-113.305
0
LINE
8
BLACK
6
CONTINUOUS
10
174.242
20
-113.305
11
161.038
21
-113.305
0
LINE
8
BLACK
6
CONTINUOUS
10
161.038
20
-113.305
11
161.038
21
-113.305
0
LINE
8
BLACK
6
CONTINUOUS
10
161.038
20
-113.305
11
161.036
21
-113.305
0
LINE
8
BLACK
6
CONTINUOUS
10
161.036
20
-113.305
11
161.034
21
-113.304
0
LINE
8
BLACK
6
CONTINUOUS
10
161.034
20
-113.304
11
161.031
21
-113.304
0
LINE
8
BLACK
6
CONTINUOUS
10
161.031
20
-113.304
11
161.029
21
-113.303
0
LINE
8
BLACK
6
CONTINUOUS
10
161.029
20
-113.303
11
161.027
21
-113.302
0
LINE
8
BLACK
6
CONTINUOUS
10
161.027
20
-113.302
11
161.026
21
-113.301
0
LINE
8
BLACK
6
CONTINUOUS
10
161.026
20
-113.301
11
161.024
21
-113.299
0
LINE
8
BLACK
6
CONTINUOUS
10
161.024
20
-113.299
11
161.022
21
-113.298
0
LINE
8
BLACK
6
CONTINUOUS
10
161.022
20
-113.298
11
161.021
21
-113.296
0
LINE
8
BLACK
6
CONTINUOUS
10
161.021
20
-113.296
11
161.019
21
-113.294
0
LINE
8
BLACK
6
CONTINUOUS
10
161.019
20
-113.294
11
161.018
21
-113.293
0
LINE
8
BLACK
6
CONTINUOUS
10
161.018
20
-113.293
11
161.017
21
-113.291
0
LINE
8
BLACK
6
CONTINUOUS
10
161.017
20
-113.291
11
161.016
21
-113.289
0
LINE
8
BLACK
6
CONTINUOUS
10
161.016
20
-113.289
11
161.016
21
-113.286
0
LINE
8
BLACK
6
CONTINUOUS
10
161.016
20
-113.286
11
161.015
21
-113.284
0
LINE
8
BLACK
6
CONTINUOUS
10
161.015
20
-113.284
11
161.015
21
-113.282
0
LINE
8
BLACK
6
CONTINUOUS
10
161.015
20
-113.282
11
161.015
21
-113.282
0
LINE
8
BLACK
6
CONTINUOUS
10
161.015
20
-113.282
11
161.015
21
-100.078
0
LINE
8
BLACK
6
CONTINUOUS
10
161.015
20
-100.078
11
161.015
21
-100.076
0
LINE
8
BLACK
6
CONTINUOUS
10
161.015
20
-100.076
11
161.016
21
-100.073
0
LINE
8
BLACK
6
CONTINUOUS
10
161.016
20
-100.073
11
161.016
21
-100.071
0
LINE
8
BLACK
6
CONTINUOUS
10
161.016
20
-100.071
11
161.017
21
-100.069
0
LINE
8
BLACK
6
CONTINUOUS
10
161.017
20
-100.069
11
161.018
21
-100.067
0
LINE
8
BLACK
6
CONTINUOUS
10
161.018
20
-100.067
11
161.019
21
-100.066
0
LINE
8
BLACK
6
CONTINUOUS
10
161.019
20
-100.066
11
161.021
21
-100.064
0
LINE
8
BLACK
6
CONTINUOUS
10
161.021
20
-100.064
11
161.022
21
-100.062
0
LINE
8
BLACK
6
CONTINUOUS
10
161.022
20
-100.062
11
161.024
21
-100.061
0
LINE
8
BLACK
6
CONTINUOUS
10
161.024
20
-100.061
11
161.026
21
-100.059
0
LINE
8
BLACK
6
CONTINUOUS
10
161.026
20
-100.059
11
161.027
21
-100.058
0
LINE
8
BLACK
6
CONTINUOUS
10
161.027
20
-100.058
11
161.029
21
-100.057
0
LINE
8
BLACK
6
CONTINUOUS
10
161.029
20
-100.057
11
161.031
21
-100.056
0
LINE
8
BLACK
6
CONTINUOUS
10
161.031
20
-100.056
11
161.034
21
-100.056
0
LINE
8
BLACK
6
CONTINUOUS
10
161.034
20
-100.056
11
161.036
21
-100.055
0
LINE
8
BLACK
6
CONTINUOUS
10
161.036
20
-100.055
11
161.038
21
-100.055
0
LINE
8
BLACK
6
CONTINUOUS
10
161.038
20
-100.055
11
161.038
21
-100.055
0
LINE
8
BLACK
6
CONTINUOUS
10
161.038
20
-100.055
11
174.242
21
-100.055
0
LINE
8
BLACK
6
CONTINUOUS
10
174.242
20
-100.055
11
174.242
21
-100.055
0
LINE
8
BLACK
6
CONTINUOUS
10
161.065
20
-100.105
11
161.065
21
-113.255
0
LINE
8
BLACK
6
CONTINUOUS
10
161.065
20
-113.255
11
174.215
21
-113.255
0
LINE
8
BLACK
6
CONTINUOUS
10
174.215
20
-113.255
11
174.215
21
-100.105
0
LINE
8
BLACK
6
CONTINUOUS
10
174.215
20
-100.105
11
161.065
21
-100.105
0
LINE
8
BLACK
6
CONTINUOUS
10
109.472
20
-100.055
11
109.474
21
-100.055
0
LINE
8
BLACK
6
CONTINUOUS
10
109.474
20
-100.055
11
109.476
21
-100.056
0
LINE
8
BLACK
6
CONTINUOUS
10
109.476
20
-100.056
11
109.479
21
-100.056
0
LINE
8
BLACK
6
CONTINUOUS
10
109.479
20
-100.056
11
109.481
21
-100.057
0
LINE
8
BLACK
6
CONTINUOUS
10
109.481
20
-100.057
11
109.483
21
-100.058
0
LINE
8
BLACK
6
CONTINUOUS
10
109.483
20
-100.058
11
109.484
21
-100.059
0
LINE
8
BLACK
6
CONTINUOUS
10
109.484
20
-100.059
11
109.486
21
-100.061
0
LINE
8
BLACK
6
CONTINUOUS
10
109.486
20
-100.061
11
109.488
21
-100.062
0
LINE
8
BLACK
6
CONTINUOUS
10
109.488
20
-100.062
11
109.489
21
-100.064
0
LINE
8
BLACK
6
CONTINUOUS
10
109.489
20
-100.064
11
109.491
21
-100.066
0
LINE
8
BLACK
6
CONTINUOUS
10
109.491
20
-100.066
11
109.492
21
-100.067
0
LINE
8
BLACK
6
CONTINUOUS
10
109.492
20
-100.067
11
109.493
21
-100.069
0
LINE
8
BLACK
6
CONTINUOUS
10
109.493
20
-100.069
11
109.494
21
-100.071
0
LINE
8
BLACK
6
CONTINUOUS
10
109.494
20
-100.071
11
109.494
21
-100.074
0
LINE
8
BLACK
6
CONTINUOUS
10
109.494
20
-100.074
11
109.495
21
-100.076
0
LINE
8
BLACK
6
CONTINUOUS
10
109.495
20
-100.076
11
109.495
21
-100.078
0
LINE
8
BLACK
6
CONTINUOUS
10
109.495
20
-100.078
11
109.495
21
-100.078
0
LINE
8
BLACK
6
CONTINUOUS
10
109.495
20
-100.078
11
109.495
21
-113.282
0
LINE
8
BLACK
6
CONTINUOUS
10
109.495
20
-113.282
11
109.495
21
-113.282
0
LINE
8
BLACK
6
CONTINUOUS
10
109.495
20
-113.282
11
109.495
21
-113.284
0
LINE
8
BLACK
6
CONTINUOUS
10
109.495
20
-113.284
11
109.494
21
-113.286
0
LINE
8
BLACK
6
CONTINUOUS
10
109.494
20
-113.286
11
109.494
21
-113.289
0
LINE
8
BLACK
6
CONTINUOUS
10
109.494
20
-113.289
11
109.493
21
-113.291
0
LINE
8
BLACK
6
CONTINUOUS
10
109.493
20
-113.291
11
109.492
21
-113.293
0
LINE
8
BLACK
6
CONTINUOUS
10
109.492
20
-113.293
11
109.491
21
-113.294
0
LINE
8
BLACK
6
CONTINUOUS
10
109.491
20
-113.294
11
109.489
21
-113.296
0
LINE
8
BLACK
6
CONTINUOUS
10
109.489
20
-113.296
11
109.488
21
-113.298
0
LINE
8
BLACK
6
CONTINUOUS
10
109.488
20
-113.298
11
109.486
21
-113.299
0
LINE
8
BLACK
6
CONTINUOUS
10
109.486
20
-113.299
11
109.484
21
-113.301
0
LINE
8
BLACK
6
CONTINUOUS
10
109.484
20
-113.301
11
109.483
21
-113.302
0
LINE
8
BLACK
6
CONTINUOUS
10
109.483
20
-113.302
11
109.481
21
-113.303
0
LINE
8
BLACK
6
CONTINUOUS
10
109.481
20
-113.303
11
109.479
21
-113.304
0
LINE
8
BLACK
6
CONTINUOUS
10
109.479
20
-113.304
11
109.476
21
-113.304
0
LINE
8
BLACK
6
CONTINUOUS
10
109.476
20
-113.304
11
109.474
21
-113.305
0
LINE
8
BLACK
6
CONTINUOUS
10
109.474
20
-113.305
11
109.472
21
-113.305
0
LINE
8
BLACK
6
CONTINUOUS
10
109.472
20
-113.305
11
109.472
21
-113.305
0
LINE
8
BLACK
6
CONTINUOUS
10
109.472
20
-113.305
11
96.2678
21
-113.305
0
LINE
8
BLACK
6
CONTINUOUS
10
96.2678
20
-113.305
11
96.2678
21
-113.305
0
LINE
8
BLACK
6
CONTINUOUS
10
96.2678
20
-113.305
11
96.2656
21
-113.305
0
LINE
8
BLACK
6
CONTINUOUS
10
96.2656
20
-113.305
11
96.2635
21
-113.304
0
LINE
8
BLACK
6
CONTINUOUS
10
96.2635
20
-113.304
11
96.2613
21
-113.304
0
LINE
8
BLACK
6
CONTINUOUS
10
96.2613
20
-113.304
11
96.2594
21
-113.303
0
LINE
8
BLACK
6
CONTINUOUS
10
96.2594
20
-113.303
11
96.2573
21
-113.302
0
LINE
8
BLACK
6
CONTINUOUS
10
96.2573
20
-113.302
11
96.2556
21
-113.301
0
LINE
8
BLACK
6
CONTINUOUS
10
96.2556
20
-113.301
11
96.2537
21
-113.299
0
LINE
8
BLACK
6
CONTINUOUS
10
96.2537
20
-113.299
11
96.2523
21
-113.298
0
LINE
8
BLACK
6
CONTINUOUS
10
96.2523
20
-113.298
11
96.2506
21
-113.296
0
LINE
8
BLACK
6
CONTINUOUS
10
96.2506
20
-113.296
11
96.2494
21
-113.294
0
LINE
8
BLACK
6
CONTINUOUS
10
96.2494
20
-113.294
11
96.248
21
-113.293
0
LINE
8
BLACK
6
CONTINUOUS
10
96.248
20
-113.293
11
96.2473
21
-113.291
0
LINE
8
BLACK
6
CONTINUOUS
10
96.2473
20
-113.291
11
96.2461
21
-113.289
0
LINE
8
BLACK
6
CONTINUOUS
10
96.2461
20
-113.289
11
96.2458
21
-113.286
0
LINE
8
BLACK
6
CONTINUOUS
10
96.2458
20
-113.286
11
96.245
21
-113.284
0
LINE
8
BLACK
6
CONTINUOUS
10
96.245
20
-113.284
11
96.245
21
-113.282
0
LINE
8
BLACK
6
CONTINUOUS
10
96.245
20
-113.282
11
96.245
21
-113.282
0
LINE
8
BLACK
6
CONTINUOUS
10
96.245
20
-113.282
11
96.245
21
-100.078
0
LINE
8
BLACK
6
CONTINUOUS
10
96.245
20
-100.078
11
96.245
21
-100.076
0
LINE
8
BLACK
6
CONTINUOUS
10
96.245
20
-100.076
11
96.2458
21
-100.073
0
LINE
8
BLACK
6
CONTINUOUS
10
96.2458
20
-100.073
11
96.2461
21
-100.071
0
LINE
8
BLACK
6
CONTINUOUS
10
96.2461
20
-100.071
11
96.2473
21
-100.069
0
LINE
8
BLACK
6
CONTINUOUS
10
96.2473
20
-100.069
11
96.248
21
-100.067
0
LINE
8
BLACK
6
CONTINUOUS
10
96.248
20
-100.067
11
96.2494
21
-100.066
0
LINE
8
BLACK
6
CONTINUOUS
10
96.2494
20
-100.066
11
96.2506
21
-100.064
0
LINE
8
BLACK
6
CONTINUOUS
10
96.2506
20
-100.064
11
96.2523
21
-100.062
0
LINE
8
BLACK
6
CONTINUOUS
10
96.2523
20
-100.062
11
96.2537
21
-100.061
0
LINE
8
BLACK
6
CONTINUOUS
10
96.2537
20
-100.061
11
96.2556
21
-100.059
0
LINE
8
BLACK
6
CONTINUOUS
10
96.2556
20
-100.059
11
96.2573
21
-100.058
0
LINE
8
BLACK
6
CONTINUOUS
10
96.2573
20
-100.058
11
96.2594
21
-100.057
0
LINE
8
BLACK
6
CONTINUOUS
10
96.2594
20
-100.057
11
96.2613
21
-100.056
0
LINE
8
BLACK
6
CONTINUOUS
10
96.2613
20
-100.056
11
96.2635
21
-100.056
0
LINE
8
BLACK
6
CONTINUOUS
10
96.2635
20
-100.056
11
96.2656
21
-100.055
0
LINE
8
BLACK
6
CONTINUOUS
10
96.2656
20
-100.055
11
96.2678
21
-100.055
0
LINE
8
BLACK
6
CONTINUOUS
10
96.2678
20
-100.055
11
96.2678
21
-100.055
0
LINE
8
BLACK
6
CONTINUOUS
10
96.2678
20
-100.055
11
109.472
21
-100.055
0
LINE
8
BLACK
6
CONTINUOUS
10
109.472
20
-100.055
11
109.472
21
-100.055
0
LINE
8
BLACK
6
CONTINUOUS
10
96.295
20
-100.105
11
96.295
21
-113.255
0
LINE
8
BLACK
6
CONTINUOUS
10
96.295
20
-113.255
11
109.445
21
-113.255
0
LINE
8
BLACK
6
CONTINUOUS
10
109.445
20
-113.255
11
109.445
21
-100.105
0
LINE
8
BLACK
6
CONTINUOUS
10
109.445
20
-100.105
11
96.295
21
-100.105
0
LINE
8
BLACK
6
CONTINUOUS
10
195.832
20
-100.055
11
195.834
21
-100.055
0
LINE
8
BLACK
6
CONTINUOUS
10
195.834
20
-100.055
11
195.836
21
-100.056
0
LINE
8
BLACK
6
CONTINUOUS
10
195.836
20
-100.056
11
195.839
21
-100.056
0
LINE
8
BLACK
6
CONTINUOUS
10
195.839
20
-100.056
11
195.841
21
-100.057
0
LINE
8
BLACK
6
CONTINUOUS
10
195.841
20
-100.057
11
195.843
21
-100.058
0
LINE
8
BLACK
6
CONTINUOUS
10
195.843
20
-100.058
11
195.844
21
-100.059
0
LINE
8
BLACK
6
CONTINUOUS
10
195.844
20
-100.059
11
195.846
21
-100.061
0
LINE
8
BLACK
6
CONTINUOUS
10
195.846
20
-100.061
11
195.848
21
-100.062
0
LINE
8
BLACK
6
CONTINUOUS
10
195.848
20
-100.062
11
195.849
21
-100.064
0
LINE
8
BLACK
6
CONTINUOUS
10
195.849
20
-100.064
11
195.851
21
-100.066
0
LINE
8
BLACK
6
CONTINUOUS
10
195.851
20
-100.066
11
195.852
21
-100.067
0
LINE
8
BLACK
6
CONTINUOUS
10
195.852
20
-100.067
11
195.853
21
-100.069
0
LINE
8
BLACK
6
CONTINUOUS
10
195.853
20
-100.069
11
195.854
21
-100.071
0
LINE
8
BLACK
6
CONTINUOUS
10
195.854
20
-100.071
11
195.854
21
-100.074
0
LINE
8
BLACK
6
CONTINUOUS
10
195.854
20
-100.074
11
195.855
21
-100.076
0
LINE
8
BLACK
6
CONTINUOUS
10
195.855
20
-100.076
11
195.855
21
-100.078
0
LINE
8
BLACK
6
CONTINUOUS
10
195.855
20
-100.078
11
195.855
21
-100.078
0
LINE
8
BLACK
6
CONTINUOUS
10
195.855
20
-100.078
11
195.855
21
-113.282
0
LINE
8
BLACK
6
CONTINUOUS
10
195.855
20
-113.282
11
195.855
21
-113.282
0
LINE
8
BLACK
6
CONTINUOUS
10
195.855
20
-113.282
11
195.855
21
-113.284
0
LINE
8
BLACK
6
CONTINUOUS
10
195.855
20
-113.284
11
195.854
21
-113.286
0
LINE
8
BLACK
6
CONTINUOUS
10
195.854
20
-113.286
11
195.854
21
-113.289
0
LINE
8
BLACK
6
CONTINUOUS
10
195.854
20
-113.289
11
195.853
21
-113.291
0
LINE
8
BLACK
6
CONTINUOUS
10
195.853
20
-113.291
11
195.852
21
-113.293
0
LINE
8
BLACK
6
CONTINUOUS
10
195.852
20
-113.293
11
195.851
21
-113.294
0
LINE
8
BLACK
6
CONTINUOUS
10
195.851
20
-113.294
11
195.849
21
-113.296
0
LINE
8
BLACK
6
CONTINUOUS
10
195.849
20
-113.296
11
195.848
21
-113.298
0
LINE
8
BLACK
6
CONTINUOUS
10
195.848
20
-113.298
11
195.846
21
-113.299
0
LINE
8
BLACK
6
CONTINUOUS
10
195.846
20
-113.299
11
195.844
21
-113.301
0
LINE
8
BLACK
6
CONTINUOUS
10
195.844
20
-113.301
11
195.843
21
-113.302
0
LINE
8
BLACK
6
CONTINUOUS
10
195.843
20
-113.302
11
195.841
21
-113.303
0
LINE
8
BLACK
6
CONTINUOUS
10
195.841
20
-113.303
11
195.839
21
-113.304
0
LINE
8
BLACK
6
CONTINUOUS
10
195.839
20
-113.304
11
195.836
21
-113.304
0
LINE
8
BLACK
6
CONTINUOUS
10
195.836
20
-113.304
11
195.834
21
-113.305
0
LINE
8
BLACK
6
CONTINUOUS
10
195.834
20
-113.305
11
195.832
21
-113.305
0
LINE
8
BLACK
6
CONTINUOUS
10
195.832
20
-113.305
11
195.832
21
-113.305
0
LINE
8
BLACK
6
CONTINUOUS
10
195.832
20
-113.305
11
182.628
21
-113.305
0
LINE
8
BLACK
6
CONTINUOUS
10
182.628
20
-113.305
11
182.628
21
-113.305
0
LINE
8
BLACK
6
CONTINUOUS
10
182.628
20
-113.305
11
182.626
21
-113.305
0
LINE
8
BLACK
6
CONTINUOUS
10
182.626
20
-113.305
11
182.624
21
-113.304
0
LINE
8
BLACK
6
CONTINUOUS
10
182.624
20
-113.304
11
182.621
21
-113.304
0
LINE
8
BLACK
6
CONTINUOUS
10
182.621
20
-113.304
11
182.619
21
-113.303
0
LINE
8
BLACK
6
CONTINUOUS
10
182.619
20
-113.303
11
182.617
21
-113.302
0
LINE
8
BLACK
6
CONTINUOUS
10
182.617
20
-113.302
11
182.616
21
-113.301
0
LINE
8
BLACK
6
CONTINUOUS
10
182.616
20
-113.301
11
182.614
21
-113.299
0
LINE
8
BLACK
6
CONTINUOUS
10
182.614
20
-113.299
11
182.612
21
-113.298
0
LINE
8
BLACK
6
CONTINUOUS
10
182.612
20
-113.298
11
182.611
21
-113.296
0
LINE
8
BLACK
6
CONTINUOUS
10
182.611
20
-113.296
11
182.609
21
-113.294
0
LINE
8
BLACK
6
CONTINUOUS
10
182.609
20
-113.294
11
182.608
21
-113.293
0
LINE
8
BLACK
6
CONTINUOUS
10
182.608
20
-113.293
11
182.607
21
-113.291
0
LINE
8
BLACK
6
CONTINUOUS
10
182.607
20
-113.291
11
182.606
21
-113.289
0
LINE
8
BLACK
6
CONTINUOUS
10
182.606
20
-113.289
11
182.606
21
-113.286
0
LINE
8
BLACK
6
CONTINUOUS
10
182.606
20
-113.286
11
182.605
21
-113.284
0
LINE
8
BLACK
6
CONTINUOUS
10
182.605
20
-113.284
11
182.605
21
-113.282
0
LINE
8
BLACK
6
CONTINUOUS
10
182.605
20
-113.282
11
182.605
21
-113.282
0
LINE
8
BLACK
6
CONTINUOUS
10
182.605
20
-113.282
11
182.605
21
-100.078
0
LINE
8
BLACK
6
CONTINUOUS
10
182.605
20
-100.078
11
182.605
21
-100.076
0
LINE
8
BLACK
6
CONTINUOUS
10
182.605
20
-100.076
11
182.606
21
-100.073
0
LINE
8
BLACK
6
CONTINUOUS
10
182.606
20
-100.073
11
182.606
21
-100.071
0
LINE
8
BLACK
6
CONTINUOUS
10
182.606
20
-100.071
11
182.607
21
-100.069
0
LINE
8
BLACK
6
CONTINUOUS
10
182.607
20
-100.069
11
182.608
21
-100.067
0
LINE
8
BLACK
6
CONTINUOUS
10
182.608
20
-100.067
11
182.609
21
-100.066
0
LINE
8
BLACK
6
CONTINUOUS
10
182.609
20
-100.066
11
182.611
21
-100.064
0
LINE
8
BLACK
6
CONTINUOUS
10
182.611
20
-100.064
11
182.612
21
-100.062
0
LINE
8
BLACK
6
CONTINUOUS
10
182.612
20
-100.062
11
182.614
21
-100.061
0
LINE
8
BLACK
6
CONTINUOUS
10
182.614
20
-100.061
11
182.616
21
-100.059
0
LINE
8
BLACK
6
CONTINUOUS
10
182.616
20
-100.059
11
182.617
21
-100.058
0
LINE
8
BLACK
6
CONTINUOUS
10
182.617
20
-100.058
11
182.619
21
-100.057
0
LINE
8
BLACK
6
CONTINUOUS
10
182.619
20
-100.057
11
182.621
21
-100.056
0
LINE
8
BLACK
6
CONTINUOUS
10
182.621
20
-100.056
11
182.624
21
-100.056
0
LINE
8
BLACK
6
CONTINUOUS
10
182.624
20
-100.056
11
182.626
21
-100.055
0
LINE
8
BLACK
6
CONTINUOUS
10
182.626
20
-100.055
11
182.628
21
-100.055
0
LINE
8
BLACK
6
CONTINUOUS
10
182.628
20
-100.055
11
182.628
21
-100.055
0
LINE
8
BLACK
6
CONTINUOUS
10
182.628
20
-100.055
11
195.832
21
-100.055
0
LINE
8
BLACK
6
CONTINUOUS
10
195.832
20
-100.055
11
195.832
21
-100.055
0
LINE
8
BLACK
6
CONTINUOUS
10
182.655
20
-100.105
11
182.655
21
-113.255
0
LINE
8
BLACK
6
CONTINUOUS
10
182.655
20
-113.255
11
195.805
21
-113.255
0
LINE
8
BLACK
6
CONTINUOUS
10
195.805
20
-113.255
11
195.805
21
-100.105
0
LINE
8
BLACK
6
CONTINUOUS
10
195.805
20
-100.105
11
182.655
21
-100.105
0
LINE
8
BLACK
6
CONTINUOUS
10
75.3615
20
-105.564
11
74.9723
21
-106.187
0
LINE
8
BLACK
6
CONTINUOUS
10
74.9723
20
-106.187
11
74.4547
21
-106.708
0
LINE
8
BLACK
6
CONTINUOUS
10
74.4547
20
-106.708
11
73.8344
21
-107.102
0
LINE
8
BLACK
6
CONTINUOUS
10
73.8344
20
-107.102
11
73.1424
21
-107.348
0
LINE
8
BLACK
6
CONTINUOUS
10
73.1424
20
-107.348
11
72.413
21
-107.435
0
LINE
8
BLACK
6
CONTINUOUS
10
72.413
20
-107.435
11
71.6824
21
-107.358
0
LINE
8
BLACK
6
CONTINUOUS
10
71.6824
20
-107.358
11
70.9871
21
-107.121
0
LINE
8
BLACK
6
CONTINUOUS
10
70.9871
20
-107.121
11
70.3614
21
-106.736
0
LINE
8
BLACK
6
CONTINUOUS
10
70.3614
20
-106.736
11
69.8366
21
-106.223
0
LINE
8
BLACK
6
CONTINUOUS
10
69.8366
20
-106.223
11
69.4386
21
-105.605
0
LINE
8
BLACK
6
CONTINUOUS
10
69.4386
20
-105.605
11
69.1874
21
-104.915
0
LINE
8
BLACK
6
CONTINUOUS
10
69.1874
20
-104.915
11
69.0953
21
-104.186
0
LINE
8
BLACK
6
CONTINUOUS
10
69.0953
20
-104.186
11
69.167
21
-103.455
0
LINE
8
BLACK
6
CONTINUOUS
10
69.167
20
-103.455
11
69.3989
21
-102.758
0
LINE
8
BLACK
6
CONTINUOUS
10
69.3989
20
-102.758
11
69.7794
21
-102.13
0
LINE
8
BLACK
6
CONTINUOUS
10
69.7794
20
-102.13
11
70.2897
21
-101.601
0
LINE
8
BLACK
6
CONTINUOUS
10
70.2897
20
-101.601
11
70.9044
21
-101.199
0
LINE
8
BLACK
6
CONTINUOUS
10
70.9044
20
-101.199
11
71.5929
21
-100.943
0
LINE
8
BLACK
6
CONTINUOUS
10
71.5929
20
-100.943
11
72.321
21
-100.846
0
LINE
8
BLACK
6
CONTINUOUS
10
72.321
20
-100.846
11
73.0526
21
-100.912
0
LINE
8
BLACK
6
CONTINUOUS
10
73.0526
20
-100.912
11
73.7512
21
-101.139
0
LINE
8
BLACK
6
CONTINUOUS
10
73.7512
20
-101.139
11
74.3822
21
-101.515
0
LINE
8
BLACK
6
CONTINUOUS
10
74.3822
20
-101.515
11
74.9141
21
-102.022
0
LINE
8
BLACK
6
CONTINUOUS
10
74.9141
20
-102.022
11
75.3206
21
-102.634
0
LINE
8
BLACK
6
CONTINUOUS
10
75.3206
20
-102.634
11
75.5815
21
-103.321
0
LINE
8
BLACK
6
CONTINUOUS
10
75.5815
20
-103.321
11
75.6837
21
-104.048
0
LINE
8
BLACK
6
CONTINUOUS
10
75.6837
20
-104.048
11
75.685
21
-104.14
0
LINE
8
BLACK
6
CONTINUOUS
10
75.685
20
-104.14
11
75.6031
21
-104.87
0
LINE
8
BLACK
6
CONTINUOUS
10
75.6031
20
-104.87
11
75.3615
21
-105.564
0
LINE
8
BLACK
6
CONTINUOUS
10
75.2984
20
-102.747
11
74.9174
21
-102.137
0
LINE
8
BLACK
6
CONTINUOUS
10
74.9174
20
-102.137
11
74.4108
21
-101.627
0
LINE
8
BLACK
6
CONTINUOUS
10
74.4108
20
-101.627
11
73.8037
21
-101.241
0
LINE
8
BLACK
6
CONTINUOUS
10
73.8037
20
-101.241
11
73.1264
21
-101
0
LINE
8
BLACK
6
CONTINUOUS
10
73.1264
20
-101
11
72.4125
21
-100.915
0
LINE
8
BLACK
6
CONTINUOUS
10
72.4125
20
-100.915
11
71.6975
21
-100.99
0
LINE
8
BLACK
6
CONTINUOUS
10
71.6975
20
-100.99
11
71.0169
21
-101.222
0
LINE
8
BLACK
6
CONTINUOUS
10
71.0169
20
-101.222
11
70.4045
21
-101.599
0
LINE
8
BLACK
6
CONTINUOUS
10
70.4045
20
-101.599
11
69.8908
21
-102.102
0
LINE
8
BLACK
6
CONTINUOUS
10
69.8908
20
-102.102
11
69.5013
21
-102.706
0
LINE
8
BLACK
6
CONTINUOUS
10
69.5013
20
-102.706
11
69.2554
21
-103.382
0
LINE
8
BLACK
6
CONTINUOUS
10
69.2554
20
-103.382
11
69.1653
21
-104.095
0
LINE
8
BLACK
6
CONTINUOUS
10
69.1653
20
-104.095
11
69.2355
21
-104.811
0
LINE
8
BLACK
6
CONTINUOUS
10
69.2355
20
-104.811
11
69.4624
21
-105.493
0
LINE
8
BLACK
6
CONTINUOUS
10
69.4624
20
-105.493
11
69.8349
21
-106.108
0
LINE
8
BLACK
6
CONTINUOUS
10
69.8349
20
-106.108
11
70.3343
21
-106.625
0
LINE
8
BLACK
6
CONTINUOUS
10
70.3343
20
-106.625
11
70.9359
21
-107.019
0
LINE
8
BLACK
6
CONTINUOUS
10
70.9359
20
-107.019
11
71.6098
21
-107.269
0
LINE
8
BLACK
6
CONTINUOUS
10
71.6098
20
-107.269
11
72.3225
21
-107.364
0
LINE
8
BLACK
6
CONTINUOUS
10
72.3225
20
-107.364
11
73.0385
21
-107.299
0
LINE
8
BLACK
6
CONTINUOUS
10
73.0385
20
-107.299
11
73.7223
21
-107.077
0
LINE
8
BLACK
6
CONTINUOUS
10
73.7223
20
-107.077
11
74.3398
21
-106.709
0
LINE
8
BLACK
6
CONTINUOUS
10
74.3398
20
-106.709
11
74.8605
21
-106.213
0
LINE
8
BLACK
6
CONTINUOUS
10
74.8605
20
-106.213
11
75.2584
21
-105.614
0
LINE
8
BLACK
6
CONTINUOUS
10
75.2584
20
-105.614
11
75.5137
21
-104.942
0
LINE
8
BLACK
6
CONTINUOUS
10
75.5137
20
-104.942
11
75.6137
21
-104.23
0
LINE
8
BLACK
6
CONTINUOUS
10
75.6137
20
-104.23
11
75.615
21
-104.14
0
LINE
8
BLACK
6
CONTINUOUS
10
75.615
20
-104.14
11
75.5349
21
-103.426
0
LINE
8
BLACK
6
CONTINUOUS
10
75.5349
20
-103.426
11
75.2984
21
-102.747
0
LINE
8
BLACK
6
CONTINUOUS
10
89.1522
20
-88.625
11
89.1544
21
-88.625
0
LINE
8
BLACK
6
CONTINUOUS
10
89.1544
20
-88.625
11
89.1565
21
-88.6258
0
LINE
8
BLACK
6
CONTINUOUS
10
89.1565
20
-88.6258
11
89.1587
21
-88.6261
0
LINE
8
BLACK
6
CONTINUOUS
10
89.1587
20
-88.6261
11
89.1606
21
-88.6273
0
LINE
8
BLACK
6
CONTINUOUS
10
89.1606
20
-88.6273
11
89.1627
21
-88.628
0
LINE
8
BLACK
6
CONTINUOUS
10
89.1627
20
-88.628
11
89.1644
21
-88.6294
0
LINE
8
BLACK
6
CONTINUOUS
10
89.1644
20
-88.6294
11
89.1663
21
-88.6306
0
LINE
8
BLACK
6
CONTINUOUS
10
89.1663
20
-88.6306
11
89.1677
21
-88.6323
0
LINE
8
BLACK
6
CONTINUOUS
10
89.1677
20
-88.6323
11
89.1694
21
-88.6337
0
LINE
8
BLACK
6
CONTINUOUS
10
89.1694
20
-88.6337
11
89.1706
21
-88.6356
0
LINE
8
BLACK
6
CONTINUOUS
10
89.1706
20
-88.6356
11
89.172
21
-88.6373
0
LINE
8
BLACK
6
CONTINUOUS
10
89.172
20
-88.6373
11
89.1727
21
-88.6394
0
LINE
8
BLACK
6
CONTINUOUS
10
89.1727
20
-88.6394
11
89.1739
21
-88.6413
0
LINE
8
BLACK
6
CONTINUOUS
10
89.1739
20
-88.6413
11
89.1742
21
-88.6435
0
LINE
8
BLACK
6
CONTINUOUS
10
89.1742
20
-88.6435
11
89.175
21
-88.6456
0
LINE
8
BLACK
6
CONTINUOUS
10
89.175
20
-88.6456
11
89.175
21
-88.6478
0
LINE
8
BLACK
6
CONTINUOUS
10
89.175
20
-88.6478
11
89.175
21
-88.6478
0
LINE
8
BLACK
6
CONTINUOUS
10
89.175
20
-88.6478
11
89.175
21
-101.852
0
LINE
8
BLACK
6
CONTINUOUS
10
89.175
20
-101.852
11
89.175
21
-101.852
0
LINE
8
BLACK
6
CONTINUOUS
10
89.175
20
-101.852
11
89.175
21
-101.854
0
LINE
8
BLACK
6
CONTINUOUS
10
89.175
20
-101.854
11
89.1742
21
-101.856
0
LINE
8
BLACK
6
CONTINUOUS
10
89.1742
20
-101.856
11
89.1739
21
-101.859
0
LINE
8
BLACK
6
CONTINUOUS
10
89.1739
20
-101.859
11
89.1727
21
-101.861
0
LINE
8
BLACK
6
CONTINUOUS
10
89.1727
20
-101.861
11
89.172
21
-101.863
0
LINE
8
BLACK
6
CONTINUOUS
10
89.172
20
-101.863
11
89.1706
21
-101.864
0
LINE
8
BLACK
6
CONTINUOUS
10
89.1706
20
-101.864
11
89.1694
21
-101.866
0
LINE
8
BLACK
6
CONTINUOUS
10
89.1694
20
-101.866
11
89.1677
21
-101.868
0
LINE
8
BLACK
6
CONTINUOUS
10
89.1677
20
-101.868
11
89.1663
21
-101.869
0
LINE
8
BLACK
6
CONTINUOUS
10
89.1663
20
-101.869
11
89.1644
21
-101.871
0
LINE
8
BLACK
6
CONTINUOUS
10
89.1644
20
-101.871
11
89.1627
21
-101.872
0
LINE
8
BLACK
6
CONTINUOUS
10
89.1627
20
-101.872
11
89.1606
21
-101.873
0
LINE
8
BLACK
6
CONTINUOUS
10
89.1606
20
-101.873
11
89.1587
21
-101.874
0
LINE
8
BLACK
6
CONTINUOUS
10
89.1587
20
-101.874
11
89.1565
21
-101.874
0
LINE
8
BLACK
6
CONTINUOUS
10
89.1565
20
-101.874
11
89.1544
21
-101.875
0
LINE
8
BLACK
6
CONTINUOUS
10
89.1544
20
-101.875
11
89.1522
21
-101.875
0
LINE
8
BLACK
6
CONTINUOUS
10
89.1522
20
-101.875
11
89.1522
21
-101.875
0
LINE
8
BLACK
6
CONTINUOUS
10
89.1522
20
-101.875
11
75.9478
21
-101.875
0
LINE
8
BLACK
6
CONTINUOUS
10
75.9478
20
-101.875
11
75.9478
21
-101.875
0
LINE
8
BLACK
6
CONTINUOUS
10
75.9478
20
-101.875
11
75.9456
21
-101.875
0
LINE
8
BLACK
6
CONTINUOUS
10
75.9456
20
-101.875
11
75.9435
21
-101.874
0
LINE
8
BLACK
6
CONTINUOUS
10
75.9435
20
-101.874
11
75.9413
21
-101.874
0
LINE
8
BLACK
6
CONTINUOUS
10
75.9413
20
-101.874
11
75.9394
21
-101.873
0
LINE
8
BLACK
6
CONTINUOUS
10
75.9394
20
-101.873
11
75.9373
21
-101.872
0
LINE
8
BLACK
6
CONTINUOUS
10
75.9373
20
-101.872
11
75.9356
21
-101.871
0
LINE
8
BLACK
6
CONTINUOUS
10
75.9356
20
-101.871
11
75.9337
21
-101.869
0
LINE
8
BLACK
6
CONTINUOUS
10
75.9337
20
-101.869
11
75.9323
21
-101.868
0
LINE
8
BLACK
6
CONTINUOUS
10
75.9323
20
-101.868
11
75.9306
21
-101.866
0
LINE
8
BLACK
6
CONTINUOUS
10
75.9306
20
-101.866
11
75.9294
21
-101.864
0
LINE
8
BLACK
6
CONTINUOUS
10
75.9294
20
-101.864
11
75.928
21
-101.863
0
LINE
8
BLACK
6
CONTINUOUS
10
75.928
20
-101.863
11
75.9273
21
-101.861
0
LINE
8
BLACK
6
CONTINUOUS
10
75.9273
20
-101.861
11
75.9261
21
-101.859
0
LINE
8
BLACK
6
CONTINUOUS
10
75.9261
20
-101.859
11
75.9258
21
-101.856
0
LINE
8
BLACK
6
CONTINUOUS
10
75.9258
20
-101.856
11
75.925
21
-101.854
0
LINE
8
BLACK
6
CONTINUOUS
10
75.925
20
-101.854
11
75.925
21
-101.852
0
LINE
8
BLACK
6
CONTINUOUS
10
75.925
20
-101.852
11
75.925
21
-101.852
0
LINE
8
BLACK
6
CONTINUOUS
10
75.925
20
-101.852
11
75.925
21
-88.6478
0
LINE
8
BLACK
6
CONTINUOUS
10
75.925
20
-88.6478
11
75.925
21
-88.6456
0
LINE
8
BLACK
6
CONTINUOUS
10
75.925
20
-88.6456
11
75.9258
21
-88.6435
0
LINE
8
BLACK
6
CONTINUOUS
10
75.9258
20
-88.6435
11
75.9261
21
-88.6413
0
LINE
8
BLACK
6
CONTINUOUS
10
75.9261
20
-88.6413
11
75.9273
21
-88.6394
0
LINE
8
BLACK
6
CONTINUOUS
10
75.9273
20
-88.6394
11
75.928
21
-88.6373
0
LINE
8
BLACK
6
CONTINUOUS
10
75.928
20
-88.6373
11
75.9294
21
-88.6356
0
LINE
8
BLACK
6
CONTINUOUS
10
75.9294
20
-88.6356
11
75.9306
21
-88.6337
0
LINE
8
BLACK
6
CONTINUOUS
10
75.9306
20
-88.6337
11
75.9323
21
-88.6323
0
LINE
8
BLACK
6
CONTINUOUS
10
75.9323
20
-88.6323
11
75.9337
21
-88.6306
0
LINE
8
BLACK
6
CONTINUOUS
10
75.9337
20
-88.6306
11
75.9356
21
-88.6294
0
LINE
8
BLACK
6
CONTINUOUS
10
75.9356
20
-88.6294
11
75.9373
21
-88.628
0
LINE
8
BLACK
6
CONTINUOUS
10
75.9373
20
-88.628
11
75.9394
21
-88.6273
0
LINE
8
BLACK
6
CONTINUOUS
10
75.9394
20
-88.6273
11
75.9413
21
-88.6261
0
LINE
8
BLACK
6
CONTINUOUS
10
75.9413
20
-88.6261
11
75.9435
21
-88.6258
0
LINE
8
BLACK
6
CONTINUOUS
10
75.9435
20
-88.6258
11
75.9456
21
-88.625
0
LINE
8
BLACK
6
CONTINUOUS
10
75.9456
20
-88.625
11
75.9478
21
-88.625
0
LINE
8
BLACK
6
CONTINUOUS
10
75.9478
20
-88.625
11
75.9478
21
-88.625
0
LINE
8
BLACK
6
CONTINUOUS
10
75.9478
20
-88.625
11
89.1522
21
-88.625
0
LINE
8
BLACK
6
CONTINUOUS
10
89.1522
20
-88.625
11
89.1522
21
-88.625
0
LINE
8
BLACK
6
CONTINUOUS
10
75.975
20
-88.675
11
75.975
21
-101.825
0
LINE
8
BLACK
6
CONTINUOUS
10
75.975
20
-101.825
11
89.125
21
-101.825
0
LINE
8
BLACK
6
CONTINUOUS
10
89.125
20
-101.825
11
89.125
21
-88.675
0
LINE
8
BLACK
6
CONTINUOUS
10
89.125
20
-88.675
11
75.975
21
-88.675
0
LINE
8
BLACK
6
CONTINUOUS
10
160.452
20
-96.6737
11
160.062
21
-97.2967
0
LINE
8
BLACK
6
CONTINUOUS
10
160.062
20
-97.2967
11
159.545
21
-97.8179
0
LINE
8
BLACK
6
CONTINUOUS
10
159.545
20
-97.8179
11
158.924
21
-98.2115
0
LINE
8
BLACK
6
CONTINUOUS
10
158.924
20
-98.2115
11
158.232
21
-98.4579
0
LINE
8
BLACK
6
CONTINUOUS
10
158.232
20
-98.4579
11
157.503
21
-98.5449
0
LINE
8
BLACK
6
CONTINUOUS
10
157.503
20
-98.5449
11
156.772
21
-98.4681
0
LINE
8
BLACK
6
CONTINUOUS
10
156.772
20
-98.4681
11
156.077
21
-98.2314
0
LINE
8
BLACK
6
CONTINUOUS
10
156.077
20
-98.2314
11
155.451
21
-97.8465
0
LINE
8
BLACK
6
CONTINUOUS
10
155.451
20
-97.8465
11
154.927
21
-97.3325
0
LINE
8
BLACK
6
CONTINUOUS
10
154.927
20
-97.3325
11
154.529
21
-96.7151
0
LINE
8
BLACK
6
CONTINUOUS
10
154.529
20
-96.7151
11
154.277
21
-96.0248
0
LINE
8
BLACK
6
CONTINUOUS
10
154.277
20
-96.0248
11
154.185
21
-95.296
0
LINE
8
BLACK
6
CONTINUOUS
10
154.185
20
-95.296
11
154.257
21
-94.5649
0
LINE
8
BLACK
6
CONTINUOUS
10
154.257
20
-94.5649
11
154.489
21
-93.8679
0
LINE
8
BLACK
6
CONTINUOUS
10
154.489
20
-93.8679
11
154.869
21
-93.2396
0
LINE
8
BLACK
6
CONTINUOUS
10
154.869
20
-93.2396
11
155.38
21
-92.7112
0
LINE
8
BLACK
6
CONTINUOUS
10
155.38
20
-92.7112
11
155.994
21
-92.3089
0
LINE
8
BLACK
6
CONTINUOUS
10
155.994
20
-92.3089
11
156.683
21
-92.0529
0
LINE
8
BLACK
6
CONTINUOUS
10
156.683
20
-92.0529
11
157.411
21
-91.9557
0
LINE
8
BLACK
6
CONTINUOUS
10
157.411
20
-91.9557
11
158.143
21
-92.0223
0
LINE
8
BLACK
6
CONTINUOUS
10
158.143
20
-92.0223
11
158.841
21
-92.2493
0
LINE
8
BLACK
6
CONTINUOUS
10
158.841
20
-92.2493
11
159.472
21
-92.6254
0
LINE
8
BLACK
6
CONTINUOUS
10
159.472
20
-92.6254
11
160.004
21
-93.132
0
LINE
8
BLACK
6
CONTINUOUS
10
160.004
20
-93.132
11
160.411
21
-93.7439
0
LINE
8
BLACK
6
CONTINUOUS
10
160.411
20
-93.7439
11
160.671
21
-94.4306
0
LINE
8
BLACK
6
CONTINUOUS
10
160.671
20
-94.4306
11
160.774
21
-95.158
0
LINE
8
BLACK
6
CONTINUOUS
10
160.774
20
-95.158
11
160.775
21
-95.25
0
LINE
8
BLACK
6
CONTINUOUS
10
160.775
20
-95.25
11
160.693
21
-95.98
0
LINE
8
BLACK
6
CONTINUOUS
10
160.693
20
-95.98
11
160.452
21
-96.6737
0
LINE
8
BLACK
6
CONTINUOUS
10
160.388
20
-93.8565
11
160.007
21
-93.2468
0
LINE
8
BLACK
6
CONTINUOUS
10
160.007
20
-93.2468
11
159.501
21
-92.7366
0
LINE
8
BLACK
6
CONTINUOUS
10
159.501
20
-92.7366
11
158.894
21
-92.3514
0
LINE
8
BLACK
6
CONTINUOUS
10
158.894
20
-92.3514
11
158.216
21
-92.1102
0
LINE
8
BLACK
6
CONTINUOUS
10
158.216
20
-92.1102
11
157.503
21
-92.0251
0
LINE
8
BLACK
6
CONTINUOUS
10
157.503
20
-92.0251
11
156.787
21
-92.1002
0
LINE
8
BLACK
6
CONTINUOUS
10
156.787
20
-92.1002
11
156.107
21
-92.3319
0
LINE
8
BLACK
6
CONTINUOUS
10
156.107
20
-92.3319
11
155.494
21
-92.7087
0
LINE
8
BLACK
6
CONTINUOUS
10
155.494
20
-92.7087
11
154.981
21
-93.2117
0
LINE
8
BLACK
6
CONTINUOUS
10
154.981
20
-93.2117
11
154.591
21
-93.8161
0
LINE
8
BLACK
6
CONTINUOUS
10
154.591
20
-93.8161
11
154.345
21
-94.4917
0
LINE
8
BLACK
6
CONTINUOUS
10
154.345
20
-94.4917
11
154.255
21
-95.205
0
LINE
8
BLACK
6
CONTINUOUS
10
154.255
20
-95.205
11
154.325
21
-95.9205
0
LINE
8
BLACK
6
CONTINUOUS
10
154.325
20
-95.9205
11
154.552
21
-96.6027
0
LINE
8
BLACK
6
CONTINUOUS
10
154.552
20
-96.6027
11
154.925
21
-97.2177
0
LINE
8
BLACK
6
CONTINUOUS
10
154.925
20
-97.2177
11
155.424
21
-97.7349
0
LINE
8
BLACK
6
CONTINUOUS
10
155.424
20
-97.7349
11
156.026
21
-98.1286
0
LINE
8
BLACK
6
CONTINUOUS
10
156.026
20
-98.1286
11
156.7
21
-98.3792
0
LINE
8
BLACK
6
CONTINUOUS
10
156.7
20
-98.3792
11
157.412
21
-98.4743
0
LINE
8
BLACK
6
CONTINUOUS
10
157.412
20
-98.4743
11
158.128
21
-98.4091
0
LINE
8
BLACK
6
CONTINUOUS
10
158.128
20
-98.4091
11
158.812
21
-98.187
0
LINE
8
BLACK
6
CONTINUOUS
10
158.812
20
-98.187
11
159.43
21
-97.8188
0
LINE
8
BLACK
6
CONTINUOUS
10
159.43
20
-97.8188
11
159.95
21
-97.323
0
LINE
8
BLACK
6
CONTINUOUS
10
159.95
20
-97.323
11
160.348
21
-96.7241
0
LINE
8
BLACK
6
CONTINUOUS
10
160.348
20
-96.7241
11
160.604
21
-96.052
0
LINE
8
BLACK
6
CONTINUOUS
10
160.604
20
-96.052
11
160.704
21
-95.34
0
LINE
8
BLACK
6
CONTINUOUS
10
160.704
20
-95.34
11
160.705
21
-95.25
0
LINE
8
BLACK
6
CONTINUOUS
10
160.705
20
-95.25
11
160.625
21
-94.5355
0
LINE
8
BLACK
6
CONTINUOUS
10
160.625
20
-94.5355
11
160.388
21
-93.8565
0
LINE
8
BLACK
6
CONTINUOUS
10
117.272
20
-96.6737
11
116.882
21
-97.2967
0
LINE
8
BLACK
6
CONTINUOUS
10
116.882
20
-97.2967
11
116.365
21
-97.8179
0
LINE
8
BLACK
6
CONTINUOUS
10
116.365
20
-97.8179
11
115.744
21
-98.2115
0
LINE
8
BLACK
6
CONTINUOUS
10
115.744
20
-98.2115
11
115.052
21
-98.4579
0
LINE
8
BLACK
6
CONTINUOUS
10
115.052
20
-98.4579
11
114.323
21
-98.5449
0
LINE
8
BLACK
6
CONTINUOUS
10
114.323
20
-98.5449
11
113.592
21
-98.4681
0
LINE
8
BLACK
6
CONTINUOUS
10
113.592
20
-98.4681
11
112.897
21
-98.2314
0
LINE
8
BLACK
6
CONTINUOUS
10
112.897
20
-98.2314
11
112.271
21
-97.8465
0
LINE
8
BLACK
6
CONTINUOUS
10
112.271
20
-97.8465
11
111.747
21
-97.3325
0
LINE
8
BLACK
6
CONTINUOUS
10
111.747
20
-97.3325
11
111.349
21
-96.7151
0
LINE
8
BLACK
6
CONTINUOUS
10
111.349
20
-96.7151
11
111.097
21
-96.0248
0
LINE
8
BLACK
6
CONTINUOUS
10
111.097
20
-96.0248
11
111.005
21
-95.296
0
LINE
8
BLACK
6
CONTINUOUS
10
111.005
20
-95.296
11
111.077
21
-94.5649
0
LINE
8
BLACK
6
CONTINUOUS
10
111.077
20
-94.5649
11
111.309
21
-93.8679
0
LINE
8
BLACK
6
CONTINUOUS
10
111.309
20
-93.8679
11
111.689
21
-93.2396
0
LINE
8
BLACK
6
CONTINUOUS
10
111.689
20
-93.2396
11
112.2
21
-92.7112
0
LINE
8
BLACK
6
CONTINUOUS
10
112.2
20
-92.7112
11
112.814
21
-92.3089
0
LINE
8
BLACK
6
CONTINUOUS
10
112.814
20
-92.3089
11
113.503
21
-92.0529
0
LINE
8
BLACK
6
CONTINUOUS
10
113.503
20
-92.0529
11
114.231
21
-91.9557
0
LINE
8
BLACK
6
CONTINUOUS
10
114.231
20
-91.9557
11
114.963
21
-92.0223
0
LINE
8
BLACK
6
CONTINUOUS
10
114.963
20
-92.0223
11
115.661
21
-92.2493
0
LINE
8
BLACK
6
CONTINUOUS
10
115.661
20
-92.2493
11
116.292
21
-92.6254
0
LINE
8
BLACK
6
CONTINUOUS
10
116.292
20
-92.6254
11
116.824
21
-93.132
0
LINE
8
BLACK
6
CONTINUOUS
10
116.824
20
-93.132
11
117.231
21
-93.7439
0
LINE
8
BLACK
6
CONTINUOUS
10
117.231
20
-93.7439
11
117.491
21
-94.4306
0
LINE
8
BLACK
6
CONTINUOUS
10
117.491
20
-94.4306
11
117.594
21
-95.158
0
LINE
8
BLACK
6
CONTINUOUS
10
117.594
20
-95.158
11
117.595
21
-95.25
0
LINE
8
BLACK
6
CONTINUOUS
10
117.595
20
-95.25
11
117.513
21
-95.98
0
LINE
8
BLACK
6
CONTINUOUS
10
117.513
20
-95.98
11
117.272
21
-96.6737
0
LINE
8
BLACK
6
CONTINUOUS
10
117.208
20
-93.8565
11
116.827
21
-93.2468
0
LINE
8
BLACK
6
CONTINUOUS
10
116.827
20
-93.2468
11
116.321
21
-92.7366
0
LINE
8
BLACK
6
CONTINUOUS
10
116.321
20
-92.7366
11
115.714
21
-92.3514
0
LINE
8
BLACK
6
CONTINUOUS
10
115.714
20
-92.3514
11
115.036
21
-92.1102
0
LINE
8
BLACK
6
CONTINUOUS
10
115.036
20
-92.1102
11
114.323
21
-92.0251
0
LINE
8
BLACK
6
CONTINUOUS
10
114.323
20
-92.0251
11
113.607
21
-92.1002
0
LINE
8
BLACK
6
CONTINUOUS
10
113.607
20
-92.1002
11
112.927
21
-92.3319
0
LINE
8
BLACK
6
CONTINUOUS
10
112.927
20
-92.3319
11
112.314
21
-92.7087
0
LINE
8
BLACK
6
CONTINUOUS
10
112.314
20
-92.7087
11
111.801
21
-93.2117
0
LINE
8
BLACK
6
CONTINUOUS
10
111.801
20
-93.2117
11
111.411
21
-93.8161
0
LINE
8
BLACK
6
CONTINUOUS
10
111.411
20
-93.8161
11
111.165
21
-94.4917
0
LINE
8
BLACK
6
CONTINUOUS
10
111.165
20
-94.4917
11
111.075
21
-95.205
0
LINE
8
BLACK
6
CONTINUOUS
10
111.075
20
-95.205
11
111.145
21
-95.9205
0
LINE
8
BLACK
6
CONTINUOUS
10
111.145
20
-95.9205
11
111.372
21
-96.6027
0
LINE
8
BLACK
6
CONTINUOUS
10
111.372
20
-96.6027
11
111.745
21
-97.2177
0
LINE
8
BLACK
6
CONTINUOUS
10
111.745
20
-97.2177
11
112.244
21
-97.7349
0
LINE
8
BLACK
6
CONTINUOUS
10
112.244
20
-97.7349
11
112.846
21
-98.1286
0
LINE
8
BLACK
6
CONTINUOUS
10
112.846
20
-98.1286
11
113.52
21
-98.3792
0
LINE
8
BLACK
6
CONTINUOUS
10
113.52
20
-98.3792
11
114.232
21
-98.4743
0
LINE
8
BLACK
6
CONTINUOUS
10
114.232
20
-98.4743
11
114.948
21
-98.4091
0
LINE
8
BLACK
6
CONTINUOUS
10
114.948
20
-98.4091
11
115.632
21
-98.187
0
LINE
8
BLACK
6
CONTINUOUS
10
115.632
20
-98.187
11
116.25
21
-97.8188
0
LINE
8
BLACK
6
CONTINUOUS
10
116.25
20
-97.8188
11
116.77
21
-97.323
0
LINE
8
BLACK
6
CONTINUOUS
10
116.77
20
-97.323
11
117.168
21
-96.7241
0
LINE
8
BLACK
6
CONTINUOUS
10
117.168
20
-96.7241
11
117.424
21
-96.052
0
LINE
8
BLACK
6
CONTINUOUS
10
117.424
20
-96.052
11
117.524
21
-95.34
0
LINE
8
BLACK
6
CONTINUOUS
10
117.524
20
-95.34
11
117.525
21
-95.25
0
LINE
8
BLACK
6
CONTINUOUS
10
117.525
20
-95.25
11
117.445
21
-94.5355
0
LINE
8
BLACK
6
CONTINUOUS
10
117.445
20
-94.5355
11
117.208
21
-93.8565
0
LINE
8
BLACK
6
CONTINUOUS
10
201.092
20
-96.6737
11
200.702
21
-97.2967
0
LINE
8
BLACK
6
CONTINUOUS
10
200.702
20
-97.2967
11
200.185
21
-97.8179
0
LINE
8
BLACK
6
CONTINUOUS
10
200.185
20
-97.8179
11
199.564
21
-98.2115
0
LINE
8
BLACK
6
CONTINUOUS
10
199.564
20
-98.2115
11
198.872
21
-98.4579
0
LINE
8
BLACK
6
CONTINUOUS
10
198.872
20
-98.4579
11
198.143
21
-98.5449
0
LINE
8
BLACK
6
CONTINUOUS
10
198.143
20
-98.5449
11
197.412
21
-98.4681
0
LINE
8
BLACK
6
CONTINUOUS
10
197.412
20
-98.4681
11
196.717
21
-98.2314
0
LINE
8
BLACK
6
CONTINUOUS
10
196.717
20
-98.2314
11
196.091
21
-97.8465
0
LINE
8
BLACK
6
CONTINUOUS
10
196.091
20
-97.8465
11
195.567
21
-97.3325
0
LINE
8
BLACK
6
CONTINUOUS
10
195.567
20
-97.3325
11
195.169
21
-96.7151
0
LINE
8
BLACK
6
CONTINUOUS
10
195.169
20
-96.7151
11
194.917
21
-96.0248
0
LINE
8
BLACK
6
CONTINUOUS
10
194.917
20
-96.0248
11
194.825
21
-95.296
0
LINE
8
BLACK
6
CONTINUOUS
10
194.825
20
-95.296
11
194.897
21
-94.5649
0
LINE
8
BLACK
6
CONTINUOUS
10
194.897
20
-94.5649
11
195.129
21
-93.8679
0
LINE
8
BLACK
6
CONTINUOUS
10
195.129
20
-93.8679
11
195.509
21
-93.2396
0
LINE
8
BLACK
6
CONTINUOUS
10
195.509
20
-93.2396
11
196.02
21
-92.7112
0
LINE
8
BLACK
6
CONTINUOUS
10
196.02
20
-92.7112
11
196.634
21
-92.3089
0
LINE
8
BLACK
6
CONTINUOUS
10
196.634
20
-92.3089
11
197.323
21
-92.0529
0
LINE
8
BLACK
6
CONTINUOUS
10
197.323
20
-92.0529
11
198.051
21
-91.9557
0
LINE
8
BLACK
6
CONTINUOUS
10
198.051
20
-91.9557
11
198.783
21
-92.0223
0
LINE
8
BLACK
6
CONTINUOUS
10
198.783
20
-92.0223
11
199.481
21
-92.2493
0
LINE
8
BLACK
6
CONTINUOUS
10
199.481
20
-92.2493
11
200.112
21
-92.6254
0
LINE
8
BLACK
6
CONTINUOUS
10
200.112
20
-92.6254
11
200.644
21
-93.132
0
LINE
8
BLACK
6
CONTINUOUS
10
200.644
20
-93.132
11
201.051
21
-93.7439
0
LINE
8
BLACK
6
CONTINUOUS
10
201.051
20
-93.7439
11
201.311
21
-94.4306
0
LINE
8
BLACK
6
CONTINUOUS
10
201.311
20
-94.4306
11
201.414
21
-95.158
0
LINE
8
BLACK
6
CONTINUOUS
10
201.414
20
-95.158
11
201.415
21
-95.25
0
LINE
8
BLACK
6
CONTINUOUS
10
201.415
20
-95.25
11
201.333
21
-95.98
0
LINE
8
BLACK
6
CONTINUOUS
10
201.333
20
-95.98
11
201.092
21
-96.6737
0
LINE
8
BLACK
6
CONTINUOUS
10
201.028
20
-93.8565
11
200.647
21
-93.2468
0
LINE
8
BLACK
6
CONTINUOUS
10
200.647
20
-93.2468
11
200.141
21
-92.7366
0
LINE
8
BLACK
6
CONTINUOUS
10
200.141
20
-92.7366
11
199.534
21
-92.3514
0
LINE
8
BLACK
6
CONTINUOUS
10
199.534
20
-92.3514
11
198.856
21
-92.1102
0
LINE
8
BLACK
6
CONTINUOUS
10
198.856
20
-92.1102
11
198.143
21
-92.0251
0
LINE
8
BLACK
6
CONTINUOUS
10
198.143
20
-92.0251
11
197.427
21
-92.1002
0
LINE
8
BLACK
6
CONTINUOUS
10
197.427
20
-92.1002
11
196.747
21
-92.3319
0
LINE
8
BLACK
6
CONTINUOUS
10
196.747
20
-92.3319
11
196.134
21
-92.7087
0
LINE
8
BLACK
6
CONTINUOUS
10
196.134
20
-92.7087
11
195.621
21
-93.2117
0
LINE
8
BLACK
6
CONTINUOUS
10
195.621
20
-93.2117
11
195.231
21
-93.8161
0
LINE
8
BLACK
6
CONTINUOUS
10
195.231
20
-93.8161
11
194.985
21
-94.4917
0
LINE
8
BLACK
6
CONTINUOUS
10
194.985
20
-94.4917
11
194.895
21
-95.205
0
LINE
8
BLACK
6
CONTINUOUS
10
194.895
20
-95.205
11
194.965
21
-95.9205
0
LINE
8
BLACK
6
CONTINUOUS
10
194.965
20
-95.9205
11
195.192
21
-96.6027
0
LINE
8
BLACK
6
CONTINUOUS
10
195.192
20
-96.6027
11
195.565
21
-97.2177
0
LINE
8
BLACK
6
CONTINUOUS
10
195.565
20
-97.2177
11
196.064
21
-97.7349
0
LINE
8
BLACK
6
CONTINUOUS
10
196.064
20
-97.7349
11
196.666
21
-98.1286
0
LINE
8
BLACK
6
CONTINUOUS
10
196.666
20
-98.1286
11
197.34
21
-98.3792
0
LINE
8
BLACK
6
CONTINUOUS
10
197.34
20
-98.3792
11
198.052
21
-98.4743
0
LINE
8
BLACK
6
CONTINUOUS
10
198.052
20
-98.4743
11
198.768
21
-98.4091
0
LINE
8
BLACK
6
CONTINUOUS
10
198.768
20
-98.4091
11
199.452
21
-98.187
0
LINE
8
BLACK
6
CONTINUOUS
10
199.452
20
-98.187
11
200.07
21
-97.8188
0
LINE
8
BLACK
6
CONTINUOUS
10
200.07
20
-97.8188
11
200.59
21
-97.323
0
LINE
8
BLACK
6
CONTINUOUS
10
200.59
20
-97.323
11
200.988
21
-96.7241
0
LINE
8
BLACK
6
CONTINUOUS
10
200.988
20
-96.7241
11
201.244
21
-96.052
0
LINE
8
BLACK
6
CONTINUOUS
10
201.244
20
-96.052
11
201.344
21
-95.34
0
LINE
8
BLACK
6
CONTINUOUS
10
201.344
20
-95.34
11
201.345
21
-95.25
0
LINE
8
BLACK
6
CONTINUOUS
10
201.345
20
-95.25
11
201.265
21
-94.5355
0
LINE
8
BLACK
6
CONTINUOUS
10
201.265
20
-94.5355
11
201.028
21
-93.8565
0
LINE
8
BLACK
6
CONTINUOUS
10
152.652
20
-77.195
11
152.654
21
-77.195
0
LINE
8
BLACK
6
CONTINUOUS
10
152.654
20
-77.195
11
152.656
21
-77.1958
0
LINE
8
BLACK
6
CONTINUOUS
10
152.656
20
-77.1958
11
152.659
21
-77.1961
0
LINE
8
BLACK
6
CONTINUOUS
10
152.659
20
-77.1961
11
152.661
21
-77.1973
0
LINE
8
BLACK
6
CONTINUOUS
10
152.661
20
-77.1973
11
152.663
21
-77.198
0
LINE
8
BLACK
6
CONTINUOUS
10
152.663
20
-77.198
11
152.664
21
-77.1994
0
LINE
8
BLACK
6
CONTINUOUS
10
152.664
20
-77.1994
11
152.666
21
-77.2006
0
LINE
8
BLACK
6
CONTINUOUS
10
152.666
20
-77.2006
11
152.668
21
-77.2023
0
LINE
8
BLACK
6
CONTINUOUS
10
152.668
20
-77.2023
11
152.669
21
-77.2037
0
LINE
8
BLACK
6
CONTINUOUS
10
152.669
20
-77.2037
11
152.671
21
-77.2056
0
LINE
8
BLACK
6
CONTINUOUS
10
152.671
20
-77.2056
11
152.672
21
-77.2073
0
LINE
8
BLACK
6
CONTINUOUS
10
152.672
20
-77.2073
11
152.673
21
-77.2094
0
LINE
8
BLACK
6
CONTINUOUS
10
152.673
20
-77.2094
11
152.674
21
-77.2113
0
LINE
8
BLACK
6
CONTINUOUS
10
152.674
20
-77.2113
11
152.674
21
-77.2135
0
LINE
8
BLACK
6
CONTINUOUS
10
152.674
20
-77.2135
11
152.675
21
-77.2156
0
LINE
8
BLACK
6
CONTINUOUS
10
152.675
20
-77.2156
11
152.675
21
-77.2178
0
LINE
8
BLACK
6
CONTINUOUS
10
152.675
20
-77.2178
11
152.675
21
-77.2178
0
LINE
8
BLACK
6
CONTINUOUS
10
152.675
20
-77.2178
11
152.675
21
-90.4222
0
LINE
8
BLACK
6
CONTINUOUS
10
152.675
20
-90.4222
11
152.675
21
-90.4222
0
LINE
8
BLACK
6
CONTINUOUS
10
152.675
20
-90.4222
11
152.675
21
-90.4244
0
LINE
8
BLACK
6
CONTINUOUS
10
152.675
20
-90.4244
11
152.674
21
-90.4265
0
LINE
8
BLACK
6
CONTINUOUS
10
152.674
20
-90.4265
11
152.674
21
-90.4287
0
LINE
8
BLACK
6
CONTINUOUS
10
152.674
20
-90.4287
11
152.673
21
-90.4306
0
LINE
8
BLACK
6
CONTINUOUS
10
152.673
20
-90.4306
11
152.672
21
-90.4327
0
LINE
8
BLACK
6
CONTINUOUS
10
152.672
20
-90.4327
11
152.671
21
-90.4344
0
LINE
8
BLACK
6
CONTINUOUS
10
152.671
20
-90.4344
11
152.669
21
-90.4363
0
LINE
8
BLACK
6
CONTINUOUS
10
152.669
20
-90.4363
11
152.668
21
-90.4377
0
LINE
8
BLACK
6
CONTINUOUS
10
152.668
20
-90.4377
11
152.666
21
-90.4394
0
LINE
8
BLACK
6
CONTINUOUS
10
152.666
20
-90.4394
11
152.664
21
-90.4406
0
LINE
8
BLACK
6
CONTINUOUS
10
152.664
20
-90.4406
11
152.663
21
-90.442
0
LINE
8
BLACK
6
CONTINUOUS
10
152.663
20
-90.442
11
152.661
21
-90.4427
0
LINE
8
BLACK
6
CONTINUOUS
10
152.661
20
-90.4427
11
152.659
21
-90.4439
0
LINE
8
BLACK
6
CONTINUOUS
10
152.659
20
-90.4439
11
152.656
21
-90.4442
0
LINE
8
BLACK
6
CONTINUOUS
10
152.656
20
-90.4442
11
152.654
21
-90.445
0
LINE
8
BLACK
6
CONTINUOUS
10
152.654
20
-90.445
11
152.652
21
-90.445
0
LINE
8
BLACK
6
CONTINUOUS
10
152.652
20
-90.445
11
152.652
21
-90.445
0
LINE
8
BLACK
6
CONTINUOUS
10
152.652
20
-90.445
11
139.448
21
-90.445
0
LINE
8
BLACK
6
CONTINUOUS
10
139.448
20
-90.445
11
139.448
21
-90.445
0
LINE
8
BLACK
6
CONTINUOUS
10
139.448
20
-90.445
11
139.446
21
-90.445
0
LINE
8
BLACK
6
CONTINUOUS
10
139.446
20
-90.445
11
139.444
21
-90.4442
0
LINE
8
BLACK
6
CONTINUOUS
10
139.444
20
-90.4442
11
139.441
21
-90.4439
0
LINE
8
BLACK
6
CONTINUOUS
10
139.441
20
-90.4439
11
139.439
21
-90.4427
0
LINE
8
BLACK
6
CONTINUOUS
10
139.439
20
-90.4427
11
139.437
21
-90.442
0
LINE
8
BLACK
6
CONTINUOUS
10
139.437
20
-90.442
11
139.436
21
-90.4406
0
LINE
8
BLACK
6
CONTINUOUS
10
139.436
20
-90.4406
11
139.434
21
-90.4394
0
LINE
8
BLACK
6
CONTINUOUS
10
139.434
20
-90.4394
11
139.432
21
-90.4377
0
LINE
8
BLACK
6
CONTINUOUS
10
139.432
20
-90.4377
11
139.431
21
-90.4363
0
LINE
8
BLACK
6
CONTINUOUS
10
139.431
20
-90.4363
11
139.429
21
-90.4344
0
LINE
8
BLACK
6
CONTINUOUS
10
139.429
20
-90.4344
11
139.428
21
-90.4327
0
LINE
8
BLACK
6
CONTINUOUS
10
139.428
20
-90.4327
11
139.427
21
-90.4306
0
LINE
8
BLACK
6
CONTINUOUS
10
139.427
20
-90.4306
11
139.426
21
-90.4287
0
LINE
8
BLACK
6
CONTINUOUS
10
139.426
20
-90.4287
11
139.426
21
-90.4265
0
LINE
8
BLACK
6
CONTINUOUS
10
139.426
20
-90.4265
11
139.425
21
-90.4244
0
LINE
8
BLACK
6
CONTINUOUS
10
139.425
20
-90.4244
11
139.425
21
-90.4222
0
LINE
8
BLACK
6
CONTINUOUS
10
139.425
20
-90.4222
11
139.425
21
-90.4222
0
LINE
8
BLACK
6
CONTINUOUS
10
139.425
20
-90.4222
11
139.425
21
-77.2178
0
LINE
8
BLACK
6
CONTINUOUS
10
139.425
20
-77.2178
11
139.425
21
-77.2156
0
LINE
8
BLACK
6
CONTINUOUS
10
139.425
20
-77.2156
11
139.426
21
-77.2135
0
LINE
8
BLACK
6
CONTINUOUS
10
139.426
20
-77.2135
11
139.426
21
-77.2113
0
LINE
8
BLACK
6
CONTINUOUS
10
139.426
20
-77.2113
11
139.427
21
-77.2094
0
LINE
8
BLACK
6
CONTINUOUS
10
139.427
20
-77.2094
11
139.428
21
-77.2073
0
LINE
8
BLACK
6
CONTINUOUS
10
139.428
20
-77.2073
11
139.429
21
-77.2056
0
LINE
8
BLACK
6
CONTINUOUS
10
139.429
20
-77.2056
11
139.431
21
-77.2037
0
LINE
8
BLACK
6
CONTINUOUS
10
139.431
20
-77.2037
11
139.432
21
-77.2023
0
LINE
8
BLACK
6
CONTINUOUS
10
139.432
20
-77.2023
11
139.434
21
-77.2006
0
LINE
8
BLACK
6
CONTINUOUS
10
139.434
20
-77.2006
11
139.436
21
-77.1994
0
LINE
8
BLACK
6
CONTINUOUS
10
139.436
20
-77.1994
11
139.437
21
-77.198
0
LINE
8
BLACK
6
CONTINUOUS
10
139.437
20
-77.198
11
139.439
21
-77.1973
0
LINE
8
BLACK
6
CONTINUOUS
10
139.439
20
-77.1973
11
139.441
21
-77.1961
0
LINE
8
BLACK
6
CONTINUOUS
10
139.441
20
-77.1961
11
139.444
21
-77.1958
0
LINE
8
BLACK
6
CONTINUOUS
10
139.444
20
-77.1958
11
139.446
21
-77.195
0
LINE
8
BLACK
6
CONTINUOUS
10
139.446
20
-77.195
11
139.448
21
-77.195
0
LINE
8
BLACK
6
CONTINUOUS
10
139.448
20
-77.195
11
139.448
21
-77.195
0
LINE
8
BLACK
6
CONTINUOUS
10
139.448
20
-77.195
11
152.652
21
-77.195
0
LINE
8
BLACK
6
CONTINUOUS
10
152.652
20
-77.195
11
152.652
21
-77.195
0
LINE
8
BLACK
6
CONTINUOUS
10
139.475
20
-77.245
11
139.475
21
-90.395
0
LINE
8
BLACK
6
CONTINUOUS
10
139.475
20
-90.395
11
152.625
21
-90.395
0
LINE
8
BLACK
6
CONTINUOUS
10
152.625
20
-90.395
11
152.625
21
-77.245
0
LINE
8
BLACK
6
CONTINUOUS
10
152.625
20
-77.245
11
139.475
21
-77.245
0
LINE
8
BLACK
6
CONTINUOUS
10
109.472
20
-77.195
11
109.474
21
-77.195
0
LINE
8
BLACK
6
CONTINUOUS
10
109.474
20
-77.195
11
109.476
21
-77.1958
0
LINE
8
BLACK
6
CONTINUOUS
10
109.476
20
-77.1958
11
109.479
21
-77.1961
0
LINE
8
BLACK
6
CONTINUOUS
10
109.479
20
-77.1961
11
109.481
21
-77.1973
0
LINE
8
BLACK
6
CONTINUOUS
10
109.481
20
-77.1973
11
109.483
21
-77.198
0
LINE
8
BLACK
6
CONTINUOUS
10
109.483
20
-77.198
11
109.484
21
-77.1994
0
LINE
8
BLACK
6
CONTINUOUS
10
109.484
20
-77.1994
11
109.486
21
-77.2006
0
LINE
8
BLACK
6
CONTINUOUS
10
109.486
20
-77.2006
11
109.488
21
-77.2023
0
LINE
8
BLACK
6
CONTINUOUS
10
109.488
20
-77.2023
11
109.489
21
-77.2037
0
LINE
8
BLACK
6
CONTINUOUS
10
109.489
20
-77.2037
11
109.491
21
-77.2056
0
LINE
8
BLACK
6
CONTINUOUS
10
109.491
20
-77.2056
11
109.492
21
-77.2073
0
LINE
8
BLACK
6
CONTINUOUS
10
109.492
20
-77.2073
11
109.493
21
-77.2094
0
LINE
8
BLACK
6
CONTINUOUS
10
109.493
20
-77.2094
11
109.494
21
-77.2113
0
LINE
8
BLACK
6
CONTINUOUS
10
109.494
20
-77.2113
11
109.494
21
-77.2135
0
LINE
8
BLACK
6
CONTINUOUS
10
109.494
20
-77.2135
11
109.495
21
-77.2156
0
LINE
8
BLACK
6
CONTINUOUS
10
109.495
20
-77.2156
11
109.495
21
-77.2178
0
LINE
8
BLACK
6
CONTINUOUS
10
109.495
20
-77.2178
11
109.495
21
-77.2178
0
LINE
8
BLACK
6
CONTINUOUS
10
109.495
20
-77.2178
11
109.495
21
-90.4222
0
LINE
8
BLACK
6
CONTINUOUS
10
109.495
20
-90.4222
11
109.495
21
-90.4222
0
LINE
8
BLACK
6
CONTINUOUS
10
109.495
20
-90.4222
11
109.495
21
-90.4244
0
LINE
8
BLACK
6
CONTINUOUS
10
109.495
20
-90.4244
11
109.494
21
-90.4265
0
LINE
8
BLACK
6
CONTINUOUS
10
109.494
20
-90.4265
11
109.494
21
-90.4287
0
LINE
8
BLACK
6
CONTINUOUS
10
109.494
20
-90.4287
11
109.493
21
-90.4306
0
LINE
8
BLACK
6
CONTINUOUS
10
109.493
20
-90.4306
11
109.492
21
-90.4327
0
LINE
8
BLACK
6
CONTINUOUS
10
109.492
20
-90.4327
11
109.491
21
-90.4344
0
LINE
8
BLACK
6
CONTINUOUS
10
109.491
20
-90.4344
11
109.489
21
-90.4363
0
LINE
8
BLACK
6
CONTINUOUS
10
109.489
20
-90.4363
11
109.488
21
-90.4377
0
LINE
8
BLACK
6
CONTINUOUS
10
109.488
20
-90.4377
11
109.486
21
-90.4394
0
LINE
8
BLACK
6
CONTINUOUS
10
109.486
20
-90.4394
11
109.484
21
-90.4406
0
LINE
8
BLACK
6
CONTINUOUS
10
109.484
20
-90.4406
11
109.483
21
-90.442
0
LINE
8
BLACK
6
CONTINUOUS
10
109.483
20
-90.442
11
109.481
21
-90.4427
0
LINE
8
BLACK
6
CONTINUOUS
10
109.481
20
-90.4427
11
109.479
21
-90.4439
0
LINE
8
BLACK
6
CONTINUOUS
10
109.479
20
-90.4439
11
109.476
21
-90.4442
0
LINE
8
BLACK
6
CONTINUOUS
10
109.476
20
-90.4442
11
109.474
21
-90.445
0
LINE
8
BLACK
6
CONTINUOUS
10
109.474
20
-90.445
11
109.472
21
-90.445
0
LINE
8
BLACK
6
CONTINUOUS
10
109.472
20
-90.445
11
109.472
21
-90.445
0
LINE
8
BLACK
6
CONTINUOUS
10
109.472
20
-90.445
11
96.2678
21
-90.445
0
LINE
8
BLACK
6
CONTINUOUS
10
96.2678
20
-90.445
11
96.2678
21
-90.445
0
LINE
8
BLACK
6
CONTINUOUS
10
96.2678
20
-90.445
11
96.2656
21
-90.445
0
LINE
8
BLACK
6
CONTINUOUS
10
96.2656
20
-90.445
11
96.2635
21
-90.4442
0
LINE
8
BLACK
6
CONTINUOUS
10
96.2635
20
-90.4442
11
96.2613
21
-90.4439
0
LINE
8
BLACK
6
CONTINUOUS
10
96.2613
20
-90.4439
11
96.2594
21
-90.4427
0
LINE
8
BLACK
6
CONTINUOUS
10
96.2594
20
-90.4427
11
96.2573
21
-90.442
0
LINE
8
BLACK
6
CONTINUOUS
10
96.2573
20
-90.442
11
96.2556
21
-90.4406
0
LINE
8
BLACK
6
CONTINUOUS
10
96.2556
20
-90.4406
11
96.2537
21
-90.4394
0
LINE
8
BLACK
6
CONTINUOUS
10
96.2537
20
-90.4394
11
96.2523
21
-90.4377
0
LINE
8
BLACK
6
CONTINUOUS
10
96.2523
20
-90.4377
11
96.2506
21
-90.4363
0
LINE
8
BLACK
6
CONTINUOUS
10
96.2506
20
-90.4363
11
96.2494
21
-90.4344
0
LINE
8
BLACK
6
CONTINUOUS
10
96.2494
20
-90.4344
11
96.248
21
-90.4327
0
LINE
8
BLACK
6
CONTINUOUS
10
96.248
20
-90.4327
11
96.2473
21
-90.4306
0
LINE
8
BLACK
6
CONTINUOUS
10
96.2473
20
-90.4306
11
96.2461
21
-90.4287
0
LINE
8
BLACK
6
CONTINUOUS
10
96.2461
20
-90.4287
11
96.2458
21
-90.4265
0
LINE
8
BLACK
6
CONTINUOUS
10
96.2458
20
-90.4265
11
96.245
21
-90.4244
0
LINE
8
BLACK
6
CONTINUOUS
10
96.245
20
-90.4244
11
96.245
21
-90.4222
0
LINE
8
BLACK
6
CONTINUOUS
10
96.245
20
-90.4222
11
96.245
21
-90.4222
0
LINE
8
BLACK
6
CONTINUOUS
10
96.245
20
-90.4222
11
96.245
21
-77.2178
0
LINE
8
BLACK
6
CONTINUOUS
10
96.245
20
-77.2178
11
96.245
21
-77.2156
0
LINE
8
BLACK
6
CONTINUOUS
10
96.245
20
-77.2156
11
96.2458
21
-77.2135
0
LINE
8
BLACK
6
CONTINUOUS
10
96.2458
20
-77.2135
11
96.2461
21
-77.2113
0
LINE
8
BLACK
6
CONTINUOUS
10
96.2461
20
-77.2113
11
96.2473
21
-77.2094
0
LINE
8
BLACK
6
CONTINUOUS
10
96.2473
20
-77.2094
11
96.248
21
-77.2073
0
LINE
8
BLACK
6
CONTINUOUS
10
96.248
20
-77.2073
11
96.2494
21
-77.2056
0
LINE
8
BLACK
6
CONTINUOUS
10
96.2494
20
-77.2056
11
96.2506
21
-77.2037
0
LINE
8
BLACK
6
CONTINUOUS
10
96.2506
20
-77.2037
11
96.2523
21
-77.2023
0
LINE
8
BLACK
6
CONTINUOUS
10
96.2523
20
-77.2023
11
96.2537
21
-77.2006
0
LINE
8
BLACK
6
CONTINUOUS
10
96.2537
20
-77.2006
11
96.2556
21
-77.1994
0
LINE
8
BLACK
6
CONTINUOUS
10
96.2556
20
-77.1994
11
96.2573
21
-77.198
0
LINE
8
BLACK
6
CONTINUOUS
10
96.2573
20
-77.198
11
96.2594
21
-77.1973
0
LINE
8
BLACK
6
CONTINUOUS
10
96.2594
20
-77.1973
11
96.2613
21
-77.1961
0
LINE
8
BLACK
6
CONTINUOUS
10
96.2613
20
-77.1961
11
96.2635
21
-77.1958
0
LINE
8
BLACK
6
CONTINUOUS
10
96.2635
20
-77.1958
11
96.2656
21
-77.195
0
LINE
8
BLACK
6
CONTINUOUS
10
96.2656
20
-77.195
11
96.2678
21
-77.195
0
LINE
8
BLACK
6
CONTINUOUS
10
96.2678
20
-77.195
11
96.2678
21
-77.195
0
LINE
8
BLACK
6
CONTINUOUS
10
96.2678
20
-77.195
11
109.472
21
-77.195
0
LINE
8
BLACK
6
CONTINUOUS
10
109.472
20
-77.195
11
109.472
21
-77.195
0
LINE
8
BLACK
6
CONTINUOUS
10
96.295
20
-77.245
11
96.295
21
-90.395
0
LINE
8
BLACK
6
CONTINUOUS
10
96.295
20
-90.395
11
109.445
21
-90.395
0
LINE
8
BLACK
6
CONTINUOUS
10
109.445
20
-90.395
11
109.445
21
-77.245
0
LINE
8
BLACK
6
CONTINUOUS
10
109.445
20
-77.245
11
96.295
21
-77.245
0
LINE
8
BLACK
6
CONTINUOUS
10
195.832
20
-77.195
11
195.834
21
-77.195
0
LINE
8
BLACK
6
CONTINUOUS
10
195.834
20
-77.195
11
195.836
21
-77.1958
0
LINE
8
BLACK
6
CONTINUOUS
10
195.836
20
-77.1958
11
195.839
21
-77.1961
0
LINE
8
BLACK
6
CONTINUOUS
10
195.839
20
-77.1961
11
195.841
21
-77.1973
0
LINE
8
BLACK
6
CONTINUOUS
10
195.841
20
-77.1973
11
195.843
21
-77.198
0
LINE
8
BLACK
6
CONTINUOUS
10
195.843
20
-77.198
11
195.844
21
-77.1994
0
LINE
8
BLACK
6
CONTINUOUS
10
195.844
20
-77.1994
11
195.846
21
-77.2006
0
LINE
8
BLACK
6
CONTINUOUS
10
195.846
20
-77.2006
11
195.848
21
-77.2023
0
LINE
8
BLACK
6
CONTINUOUS
10
195.848
20
-77.2023
11
195.849
21
-77.2037
0
LINE
8
BLACK
6
CONTINUOUS
10
195.849
20
-77.2037
11
195.851
21
-77.2056
0
LINE
8
BLACK
6
CONTINUOUS
10
195.851
20
-77.2056
11
195.852
21
-77.2073
0
LINE
8
BLACK
6
CONTINUOUS
10
195.852
20
-77.2073
11
195.853
21
-77.2094
0
LINE
8
BLACK
6
CONTINUOUS
10
195.853
20
-77.2094
11
195.854
21
-77.2113
0
LINE
8
BLACK
6
CONTINUOUS
10
195.854
20
-77.2113
11
195.854
21
-77.2135
0
LINE
8
BLACK
6
CONTINUOUS
10
195.854
20
-77.2135
11
195.855
21
-77.2156
0
LINE
8
BLACK
6
CONTINUOUS
10
195.855
20
-77.2156
11
195.855
21
-77.2178
0
LINE
8
BLACK
6
CONTINUOUS
10
195.855
20
-77.2178
11
195.855
21
-77.2178
0
LINE
8
BLACK
6
CONTINUOUS
10
195.855
20
-77.2178
11
195.855
21
-90.4222
0
LINE
8
BLACK
6
CONTINUOUS
10
195.855
20
-90.4222
11
195.855
21
-90.4222
0
LINE
8
BLACK
6
CONTINUOUS
10
195.855
20
-90.4222
11
195.855
21
-90.4244
0
LINE
8
BLACK
6
CONTINUOUS
10
195.855
20
-90.4244
11
195.854
21
-90.4265
0
LINE
8
BLACK
6
CONTINUOUS
10
195.854
20
-90.4265
11
195.854
21
-90.4287
0
LINE
8
BLACK
6
CONTINUOUS
10
195.854
20
-90.4287
11
195.853
21
-90.4306
0
LINE
8
BLACK
6
CONTINUOUS
10
195.853
20
-90.4306
11
195.852
21
-90.4327
0
LINE
8
BLACK
6
CONTINUOUS
10
195.852
20
-90.4327
11
195.851
21
-90.4344
0
LINE
8
BLACK
6
CONTINUOUS
10
195.851
20
-90.4344
11
195.849
21
-90.4363
0
LINE
8
BLACK
6
CONTINUOUS
10
195.849
20
-90.4363
11
195.848
21
-90.4377
0
LINE
8
BLACK
6
CONTINUOUS
10
195.848
20
-90.4377
11
195.846
21
-90.4394
0
LINE
8
BLACK
6
CONTINUOUS
10
195.846
20
-90.4394
11
195.844
21
-90.4406
0
LINE
8
BLACK
6
CONTINUOUS
10
195.844
20
-90.4406
11
195.843
21
-90.442
0
LINE
8
BLACK
6
CONTINUOUS
10
195.843
20
-90.442
11
195.841
21
-90.4427
0
LINE
8
BLACK
6
CONTINUOUS
10
195.841
20
-90.4427
11
195.839
21
-90.4439
0
LINE
8
BLACK
6
CONTINUOUS
10
195.839
20
-90.4439
11
195.836
21
-90.4442
0
LINE
8
BLACK
6
CONTINUOUS
10
195.836
20
-90.4442
11
195.834
21
-90.445
0
LINE
8
BLACK
6
CONTINUOUS
10
195.834
20
-90.445
11
195.832
21
-90.445
0
LINE
8
BLACK
6
CONTINUOUS
10
195.832
20
-90.445
11
195.832
21
-90.445
0
LINE
8
BLACK
6
CONTINUOUS
10
195.832
20
-90.445
11
182.628
21
-90.445
0
LINE
8
BLACK
6
CONTINUOUS
10
182.628
20
-90.445
11
182.628
21
-90.445
0
LINE
8
BLACK
6
CONTINUOUS
10
182.628
20
-90.445
11
182.626
21
-90.445
0
LINE
8
BLACK
6
CONTINUOUS
10
182.626
20
-90.445
11
182.624
21
-90.4442
0
LINE
8
BLACK
6
CONTINUOUS
10
182.624
20
-90.4442
11
182.621
21
-90.4439
0
LINE
8
BLACK
6
CONTINUOUS
10
182.621
20
-90.4439
11
182.619
21
-90.4427
0
LINE
8
BLACK
6
CONTINUOUS
10
182.619
20
-90.4427
11
182.617
21
-90.442
0
LINE
8
BLACK
6
CONTINUOUS
10
182.617
20
-90.442
11
182.616
21
-90.4406
0
LINE
8
BLACK
6
CONTINUOUS
10
182.616
20
-90.4406
11
182.614
21
-90.4394
0
LINE
8
BLACK
6
CONTINUOUS
10
182.614
20
-90.4394
11
182.612
21
-90.4377
0
LINE
8
BLACK
6
CONTINUOUS
10
182.612
20
-90.4377
11
182.611
21
-90.4363
0
LINE
8
BLACK
6
CONTINUOUS
10
182.611
20
-90.4363
11
182.609
21
-90.4344
0
LINE
8
BLACK
6
CONTINUOUS
10
182.609
20
-90.4344
11
182.608
21
-90.4327
0
LINE
8
BLACK
6
CONTINUOUS
10
182.608
20
-90.4327
11
182.607
21
-90.4306
0
LINE
8
BLACK
6
CONTINUOUS
10
182.607
20
-90.4306
11
182.606
21
-90.4287
0
LINE
8
BLACK
6
CONTINUOUS
10
182.606
20
-90.4287
11
182.606
21
-90.4265
0
LINE
8
BLACK
6
CONTINUOUS
10
182.606
20
-90.4265
11
182.605
21
-90.4244
0
LINE
8
BLACK
6
CONTINUOUS
10
182.605
20
-90.4244
11
182.605
21
-90.4222
0
LINE
8
BLACK
6
CONTINUOUS
10
182.605
20
-90.4222
11
182.605
21
-90.4222
0
LINE
8
BLACK
6
CONTINUOUS
10
182.605
20
-90.4222
11
182.605
21
-77.2178
0
LINE
8
BLACK
6
CONTINUOUS
10
182.605
20
-77.2178
11
182.605
21
-77.2156
0
LINE
8
BLACK
6
CONTINUOUS
10
182.605
20
-77.2156
11
182.606
21
-77.2135
0
LINE
8
BLACK
6
CONTINUOUS
10
182.606
20
-77.2135
11
182.606
21
-77.2113
0
LINE
8
BLACK
6
CONTINUOUS
10
182.606
20
-77.2113
11
182.607
21
-77.2094
0
LINE
8
BLACK
6
CONTINUOUS
10
182.607
20
-77.2094
11
182.608
21
-77.2073
0
LINE
8
BLACK
6
CONTINUOUS
10
182.608
20
-77.2073
11
182.609
21
-77.2056
0
LINE
8
BLACK
6
CONTINUOUS
10
182.609
20
-77.2056
11
182.611
21
-77.2037
0
LINE
8
BLACK
6
CONTINUOUS
10
182.611
20
-77.2037
11
182.612
21
-77.2023
0
LINE
8
BLACK
6
CONTINUOUS
10
182.612
20
-77.2023
11
182.614
21
-77.2006
0
LINE
8
BLACK
6
CONTINUOUS
10
182.614
20
-77.2006
11
182.616
21
-77.1994
0
LINE
8
BLACK
6
CONTINUOUS
10
182.616
20
-77.1994
11
182.617
21
-77.198
0
LINE
8
BLACK
6
CONTINUOUS
10
182.617
20
-77.198
11
182.619
21
-77.1973
0
LINE
8
BLACK
6
CONTINUOUS
10
182.619
20
-77.1973
11
182.621
21
-77.1961
0
LINE
8
BLACK
6
CONTINUOUS
10
182.621
20
-77.1961
11
182.624
21
-77.1958
0
LINE
8
BLACK
6
CONTINUOUS
10
182.624
20
-77.1958
11
182.626
21
-77.195
0
LINE
8
BLACK
6
CONTINUOUS
10
182.626
20
-77.195
11
182.628
21
-77.195
0
LINE
8
BLACK
6
CONTINUOUS
10
182.628
20
-77.195
11
182.628
21
-77.195
0
LINE
8
BLACK
6
CONTINUOUS
10
182.628
20
-77.195
11
195.832
21
-77.195
0
LINE
8
BLACK
6
CONTINUOUS
10
195.832
20
-77.195
11
195.832
21
-77.195
0
LINE
8
BLACK
6
CONTINUOUS
10
182.655
20
-77.245
11
182.655
21
-90.395
0
LINE
8
BLACK
6
CONTINUOUS
10
182.655
20
-90.395
11
195.805
21
-90.395
0
LINE
8
BLACK
6
CONTINUOUS
10
195.805
20
-90.395
11
195.805
21
-77.245
0
LINE
8
BLACK
6
CONTINUOUS
10
195.805
20
-77.245
11
182.655
21
-77.245
0
LINE
8
BLACK
6
CONTINUOUS
10
131.062
20
-77.195
11
131.064
21
-77.195
0
LINE
8
BLACK
6
CONTINUOUS
10
131.064
20
-77.195
11
131.066
21
-77.1958
0
LINE
8
BLACK
6
CONTINUOUS
10
131.066
20
-77.1958
11
131.069
21
-77.1961
0
LINE
8
BLACK
6
CONTINUOUS
10
131.069
20
-77.1961
11
131.071
21
-77.1973
0
LINE
8
BLACK
6
CONTINUOUS
10
131.071
20
-77.1973
11
131.073
21
-77.198
0
LINE
8
BLACK
6
CONTINUOUS
10
131.073
20
-77.198
11
131.074
21
-77.1994
0
LINE
8
BLACK
6
CONTINUOUS
10
131.074
20
-77.1994
11
131.076
21
-77.2006
0
LINE
8
BLACK
6
CONTINUOUS
10
131.076
20
-77.2006
11
131.078
21
-77.2023
0
LINE
8
BLACK
6
CONTINUOUS
10
131.078
20
-77.2023
11
131.079
21
-77.2037
0
LINE
8
BLACK
6
CONTINUOUS
10
131.079
20
-77.2037
11
131.081
21
-77.2056
0
LINE
8
BLACK
6
CONTINUOUS
10
131.081
20
-77.2056
11
131.082
21
-77.2073
0
LINE
8
BLACK
6
CONTINUOUS
10
131.082
20
-77.2073
11
131.083
21
-77.2094
0
LINE
8
BLACK
6
CONTINUOUS
10
131.083
20
-77.2094
11
131.084
21
-77.2113
0
LINE
8
BLACK
6
CONTINUOUS
10
131.084
20
-77.2113
11
131.084
21
-77.2135
0
LINE
8
BLACK
6
CONTINUOUS
10
131.084
20
-77.2135
11
131.085
21
-77.2156
0
LINE
8
BLACK
6
CONTINUOUS
10
131.085
20
-77.2156
11
131.085
21
-77.2178
0
LINE
8
BLACK
6
CONTINUOUS
10
131.085
20
-77.2178
11
131.085
21
-77.2178
0
LINE
8
BLACK
6
CONTINUOUS
10
131.085
20
-77.2178
11
131.085
21
-90.4222
0
LINE
8
BLACK
6
CONTINUOUS
10
131.085
20
-90.4222
11
131.085
21
-90.4222
0
LINE
8
BLACK
6
CONTINUOUS
10
131.085
20
-90.4222
11
131.085
21
-90.4244
0
LINE
8
BLACK
6
CONTINUOUS
10
131.085
20
-90.4244
11
131.084
21
-90.4265
0
LINE
8
BLACK
6
CONTINUOUS
10
131.084
20
-90.4265
11
131.084
21
-90.4287
0
LINE
8
BLACK
6
CONTINUOUS
10
131.084
20
-90.4287
11
131.083
21
-90.4306
0
LINE
8
BLACK
6
CONTINUOUS
10
131.083
20
-90.4306
11
131.082
21
-90.4327
0
LINE
8
BLACK
6
CONTINUOUS
10
131.082
20
-90.4327
11
131.081
21
-90.4344
0
LINE
8
BLACK
6
CONTINUOUS
10
131.081
20
-90.4344
11
131.079
21
-90.4363
0
LINE
8
BLACK
6
CONTINUOUS
10
131.079
20
-90.4363
11
131.078
21
-90.4377
0
LINE
8
BLACK
6
CONTINUOUS
10
131.078
20
-90.4377
11
131.076
21
-90.4394
0
LINE
8
BLACK
6
CONTINUOUS
10
131.076
20
-90.4394
11
131.074
21
-90.4406
0
LINE
8
BLACK
6
CONTINUOUS
10
131.074
20
-90.4406
11
131.073
21
-90.442
0
LINE
8
BLACK
6
CONTINUOUS
10
131.073
20
-90.442
11
131.071
21
-90.4427
0
LINE
8
BLACK
6
CONTINUOUS
10
131.071
20
-90.4427
11
131.069
21
-90.4439
0
LINE
8
BLACK
6
CONTINUOUS
10
131.069
20
-90.4439
11
131.066
21
-90.4442
0
LINE
8
BLACK
6
CONTINUOUS
10
131.066
20
-90.4442
11
131.064
21
-90.445
0
LINE
8
BLACK
6
CONTINUOUS
10
131.064
20
-90.445
11
131.062
21
-90.445
0
LINE
8
BLACK
6
CONTINUOUS
10
131.062
20
-90.445
11
131.062
21
-90.445
0
LINE
8
BLACK
6
CONTINUOUS
10
131.062
20
-90.445
11
117.858
21
-90.445
0
LINE
8
BLACK
6
CONTINUOUS
10
117.858
20
-90.445
11
117.858
21
-90.445
0
LINE
8
BLACK
6
CONTINUOUS
10
117.858
20
-90.445
11
117.856
21
-90.445
0
LINE
8
BLACK
6
CONTINUOUS
10
117.856
20
-90.445
11
117.854
21
-90.4442
0
LINE
8
BLACK
6
CONTINUOUS
10
117.854
20
-90.4442
11
117.851
21
-90.4439
0
LINE
8
BLACK
6
CONTINUOUS
10
117.851
20
-90.4439
11
117.849
21
-90.4427
0
LINE
8
BLACK
6
CONTINUOUS
10
117.849
20
-90.4427
11
117.847
21
-90.442
0
LINE
8
BLACK
6
CONTINUOUS
10
117.847
20
-90.442
11
117.846
21
-90.4406
0
LINE
8
BLACK
6
CONTINUOUS
10
117.846
20
-90.4406
11
117.844
21
-90.4394
0
LINE
8
BLACK
6
CONTINUOUS
10
117.844
20
-90.4394
11
117.842
21
-90.4377
0
LINE
8
BLACK
6
CONTINUOUS
10
117.842
20
-90.4377
11
117.841
21
-90.4363
0
LINE
8
BLACK
6
CONTINUOUS
10
117.841
20
-90.4363
11
117.839
21
-90.4344
0
LINE
8
BLACK
6
CONTINUOUS
10
117.839
20
-90.4344
11
117.838
21
-90.4327
0
LINE
8
BLACK
6
CONTINUOUS
10
117.838
20
-90.4327
11
117.837
21
-90.4306
0
LINE
8
BLACK
6
CONTINUOUS
10
117.837
20
-90.4306
11
117.836
21
-90.4287
0
LINE
8
BLACK
6
CONTINUOUS
10
117.836
20
-90.4287
11
117.836
21
-90.4265
0
LINE
8
BLACK
6
CONTINUOUS
10
117.836
20
-90.4265
11
117.835
21
-90.4244
0
LINE
8
BLACK
6
CONTINUOUS
10
117.835
20
-90.4244
11
117.835
21
-90.4222
0
LINE
8
BLACK
6
CONTINUOUS
10
117.835
20
-90.4222
11
117.835
21
-90.4222
0
LINE
8
BLACK
6
CONTINUOUS
10
117.835
20
-90.4222
11
117.835
21
-77.2178
0
LINE
8
BLACK
6
CONTINUOUS
10
117.835
20
-77.2178
11
117.835
21
-77.2156
0
LINE
8
BLACK
6
CONTINUOUS
10
117.835
20
-77.2156
11
117.836
21
-77.2135
0
LINE
8
BLACK
6
CONTINUOUS
10
117.836
20
-77.2135
11
117.836
21
-77.2113
0
LINE
8
BLACK
6
CONTINUOUS
10
117.836
20
-77.2113
11
117.837
21
-77.2094
0
LINE
8
BLACK
6
CONTINUOUS
10
117.837
20
-77.2094
11
117.838
21
-77.2073
0
LINE
8
BLACK
6
CONTINUOUS
10
117.838
20
-77.2073
11
117.839
21
-77.2056
0
LINE
8
BLACK
6
CONTINUOUS
10
117.839
20
-77.2056
11
117.841
21
-77.2037
0
LINE
8
BLACK
6
CONTINUOUS
10
117.841
20
-77.2037
11
117.842
21
-77.2023
0
LINE
8
BLACK
6
CONTINUOUS
10
117.842
20
-77.2023
11
117.844
21
-77.2006
0
LINE
8
BLACK
6
CONTINUOUS
10
117.844
20
-77.2006
11
117.846
21
-77.1994
0
LINE
8
BLACK
6
CONTINUOUS
10
117.846
20
-77.1994
11
117.847
21
-77.198
0
LINE
8
BLACK
6
CONTINUOUS
10
117.847
20
-77.198
11
117.849
21
-77.1973
0
LINE
8
BLACK
6
CONTINUOUS
10
117.849
20
-77.1973
11
117.851
21
-77.1961
0
LINE
8
BLACK
6
CONTINUOUS
10
117.851
20
-77.1961
11
117.854
21
-77.1958
0
LINE
8
BLACK
6
CONTINUOUS
10
117.854
20
-77.1958
11
117.856
21
-77.195
0
LINE
8
BLACK
6
CONTINUOUS
10
117.856
20
-77.195
11
117.858
21
-77.195
0
LINE
8
BLACK
6
CONTINUOUS
10
117.858
20
-77.195
11
117.858
21
-77.195
0
LINE
8
BLACK
6
CONTINUOUS
10
117.858
20
-77.195
11
131.062
21
-77.195
0
LINE
8
BLACK
6
CONTINUOUS
10
131.062
20
-77.195
11
131.062
21
-77.195
0
LINE
8
BLACK
6
CONTINUOUS
10
117.885
20
-77.245
11
117.885
21
-90.395
0
LINE
8
BLACK
6
CONTINUOUS
10
117.885
20
-90.395
11
131.035
21
-90.395
0
LINE
8
BLACK
6
CONTINUOUS
10
131.035
20
-90.395
11
131.035
21
-77.245
0
LINE
8
BLACK
6
CONTINUOUS
10
131.035
20
-77.245
11
117.885
21
-77.245
0
LINE
8
BLACK
6
CONTINUOUS
10
174.242
20
-77.195
11
174.244
21
-77.195
0
LINE
8
BLACK
6
CONTINUOUS
10
174.244
20
-77.195
11
174.246
21
-77.1958
0
LINE
8
BLACK
6
CONTINUOUS
10
174.246
20
-77.1958
11
174.249
21
-77.1961
0
LINE
8
BLACK
6
CONTINUOUS
10
174.249
20
-77.1961
11
174.251
21
-77.1973
0
LINE
8
BLACK
6
CONTINUOUS
10
174.251
20
-77.1973
11
174.253
21
-77.198
0
LINE
8
BLACK
6
CONTINUOUS
10
174.253
20
-77.198
11
174.254
21
-77.1994
0
LINE
8
BLACK
6
CONTINUOUS
10
174.254
20
-77.1994
11
174.256
21
-77.2006
0
LINE
8
BLACK
6
CONTINUOUS
10
174.256
20
-77.2006
11
174.258
21
-77.2023
0
LINE
8
BLACK
6
CONTINUOUS
10
174.258
20
-77.2023
11
174.259
21
-77.2037
0
LINE
8
BLACK
6
CONTINUOUS
10
174.259
20
-77.2037
11
174.261
21
-77.2056
0
LINE
8
BLACK
6
CONTINUOUS
10
174.261
20
-77.2056
11
174.262
21
-77.2073
0
LINE
8
BLACK
6
CONTINUOUS
10
174.262
20
-77.2073
11
174.263
21
-77.2094
0
LINE
8
BLACK
6
CONTINUOUS
10
174.263
20
-77.2094
11
174.264
21
-77.2113
0
LINE
8
BLACK
6
CONTINUOUS
10
174.264
20
-77.2113
11
174.264
21
-77.2135
0
LINE
8
BLACK
6
CONTINUOUS
10
174.264
20
-77.2135
11
174.265
21
-77.2156
0
LINE
8
BLACK
6
CONTINUOUS
10
174.265
20
-77.2156
11
174.265
21
-77.2178
0
LINE
8
BLACK
6
CONTINUOUS
10
174.265
20
-77.2178
11
174.265
21
-77.2178
0
LINE
8
BLACK
6
CONTINUOUS
10
174.265
20
-77.2178
11
174.265
21
-90.4222
0
LINE
8
BLACK
6
CONTINUOUS
10
174.265
20
-90.4222
11
174.265
21
-90.4222
0
LINE
8
BLACK
6
CONTINUOUS
10
174.265
20
-90.4222
11
174.265
21
-90.4244
0
LINE
8
BLACK
6
CONTINUOUS
10
174.265
20
-90.4244
11
174.264
21
-90.4265
0
LINE
8
BLACK
6
CONTINUOUS
10
174.264
20
-90.4265
11
174.264
21
-90.4287
0
LINE
8
BLACK
6
CONTINUOUS
10
174.264
20
-90.4287
11
174.263
21
-90.4306
0
LINE
8
BLACK
6
CONTINUOUS
10
174.263
20
-90.4306
11
174.262
21
-90.4327
0
LINE
8
BLACK
6
CONTINUOUS
10
174.262
20
-90.4327
11
174.261
21
-90.4344
0
LINE
8
BLACK
6
CONTINUOUS
10
174.261
20
-90.4344
11
174.259
21
-90.4363
0
LINE
8
BLACK
6
CONTINUOUS
10
174.259
20
-90.4363
11
174.258
21
-90.4377
0
LINE
8
BLACK
6
CONTINUOUS
10
174.258
20
-90.4377
11
174.256
21
-90.4394
0
LINE
8
BLACK
6
CONTINUOUS
10
174.256
20
-90.4394
11
174.254
21
-90.4406
0
LINE
8
BLACK
6
CONTINUOUS
10
174.254
20
-90.4406
11
174.253
21
-90.442
0
LINE
8
BLACK
6
CONTINUOUS
10
174.253
20
-90.442
11
174.251
21
-90.4427
0
LINE
8
BLACK
6
CONTINUOUS
10
174.251
20
-90.4427
11
174.249
21
-90.4439
0
LINE
8
BLACK
6
CONTINUOUS
10
174.249
20
-90.4439
11
174.246
21
-90.4442
0
LINE
8
BLACK
6
CONTINUOUS
10
174.246
20
-90.4442
11
174.244
21
-90.445
0
LINE
8
BLACK
6
CONTINUOUS
10
174.244
20
-90.445
11
174.242
21
-90.445
0
LINE
8
BLACK
6
CONTINUOUS
10
174.242
20
-90.445
11
174.242
21
-90.445
0
LINE
8
BLACK
6
CONTINUOUS
10
174.242
20
-90.445
11
161.038
21
-90.445
0
LINE
8
BLACK
6
CONTINUOUS
10
161.038
20
-90.445
11
161.038
21
-90.445
0
LINE
8
BLACK
6
CONTINUOUS
10
161.038
20
-90.445
11
161.036
21
-90.445
0
LINE
8
BLACK
6
CONTINUOUS
10
161.036
20
-90.445
11
161.034
21
-90.4442
0
LINE
8
BLACK
6
CONTINUOUS
10
161.034
20
-90.4442
11
161.031
21
-90.4439
0
LINE
8
BLACK
6
CONTINUOUS
10
161.031
20
-90.4439
11
161.029
21
-90.4427
0
LINE
8
BLACK
6
CONTINUOUS
10
161.029
20
-90.4427
11
161.027
21
-90.442
0
LINE
8
BLACK
6
CONTINUOUS
10
161.027
20
-90.442
11
161.026
21
-90.4406
0
LINE
8
BLACK
6
CONTINUOUS
10
161.026
20
-90.4406
11
161.024
21
-90.4394
0
LINE
8
BLACK
6
CONTINUOUS
10
161.024
20
-90.4394
11
161.022
21
-90.4377
0
LINE
8
BLACK
6
CONTINUOUS
10
161.022
20
-90.4377
11
161.021
21
-90.4363
0
LINE
8
BLACK
6
CONTINUOUS
10
161.021
20
-90.4363
11
161.019
21
-90.4344
0
LINE
8
BLACK
6
CONTINUOUS
10
161.019
20
-90.4344
11
161.018
21
-90.4327
0
LINE
8
BLACK
6
CONTINUOUS
10
161.018
20
-90.4327
11
161.017
21
-90.4306
0
LINE
8
BLACK
6
CONTINUOUS
10
161.017
20
-90.4306
11
161.016
21
-90.4287
0
LINE
8
BLACK
6
CONTINUOUS
10
161.016
20
-90.4287
11
161.016
21
-90.4265
0
LINE
8
BLACK
6
CONTINUOUS
10
161.016
20
-90.4265
11
161.015
21
-90.4244
0
LINE
8
BLACK
6
CONTINUOUS
10
161.015
20
-90.4244
11
161.015
21
-90.4222
0
LINE
8
BLACK
6
CONTINUOUS
10
161.015
20
-90.4222
11
161.015
21
-90.4222
0
LINE
8
BLACK
6
CONTINUOUS
10
161.015
20
-90.4222
11
161.015
21
-77.2178
0
LINE
8
BLACK
6
CONTINUOUS
10
161.015
20
-77.2178
11
161.015
21
-77.2156
0
LINE
8
BLACK
6
CONTINUOUS
10
161.015
20
-77.2156
11
161.016
21
-77.2135
0
LINE
8
BLACK
6
CONTINUOUS
10
161.016
20
-77.2135
11
161.016
21
-77.2113
0
LINE
8
BLACK
6
CONTINUOUS
10
161.016
20
-77.2113
11
161.017
21
-77.2094
0
LINE
8
BLACK
6
CONTINUOUS
10
161.017
20
-77.2094
11
161.018
21
-77.2073
0
LINE
8
BLACK
6
CONTINUOUS
10
161.018
20
-77.2073
11
161.019
21
-77.2056
0
LINE
8
BLACK
6
CONTINUOUS
10
161.019
20
-77.2056
11
161.021
21
-77.2037
0
LINE
8
BLACK
6
CONTINUOUS
10
161.021
20
-77.2037
11
161.022
21
-77.2023
0
LINE
8
BLACK
6
CONTINUOUS
10
161.022
20
-77.2023
11
161.024
21
-77.2006
0
LINE
8
BLACK
6
CONTINUOUS
10
161.024
20
-77.2006
11
161.026
21
-77.1994
0
LINE
8
BLACK
6
CONTINUOUS
10
161.026
20
-77.1994
11
161.027
21
-77.198
0
LINE
8
BLACK
6
CONTINUOUS
10
161.027
20
-77.198
11
161.029
21
-77.1973
0
LINE
8
BLACK
6
CONTINUOUS
10
161.029
20
-77.1973
11
161.031
21
-77.1961
0
LINE
8
BLACK
6
CONTINUOUS
10
161.031
20
-77.1961
11
161.034
21
-77.1958
0
LINE
8
BLACK
6
CONTINUOUS
10
161.034
20
-77.1958
11
161.036
21
-77.195
0
LINE
8
BLACK
6
CONTINUOUS
10
161.036
20
-77.195
11
161.038
21
-77.195
0
LINE
8
BLACK
6
CONTINUOUS
10
161.038
20
-77.195
11
161.038
21
-77.195
0
LINE
8
BLACK
6
CONTINUOUS
10
161.038
20
-77.195
11
174.242
21
-77.195
0
LINE
8
BLACK
6
CONTINUOUS
10
174.242
20
-77.195
11
174.242
21
-77.195
0
LINE
8
BLACK
6
CONTINUOUS
10
161.065
20
-77.245
11
161.065
21
-90.395
0
LINE
8
BLACK
6
CONTINUOUS
10
161.065
20
-90.395
11
174.215
21
-90.395
0
LINE
8
BLACK
6
CONTINUOUS
10
174.215
20
-90.395
11
174.215
21
-77.245
0
LINE
8
BLACK
6
CONTINUOUS
10
174.215
20
-77.245
11
161.065
21
-77.245
0
LINE
8
BLACK
6
CONTINUOUS
10
85.5215
20
-78.8937
11
85.1323
21
-79.5167
0
LINE
8
BLACK
6
CONTINUOUS
10
85.1323
20
-79.5167
11
84.6147
21
-80.0379
0
LINE
8
BLACK
6
CONTINUOUS
10
84.6147
20
-80.0379
11
83.9944
21
-80.4315
0
LINE
8
BLACK
6
CONTINUOUS
10
83.9944
20
-80.4315
11
83.3024
21
-80.6779
0
LINE
8
BLACK
6
CONTINUOUS
10
83.3024
20
-80.6779
11
82.573
21
-80.7649
0
LINE
8
BLACK
6
CONTINUOUS
10
82.573
20
-80.7649
11
81.8424
21
-80.6881
0
LINE
8
BLACK
6
CONTINUOUS
10
81.8424
20
-80.6881
11
81.1471
21
-80.4514
0
LINE
8
BLACK
6
CONTINUOUS
10
81.1471
20
-80.4514
11
80.5214
21
-80.0665
0
LINE
8
BLACK
6
CONTINUOUS
10
80.5214
20
-80.0665
11
79.9966
21
-79.5525
0
LINE
8
BLACK
6
CONTINUOUS
10
79.9966
20
-79.5525
11
79.5986
21
-78.9351
0
LINE
8
BLACK
6
CONTINUOUS
10
79.5986
20
-78.9351
11
79.3474
21
-78.2448
0
LINE
8
BLACK
6
CONTINUOUS
10
79.3474
20
-78.2448
11
79.2553
21
-77.516
0
LINE
8
BLACK
6
CONTINUOUS
10
79.2553
20
-77.516
11
79.327
21
-76.7849
0
LINE
8
BLACK
6
CONTINUOUS
10
79.327
20
-76.7849
11
79.5589
21
-76.0879
0
LINE
8
BLACK
6
CONTINUOUS
10
79.5589
20
-76.0879
11
79.9394
21
-75.4596
0
LINE
8
BLACK
6
CONTINUOUS
10
79.9394
20
-75.4596
11
80.4497
21
-74.9312
0
LINE
8
BLACK
6
CONTINUOUS
10
80.4497
20
-74.9312
11
81.0644
21
-74.5289
0
LINE
8
BLACK
6
CONTINUOUS
10
81.0644
20
-74.5289
11
81.7529
21
-74.2729
0
LINE
8
BLACK
6
CONTINUOUS
10
81.7529
20
-74.2729
11
82.481
21
-74.1757
0
LINE
8
BLACK
6
CONTINUOUS
10
82.481
20
-74.1757
11
83.2126
21
-74.2423
0
LINE
8
BLACK
6
CONTINUOUS
10
83.2126
20
-74.2423
11
83.9112
21
-74.4693
0
LINE
8
BLACK
6
CONTINUOUS
10
83.9112
20
-74.4693
11
84.5422
21
-74.8454
0
LINE
8
BLACK
6
CONTINUOUS
10
84.5422
20
-74.8454
11
85.0741
21
-75.352
0
LINE
8
BLACK
6
CONTINUOUS
10
85.0741
20
-75.352
11
85.4806
21
-75.9639
0
LINE
8
BLACK
6
CONTINUOUS
10
85.4806
20
-75.9639
11
85.7415
21
-76.6506
0
LINE
8
BLACK
6
CONTINUOUS
10
85.7415
20
-76.6506
11
85.8437
21
-77.378
0
LINE
8
BLACK
6
CONTINUOUS
10
85.8437
20
-77.378
11
85.845
21
-77.47
0
LINE
8
BLACK
6
CONTINUOUS
10
85.845
20
-77.47
11
85.7631
21
-78.2
0
LINE
8
BLACK
6
CONTINUOUS
10
85.7631
20
-78.2
11
85.5215
21
-78.8937
0
LINE
8
BLACK
6
CONTINUOUS
10
85.4584
20
-76.0765
11
85.0774
21
-75.4668
0
LINE
8
BLACK
6
CONTINUOUS
10
85.0774
20
-75.4668
11
84.5708
21
-74.9566
0
LINE
8
BLACK
6
CONTINUOUS
10
84.5708
20
-74.9566
11
83.9637
21
-74.5714
0
LINE
8
BLACK
6
CONTINUOUS
10
83.9637
20
-74.5714
11
83.2864
21
-74.3302
0
LINE
8
BLACK
6
CONTINUOUS
10
83.2864
20
-74.3302
11
82.5725
21
-74.2451
0
LINE
8
BLACK
6
CONTINUOUS
10
82.5725
20
-74.2451
11
81.8575
21
-74.3202
0
LINE
8
BLACK
6
CONTINUOUS
10
81.8575
20
-74.3202
11
81.1769
21
-74.5519
0
LINE
8
BLACK
6
CONTINUOUS
10
81.1769
20
-74.5519
11
80.5645
21
-74.9287
0
LINE
8
BLACK
6
CONTINUOUS
10
80.5645
20
-74.9287
11
80.0508
21
-75.4317
0
LINE
8
BLACK
6
CONTINUOUS
10
80.0508
20
-75.4317
11
79.6613
21
-76.0361
0
LINE
8
BLACK
6
CONTINUOUS
10
79.6613
20
-76.0361
11
79.4154
21
-76.7117
0
LINE
8
BLACK
6
CONTINUOUS
10
79.4154
20
-76.7117
11
79.3253
21
-77.425
0
LINE
8
BLACK
6
CONTINUOUS
10
79.3253
20
-77.425
11
79.3955
21
-78.1405
0
LINE
8
BLACK
6
CONTINUOUS
10
79.3955
20
-78.1405
11
79.6224
21
-78.8227
0
LINE
8
BLACK
6
CONTINUOUS
10
79.6224
20
-78.8227
11
79.9949
21
-79.4377
0
LINE
8
BLACK
6
CONTINUOUS
10
79.9949
20
-79.4377
11
80.4943
21
-79.9549
0
LINE
8
BLACK
6
CONTINUOUS
10
80.4943
20
-79.9549
11
81.0959
21
-80.3486
0
LINE
8
BLACK
6
CONTINUOUS
10
81.0959
20
-80.3486
11
81.7698
21
-80.5992
0
LINE
8
BLACK
6
CONTINUOUS
10
81.7698
20
-80.5992
11
82.4825
21
-80.6943
0
LINE
8
BLACK
6
CONTINUOUS
10
82.4825
20
-80.6943
11
83.1985
21
-80.6291
0
LINE
8
BLACK
6
CONTINUOUS
10
83.1985
20
-80.6291
11
83.8823
21
-80.407
0
LINE
8
BLACK
6
CONTINUOUS
10
83.8823
20
-80.407
11
84.4998
21
-80.0388
0
LINE
8
BLACK
6
CONTINUOUS
10
84.4998
20
-80.0388
11
85.0205
21
-79.543
0
LINE
8
BLACK
6
CONTINUOUS
10
85.0205
20
-79.543
11
85.4184
21
-78.9441
0
LINE
8
BLACK
6
CONTINUOUS
10
85.4184
20
-78.9441
11
85.6737
21
-78.272
0
LINE
8
BLACK
6
CONTINUOUS
10
85.6737
20
-78.272
11
85.7737
21
-77.56
0
LINE
8
BLACK
6
CONTINUOUS
10
85.7737
20
-77.56
11
85.775
21
-77.47
0
LINE
8
BLACK
6
CONTINUOUS
10
85.775
20
-77.47
11
85.6949
21
-76.7555
0
LINE
8
BLACK
6
CONTINUOUS
10
85.6949
20
-76.7555
11
85.4584
21
-76.0765
0
LINE
8
BLACK
6
CONTINUOUS
10
117.272
20
-73.8137
11
116.882
21
-74.4367
0
LINE
8
BLACK
6
CONTINUOUS
10
116.882
20
-74.4367
11
116.365
21
-74.9579
0
LINE
8
BLACK
6
CONTINUOUS
10
116.365
20
-74.9579
11
115.744
21
-75.3515
0
LINE
8
BLACK
6
CONTINUOUS
10
115.744
20
-75.3515
11
115.052
21
-75.5979
0
LINE
8
BLACK
6
CONTINUOUS
10
115.052
20
-75.5979
11
114.323
21
-75.6849
0
LINE
8
BLACK
6
CONTINUOUS
10
114.323
20
-75.6849
11
113.592
21
-75.6081
0
LINE
8
BLACK
6
CONTINUOUS
10
113.592
20
-75.6081
11
112.897
21
-75.3714
0
LINE
8
BLACK
6
CONTINUOUS
10
112.897
20
-75.3714
11
112.271
21
-74.9865
0
LINE
8
BLACK
6
CONTINUOUS
10
112.271
20
-74.9865
11
111.747
21
-74.4725
0
LINE
8
BLACK
6
CONTINUOUS
10
111.747
20
-74.4725
11
111.349
21
-73.8551
0
LINE
8
BLACK
6
CONTINUOUS
10
111.349
20
-73.8551
11
111.097
21
-73.1648
0
LINE
8
BLACK
6
CONTINUOUS
10
111.097
20
-73.1648
11
111.005
21
-72.436
0
LINE
8
BLACK
6
CONTINUOUS
10
111.005
20
-72.436
11
111.077
21
-71.7049
0
LINE
8
BLACK
6
CONTINUOUS
10
111.077
20
-71.7049
11
111.309
21
-71.0079
0
LINE
8
BLACK
6
CONTINUOUS
10
111.309
20
-71.0079
11
111.689
21
-70.3796
0
LINE
8
BLACK
6
CONTINUOUS
10
111.689
20
-70.3796
11
112.2
21
-69.8512
0
LINE
8
BLACK
6
CONTINUOUS
10
112.2
20
-69.8512
11
112.814
21
-69.4489
0
LINE
8
BLACK
6
CONTINUOUS
10
112.814
20
-69.4489
11
113.503
21
-69.1929
0
LINE
8
BLACK
6
CONTINUOUS
10
113.503
20
-69.1929
11
114.231
21
-69.0957
0
LINE
8
BLACK
6
CONTINUOUS
10
114.231
20
-69.0957
11
114.963
21
-69.1623
0
LINE
8
BLACK
6
CONTINUOUS
10
114.963
20
-69.1623
11
115.661
21
-69.3893
0
LINE
8
BLACK
6
CONTINUOUS
10
115.661
20
-69.3893
11
116.292
21
-69.7654
0
LINE
8
BLACK
6
CONTINUOUS
10
116.292
20
-69.7654
11
116.824
21
-70.272
0
LINE
8
BLACK
6
CONTINUOUS
10
116.824
20
-70.272
11
117.231
21
-70.8839
0
LINE
8
BLACK
6
CONTINUOUS
10
117.231
20
-70.8839
11
117.491
21
-71.5706
0
LINE
8
BLACK
6
CONTINUOUS
10
117.491
20
-71.5706
11
117.594
21
-72.298
0
LINE
8
BLACK
6
CONTINUOUS
10
117.594
20
-72.298
11
117.595
21
-72.39
0
LINE
8
BLACK
6
CONTINUOUS
10
117.595
20
-72.39
11
117.513
21
-73.12
0
LINE
8
BLACK
6
CONTINUOUS
10
117.513
20
-73.12
11
117.272
21
-73.8137
0
LINE
8
BLACK
6
CONTINUOUS
10
117.208
20
-70.9965
11
116.827
21
-70.3868
0
LINE
8
BLACK
6
CONTINUOUS
10
116.827
20
-70.3868
11
116.321
21
-69.8766
0
LINE
8
BLACK
6
CONTINUOUS
10
116.321
20
-69.8766
11
115.714
21
-69.4914
0
LINE
8
BLACK
6
CONTINUOUS
10
115.714
20
-69.4914
11
115.036
21
-69.2502
0
LINE
8
BLACK
6
CONTINUOUS
10
115.036
20
-69.2502
11
114.323
21
-69.1651
0
LINE
8
BLACK
6
CONTINUOUS
10
114.323
20
-69.1651
11
113.607
21
-69.2402
0
LINE
8
BLACK
6
CONTINUOUS
10
113.607
20
-69.2402
11
112.927
21
-69.4719
0
LINE
8
BLACK
6
CONTINUOUS
10
112.927
20
-69.4719
11
112.314
21
-69.8487
0
LINE
8
BLACK
6
CONTINUOUS
10
112.314
20
-69.8487
11
111.801
21
-70.3517
0
LINE
8
BLACK
6
CONTINUOUS
10
111.801
20
-70.3517
11
111.411
21
-70.9561
0
LINE
8
BLACK
6
CONTINUOUS
10
111.411
20
-70.9561
11
111.165
21
-71.6317
0
LINE
8
BLACK
6
CONTINUOUS
10
111.165
20
-71.6317
11
111.075
21
-72.345
0
LINE
8
BLACK
6
CONTINUOUS
10
111.075
20
-72.345
11
111.145
21
-73.0605
0
LINE
8
BLACK
6
CONTINUOUS
10
111.145
20
-73.0605
11
111.372
21
-73.7427
0
LINE
8
BLACK
6
CONTINUOUS
10
111.372
20
-73.7427
11
111.745
21
-74.3577
0
LINE
8
BLACK
6
CONTINUOUS
10
111.745
20
-74.3577
11
112.244
21
-74.8749
0
LINE
8
BLACK
6
CONTINUOUS
10
112.244
20
-74.8749
11
112.846
21
-75.2686
0
LINE
8
BLACK
6
CONTINUOUS
10
112.846
20
-75.2686
11
113.52
21
-75.5192
0
LINE
8
BLACK
6
CONTINUOUS
10
113.52
20
-75.5192
11
114.232
21
-75.6143
0
LINE
8
BLACK
6
CONTINUOUS
10
114.232
20
-75.6143
11
114.948
21
-75.5491
0
LINE
8
BLACK
6
CONTINUOUS
10
114.948
20
-75.5491
11
115.632
21
-75.327
0
LINE
8
BLACK
6
CONTINUOUS
10
115.632
20
-75.327
11
116.25
21
-74.9588
0
LINE
8
BLACK
6
CONTINUOUS
10
116.25
20
-74.9588
11
116.77
21
-74.463
0
LINE
8
BLACK
6
CONTINUOUS
10
116.77
20
-74.463
11
117.168
21
-73.8641
0
LINE
8
BLACK
6
CONTINUOUS
10
117.168
20
-73.8641
11
117.424
21
-73.192
0
LINE
8
BLACK
6
CONTINUOUS
10
117.424
20
-73.192
11
117.524
21
-72.48
0
LINE
8
BLACK
6
CONTINUOUS
10
117.524
20
-72.48
11
117.525
21
-72.39
0
LINE
8
BLACK
6
CONTINUOUS
10
117.525
20
-72.39
11
117.445
21
-71.6755
0
LINE
8
BLACK
6
CONTINUOUS
10
117.445
20
-71.6755
11
117.208
21
-70.9965
0
LINE
8
BLACK
6
CONTINUOUS
10
159.182
20
-73.8137
11
158.792
21
-74.4367
0
LINE
8
BLACK
6
CONTINUOUS
10
158.792
20
-74.4367
11
158.275
21
-74.9579
0
LINE
8
BLACK
6
CONTINUOUS
10
158.275
20
-74.9579
11
157.654
21
-75.3515
0
LINE
8
BLACK
6
CONTINUOUS
10
157.654
20
-75.3515
11
156.962
21
-75.5979
0
LINE
8
BLACK
6
CONTINUOUS
10
156.962
20
-75.5979
11
156.233
21
-75.6849
0
LINE
8
BLACK
6
CONTINUOUS
10
156.233
20
-75.6849
11
155.502
21
-75.6081
0
LINE
8
BLACK
6
CONTINUOUS
10
155.502
20
-75.6081
11
154.807
21
-75.3714
0
LINE
8
BLACK
6
CONTINUOUS
10
154.807
20
-75.3714
11
154.181
21
-74.9865
0
LINE
8
BLACK
6
CONTINUOUS
10
154.181
20
-74.9865
11
153.657
21
-74.4725
0
LINE
8
BLACK
6
CONTINUOUS
10
153.657
20
-74.4725
11
153.259
21
-73.8551
0
LINE
8
BLACK
6
CONTINUOUS
10
153.259
20
-73.8551
11
153.007
21
-73.1648
0
LINE
8
BLACK
6
CONTINUOUS
10
153.007
20
-73.1648
11
152.915
21
-72.436
0
LINE
8
BLACK
6
CONTINUOUS
10
152.915
20
-72.436
11
152.987
21
-71.7049
0
LINE
8
BLACK
6
CONTINUOUS
10
152.987
20
-71.7049
11
153.219
21
-71.0079
0
LINE
8
BLACK
6
CONTINUOUS
10
153.219
20
-71.0079
11
153.599
21
-70.3796
0
LINE
8
BLACK
6
CONTINUOUS
10
153.599
20
-70.3796
11
154.11
21
-69.8512
0
LINE
8
BLACK
6
CONTINUOUS
10
154.11
20
-69.8512
11
154.724
21
-69.4489
0
LINE
8
BLACK
6
CONTINUOUS
10
154.724
20
-69.4489
11
155.413
21
-69.1929
0
LINE
8
BLACK
6
CONTINUOUS
10
155.413
20
-69.1929
11
156.141
21
-69.0957
0
LINE
8
BLACK
6
CONTINUOUS
10
156.141
20
-69.0957
11
156.873
21
-69.1623
0
LINE
8
BLACK
6
CONTINUOUS
10
156.873
20
-69.1623
11
157.571
21
-69.3893
0
LINE
8
BLACK
6
CONTINUOUS
10
157.571
20
-69.3893
11
158.202
21
-69.7654
0
LINE
8
BLACK
6
CONTINUOUS
10
158.202
20
-69.7654
11
158.734
21
-70.272
0
LINE
8
BLACK
6
CONTINUOUS
10
158.734
20
-70.272
11
159.141
21
-70.8839
0
LINE
8
BLACK
6
CONTINUOUS
10
159.141
20
-70.8839
11
159.401
21
-71.5706
0
LINE
8
BLACK
6
CONTINUOUS
10
159.401
20
-71.5706
11
159.504
21
-72.298
0
LINE
8
BLACK
6
CONTINUOUS
10
159.504
20
-72.298
11
159.505
21
-72.39
0
LINE
8
BLACK
6
CONTINUOUS
10
159.505
20
-72.39
11
159.423
21
-73.12
0
LINE
8
BLACK
6
CONTINUOUS
10
159.423
20
-73.12
11
159.182
21
-73.8137
0
LINE
8
BLACK
6
CONTINUOUS
10
159.118
20
-70.9965
11
158.737
21
-70.3868
0
LINE
8
BLACK
6
CONTINUOUS
10
158.737
20
-70.3868
11
158.231
21
-69.8766
0
LINE
8
BLACK
6
CONTINUOUS
10
158.231
20
-69.8766
11
157.624
21
-69.4914
0
LINE
8
BLACK
6
CONTINUOUS
10
157.624
20
-69.4914
11
156.946
21
-69.2502
0
LINE
8
BLACK
6
CONTINUOUS
10
156.946
20
-69.2502
11
156.233
21
-69.1651
0
LINE
8
BLACK
6
CONTINUOUS
10
156.233
20
-69.1651
11
155.517
21
-69.2402
0
LINE
8
BLACK
6
CONTINUOUS
10
155.517
20
-69.2402
11
154.837
21
-69.4719
0
LINE
8
BLACK
6
CONTINUOUS
10
154.837
20
-69.4719
11
154.224
21
-69.8487
0
LINE
8
BLACK
6
CONTINUOUS
10
154.224
20
-69.8487
11
153.711
21
-70.3517
0
LINE
8
BLACK
6
CONTINUOUS
10
153.711
20
-70.3517
11
153.321
21
-70.9561
0
LINE
8
BLACK
6
CONTINUOUS
10
153.321
20
-70.9561
11
153.075
21
-71.6317
0
LINE
8
BLACK
6
CONTINUOUS
10
153.075
20
-71.6317
11
152.985
21
-72.345
0
LINE
8
BLACK
6
CONTINUOUS
10
152.985
20
-72.345
11
153.055
21
-73.0605
0
LINE
8
BLACK
6
CONTINUOUS
10
153.055
20
-73.0605
11
153.282
21
-73.7427
0
LINE
8
BLACK
6
CONTINUOUS
10
153.282
20
-73.7427
11
153.655
21
-74.3577
0
LINE
8
BLACK
6
CONTINUOUS
10
153.655
20
-74.3577
11
154.154
21
-74.8749
0
LINE
8
BLACK
6
CONTINUOUS
10
154.154
20
-74.8749
11
154.756
21
-75.2686
0
LINE
8
BLACK
6
CONTINUOUS
10
154.756
20
-75.2686
11
155.43
21
-75.5192
0
LINE
8
BLACK
6
CONTINUOUS
10
155.43
20
-75.5192
11
156.142
21
-75.6143
0
LINE
8
BLACK
6
CONTINUOUS
10
156.142
20
-75.6143
11
156.858
21
-75.5491
0
LINE
8
BLACK
6
CONTINUOUS
10
156.858
20
-75.5491
11
157.542
21
-75.327
0
LINE
8
BLACK
6
CONTINUOUS
10
157.542
20
-75.327
11
158.16
21
-74.9588
0
LINE
8
BLACK
6
CONTINUOUS
10
158.16
20
-74.9588
11
158.68
21
-74.463
0
LINE
8
BLACK
6
CONTINUOUS
10
158.68
20
-74.463
11
159.078
21
-73.8641
0
LINE
8
BLACK
6
CONTINUOUS
10
159.078
20
-73.8641
11
159.334
21
-73.192
0
LINE
8
BLACK
6
CONTINUOUS
10
159.334
20
-73.192
11
159.434
21
-72.48
0
LINE
8
BLACK
6
CONTINUOUS
10
159.434
20
-72.48
11
159.435
21
-72.39
0
LINE
8
BLACK
6
CONTINUOUS
10
159.435
20
-72.39
11
159.355
21
-71.6755
0
LINE
8
BLACK
6
CONTINUOUS
10
159.355
20
-71.6755
11
159.118
21
-70.9965
0
LINE
8
BLACK
6
CONTINUOUS
10
201.092
20
-72.5437
11
200.702
21
-73.1667
0
LINE
8
BLACK
6
CONTINUOUS
10
200.702
20
-73.1667
11
200.185
21
-73.6879
0
LINE
8
BLACK
6
CONTINUOUS
10
200.185
20
-73.6879
11
199.564
21
-74.0815
0
LINE
8
BLACK
6
CONTINUOUS
10
199.564
20
-74.0815
11
198.872
21
-74.3279
0
LINE
8
BLACK
6
CONTINUOUS
10
198.872
20
-74.3279
11
198.143
21
-74.4149
0
LINE
8
BLACK
6
CONTINUOUS
10
198.143
20
-74.4149
11
197.412
21
-74.3381
0
LINE
8
BLACK
6
CONTINUOUS
10
197.412
20
-74.3381
11
196.717
21
-74.1014
0
LINE
8
BLACK
6
CONTINUOUS
10
196.717
20
-74.1014
11
196.091
21
-73.7165
0
LINE
8
BLACK
6
CONTINUOUS
10
196.091
20
-73.7165
11
195.567
21
-73.2025
0
LINE
8
BLACK
6
CONTINUOUS
10
195.567
20
-73.2025
11
195.169
21
-72.5851
0
LINE
8
BLACK
6
CONTINUOUS
10
195.169
20
-72.5851
11
194.917
21
-71.8948
0
LINE
8
BLACK
6
CONTINUOUS
10
194.917
20
-71.8948
11
194.825
21
-71.166
0
LINE
8
BLACK
6
CONTINUOUS
10
194.825
20
-71.166
11
194.897
21
-70.4349
0
LINE
8
BLACK
6
CONTINUOUS
10
194.897
20
-70.4349
11
195.129
21
-69.7379
0
LINE
8
BLACK
6
CONTINUOUS
10
195.129
20
-69.7379
11
195.509
21
-69.1096
0
LINE
8
BLACK
6
CONTINUOUS
10
195.509
20
-69.1096
11
196.02
21
-68.5812
0
LINE
8
BLACK
6
CONTINUOUS
10
196.02
20
-68.5812
11
196.634
21
-68.1789
0
LINE
8
BLACK
6
CONTINUOUS
10
196.634
20
-68.1789
11
197.323
21
-67.9229
0
LINE
8
BLACK
6
CONTINUOUS
10
197.323
20
-67.9229
11
198.051
21
-67.8257
0
LINE
8
BLACK
6
CONTINUOUS
10
198.051
20
-67.8257
11
198.783
21
-67.8923
0
LINE
8
BLACK
6
CONTINUOUS
10
198.783
20
-67.8923
11
199.481
21
-68.1193
0
LINE
8
BLACK
6
CONTINUOUS
10
199.481
20
-68.1193
11
200.112
21
-68.4954
0
LINE
8
BLACK
6
CONTINUOUS
10
200.112
20
-68.4954
11
200.644
21
-69.002
0
LINE
8
BLACK
6
CONTINUOUS
10
200.644
20
-69.002
11
201.051
21
-69.6139
0
LINE
8
BLACK
6
CONTINUOUS
10
201.051
20
-69.6139
11
201.311
21
-70.3006
0
LINE
8
BLACK
6
CONTINUOUS
10
201.311
20
-70.3006
11
201.414
21
-71.028
0
LINE
8
BLACK
6
CONTINUOUS
10
201.414
20
-71.028
11
201.415
21
-71.12
0
LINE
8
BLACK
6
CONTINUOUS
10
201.415
20
-71.12
11
201.333
21
-71.85
0
LINE
8
BLACK
6
CONTINUOUS
10
201.333
20
-71.85
11
201.092
21
-72.5437
0
LINE
8
BLACK
6
CONTINUOUS
10
201.028
20
-69.7265
11
200.647
21
-69.1168
0
LINE
8
BLACK
6
CONTINUOUS
10
200.647
20
-69.1168
11
200.141
21
-68.6066
0
LINE
8
BLACK
6
CONTINUOUS
10
200.141
20
-68.6066
11
199.534
21
-68.2214
0
LINE
8
BLACK
6
CONTINUOUS
10
199.534
20
-68.2214
11
198.856
21
-67.9802
0
LINE
8
BLACK
6
CONTINUOUS
10
198.856
20
-67.9802
11
198.143
21
-67.8951
0
LINE
8
BLACK
6
CONTINUOUS
10
198.143
20
-67.8951
11
197.427
21
-67.9702
0
LINE
8
BLACK
6
CONTINUOUS
10
197.427
20
-67.9702
11
196.747
21
-68.2019
0
LINE
8
BLACK
6
CONTINUOUS
10
196.747
20
-68.2019
11
196.134
21
-68.5787
0
LINE
8
BLACK
6
CONTINUOUS
10
196.134
20
-68.5787
11
195.621
21
-69.0817
0
LINE
8
BLACK
6
CONTINUOUS
10
195.621
20
-69.0817
11
195.231
21
-69.6861
0
LINE
8
BLACK
6
CONTINUOUS
10
195.231
20
-69.6861
11
194.985
21
-70.3617
0
LINE
8
BLACK
6
CONTINUOUS
10
194.985
20
-70.3617
11
194.895
21
-71.075
0
LINE
8
BLACK
6
CONTINUOUS
10
194.895
20
-71.075
11
194.965
21
-71.7905
0
LINE
8
BLACK
6
CONTINUOUS
10
194.965
20
-71.7905
11
195.192
21
-72.4727
0
LINE
8
BLACK
6
CONTINUOUS
10
195.192
20
-72.4727
11
195.565
21
-73.0877
0
LINE
8
BLACK
6
CONTINUOUS
10
195.565
20
-73.0877
11
196.064
21
-73.6049
0
LINE
8
BLACK
6
CONTINUOUS
10
196.064
20
-73.6049
11
196.666
21
-73.9986
0
LINE
8
BLACK
6
CONTINUOUS
10
196.666
20
-73.9986
11
197.34
21
-74.2492
0
LINE
8
BLACK
6
CONTINUOUS
10
197.34
20
-74.2492
11
198.052
21
-74.3443
0
LINE
8
BLACK
6
CONTINUOUS
10
198.052
20
-74.3443
11
198.768
21
-74.2791
0
LINE
8
BLACK
6
CONTINUOUS
10
198.768
20
-74.2791
11
199.452
21
-74.057
0
LINE
8
BLACK
6
CONTINUOUS
10
199.452
20
-74.057
11
200.07
21
-73.6888
0
LINE
8
BLACK
6
CONTINUOUS
10
200.07
20
-73.6888
11
200.59
21
-73.193
0
LINE
8
BLACK
6
CONTINUOUS
10
200.59
20
-73.193
11
200.988
21
-72.5941
0
LINE
8
BLACK
6
CONTINUOUS
10
200.988
20
-72.5941
11
201.244
21
-71.922
0
LINE
8
BLACK
6
CONTINUOUS
10
201.244
20
-71.922
11
201.344
21
-71.21
0
LINE
8
BLACK
6
CONTINUOUS
10
201.344
20
-71.21
11
201.345
21
-71.12
0
LINE
8
BLACK
6
CONTINUOUS
10
201.345
20
-71.12
11
201.265
21
-70.4055
0
LINE
8
BLACK
6
CONTINUOUS
10
201.265
20
-70.4055
11
201.028
21
-69.7265
0
LINE
8
BLACK
6
CONTINUOUS
10
195.832
20
-54.335
11
195.834
21
-54.335
0
LINE
8
BLACK
6
CONTINUOUS
10
195.834
20
-54.335
11
195.836
21
-54.3358
0
LINE
8
BLACK
6
CONTINUOUS
10
195.836
20
-54.3358
11
195.839
21
-54.3361
0
LINE
8
BLACK
6
CONTINUOUS
10
195.839
20
-54.3361
11
195.841
21
-54.3373
0
LINE
8
BLACK
6
CONTINUOUS
10
195.841
20
-54.3373
11
195.843
21
-54.338
0
LINE
8
BLACK
6
CONTINUOUS
10
195.843
20
-54.338
11
195.844
21
-54.3394
0
LINE
8
BLACK
6
CONTINUOUS
10
195.844
20
-54.3394
11
195.846
21
-54.3406
0
LINE
8
BLACK
6
CONTINUOUS
10
195.846
20
-54.3406
11
195.848
21
-54.3423
0
LINE
8
BLACK
6
CONTINUOUS
10
195.848
20
-54.3423
11
195.849
21
-54.3437
0
LINE
8
BLACK
6
CONTINUOUS
10
195.849
20
-54.3437
11
195.851
21
-54.3456
0
LINE
8
BLACK
6
CONTINUOUS
10
195.851
20
-54.3456
11
195.852
21
-54.3473
0
LINE
8
BLACK
6
CONTINUOUS
10
195.852
20
-54.3473
11
195.853
21
-54.3494
0
LINE
8
BLACK
6
CONTINUOUS
10
195.853
20
-54.3494
11
195.854
21
-54.3513
0
LINE
8
BLACK
6
CONTINUOUS
10
195.854
20
-54.3513
11
195.854
21
-54.3535
0
LINE
8
BLACK
6
CONTINUOUS
10
195.854
20
-54.3535
11
195.855
21
-54.3556
0
LINE
8
BLACK
6
CONTINUOUS
10
195.855
20
-54.3556
11
195.855
21
-54.3578
0
LINE
8
BLACK
6
CONTINUOUS
10
195.855
20
-54.3578
11
195.855
21
-54.3578
0
LINE
8
BLACK
6
CONTINUOUS
10
195.855
20
-54.3578
11
195.855
21
-67.5622
0
LINE
8
BLACK
6
CONTINUOUS
10
195.855
20
-67.5622
11
195.855
21
-67.5622
0
LINE
8
BLACK
6
CONTINUOUS
10
195.855
20
-67.5622
11
195.855
21
-67.5644
0
LINE
8
BLACK
6
CONTINUOUS
10
195.855
20
-67.5644
11
195.854
21
-67.5665
0
LINE
8
BLACK
6
CONTINUOUS
10
195.854
20
-67.5665
11
195.854
21
-67.5687
0
LINE
8
BLACK
6
CONTINUOUS
10
195.854
20
-67.5687
11
195.853
21
-67.5706
0
LINE
8
BLACK
6
CONTINUOUS
10
195.853
20
-67.5706
11
195.852
21
-67.5727
0
LINE
8
BLACK
6
CONTINUOUS
10
195.852
20
-67.5727
11
195.851
21
-67.5744
0
LINE
8
BLACK
6
CONTINUOUS
10
195.851
20
-67.5744
11
195.849
21
-67.5763
0
LINE
8
BLACK
6
CONTINUOUS
10
195.849
20
-67.5763
11
195.848
21
-67.5777
0
LINE
8
BLACK
6
CONTINUOUS
10
195.848
20
-67.5777
11
195.846
21
-67.5794
0
LINE
8
BLACK
6
CONTINUOUS
10
195.846
20
-67.5794
11
195.844
21
-67.5806
0
LINE
8
BLACK
6
CONTINUOUS
10
195.844
20
-67.5806
11
195.843
21
-67.582
0
LINE
8
BLACK
6
CONTINUOUS
10
195.843
20
-67.582
11
195.841
21
-67.5827
0
LINE
8
BLACK
6
CONTINUOUS
10
195.841
20
-67.5827
11
195.839
21
-67.5839
0
LINE
8
BLACK
6
CONTINUOUS
10
195.839
20
-67.5839
11
195.836
21
-67.5842
0
LINE
8
BLACK
6
CONTINUOUS
10
195.836
20
-67.5842
11
195.834
21
-67.585
0
LINE
8
BLACK
6
CONTINUOUS
10
195.834
20
-67.585
11
195.832
21
-67.585
0
LINE
8
BLACK
6
CONTINUOUS
10
195.832
20
-67.585
11
195.832
21
-67.585
0
LINE
8
BLACK
6
CONTINUOUS
10
195.832
20
-67.585
11
182.628
21
-67.585
0
LINE
8
BLACK
6
CONTINUOUS
10
182.628
20
-67.585
11
182.628
21
-67.585
0
LINE
8
BLACK
6
CONTINUOUS
10
182.628
20
-67.585
11
182.626
21
-67.585
0
LINE
8
BLACK
6
CONTINUOUS
10
182.626
20
-67.585
11
182.624
21
-67.5842
0
LINE
8
BLACK
6
CONTINUOUS
10
182.624
20
-67.5842
11
182.621
21
-67.5839
0
LINE
8
BLACK
6
CONTINUOUS
10
182.621
20
-67.5839
11
182.619
21
-67.5827
0
LINE
8
BLACK
6
CONTINUOUS
10
182.619
20
-67.5827
11
182.617
21
-67.582
0
LINE
8
BLACK
6
CONTINUOUS
10
182.617
20
-67.582
11
182.616
21
-67.5806
0
LINE
8
BLACK
6
CONTINUOUS
10
182.616
20
-67.5806
11
182.614
21
-67.5794
0
LINE
8
BLACK
6
CONTINUOUS
10
182.614
20
-67.5794
11
182.612
21
-67.5777
0
LINE
8
BLACK
6
CONTINUOUS
10
182.612
20
-67.5777
11
182.611
21
-67.5763
0
LINE
8
BLACK
6
CONTINUOUS
10
182.611
20
-67.5763
11
182.609
21
-67.5744
0
LINE
8
BLACK
6
CONTINUOUS
10
182.609
20
-67.5744
11
182.608
21
-67.5727
0
LINE
8
BLACK
6
CONTINUOUS
10
182.608
20
-67.5727
11
182.607
21
-67.5706
0
LINE
8
BLACK
6
CONTINUOUS
10
182.607
20
-67.5706
11
182.606
21
-67.5687
0
LINE
8
BLACK
6
CONTINUOUS
10
182.606
20
-67.5687
11
182.606
21
-67.5665
0
LINE
8
BLACK
6
CONTINUOUS
10
182.606
20
-67.5665
11
182.605
21
-67.5644
0
LINE
8
BLACK
6
CONTINUOUS
10
182.605
20
-67.5644
11
182.605
21
-67.5622
0
LINE
8
BLACK
6
CONTINUOUS
10
182.605
20
-67.5622
11
182.605
21
-67.5622
0
LINE
8
BLACK
6
CONTINUOUS
10
182.605
20
-67.5622
11
182.605
21
-54.3578
0
LINE
8
BLACK
6
CONTINUOUS
10
182.605
20
-54.3578
11
182.605
21
-54.3556
0
LINE
8
BLACK
6
CONTINUOUS
10
182.605
20
-54.3556
11
182.606
21
-54.3535
0
LINE
8
BLACK
6
CONTINUOUS
10
182.606
20
-54.3535
11
182.606
21
-54.3513
0
LINE
8
BLACK
6
CONTINUOUS
10
182.606
20
-54.3513
11
182.607
21
-54.3494
0
LINE
8
BLACK
6
CONTINUOUS
10
182.607
20
-54.3494
11
182.608
21
-54.3473
0
LINE
8
BLACK
6
CONTINUOUS
10
182.608
20
-54.3473
11
182.609
21
-54.3456
0
LINE
8
BLACK
6
CONTINUOUS
10
182.609
20
-54.3456
11
182.611
21
-54.3437
0
LINE
8
BLACK
6
CONTINUOUS
10
182.611
20
-54.3437
11
182.612
21
-54.3423
0
LINE
8
BLACK
6
CONTINUOUS
10
182.612
20
-54.3423
11
182.614
21
-54.3406
0
LINE
8
BLACK
6
CONTINUOUS
10
182.614
20
-54.3406
11
182.616
21
-54.3394
0
LINE
8
BLACK
6
CONTINUOUS
10
182.616
20
-54.3394
11
182.617
21
-54.338
0
LINE
8
BLACK
6
CONTINUOUS
10
182.617
20
-54.338
11
182.619
21
-54.3373
0
LINE
8
BLACK
6
CONTINUOUS
10
182.619
20
-54.3373
11
182.621
21
-54.3361
0
LINE
8
BLACK
6
CONTINUOUS
10
182.621
20
-54.3361
11
182.624
21
-54.3358
0
LINE
8
BLACK
6
CONTINUOUS
10
182.624
20
-54.3358
11
182.626
21
-54.335
0
LINE
8
BLACK
6
CONTINUOUS
10
182.626
20
-54.335
11
182.628
21
-54.335
0
LINE
8
BLACK
6
CONTINUOUS
10
182.628
20
-54.335
11
182.628
21
-54.335
0
LINE
8
BLACK
6
CONTINUOUS
10
182.628
20
-54.335
11
195.832
21
-54.335
0
LINE
8
BLACK
6
CONTINUOUS
10
195.832
20
-54.335
11
195.832
21
-54.335
0
LINE
8
BLACK
6
CONTINUOUS
10
182.655
20
-54.385
11
182.655
21
-67.535
0
LINE
8
BLACK
6
CONTINUOUS
10
182.655
20
-67.535
11
195.805
21
-67.535
0
LINE
8
BLACK
6
CONTINUOUS
10
195.805
20
-67.535
11
195.805
21
-54.385
0
LINE
8
BLACK
6
CONTINUOUS
10
195.805
20
-54.385
11
182.655
21
-54.385
0
LINE
8
BLACK
6
CONTINUOUS
10
131.062
20
-54.335
11
131.064
21
-54.335
0
LINE
8
BLACK
6
CONTINUOUS
10
131.064
20
-54.335
11
131.066
21
-54.3358
0
LINE
8
BLACK
6
CONTINUOUS
10
131.066
20
-54.3358
11
131.069
21
-54.3361
0
LINE
8
BLACK
6
CONTINUOUS
10
131.069
20
-54.3361
11
131.071
21
-54.3373
0
LINE
8
BLACK
6
CONTINUOUS
10
131.071
20
-54.3373
11
131.073
21
-54.338
0
LINE
8
BLACK
6
CONTINUOUS
10
131.073
20
-54.338
11
131.074
21
-54.3394
0
LINE
8
BLACK
6
CONTINUOUS
10
131.074
20
-54.3394
11
131.076
21
-54.3406
0
LINE
8
BLACK
6
CONTINUOUS
10
131.076
20
-54.3406
11
131.078
21
-54.3423
0
LINE
8
BLACK
6
CONTINUOUS
10
131.078
20
-54.3423
11
131.079
21
-54.3437
0
LINE
8
BLACK
6
CONTINUOUS
10
131.079
20
-54.3437
11
131.081
21
-54.3456
0
LINE
8
BLACK
6
CONTINUOUS
10
131.081
20
-54.3456
11
131.082
21
-54.3473
0
LINE
8
BLACK
6
CONTINUOUS
10
131.082
20
-54.3473
11
131.083
21
-54.3494
0
LINE
8
BLACK
6
CONTINUOUS
10
131.083
20
-54.3494
11
131.084
21
-54.3513
0
LINE
8
BLACK
6
CONTINUOUS
10
131.084
20
-54.3513
11
131.084
21
-54.3535
0
LINE
8
BLACK
6
CONTINUOUS
10
131.084
20
-54.3535
11
131.085
21
-54.3556
0
LINE
8
BLACK
6
CONTINUOUS
10
131.085
20
-54.3556
11
131.085
21
-54.3578
0
LINE
8
BLACK
6
CONTINUOUS
10
131.085
20
-54.3578
11
131.085
21
-54.3578
0
LINE
8
BLACK
6
CONTINUOUS
10
131.085
20
-54.3578
11
131.085
21
-67.5622
0
LINE
8
BLACK
6
CONTINUOUS
10
131.085
20
-67.5622
11
131.085
21
-67.5622
0
LINE
8
BLACK
6
CONTINUOUS
10
131.085
20
-67.5622
11
131.085
21
-67.5644
0
LINE
8
BLACK
6
CONTINUOUS
10
131.085
20
-67.5644
11
131.084
21
-67.5665
0
LINE
8
BLACK
6
CONTINUOUS
10
131.084
20
-67.5665
11
131.084
21
-67.5687
0
LINE
8
BLACK
6
CONTINUOUS
10
131.084
20
-67.5687
11
131.083
21
-67.5706
0
LINE
8
BLACK
6
CONTINUOUS
10
131.083
20
-67.5706
11
131.082
21
-67.5727
0
LINE
8
BLACK
6
CONTINUOUS
10
131.082
20
-67.5727
11
131.081
21
-67.5744
0
LINE
8
BLACK
6
CONTINUOUS
10
131.081
20
-67.5744
11
131.079
21
-67.5763
0
LINE
8
BLACK
6
CONTINUOUS
10
131.079
20
-67.5763
11
131.078
21
-67.5777
0
LINE
8
BLACK
6
CONTINUOUS
10
131.078
20
-67.5777
11
131.076
21
-67.5794
0
LINE
8
BLACK
6
CONTINUOUS
10
131.076
20
-67.5794
11
131.074
21
-67.5806
0
LINE
8
BLACK
6
CONTINUOUS
10
131.074
20
-67.5806
11
131.073
21
-67.582
0
LINE
8
BLACK
6
CONTINUOUS
10
131.073
20
-67.582
11
131.071
21
-67.5827
0
LINE
8
BLACK
6
CONTINUOUS
10
131.071
20
-67.5827
11
131.069
21
-67.5839
0
LINE
8
BLACK
6
CONTINUOUS
10
131.069
20
-67.5839
11
131.066
21
-67.5842
0
LINE
8
BLACK
6
CONTINUOUS
10
131.066
20
-67.5842
11
131.064
21
-67.585
0
LINE
8
BLACK
6
CONTINUOUS
10
131.064
20
-67.585
11
131.062
21
-67.585
0
LINE
8
BLACK
6
CONTINUOUS
10
131.062
20
-67.585
11
131.062
21
-67.585
0
LINE
8
BLACK
6
CONTINUOUS
10
131.062
20
-67.585
11
117.858
21
-67.585
0
LINE
8
BLACK
6
CONTINUOUS
10
117.858
20
-67.585
11
117.858
21
-67.585
0
LINE
8
BLACK
6
CONTINUOUS
10
117.858
20
-67.585
11
117.856
21
-67.585
0
LINE
8
BLACK
6
CONTINUOUS
10
117.856
20
-67.585
11
117.854
21
-67.5842
0
LINE
8
BLACK
6
CONTINUOUS
10
117.854
20
-67.5842
11
117.851
21
-67.5839
0
LINE
8
BLACK
6
CONTINUOUS
10
117.851
20
-67.5839
11
117.849
21
-67.5827
0
LINE
8
BLACK
6
CONTINUOUS
10
117.849
20
-67.5827
11
117.847
21
-67.582
0
LINE
8
BLACK
6
CONTINUOUS
10
117.847
20
-67.582
11
117.846
21
-67.5806
0
LINE
8
BLACK
6
CONTINUOUS
10
117.846
20
-67.5806
11
117.844
21
-67.5794
0
LINE
8
BLACK
6
CONTINUOUS
10
117.844
20
-67.5794
11
117.842
21
-67.5777
0
LINE
8
BLACK
6
CONTINUOUS
10
117.842
20
-67.5777
11
117.841
21
-67.5763
0
LINE
8
BLACK
6
CONTINUOUS
10
117.841
20
-67.5763
11
117.839
21
-67.5744
0
LINE
8
BLACK
6
CONTINUOUS
10
117.839
20
-67.5744
11
117.838
21
-67.5727
0
LINE
8
BLACK
6
CONTINUOUS
10
117.838
20
-67.5727
11
117.837
21
-67.5706
0
LINE
8
BLACK
6
CONTINUOUS
10
117.837
20
-67.5706
11
117.836
21
-67.5687
0
LINE
8
BLACK
6
CONTINUOUS
10
117.836
20
-67.5687
11
117.836
21
-67.5665
0
LINE
8
BLACK
6
CONTINUOUS
10
117.836
20
-67.5665
11
117.835
21
-67.5644
0
LINE
8
BLACK
6
CONTINUOUS
10
117.835
20
-67.5644
11
117.835
21
-67.5622
0
LINE
8
BLACK
6
CONTINUOUS
10
117.835
20
-67.5622
11
117.835
21
-67.5622
0
LINE
8
BLACK
6
CONTINUOUS
10
117.835
20
-67.5622
11
117.835
21
-54.3578
0
LINE
8
BLACK
6
CONTINUOUS
10
117.835
20
-54.3578
11
117.835
21
-54.3556
0
LINE
8
BLACK
6
CONTINUOUS
10
117.835
20
-54.3556
11
117.836
21
-54.3535
0
LINE
8
BLACK
6
CONTINUOUS
10
117.836
20
-54.3535
11
117.836
21
-54.3513
0
LINE
8
BLACK
6
CONTINUOUS
10
117.836
20
-54.3513
11
117.837
21
-54.3494
0
LINE
8
BLACK
6
CONTINUOUS
10
117.837
20
-54.3494
11
117.838
21
-54.3473
0
LINE
8
BLACK
6
CONTINUOUS
10
117.838
20
-54.3473
11
117.839
21
-54.3456
0
LINE
8
BLACK
6
CONTINUOUS
10
117.839
20
-54.3456
11
117.841
21
-54.3437
0
LINE
8
BLACK
6
CONTINUOUS
10
117.841
20
-54.3437
11
117.842
21
-54.3423
0
LINE
8
BLACK
6
CONTINUOUS
10
117.842
20
-54.3423
11
117.844
21
-54.3406
0
LINE
8
BLACK
6
CONTINUOUS
10
117.844
20
-54.3406
11
117.846
21
-54.3394
0
LINE
8
BLACK
6
CONTINUOUS
10
117.846
20
-54.3394
11
117.847
21
-54.338
0
LINE
8
BLACK
6
CONTINUOUS
10
117.847
20
-54.338
11
117.849
21
-54.3373
0
LINE
8
BLACK
6
CONTINUOUS
10
117.849
20
-54.3373
11
117.851
21
-54.3361
0
LINE
8
BLACK
6
CONTINUOUS
10
117.851
20
-54.3361
11
117.854
21
-54.3358
0
LINE
8
BLACK
6
CONTINUOUS
10
117.854
20
-54.3358
11
117.856
21
-54.335
0
LINE
8
BLACK
6
CONTINUOUS
10
117.856
20
-54.335
11
117.858
21
-54.335
0
LINE
8
BLACK
6
CONTINUOUS
10
117.858
20
-54.335
11
117.858
21
-54.335
0
LINE
8
BLACK
6
CONTINUOUS
10
117.858
20
-54.335
11
131.062
21
-54.335
0
LINE
8
BLACK
6
CONTINUOUS
10
131.062
20
-54.335
11
131.062
21
-54.335
0
LINE
8
BLACK
6
CONTINUOUS
10
117.885
20
-54.385
11
117.885
21
-67.535
0
LINE
8
BLACK
6
CONTINUOUS
10
117.885
20
-67.535
11
131.035
21
-67.535
0
LINE
8
BLACK
6
CONTINUOUS
10
131.035
20
-67.535
11
131.035
21
-54.385
0
LINE
8
BLACK
6
CONTINUOUS
10
131.035
20
-54.385
11
117.885
21
-54.385
0
LINE
8
BLACK
6
CONTINUOUS
10
109.472
20
-54.335
11
109.474
21
-54.335
0
LINE
8
BLACK
6
CONTINUOUS
10
109.474
20
-54.335
11
109.476
21
-54.3358
0
LINE
8
BLACK
6
CONTINUOUS
10
109.476
20
-54.3358
11
109.479
21
-54.3361
0
LINE
8
BLACK
6
CONTINUOUS
10
109.479
20
-54.3361
11
109.481
21
-54.3373
0
LINE
8
BLACK
6
CONTINUOUS
10
109.481
20
-54.3373
11
109.483
21
-54.338
0
LINE
8
BLACK
6
CONTINUOUS
10
109.483
20
-54.338
11
109.484
21
-54.3394
0
LINE
8
BLACK
6
CONTINUOUS
10
109.484
20
-54.3394
11
109.486
21
-54.3406
0
LINE
8
BLACK
6
CONTINUOUS
10
109.486
20
-54.3406
11
109.488
21
-54.3423
0
LINE
8
BLACK
6
CONTINUOUS
10
109.488
20
-54.3423
11
109.489
21
-54.3437
0
LINE
8
BLACK
6
CONTINUOUS
10
109.489
20
-54.3437
11
109.491
21
-54.3456
0
LINE
8
BLACK
6
CONTINUOUS
10
109.491
20
-54.3456
11
109.492
21
-54.3473
0
LINE
8
BLACK
6
CONTINUOUS
10
109.492
20
-54.3473
11
109.493
21
-54.3494
0
LINE
8
BLACK
6
CONTINUOUS
10
109.493
20
-54.3494
11
109.494
21
-54.3513
0
LINE
8
BLACK
6
CONTINUOUS
10
109.494
20
-54.3513
11
109.494
21
-54.3535
0
LINE
8
BLACK
6
CONTINUOUS
10
109.494
20
-54.3535
11
109.495
21
-54.3556
0
LINE
8
BLACK
6
CONTINUOUS
10
109.495
20
-54.3556
11
109.495
21
-54.3578
0
LINE
8
BLACK
6
CONTINUOUS
10
109.495
20
-54.3578
11
109.495
21
-54.3578
0
LINE
8
BLACK
6
CONTINUOUS
10
109.495
20
-54.3578
11
109.495
21
-67.5622
0
LINE
8
BLACK
6
CONTINUOUS
10
109.495
20
-67.5622
11
109.495
21
-67.5622
0
LINE
8
BLACK
6
CONTINUOUS
10
109.495
20
-67.5622
11
109.495
21
-67.5644
0
LINE
8
BLACK
6
CONTINUOUS
10
109.495
20
-67.5644
11
109.494
21
-67.5665
0
LINE
8
BLACK
6
CONTINUOUS
10
109.494
20
-67.5665
11
109.494
21
-67.5687
0
LINE
8
BLACK
6
CONTINUOUS
10
109.494
20
-67.5687
11
109.493
21
-67.5706
0
LINE
8
BLACK
6
CONTINUOUS
10
109.493
20
-67.5706
11
109.492
21
-67.5727
0
LINE
8
BLACK
6
CONTINUOUS
10
109.492
20
-67.5727
11
109.491
21
-67.5744
0
LINE
8
BLACK
6
CONTINUOUS
10
109.491
20
-67.5744
11
109.489
21
-67.5763
0
LINE
8
BLACK
6
CONTINUOUS
10
109.489
20
-67.5763
11
109.488
21
-67.5777
0
LINE
8
BLACK
6
CONTINUOUS
10
109.488
20
-67.5777
11
109.486
21
-67.5794
0
LINE
8
BLACK
6
CONTINUOUS
10
109.486
20
-67.5794
11
109.484
21
-67.5806
0
LINE
8
BLACK
6
CONTINUOUS
10
109.484
20
-67.5806
11
109.483
21
-67.582
0
LINE
8
BLACK
6
CONTINUOUS
10
109.483
20
-67.582
11
109.481
21
-67.5827
0
LINE
8
BLACK
6
CONTINUOUS
10
109.481
20
-67.5827
11
109.479
21
-67.5839
0
LINE
8
BLACK
6
CONTINUOUS
10
109.479
20
-67.5839
11
109.476
21
-67.5842
0
LINE
8
BLACK
6
CONTINUOUS
10
109.476
20
-67.5842
11
109.474
21
-67.585
0
LINE
8
BLACK
6
CONTINUOUS
10
109.474
20
-67.585
11
109.472
21
-67.585
0
LINE
8
BLACK
6
CONTINUOUS
10
109.472
20
-67.585
11
109.472
21
-67.585
0
LINE
8
BLACK
6
CONTINUOUS
10
109.472
20
-67.585
11
96.2678
21
-67.585
0
LINE
8
BLACK
6
CONTINUOUS
10
96.2678
20
-67.585
11
96.2678
21
-67.585
0
LINE
8
BLACK
6
CONTINUOUS
10
96.2678
20
-67.585
11
96.2656
21
-67.585
0
LINE
8
BLACK
6
CONTINUOUS
10
96.2656
20
-67.585
11
96.2635
21
-67.5842
0
LINE
8
BLACK
6
CONTINUOUS
10
96.2635
20
-67.5842
11
96.2613
21
-67.5839
0
LINE
8
BLACK
6
CONTINUOUS
10
96.2613
20
-67.5839
11
96.2594
21
-67.5827
0
LINE
8
BLACK
6
CONTINUOUS
10
96.2594
20
-67.5827
11
96.2573
21
-67.582
0
LINE
8
BLACK
6
CONTINUOUS
10
96.2573
20
-67.582
11
96.2556
21
-67.5806
0
LINE
8
BLACK
6
CONTINUOUS
10
96.2556
20
-67.5806
11
96.2537
21
-67.5794
0
LINE
8
BLACK
6
CONTINUOUS
10
96.2537
20
-67.5794
11
96.2523
21
-67.5777
0
LINE
8
BLACK
6
CONTINUOUS
10
96.2523
20
-67.5777
11
96.2506
21
-67.5763
0
LINE
8
BLACK
6
CONTINUOUS
10
96.2506
20
-67.5763
11
96.2494
21
-67.5744
0
LINE
8
BLACK
6
CONTINUOUS
10
96.2494
20
-67.5744
11
96.248
21
-67.5727
0
LINE
8
BLACK
6
CONTINUOUS
10
96.248
20
-67.5727
11
96.2473
21
-67.5706
0
LINE
8
BLACK
6
CONTINUOUS
10
96.2473
20
-67.5706
11
96.2461
21
-67.5687
0
LINE
8
BLACK
6
CONTINUOUS
10
96.2461
20
-67.5687
11
96.2458
21
-67.5665
0
LINE
8
BLACK
6
CONTINUOUS
10
96.2458
20
-67.5665
11
96.245
21
-67.5644
0
LINE
8
BLACK
6
CONTINUOUS
10
96.245
20
-67.5644
11
96.245
21
-67.5622
0
LINE
8
BLACK
6
CONTINUOUS
10
96.245
20
-67.5622
11
96.245
21
-67.5622
0
LINE
8
BLACK
6
CONTINUOUS
10
96.245
20
-67.5622
11
96.245
21
-54.3578
0
LINE
8
BLACK
6
CONTINUOUS
10
96.245
20
-54.3578
11
96.245
21
-54.3556
0
LINE
8
BLACK
6
CONTINUOUS
10
96.245
20
-54.3556
11
96.2458
21
-54.3535
0
LINE
8
BLACK
6
CONTINUOUS
10
96.2458
20
-54.3535
11
96.2461
21
-54.3513
0
LINE
8
BLACK
6
CONTINUOUS
10
96.2461
20
-54.3513
11
96.2473
21
-54.3494
0
LINE
8
BLACK
6
CONTINUOUS
10
96.2473
20
-54.3494
11
96.248
21
-54.3473
0
LINE
8
BLACK
6
CONTINUOUS
10
96.248
20
-54.3473
11
96.2494
21
-54.3456
0
LINE
8
BLACK
6
CONTINUOUS
10
96.2494
20
-54.3456
11
96.2506
21
-54.3437
0
LINE
8
BLACK
6
CONTINUOUS
10
96.2506
20
-54.3437
11
96.2523
21
-54.3423
0
LINE
8
BLACK
6
CONTINUOUS
10
96.2523
20
-54.3423
11
96.2537
21
-54.3406
0
LINE
8
BLACK
6
CONTINUOUS
10
96.2537
20
-54.3406
11
96.2556
21
-54.3394
0
LINE
8
BLACK
6
CONTINUOUS
10
96.2556
20
-54.3394
11
96.2573
21
-54.338
0
LINE
8
BLACK
6
CONTINUOUS
10
96.2573
20
-54.338
11
96.2594
21
-54.3373
0
LINE
8
BLACK
6
CONTINUOUS
10
96.2594
20
-54.3373
11
96.2613
21
-54.3361
0
LINE
8
BLACK
6
CONTINUOUS
10
96.2613
20
-54.3361
11
96.2635
21
-54.3358
0
LINE
8
BLACK
6
CONTINUOUS
10
96.2635
20
-54.3358
11
96.2656
21
-54.335
0
LINE
8
BLACK
6
CONTINUOUS
10
96.2656
20
-54.335
11
96.2678
21
-54.335
0
LINE
8
BLACK
6
CONTINUOUS
10
96.2678
20
-54.335
11
96.2678
21
-54.335
0
LINE
8
BLACK
6
CONTINUOUS
10
96.2678
20
-54.335
11
109.472
21
-54.335
0
LINE
8
BLACK
6
CONTINUOUS
10
109.472
20
-54.335
11
109.472
21
-54.335
0
LINE
8
BLACK
6
CONTINUOUS
10
96.295
20
-54.385
11
96.295
21
-67.535
0
LINE
8
BLACK
6
CONTINUOUS
10
96.295
20
-67.535
11
109.445
21
-67.535
0
LINE
8
BLACK
6
CONTINUOUS
10
109.445
20
-67.535
11
109.445
21
-54.385
0
LINE
8
BLACK
6
CONTINUOUS
10
109.445
20
-54.385
11
96.295
21
-54.385
0
LINE
8
BLACK
6
CONTINUOUS
10
174.242
20
-54.335
11
174.244
21
-54.335
0
LINE
8
BLACK
6
CONTINUOUS
10
174.244
20
-54.335
11
174.246
21
-54.3358
0
LINE
8
BLACK
6
CONTINUOUS
10
174.246
20
-54.3358
11
174.249
21
-54.3361
0
LINE
8
BLACK
6
CONTINUOUS
10
174.249
20
-54.3361
11
174.251
21
-54.3373
0
LINE
8
BLACK
6
CONTINUOUS
10
174.251
20
-54.3373
11
174.253
21
-54.338
0
LINE
8
BLACK
6
CONTINUOUS
10
174.253
20
-54.338
11
174.254
21
-54.3394
0
LINE
8
BLACK
6
CONTINUOUS
10
174.254
20
-54.3394
11
174.256
21
-54.3406
0
LINE
8
BLACK
6
CONTINUOUS
10
174.256
20
-54.3406
11
174.258
21
-54.3423
0
LINE
8
BLACK
6
CONTINUOUS
10
174.258
20
-54.3423
11
174.259
21
-54.3437
0
LINE
8
BLACK
6
CONTINUOUS
10
174.259
20
-54.3437
11
174.261
21
-54.3456
0
LINE
8
BLACK
6
CONTINUOUS
10
174.261
20
-54.3456
11
174.262
21
-54.3473
0
LINE
8
BLACK
6
CONTINUOUS
10
174.262
20
-54.3473
11
174.263
21
-54.3494
0
LINE
8
BLACK
6
CONTINUOUS
10
174.263
20
-54.3494
11
174.264
21
-54.3513
0
LINE
8
BLACK
6
CONTINUOUS
10
174.264
20
-54.3513
11
174.264
21
-54.3535
0
LINE
8
BLACK
6
CONTINUOUS
10
174.264
20
-54.3535
11
174.265
21
-54.3556
0
LINE
8
BLACK
6
CONTINUOUS
10
174.265
20
-54.3556
11
174.265
21
-54.3578
0
LINE
8
BLACK
6
CONTINUOUS
10
174.265
20
-54.3578
11
174.265
21
-54.3578
0
LINE
8
BLACK
6
CONTINUOUS
10
174.265
20
-54.3578
11
174.265
21
-67.5622
0
LINE
8
BLACK
6
CONTINUOUS
10
174.265
20
-67.5622
11
174.265
21
-67.5622
0
LINE
8
BLACK
6
CONTINUOUS
10
174.265
20
-67.5622
11
174.265
21
-67.5644
0
LINE
8
BLACK
6
CONTINUOUS
10
174.265
20
-67.5644
11
174.264
21
-67.5665
0
LINE
8
BLACK
6
CONTINUOUS
10
174.264
20
-67.5665
11
174.264
21
-67.5687
0
LINE
8
BLACK
6
CONTINUOUS
10
174.264
20
-67.5687
11
174.263
21
-67.5706
0
LINE
8
BLACK
6
CONTINUOUS
10
174.263
20
-67.5706
11
174.262
21
-67.5727
0
LINE
8
BLACK
6
CONTINUOUS
10
174.262
20
-67.5727
11
174.261
21
-67.5744
0
LINE
8
BLACK
6
CONTINUOUS
10
174.261
20
-67.5744
11
174.259
21
-67.5763
0
LINE
8
BLACK
6
CONTINUOUS
10
174.259
20
-67.5763
11
174.258
21
-67.5777
0
LINE
8
BLACK
6
CONTINUOUS
10
174.258
20
-67.5777
11
174.256
21
-67.5794
0
LINE
8
BLACK
6
CONTINUOUS
10
174.256
20
-67.5794
11
174.254
21
-67.5806
0
LINE
8
BLACK
6
CONTINUOUS
10
174.254
20
-67.5806
11
174.253
21
-67.582
0
LINE
8
BLACK
6
CONTINUOUS
10
174.253
20
-67.582
11
174.251
21
-67.5827
0
LINE
8
BLACK
6
CONTINUOUS
10
174.251
20
-67.5827
11
174.249
21
-67.5839
0
LINE
8
BLACK
6
CONTINUOUS
10
174.249
20
-67.5839
11
174.246
21
-67.5842
0
LINE
8
BLACK
6
CONTINUOUS
10
174.246
20
-67.5842
11
174.244
21
-67.585
0
LINE
8
BLACK
6
CONTINUOUS
10
174.244
20
-67.585
11
174.242
21
-67.585
0
LINE
8
BLACK
6
CONTINUOUS
10
174.242
20
-67.585
11
174.242
21
-67.585
0
LINE
8
BLACK
6
CONTINUOUS
10
174.242
20
-67.585
11
161.038
21
-67.585
0
LINE
8
BLACK
6
CONTINUOUS
10
161.038
20
-67.585
11
161.038
21
-67.585
0
LINE
8
BLACK
6
CONTINUOUS
10
161.038
20
-67.585
11
161.036
21
-67.585
0
LINE
8
BLACK
6
CONTINUOUS
10
161.036
20
-67.585
11
161.034
21
-67.5842
0
LINE
8
BLACK
6
CONTINUOUS
10
161.034
20
-67.5842
11
161.031
21
-67.5839
0
LINE
8
BLACK
6
CONTINUOUS
10
161.031
20
-67.5839
11
161.029
21
-67.5827
0
LINE
8
BLACK
6
CONTINUOUS
10
161.029
20
-67.5827
11
161.027
21
-67.582
0
LINE
8
BLACK
6
CONTINUOUS
10
161.027
20
-67.582
11
161.026
21
-67.5806
0
LINE
8
BLACK
6
CONTINUOUS
10
161.026
20
-67.5806
11
161.024
21
-67.5794
0
LINE
8
BLACK
6
CONTINUOUS
10
161.024
20
-67.5794
11
161.022
21
-67.5777
0
LINE
8
BLACK
6
CONTINUOUS
10
161.022
20
-67.5777
11
161.021
21
-67.5763
0
LINE
8
BLACK
6
CONTINUOUS
10
161.021
20
-67.5763
11
161.019
21
-67.5744
0
LINE
8
BLACK
6
CONTINUOUS
10
161.019
20
-67.5744
11
161.018
21
-67.5727
0
LINE
8
BLACK
6
CONTINUOUS
10
161.018
20
-67.5727
11
161.017
21
-67.5706
0
LINE
8
BLACK
6
CONTINUOUS
10
161.017
20
-67.5706
11
161.016
21
-67.5687
0
LINE
8
BLACK
6
CONTINUOUS
10
161.016
20
-67.5687
11
161.016
21
-67.5665
0
LINE
8
BLACK
6
CONTINUOUS
10
161.016
20
-67.5665
11
161.015
21
-67.5644
0
LINE
8
BLACK
6
CONTINUOUS
10
161.015
20
-67.5644
11
161.015
21
-67.5622
0
LINE
8
BLACK
6
CONTINUOUS
10
161.015
20
-67.5622
11
161.015
21
-67.5622
0
LINE
8
BLACK
6
CONTINUOUS
10
161.015
20
-67.5622
11
161.015
21
-54.3578
0
LINE
8
BLACK
6
CONTINUOUS
10
161.015
20
-54.3578
11
161.015
21
-54.3556
0
LINE
8
BLACK
6
CONTINUOUS
10
161.015
20
-54.3556
11
161.016
21
-54.3535
0
LINE
8
BLACK
6
CONTINUOUS
10
161.016
20
-54.3535
11
161.016
21
-54.3513
0
LINE
8
BLACK
6
CONTINUOUS
10
161.016
20
-54.3513
11
161.017
21
-54.3494
0
LINE
8
BLACK
6
CONTINUOUS
10
161.017
20
-54.3494
11
161.018
21
-54.3473
0
LINE
8
BLACK
6
CONTINUOUS
10
161.018
20
-54.3473
11
161.019
21
-54.3456
0
LINE
8
BLACK
6
CONTINUOUS
10
161.019
20
-54.3456
11
161.021
21
-54.3437
0
LINE
8
BLACK
6
CONTINUOUS
10
161.021
20
-54.3437
11
161.022
21
-54.3423
0
LINE
8
BLACK
6
CONTINUOUS
10
161.022
20
-54.3423
11
161.024
21
-54.3406
0
LINE
8
BLACK
6
CONTINUOUS
10
161.024
20
-54.3406
11
161.026
21
-54.3394
0
LINE
8
BLACK
6
CONTINUOUS
10
161.026
20
-54.3394
11
161.027
21
-54.338
0
LINE
8
BLACK
6
CONTINUOUS
10
161.027
20
-54.338
11
161.029
21
-54.3373
0
LINE
8
BLACK
6
CONTINUOUS
10
161.029
20
-54.3373
11
161.031
21
-54.3361
0
LINE
8
BLACK
6
CONTINUOUS
10
161.031
20
-54.3361
11
161.034
21
-54.3358
0
LINE
8
BLACK
6
CONTINUOUS
10
161.034
20
-54.3358
11
161.036
21
-54.335
0
LINE
8
BLACK
6
CONTINUOUS
10
161.036
20
-54.335
11
161.038
21
-54.335
0
LINE
8
BLACK
6
CONTINUOUS
10
161.038
20
-54.335
11
161.038
21
-54.335
0
LINE
8
BLACK
6
CONTINUOUS
10
161.038
20
-54.335
11
174.242
21
-54.335
0
LINE
8
BLACK
6
CONTINUOUS
10
174.242
20
-54.335
11
174.242
21
-54.335
0
LINE
8
BLACK
6
CONTINUOUS
10
161.065
20
-54.385
11
161.065
21
-67.535
0
LINE
8
BLACK
6
CONTINUOUS
10
161.065
20
-67.535
11
174.215
21
-67.535
0
LINE
8
BLACK
6
CONTINUOUS
10
174.215
20
-67.535
11
174.215
21
-54.385
0
LINE
8
BLACK
6
CONTINUOUS
10
174.215
20
-54.385
11
161.065
21
-54.385
0
LINE
8
BLACK
6
CONTINUOUS
10
152.652
20
-54.335
11
152.654
21
-54.335
0
LINE
8
BLACK
6
CONTINUOUS
10
152.654
20
-54.335
11
152.656
21
-54.3358
0
LINE
8
BLACK
6
CONTINUOUS
10
152.656
20
-54.3358
11
152.659
21
-54.3361
0
LINE
8
BLACK
6
CONTINUOUS
10
152.659
20
-54.3361
11
152.661
21
-54.3373
0
LINE
8
BLACK
6
CONTINUOUS
10
152.661
20
-54.3373
11
152.663
21
-54.338
0
LINE
8
BLACK
6
CONTINUOUS
10
152.663
20
-54.338
11
152.664
21
-54.3394
0
LINE
8
BLACK
6
CONTINUOUS
10
152.664
20
-54.3394
11
152.666
21
-54.3406
0
LINE
8
BLACK
6
CONTINUOUS
10
152.666
20
-54.3406
11
152.668
21
-54.3423
0
LINE
8
BLACK
6
CONTINUOUS
10
152.668
20
-54.3423
11
152.669
21
-54.3437
0
LINE
8
BLACK
6
CONTINUOUS
10
152.669
20
-54.3437
11
152.671
21
-54.3456
0
LINE
8
BLACK
6
CONTINUOUS
10
152.671
20
-54.3456
11
152.672
21
-54.3473
0
LINE
8
BLACK
6
CONTINUOUS
10
152.672
20
-54.3473
11
152.673
21
-54.3494
0
LINE
8
BLACK
6
CONTINUOUS
10
152.673
20
-54.3494
11
152.674
21
-54.3513
0
LINE
8
BLACK
6
CONTINUOUS
10
152.674
20
-54.3513
11
152.674
21
-54.3535
0
LINE
8
BLACK
6
CONTINUOUS
10
152.674
20
-54.3535
11
152.675
21
-54.3556
0
LINE
8
BLACK
6
CONTINUOUS
10
152.675
20
-54.3556
11
152.675
21
-54.3578
0
LINE
8
BLACK
6
CONTINUOUS
10
152.675
20
-54.3578
11
152.675
21
-54.3578
0
LINE
8
BLACK
6
CONTINUOUS
10
152.675
20
-54.3578
11
152.675
21
-67.5622
0
LINE
8
BLACK
6
CONTINUOUS
10
152.675
20
-67.5622
11
152.675
21
-67.5622
0
LINE
8
BLACK
6
CONTINUOUS
10
152.675
20
-67.5622
11
152.675
21
-67.5644
0
LINE
8
BLACK
6
CONTINUOUS
10
152.675
20
-67.5644
11
152.674
21
-67.5665
0
LINE
8
BLACK
6
CONTINUOUS
10
152.674
20
-67.5665
11
152.674
21
-67.5687
0
LINE
8
BLACK
6
CONTINUOUS
10
152.674
20
-67.5687
11
152.673
21
-67.5706
0
LINE
8
BLACK
6
CONTINUOUS
10
152.673
20
-67.5706
11
152.672
21
-67.5727
0
LINE
8
BLACK
6
CONTINUOUS
10
152.672
20
-67.5727
11
152.671
21
-67.5744
0
LINE
8
BLACK
6
CONTINUOUS
10
152.671
20
-67.5744
11
152.669
21
-67.5763
0
LINE
8
BLACK
6
CONTINUOUS
10
152.669
20
-67.5763
11
152.668
21
-67.5777
0
LINE
8
BLACK
6
CONTINUOUS
10
152.668
20
-67.5777
11
152.666
21
-67.5794
0
LINE
8
BLACK
6
CONTINUOUS
10
152.666
20
-67.5794
11
152.664
21
-67.5806
0
LINE
8
BLACK
6
CONTINUOUS
10
152.664
20
-67.5806
11
152.663
21
-67.582
0
LINE
8
BLACK
6
CONTINUOUS
10
152.663
20
-67.582
11
152.661
21
-67.5827
0
LINE
8
BLACK
6
CONTINUOUS
10
152.661
20
-67.5827
11
152.659
21
-67.5839
0
LINE
8
BLACK
6
CONTINUOUS
10
152.659
20
-67.5839
11
152.656
21
-67.5842
0
LINE
8
BLACK
6
CONTINUOUS
10
152.656
20
-67.5842
11
152.654
21
-67.585
0
LINE
8
BLACK
6
CONTINUOUS
10
152.654
20
-67.585
11
152.652
21
-67.585
0
LINE
8
BLACK
6
CONTINUOUS
10
152.652
20
-67.585
11
152.652
21
-67.585
0
LINE
8
BLACK
6
CONTINUOUS
10
152.652
20
-67.585
11
139.448
21
-67.585
0
LINE
8
BLACK
6
CONTINUOUS
10
139.448
20
-67.585
11
139.448
21
-67.585
0
LINE
8
BLACK
6
CONTINUOUS
10
139.448
20
-67.585
11
139.446
21
-67.585
0
LINE
8
BLACK
6
CONTINUOUS
10
139.446
20
-67.585
11
139.444
21
-67.5842
0
LINE
8
BLACK
6
CONTINUOUS
10
139.444
20
-67.5842
11
139.441
21
-67.5839
0
LINE
8
BLACK
6
CONTINUOUS
10
139.441
20
-67.5839
11
139.439
21
-67.5827
0
LINE
8
BLACK
6
CONTINUOUS
10
139.439
20
-67.5827
11
139.437
21
-67.582
0
LINE
8
BLACK
6
CONTINUOUS
10
139.437
20
-67.582
11
139.436
21
-67.5806
0
LINE
8
BLACK
6
CONTINUOUS
10
139.436
20
-67.5806
11
139.434
21
-67.5794
0
LINE
8
BLACK
6
CONTINUOUS
10
139.434
20
-67.5794
11
139.432
21
-67.5777
0
LINE
8
BLACK
6
CONTINUOUS
10
139.432
20
-67.5777
11
139.431
21
-67.5763
0
LINE
8
BLACK
6
CONTINUOUS
10
139.431
20
-67.5763
11
139.429
21
-67.5744
0
LINE
8
BLACK
6
CONTINUOUS
10
139.429
20
-67.5744
11
139.428
21
-67.5727
0
LINE
8
BLACK
6
CONTINUOUS
10
139.428
20
-67.5727
11
139.427
21
-67.5706
0
LINE
8
BLACK
6
CONTINUOUS
10
139.427
20
-67.5706
11
139.426
21
-67.5687
0
LINE
8
BLACK
6
CONTINUOUS
10
139.426
20
-67.5687
11
139.426
21
-67.5665
0
LINE
8
BLACK
6
CONTINUOUS
10
139.426
20
-67.5665
11
139.425
21
-67.5644
0
LINE
8
BLACK
6
CONTINUOUS
10
139.425
20
-67.5644
11
139.425
21
-67.5622
0
LINE
8
BLACK
6
CONTINUOUS
10
139.425
20
-67.5622
11
139.425
21
-67.5622
0
LINE
8
BLACK
6
CONTINUOUS
10
139.425
20
-67.5622
11
139.425
21
-54.3578
0
LINE
8
BLACK
6
CONTINUOUS
10
139.425
20
-54.3578
11
139.425
21
-54.3556
0
LINE
8
BLACK
6
CONTINUOUS
10
139.425
20
-54.3556
11
139.426
21
-54.3535
0
LINE
8
BLACK
6
CONTINUOUS
10
139.426
20
-54.3535
11
139.426
21
-54.3513
0
LINE
8
BLACK
6
CONTINUOUS
10
139.426
20
-54.3513
11
139.427
21
-54.3494
0
LINE
8
BLACK
6
CONTINUOUS
10
139.427
20
-54.3494
11
139.428
21
-54.3473
0
LINE
8
BLACK
6
CONTINUOUS
10
139.428
20
-54.3473
11
139.429
21
-54.3456
0
LINE
8
BLACK
6
CONTINUOUS
10
139.429
20
-54.3456
11
139.431
21
-54.3437
0
LINE
8
BLACK
6
CONTINUOUS
10
139.431
20
-54.3437
11
139.432
21
-54.3423
0
LINE
8
BLACK
6
CONTINUOUS
10
139.432
20
-54.3423
11
139.434
21
-54.3406
0
LINE
8
BLACK
6
CONTINUOUS
10
139.434
20
-54.3406
11
139.436
21
-54.3394
0
LINE
8
BLACK
6
CONTINUOUS
10
139.436
20
-54.3394
11
139.437
21
-54.338
0
LINE
8
BLACK
6
CONTINUOUS
10
139.437
20
-54.338
11
139.439
21
-54.3373
0
LINE
8
BLACK
6
CONTINUOUS
10
139.439
20
-54.3373
11
139.441
21
-54.3361
0
LINE
8
BLACK
6
CONTINUOUS
10
139.441
20
-54.3361
11
139.444
21
-54.3358
0
LINE
8
BLACK
6
CONTINUOUS
10
139.444
20
-54.3358
11
139.446
21
-54.335
0
LINE
8
BLACK
6
CONTINUOUS
10
139.446
20
-54.335
11
139.448
21
-54.335
0
LINE
8
BLACK
6
CONTINUOUS
10
139.448
20
-54.335
11
139.448
21
-54.335
0
LINE
8
BLACK
6
CONTINUOUS
10
139.448
20
-54.335
11
152.652
21
-54.335
0
LINE
8
BLACK
6
CONTINUOUS
10
152.652
20
-54.335
11
152.652
21
-54.335
0
LINE
8
BLACK
6
CONTINUOUS
10
139.475
20
-54.385
11
139.475
21
-67.535
0
LINE
8
BLACK
6
CONTINUOUS
10
139.475
20
-67.535
11
152.625
21
-67.535
0
LINE
8
BLACK
6
CONTINUOUS
10
152.625
20
-67.535
11
152.625
21
-54.385
0
LINE
8
BLACK
6
CONTINUOUS
10
152.625
20
-54.385
11
139.475
21
-54.385
0
LINE
8
BLACK
6
CONTINUOUS
10
94.4115
20
-57.3037
11
94.0223
21
-57.9267
0
LINE
8
BLACK
6
CONTINUOUS
10
94.0223
20
-57.9267
11
93.5047
21
-58.4479
0
LINE
8
BLACK
6
CONTINUOUS
10
93.5047
20
-58.4479
11
92.8844
21
-58.8415
0
LINE
8
BLACK
6
CONTINUOUS
10
92.8844
20
-58.8415
11
92.1924
21
-59.0879
0
LINE
8
BLACK
6
CONTINUOUS
10
92.1924
20
-59.0879
11
91.463
21
-59.1749
0
LINE
8
BLACK
6
CONTINUOUS
10
91.463
20
-59.1749
11
90.7324
21
-59.0981
0
LINE
8
BLACK
6
CONTINUOUS
10
90.7324
20
-59.0981
11
90.0371
21
-58.8614
0
LINE
8
BLACK
6
CONTINUOUS
10
90.0371
20
-58.8614
11
89.4114
21
-58.4765
0
LINE
8
BLACK
6
CONTINUOUS
10
89.4114
20
-58.4765
11
88.8866
21
-57.9625
0
LINE
8
BLACK
6
CONTINUOUS
10
88.8866
20
-57.9625
11
88.4886
21
-57.3451
0
LINE
8
BLACK
6
CONTINUOUS
10
88.4886
20
-57.3451
11
88.2374
21
-56.6548
0
LINE
8
BLACK
6
CONTINUOUS
10
88.2374
20
-56.6548
11
88.1453
21
-55.926
0
LINE
8
BLACK
6
CONTINUOUS
10
88.1453
20
-55.926
11
88.217
21
-55.1949
0
LINE
8
BLACK
6
CONTINUOUS
10
88.217
20
-55.1949
11
88.4489
21
-54.4979
0
LINE
8
BLACK
6
CONTINUOUS
10
88.4489
20
-54.4979
11
88.8294
21
-53.8696
0
LINE
8
BLACK
6
CONTINUOUS
10
88.8294
20
-53.8696
11
89.3397
21
-53.3412
0
LINE
8
BLACK
6
CONTINUOUS
10
89.3397
20
-53.3412
11
89.9544
21
-52.9389
0
LINE
8
BLACK
6
CONTINUOUS
10
89.9544
20
-52.9389
11
90.6429
21
-52.6829
0
LINE
8
BLACK
6
CONTINUOUS
10
90.6429
20
-52.6829
11
91.371
21
-52.5857
0
LINE
8
BLACK
6
CONTINUOUS
10
91.371
20
-52.5857
11
92.1026
21
-52.6523
0
LINE
8
BLACK
6
CONTINUOUS
10
92.1026
20
-52.6523
11
92.8012
21
-52.8793
0
LINE
8
BLACK
6
CONTINUOUS
10
92.8012
20
-52.8793
11
93.4322
21
-53.2554
0
LINE
8
BLACK
6
CONTINUOUS
10
93.4322
20
-53.2554
11
93.9641
21
-53.762
0
LINE
8
BLACK
6
CONTINUOUS
10
93.9641
20
-53.762
11
94.3706
21
-54.3739
0
LINE
8
BLACK
6
CONTINUOUS
10
94.3706
20
-54.3739
11
94.6315
21
-55.0606
0
LINE
8
BLACK
6
CONTINUOUS
10
94.6315
20
-55.0606
11
94.7337
21
-55.788
0
LINE
8
BLACK
6
CONTINUOUS
10
94.7337
20
-55.788
11
94.735
21
-55.88
0
LINE
8
BLACK
6
CONTINUOUS
10
94.735
20
-55.88
11
94.6531
21
-56.61
0
LINE
8
BLACK
6
CONTINUOUS
10
94.6531
20
-56.61
11
94.4115
21
-57.3037
0
LINE
8
BLACK
6
CONTINUOUS
10
94.3484
20
-54.4865
11
93.9674
21
-53.8768
0
LINE
8
BLACK
6
CONTINUOUS
10
93.9674
20
-53.8768
11
93.4608
21
-53.3666
0
LINE
8
BLACK
6
CONTINUOUS
10
93.4608
20
-53.3666
11
92.8537
21
-52.9814
0
LINE
8
BLACK
6
CONTINUOUS
10
92.8537
20
-52.9814
11
92.1764
21
-52.7402
0
LINE
8
BLACK
6
CONTINUOUS
10
92.1764
20
-52.7402
11
91.4625
21
-52.6551
0
LINE
8
BLACK
6
CONTINUOUS
10
91.4625
20
-52.6551
11
90.7475
21
-52.7302
0
LINE
8
BLACK
6
CONTINUOUS
10
90.7475
20
-52.7302
11
90.0669
21
-52.9619
0
LINE
8
BLACK
6
CONTINUOUS
10
90.0669
20
-52.9619
11
89.4545
21
-53.3387
0
LINE
8
BLACK
6
CONTINUOUS
10
89.4545
20
-53.3387
11
88.9408
21
-53.8417
0
LINE
8
BLACK
6
CONTINUOUS
10
88.9408
20
-53.8417
11
88.5513
21
-54.4461
0
LINE
8
BLACK
6
CONTINUOUS
10
88.5513
20
-54.4461
11
88.3054
21
-55.1217
0
LINE
8
BLACK
6
CONTINUOUS
10
88.3054
20
-55.1217
11
88.2153
21
-55.835
0
LINE
8
BLACK
6
CONTINUOUS
10
88.2153
20
-55.835
11
88.2855
21
-56.5505
0
LINE
8
BLACK
6
CONTINUOUS
10
88.2855
20
-56.5505
11
88.5124
21
-57.2327
0
LINE
8
BLACK
6
CONTINUOUS
10
88.5124
20
-57.2327
11
88.8849
21
-57.8477
0
LINE
8
BLACK
6
CONTINUOUS
10
88.8849
20
-57.8477
11
89.3843
21
-58.3649
0
LINE
8
BLACK
6
CONTINUOUS
10
89.3843
20
-58.3649
11
89.9859
21
-58.7586
0
LINE
8
BLACK
6
CONTINUOUS
10
89.9859
20
-58.7586
11
90.6598
21
-59.0092
0
LINE
8
BLACK
6
CONTINUOUS
10
90.6598
20
-59.0092
11
91.3725
21
-59.1043
0
LINE
8
BLACK
6
CONTINUOUS
10
91.3725
20
-59.1043
11
92.0885
21
-59.0391
0
LINE
8
BLACK
6
CONTINUOUS
10
92.0885
20
-59.0391
11
92.7723
21
-58.817
0
LINE
8
BLACK
6
CONTINUOUS
10
92.7723
20
-58.817
11
93.3898
21
-58.4488
0
LINE
8
BLACK
6
CONTINUOUS
10
93.3898
20
-58.4488
11
93.9105
21
-57.953
0
LINE
8
BLACK
6
CONTINUOUS
10
93.9105
20
-57.953
11
94.3084
21
-57.3541
0
LINE
8
BLACK
6
CONTINUOUS
10
94.3084
20
-57.3541
11
94.5637
21
-56.682
0
LINE
8
BLACK
6
CONTINUOUS
10
94.5637
20
-56.682
11
94.6637
21
-55.97
0
LINE
8
BLACK
6
CONTINUOUS
10
94.6637
20
-55.97
11
94.665
21
-55.88
0
LINE
8
BLACK
6
CONTINUOUS
10
94.665
20
-55.88
11
94.5849
21
-55.1655
0
LINE
8
BLACK
6
CONTINUOUS
10
94.5849
20
-55.1655
11
94.3484
21
-54.4865
  0
ENDSEC
  0
EOF
